  0
SECTION
  2
HEADER
  9
$ACADVER
  1
AC1027
  9
$ACADMAINTVER
 70
   105
  9
$DWGCODEPAGE
  3
ANSI_1251
  9
$REQUIREDVERSIONS
160
                 0
  9
$INSBASE
 10
0.0
 20
0.0
 30
0.0
  9
$EXTMIN
 10
0.0
 20
-4.0
 30
0.0
  9
$EXTMAX
 10
700.0
 20
351.0
 30
0.0
  9
$LIMMIN
 10
0.0
 20
0.0
  9
$LIMMAX
 10
420.0
 20
297.0
  9
$ORTHOMODE
 70
     0
  9
$REGENMODE
 70
     1
  9
$FILLMODE
 70
     1
  9
$QTEXTMODE
 70
     0
  9
$MIRRTEXT
 70
     1
  9
$LTSCALE
 40
1.0
  9
$ATTMODE
 70
     1
  9
$TEXTSIZE
 40
4.9388888889
  9
$TRACEWID
 40
1.0
  9
$TEXTSTYLE
  7
Standard
  9
$CLAYER
  8
0
  9
$CELTYPE
  6
ByLayer
  9
$CECOLOR
 62
   256
  9
$CELTSCALE
 40
1.0
  9
$DISPSILH
 70
     0
  9
$DIMSCALE
 40
1.0
  9
$DIMASZ
 40
3.556
  9
$DIMEXO
 40
1.0
  9
$DIMDLI
 40
3.75
  9
$DIMRND
 40
0.0
  9
$DIMDLE
 40
0.0
  9
$DIMEXE
 40
1.0
  9
$DIMTP
 40
0.0
  9
$DIMTM
 40
0.0
  9
$DIMTXT
 40
4.2333333333
  9
$DIMCEN
 40
2.5
  9
$DIMTSZ
 40
0.0
  9
$DIMTOL
 70
     0
  9
$DIMLIM
 70
     0
  9
$DIMTIH
 70
     1
  9
$DIMTOH
 70
     1
  9
$DIMSE1
 70
     0
  9
$DIMSE2
 70
     0
  9
$DIMTAD
 70
     1
  9
$DIMZIN
 70
     1
  9
$DIMBLK
  1

  9
$DIMASO
 70
     1
  9
$DIMSHO
 70
     1
  9
$DIMPOST
  1

  9
$DIMAPOST
  1

  9
$DIMALT
 70
     0
  9
$DIMALTD
 70
     3
  9
$DIMALTF
 40
0.0393700787
  9
$DIMLFAC
 40
1.0
  9
$DIMTOFL
 70
     1
  9
$DIMTVP
 40
0.0
  9
$DIMTIX
 70
     0
  9
$DIMSOXD
 70
     0
  9
$DIMSAH
 70
     0
  9
$DIMBLK1
  1

  9
$DIMBLK2
  1

  9
$DIMSTYLE
  2
ISO-25
  9
$DIMCLRD
 70
     0
  9
$DIMCLRE
 70
     0
  9
$DIMCLRT
 70
     0
  9
$DIMTFAC
 40
1.0
  9
$DIMGAP
 40
1.524
  9
$DIMJUST
 70
     0
  9
$DIMSD1
 70
     0
  9
$DIMSD2
 70
     0
  9
$DIMTOLJ
 70
     0
  9
$DIMTZIN
 70
     1
  9
$DIMALTZ
 70
     0
  9
$DIMALTTZ
 70
     0
  9
$DIMUPT
 70
     0
  9
$DIMDEC
 70
     2
  9
$DIMTDEC
 70
     2
  9
$DIMALTU
 70
     2
  9
$DIMALTTD
 70
     3
  9
$DIMTXSTY
  7
Standard
  9
$DIMAUNIT
 70
     0
  9
$DIMADEC
 70
     2
  9
$DIMALTRND
 40
0.0
  9
$DIMAZIN
 70
     0
  9
$DIMDSEP
 70
    44
  9
$DIMATFIT
 70
     3
  9
$DIMFRAC
 70
     0
  9
$DIMLDRBLK
  1

  9
$DIMLUNIT
 70
     2
  9
$DIMLWD
 70
    -2
  9
$DIMLWE
 70
    -2
  9
$DIMTMOVE
 70
     0
  9
$DIMFXL
 40
1.0
  9
$DIMFXLON
 70
     0
  9
$DIMJOGANG
 40
0.7853981634
  9
$DIMTFILL
 70
     0
  9
$DIMTFILLCLR
 70
     0
  9
$DIMARCSYM
 70
     0
  9
$DIMLTYPE
  6

  9
$DIMLTEX1
  6

  9
$DIMLTEX2
  6

  9
$DIMTXTDIRECTION
 70
     0
  9
$LUNITS
 70
     2
  9
$LUPREC
 70
     2
  9
$SKETCHINC
 40
1.0
  9
$FILLETRAD
 40
10.0
  9
$AUNITS
 70
     0
  9
$AUPREC
 70
     2
  9
$MENU
  1
.
  9
$ELEVATION
 40
0.0
  9
$PELEVATION
 40
0.0
  9
$THICKNESS
 40
0.0
  9
$LIMCHECK
 70
     0
  9
$CHAMFERA
 40
0.0
  9
$CHAMFERB
 40
0.0
  9
$CHAMFERC
 40
0.0
  9
$CHAMFERD
 40
0.0
  9
$SKPOLY
 70
     0
  9
$TDCREATE
 40
2458419.657300903
  9
$TDUCREATE
 40
2458419.532300903
  9
$TDUPDATE
 40
2458419.657331968
  9
$TDUUPDATE
 40
2458419.532331968
  9
$TDINDWG
 40
0.0000000116
  9
$TDUSRTIMER
 40
0.0000000116
  9
$USRTIMER
 70
     1
  9
$ANGBASE
 50
0.0
  9
$ANGDIR
 70
     0
  9
$PDMODE
 70
     0
  9
$PDSIZE
 40
-1.0
  9
$PLINEWID
 40
0.0
  9
$SPLFRAME
 70
     0
  9
$SPLINETYPE
 70
     6
  9
$SPLINESEGS
 70
     8
  9
$HANDSEED
  5
17E
  9
$SURFTAB1
 70
     6
  9
$SURFTAB2
 70
     6
  9
$SURFTYPE
 70
     6
  9
$SURFU
 70
     6
  9
$SURFV
 70
     6
  9
$UCSBASE
  2

  9
$UCSNAME
  2

  9
$UCSORG
 10
0.0
 20
0.0
 30
0.0
  9
$UCSXDIR
 10
1.0
 20
0.0
 30
0.0
  9
$UCSYDIR
 10
0.0
 20
1.0
 30
0.0
  9
$UCSORTHOREF
  2

  9
$UCSORTHOVIEW
 70
     0
  9
$UCSORGTOP
 10
0.0
 20
0.0
 30
0.0
  9
$UCSORGBOTTOM
 10
0.0
 20
0.0
 30
0.0
  9
$UCSORGLEFT
 10
0.0
 20
0.0
 30
0.0
  9
$UCSORGRIGHT
 10
0.0
 20
0.0
 30
0.0
  9
$UCSORGFRONT
 10
0.0
 20
0.0
 30
0.0
  9
$UCSORGBACK
 10
0.0
 20
0.0
 30
0.0
  9
$PUCSBASE
  2

  9
$PUCSNAME
  2

  9
$PUCSORG
 10
0.0
 20
0.0
 30
0.0
  9
$PUCSXDIR
 10
1.0
 20
0.0
 30
0.0
  9
$PUCSYDIR
 10
0.0
 20
1.0
 30
0.0
  9
$PUCSORTHOREF
  2

  9
$PUCSORTHOVIEW
 70
     0
  9
$PUCSORGTOP
 10
0.0
 20
0.0
 30
0.0
  9
$PUCSORGBOTTOM
 10
0.0
 20
0.0
 30
0.0
  9
$PUCSORGLEFT
 10
0.0
 20
0.0
 30
0.0
  9
$PUCSORGRIGHT
 10
0.0
 20
0.0
 30
0.0
  9
$PUCSORGFRONT
 10
0.0
 20
0.0
 30
0.0
  9
$PUCSORGBACK
 10
0.0
 20
0.0
 30
0.0
  9
$USERI1
 70
     0
  9
$USERI2
 70
     0
  9
$USERI3
 70
     0
  9
$USERI4
 70
     0
  9
$USERI5
 70
     0
  9
$USERR1
 40
0.0
  9
$USERR2
 40
0.0
  9
$USERR3
 40
0.0
  9
$USERR4
 40
0.0
  9
$USERR5
 40
0.0
  9
$WORLDVIEW
 70
     1
  9
$SHADEDGE
 70
     3
  9
$SHADEDIF
 70
    70
  9
$TILEMODE
 70
     1
  9
$MAXACTVP
 70
    64
  9
$PINSBASE
 10
0.0
 20
0.0
 30
0.0
  9
$PLIMCHECK
 70
     0
  9
$PEXTMIN
 10
1.0000000000E+20
 20
1.0000000000E+20
 30
1.0000000000E+20
  9
$PEXTMAX
 10
-1.0000000000E+20
 20
-1.0000000000E+20
 30
-1.0000000000E+20
  9
$PLIMMIN
 10
0.0
 20
0.0
  9
$PLIMMAX
 10
420.0
 20
297.0
  9
$UNITMODE
 70
     0
  9
$VISRETAIN
 70
     1
  9
$PLINEGEN
 70
     0
  9
$PSLTSCALE
 70
     1
  9
$TREEDEPTH
 70
  3020
  9
$CMLSTYLE
  2
Standard
  9
$CMLJUST
 70
     0
  9
$CMLSCALE
 40
20.0
  9
$PROXYGRAPHICS
 70
     1
  9
$MEASUREMENT
 70
     1
  9
$CELWEIGHT
370
    -1
  9
$ENDCAPS
280
     0
  9
$JOINSTYLE
280
     0
  9
$LWDISPLAY
290
     1
  9
$INSUNITS
 70
     4
  9
$HYPERLINKBASE
  1

  9
$STYLESHEET
  1

  9
$XEDIT
290
     1
  9
$CEPSNTYPE
380
     0
  9
$PSTYLEMODE
290
     1
  9
$FINGERPRINTGUID
  2
{4858348D-E9AB-445B-BBD4-0C3B2FF239EE}
  9
$VERSIONGUID
  2
{FAEB1C32-E019-11D5-929B-00C0DF256EC4}
  9
$EXTNAMES
290
     1
  9
$PSVPSCALE
 40
0.0
  9
$OLESTARTUP
290
     0
  9
$SORTENTS
280
   127
  9
$INDEXCTL
280
     0
  9
$HIDETEXT
280
     1
  9
$XCLIPFRAME
280
     2
  9
$HALOGAP
280
     0
  9
$OBSCOLOR
 70
   257
  9
$OBSLTYPE
280
     0
  9
$INTERSECTIONDISPLAY
280
     0
  9
$INTERSECTIONCOLOR
 70
   257
  9
$DIMASSOC
280
     2
  9
$PROJECTNAME
  1

  9
$CAMERADISPLAY
290
     0
  9
$LENSLENGTH
 40
50.0
  9
$CAMERAHEIGHT
 40
0.0
  9
$STEPSPERSEC
 40
2.0
  9
$STEPSIZE
 40
6.0
  9
$3DDWFPREC
 40
2.0
  9
$PSOLWIDTH
 40
5.0
  9
$PSOLHEIGHT
 40
80.0
  9
$LOFTANG1
 40
1.5707963268
  9
$LOFTANG2
 40
1.5707963268
  9
$LOFTMAG1
 40
0.0
  9
$LOFTMAG2
 40
0.0
  9
$LOFTPARAM
 70
     7
  9
$LOFTNORMALS
280
     1
  9
$LATITUDE
 40
37.795
  9
$LONGITUDE
 40
-122.394
  9
$NORTHDIRECTION
 40
0.0
  9
$TIMEZONE
 70
 -8000
  9
$LIGHTGLYPHDISPLAY
280
     1
  9
$TILEMODELIGHTSYNCH
280
     1
  9
$CMATERIAL
347
44
  9
$SOLIDHIST
280
     0
  9
$SHOWHIST
280
     1
  9
$DWFFRAME
280
     2
  9
$DGNFRAME
280
     2
  9
$REALWORLDSCALE
290
     1
  9
$INTERFERECOLOR
 62
   256
  9
$CSHADOW
280
     0
  9
$SHADOWPLANELOCATION
 40
0.0
  0
ENDSEC
  0
SECTION
  2
CLASSES
  0
CLASS
  1
ACDBDICTIONARYWDFLT
  2
AcDbDictionaryWithDefault
  3
ObjectDBX Classes
 90
        0
 91
        4
280
     0
281
     0
  0
CLASS
  1
VISUALSTYLE
  2
AcDbVisualStyle
  3
ObjectDBX Classes
 90
     4095
 91
        4
280
     0
281
     0
  0
CLASS
  1
MATERIAL
  2
AcDbMaterial
  3
ObjectDBX Classes
 90
     1153
 91
        4
280
     0
281
     0
  0
CLASS
  1
SCALE
  2
AcDbScale
  3
ObjectDBX Classes
 90
     1153
 91
        4
280
     0
281
     0
  0
CLASS
  1
TABLESTYLE
  2
AcDbTableStyle
  3
ObjectDBX Classes
 90
     4095
 91
        4
280
     0
281
     0
  0
CLASS
  1
MLEADERSTYLE
  2
AcDbMLeaderStyle
  3
ACDB_MLEADERSTYLE_CLASS
 90
     4095
 91
        4
280
     0
281
     0
  0
CLASS
  1
SUN
  2
AcDbSun
  3
SCENEOE
 90
     1153
 91
        4
280
     0
281
     0
  0
CLASS
  1
DICTIONARYVAR
  2
AcDbDictionaryVar
  3
ObjectDBX Classes
 90
        0
 91
        4
280
     0
281
     0
  0
CLASS
  1
CELLSTYLEMAP
  2
AcDbCellStyleMap
  3
ObjectDBX Classes
 90
     1152
 91
        4
280
     0
281
     0
  0
ENDSEC
  0
SECTION
  2
TABLES
  0
TABLE
  2
VPORT
  5
8
330
0
100
AcDbSymbolTable
 70
     1
  0
VPORT
  5
29
330
8
100
AcDbSymbolTableRecord
100
AcDbViewportTableRecord
  2
*Active
 70
     0
 10
0.0
 20
0.0
 11
1.0
 21
1.0
 12
350.0
 22
173.5
 13
0.0
 23
0.0
 14
10.0
 24
10.0
 15
10.0
 25
10.0
 16
0.0
 26
0.0
 36
1.0
 17
0.0
 27
0.0
 37
0.0
 40
362.1
 41
1.9718309859
 42
50.0
 43
0.0
 44
0.0
 50
0.0
 51
0.0
 71
     0
 72
   100
 73
     1
 74
     3
 75
     0
 76
     0
 77
     0
 78
     0
281
     0
 65
     1
110
0.0
120
0.0
130
0.0
111
1.0
121
0.0
131
0.0
112
0.0
122
1.0
132
0.0
 79
     0
146
0.0
348
2F
 60
     3
 61
     5
292
     1
282
     1
141
0.0
142
0.0
 63
   250
361
6D
  0
ENDTAB
  0
TABLE
  2
LTYPE
  5
5
330
0
100
AcDbSymbolTable
 70
     6
  0
LTYPE
  5
14
330
5
100
AcDbSymbolTableRecord
100
AcDbLinetypeTableRecord
  2
ByBlock
 70
     0
  3

 72
    65
 73
     0
 40
0.0
  0
LTYPE
  5
15
330
5
100
AcDbSymbolTableRecord
100
AcDbLinetypeTableRecord
  2
ByLayer
 70
     0
  3

 72
    65
 73
     0
 40
0.0
  0
LTYPE
  5
16
330
5
100
AcDbSymbolTableRecord
100
AcDbLinetypeTableRecord
  2
Continuous
 70
     0
  3
Solid line
 72
    65
 73
     0
 40
0.0
  0
LTYPE
  5
6E
330
5
100
AcDbSymbolTableRecord
100
AcDbLinetypeTableRecord
  2
HIDDEN
 70
     0
  3
Hidden __ __ __ __ __ __ __ __ __ __ __ __ __ __
 72
    65
 73
     2
 40
1.905
 49
1.27
 74
     0
 49
-0.635
 74
     0
  0
LTYPE
  5
6F
330
5
100
AcDbSymbolTableRecord
100
AcDbLinetypeTableRecord
  2
PHANTOM
 70
     0
  3
Phantom ______  __  __  ______  __  __  ______
 72
    65
 73
     6
 40
12.7
 49
6.35
 74
     0
 49
-1.27
 74
     0
 49
1.27
 74
     0
 49
-1.27
 74
     0
 49
1.27
 74
     0
 49
-1.27
 74
     0
  0
LTYPE
  5
70
330
5
100
AcDbSymbolTableRecord
100
AcDbLinetypeTableRecord
  2
CENTER
 70
     0
  3
Center ____ _ ____ _ ____ _ ____ _ ____ _ ____
 72
    65
 73
     4
 40
10.16
 49
6.35
 74
     0
 49
-1.27
 74
     0
 49
1.27
 74
     0
 49
-1.27
 74
     0
  0
LTYPE
  5
71
330
5
100
AcDbSymbolTableRecord
100
AcDbLinetypeTableRecord
  2
CENTERX2
 70
     0
  3
Center (2x) ________  __  ________  __  _____
 72
    65
 73
     4
 40
20.32
 49
12.7
 74
     0
 49
-2.54
 74
     0
 49
2.54
 74
     0
 49
-2.54
 74
     0
  0
LTYPE
  5
72
330
5
100
AcDbSymbolTableRecord
100
AcDbLinetypeTableRecord
  2
DOT2
 70
     0
  3
Dot (.5x) ........................................
 72
    65
 73
     2
 40
0.635
 49
0.0
 74
     0
 49
-0.635
 74
     0
  0
ENDTAB
  0
TABLE
  2
LAYER
  5
2
330
0
100
AcDbSymbolTable
 70
     1
  0
LAYER
  5
10
330
2
100
AcDbSymbolTableRecord
100
AcDbLayerTableRecord
  2
0
 70
     0
 62
     7
  6
Continuous
370
    -3
390
F
347
46
348
0
  0
ENDTAB
  0
TABLE
  2
STYLE
  5
3
330
0
100
AcDbSymbolTable
 70
     1
  0
STYLE
  5
11
330
3
100
AcDbSymbolTableRecord
100
AcDbTextStyleTableRecord
  2
Standard
 70
     0
 40
0.0
 41
1.0
 50
0.0
 71
     0
 42
4.9388888889
  3
txt
  4

  0
ENDTAB
  0
TABLE
  2
VIEW
  5
6
330
0
100
AcDbSymbolTable
 70
     0
  0
ENDTAB
  0
TABLE
  2
UCS
  5
7
330
0
100
AcDbSymbolTable
 70
     0
  0
ENDTAB
  0
TABLE
  2
APPID
  5
9
330
0
100
AcDbSymbolTable
 70
     1
  0
APPID
  5
12
330
9
100
AcDbSymbolTableRecord
100
AcDbRegAppTableRecord
  2
ACAD
 70
     0
  0
ENDTAB
  0
TABLE
  2
DIMSTYLE
  5
A
330
0
100
AcDbSymbolTable
 70
     1
100
AcDbDimStyleTable
  0
DIMSTYLE
105
27
330
A
100
AcDbSymbolTableRecord
100
AcDbDimStyleTableRecord
  2
ISO-25
 70
     0
 41
2.5
 42
0.625
 43
3.75
 44
1.25
 73
     0
 74
     0
 77
     1
 78
     8
140
2.5
141
2.5
143
0.0393700787
147
0.625
171
     3
172
     1
178
     0
271
     2
272
     2
274
     3
278
    44
283
     0
284
     8
340
11
  0
ENDTAB
  0
TABLE
  2
BLOCK_RECORD
  5
1
330
0
100
AcDbSymbolTable
 70
     1
  0
BLOCK_RECORD
  5
1F
330
1
100
AcDbSymbolTableRecord
100
AcDbBlockTableRecord
  2
*Model_Space
340
22
 70
     0
280
     1
281
     0
  0
BLOCK_RECORD
  5
1B
330
1
100
AcDbSymbolTableRecord
100
AcDbBlockTableRecord
  2
*Paper_Space
340
1E
 70
     0
280
     1
281
     0
  0
BLOCK_RECORD
  5
23
330
1
100
AcDbSymbolTableRecord
100
AcDbBlockTableRecord
  2
*Paper_Space0
340
26
 70
     0
280
     1
281
     0
  0
ENDTAB
  0
ENDSEC
  0
SECTION
  2
BLOCKS
  0
BLOCK
  5
20
330
1F
100
AcDbEntity
  8
0
100
AcDbBlockBegin
  2
*Model_Space
 70
     0
 10
0.0
 20
0.0
 30
0.0
  3
*Model_Space
  1

  0
ENDBLK
  5
21
330
1F
100
AcDbEntity
  8
0
100
AcDbBlockEnd
  0
BLOCK
  5
1C
330
1B
100
AcDbEntity
 67
     1
  8
0
100
AcDbBlockBegin
  2
*Paper_Space
 70
     0
 10
0.0
 20
0.0
 30
0.0
  3
*Paper_Space
  1

  0
ENDBLK
  5
1D
330
1B
100
AcDbEntity
 67
     1
  8
0
100
AcDbBlockEnd
  0
BLOCK
  5
24
330
23
100
AcDbEntity
  8
0
100
AcDbBlockBegin
  2
*Paper_Space0
 70
     0
 10
0.0
 20
0.0
 30
0.0
  3
*Paper_Space0
  1

  0
ENDBLK
  5
25
330
23
100
AcDbEntity
  8
0
100
AcDbBlockEnd
  0
ENDSEC
  0
SECTION
  2
ENTITIES
  0
CIRCLE
  5
CC
330
1F
100
AcDbEntity
  8
0
  6
Continuous
 62
     7
370
    25
100
AcDbCircle
 10
25.0
 20
89.5
 30
0.0
 40
2.049999999983878
  0
CIRCLE
  5
CD
330
1F
100
AcDbEntity
  8
0
  6
Continuous
 62
     7
370
    25
100
AcDbCircle
 10
185.5
 20
257.5
 30
0.0
 40
2.049999999983754
  0
CIRCLE
  5
CE
330
1F
100
AcDbEntity
  8
0
  6
Continuous
 62
     7
370
    25
100
AcDbCircle
 10
600.0
 20
257.5
 30
0.0
 40
2.049999999983925
  0
CIRCLE
  5
CF
330
1F
100
AcDbEntity
  8
0
  6
Continuous
 62
     7
370
    25
100
AcDbCircle
 10
696.5
 20
175.5
 30
0.0
 40
1.999999999984311
  0
CIRCLE
  5
D0
330
1F
100
AcDbEntity
  8
0
  6
Continuous
 62
     7
370
    25
100
AcDbCircle
 10
675.0
 20
89.5
 30
0.0
 40
2.049999999984038
  0
SPLINE
  5
D9
330
1F
100
AcDbEntity
  8
0
  6
Continuous
 62
     7
370
    25
100
AcDbSpline
210
0.0
220
0.0
230
1.0
 70
     8
 71
     3
 72
    19
 73
    15
 74
     0
 42
0.000000001
 43
0.00000001
 40
0.0
 40
0.0
 40
0.0
 40
0.0
 40
0.0483007024784691
 40
0.0961939491818617
 40
0.1439549007300256
 40
0.1918609974077634
 40
0.240187179732872
 40
0.3700731410481517
 40
0.500049555651019
 40
0.629923418632264
 40
0.7599118472377031
 40
0.840126742454874
 40
0.9197283283685034
 40
1.0
 40
1.0
 40
1.0
 40
1.0
 10
650.0999999999999
 20
339.05
 30
0.0
 10
650.0991447955771
 20
339.0904328701438
 30
0.0
 10
650.0974416010777
 20
339.170957526232
 30
0.0
 10
650.0834492343138
 20
339.2907937965537
 30
0.0
 10
650.0610505173096
 20
339.408924453914
 30
0.0
 10
650.0294346894874
 20
339.5253532120747
 30
0.0
 10
649.9662883195845
 20
339.7038548223398
 30
0.0
 10
649.8472129782238
 20
339.9349480094122
 30
0.0
 10
649.6390779515663
 20
340.1889582612674
 30
0.0
 10
649.3850029635289
 20
340.3971385769483
 30
0.0
 10
649.1300895111174
 20
340.5286618964141
 30
0.0
 10
648.8990545195207
 20
340.6037876826803
 30
0.0
 10
648.7011164823848
 20
340.6429179625618
 30
0.0
 10
648.5672258885706
 20
340.6476327337592
 30
0.0
 10
648.5000000000999
 20
340.65
 30
0.0
  0
SPLINE
  5
DA
330
1F
100
AcDbEntity
  8
0
  6
Continuous
 62
     7
370
    25
100
AcDbSpline
210
0.0
220
0.0
230
1.0
 70
     8
 71
     3
 72
    19
 73
    15
 74
     0
 42
0.000000001
 43
0.00000001
 40
0.0
 40
0.0
 40
0.0
 40
0.0
 40
0.0482928343282755
 40
0.0961821700225364
 40
0.1439431234709759
 40
0.1918530227686389
 40
0.240186632218315
 40
0.3700608148299627
 40
0.5000495347066928
 40
0.6299357233708551
 40
0.7599123542863492
 40
0.8401376368287576
 40
0.9197392259095533
 40
1.0
 40
1.0
 40
1.0
 40
1.0
 10
648.4999999999998
 20
340.6499999999999
 30
0.0
 10
648.4595737177335
 20
340.6491447221207
 30
0.0
 10
648.3790589248378
 20
340.6474413124218
 30
0.0
 10
648.2592326548163
 20
340.6334484371452
 30
0.0
 10
648.1411021543415
 20
340.6110495583023
 30
0.0
 10
648.0246640063032
 20
340.5794329316657
 30
0.0
 10
647.8461585897757
 20
340.5162990680962
 30
0.0
 10
647.6150547969423
 20
340.3972265669362
 30
0.0
 10
647.3610438241276
 20
340.1890759133154
 30
0.0
 10
647.1528473775792
 20
339.9350003037119
 30
0.0
 10
647.0213282008033
 20
339.6800728209811
 30
0.0
 10
646.9462167255276
 20
339.4490348583331
 30
0.0
 10
646.9070831886784
 20
339.2510982589565
 30
0.0
 10
646.9023675444724
 20
339.1172167710789
 30
0.0
 10
646.8999999999999
 20
339.0500000000999
 30
0.0
  0
SPLINE
  5
DB
330
1F
100
AcDbEntity
  8
0
  6
Continuous
 62
     7
370
    25
100
AcDbSpline
210
0.0
220
0.0
230
1.0
 70
     8
 71
     3
 72
    19
 73
    15
 74
     0
 42
0.000000001
 43
0.00000001
 40
0.0
 40
0.0
 40
0.0
 40
0.0
 40
0.0482928343432666
 40
0.0961821700448281
 40
0.1439431234933445
 40
0.1918530227837999
 40
0.2401866322194189
 40
0.3700608148608341
 40
0.5000495347072247
 40
0.6299357234126622
 40
0.7599123542877743
 40
0.8401376368590201
 40
0.9197392259398454
 40
1.0
 40
1.0
 40
1.0
 40
1.0
 10
348.5000000000002
 20
8.600000000000051
 30
0.0
 10
348.4595737177215
 20
8.599144722120977
 30
0.0
 10
348.3790589248068
 20
8.597441312422237
 30
0.0
 10
348.2592326547664
 20
8.583448437146673
 30
0.0
 10
348.1411021542913
 20
8.561049558304084
 30
0.0
 10
348.0246640062709
 20
8.529432931669161
 30
0.0
 10
347.8461585897451
 20
8.466299068073003
 30
0.0
 10
347.6150547969254
 20
8.347226566914417
 30
0.0
 10
347.3610438240864
 20
8.139075913272675
 30
0.0
 10
347.1528473775442
 20
7.885000303693324
 30
0.0
 10
347.0213282007728
 20
7.630072820929562
 30
0.0
 10
346.9462167255406
 20
7.399034858278392
 30
0.0
 10
346.9070831886816
 20
7.201098258905803
 30
0.0
 10
346.9023675444735
 20
7.067216771053486
 30
0.0
 10
346.9000000000002
 20
7.00000000009987
 30
0.0
  0
SPLINE
  5
DC
330
1F
100
AcDbEntity
  8
0
  6
Continuous
 62
     7
370
    25
100
AcDbSpline
210
0.0
220
0.0
230
1.0
 70
     8
 71
     3
 72
    19
 73
    15
 74
     0
 42
0.000000001
 43
0.00000001
 40
0.0
 40
0.0
 40
0.0
 40
0.0
 40
0.0483007024614666
 40
0.0961939491564822
 40
0.14395490070468
 40
0.1918609973906433
 40
0.240187179731789
 40
0.3700731410179987
 40
0.5000495556508607
 40
0.6299234186253398
 40
0.7599118472378033
 40
0.8401267424517184
 40
0.9197283283653592
 40
1.0
 40
1.0
 40
1.0
 40
1.0
 10
690.5999999999997
 20
14.99999999999985
 30
0.0
 10
690.5991447955769
 20
15.04043287012946
 30
0.0
 10
690.597441601077
 20
15.12095752619635
 30
0.0
 10
690.5834492343118
 20
15.24079379649656
 30
0.0
 10
690.5610505173071
 20
15.3589244538565
 30
0.0
 10
690.5294346894835
 20
15.47535321203772
 30
0.0
 10
690.4662883196092
 20
15.65385482230838
 30
0.0
 10
690.3472129782514
 20
15.8849480094008
 30
0.0
 10
690.1390779515863
 20
16.1389582612442
 30
0.0
 10
689.8850029635354
 20
16.34713857694642
 30
0.0
 10
689.6300895111242
 20
16.47866189640948
 30
0.0
 10
689.3990545195269
 20
16.55378768268195
 30
0.0
 10
689.2011164823905
 20
16.59291796256204
 30
0.0
 10
689.0672258885737
 20
16.59763273375922
 30
0.0
 10
689.0000000001004
 20
16.59999999999984
 30
0.0
  0
SPLINE
  5
DD
330
1F
100
AcDbEntity
  8
0
  6
Continuous
 62
     7
370
    25
100
AcDbSpline
210
0.0
220
0.0
230
1.0
 70
     8
 71
     3
 72
    19
 73
    15
 74
     0
 42
0.000000001
 43
0.00000001
 40
0.0
 40
0.0
 40
0.0
 40
0.0
 40
0.0482928343479306
 40
0.0961821700518919
 40
0.1439431235004025
 40
0.1918530227885737
 40
0.240186632219761
 40
0.3700608148501126
 40
0.5000495347065342
 40
0.6299357233342958
 40
0.7599123542853533
 40
0.8401376368057738
 40
0.9197392258865701
 40
1.0
 40
1.0
 40
1.0
 40
1.0
 10
689.0000000000001
 20
16.59999999999984
 30
0.0
 10
688.9595737177174
 20
16.59914472212084
 30
0.0
 10
688.8790589247966
 20
16.59744131242233
 30
0.0
 10
688.7592326547509
 20
16.58344843714693
 30
0.0
 10
688.6411021542752
 20
16.56104955830473
 30
0.0
 10
688.5246640062608
 20
16.52943293166994
 30
0.0
 10
688.3461585897501
 20
16.46629906807326
 30
0.0
 10
688.1150547969477
 20
16.34722656689952
 30
0.0
 10
687.8610438241323
 20
16.13907591333019
 30
0.0
 10
687.6528473776062
 20
15.88500030372952
 30
0.0
 10
687.5213282008285
 20
15.63007282102394
 30
0.0
 10
687.4462167255183
 20
15.39903485837479
 30
0.0
 10
687.4070831886763
 20
15.20109825899485
 30
0.0
 10
687.402367544472
 20
15.06721677109812
 30
0.0
 10
687.4000000000001
 20
15.00000000009996
 30
0.0
  0
SPLINE
  5
DE
330
1F
100
AcDbEntity
  8
0
  6
Continuous
 62
     7
370
    25
100
AcDbSpline
210
0.0
220
0.0
230
1.0
 70
     8
 71
     3
 72
    19
 73
    15
 74
     0
 42
0.000000001
 43
0.00000001
 40
0.0
 40
0.0
 40
0.0
 40
0.0
 40
0.0483007024422329
 40
0.0961939491276294
 40
0.1439549006757829
 40
0.1918609973709711
 40
0.2401871797302404
 40
0.3700731410426595
 40
0.5000495556529461
 40
0.6299234186427343
 40
0.7599118472360236
 40
0.8401267424186352
 40
0.9197283283322667
 40
1.0
 40
1.0
 40
1.0
 40
1.0
 10
687.4000000000001
 20
7.00000000000009
 30
0.0
 10
687.4008552044232
 20
6.959567129886601
 30
0.0
 10
687.402558398924
 20
6.879042473843855
 30
0.0
 10
687.4165507656901
 20
6.759206203568125
 30
0.0
 10
687.438949482695
 20
6.641075546208741
 30
0.0
 10
687.4705653105199
 20
6.524646788004324
 30
0.0
 10
687.533711680383
 20
6.346145177683004
 30
0.0
 10
687.6527870217037
 20
6.115051990545767
 30
0.0
 10
687.8609220484386
 20
5.861041738728895
 30
0.0
 10
688.1149970365171
 20
5.65286142310728
 30
0.0
 10
688.3699104888658
 20
5.521338103600115
 30
0.0
 10
688.6009454804143
 20
5.446212317306076
 30
0.0
 10
688.7988835175547
 20
5.407082037434174
 30
0.0
 10
688.9327741113992
 20
5.402367266239855
 30
0.0
 10
688.9999999999003
 20
5.400000000000182
 30
0.0
  0
SPLINE
  5
DF
330
1F
100
AcDbEntity
  8
0
  6
Continuous
 62
     7
370
    25
100
AcDbSpline
210
0.0
220
0.0
230
1.0
 70
     8
 71
     3
 72
    19
 73
    15
 74
     0
 42
0.000000001
 43
0.00000001
 40
0.0
 40
0.0
 40
0.0
 40
0.0
 40
0.0483007023910427
 40
0.0961939490509732
 40
0.143954900599189
 40
0.1918609973191814
 40
0.2401871797268391
 40
0.3700731409481592
 40
0.5000495556523791
 40
0.6299234186218574
 40
0.7599118472356573
 40
0.8401267424127847
 40
0.9197283283264944
 40
1.0
 40
1.0
 40
1.0
 40
1.0
 10
646.8999999999999
 20
339.05
 30
0.0
 10
646.9008552044237
 20
339.0095671299293
 30
0.0
 10
646.9025583989256
 20
338.9290424739508
 30
0.0
 10
646.9165507656945
 20
338.8092062037401
 30
0.0
 10
646.9389494827012
 20
338.6910755463817
 30
0.0
 10
646.9705653105319
 20
338.5746467881164
 30
0.0
 10
647.0337116803083
 20
338.3961451777807
 30
0.0
 10
647.1527870216216
 20
338.165051990584
 30
0.0
 10
647.3609220483779
 20
337.911041738802
 30
0.0
 10
647.6149970364957
 20
337.702861423108
 30
0.0
 10
647.8699104888466
 20
337.571338103611
 30
0.0
 10
648.1009454804033
 20
337.4962123173032
 30
0.0
 10
648.2988835175448
 20
337.4570820374336
 30
0.0
 10
648.432774111394
 20
337.4523672662395
 30
0.0
 10
648.4999999998998
 20
337.4499999999999
 30
0.0
  0
SPLINE
  5
E1
330
1F
100
AcDbEntity
  8
0
  6
Continuous
 62
     7
370
    25
100
AcDbSpline
210
0.0
220
0.0
230
1.0
 70
     8
 71
     3
 72
    19
 73
    15
 74
     0
 42
0.000000001
 43
0.00000001
 40
0.0
 40
0.0
 40
0.0
 40
0.0
 40
0.0483007024671608
 40
0.0961939491649775
 40
0.1439549007131743
 40
0.1918609973963674
 40
0.2401871797321073
 40
0.3700731410177063
 40
0.5000495556505268
 40
0.6299234185804518
 40
0.7599118472363859
 40
0.8401267424202296
 40
0.9197283283338236
 40
1.0
 40
1.0
 40
1.0
 40
1.0
 10
350.1000000000003
 20
7.000000000000117
 30
0.0
 10
350.0991447955774
 20
7.040432870134477
 30
0.0
 10
350.0974416010776
 20
7.120957526208477
 30
0.0
 10
350.083449234313
 20
7.240793796515932
 30
0.0
 10
350.0610505173084
 20
7.358924453875925
 30
0.0
 10
350.029434689485
 20
7.47535321205009
 30
0.0
 10
349.9662883196045
 20
7.653854822311207
 30
0.0
 10
349.8472129782384
 20
7.88494800939088
 30
0.0
 10
349.6390779516165
 20
8.138958261222045
 30
0.0
 10
349.3850029635545
 20
8.347138576909108
 30
0.0
 10
349.1300895111792
 20
8.478661896377554
 30
0.0
 10
348.8990545195838
 20
8.553787682694908
 30
0.0
 10
348.7011164824428
 20
8.592917962565311
 30
0.0
 10
348.5672258886
 20
8.597632733760129
 30
0.0
 10
348.5000000001003
 20
8.600000000000051
 30
0.0
  0
SPLINE
  5
E2
330
1F
100
AcDbEntity
  8
0
  6
Continuous
 62
     7
370
    25
100
AcDbSpline
210
0.0
220
0.0
230
1.0
 70
     8
 71
     3
 72
    19
 73
    15
 74
     0
 42
0.000000001
 43
0.00000001
 40
0.0
 40
0.0
 40
0.0
 40
0.0
 40
0.0482928343544005
 40
0.096182170061502
 40
0.1439431235100016
 40
0.1918530227950824
 40
0.2401866322202026
 40
0.3700608148772111
 40
0.5000495347071471
 40
0.6299357233978401
 40
0.7599123542872497
 40
0.8401376368470519
 40
0.9197392259278601
 40
1.0
 40
1.0
 40
1.0
 40
1.0
 10
8.000000000000007
 20
341.6
 30
0.0
 10
7.959573717711943
 20
341.5991447221211
 30
0.0
 10
7.879058924783189
 20
341.5974413124228
 30
0.0
 10
7.759232654728942
 20
341.5834484371478
 30
0.0
 10
7.641102154253565
 20
341.5610495583053
 30
0.0
 10
7.524664006246407
 20
341.5294329316715
 30
0.0
 10
7.346158589726814
 20
341.4662990680584
 30
0.0
 10
7.115054796922649
 20
341.3472265668948
 30
0.0
 10
6.861043824083312
 20
341.139075913274
 30
0.0
 10
6.652847377559279
 20
340.8850003036976
 30
0.0
 10
6.521328200784327
 20
340.6300728209487
 30
0.0
 10
6.446216725535747
 20
340.3990348583
 30
0.0
 10
6.407083188680218
 20
340.2010982589259
 30
0.0
 10
6.402367544472987
 20
340.0672167710636
 30
0.0
 10
6.400000000000016
 20
340.0000000000999
 30
0.0
  0
SPLINE
  5
E3
330
1F
100
AcDbEntity
  8
0
  6
Continuous
 62
     7
370
    25
100
AcDbSpline
210
0.0
220
0.0
230
1.0
 70
     8
 71
     3
 72
    19
 73
    15
 74
     0
 42
0.000000001
 43
0.00000001
 40
0.0
 40
0.0
 40
0.0
 40
0.0
 40
0.0483007024469231
 40
0.0961939491346767
 40
0.1439549006828489
 40
0.1918609973758288
 40
0.2401871797307455
 40
0.3700731410021844
 40
0.5000495556510364
 40
0.6299234185427613
 40
0.7599118472338698
 40
0.8401267423724552
 40
0.9197283282861082
 40
1.0
 40
1.0
 40
1.0
 40
1.0
 10
6.400000000000016
 20
340.0
 30
0.0
 10
6.400855204423128
 20
339.9595671298825
 30
0.0
 10
6.402558398923619
 20
339.879042473834
 30
0.0
 10
6.416550765689144
 20
339.7592062035523
 30
0.0
 10
6.438949482694357
 20
339.6410755461926
 30
0.0
 10
6.470565310519538
 20
339.5246467879943
 30
0.0
 10
6.533711680373367
 20
339.3461451777108
 30
0.0
 10
6.652787021725503
 20
339.1150519906013
 30
0.0
 10
6.860922048351259
 20
338.861041738806
 30
0.0
 10
7.114997036448855
 20
338.6528614231532
 30
0.0
 10
7.369910488760123
 20
338.5213381036601
 30
0.0
 10
7.600945480330356
 20
338.4462123172862
 30
0.0
 10
7.798883517477428
 20
338.4070820374293
 30
0.0
 10
7.932774111360286
 20
338.4023672662385
 30
0.0
 10
7.999999999899976
 20
338.3999999999999
 30
0.0
  0
SPLINE
  5
E4
330
1F
100
AcDbEntity
  8
0
  6
Continuous
 62
     7
370
    25
100
AcDbSpline
210
0.0
220
0.0
230
1.0
 70
     8
 71
     3
 72
    19
 73
    15
 74
     0
 42
0.000000001
 43
0.00000001
 40
0.0
 40
0.0
 40
0.0
 40
0.0
 40
0.0483007024326532
 40
0.0961939491132622
 40
0.1439549006614618
 40
0.191860997361334
 40
0.2401871797296746
 40
0.3700731409818558
 40
0.5000495556509775
 40
0.6299234185933025
 40
0.7599118472358561
 40
0.8401267424153042
 40
0.9197283283289681
 40
1.0
 40
1.0
 40
1.0
 40
1.0
 10
346.9000000000001
 20
7.000000000000117
 30
0.0
 10
346.9008552044234
 20
6.959567129894623
 30
0.0
 10
346.9025583989244
 20
6.879042473863922
 30
0.0
 10
346.9165507656906
 20
6.759206203600349
 30
0.0
 10
346.9389494826963
 20
6.641075546241076
 30
0.0
 10
346.9705653105231
 20
6.524646788025612
 30
0.0
 10
347.0337116803549
 20
6.346145177733881
 30
0.0
 10
347.1527870216994
 20
6.115051990603054
 30
0.0
 10
347.3609220483744
 20
5.861041738794453
 30
0.0
 10
347.6149970364629
 20
5.652861423099731
 30
0.0
 10
347.8699104888271
 20
5.521338103620266
 30
0.0
 10
348.1009454804077
 20
5.446212317303606
 30
0.0
 10
348.298883517549
 20
5.407082037434091
 30
0.0
 10
348.4327741113962
 20
5.402367266239855
 30
0.0
 10
348.4999999999001
 20
5.400000000000182
 30
0.0
  0
SPLINE
  5
E5
330
1F
100
AcDbEntity
  8
0
  6
Continuous
 62
     7
370
    25
100
AcDbSpline
210
0.0
220
0.0
230
1.0
 70
     8
 71
     3
 72
    19
 73
    15
 74
     0
 42
0.000000001
 43
0.00000001
 40
0.0
 40
0.0
 40
0.0
 40
0.0
 40
0.0483007024575797
 40
0.0961939491506344
 40
0.1439549006988131
 40
0.19186099738661
 40
0.2401871797313994
 40
0.3700731410026444
 40
0.5000495556504618
 40
0.6299234186064696
 40
0.7599118472374087
 40
0.8401267424433136
 40
0.9197283283569179
 40
1.0
 40
1.0
 40
1.0
 40
1.0
 10
690.5999999999996
 20
7.00000000000009
 30
0.0
 10
690.5991447955766
 20
7.040432870126456
 30
0.0
 10
690.5974416010765
 20
7.120957526188437
 30
0.0
 10
690.5834492343115
 20
7.240793796483652
 30
0.0
 10
690.561050517307
 20
7.358924453843507
 30
0.0
 10
690.5294346894827
 20
7.475353212029106
 30
0.0
 10
690.4662883196178
 20
7.653854822294859
 30
0.0
 10
690.3472129782554
 20
7.884948009387855
 30
0.0
 10
690.1390779516066
 20
8.138958261224932
 30
0.0
 10
689.8850029635483
 20
8.347138576938363
 30
0.0
 10
689.6300895111441
 20
8.478661896398677
 30
0.0
 10
689.3990545195421
 20
8.553787682685526
 30
0.0
 10
689.2011164824045
 20
8.592917962562868
 30
0.0
 10
689.0672258885808
 20
8.597632733759546
 30
0.0
 10
689.0000000001003
 20
8.600000000000051
 30
0.0
  0
SPLINE
  5
E6
330
1F
100
AcDbEntity
  8
0
  6
Continuous
 62
     7
370
    25
100
AcDbSpline
210
0.0
220
0.0
230
1.0
 70
     8
 71
     3
 72
    19
 73
    15
 74
     0
 42
0.000000001
 43
0.00000001
 40
0.0
 40
0.0
 40
0.0
 40
0.0
 40
0.0482928343479274
 40
0.0961821700518826
 40
0.1439431235003978
 40
0.1918530227885686
 40
0.2401866322197672
 40
0.3700608148500562
 40
0.5000495347064563
 40
0.6299357233342543
 40
0.759912354285251
 40
0.840137636805726
 40
0.9197392258865292
 40
1.0
 40
1.0
 40
1.0
 40
1.0
 10
689.0000000000001
 20
8.600000000000051
 30
0.0
 10
688.9595737177174
 20
8.599144722121006
 30
0.0
 10
688.879058924797
 20
8.597441312422404
 30
0.0
 10
688.7592326547506
 20
8.583448437147146
 30
0.0
 10
688.6411021542752
 20
8.561049558304724
 30
0.0
 10
688.5246640062607
 20
8.529432931669994
 30
0.0
 10
688.3461585897506
 20
8.466299068073058
 30
0.0
 10
688.1150547969473
 20
8.347226566899762
 30
0.0
 10
687.8610438241324
 20
8.139075913330378
 30
0.0
 10
687.6528473776067
 20
7.885000303729573
 30
0.0
 10
687.521328200828
 20
7.630072821024153
 30
0.0
 10
687.4462167255185
 20
7.39903485837487
 30
0.0
 10
687.407083188676
 20
7.201098258994842
 30
0.0
 10
687.4023675444721
 20
7.067216771098062
 30
0.0
 10
687.4000000000001
 20
7.000000000099843
 30
0.0
  0
SPLINE
  5
E7
330
1F
100
AcDbEntity
  8
0
  6
Continuous
 62
     7
370
    25
100
AcDbSpline
210
0.0
220
0.0
230
1.0
 70
     8
 71
     3
 72
    19
 73
    15
 74
     0
 42
0.000000001
 43
0.00000001
 40
0.0
 40
0.0
 40
0.0
 40
0.0
 40
0.0482928343534553
 40
0.0961821700600851
 40
0.1439431235085751
 40
0.1918530227941095
 40
0.2401866322201252
 40
0.3700608148623552
 40
0.5000495347065207
 40
0.6299357233737543
 40
0.7599123542867183
 40
0.8401376368374222
 40
0.9197392259182783
 40
1.0
 40
1.0
 40
1.0
 40
1.0
 10
8.000000000000007
 20
167.6000000000001
 30
0.0
 10
7.95957371771272
 20
167.5991447221211
 30
0.0
 10
7.879058924785188
 20
167.5974413124228
 30
0.0
 10
7.759232654732163
 20
167.5834484371478
 30
0.0
 10
7.641102154256673
 20
167.5610495583055
 30
0.0
 10
7.524664006248516
 20
167.5294329316713
 30
0.0
 10
7.346158589738472
 20
167.4662990680642
 30
0.0
 10
7.115054796938969
 20
167.3472265668928
 30
0.0
 10
6.861043824105129
 20
167.1390759132979
 30
0.0
 10
6.652847377568049
 20
166.8850003037158
 30
0.0
 10
6.521328200797982
 20
166.6300728209731
 30
0.0
 10
6.446216725531528
 20
166.3990348583175
 30
0.0
 10
6.40708318867933
 20
166.2010982589418
 30
0.0
 10
6.402367544472765
 20
166.0672167710715
 30
0.0
 10
6.400000000000016
 20
166.0000000000998
 30
0.0
  0
SPLINE
  5
E8
330
1F
100
AcDbEntity
  8
0
  6
Continuous
 62
     7
370
    25
100
AcDbSpline
210
0.0
220
0.0
230
1.0
 70
     8
 71
     3
 72
    19
 73
    15
 74
     0
 42
0.000000001
 43
0.00000001
 40
0.0
 40
0.0
 40
0.0
 40
0.0
 40
0.0483007024370055
 40
0.0961939491197968
 40
0.1439549006680152
 40
0.1918609973658317
 40
0.2401871797301109
 40
0.3700731409865999
 40
0.5000495556510193
 40
0.6299234185951774
 40
0.7599118472360576
 40
0.8401267424188803
 40
0.9197283283325367
 40
0.9999999999999999
 40
0.9999999999999999
 40
0.9999999999999999
 40
0.9999999999999999
 10
6.400000000000016
 20
166.0000000000001
 30
0.0
 10
6.400855204423184
 20
165.9595671298909
 30
0.0
 10
6.402558398923953
 20
165.8790424738548
 30
0.0
 10
6.416550765690198
 20
165.7592062035856
 30
0.0
 10
6.438949482695577
 20
165.6410755462262
 30
0.0
 10
6.470565310521758
 20
165.5246467880158
 30
0.0
 10
6.533711680359877
 20
165.3461451777277
 30
0.0
 10
6.652787021707073
 20
165.1150519906033
 30
0.0
 10
6.860922048378237
 20
164.8610417387907
 30
0.0
 10
7.114997036461734
 20
164.6528614230949
 30
0.0
 10
7.3699104888309
 20
164.5213381036178
 30
0.0
 10
7.600945480414123
 20
164.446212317305
 30
0.0
 10
7.798883517555034
 20
164.4070820374344
 30
0.0
 10
7.932774111399143
 20
164.4023672662399
 30
0.0
 10
7.999999999899976
 20
164.4000000000001
 30
0.0
  0
SPLINE
  5
EA
330
1F
100
AcDbEntity
  8
0
  6
Continuous
 62
     7
370
    25
100
AcDbSpline
210
0.0
220
0.0
230
1.0
 70
     8
 71
     3
 72
    19
 73
    15
 74
     0
 42
0.000000001
 43
0.00000001
 40
0.0
 40
0.0
 40
0.0
 40
0.0
 40
0.0483007024488221
 40
0.0961939491375093
 40
0.1439549006857306
 40
0.1918609973778044
 40
0.2401871797309275
 40
0.3700731410156466
 40
0.5000495556514779
 40
0.6299234186153632
 40
0.7599118472364799
 40
0.8401267424275412
 40
0.9197283283411849
 40
0.9999999999999999
 40
0.9999999999999999
 40
0.9999999999999999
 40
0.9999999999999999
 10
9.599999999999998
 20
14.99999999999985
 30
0.0
 10
9.599144795576887
 20
15.04043287011889
 30
0.0
 10
9.59744160107645
 20
15.12095752616988
 30
0.0
 10
9.583449234311036
 20
15.24079379645407
 30
0.0
 10
9.56105051730588
 20
15.3589244538137
 30
0.0
 10
9.52943468948103
 20
15.47535321201007
 30
0.0
 10
9.466288319620265
 20
15.65385482230008
 30
0.0
 10
9.34721297827612
 20
15.88494800941431
 30
0.0
 10
9.139077951593688
 20
16.13895826123849
 30
0.0
 10
8.88500296352296
 20
16.34713857691264
 30
0.0
 10
8.630089511148354
 20
16.47866189639394
 30
0.0
 10
8.399054519570125
 20
16.55378768269128
 30
0.0
 10
8.201116482430548
 20
16.59291796256471
 30
0.0
 10
8.067225888593654
 20
16.59763273375986
 30
0.0
 10
8.000000000099982
 20
16.59999999999984
 30
0.0
  0
SPLINE
  5
EB
330
1F
100
AcDbEntity
  8
0
  6
Continuous
 62
     7
370
    25
100
AcDbSpline
210
0.0
220
0.0
230
1.0
 70
     8
 71
     3
 72
    19
 73
    15
 74
     0
 42
0.000000001
 43
0.00000001
 40
0.0
 40
0.0
 40
0.0
 40
0.0
 40
0.0482928343473799
 40
0.0961821700509919
 40
0.1439431234994804
 40
0.1918530227879489
 40
0.2401866322196972
 40
0.3700608148528225
 40
0.5000495347065964
 40
0.629935723379829
 40
0.7599123542870806
 40
0.8401376368428624
 40
0.9197392259236635
 40
1.0
 40
1.0
 40
1.0
 40
1.0
 10
8.000000000000007
 20
16.59999999999984
 30
0.0
 10
7.959573717717827
 20
16.59914472212084
 30
0.0
 10
7.879058924797899
 20
16.5974413124223
 30
0.0
 10
7.759232654752591
 20
16.58344843714687
 30
0.0
 10
7.641102154277268
 20
16.56104955830462
 30
0.0
 10
7.524664006261839
 20
16.52943293166989
 30
0.0
 10
7.346158589748796
 20
16.46629906807268
 30
0.0
 10
7.115054796941356
 20
16.34722656690302
 30
0.0
 10
6.86104382410857
 20
16.13907591329841
 30
0.0
 10
6.652847377560944
 20
15.88500030371456
 30
0.0
 10
6.521328200793208
 20
15.63007282096471
 30
0.0
 10
6.446216725533693
 20
15.39903485830774
 30
0.0
 10
6.407083188679885
 20
15.20109825893284
 30
0.0
 10
6.402367544472931
 20
15.06721677106709
 30
0.0
 10
6.400000000000016
 20
15.00000000009996
 30
0.0
  0
SPLINE
  5
EC
330
1F
100
AcDbEntity
  8
0
  6
Continuous
 62
     7
370
    25
100
AcDbSpline
210
0.0
220
0.0
230
1.0
 70
     8
 71
     3
 72
    19
 73
    15
 74
     0
 42
0.000000001
 43
0.00000001
 40
0.0
 40
0.0
 40
0.0
 40
0.0
 40
0.0483007024446834
 40
0.0961939491312721
 40
0.1439549006794513
 40
0.191860997373546
 40
0.2401871797305224
 40
0.3700731410079037
 40
0.5000495556513302
 40
0.6299234186043832
 40
0.7599118472360626
 40
0.8401267424188712
 40
0.9197283283325247
 40
1.0
 40
1.0
 40
1.0
 40
1.0
 10
6.400000000000016
 20
14.99999999999985
 30
0.0
 10
6.400855204423128
 20
14.9595671298843
 30
0.0
 10
6.402558398923675
 20
14.87904247383853
 30
0.0
 10
6.416550765689366
 20
14.75920620355969
 30
0.0
 10
6.438949482694634
 20
14.6410755462002
 30
0.0
 10
6.470565310519872
 20
14.52464678799897
 30
0.0
 10
6.533711680373755
 20
14.34614517770783
 30
0.0
 10
6.65278702171751
 20
14.11505199058924
 30
0.0
 10
6.860922048395279
 20
13.86104173877195
 30
0.0
 10
7.114997036472948
 20
13.65286142309774
 30
0.0
 10
7.369910488837562
 20
13.521338103614
 30
0.0
 10
7.600945480414289
 20
13.44621231730519
 30
0.0
 10
7.798883517554978
 20
13.40708203743438
 30
0.0
 10
7.932774111399143
 20
13.40236726623975
 30
0.0
 10
7.999999999899976
 20
13.39999999999991
 30
0.0
  0
SPLINE
  5
ED
330
1F
100
AcDbEntity
  8
0
  6
Continuous
 62
     7
370
    25
100
AcDbSpline
210
0.0
220
0.0
230
1.0
 70
     8
 71
     3
 72
    19
 73
    15
 74
     0
 42
0.000000001
 43
0.00000001
 40
0.0
 40
0.0
 40
0.0
 40
0.0
 40
0.0483007024383765
 40
0.0961939491218361
 40
0.1439549006700312
 40
0.1918609973670872
 40
0.2401871797299849
 40
0.3700731410365437
 40
0.5000495556528491
 40
0.6299234186330969
 40
0.759911847235621
 40
0.8401267424101928
 40
0.9197283283238725
 40
1.0
 40
1.0
 40
1.0
 40
1.0
 10
687.4000000000001
 20
14.99999999999985
 30
0.0
 10
687.4008552044234
 20
14.95956712988958
 30
0.0
 10
687.4025583989244
 20
14.87904247385172
 30
0.0
 10
687.41655076569
 20
14.75920620358082
 30
0.0
 10
687.4389494826958
 20
14.64107554622154
 30
0.0
 10
687.4705653105207
 20
14.52464678801252
 30
0.0
 10
687.5337116803777
 20
14.34614517768934
 30
0.0
 10
687.6527870216976
 20
14.11505199054769
 30
0.0
 10
687.8609220484293
 20
13.86104173873776
 30
0.0
 10
688.1149970365143
 20
13.65286142311745
 30
0.0
 10
688.3699104888526
 20
13.52133810360764
 30
0.0
 10
688.6009454803992
 20
13.44621231730256
 30
0.0
 10
688.7988835175406
 20
13.40708203743324
 30
0.0
 10
688.9327741113921
 20
13.40236726623944
 30
0.0
 10
688.9999999999003
 20
13.39999999999991
 30
0.0
  0
SPLINE
  5
EF
330
1F
100
AcDbEntity
  8
0
  6
Continuous
 62
     7
370
    25
100
AcDbSpline
210
0.0
220
0.0
230
1.0
 70
     8
 71
     3
 72
    19
 73
    15
 74
     0
 42
0.000000001
 43
0.00000001
 40
0.0
 40
0.0
 40
0.0
 40
0.0
 40
0.0483007024526589
 40
0.0961939491432382
 40
0.143954900691456
 40
0.1918609973816321
 40
0.2401871797310683
 40
0.370073141021608
 40
0.5000495556513944
 40
0.6299234186153535
 40
0.7599118472364944
 40
0.8401267424275313
 40
0.9197283283411768
 40
1.0
 40
1.0
 40
1.0
 40
1.0
 10
9.599999999999998
 20
166.0000000000001
 30
0.0
 10
9.599144795576942
 20
166.0404328701223
 30
0.0
 10
9.597441601076618
 20
166.1209575261781
 30
0.0
 10
9.583449234311425
 20
166.2407937964671
 30
0.0
 10
9.561050517306324
 20
166.3589244538268
 30
0.0
 10
9.529434689481864
 20
166.4753532120185
 30
0.0
 10
9.466288319614879
 20
166.6538548223066
 30
0.0
 10
9.347212978269736
 20
166.8849480094159
 30
0.0
 10
9.13907795159058
 20
167.1389582612424
 30
0.0
 10
8.885002963522737
 20
167.3471385769124
 30
0.0
 10
8.630089511148464
 20
167.4786618963944
 30
0.0
 10
8.39905451957007
 20
167.5537876826913
 30
0.0
 10
8.201116482430548
 20
167.5929179625646
 30
0.0
 10
8.067225888593654
 20
167.59763273376
 30
0.0
 10
8.000000000099982
 20
167.6000000000001
 30
0.0
  0
SPLINE
  5
F1
330
1F
100
AcDbEntity
  8
0
  6
Continuous
 62
     7
370
    25
100
AcDbSpline
210
0.0
220
0.0
230
1.0
 70
     8
 71
     3
 72
    19
 73
    15
 74
     0
 42
0.000000001
 43
0.00000001
 40
0.0
 40
0.0
 40
0.0
 40
0.0
 40
0.048300702465278
 40
0.0961939491621514
 40
0.1439549007103322
 40
0.1918609973944299
 40
0.2401871797319344
 40
0.370073141023983
 40
0.5000495556507775
 40
0.6299234186252791
 40
0.7599118472378122
 40
0.8401267424517033
 40
0.9197283283653485
 40
1.0
 40
1.0
 40
1.0
 40
1.0
 10
690.5999999999997
 20
166.0000000000001
 30
0.0
 10
690.599144795577
 20
166.0404328701329
 30
0.0
 10
690.5974416010772
 20
166.1209575262046
 30
0.0
 10
690.5834492343121
 20
166.2407937965095
 30
0.0
 10
690.5610505173081
 20
166.3589244538695
 30
0.0
 10
690.5294346894843
 20
166.4753532120459
 30
0.0
 10
690.466288319604
 20
166.6538548223149
 30
0.0
 10
690.3472129782452
 20
166.8849480094023
 30
0.0
 10
690.1390779515832
 20
167.1389582612481
 30
0.0
 10
689.8850029635349
 20
167.3471385769461
 30
0.0
 10
689.6300895111244
 20
167.47866189641
 30
0.0
 10
689.399054519527
 20
167.5537876826819
 30
0.0
 10
689.2011164823903
 20
167.592917962562
 30
0.0
 10
689.0672258885737
 20
167.5976327337594
 30
0.0
 10
689.0000000001003
 20
167.6000000000001
 30
0.0
  0
SPLINE
  5
F2
330
1F
100
AcDbEntity
  8
0
  6
Continuous
 62
     7
370
    25
100
AcDbSpline
210
0.0
220
0.0
230
1.0
 70
     8
 71
     3
 72
    19
 73
    15
 74
     0
 42
0.000000001
 43
0.00000001
 40
0.0
 40
0.0
 40
0.0
 40
0.0
 40
0.0482928343540222
 40
0.0961821700609654
 40
0.1439431235094775
 40
0.1918530227947066
 40
0.2401866322201887
 40
0.3700608148503084
 40
0.5000495347060591
 40
0.6299357233189754
 40
0.7599123542850069
 40
0.8401376368003886
 40
0.9197392258812135
 40
1.0
 40
1.0
 40
1.0
 40
1.0
 10
689.0000000000001
 20
167.6000000000001
 30
0.0
 10
688.9595737177125
 20
167.5991447221211
 30
0.0
 10
688.8790589247842
 20
167.5974413124229
 30
0.0
 10
688.7592326547301
 20
167.5834484371477
 30
0.0
 10
688.641102154255
 20
167.5610495583057
 30
0.0
 10
688.5246640062473
 20
167.5294329316712
 30
0.0
 10
688.346158589747
 20
167.4662990680681
 30
0.0
 10
688.1150547969556
 20
167.3472265668867
 30
0.0
 10
687.86104382414
 20
167.1390759133407
 30
0.0
 10
687.6528473776111
 20
166.8850003037414
 30
0.0
 10
687.5213282008365
 20
166.6300728210391
 30
0.0
 10
687.446216725516
 20
166.3990348583846
 30
0.0
 10
687.4070831886756
 20
166.2010982590037
 30
0.0
 10
687.402367544472
 20
166.0672167711024
 30
0.0
 10
687.4000000000001
 20
166.0000000000998
 30
0.0
  0
SPLINE
  5
F3
330
1F
100
AcDbEntity
  8
0
  6
Continuous
 62
     7
370
    25
100
AcDbSpline
210
0.0
220
0.0
230
1.0
 70
     8
 71
     3
 72
    19
 73
    15
 74
     0
 42
0.000000001
 43
0.00000001
 40
0.0
 40
0.0
 40
0.0
 40
0.0
 40
0.0483007024345522
 40
0.0961939491161163
 40
0.1439549006643407
 40
0.1918609973632813
 40
0.2401871797298466
 40
0.3700731410213419
 40
0.5000495556525489
 40
0.6299234186238853
 40
0.7599118472356136
 40
0.8401267424102016
 40
0.919728328323881
 40
1.0
 40
1.0
 40
1.0
 40
1.0
 10
687.4000000000001
 20
166.0000000000001
 30
0.0
 10
687.4008552044236
 20
165.9595671298931
 30
0.0
 10
687.4025583989246
 20
165.87904247386
 30
0.0
 10
687.4165507656907
 20
165.7592062035938
 30
0.0
 10
687.4389494826958
 20
165.6410755462346
 30
0.0
 10
687.4705653105218
 20
165.524646788021
 30
0.0
 10
687.533711680369
 20
165.3461451777027
 30
0.0
 10
687.6527870216937
 20
165.1150519905601
 30
0.0
 10
687.8609220484152
 20
164.8610417387524
 30
0.0
 10
688.1149970365034
 20
164.6528614231151
 30
0.0
 10
688.3699104888464
 20
164.5213381036115
 30
0.0
 10
688.600945480399
 20
164.4462123173024
 30
0.0
 10
688.7988835175404
 20
164.4070820374332
 30
0.0
 10
688.9327741113921
 20
164.4023672662396
 30
0.0
 10
688.9999999999002
 20
164.4000000000001
 30
0.0
  0
SPLINE
  5
F6
330
1F
100
AcDbEntity
  8
0
  6
Continuous
 62
     7
370
    25
100
AcDbSpline
210
0.0
220
0.0
230
1.0
 70
     8
 71
     3
 72
    19
 73
    15
 74
     0
 42
0.000000001
 43
0.00000001
 40
0.0
 40
0.0
 40
0.0
 40
0.0
 40
0.0483007024449184
 40
0.0961939491316768
 40
0.1439549006798699
 40
0.1918609973737968
 40
0.2401871797305335
 40
0.370073141000256
 40
0.5000495556510849
 40
0.6299234185965334
 40
0.7599118472360848
 40
0.8401267424190835
 40
0.9197283283327342
 40
1.0
 40
1.0
 40
1.0
 40
1.0
 10
9.599999999999998
 20
7.00000000000009
 30
0.0
 10
9.59914479557683
 20
7.040432870115854
 30
0.0
 10
9.59744160107634
 20
7.120957526161986
 30
0.0
 10
9.583449234310649
 20
7.240793796441158
 30
0.0
 10
9.561050517305436
 20
7.358924453800708
 30
0.0
 10
9.529434689480032
 20
7.475353212001518
 30
0.0
 10
9.466288319628703
 20
7.653854822286532
 30
0.0
 10
9.34721297827984
 20
7.884948009401482
 30
0.0
 10
9.139077951614116
 20
8.138958261219214
 30
0.0
 10
8.885002963536227
 20
8.347138576904529
 30
0.0
 10
8.630089511168059
 20
8.478661896383105
 30
0.0
 10
8.399054519585448
 20
8.55378768269488
 30
0.0
 10
8.201116482444649
 20
8.592917962565533
 30
0.0
 10
8.067225888600705
 20
8.597632733760186
 30
0.0
 10
8.000000000099982
 20
8.600000000000051
 30
0.0
  0
SPLINE
  5
F8
330
1F
100
AcDbEntity
  8
0
  6
Continuous
 62
     7
370
    25
100
AcDbSpline
210
0.0
220
0.0
230
1.0
 70
     8
 71
     3
 72
    19
 73
    15
 74
     0
 42
0.000000001
 43
0.00000001
 40
0.0
 40
0.0
 40
0.0
 40
0.0
 40
0.0483007024485698
 40
0.0961939491370887
 40
0.1439549006852795
 40
0.1918609973774457
 40
0.2401871797307766
 40
0.3700731410139795
 40
0.5000495556514241
 40
0.6299234186139966
 40
0.7599118472364736
 40
0.8401267424273287
 40
0.919728328340976
 40
1.0
 40
1.0
 40
1.0
 40
1.0
 10
6.400000000000016
 20
7.000000000000117
 30
0.0
 10
6.400855204423128
 20
6.9595671298813
 30
0.0
 10
6.402558398923563
 20
6.879042473830643
 30
0.0
 10
6.416550765688978
 20
6.759206203546836
 30
0.0
 10
6.43894948269419
 20
6.641075546187314
 30
0.0
 10
6.470565310519039
 20
6.524646787990723
 30
0.0
 10
6.533711680379084
 20
6.346145177701517
 30
0.0
 10
6.652787021723617
 20
6.115051990587261
 30
0.0
 10
6.86092204840455
 20
5.861041738763256
 30
0.0
 10
7.114997036475613
 20
5.652861423087241
 30
0.0
 10
7.36991048885044
 20
5.521338103606555
 30
0.0
 10
7.6009454804295
 20
5.446212317308685
 30
0.0
 10
7.798883517569077
 20
5.407082037435313
 30
0.0
 10
7.932774111406193
 20
5.402367266240132
 30
0.0
 10
7.999999999899976
 20
5.400000000000155
 30
0.0
  0
SPLINE
  5
F9
330
1F
100
AcDbEntity
  8
0
  6
Continuous
 62
     7
370
    25
100
AcDbSpline
210
0.0
220
0.0
230
1.0
 70
     8
 71
     3
 72
    19
 73
    15
 74
     0
 42
0.000000001
 43
0.00000001
 40
0.0
 40
0.0
 40
0.0
 40
0.0
 40
0.0483007024785562
 40
0.0961939491820203
 40
0.1439549007302011
 40
0.191860997407864
 40
0.2401871797328687
 40
0.3700731410117921
 40
0.5000495556493285
 40
0.6299234186027661
 40
0.7599118472380444
 40
0.8401267424612282
 40
0.919728328374902
 40
1.0
 40
1.0
 40
1.0
 40
1.0
 10
694.1
 20
340.0
 30
0.0
 10
694.0991447955773
 20
340.0404328701439
 30
0.0
 10
694.0974416010779
 20
340.1209575262322
 30
0.0
 10
694.083449234314
 20
340.240793796554
 30
0.0
 10
694.0610505173094
 20
340.3589244539144
 30
0.0
 10
694.0294346894874
 20
340.4753532120748
 30
0.0
 10
693.9662883195965
 20
340.6538548223123
 30
0.0
 10
693.8472129782148
 20
340.88494800937
 30
0.0
 10
693.6390779516058
 20
341.1389582612285
 30
0.0
 10
693.3850029635697
 20
341.3471385769652
 30
0.0
 10
693.1300895111347
 20
341.4786618964062
 30
0.0
 10
692.89905451951
 20
341.5537876826787
 30
0.0
 10
692.7011164823742
 20
341.5929179625609
 30
0.0
 10
692.5672258885656
 20
341.597632733759
 30
0.0
 10
692.5000000001002
 20
341.6
 30
0.0
  0
SPLINE
  5
FA
330
1F
100
AcDbEntity
  8
0
  6
Continuous
 62
     7
370
    25
100
AcDbSpline
210
0.0
220
0.0
230
1.0
 70
     8
 71
     3
 72
    19
 73
    15
 74
     0
 42
0.000000001
 43
0.00000001
 40
0.0
 40
0.0
 40
0.0
 40
0.0
 40
0.0482928343501833
 40
0.0961821700552397
 40
0.1439431235037588
 40
0.1918530227908313
 40
0.2401866322199345
 40
0.3700608148853051
 40
0.5000495347078796
 40
0.6299357234308997
 40
0.7599123542880554
 40
0.8401376368631963
 40
0.9197392259439946
 40
1.0
 40
1.0
 40
1.0
 40
1.0
 10
692.5
 20
341.6
 30
0.0
 10
692.4595737177153
 20
341.599144722121
 30
0.0
 10
692.3790589247918
 20
341.5974413124224
 30
0.0
 10
692.2592326547431
 20
341.5834484371474
 30
0.0
 10
692.1411021542674
 20
341.5610495583048
 30
0.0
 10
692.0246640062554
 20
341.5294329316707
 30
0.0
 10
691.846158589723
 20
341.466299068059
 30
0.0
 10
691.6150547969064
 20
341.3472265669062
 30
0.0
 10
691.3610438240609
 20
341.1390759132481
 30
0.0
 10
691.1528473775421
 20
340.8850003036761
 30
0.0
 10
691.021328200764
 20
340.6300728209134
 30
0.0
 10
690.9462167255426
 20
340.3990348582707
 30
0.0
 10
690.907083188682
 20
340.201098258899
 30
0.0
 10
690.9023675444735
 20
340.0672167710502
 30
0.0
 10
690.9
 20
340.0000000000999
 30
0.0
  0
SPLINE
  5
FB
330
1F
100
AcDbEntity
  8
0
  6
Continuous
 62
     7
370
    25
100
AcDbSpline
210
0.0
220
0.0
230
1.0
 70
     8
 71
     3
 72
    19
 73
    15
 74
     0
 42
0.000000001
 43
0.00000001
 40
0.0
 40
0.0
 40
0.0
 40
0.0
 40
0.0483007024403599
 40
0.0961939491248065
 40
0.1439549006729942
 40
0.1918609973691493
 40
0.2401871797301951
 40
0.3700731409936534
 40
0.5000495556510629
 40
0.6299234185332412
 40
0.7599118472333827
 40
0.8401267423620927
 40
0.91972832827573
 40
1.0
 40
1.0
 40
1.0
 40
1.0
 10
690.9000000000001
 20
340.0000000000001
 30
0.0
 10
690.9008552044234
 20
339.9595671298882
 30
0.0
 10
690.9025583989243
 20
339.8790424738478
 30
0.0
 10
690.9165507656894
 20
339.7592062035741
 30
0.0
 10
690.9389494826952
 20
339.6410755462149
 30
0.0
 10
690.9705653105207
 20
339.5246467880086
 30
0.0
 10
691.0337116803639
 20
339.3461451777203
 30
0.0
 10
691.152787021714
 20
339.1150519906024
 30
0.0
 10
691.3609220483404
 20
338.8610417388161
 30
0.0
 10
691.6149970364477
 20
338.6528614231665
 30
0.0
 10
691.8699104887456
 20
338.5213381036688
 30
0.0
 10
692.1009454803116
 20
338.446212317282
 30
0.0
 10
692.29888351746
 20
338.4070820374283
 30
0.0
 10
692.4327741113514
 20
338.4023672662382
 30
0.0
 10
692.4999999998998
 20
338.3999999999999
 30
0.0
  0
SPLINE
  5
FD
330
1F
100
AcDbEntity
  8
0
  6
Continuous
 62
     7
370
    25
100
AcDbSpline
210
0.0
220
0.0
230
1.0
 70
     8
 71
     3
 72
    19
 73
    15
 74
     0
 42
0.000000001
 43
0.00000001
 40
0.0
 40
0.0
 40
0.0
 40
0.0
 40
0.0483007024593611
 40
0.0961939491532666
 40
0.1439549007014642
 40
0.1918609973884094
 40
0.2401871797315323
 40
0.3700731410416729
 40
0.5000495556518045
 40
0.6299234186687526
 40
0.7599118472382421
 40
0.8401267424663363
 40
0.9197283283800158
 40
1.0
 40
1.0
 40
1.0
 40
1.0
 10
351.8499999999999
 20
340.0000000000001
 30
0.0
 10
351.8491447955768
 20
340.0404328701279
 30
0.0
 10
351.8474416010767
 20
340.1209575261921
 30
0.0
 10
351.8334492343118
 20
340.2407937964896
 30
0.0
 10
351.8110505173069
 20
340.3589244538493
 30
0.0
 10
351.7794346894832
 20
340.4753532120332
 30
0.0
 10
351.716288319602
 20
340.6538548223249
 30
0.0
 10
351.5972129782624
 20
340.8849480094319
 30
0.0
 10
351.3890779515453
 20
341.1389582612824
 30
0.0
 10
351.1350029634998
 20
341.3471385769581
 30
0.0
 10
350.8800895110824
 20
341.4786618964332
 30
0.0
 10
350.6490545194997
 20
341.5537876826751
 30
0.0
 10
350.4511164823656
 20
341.5929179625606
 30
0.0
 10
350.317225888561
 20
341.5976327337589
 30
0.0
 10
350.2500000000998
 20
341.6
 30
0.0
  0
SPLINE
  5
FE
330
1F
100
AcDbEntity
  8
0
  6
Continuous
 62
     7
370
    25
100
AcDbSpline
210
0.0
220
0.0
230
1.0
 70
     8
 71
     3
 72
    19
 73
    15
 74
     0
 42
0.000000001
 43
0.00000001
 40
0.0
 40
0.0
 40
0.0
 40
0.0
 40
0.0482928343549389
 40
0.0961821700623733
 40
0.1439431235108326
 40
0.1918530227956696
 40
0.2401866322202755
 40
0.3700608148744269
 40
0.5000495347069321
 40
0.6299357234124489
 40
0.7599123542879643
 40
0.8401376368632741
 40
0.9197392259440976
 40
1.0
 40
1.0
 40
1.0
 40
1.0
 10
350.2499999999997
 20
341.6
 30
0.0
 10
350.2095737177112
 20
341.599144722121
 30
0.0
 10
350.1290589247818
 20
341.5974413124225
 30
0.0
 10
350.0092326547269
 20
341.583448437148
 30
0.0
 10
349.8911021542514
 20
341.5610495583054
 30
0.0
 10
349.7746640062448
 20
341.5294329316716
 30
0.0
 10
349.5961585897285
 20
341.4662990680589
 30
0.0
 10
349.3650547969256
 20
341.3472265668934
 30
0.0
 10
349.1110438240781
 20
341.1390759132659
 30
0.0
 10
348.902847377538
 20
340.8850003036971
 30
0.0
 10
348.7713282007711
 20
340.6300728209266
 30
0.0
 10
348.6962167255419
 20
340.3990348582707
 30
0.0
 10
348.6570831886817
 20
340.2010982588988
 30
0.0
 10
348.6523675444731
 20
340.06721677105
 30
0.0
 10
348.6499999999997
 20
340.0000000000999
 30
0.0
  0
SPLINE
  5
FF
330
1F
100
AcDbEntity
  8
0
  6
Continuous
 62
     7
370
    25
100
AcDbSpline
210
0.0
220
0.0
230
1.0
 70
     8
 71
     3
 72
    19
 73
    15
 74
     0
 42
0.000000001
 43
0.00000001
 40
0.0
 40
0.0
 40
0.0
 40
0.0
 40
0.0483007024264088
 40
0.0961939491039353
 40
0.1439549006521315
 40
0.1918609973550346
 40
0.2401871797292625
 40
0.3700731409980502
 40
0.5000495556522625
 40
0.6299234185879471
 40
0.759911847234764
 40
0.8401267423876697
 40
0.9197283283012628
 40
1.0
 40
1.0
 40
1.0
 40
1.0
 10
348.6499999999997
 20
340.0
 30
0.0
 10
348.650855204423
 20
339.9595671298998
 30
0.0
 10
348.6525583989241
 20
339.8790424738769
 30
0.0
 10
348.6665507656911
 20
339.7592062036214
 30
0.0
 10
348.6889494826964
 20
339.6410755462621
 30
0.0
 10
348.7205653105237
 20
339.5246467880391
 30
0.0
 10
348.7837116803547
 20
339.3461451777247
 30
0.0
 10
348.9027870216831
 20
339.1150519905768
 30
0.0
 10
349.1109220483798
 20
338.861041738786
 30
0.0
 10
349.3649970364843
 20
338.6528614231403
 30
0.0
 10
349.6199104888041
 20
338.521338103636
 30
0.0
 10
349.850945480358
 20
338.4462123172929
 30
0.0
 10
350.0488835175024
 20
338.4070820374308
 30
0.0
 10
350.1827741113727
 20
338.4023672662388
 30
0.0
 10
350.2499999998996
 20
338.3999999999999
 30
0.0
  0
SPLINE
  5
100
330
1F
100
AcDbEntity
  8
0
  6
Continuous
 62
     7
370
    25
100
AcDbSpline
210
0.0
220
0.0
230
1.0
 70
     8
 71
     3
 72
    19
 73
    15
 74
     0
 42
0.000000001
 43
0.00000001
 40
0.0
 40
0.0
 40
0.0
 40
0.0
 40
0.0482928343473764
 40
0.0961821700509824
 40
0.1439431234994752
 40
0.1918530227879436
 40
0.2401866322197024
 40
0.3700608148527647
 40
0.5000495347065174
 40
0.6299357233797377
 40
0.759912354286963
 40
0.840137636842767
 40
0.9197392259235906
 40
1.0
 40
1.0
 40
1.0
 40
1.0
 10
8.000000000000007
 20
8.600000000000051
 30
0.0
 10
7.959573717717827
 20
8.599144722121006
 30
0.0
 10
7.879058924797899
 20
8.597441312422404
 30
0.0
 10
7.759232654752591
 20
8.58344843714709
 30
0.0
 10
7.641102154277268
 20
8.561049558304612
 30
0.0
 10
7.524664006261839
 20
8.529432931669911
 30
0.0
 10
7.346158589748852
 20
8.466299068072475
 30
0.0
 10
7.115054796941244
 20
8.347226566903288
 30
0.0
 10
6.86104382410857
 20
8.139075913298571
 30
0.0
 10
6.652847377560944
 20
7.885000303714778
 30
0.0
 10
6.521328200793208
 20
7.63007282096495
 30
0.0
 10
6.446216725533693
 20
7.399034858307896
 30
0.0
 10
6.407083188679885
 20
7.20109825893292
 30
0.0
 10
6.402367544472931
 20
7.067216771067058
 30
0.0
 10
6.400000000000016
 20
7.000000000099843
 30
0.0
  0
SPLINE
  5
102
330
1F
100
AcDbEntity
  8
0
  6
Continuous
 62
     7
370
    25
100
AcDbSpline
210
0.0
220
0.0
230
1.0
 70
     8
 71
     3
 72
    19
 73
    15
 74
     0
 42
0.000000001
 43
0.00000001
 40
0.0
 40
0.0
 40
0.0
 40
0.0
 40
0.0483007024208191
 40
0.0961939490955727
 40
0.1439549006437473
 40
0.1918609973493668
 40
0.2401871797288835
 40
0.3700731409942941
 40
0.5000495556523835
 40
0.6299234186612728
 40
0.7599118472373404
 40
0.8401267424482654
 40
0.9197283283619241
 40
1.0
 40
1.0
 40
1.0
 40
1.0
 10
454.9
 20
339.05
 30
0.0
 10
454.8991447955765
 20
339.0904328700955
 30
0.0
 10
454.8974416010753
 20
339.1709575261114
 30
0.0
 10
454.8834492343082
 20
339.29079379636
 30
0.0
 10
454.8610505173027
 20
339.408924453719
 30
0.0
 10
454.8294346894749
 20
339.5253532119487
 30
0.0
 10
454.7662883196506
 20
339.7038548222694
 30
0.0
 10
454.6472129783294
 20
339.9349480094296
 30
0.0
 10
454.439077951573
 20
340.1889582612476
 30
0.0
 10
454.1850029634927
 20
340.3971385769343
 30
0.0
 10
453.9300895110999
 20
340.5286618964213
 30
0.0
 10
453.6990545195324
 20
340.6037876826821
 30
0.0
 10
453.5011164823958
 20
340.6429179625626
 30
0.0
 10
453.3672258885762
 20
340.6476327337595
 30
0.0
 10
453.3000000000999
 20
340.65
 30
0.0
  0
SPLINE
  5
103
330
1F
100
AcDbEntity
  8
0
  6
Continuous
 62
     7
370
    25
100
AcDbSpline
210
0.0
220
0.0
230
1.0
 70
     8
 71
     3
 72
    19
 73
    15
 74
     0
 42
0.000000001
 43
0.00000001
 40
0.0
 40
0.0
 40
0.0
 40
0.0
 40
0.0482928343330447
 40
0.0961821700295864
 40
0.1439431234780655
 40
0.1918530227735264
 40
0.2401866322187374
 40
0.3700608148140643
 40
0.5000495347057472
 40
0.629935723356133
 40
0.7599123542867823
 40
0.8401376368364785
 40
0.919739225917281
 40
1.0
 40
1.0
 40
1.0
 40
1.0
 10
453.2999999999999
 20
340.65
 30
0.0
 10
453.2595737177297
 20
340.6491447221209
 30
0.0
 10
453.1790589248278
 20
340.6474413124219
 30
0.0
 10
453.0592326548004
 20
340.6334484371455
 30
0.0
 10
452.9411021543256
 20
340.611049558303
 30
0.0
 10
452.8246640062929
 20
340.5794329316665
 30
0.0
 10
452.6461585897852
 20
340.5162990680979
 30
0.0
 10
452.4150547969667
 20
340.3972265669227
 30
0.0
 10
452.1610438241464
 20
340.1890759133335
 30
0.0
 10
451.952847377564
 20
339.9350003037364
 30
0.0
 10
451.8213282008048
 20
339.6800728209864
 30
0.0
 10
451.7462167255305
 20
339.4490348583196
 30
0.0
 10
451.7070831886792
 20
339.2510982589433
 30
0.0
 10
451.7023675444726
 20
339.1172167710723
 30
0.0
 10
451.6999999999999
 20
339.0500000000999
 30
0.0
  0
SPLINE
  5
104
330
1F
100
AcDbEntity
  8
0
  6
Continuous
 62
     7
370
    25
100
AcDbSpline
210
0.0
220
0.0
230
1.0
 70
     8
 71
     3
 72
    19
 73
    15
 74
     0
 42
0.000000001
 43
0.00000001
 40
0.0
 40
0.0
 40
0.0
 40
0.0
 40
0.0483007024292134
 40
0.0961939491081422
 40
0.143954900656341
 40
0.1918609973578869
 40
0.240187179729509
 40
0.3700731409892447
 40
0.5000495556516936
 40
0.6299234185882149
 40
0.7599118472350784
 40
0.8401267423996838
 40
0.9197283283134009
 40
1.0
 40
1.0
 40
1.0
 40
1.0
 10
451.6999999999999
 20
339.05
 30
0.0
 10
451.7008552044232
 20
339.0095671298974
 30
0.0
 10
451.7025583989244
 20
338.929042473871
 30
0.0
 10
451.7165507656908
 20
338.8092062036117
 30
0.0
 10
451.7389494826965
 20
338.6910755462526
 30
0.0
 10
451.7705653105231
 20
338.5746467880328
 30
0.0
 10
451.8337116803544
 20
338.3961451777299
 30
0.0
 10
451.9527870216913
 20
338.1650519905905
 30
0.0
 10
452.1609220483754
 20
337.9110417387918
 30
0.0
 10
452.4149970364727
 20
337.7028614231222
 30
0.0
 10
452.6699104888123
 20
337.5713381036296
 30
0.0
 10
452.9009454803797
 20
337.4962123172976
 30
0.0
 10
453.0988835175229
 20
337.4570820374323
 30
0.0
 10
453.2327741113829
 20
337.4523672662392
 30
0.0
 10
453.2999999998999
 20
337.4499999999999
 30
0.0
  0
SPLINE
  5
106
330
1F
100
AcDbEntity
  8
0
  6
Continuous
 62
     7
370
    25
100
AcDbSpline
210
0.0
220
0.0
230
1.0
 70
     8
 71
     3
 72
    19
 73
    15
 74
     0
 42
0.000000001
 43
0.00000001
 40
0.0
 40
0.0
 40
0.0
 40
0.0
 40
0.0483007024464408
 40
0.0961939491339568
 40
0.1439549006821326
 40
0.1918609973753297
 40
0.2401871797306251
 40
0.3700731410151169
 40
0.5000495556515919
 40
0.6299234186367814
 40
0.7599118472372333
 40
0.8401267424437413
 40
0.9197283283573914
 40
0.9999999999999999
 40
0.9999999999999999
 40
0.9999999999999999
 40
0.9999999999999999
 10
9.599999999999998
 20
340.0000000000001
 30
0.0
 10
9.599144795576887
 20
340.0404328701171
 30
0.0
 10
9.597441601076396
 20
340.1209575261651
 30
0.0
 10
9.583449234310814
 20
340.2407937964462
 30
0.0
 10
9.561050517305548
 20
340.3589244538057
 30
0.0
 10
9.529434689480532
 20
340.4753532120049
 30
0.0
 10
9.466288319622207
 20
340.6538548222982
 30
0.0
 10
9.347212978281561
 20
340.8849480094178
 30
0.0
 10
9.139077951579699
 20
341.1389582612489
 30
0.0
 10
8.885002963514687
 20
341.3471385769321
 30
0.0
 10
8.630089511121374
 20
341.4786618964099
 30
0.0
 10
8.399054519540815
 20
341.5537876826846
 30
0.0
 10
8.201116482403458
 20
341.5929179625629
 30
0.0
 10
8.067225888580055
 20
341.5976327337595
 30
0.0
 10
8.000000000099982
 20
341.6
 30
0.0
  0
LINE
  5
108
330
1F
100
AcDbEntity
  8
0
  6
Continuous
 62
     7
370
    25
100
AcDbLine
 10
700.0
 20
-4.0
 30
0.0
 11
700.0
 21
351.0
 31
0.0
  0
LINE
  5
109
330
1F
100
AcDbEntity
  8
0
  6
Continuous
 62
     7
370
    25
100
AcDbLine
 10
700.0
 20
351.0
 30
0.0
 11
0.0
 21
351.0
 31
0.0
  0
LINE
  5
10A
330
1F
100
AcDbEntity
  8
0
  6
Continuous
 62
     7
370
    25
100
AcDbLine
 10
605.75
 20
153.1
 30
0.0
 11
615.75
 21
153.1
 31
0.0
  0
LINE
  5
10B
330
1F
100
AcDbEntity
  8
0
  6
Continuous
 62
     7
370
    25
100
AcDbLine
 10
615.75
 20
32.9
 30
0.0
 11
605.75
 21
32.9
 31
0.0
  0
LINE
  5
10C
330
1F
100
AcDbEntity
  8
0
  6
Continuous
 62
     7
370
    25
100
AcDbLine
 10
61.25
 20
28.6
 30
0.0
 11
71.25
 21
28.6
 31
0.0
  0
LINE
  5
10D
330
1F
100
AcDbEntity
  8
0
  6
Continuous
 62
     7
370
    25
100
AcDbLine
 10
71.25
 20
32.9
 30
0.0
 11
61.25
 21
32.9
 31
0.0
  0
LINE
  5
10E
330
1F
100
AcDbEntity
  8
0
  6
Continuous
 62
     7
370
    25
100
AcDbLine
 10
211.25
 20
32.9
 30
0.0
 11
185.75
 21
32.9
 31
0.0
  0
LINE
  5
10F
330
1F
100
AcDbEntity
  8
0
  6
Continuous
 62
     7
370
    25
100
AcDbLine
 10
185.75
 20
28.6
 30
0.0
 11
211.25
 21
28.6
 31
0.0
  0
LINE
  5
110
330
1F
100
AcDbEntity
  8
0
  6
Continuous
 62
     7
370
    25
100
AcDbLine
 10
325.75
 20
28.6
 30
0.0
 11
351.25
 21
28.6
 31
0.0
  0
LINE
  5
111
330
1F
100
AcDbEntity
  8
0
  6
Continuous
 62
     7
370
    25
100
AcDbLine
 10
491.25
 20
32.9
 30
0.0
 11
465.75
 21
32.9
 31
0.0
  0
LINE
  5
112
330
1F
100
AcDbEntity
  8
0
  6
Continuous
 62
     7
370
    25
100
AcDbLine
 10
465.75
 20
28.6
 30
0.0
 11
491.25
 21
28.6
 31
0.0
  0
LINE
  5
113
330
1F
100
AcDbEntity
  8
0
  6
Continuous
 62
     7
370
    25
100
AcDbLine
 10
465.75
 20
153.1
 30
0.0
 11
491.25
 21
153.1
 31
0.0
  0
LINE
  5
114
330
1F
100
AcDbEntity
  8
0
  6
Continuous
 62
     7
370
    25
100
AcDbLine
 10
491.25
 20
157.4
 30
0.0
 11
465.75
 21
157.4
 31
0.0
  0
LINE
  5
115
330
1F
100
AcDbEntity
  8
0
  6
Continuous
 62
     7
370
    25
100
AcDbLine
 10
325.75
 20
153.1
 30
0.0
 11
351.25
 21
153.1
 31
0.0
  0
LINE
  5
116
330
1F
100
AcDbEntity
  8
0
  6
Continuous
 62
     7
370
    25
100
AcDbLine
 10
351.25
 20
157.4
 30
0.0
 11
325.75
 21
157.4
 31
0.0
  0
LINE
  5
117
330
1F
100
AcDbEntity
  8
0
  6
Continuous
 62
     7
370
    25
100
AcDbLine
 10
185.75
 20
153.1
 30
0.0
 11
211.25
 21
153.1
 31
0.0
  0
LINE
  5
118
330
1F
100
AcDbEntity
  8
0
  6
Continuous
 62
     7
370
    25
100
AcDbLine
 10
211.25
 20
157.4
 30
0.0
 11
185.75
 21
157.4
 31
0.0
  0
LINE
  5
119
330
1F
100
AcDbEntity
  8
0
  6
Continuous
 62
     7
370
    25
100
AcDbLine
 10
71.25
 20
157.4
 30
0.0
 11
61.25
 21
157.4
 31
0.0
  0
LINE
  5
11A
330
1F
100
AcDbEntity
  8
0
  6
Continuous
 62
     7
370
    25
100
AcDbLine
 10
61.25
 20
153.1
 30
0.0
 11
71.25
 21
153.1
 31
0.0
  0
LINE
  5
11B
330
1F
100
AcDbEntity
  8
0
  6
Continuous
 62
     7
370
    25
100
AcDbLine
 10
450.3227513795
 20
161.5
 30
0.0
 11
366.6772486205
 21
161.5
 31
0.0
  0
LINE
  5
11C
330
1F
100
AcDbEntity
  8
0
  6
Continuous
 62
     7
370
    25
100
AcDbLine
 10
351.25
 20
147.5
 30
0.0
 11
340.0
 21
147.5
 31
0.0
  0
LINE
  5
11D
330
1F
100
AcDbEntity
  8
0
  6
Continuous
 62
     7
370
    25
100
AcDbLine
 10
340.0
 20
147.5
 30
0.0
 11
340.0
 21
38.5
 31
0.0
  0
LINE
  5
11E
330
1F
100
AcDbEntity
  8
0
  6
Continuous
 62
     7
370
    25
100
AcDbLine
 10
340.0
 20
38.5
 30
0.0
 11
351.2500000001
 21
38.5
 31
0.0
  0
LINE
  5
11F
330
1F
100
AcDbEntity
  8
0
  6
Continuous
 62
     7
370
    25
100
AcDbLine
 10
366.6772486205
 20
24.5
 30
0.0
 11
450.3227513795
 21
24.5
 31
0.0
  0
LINE
  5
120
330
1F
100
AcDbEntity
  8
0
  6
Continuous
 62
     7
370
    25
100
AcDbLine
 10
465.75
 20
38.5
 30
0.0
 11
477.0
 21
38.5
 31
0.0
  0
LINE
  5
121
330
1F
100
AcDbEntity
  8
0
  6
Continuous
 62
     7
370
    25
100
AcDbLine
 10
477.0
 20
38.5
 30
0.0
 11
477.0
 21
147.5
 31
0.0
  0
LINE
  5
122
330
1F
100
AcDbEntity
  8
0
  6
Continuous
 62
     7
370
    25
100
AcDbLine
 10
477.0
 20
147.5
 30
0.0
 11
465.75
 21
147.5
 31
0.0
  0
LINE
  5
123
330
1F
100
AcDbEntity
  8
0
  6
Continuous
 62
     7
370
    25
100
AcDbLine
 10
617.0
 20
43.0
 30
0.0
 11
617.0
 21
143.0
 31
0.0
  0
LINE
  5
124
330
1F
100
AcDbEntity
  8
0
  6
Continuous
 62
     7
370
    25
100
AcDbLine
 10
598.5
 20
161.5
 30
0.0
 11
506.6772486205
 21
161.5
 31
0.0
  0
LINE
  5
125
330
1F
100
AcDbEntity
  8
0
  6
Continuous
 62
     7
370
    25
100
AcDbLine
 10
491.25
 20
147.5
 30
0.0
 11
480.0
 21
147.5
 31
0.0
  0
LINE
  5
126
330
1F
100
AcDbEntity
  8
0
  6
Continuous
 62
     7
370
    25
100
AcDbLine
 10
480.0
 20
147.5
 30
0.0
 11
480.0
 21
38.5
 31
0.0
  0
LINE
  5
127
330
1F
100
AcDbEntity
  8
0
  6
Continuous
 62
     7
370
    25
100
AcDbLine
 10
480.0
 20
38.5
 30
0.0
 11
491.2500000001
 21
38.5
 31
0.0
  0
LINE
  5
128
330
1F
100
AcDbEntity
  8
0
  6
Continuous
 62
     7
370
    25
100
AcDbLine
 10
506.6772486205
 20
24.5
 30
0.0
 11
598.5
 21
24.5
 31
0.0
  0
LINE
  5
129
330
1F
100
AcDbEntity
  8
0
  6
Continuous
 62
     7
370
    25
100
AcDbLine
 10
211.25
 20
147.5
 30
0.0
 11
200.0
 21
147.5
 31
0.0
  0
LINE
  5
12A
330
1F
100
AcDbEntity
  8
0
  6
Continuous
 62
     7
370
    25
100
AcDbLine
 10
200.0
 20
147.5
 30
0.0
 11
200.0
 21
38.5
 31
0.0
  0
LINE
  5
12B
330
1F
100
AcDbEntity
  8
0
  6
Continuous
 62
     7
370
    25
100
AcDbLine
 10
200.0
 20
38.5
 30
0.0
 11
211.2500000001
 21
38.5
 31
0.0
  0
LINE
  5
12C
330
1F
100
AcDbEntity
  8
0
  6
Continuous
 62
     7
370
    25
100
AcDbLine
 10
226.6772486205
 20
24.5
 30
0.0
 11
310.3227513795
 21
24.5
 31
0.0
  0
LINE
  5
12D
330
1F
100
AcDbEntity
  8
0
  6
Continuous
 62
     7
370
    25
100
AcDbLine
 10
325.75
 20
38.5
 30
0.0
 11
337.0
 21
38.5
 31
0.0
  0
LINE
  5
12E
330
1F
100
AcDbEntity
  8
0
  6
Continuous
 62
     7
370
    25
100
AcDbLine
 10
337.0
 20
38.5
 30
0.0
 11
337.0
 21
147.5
 31
0.0
  0
LINE
  5
12F
330
1F
100
AcDbEntity
  8
0
  6
Continuous
 62
     7
370
    25
100
AcDbLine
 10
337.0
 20
147.5
 30
0.0
 11
325.75
 21
147.5
 31
0.0
  0
LINE
  5
130
330
1F
100
AcDbEntity
  8
0
  6
Continuous
 62
     7
370
    25
100
AcDbLine
 10
170.3227513795
 20
161.5
 30
0.0
 11
78.5
 21
161.5
 31
0.0
  0
LINE
  5
131
330
1F
100
AcDbEntity
  8
0
  6
Continuous
 62
     7
370
    25
100
AcDbLine
 10
60.0
 20
143.0
 30
0.0
 11
60.0
 21
43.0
 31
0.0
  0
LINE
  5
132
330
1F
100
AcDbEntity
  8
0
  6
Continuous
 62
     7
370
    25
100
AcDbLine
 10
78.5
 20
24.5
 30
0.0
 11
170.3227513795
 21
24.5
 31
0.0
  0
LINE
  5
133
330
1F
100
AcDbEntity
  8
0
  6
Continuous
 62
     7
370
    25
100
AcDbLine
 10
185.75
 20
38.5
 30
0.0
 11
197.0
 21
38.5
 31
0.0
  0
LINE
  5
134
330
1F
100
AcDbEntity
  8
0
  6
Continuous
 62
     7
370
    25
100
AcDbLine
 10
197.0
 20
38.5
 30
0.0
 11
197.0
 21
147.5
 31
0.0
  0
LINE
  5
135
330
1F
100
AcDbEntity
  8
0
  6
Continuous
 62
     7
370
    25
100
AcDbLine
 10
197.0
 20
147.5
 30
0.0
 11
185.7499999999
 21
147.5
 31
0.0
  0
LINE
  5
136
330
1F
100
AcDbEntity
  8
0
  6
Continuous
 62
     7
370
    25
100
AcDbLine
 10
22.0
 20
307.5
 30
0.0
 11
22.0
 21
207.5
 31
0.0
  0
LINE
  5
137
330
1F
100
AcDbEntity
  8
0
  6
Continuous
 62
     7
370
    25
100
AcDbLine
 10
40.5
 20
189.0
 30
0.0
 11
140.5
 21
189.0
 31
0.0
  0
LINE
  5
138
330
1F
100
AcDbEntity
  8
0
  6
Continuous
 62
     7
370
    25
100
AcDbLine
 10
159.0
 20
207.5
 30
0.0
 11
159.0
 21
307.5
 31
0.0
  0
LINE
  5
139
330
1F
100
AcDbEntity
  8
0
  6
Continuous
 62
     7
370
    25
100
AcDbLine
 10
140.5
 20
326.0
 30
0.0
 11
40.5
 21
326.0
 31
0.0
  0
LINE
  5
13A
330
1F
100
AcDbEntity
  8
0
  6
Continuous
 62
     7
370
    25
100
AcDbLine
 10
615.75
 20
157.4
 30
0.0
 11
605.75
 21
157.4
 31
0.0
  0
LINE
  5
13B
330
1F
100
AcDbEntity
  8
0
  6
Continuous
 62
     7
370
    25
100
AcDbLine
 10
605.75
 20
28.6
 30
0.0
 11
615.75
 21
28.6
 31
0.0
  0
LINE
  5
13C
330
1F
100
AcDbEntity
  8
0
  6
Continuous
 62
     7
370
    25
100
AcDbLine
 10
0.0
 20
-4.0
 30
0.0
 11
700.0
 21
-4.0
 31
0.0
  0
LINE
  5
13D
330
1F
100
AcDbEntity
  8
0
  6
Continuous
 62
     7
370
    25
100
AcDbLine
 10
310.3227513795
 20
161.5
 30
0.0
 11
226.6772486205
 21
161.5
 31
0.0
  0
LINE
  5
13E
330
1F
100
AcDbEntity
  8
0
  6
Continuous
 62
     7
370
    25
100
AcDbLine
 10
0.0
 20
351.0
 30
0.0
 11
0.0
 21
-4.0
 31
0.0
  0
LINE
  5
13F
330
1F
100
AcDbEntity
  8
0
  6
Continuous
 62
     7
370
    25
100
AcDbLine
 10
351.25
 20
32.9
 30
0.0
 11
325.75
 21
32.9
 31
0.0
  0
ARC
  5
140
330
1F
100
AcDbEntity
  8
0
  6
Continuous
 62
     7
370
    25
100
AcDbCircle
 10
615.75
 20
155.25
 30
0.0
 40
2.149999999983038
100
AcDbArc
 50
269.9999999995
 51
90.0
  0
ARC
  5
141
330
1F
100
AcDbEntity
  8
0
  6
Continuous
 62
     7
370
    25
100
AcDbCircle
 10
605.75
 20
30.75
 30
0.0
 40
2.149999999983027
100
AcDbArc
 50
89.9999999995
 51
270.0
  0
ARC
  5
142
330
1F
100
AcDbEntity
  8
0
  6
Continuous
 62
     7
370
    25
100
AcDbCircle
 10
615.75
 20
30.75
 30
0.0
 40
2.149999999999999
100
AcDbArc
 50
269.999999999
 51
90.0000000006
  0
ARC
  5
143
330
1F
100
AcDbEntity
  8
0
  6
Continuous
 62
     7
370
    25
100
AcDbCircle
 10
61.25
 20
30.75
 30
0.0
 40
2.149999999983027
100
AcDbArc
 50
89.9999999995
 51
270.0
  0
ARC
  5
144
330
1F
100
AcDbEntity
  8
0
  6
Continuous
 62
     7
370
    25
100
AcDbCircle
 10
71.25
 20
30.75
 30
0.0
 40
2.149999999999984
100
AcDbArc
 50
269.999999999
 51
90.0000000006
  0
ARC
  5
145
330
1F
100
AcDbEntity
  8
0
  6
Continuous
 62
     7
370
    25
100
AcDbCircle
 10
211.25
 20
30.75
 30
0.0
 40
2.149999999983027
100
AcDbArc
 50
270.0
 51
90.0000000005
  0
ARC
  5
146
330
1F
100
AcDbEntity
  8
0
  6
Continuous
 62
     7
370
    25
100
AcDbCircle
 10
185.75
 20
30.75
 30
0.0
 40
2.149999999999984
100
AcDbArc
 50
89.9999999994
 51
270.000000001
  0
ARC
  5
147
330
1F
100
AcDbEntity
  8
0
  6
Continuous
 62
     7
370
    25
100
AcDbCircle
 10
351.25
 20
30.75
 30
0.0
 40
2.149999999983059
100
AcDbArc
 50
270.0
 51
90.0000000005
  0
ARC
  5
148
330
1F
100
AcDbEntity
  8
0
  6
Continuous
 62
     7
370
    25
100
AcDbCircle
 10
325.75
 20
30.75
 30
0.0
 40
2.149999999999995
100
AcDbArc
 50
89.9999999994
 51
270.000000001
  0
ARC
  5
149
330
1F
100
AcDbEntity
  8
0
  6
Continuous
 62
     7
370
    25
100
AcDbCircle
 10
491.25
 20
30.75
 30
0.0
 40
2.149999999983063
100
AcDbArc
 50
270.0
 51
90.0000000005
  0
ARC
  5
14A
330
1F
100
AcDbEntity
  8
0
  6
Continuous
 62
     7
370
    25
100
AcDbCircle
 10
465.75
 20
30.75
 30
0.0
 40
2.149999999999988
100
AcDbArc
 50
89.9999999994
 51
270.000000001
  0
ARC
  5
14B
330
1F
100
AcDbEntity
  8
0
  6
Continuous
 62
     7
370
    25
100
AcDbCircle
 10
465.75
 20
155.25
 30
0.0
 40
2.149999999982896
100
AcDbArc
 50
90.0
 51
270.0000000005
  0
ARC
  5
14C
330
1F
100
AcDbEntity
  8
0
  6
Continuous
 62
     7
370
    25
100
AcDbCircle
 10
491.25
 20
155.25
 30
0.0
 40
2.150000000000006
100
AcDbArc
 50
269.9999999994
 51
90.000000001
  0
ARC
  5
14D
330
1F
100
AcDbEntity
  8
0
  6
Continuous
 62
     7
370
    25
100
AcDbCircle
 10
325.75
 20
155.25
 30
0.0
 40
2.149999999983038
100
AcDbArc
 50
90.0
 51
270.0000000005
  0
ARC
  5
14E
330
1F
100
AcDbEntity
  8
0
  6
Continuous
 62
     7
370
    25
100
AcDbCircle
 10
351.25
 20
155.25
 30
0.0
 40
2.150000000000006
100
AcDbArc
 50
269.9999999994
 51
90.000000001
  0
ARC
  5
14F
330
1F
100
AcDbEntity
  8
0
  6
Continuous
 62
     7
370
    25
100
AcDbCircle
 10
185.75
 20
155.25
 30
0.0
 40
2.149999999982981
100
AcDbArc
 50
90.0
 51
270.0000000005
  0
ARC
  5
150
330
1F
100
AcDbEntity
  8
0
  6
Continuous
 62
     7
370
    25
100
AcDbCircle
 10
211.25
 20
155.25
 30
0.0
 40
2.150000000000006
100
AcDbArc
 50
269.9999999994
 51
90.000000001
  0
ARC
  5
151
330
1F
100
AcDbEntity
  8
0
  6
Continuous
 62
     7
370
    25
100
AcDbCircle
 10
71.25
 20
155.25
 30
0.0
 40
2.149999999983123
100
AcDbArc
 50
269.9999999996
 51
90.0
  0
ARC
  5
152
330
1F
100
AcDbEntity
  8
0
  6
Continuous
 62
     7
370
    25
100
AcDbCircle
 10
61.25
 20
155.25
 30
0.0
 40
2.150000000000006
100
AcDbArc
 50
89.999999999
 51
270.0000000006
  0
ARC
  5
153
330
1F
100
AcDbEntity
  8
0
  6
Continuous
 62
     7
370
    25
100
AcDbCircle
 10
351.2500000002
 20
162.9999999997
 30
0.0
 40
15.49999999972534
100
AcDbArc
 50
269.9999999992
 51
354.4465558051
  0
ARC
  5
154
330
1F
100
AcDbEntity
  8
0
  6
Continuous
 62
     7
370
    25
100
AcDbCircle
 10
351.2500000002
 20
23.0000000003
 30
0.0
 40
15.49999999972731
100
AcDbArc
 50
5.5534441947
 51
90.0000000006
  0
ARC
  5
155
330
1F
100
AcDbEntity
  8
0
  6
Continuous
 62
     7
370
    25
100
AcDbCircle
 10
465.7499999998
 20
23.0000000003
 30
0.0
 40
15.49999999972524
100
AcDbArc
 50
89.9999999992
 51
174.4465558051
  0
ARC
  5
156
330
1F
100
AcDbEntity
  8
0
  6
Continuous
 62
     7
370
    25
100
AcDbCircle
 10
465.7499999998
 20
162.9999999997
 30
0.0
 40
15.49999999971542
100
AcDbArc
 50
185.5534441945
 51
270.0000000006
  0
ARC
  5
157
330
1F
100
AcDbEntity
  8
0
  6
Continuous
 62
     7
370
    25
100
AcDbCircle
 10
618.4999999998
 20
162.9999999998
 30
0.0
 40
20.05617111990459
100
AcDbArc
 50
184.2891533284
 51
265.7108466717
  0
ARC
  5
158
330
1F
100
AcDbEntity
  8
0
  6
Continuous
 62
     7
370
    25
100
AcDbCircle
 10
491.2500000002
 20
162.9999999997
 30
0.0
 40
15.49999999972593
100
AcDbArc
 50
269.9999999992
 51
354.4465558051
  0
ARC
  5
159
330
1F
100
AcDbEntity
  8
0
  6
Continuous
 62
     7
370
    25
100
AcDbCircle
 10
491.2500000002
 20
23.0000000003
 30
0.0
 40
15.49999999972644
100
AcDbArc
 50
5.5534441947
 51
90.0000000006
  0
ARC
  5
15A
330
1F
100
AcDbEntity
  8
0
  6
Continuous
 62
     7
370
    25
100
AcDbCircle
 10
618.4999999998
 20
23.0000000002
 30
0.0
 40
20.05617111990267
100
AcDbArc
 50
94.2891533283
 51
175.7108466717
  0
ARC
  5
15B
330
1F
100
AcDbEntity
  8
0
  6
Continuous
 62
     7
370
    25
100
AcDbCircle
 10
211.2500000002
 20
162.9999999997
 30
0.0
 40
15.49999999972543
100
AcDbArc
 50
269.9999999992
 51
354.4465558051
  0
ARC
  5
15C
330
1F
100
AcDbEntity
  8
0
  6
Continuous
 62
     7
370
    25
100
AcDbCircle
 10
211.2500000002
 20
23.0000000003
 30
0.0
 40
15.49999999972721
100
AcDbArc
 50
5.5534441947
 51
90.0000000006
  0
ARC
  5
15D
330
1F
100
AcDbEntity
  8
0
  6
Continuous
 62
     7
370
    25
100
AcDbCircle
 10
325.7499999998
 20
23.0000000003
 30
0.0
 40
15.4999999997253
100
AcDbArc
 50
89.9999999992
 51
174.4465558051
  0
ARC
  5
15E
330
1F
100
AcDbEntity
  8
0
  6
Continuous
 62
     7
370
    25
100
AcDbCircle
 10
325.7499999998
 20
162.9999999997
 30
0.0
 40
15.49999999971523
100
AcDbArc
 50
185.5534441945
 51
270.0000000006
  0
ARC
  5
15F
330
1F
100
AcDbEntity
  8
0
  6
Continuous
 62
     7
370
    25
100
AcDbCircle
 10
58.5000000002
 20
162.9999999998
 30
0.0
 40
20.05617111990478
100
AcDbArc
 50
274.2891533284
 51
355.7108466717
  0
ARC
  5
160
330
1F
100
AcDbEntity
  8
0
  6
Continuous
 62
     7
370
    25
100
AcDbCircle
 10
58.5000000002
 20
23.0000000002
 30
0.0
 40
20.05617111990478
100
AcDbArc
 50
4.2891533284
 51
85.7108466717
  0
ARC
  5
161
330
1F
100
AcDbEntity
  8
0
  6
Continuous
 62
     7
370
    25
100
AcDbCircle
 10
185.7499999998
 20
23.0000000003
 30
0.0
 40
15.49999999972514
100
AcDbArc
 50
89.9999999992
 51
174.4465558051
  0
ARC
  5
162
330
1F
100
AcDbEntity
  8
0
  6
Continuous
 62
     7
370
    25
100
AcDbCircle
 10
185.7499999998
 20
162.9999999997
 30
0.0
 40
15.49999999972683
100
AcDbArc
 50
185.5534441947
 51
270.0000000006
  0
ARC
  5
163
330
1F
100
AcDbEntity
  8
0
  6
Continuous
 62
     7
370
    25
100
AcDbCircle
 10
20.5000000002
 20
187.5000000002
 30
0.0
 40
20.05617111990418
100
AcDbArc
 50
4.2891533284
 51
85.7108466717
  0
ARC
  5
164
330
1F
100
AcDbEntity
  8
0
  6
Continuous
 62
     7
370
    25
100
AcDbCircle
 10
160.4999999998
 20
187.5000000002
 30
0.0
 40
20.05617111990396
100
AcDbArc
 50
94.2891533284
 51
175.7108466717
  0
ARC
  5
165
330
1F
100
AcDbEntity
  8
0
  6
Continuous
 62
     7
370
    25
100
AcDbCircle
 10
160.4999999998
 20
327.4999999998
 30
0.0
 40
20.05617111990414
100
AcDbArc
 50
184.2891533284
 51
265.7108466717
  0
ARC
  5
166
330
1F
100
AcDbEntity
  8
0
  6
Continuous
 62
     7
370
    25
100
AcDbCircle
 10
20.5000000002
 20
327.4999999998
 30
0.0
 40
20.05617111989572
100
AcDbArc
 50
274.2891533282
 51
355.7108466718
  0
ARC
  5
167
330
1F
100
AcDbEntity
  8
0
  6
Continuous
 62
     7
370
    25
100
AcDbCircle
 10
605.75
 20
155.25
 30
0.0
 40
2.150000000000006
100
AcDbArc
 50
89.999999999
 51
270.0000000006
  0
ARC
  5
168
330
1F
100
AcDbEntity
  8
0
  6
Continuous
 62
     7
370
    25
100
AcDbCircle
 10
689.0
 20
7.0
 30
0.0
 40
1.599999999987292
100
AcDbArc
 50
269.999999996
 51
360.0
  0
ARC
  5
169
330
1F
100
AcDbEntity
  8
0
  6
Continuous
 62
     7
370
    25
100
AcDbCircle
 10
689.0
 20
15.0
 30
0.0
 40
1.599999999987531
100
AcDbArc
 50
269.999999996
 51
360.0
  0
ARC
  5
16A
330
1F
100
AcDbEntity
  8
0
  6
Continuous
 62
     7
370
    25
100
AcDbCircle
 10
8.0
 20
15.0
 30
0.0
 40
1.599999999987459
100
AcDbArc
 50
269.999999996
 51
0.0
  0
ARC
  5
16B
330
1F
100
AcDbEntity
  8
0
  6
Continuous
 62
     7
370
    25
100
AcDbCircle
 10
692.5
 20
340.0
 30
0.0
 40
1.599999999987403
100
AcDbArc
 50
269.999999996
 51
0.0
  0
ARC
  5
16C
330
1F
100
AcDbEntity
  8
0
  6
Continuous
 62
     7
370
    25
100
AcDbCircle
 10
689.0
 20
166.0
 30
0.0
 40
1.59999999998729
100
AcDbArc
 50
269.999999996
 51
0.0
  0
ARC
  5
16D
330
1F
100
AcDbEntity
  8
0
  6
Continuous
 62
     7
370
    25
100
AcDbCircle
 10
648.5
 20
339.05
 30
0.0
 40
1.599999999987517
100
AcDbArc
 50
269.999999996
 51
360.0
  0
ARC
  5
16E
330
1F
100
AcDbEntity
  8
0
  6
Continuous
 62
     7
370
    25
100
AcDbCircle
 10
8.0
 20
7.0
 30
0.0
 40
1.599999999987212
100
AcDbArc
 50
269.999999996
 51
0.0
  0
ARC
  5
16F
330
1F
100
AcDbEntity
  8
0
  6
Continuous
 62
     7
370
    25
100
AcDbCircle
 10
8.0
 20
166.0
 30
0.0
 40
1.599999999987375
100
AcDbArc
 50
269.999999996
 51
0.0
  0
ARC
  5
170
330
1F
100
AcDbEntity
  8
0
  6
Continuous
 62
     7
370
    25
100
AcDbCircle
 10
350.25
 20
340.0
 30
0.0
 40
1.599999999987574
100
AcDbArc
 50
269.999999996
 51
360.0
  0
ARC
  5
171
330
1F
100
AcDbEntity
  8
0
  6
Continuous
 62
     7
370
    25
100
AcDbCircle
 10
453.3
 20
339.05
 30
0.0
 40
1.599999999987403
100
AcDbArc
 50
269.999999996
 51
360.0
  0
ARC
  5
172
330
1F
100
AcDbEntity
  8
0
  6
Continuous
 62
     7
370
    25
100
AcDbCircle
 10
8.0
 20
340.0
 30
0.0
 40
1.599999999987357
100
AcDbArc
 50
269.999999996
 51
0.0
  0
ARC
  5
173
330
1F
100
AcDbEntity
  8
0
  6
Continuous
 62
     7
370
    25
100
AcDbCircle
 10
348.5
 20
7.0
 30
0.0
 40
1.599999999987517
100
AcDbArc
 50
269.999999996
 51
0.0
  0
ENDSEC
  0
SECTION
  2
OBJECTS
  0
DICTIONARY
  5
C
330
0
100
AcDbDictionary
281
     1
  3
ACAD_DETAILVIEWSTYLE
350
17B
  3
ACAD_GROUP
350
D
  3
ACAD_LAYOUT
350
1A
  3
ACAD_MATERIAL
350
43
  3
ACAD_MLEADERSTYLE
350
6B
  3
ACAD_MLINESTYLE
350
17
  3
ACAD_PLOTSETTINGS
350
19
  3
ACAD_PLOTSTYLENAME
350
E
  3
ACAD_SCALELIST
350
47
  3
ACAD_SECTIONVIEWSTYLE
350
17C
  3
ACAD_TABLESTYLE
350
69
  3
ACAD_VISUALSTYLE
350
2A
  3
ACDB_RECOMPOSE_DATA
350
178
  3
AcDbVariableDictionary
350
174
  0
SUN
  5
6D
330
29
100
AcDbSun
 90
        1
290
     0
 63
     7
421
 16777215
 40
1.0
291
     1
 91
  2455826
 92
 54000000
292
     0
 70
     2
 71
   256
280
     1
  0
DICTIONARY
  5
17B
102
{ACAD_REACTORS
330
C
102
}
330
C
100
AcDbDictionary
281
     1
  0
DICTIONARY
  5
D
102
{ACAD_REACTORS
330
C
102
}
330
C
100
AcDbDictionary
281
     1
  0
DICTIONARY
  5
1A
102
{ACAD_REACTORS
330
C
102
}
330
C
100
AcDbDictionary
281
     1
  3
Layout1
350
1E
  3
Layout2
350
26
  3
Model
350
22
  0
DICTIONARY
  5
43
102
{ACAD_REACTORS
330
C
102
}
330
C
100
AcDbDictionary
281
     1
  3
ByBlock
350
45
  3
ByLayer
350
44
  3
Global
350
46
  0
DICTIONARY
  5
6B
102
{ACAD_REACTORS
330
C
102
}
330
C
100
AcDbDictionary
281
     1
  3
Standard
350
6C
  0
DICTIONARY
  5
17
102
{ACAD_REACTORS
330
C
102
}
330
C
100
AcDbDictionary
281
     1
  3
Standard
350
18
  0
DICTIONARY
  5
19
102
{ACAD_REACTORS
330
C
102
}
330
C
100
AcDbDictionary
281
     1
  0
ACDBDICTIONARYWDFLT
  5
E
102
{ACAD_REACTORS
330
C
102
}
330
C
100
AcDbDictionary
281
     1
  3
Normal
350
F
100
AcDbDictionaryWithDefault
340
F
  0
DICTIONARY
  5
47
102
{ACAD_REACTORS
330
C
102
}
330
C
100
AcDbDictionary
281
     1
  3
A0
350
48
  3
A1
350
49
  3
A2
350
4A
  3
A3
350
4B
  3
A4
350
4C
  3
A5
350
4D
  3
A6
350
4E
  3
A7
350
4F
  3
A8
350
50
  3
A9
350
51
  3
B0
350
52
  3
B1
350
53
  3
B2
350
54
  3
B3
350
55
  3
B4
350
56
  3
B5
350
57
  3
B6
350
58
  3
B7
350
59
  3
B8
350
5A
  3
B9
350
5B
  3
C0
350
5C
  3
C1
350
5D
  3
C2
350
5E
  3
C3
350
5F
  3
C4
350
60
  3
C5
350
61
  3
C6
350
62
  3
C7
350
63
  3
C8
350
64
  3
C9
350
65
  3
D0
350
66
  3
D1
350
67
  3
D2
350
68
  0
DICTIONARY
  5
17C
102
{ACAD_REACTORS
330
C
102
}
330
C
100
AcDbDictionary
281
     1
  0
DICTIONARY
  5
69
102
{ACAD_REACTORS
330
C
102
}
330
C
100
AcDbDictionary
281
     1
  3
Standard
350
6A
  0
DICTIONARY
  5
2A
102
{ACAD_REACTORS
330
C
102
}
330
C
100
AcDbDictionary
281
     1
  3
2dWireframe
350
2F
  3
Basic
350
32
  3
Brighten
350
36
  3
ColorChange
350
3A
  3
Conceptual
350
34
  3
Dim
350
35
  3
EdgeColorOff
350
3D
  3
Facepattern
350
39
  3
Flat
350
2B
  3
FlatWithEdges
350
2C
  3
Gouraud
350
2D
  3
GouraudWithEdges
350
2E
  3
Hidden
350
31
  3
JitterOff
350
3B
  3
Linepattern
350
38
  3
OverhangOff
350
3C
  3
Realistic
350
33
  3
Shaded
350
42
  3
Shaded with edges
350
41
  3
Shades of Gray
350
3E
  3
Sketchy
350
3F
  3
Thicken
350
37
  3
Wireframe
350
30
  3
X-Ray
350
40
  0
XRECORD
  5
178
102
{ACAD_REACTORS
330
C
102
}
330
C
100
AcDbXrecord
280
     1
 90
        1
330
6A
  0
DICTIONARY
  5
174
102
{ACAD_REACTORS
330
C
102
}
330
C
100
AcDbDictionary
281
     1
  3
CANNOSCALE
350
175
  3
CMLEADERSTYLE
350
17A
  3
CTABLESTYLE
350
179
  3
SECTIONTHICKNESSINC
350
17D
  0
LAYOUT
  5
1E
102
{ACAD_REACTORS
330
1A
102
}
330
1A
100
AcDbPlotSettings
  1

  2
none_device
  4

  6

 40
0.0
 41
0.0
 42
0.0
 43
0.0
 44
0.0
 45
0.0
 46
0.0
 47
0.0
 48
0.0
 49
0.0
140
0.0
141
0.0
142
1.0
143
1.0
 70
   688
 72
     1
 73
     0
 74
     5
  7

 75
    16
 76
     0
 77
     2
 78
   300
147
1.0
148
0.0
149
0.0
100
AcDbLayout
  1
Layout1
 70
     1
 71
     1
 10
0.0
 20
0.0
 11
420.0
 21
297.0
 12
0.0
 22
0.0
 32
0.0
 14
1.0000000000E+20
 24
1.0000000000E+20
 34
1.0000000000E+20
 15
-1.0000000000E+20
 25
-1.0000000000E+20
 35
-1.0000000000E+20
146
0.0
 13
0.0
 23
0.0
 33
0.0
 16
1.0
 26
0.0
 36
0.0
 17
0.0
 27
1.0
 37
0.0
 76
     0
330
1B
  0
LAYOUT
  5
26
102
{ACAD_REACTORS
330
1A
102
}
330
1A
100
AcDbPlotSettings
  1

  2
none_device
  4

  6

 40
0.0
 41
0.0
 42
0.0
 43
0.0
 44
0.0
 45
0.0
 46
0.0
 47
0.0
 48
0.0
 49
0.0
140
0.0
141
0.0
142
1.0
143
1.0
 70
   688
 72
     1
 73
     0
 74
     5
  7

 75
    16
 76
     0
 77
     2
 78
   300
147
1.0
148
0.0
149
0.0
100
AcDbLayout
  1
Layout2
 70
     1
 71
     2
 10
0.0
 20
0.0
 11
0.0
 21
0.0
 12
0.0
 22
0.0
 32
0.0
 14
0.0
 24
0.0
 34
0.0
 15
0.0
 25
0.0
 35
0.0
146
0.0
 13
0.0
 23
0.0
 33
0.0
 16
1.0
 26
0.0
 36
0.0
 17
0.0
 27
1.0
 37
0.0
 76
     0
330
23
  0
LAYOUT
  5
22
102
{ACAD_REACTORS
330
1A
102
}
330
1A
100
AcDbPlotSettings
  1

  2
none_device
  4
ANSI_A_(11.00_x_8.50_Inches)
  6

 40
6.35
 41
19.05
 42
6.35000508
 43
19.05000254
 44
279.4
 45
215.9
 46
-4.95300254
 47
20.3412258729
 48
0.0
 49
0.0
140
0.0
141
0.0
142
0.0155571429
143
1.0
 70
  1696
 72
     0
 73
     0
 74
     0
  7

 75
     0
 76
     0
 77
     2
 78
   300
147
0.0179189148
148
-1300.4909072572
149
0.0
100
AcDbLayout
  1
Model
 70
     1
 71
     0
 10
0.0
 20
0.0
 11
420.0
 21
297.0
 12
0.0
 22
0.0
 32
0.0
 14
0.0
 24
-4.0
 34
0.0
 15
700.0
 25
351.0
 35
0.0
146
0.0
 13
0.0
 23
0.0
 33
0.0
 16
1.0
 26
0.0
 36
0.0
 17
0.0
 27
1.0
 37
0.0
 76
     0
330
1F
331
29
  0
MATERIAL
  5
45
102
{ACAD_REACTORS
330
43
102
}
330
43
100
AcDbMaterial
  1
ByBlock
 72
     1
 94
      127
  0
MATERIAL
  5
44
102
{ACAD_REACTORS
330
43
102
}
330
43
100
AcDbMaterial
  1
ByLayer
 72
     1
 94
      127
  0
MATERIAL
  5
46
102
{ACAD_REACTORS
330
43
102
}
330
43
100
AcDbMaterial
  1
Global
 72
     1
 94
      127
  0
MLEADERSTYLE
  5
6C
102
{ACAD_REACTORS
330
6B
102
}
330
6B
100
AcDbMLeaderStyle
179
     2
170
     2
171
     1
172
     0
 90
        2
 40
0.0
 41
0.0
173
     1
 91
-1056964608
340
14
 92
       -2
290
     1
 42
2.0
291
     1
 43
8.0
  3
Standard
341
0
 44
4.0
300

342
11
174
     1
178
     6
175
     1
176
     0
 93
-1056964608
 45
4.0
292
     0
297
     0
 46
4.0
343
0
 94
-1056964608
 47
1.0
 49
1.0
140
1.0
293
     1
141
0.0
294
     1
177
     0
142
1.0
295
     0
296
     0
143
3.75
271
     0
272
     9
273
     9
298
     0
  0
MLINESTYLE
  5
18
102
{ACAD_REACTORS
330
17
102
}
330
17
100
AcDbMlineStyle
  2
Standard
 70
     0
  3

 62
   256
 51
90.0
 52
90.0
 71
     2
 49
0.5
 62
   256
  6
BYLAYER
 49
-0.5
 62
   256
  6
BYLAYER
  0
ACDBPLACEHOLDER
  5
F
102
{ACAD_REACTORS
330
E
102
}
330
E
  0
SCALE
  5
48
102
{ACAD_REACTORS
330
47
102
}
330
47
100
AcDbScale
 70
     0
300
1:1
140
1.0
141
1.0
290
     1
  0
SCALE
  5
49
102
{ACAD_REACTORS
330
47
102
}
330
47
100
AcDbScale
 70
     0
300
1:2
140
1.0
141
2.0
290
     0
  0
SCALE
  5
4A
102
{ACAD_REACTORS
330
47
102
}
330
47
100
AcDbScale
 70
     0
300
1:4
140
1.0
141
4.0
290
     0
  0
SCALE
  5
4B
102
{ACAD_REACTORS
330
47
102
}
330
47
100
AcDbScale
 70
     0
300
1:5
140
1.0
141
5.0
290
     0
  0
SCALE
  5
4C
102
{ACAD_REACTORS
330
47
102
}
330
47
100
AcDbScale
 70
     0
300
1:8
140
1.0
141
8.0
290
     0
  0
SCALE
  5
4D
102
{ACAD_REACTORS
330
47
102
}
330
47
100
AcDbScale
 70
     0
300
1:10
140
1.0
141
10.0
290
     0
  0
SCALE
  5
4E
102
{ACAD_REACTORS
330
47
102
}
330
47
100
AcDbScale
 70
     0
300
1:16
140
1.0
141
16.0
290
     0
  0
SCALE
  5
4F
102
{ACAD_REACTORS
330
47
102
}
330
47
100
AcDbScale
 70
     0
300
1:20
140
1.0
141
20.0
290
     0
  0
SCALE
  5
50
102
{ACAD_REACTORS
330
47
102
}
330
47
100
AcDbScale
 70
     0
300
1:30
140
1.0
141
30.0
290
     0
  0
SCALE
  5
51
102
{ACAD_REACTORS
330
47
102
}
330
47
100
AcDbScale
 70
     0
300
1:40
140
1.0
141
40.0
290
     0
  0
SCALE
  5
52
102
{ACAD_REACTORS
330
47
102
}
330
47
100
AcDbScale
 70
     0
300
1:50
140
1.0
141
50.0
290
     0
  0
SCALE
  5
53
102
{ACAD_REACTORS
330
47
102
}
330
47
100
AcDbScale
 70
     0
300
1:100
140
1.0
141
100.0
290
     0
  0
SCALE
  5
54
102
{ACAD_REACTORS
330
47
102
}
330
47
100
AcDbScale
 70
     0
300
2:1
140
2.0
141
1.0
290
     0
  0
SCALE
  5
55
102
{ACAD_REACTORS
330
47
102
}
330
47
100
AcDbScale
 70
     0
300
4:1
140
4.0
141
1.0
290
     0
  0
SCALE
  5
56
102
{ACAD_REACTORS
330
47
102
}
330
47
100
AcDbScale
 70
     0
300
8:1
140
8.0
141
1.0
290
     0
  0
SCALE
  5
57
102
{ACAD_REACTORS
330
47
102
}
330
47
100
AcDbScale
 70
     0
300
10:1
140
10.0
141
1.0
290
     0
  0
SCALE
  5
58
102
{ACAD_REACTORS
330
47
102
}
330
47
100
AcDbScale
 70
     0
300
100:1
140
100.0
141
1.0
290
     0
  0
SCALE
  5
59
102
{ACAD_REACTORS
330
47
102
}
330
47
100
AcDbScale
 70
     0
300
1/128" = 1'-0"
140
0.0078125
141
12.0
290
     0
  0
SCALE
  5
5A
102
{ACAD_REACTORS
330
47
102
}
330
47
100
AcDbScale
 70
     0
300
1/64" = 1'-0"
140
0.015625
141
12.0
290
     0
  0
SCALE
  5
5B
102
{ACAD_REACTORS
330
47
102
}
330
47
100
AcDbScale
 70
     0
300
1/32" = 1'-0"
140
0.03125
141
12.0
290
     0
  0
SCALE
  5
5C
102
{ACAD_REACTORS
330
47
102
}
330
47
100
AcDbScale
 70
     0
300
1/16" = 1'-0"
140
0.0625
141
12.0
290
     0
  0
SCALE
  5
5D
102
{ACAD_REACTORS
330
47
102
}
330
47
100
AcDbScale
 70
     0
300
3/32" = 1'-0"
140
0.09375
141
12.0
290
     0
  0
SCALE
  5
5E
102
{ACAD_REACTORS
330
47
102
}
330
47
100
AcDbScale
 70
     0
300
1/8" = 1'-0"
140
0.125
141
12.0
290
     0
  0
SCALE
  5
5F
102
{ACAD_REACTORS
330
47
102
}
330
47
100
AcDbScale
 70
     0
300
3/16" = 1'-0"
140
0.1875
141
12.0
290
     0
  0
SCALE
  5
60
102
{ACAD_REACTORS
330
47
102
}
330
47
100
AcDbScale
 70
     0
300
1/4" = 1'-0"
140
0.25
141
12.0
290
     0
  0
SCALE
  5
61
102
{ACAD_REACTORS
330
47
102
}
330
47
100
AcDbScale
 70
     0
300
3/8" = 1'-0"
140
0.375
141
12.0
290
     0
  0
SCALE
  5
62
102
{ACAD_REACTORS
330
47
102
}
330
47
100
AcDbScale
 70
     0
300
1/2" = 1'-0"
140
0.5
141
12.0
290
     0
  0
SCALE
  5
63
102
{ACAD_REACTORS
330
47
102
}
330
47
100
AcDbScale
 70
     0
300
3/4" = 1'-0"
140
0.75
141
12.0
290
     0
  0
SCALE
  5
64
102
{ACAD_REACTORS
330
47
102
}
330
47
100
AcDbScale
 70
     0
300
1" = 1'-0"
140
1.0
141
12.0
290
     0
  0
SCALE
  5
65
102
{ACAD_REACTORS
330
47
102
}
330
47
100
AcDbScale
 70
     0
300
1-1/2" = 1'-0"
140
1.5
141
12.0
290
     0
  0
SCALE
  5
66
102
{ACAD_REACTORS
330
47
102
}
330
47
100
AcDbScale
 70
     0
300
3" = 1'-0"
140
3.0
141
12.0
290
     0
  0
SCALE
  5
67
102
{ACAD_REACTORS
330
47
102
}
330
47
100
AcDbScale
 70
     0
300
6" = 1'-0"
140
6.0
141
12.0
290
     0
  0
SCALE
  5
68
102
{ACAD_REACTORS
330
47
102
}
330
47
100
AcDbScale
 70
     0
300
1'-0" = 1'-0"
140
12.0
141
12.0
290
     0
  0
TABLESTYLE
  5
6A
102
{ACAD_REACTORS
330
69
102
}
102
{ACAD_XDICTIONARY
360
176
102
}
330
69
100
AcDbTableStyle
  3
Standard
 70
     0
 71
     0
 40
0.06
 41
0.06
280
     0
281
     0
  7
Standard
140
4.5
170
     2
 62
     0
 63
   257
283
     0
 90
        4
 91
        0
  1

274
    -2
284
     1
 64
     0
275
    -2
285
     1
 65
     0
276
    -2
286
     1
 66
     0
277
    -2
287
     1
 67
     0
278
    -2
288
     1
 68
     0
279
    -2
289
     1
 69
     0
  7
Standard
140
6.0
170
     5
 62
     0
 63
   257
283
     0
 90
        4
 91
        0
  1

274
    -2
284
     1
 64
     0
275
    -2
285
     1
 65
     0
276
    -2
286
     1
 66
     0
277
    -2
287
     1
 67
     0
278
    -2
288
     1
 68
     0
279
    -2
289
     1
 69
     0
  7
Standard
140
4.5
170
     5
 62
     0
 63
   257
283
     0
 90
        4
 91
        0
  1

274
    -2
284
     1
 64
     0
275
    -2
285
     1
 65
     0
276
    -2
286
     1
 66
     0
277
    -2
287
     1
 67
     0
278
    -2
288
     1
 68
     0
279
    -2
289
     1
 69
     0
  0
VISUALSTYLE
  5
2F
102
{ACAD_REACTORS
330
2A
102
}
330
2A
100
AcDbVisualStyle
  2
2dWireframe
 70
     4
177
     3
291
     0
 70
    58
 90
        0
176
     1
 90
        2
176
     1
 90
        0
176
     1
 90
        0
176
     1
 40
0.6
176
     1
 40
30.0
176
     1
 62
     7
420
 16777215
176
     1
 90
        1
176
     1
 90
        4
176
     1
 62
     7
176
     1
 62
   257
176
     1
 90
        1
176
     1
 90
        1
176
     1
 40
1.0
176
     1
 90
        0
176
     1
 62
   257
176
     1
 40
1.0
176
     1
 90
        1
176
     1
 90
        6
176
     1
 90
        2
176
     1
 62
     7
176
     1
 90
        5
176
     1
 90
        0
176
     1
 90
        0
176
     1
290
     0
176
     1
 90
        1
176
     1
 40
0.0
176
     1
 90
        0
176
     1
290
     1
176
     1
290
     1
176
     1
290
     0
176
     1
290
     0
176
     1
290
     0
176
     1
290
     0
176
     1
290
     0
176
     1
290
     0
176
     1
290
     0
176
     1
 90
       50
176
     1
 40
0.0
176
     1
 40
1.0
176
     1
 90
        0
176
     1
 62
    18
420
        0
176
     1
 90
       50
176
     1
 90
        3
176
     1
 62
     5
420
      255
176
     1
290
     0
176
     1
 90
       50
176
     1
 90
       50
176
     1
 90
       50
176
     1
290
     0
176
     1
 90
       50
176
     1
 62
   256
176
     0
 40
1.0
176
     0
 90
        2
176
     1
  1
strokes_ogs.tif
176
     1
290
     0
176
     1
 40
1.0
176
     1
 40
1.0
176
     1
  0
VISUALSTYLE
  5
32
102
{ACAD_REACTORS
330
2A
102
}
330
2A
100
AcDbVisualStyle
  2
Basic
 70
     7
177
     3
291
     1
 70
    58
 90
        1
176
     1
 90
        0
176
     1
 90
        1
176
     1
 90
        0
176
     1
 40
0.6
176
     1
 40
30.0
176
     1
 62
     7
420
 16777215
176
     1
 90
        0
176
     1
 90
        4
176
     1
 62
     7
176
     1
 62
   257
176
     1
 90
        1
176
     1
 90
        1
176
     1
 40
1.0
176
     1
 90
        8
176
     1
 62
     7
176
     1
 40
1.0
176
     1
 90
        1
176
     1
 90
        6
176
     1
 90
        2
176
     1
 62
     7
176
     1
 90
        5
176
     1
 90
        0
176
     1
 90
        0
176
     1
290
     0
176
     1
 90
        1
176
     1
 40
0.0
176
     1
 90
        0
176
     1
290
     0
176
     1
290
     1
176
     1
290
     1
176
     1
290
     0
176
     1
290
     0
176
     1
290
     0
176
     1
290
     0
176
     1
290
     0
176
     1
290
     0
176
     1
 90
       50
176
     1
 40
0.0
176
     1
 40
1.0
176
     1
 90
        0
176
     1
 62
    18
420
        0
176
     1
 90
       50
176
     1
 90
        3
176
     1
 62
     5
420
      255
176
     1
290
     0
176
     1
 90
       50
176
     1
 90
       50
176
     1
 90
       50
176
     1
290
     0
176
     1
 90
       50
176
     1
 62
   256
176
     0
 40
1.0
176
     0
 90
        2
176
     1
  1
strokes_ogs.tif
176
     1
290
     0
176
     1
 40
1.0
176
     1
 40
1.0
176
     1
  0
VISUALSTYLE
  5
36
102
{ACAD_REACTORS
330
2A
102
}
330
2A
100
AcDbVisualStyle
  2
Brighten
 70
    12
177
     3
291
     1
 70
    58
 90
        2
176
     1
 90
        2
176
     1
 90
        0
176
     1
 90
        0
176
     1
 40
0.6
176
     1
 40
30.0
176
     1
 62
     7
420
 16777215
176
     1
 90
        1
176
     1
 90
        4
176
     1
 62
     7
176
     1
 62
   257
176
     1
 90
        1
176
     1
 90
        1
176
     1
 40
1.0
176
     1
 90
        8
176
     1
 62
     7
176
     1
 40
1.0
176
     1
 90
        1
176
     1
 90
        6
176
     1
 90
        2
176
     1
 62
     7
176
     1
 90
        5
176
     1
 90
        0
176
     1
 90
        0
176
     1
290
     0
176
     1
 90
        1
176
     1
 40
50.0
176
     1
 90
        0
176
     1
290
     0
176
     1
290
     1
176
     1
290
     1
176
     1
290
     0
176
     1
290
     0
176
     1
290
     0
176
     1
290
     0
176
     1
290
     0
176
     1
290
     0
176
     1
 90
       50
176
     1
 40
0.0
176
     1
 40
1.0
176
     1
 90
        0
176
     1
 62
    18
420
        0
176
     1
 90
       50
176
     1
 90
        3
176
     1
 62
     5
420
      255
176
     1
290
     0
176
     1
 90
       50
176
     1
 90
       50
176
     1
 90
       50
176
     1
290
     0
176
     1
 90
       50
176
     1
 62
   256
176
     0
 40
1.0
176
     0
 90
        2
176
     1
  1
strokes_ogs.tif
176
     1
290
     0
176
     1
 40
1.0
176
     1
 40
1.0
176
     1
  0
VISUALSTYLE
  5
3A
102
{ACAD_REACTORS
330
2A
102
}
330
2A
100
AcDbVisualStyle
  2
ColorChange
 70
    16
177
     3
291
     1
 70
    58
 90
        2
176
     1
 90
        2
176
     1
 90
        3
176
     1
 90
        0
176
     1
 40
0.6
176
     1
 40
30.0
176
     1
 62
     8
420
  8421504
176
     1
 90
        1
176
     1
 90
        4
176
     1
 62
     7
176
     1
 62
   257
176
     1
 90
        1
176
     1
 90
        1
176
     1
 40
1.0
176
     1
 90
        8
176
     1
 62
     8
420
  8421504
176
     1
 40
1.0
176
     1
 90
        1
176
     1
 90
        6
176
     1
 90
        2
176
     1
 62
     7
176
     1
 90
        5
176
     1
 90
        0
176
     1
 90
        0
176
     1
290
     0
176
     1
 90
        1
176
     1
 40
0.0
176
     1
 90
        0
176
     1
290
     0
176
     1
290
     1
176
     1
290
     1
176
     1
290
     0
176
     1
290
     0
176
     1
290
     0
176
     1
290
     0
176
     1
290
     0
176
     1
290
     0
176
     1
 90
       50
176
     1
 40
0.0
176
     1
 40
1.0
176
     1
 90
        0
176
     1
 62
    18
420
        0
176
     1
 90
       50
176
     1
 90
        3
176
     1
 62
     5
420
      255
176
     1
290
     0
176
     1
 90
       50
176
     1
 90
       50
176
     1
 90
       50
176
     1
290
     0
176
     1
 90
       50
176
     1
 62
   256
176
     0
 40
1.0
176
     0
 90
        2
176
     1
  1
strokes_ogs.tif
176
     1
290
     0
176
     1
 40
1.0
176
     1
 40
1.0
176
     1
  0
VISUALSTYLE
  5
34
102
{ACAD_REACTORS
330
2A
102
}
330
2A
100
AcDbVisualStyle
  2
Conceptual
 70
     9
177
     3
291
     0
 70
    58
 90
        3
176
     1
 90
        2
176
     1
 90
        0
176
     1
 90
        0
176
     1
 40
0.6
176
     1
 40
30.0
176
     1
 62
     7
420
 16777215
176
     1
 90
        2
176
     1
 90
        2
176
     1
 62
     7
176
     1
 62
   257
176
     1
 90
        1
176
     1
 90
        1
176
     1
 40
179.0
176
     1
 90
        8
176
     1
 62
     7
176
     1
 40
1.0
176
     1
 90
        1
176
     1
 90
        6
176
     1
 90
        2
176
     1
 62
     7
176
     1
 90
        3
176
     1
 90
        0
176
     1
 90
        0
176
     1
290
     0
176
     1
 90
        1
176
     1
 40
0.0
176
     1
 90
        0
176
     1
290
     0
176
     1
290
     1
176
     1
290
     1
176
     1
290
     0
176
     1
290
     0
176
     1
290
     0
176
     1
290
     0
176
     1
290
     0
176
     1
290
     0
176
     1
 90
       50
176
     1
 40
0.0
176
     1
 40
1.0
176
     1
 90
        0
176
     1
 62
    18
420
        0
176
     1
 90
       50
176
     1
 90
        3
176
     1
 62
     5
420
      255
176
     1
290
     0
176
     1
 90
       50
176
     1
 90
       50
176
     1
 90
       50
176
     1
290
     0
176
     1
 90
       50
176
     1
 62
   256
176
     0
 40
1.0
176
     0
 90
        2
176
     1
  1
strokes_ogs.tif
176
     1
290
     0
176
     1
 40
1.0
176
     1
 40
1.0
176
     1
  0
VISUALSTYLE
  5
35
102
{ACAD_REACTORS
330
2A
102
}
330
2A
100
AcDbVisualStyle
  2
Dim
 70
    11
177
     3
291
     1
 70
    58
 90
        2
176
     1
 90
        2
176
     1
 90
        0
176
     1
 90
        0
176
     1
 40
0.6
176
     1
 40
30.0
176
     1
 62
     7
420
 16777215
176
     1
 90
        1
176
     1
 90
        4
176
     1
 62
     7
176
     1
 62
   257
176
     1
 90
        1
176
     1
 90
        1
176
     1
 40
1.0
176
     1
 90
        8
176
     1
 62
     7
176
     1
 40
1.0
176
     1
 90
        1
176
     1
 90
        6
176
     1
 90
        2
176
     1
 62
     7
176
     1
 90
        5
176
     1
 90
        0
176
     1
 90
        0
176
     1
290
     0
176
     1
 90
        1
176
     1
 40
-50.0
176
     1
 90
        0
176
     1
290
     0
176
     1
290
     1
176
     1
290
     1
176
     1
290
     0
176
     1
290
     0
176
     1
290
     0
176
     1
290
     0
176
     1
290
     0
176
     1
290
     0
176
     1
 90
       50
176
     1
 40
0.0
176
     1
 40
1.0
176
     1
 90
        0
176
     1
 62
    18
420
        0
176
     1
 90
       50
176
     1
 90
        3
176
     1
 62
     5
420
      255
176
     1
290
     0
176
     1
 90
       50
176
     1
 90
       50
176
     1
 90
       50
176
     1
290
     0
176
     1
 90
       50
176
     1
 62
   256
176
     0
 40
1.0
176
     0
 90
        2
176
     1
  1
strokes_ogs.tif
176
     1
290
     0
176
     1
 40
1.0
176
     1
 40
1.0
176
     1
  0
VISUALSTYLE
  5
3D
102
{ACAD_REACTORS
330
2A
102
}
330
2A
100
AcDbVisualStyle
  2
EdgeColorOff
 70
    22
177
     3
291
     1
 70
    58
 90
        2
176
     0
 90
        2
176
     0
 90
        0
176
     0
 90
        0
176
     0
 40
0.6
176
     0
 40
30.0
176
     0
 62
     7
420
 16777215
176
     0
 90
        1
176
     0
 90
        4
176
     0
 62
     7
176
     0
 62
   257
176
     0
 90
        1
176
     0
 90
        1
176
     0
 40
1.0
176
     0
 90
        8
176
     2
 62
     7
176
     0
 40
1.0
176
     0
 90
        1
176
     0
 90
        6
176
     0
 90
        2
176
     0
 62
     7
176
     0
 90
        5
176
     0
 90
        0
176
     0
 90
        0
176
     0
290
     0
176
     0
 90
        1
176
     0
 40
0.0
176
     0
 90
        0
176
     0
290
     0
176
     0
290
     1
176
     0
290
     1
176
     0
290
     0
176
     0
290
     0
176
     0
290
     0
176
     0
290
     0
176
     0
290
     0
176
     0
290
     0
176
     0
 90
       50
176
     0
 40
0.0
176
     0
 40
1.0
176
     0
 90
        0
176
     0
 62
    18
420
        0
176
     0
 90
       50
176
     0
 90
        3
176
     0
 62
     5
420
      255
176
     0
290
     0
176
     0
 90
       50
176
     0
 90
       50
176
     0
 90
       50
176
     0
290
     0
176
     0
 90
       50
176
     0
 62
   256
176
     0
 40
1.0
176
     0
 90
        2
176
     0
  1
strokes_ogs.tif
176
     0
290
     0
176
     0
 40
1.0
176
     0
 40
1.0
176
     0
  0
VISUALSTYLE
  5
39
102
{ACAD_REACTORS
330
2A
102
}
330
2A
100
AcDbVisualStyle
  2
Facepattern
 70
    15
177
     3
291
     1
 70
    58
 90
        2
176
     1
 90
        2
176
     1
 90
        0
176
     1
 90
        0
176
     1
 40
0.6
176
     1
 40
30.0
176
     1
 62
     7
420
 16777215
176
     1
 90
        1
176
     1
 90
        4
176
     1
 62
     7
176
     1
 62
   257
176
     1
 90
        1
176
     1
 90
        1
176
     1
 40
1.0
176
     1
 90
        8
176
     1
 62
     7
176
     1
 40
1.0
176
     1
 90
        1
176
     1
 90
        6
176
     1
 90
        2
176
     1
 62
     7
176
     1
 90
        5
176
     1
 90
        0
176
     1
 90
        0
176
     1
290
     0
176
     1
 90
        1
176
     1
 40
0.0
176
     1
 90
        0
176
     1
290
     0
176
     1
290
     1
176
     1
290
     1
176
     1
290
     0
176
     1
290
     0
176
     1
290
     0
176
     1
290
     0
176
     1
290
     0
176
     1
290
     0
176
     1
 90
       50
176
     1
 40
0.0
176
     1
 40
1.0
176
     1
 90
        0
176
     1
 62
    18
420
        0
176
     1
 90
       50
176
     1
 90
        3
176
     1
 62
     5
420
      255
176
     1
290
     0
176
     1
 90
       50
176
     1
 90
       50
176
     1
 90
       50
176
     1
290
     0
176
     1
 90
       50
176
     1
 62
   256
176
     0
 40
1.0
176
     0
 90
        2
176
     1
  1
strokes_ogs.tif
176
     1
290
     0
176
     1
 40
1.0
176
     1
 40
1.0
176
     1
  0
VISUALSTYLE
  5
2B
102
{ACAD_REACTORS
330
2A
102
}
330
2A
100
AcDbVisualStyle
  2
Flat
 70
     0
177
     3
291
     1
 70
    58
 90
        2
176
     1
 90
        1
176
     1
 90
        1
176
     1
 90
        2
176
     1
 40
0.6
176
     1
 40
30.0
176
     1
 62
     7
420
 16777215
176
     1
 90
        0
176
     1
 90
        0
176
     1
 62
     7
176
     1
 62
   257
176
     1
 90
        1
176
     1
 90
        1
176
     1
 40
1.0
176
     1
 90
        8
176
     1
 62
     7
176
     1
 40
1.0
176
     1
 90
        1
176
     1
 90
        6
176
     1
 90
        2
176
     1
 62
     7
176
     1
 90
        5
176
     1
 90
        0
176
     1
 90
        0
176
     1
290
     0
176
     1
 90
       13
176
     1
 40
0.0
176
     1
 90
        0
176
     1
290
     0
176
     1
290
     1
176
     1
290
     1
176
     1
290
     0
176
     1
290
     0
176
     1
290
     0
176
     1
290
     0
176
     1
290
     0
176
     1
290
     0
176
     1
 90
       50
176
     1
 40
0.0
176
     1
 40
1.0
176
     1
 90
        0
176
     1
 62
    18
420
        0
176
     1
 90
       50
176
     1
 90
        3
176
     1
 62
     5
420
      255
176
     1
290
     0
176
     1
 90
       50
176
     1
 90
       50
176
     1
 90
       50
176
     1
290
     0
176
     1
 90
       50
176
     1
 62
   256
176
     0
 40
1.0
176
     0
 90
        2
176
     1
  1
strokes_ogs.tif
176
     1
290
     0
176
     1
 40
1.0
176
     1
 40
1.0
176
     1
  0
VISUALSTYLE
  5
2C
102
{ACAD_REACTORS
330
2A
102
}
330
2A
100
AcDbVisualStyle
  2
FlatWithEdges
 70
     1
177
     3
291
     1
 70
    58
 90
        2
176
     1
 90
        1
176
     1
 90
        1
176
     1
 90
        2
176
     1
 40
0.6
176
     1
 40
30.0
176
     1
 62
     7
420
 16777215
176
     1
 90
        1
176
     1
 90
        0
176
     1
 62
     7
176
     1
 62
   257
176
     1
 90
        1
176
     1
 90
        1
176
     1
 40
1.0
176
     1
 90
        0
176
     1
 62
   257
176
     1
 40
1.0
176
     1
 90
        1
176
     1
 90
        6
176
     1
 90
        2
176
     1
 62
     7
176
     1
 90
        5
176
     1
 90
        0
176
     1
 90
        0
176
     1
290
     0
176
     1
 90
       13
176
     1
 40
0.0
176
     1
 90
        0
176
     1
290
     0
176
     1
290
     1
176
     1
290
     1
176
     1
290
     0
176
     1
290
     0
176
     1
290
     0
176
     1
290
     0
176
     1
290
     0
176
     1
290
     0
176
     1
 90
       50
176
     1
 40
0.0
176
     1
 40
1.0
176
     1
 90
        0
176
     1
 62
    18
420
        0
176
     1
 90
       50
176
     1
 90
        3
176
     1
 62
     5
420
      255
176
     1
290
     0
176
     1
 90
       50
176
     1
 90
       50
176
     1
 90
       50
176
     1
290
     0
176
     1
 90
       50
176
     1
 62
   256
176
     0
 40
1.0
176
     0
 90
        2
176
     1
  1
strokes_ogs.tif
176
     1
290
     0
176
     1
 40
1.0
176
     1
 40
1.0
176
     1
  0
VISUALSTYLE
  5
2D
102
{ACAD_REACTORS
330
2A
102
}
330
2A
100
AcDbVisualStyle
  2
Gouraud
 70
     2
177
     3
291
     1
 70
    58
 90
        2
176
     1
 90
        2
176
     1
 90
        1
176
     1
 90
        2
176
     1
 40
0.6
176
     1
 40
30.0
176
     1
 62
     7
420
 16777215
176
     1
 90
        0
176
     1
 90
        0
176
     1
 62
     7
176
     1
 62
   257
176
     1
 90
        1
176
     1
 90
        1
176
     1
 40
1.0
176
     1
 90
        0
176
     1
 62
     7
176
     1
 40
1.0
176
     1
 90
        1
176
     1
 90
        6
176
     1
 90
        2
176
     1
 62
     7
176
     1
 90
        5
176
     1
 90
        0
176
     1
 90
        0
176
     1
290
     0
176
     1
 90
       13
176
     1
 40
0.0
176
     1
 90
        0
176
     1
290
     0
176
     1
290
     1
176
     1
290
     1
176
     1
290
     0
176
     1
290
     0
176
     1
290
     0
176
     1
290
     0
176
     1
290
     0
176
     1
290
     0
176
     1
 90
       50
176
     1
 40
0.0
176
     1
 40
1.0
176
     1
 90
        0
176
     1
 62
    18
420
        0
176
     1
 90
       50
176
     1
 90
        3
176
     1
 62
     5
420
      255
176
     1
290
     0
176
     1
 90
       50
176
     1
 90
       50
176
     1
 90
       50
176
     1
290
     0
176
     1
 90
       50
176
     1
 62
   256
176
     0
 40
1.0
176
     0
 90
        2
176
     1
  1
strokes_ogs.tif
176
     1
290
     0
176
     1
 40
1.0
176
     1
 40
1.0
176
     1
  0
VISUALSTYLE
  5
2E
102
{ACAD_REACTORS
330
2A
102
}
330
2A
100
AcDbVisualStyle
  2
GouraudWithEdges
 70
     3
177
     3
291
     1
 70
    58
 90
        2
176
     1
 90
        2
176
     1
 90
        1
176
     1
 90
        2
176
     1
 40
0.6
176
     1
 40
30.0
176
     1
 62
     7
420
 16777215
176
     1
 90
        1
176
     1
 90
        0
176
     1
 62
     7
176
     1
 62
   257
176
     1
 90
        1
176
     1
 90
        1
176
     1
 40
1.0
176
     1
 90
        0
176
     1
 62
   257
176
     1
 40
1.0
176
     1
 90
        1
176
     1
 90
        6
176
     1
 90
        2
176
     1
 62
     7
176
     1
 90
        5
176
     1
 90
        0
176
     1
 90
        0
176
     1
290
     0
176
     1
 90
       13
176
     1
 40
0.0
176
     1
 90
        0
176
     1
290
     0
176
     1
290
     1
176
     1
290
     1
176
     1
290
     0
176
     1
290
     0
176
     1
290
     0
176
     1
290
     0
176
     1
290
     0
176
     1
290
     0
176
     1
 90
       50
176
     1
 40
0.0
176
     1
 40
1.0
176
     1
 90
        0
176
     1
 62
    18
420
        0
176
     1
 90
       50
176
     1
 90
        3
176
     1
 62
     5
420
      255
176
     1
290
     0
176
     1
 90
       50
176
     1
 90
       50
176
     1
 90
       50
176
     1
290
     0
176
     1
 90
       50
176
     1
 62
   256
176
     0
 40
1.0
176
     0
 90
        2
176
     1
  1
strokes_ogs.tif
176
     1
290
     0
176
     1
 40
1.0
176
     1
 40
1.0
176
     1
  0
VISUALSTYLE
  5
31
102
{ACAD_REACTORS
330
2A
102
}
330
2A
100
AcDbVisualStyle
  2
Hidden
 70
     6
177
     3
291
     0
 70
    58
 90
        1
176
     1
 90
        2
176
     1
 90
        2
176
     1
 90
        0
176
     1
 40
0.6
176
     1
 40
30.0
176
     1
 62
     7
420
 16777215
176
     1
 90
        2
176
     1
 90
        2
176
     1
 62
     7
176
     1
 62
   257
176
     1
 90
        2
176
     1
 90
        1
176
     1
 40
40.0
176
     1
 90
        0
176
     1
 62
   257
176
     1
 40
1.0
176
     1
 90
        1
176
     1
 90
        6
176
     1
 90
        2
176
     1
 62
     7
176
     1
 90
        3
176
     1
 90
        0
176
     1
 90
        0
176
     1
290
     0
176
     1
 90
        1
176
     1
 40
0.0
176
     1
 90
        0
176
     1
290
     0
176
     1
290
     1
176
     1
290
     1
176
     1
290
     0
176
     1
290
     0
176
     1
290
     0
176
     1
290
     0
176
     1
290
     0
176
     1
290
     0
176
     1
 90
       50
176
     1
 40
0.0
176
     1
 40
1.0
176
     1
 90
        0
176
     1
 62
    18
420
        0
176
     1
 90
       50
176
     1
 90
        3
176
     1
 62
     5
420
      255
176
     1
290
     0
176
     1
 90
       50
176
     1
 90
       50
176
     1
 90
       50
176
     1
290
     0
176
     1
 90
       50
176
     1
 62
   256
176
     0
 40
1.0
176
     0
 90
        2
176
     1
  1
strokes_ogs.tif
176
     1
290
     0
176
     1
 40
1.0
176
     1
 40
1.0
176
     1
  0
VISUALSTYLE
  5
3B
102
{ACAD_REACTORS
330
2A
102
}
330
2A
100
AcDbVisualStyle
  2
JitterOff
 70
    20
177
     3
291
     1
 70
    58
 90
        2
176
     0
 90
        2
176
     0
 90
        0
176
     0
 90
        0
176
     0
 40
0.6
176
     0
 40
30.0
176
     0
 62
     7
420
 16777215
176
     0
 90
        1
176
     0
 90
        4
176
     0
 62
     7
176
     0
 62
   257
176
     0
 90
        1
176
     0
 90
        1
176
     0
 40
1.0
176
     0
 90
       10
176
     2
 62
     7
176
     0
 40
1.0
176
     0
 90
        1
176
     0
 90
        6
176
     0
 90
        2
176
     0
 62
     7
176
     0
 90
        5
176
     0
 90
        0
176
     0
 90
        0
176
     0
290
     0
176
     0
 90
        1
176
     0
 40
0.0
176
     0
 90
        0
176
     0
290
     0
176
     0
290
     1
176
     0
290
     1
176
     0
290
     0
176
     0
290
     0
176
     0
290
     0
176
     0
290
     0
176
     0
290
     0
176
     0
290
     0
176
     0
 90
       50
176
     0
 40
0.0
176
     0
 40
1.0
176
     0
 90
        0
176
     0
 62
    18
420
        0
176
     0
 90
       50
176
     0
 90
        3
176
     0
 62
     5
420
      255
176
     0
290
     0
176
     0
 90
       50
176
     0
 90
       50
176
     0
 90
       50
176
     0
290
     0
176
     0
 90
       50
176
     0
 62
   256
176
     0
 40
1.0
176
     0
 90
        2
176
     0
  1
strokes_ogs.tif
176
     0
290
     0
176
     0
 40
1.0
176
     0
 40
1.0
176
     0
  0
VISUALSTYLE
  5
38
102
{ACAD_REACTORS
330
2A
102
}
330
2A
100
AcDbVisualStyle
  2
Linepattern
 70
    14
177
     3
291
     1
 70
    58
 90
        2
176
     1
 90
        2
176
     1
 90
        0
176
     1
 90
        0
176
     1
 40
0.6
176
     1
 40
30.0
176
     1
 62
     7
420
 16777215
176
     1
 90
        1
176
     1
 90
        4
176
     1
 62
     7
176
     1
 62
   257
176
     1
 90
        7
176
     1
 90
        7
176
     1
 40
1.0
176
     1
 90
        8
176
     1
 62
     7
176
     1
 40
1.0
176
     1
 90
        1
176
     1
 90
        6
176
     1
 90
        2
176
     1
 62
     7
176
     1
 90
        5
176
     1
 90
        0
176
     1
 90
        0
176
     1
290
     0
176
     1
 90
        1
176
     1
 40
0.0
176
     1
 90
        0
176
     1
290
     0
176
     1
290
     1
176
     1
290
     1
176
     1
290
     0
176
     1
290
     0
176
     1
290
     0
176
     1
290
     0
176
     1
290
     0
176
     1
290
     0
176
     1
 90
       50
176
     1
 40
0.0
176
     1
 40
1.0
176
     1
 90
        0
176
     1
 62
    18
420
        0
176
     1
 90
       50
176
     1
 90
        3
176
     1
 62
     5
420
      255
176
     1
290
     0
176
     1
 90
       50
176
     1
 90
       50
176
     1
 90
       50
176
     1
290
     0
176
     1
 90
       50
176
     1
 62
   256
176
     0
 40
1.0
176
     0
 90
        2
176
     1
  1
strokes_ogs.tif
176
     1
290
     0
176
     1
 40
1.0
176
     1
 40
1.0
176
     1
  0
VISUALSTYLE
  5
3C
102
{ACAD_REACTORS
330
2A
102
}
330
2A
100
AcDbVisualStyle
  2
OverhangOff
 70
    21
177
     3
291
     1
 70
    58
 90
        2
176
     0
 90
        2
176
     0
 90
        0
176
     0
 90
        0
176
     0
 40
0.6
176
     0
 40
30.0
176
     0
 62
     7
420
 16777215
176
     0
 90
        1
176
     0
 90
        4
176
     0
 62
     7
176
     0
 62
   257
176
     0
 90
        1
176
     0
 90
        1
176
     0
 40
1.0
176
     0
 90
        9
176
     2
 62
     7
176
     0
 40
1.0
176
     0
 90
        1
176
     0
 90
        6
176
     0
 90
        2
176
     0
 62
     7
176
     0
 90
        5
176
     0
 90
        0
176
     0
 90
        0
176
     0
290
     0
176
     0
 90
        1
176
     0
 40
0.0
176
     0
 90
        0
176
     0
290
     0
176
     0
290
     1
176
     0
290
     1
176
     0
290
     0
176
     0
290
     0
176
     0
290
     0
176
     0
290
     0
176
     0
290
     0
176
     0
290
     0
176
     0
 90
       50
176
     0
 40
0.0
176
     0
 40
1.0
176
     0
 90
        0
176
     0
 62
    18
420
        0
176
     0
 90
       50
176
     0
 90
        3
176
     0
 62
     5
420
      255
176
     0
290
     0
176
     0
 90
       50
176
     0
 90
       50
176
     0
 90
       50
176
     0
290
     0
176
     0
 90
       50
176
     0
 62
   256
176
     0
 40
1.0
176
     0
 90
        2
176
     0
  1
strokes_ogs.tif
176
     0
290
     0
176
     0
 40
1.0
176
     0
 40
1.0
176
     0
  0
VISUALSTYLE
  5
33
102
{ACAD_REACTORS
330
2A
102
}
330
2A
100
AcDbVisualStyle
  2
Realistic
 70
     8
177
     3
291
     0
 70
    58
 90
        2
176
     1
 90
        3
176
     1
 90
        0
176
     1
 90
        2
176
     1
 40
0.6
176
     1
 40
30.0
176
     1
 62
     7
420
 16777215
176
     1
 90
        0
176
     1
 90
        0
176
     1
 62
     7
176
     1
 62
   257
176
     1
 90
        1
176
     1
 90
        1
176
     1
 40
1.0
176
     1
 90
        8
176
     1
 62
   257
176
     1
 40
1.0
176
     1
 90
        1
176
     1
 90
        6
176
     1
 90
        2
176
     1
 62
     7
176
     1
 90
        3
176
     1
 90
        0
176
     1
 90
        0
176
     1
290
     0
176
     1
 90
       13
176
     1
 40
0.0
176
     1
 90
        0
176
     1
290
     0
176
     1
290
     1
176
     1
290
     1
176
     1
290
     0
176
     1
290
     0
176
     1
290
     0
176
     1
290
     0
176
     1
290
     0
176
     1
290
     0
176
     1
 90
       50
176
     1
 40
0.0
176
     1
 40
1.0
176
     1
 90
        0
176
     1
 62
    18
420
        0
176
     1
 90
       50
176
     1
 90
        3
176
     1
 62
     5
420
      255
176
     1
290
     0
176
     1
 90
       50
176
     1
 90
       50
176
     1
 90
       50
176
     1
290
     0
176
     1
 90
       50
176
     1
 62
   256
176
     0
 40
1.0
176
     0
 90
        2
176
     1
  1
strokes_ogs.tif
176
     1
290
     0
176
     1
 40
1.0
176
     1
 40
1.0
176
     1
  0
VISUALSTYLE
  5
42
102
{ACAD_REACTORS
330
2A
102
}
330
2A
100
AcDbVisualStyle
  2
Shaded
 70
    27
177
     3
291
     0
 70
    58
 90
        2
176
     1
 90
        2
176
     1
 90
        1
176
     1
 90
        2
176
     1
 40
0.6
176
     1
 40
30.0
176
     1
 62
     7
420
 16777215
176
     1
 90
        0
176
     1
 90
        4
176
     1
 62
     7
176
     1
 62
   257
176
     1
 90
        1
176
     1
 90
        1
176
     1
 40
1.0
176
     1
 90
        8
176
     1
 62
   257
176
     1
 40
1.0
176
     1
 90
        1
176
     1
 90
        6
176
     1
 90
        2
176
     1
 62
     8
420
  7895160
176
     1
 90
        3
176
     1
 90
        0
176
     1
 90
        0
176
     1
290
     0
176
     1
 90
        5
176
     1
 40
0.0
176
     1
 90
        0
176
     1
290
     0
176
     1
290
     1
176
     1
290
     1
176
     1
290
     0
176
     1
290
     0
176
     1
290
     0
176
     1
290
     0
176
     1
290
     0
176
     1
290
     0
176
     1
 90
       50
176
     1
 40
0.0
176
     1
 40
1.0
176
     1
 90
        0
176
     1
 62
    18
420
        0
176
     1
 90
       50
176
     1
 90
        3
176
     1
 62
     5
420
      255
176
     1
290
     0
176
     1
 90
       50
176
     1
 90
       50
176
     1
 90
       50
176
     1
290
     0
176
     1
 90
       50
176
     1
 62
   256
176
     0
 40
1.0
176
     0
 90
        2
176
     1
  1
strokes_ogs.tif
176
     1
290
     0
176
     1
 40
1.0
176
     1
 40
1.0
176
     1
  0
VISUALSTYLE
  5
41
102
{ACAD_REACTORS
330
2A
102
}
330
2A
100
AcDbVisualStyle
  2
Shaded with edges
 70
    26
177
     3
291
     0
 70
    58
 90
        2
176
     1
 90
        2
176
     1
 90
        1
176
     1
 90
        2
176
     1
 40
0.6
176
     1
 40
30.0
176
     1
 62
     7
420
 16777215
176
     1
 90
        1
176
     1
 90
       10
176
     1
 62
     7
176
     1
 62
   257
176
     1
 90
        2
176
     1
 90
        1
176
     1
 40
1.0
176
     1
 90
        8
176
     1
 62
   257
176
     1
 40
1.0
176
     1
 90
        1
176
     1
 90
        6
176
     1
 90
        2
176
     1
 62
     7
176
     1
 90
        3
176
     1
 90
        0
176
     1
 90
        0
176
     1
290
     0
176
     1
 90
        5
176
     1
 40
0.0
176
     1
 90
        0
176
     1
290
     0
176
     1
290
     1
176
     1
290
     1
176
     1
290
     0
176
     1
290
     0
176
     1
290
     0
176
     1
290
     0
176
     1
290
     0
176
     1
290
     0
176
     1
 90
       50
176
     1
 40
0.0
176
     1
 40
1.0
176
     1
 90
        0
176
     1
 62
    18
420
        0
176
     1
 90
       50
176
     1
 90
        3
176
     1
 62
     5
420
      255
176
     1
290
     0
176
     1
 90
       50
176
     1
 90
       50
176
     1
 90
       50
176
     1
290
     0
176
     1
 90
       50
176
     1
 62
   256
176
     0
 40
1.0
176
     0
 90
        2
176
     1
  1
strokes_ogs.tif
176
     1
290
     0
176
     1
 40
1.0
176
     1
 40
1.0
176
     1
  0
VISUALSTYLE
  5
3E
102
{ACAD_REACTORS
330
2A
102
}
330
2A
100
AcDbVisualStyle
  2
Shades of Gray
 70
    23
177
     3
291
     0
 70
    58
 90
        2
176
     1
 90
        2
176
     1
 90
        3
176
     1
 90
        0
176
     1
 40
0.6
176
     1
 40
30.0
176
     1
 62
     7
420
 16777215
176
     1
 90
        2
176
     1
 90
        2
176
     1
 62
     7
176
     1
 62
     7
176
     1
 90
        1
176
     1
 90
        1
176
     1
 40
40.0
176
     1
 90
        8
176
     1
 62
     7
176
     1
 40
1.0
176
     1
 90
        1
176
     1
 90
        6
176
     1
 90
        2
176
     1
 62
     7
176
     1
 90
        3
176
     1
 90
        0
176
     1
 90
        0
176
     1
290
     0
176
     1
 90
        1
176
     1
 40
0.0
176
     1
 90
        0
176
     1
290
     0
176
     1
290
     1
176
     1
290
     1
176
     1
290
     0
176
     1
290
     0
176
     1
290
     0
176
     1
290
     0
176
     1
290
     0
176
     1
290
     0
176
     1
 90
       50
176
     1
 40
0.0
176
     1
 40
1.0
176
     1
 90
        0
176
     1
 62
    18
420
        0
176
     1
 90
       50
176
     1
 90
        3
176
     1
 62
     5
420
      255
176
     1
290
     0
176
     1
 90
       50
176
     1
 90
       50
176
     1
 90
       50
176
     1
290
     0
176
     1
 90
       50
176
     1
 62
   256
176
     0
 40
1.0
176
     0
 90
        2
176
     1
  1
strokes_ogs.tif
176
     1
290
     0
176
     1
 40
1.0
176
     1
 40
1.0
176
     1
  0
VISUALSTYLE
  5
3F
102
{ACAD_REACTORS
330
2A
102
}
330
2A
100
AcDbVisualStyle
  2
Sketchy
 70
    24
177
     3
291
     0
 70
    58
 90
        1
176
     1
 90
        2
176
     1
 90
        2
176
     1
 90
        0
176
     1
 40
0.6
176
     1
 40
30.0
176
     1
 62
     7
420
 16777215
176
     1
 90
        2
176
     1
 90
        2
176
     1
 62
     7
176
     1
 62
     7
176
     1
 90
        1
176
     1
 90
        1
176
     1
 40
40.0
176
     1
 90
       11
176
     1
 62
     7
176
     1
 40
1.0
176
     1
 90
        1
176
     1
 90
        6
176
     1
 90
        2
176
     1
 62
     7
176
     1
 90
        6
176
     1
 90
        0
176
     1
 90
        0
176
     1
290
     0
176
     1
 90
        1
176
     1
 40
0.0
176
     1
 90
        0
176
     1
290
     0
176
     1
290
     1
176
     1
290
     1
176
     1
290
     0
176
     1
290
     0
176
     1
290
     0
176
     1
290
     0
176
     1
290
     0
176
     1
290
     0
176
     1
 90
       50
176
     1
 40
0.0
176
     1
 40
1.0
176
     1
 90
        0
176
     1
 62
    18
420
        0
176
     1
 90
       50
176
     1
 90
        3
176
     1
 62
     5
420
      255
176
     1
290
     0
176
     1
 90
       50
176
     1
 90
       50
176
     1
 90
       50
176
     1
290
     0
176
     1
 90
       50
176
     1
 62
   256
176
     0
 40
1.0
176
     0
 90
        2
176
     1
  1
strokes_ogs.tif
176
     1
290
     0
176
     1
 40
1.0
176
     1
 40
1.0
176
     1
  0
VISUALSTYLE
  5
37
102
{ACAD_REACTORS
330
2A
102
}
330
2A
100
AcDbVisualStyle
  2
Thicken
 70
    13
177
     3
291
     1
 70
    58
 90
        2
176
     1
 90
        2
176
     1
 90
        0
176
     1
 90
        0
176
     1
 40
0.6
176
     1
 40
30.0
176
     1
 62
     7
420
 16777215
176
     1
 90
        1
176
     1
 90
        4
176
     1
 62
     7
176
     1
 62
   257
176
     1
 90
        1
176
     1
 90
        1
176
     1
 40
1.0
176
     1
 90
       12
176
     1
 62
     7
176
     1
 40
1.0
176
     1
 90
        1
176
     1
 90
        6
176
     1
 90
        2
176
     1
 62
     7
176
     1
 90
        5
176
     1
 90
        0
176
     1
 90
        0
176
     1
290
     0
176
     1
 90
        1
176
     1
 40
0.0
176
     1
 90
        0
176
     1
290
     0
176
     1
290
     1
176
     1
290
     1
176
     1
290
     0
176
     1
290
     0
176
     1
290
     0
176
     1
290
     0
176
     1
290
     0
176
     1
290
     0
176
     1
 90
       50
176
     1
 40
0.0
176
     1
 40
1.0
176
     1
 90
        0
176
     1
 62
    18
420
        0
176
     1
 90
       50
176
     1
 90
        3
176
     1
 62
     5
420
      255
176
     1
290
     0
176
     1
 90
       50
176
     1
 90
       50
176
     1
 90
       50
176
     1
290
     0
176
     1
 90
       50
176
     1
 62
   256
176
     0
 40
1.0
176
     0
 90
        2
176
     1
  1
strokes_ogs.tif
176
     1
290
     0
176
     1
 40
1.0
176
     1
 40
1.0
176
     1
  0
VISUALSTYLE
  5
30
102
{ACAD_REACTORS
330
2A
102
}
330
2A
100
AcDbVisualStyle
  2
Wireframe
 70
     5
177
     3
291
     0
 70
    58
 90
        0
176
     1
 90
        2
176
     1
 90
        0
176
     1
 90
        0
176
     1
 40
0.6
176
     1
 40
30.0
176
     1
 62
     7
420
 16777215
176
     1
 90
        1
176
     1
 90
        4
176
     1
 62
     7
176
     1
 62
   257
176
     1
 90
        1
176
     1
 90
        1
176
     1
 40
1.0
176
     1
 90
        0
176
     1
 62
   257
176
     1
 40
1.0
176
     1
 90
        1
176
     1
 90
        6
176
     1
 90
        2
176
     1
 62
     7
176
     1
 90
        3
176
     1
 90
        0
176
     1
 90
        0
176
     1
290
     0
176
     1
 90
        1
176
     1
 40
0.0
176
     1
 90
        0
176
     1
290
     0
176
     1
290
     1
176
     1
290
     1
176
     1
290
     0
176
     1
290
     0
176
     1
290
     0
176
     1
290
     0
176
     1
290
     0
176
     1
290
     0
176
     1
 90
       50
176
     1
 40
0.0
176
     1
 40
1.0
176
     1
 90
        0
176
     1
 62
    18
420
        0
176
     1
 90
       50
176
     1
 90
        3
176
     1
 62
     5
420
      255
176
     1
290
     0
176
     1
 90
       50
176
     1
 90
       50
176
     1
 90
       50
176
     1
290
     0
176
     1
 90
       50
176
     1
 62
   256
176
     0
 40
1.0
176
     0
 90
        2
176
     1
  1
strokes_ogs.tif
176
     1
290
     0
176
     1
 40
1.0
176
     1
 40
1.0
176
     1
  0
VISUALSTYLE
  5
40
102
{ACAD_REACTORS
330
2A
102
}
330
2A
100
AcDbVisualStyle
  2
X-Ray
 70
    25
177
     3
291
     0
 70
    58
 90
        2
176
     1
 90
        2
176
     1
 90
        1
176
     1
 90
        1
176
     1
 40
0.5
176
     1
 40
30.0
176
     1
 62
     7
420
 16777215
176
     1
 90
        1
176
     1
 90
        0
176
     1
 62
     7
176
     1
 62
   257
176
     1
 90
        1
176
     1
 90
        1
176
     1
 40
1.0
176
     1
 90
        8
176
     1
 62
     7
176
     1
 40
1.0
176
     1
 90
        1
176
     1
 90
        6
176
     1
 90
        2
176
     1
 62
     7
176
     1
 90
        3
176
     1
 90
        0
176
     1
 90
        0
176
     1
290
     0
176
     1
 90
       13
176
     1
 40
0.0
176
     1
 90
        0
176
     1
290
     0
176
     1
290
     1
176
     1
290
     1
176
     1
290
     0
176
     1
290
     0
176
     1
290
     0
176
     1
290
     0
176
     1
290
     0
176
     1
290
     0
176
     1
 90
       50
176
     1
 40
0.0
176
     1
 40
1.0
176
     1
 90
        0
176
     1
 62
    18
420
        0
176
     1
 90
       50
176
     1
 90
        3
176
     1
 62
     5
420
      255
176
     1
290
     0
176
     1
 90
       50
176
     1
 90
       50
176
     1
 90
       50
176
     1
290
     0
176
     1
 90
       50
176
     1
 62
   256
176
     0
 40
1.0
176
     0
 90
        2
176
     1
  1
strokes_ogs.tif
176
     1
290
     0
176
     1
 40
1.0
176
     1
 40
1.0
176
     1
  0
DICTIONARYVAR
  5
175
102
{ACAD_REACTORS
330
174
102
}
330
174
100
DictionaryVariables
280
     0
  1
1:1
  0
DICTIONARYVAR
  5
17A
102
{ACAD_REACTORS
330
174
102
}
330
174
100
DictionaryVariables
280
     0
  1
Standard
  0
DICTIONARYVAR
  5
179
102
{ACAD_REACTORS
330
174
102
}
330
174
100
DictionaryVariables
280
     0
  1
Standard
  0
DICTIONARYVAR
  5
17D
102
{ACAD_REACTORS
330
174
102
}
330
174
100
DictionaryVariables
280
     0
  1
6.000000
  0
DICTIONARY
  5
176
330
6A
100
AcDbDictionary
280
     1
281
     1
  3
ACAD_ROUNDTRIP_2008_TABLESTYLE_CELLSTYLEMAP
360
177
  0
CELLSTYLEMAP
  5
177
102
{ACAD_REACTORS
330
176
102
}
330
176
100
AcDbCellStyleMap
 90
        3
300
CELLSTYLE
  1
TABLEFORMAT_BEGIN
 90
        5
170
     1
 91
        0
 92
    32768
 62
   257
 93
        1
300
CONTENTFORMAT
  1
CONTENTFORMAT_BEGIN
 90
        0
 91
        0
 92
        4
 93
        0
300

 40
0.0
140
1.0
 94
        5
 62
     0
340
11
144
6.0
309
CONTENTFORMAT_END
171
     1
301
MARGIN
  1
CELLMARGIN_BEGIN
 40
1.5
 40
1.5
 40
1.5
 40
1.5
 40
1.5
 40
1.5
309
CELLMARGIN_END
 94
        6
 95
        1
302
GRIDFORMAT
  1
GRIDFORMAT_BEGIN
 90
        0
 91
        1
 62
     0
 92
       -2
340
14
 93
        0
 40
0.045
309
GRIDFORMAT_END
 95
        2
302
GRIDFORMAT
  1
GRIDFORMAT_BEGIN
 90
        0
 91
        1
 62
     0
 92
       -2
340
14
 93
        0
 40
0.045
309
GRIDFORMAT_END
 95
        4
302
GRIDFORMAT
  1
GRIDFORMAT_BEGIN
 90
        0
 91
        1
 62
     0
 92
       -2
340
14
 93
        0
 40
0.045
309
GRIDFORMAT_END
 95
        8
302
GRIDFORMAT
  1
GRIDFORMAT_BEGIN
 90
        0
 91
        1
 62
     0
 92
       -2
340
14
 93
        0
 40
0.045
309
GRIDFORMAT_END
 95
       16
302
GRIDFORMAT
  1
GRIDFORMAT_BEGIN
 90
        0
 91
        1
 62
     0
 92
       -2
340
14
 93
        0
 40
0.045
309
GRIDFORMAT_END
 95
       32
302
GRIDFORMAT
  1
GRIDFORMAT_BEGIN
 90
        0
 91
        1
 62
     0
 92
       -2
340
14
 93
        0
 40
0.045
309
GRIDFORMAT_END
309
TABLEFORMAT_END
  1
CELLSTYLE_BEGIN
 90
        1
 91
        1
300
_TITLE
309
CELLSTYLE_END
300
CELLSTYLE
  1
TABLEFORMAT_BEGIN
 90
        5
170
     1
 91
        0
 92
        0
 62
   257
 93
        1
300
CONTENTFORMAT
  1
CONTENTFORMAT_BEGIN
 90
        0
 91
        0
 92
        4
 93
        0
300

 40
0.0
140
1.0
 94
        5
 62
     0
340
11
144
4.5
309
CONTENTFORMAT_END
171
     1
301
MARGIN
  1
CELLMARGIN_BEGIN
 40
1.5
 40
1.5
 40
1.5
 40
1.5
 40
1.5
 40
1.5
309
CELLMARGIN_END
 94
        6
 95
        1
302
GRIDFORMAT
  1
GRIDFORMAT_BEGIN
 90
        0
 91
        1
 62
     0
 92
       -2
340
14
 93
        0
 40
0.045
309
GRIDFORMAT_END
 95
        2
302
GRIDFORMAT
  1
GRIDFORMAT_BEGIN
 90
        0
 91
        1
 62
     0
 92
       -2
340
14
 93
        0
 40
0.045
309
GRIDFORMAT_END
 95
        4
302
GRIDFORMAT
  1
GRIDFORMAT_BEGIN
 90
        0
 91
        1
 62
     0
 92
       -2
340
14
 93
        0
 40
0.045
309
GRIDFORMAT_END
 95
        8
302
GRIDFORMAT
  1
GRIDFORMAT_BEGIN
 90
        0
 91
        1
 62
     0
 92
       -2
340
14
 93
        0
 40
0.045
309
GRIDFORMAT_END
 95
       16
302
GRIDFORMAT
  1
GRIDFORMAT_BEGIN
 90
        0
 91
        1
 62
     0
 92
       -2
340
14
 93
        0
 40
0.045
309
GRIDFORMAT_END
 95
       32
302
GRIDFORMAT
  1
GRIDFORMAT_BEGIN
 90
        0
 91
        1
 62
     0
 92
       -2
340
14
 93
        0
 40
0.045
309
GRIDFORMAT_END
309
TABLEFORMAT_END
  1
CELLSTYLE_BEGIN
 90
        2
 91
        1
300
_HEADER
309
CELLSTYLE_END
300
CELLSTYLE
  1
TABLEFORMAT_BEGIN
 90
        5
170
     1
 91
        0
 92
        0
 62
   257
 93
        1
300
CONTENTFORMAT
  1
CONTENTFORMAT_BEGIN
 90
        0
 91
        0
 92
        4
 93
        0
300

 40
0.0
140
1.0
 94
        2
 62
     0
340
11
144
4.5
309
CONTENTFORMAT_END
171
     1
301
MARGIN
  1
CELLMARGIN_BEGIN
 40
1.5
 40
1.5
 40
1.5
 40
1.5
 40
1.5
 40
1.5
309
CELLMARGIN_END
 94
        6
 95
        1
302
GRIDFORMAT
  1
GRIDFORMAT_BEGIN
 90
        0
 91
        1
 62
     0
 92
       -2
340
14
 93
        0
 40
0.045
309
GRIDFORMAT_END
 95
        2
302
GRIDFORMAT
  1
GRIDFORMAT_BEGIN
 90
        0
 91
        1
 62
     0
 92
       -2
340
14
 93
        0
 40
0.045
309
GRIDFORMAT_END
 95
        4
302
GRIDFORMAT
  1
GRIDFORMAT_BEGIN
 90
        0
 91
        1
 62
     0
 92
       -2
340
14
 93
        0
 40
0.045
309
GRIDFORMAT_END
 95
        8
302
GRIDFORMAT
  1
GRIDFORMAT_BEGIN
 90
        0
 91
        1
 62
     0
 92
       -2
340
14
 93
        0
 40
0.045
309
GRIDFORMAT_END
 95
       16
302
GRIDFORMAT
  1
GRIDFORMAT_BEGIN
 90
        0
 91
        1
 62
     0
 92
       -2
340
14
 93
        0
 40
0.045
309
GRIDFORMAT_END
 95
       32
302
GRIDFORMAT
  1
GRIDFORMAT_BEGIN
 90
        0
 91
        1
 62
     0
 92
       -2
340
14
 93
        0
 40
0.045
309
GRIDFORMAT_END
309
TABLEFORMAT_END
  1
CELLSTYLE_BEGIN
 90
        3
 91
        2
300
_DATA
309
CELLSTYLE_END
  0
ENDSEC
  0
EOF
