0
SECTION
2
HEADER
9
$INSUNITS
70
4
9
$ACADVER
1
AC1014
9
$HANDSEED
5
FFFF
0
ENDSEC
0
SECTION
2
TABLES
0
TABLE
2
VPORT
5
8
100
AcDbSymbolTable
0
ENDTAB
0
TABLE
2
LTYPE
5
5
100
AcDbSymbolTable
0
LTYPE
5
14
100
AcDbSymbolTableRecord
100
AcDbLinetypeTableRecord
2
BYBLOCK
70
0
0
LTYPE
5
15
100
AcDbSymbolTableRecord
100
AcDbLinetypeTableRecord
2
BYLAYER
70
0
0
ENDTAB
0
TABLE
2
LAYER
5
2
100
AcDbSymbolTable
70
2
0
LAYER
5
50
100
AcDbSymbolTableRecord
100
AcDbLayerTableRecord
2
0
70
0
6
CONTINUOUS
0
ENDTAB
0
TABLE
2
STYLE
5
3
100
AcDbSymbolTable
70
1
0
STYLE
5
11
100
AcDbSymbolTableRecord
100
AcDbTextStyleTableRecord
2
STANDARD
70
0
0
ENDTAB
0
TABLE
2
VIEW
5
6
100
AcDbSymbolTable
70
0
0
ENDTAB
0
TABLE
2
UCS
5
7
100
AcDbSymbolTable
70
0
0
ENDTAB
0
TABLE
2
APPID
5
9
100
AcDbSymbolTable
70
2
0
APPID
5
12
100
AcDbSymbolTableRecord
100
AcDbRegAppTableRecord
2
ACAD
70
0
0
ENDTAB
0
TABLE
2
DIMSTYLE
5
A
100
AcDbSymbolTable
70
1
0
ENDTAB
0
TABLE
2
BLOCK_RECORD
5
1
100
AcDbSymbolTable
70
1
0
BLOCK_RECORD
5
1F
100
AcDbSymbolTableRecord
100
AcDbBlockTableRecord
2
*MODEL_SPACE
0
BLOCK_RECORD
5
1B
100
AcDbSymbolTableRecord
100
AcDbBlockTableRecord
2
*PAPER_SPACE
0
ENDTAB
0
ENDSEC
0
SECTION
2
BLOCKS
0
BLOCK
5
20
100
AcDbEntity
100
AcDbBlockBegin
2
*MODEL_SPACE
0
ENDBLK
5
21
100
AcDbEntity
100
AcDbBlockEnd
0
BLOCK
5
1C
100
AcDbEntity
100
AcDbBlockBegin
2
*PAPER_SPACE
0
ENDBLK
5
1D
100
AcDbEntity
100
AcDbBlockEnd
0
ENDSEC
0
SECTION
2
ENTITIES
0
LWPOLYLINE
5
100
100
AcDbEntity
8
0
100
AcDbPolyline
90
4
70
1
43
0.0
10
0
20
0
10
171.75
20
0
10
171.75
20
-549.5
10
0
20
-549.5
0
SPLINE
5
101
100
AcDbEntity
8
0
100
AcDbSpline
70
1064
71
3
72
14
73
10
74
0
42
0.000000001
43
0.0000000001
44
0.0000000001
40
0
40
0
40
0
40
0
40
0.42923085330374994
40
0.42923085330374994
40
0.42923085330374994
40
0.8834517669439883
40
0.8834517669439883
40
0.8834517669439883
40
1
40
1
40
1
40
1
10
25.899999999999999
20
-536.74999999980002
30
0
10
25.900000000040464
20
-535.92040040451218
30
0
10
26.181768560087804
20
-534.969744826632
30
0
10
26.781951816813212
20
-534.2094949536247
30
0
10
27.417078078411343
20
-533.40498290782375
30
0
10
28.384650369829281
20
-532.86754374486532
30
0
10
29.305394351611334
20
-532.70926702277654
30
0
10
29.54164741911903
20
-532.66865490708699
30
0
10
29.774740407800184
20
-532.64999999999998
30
0
10
30
20
-532.64999999999998
30
0
0
SPLINE
5
102
100
AcDbEntity
8
0
100
AcDbSpline
70
1064
71
3
72
14
73
10
74
0
42
0.000000001
43
0.0000000001
44
0.0000000001
40
0
40
0
40
0
40
0
40
0.42923085330168126
40
0.42923085330168126
40
0.42923085330168126
40
0.88345176694197647
40
0.88345176694197647
40
0.88345176694197647
40
1
40
1
40
1
40
1
10
30.0000000002
20
-532.64999999999998
30
0
10
30.829599595483881
20
-532.65000000004045
30
0
10
31.780255173358789
20
-532.93176856008461
30
0
10
32.540505046364387
20
-533.53195181680451
30
0
10
33.345017092167417
20
-534.16707807839987
30
0
10
33.88245625512976
20
-535.13465036981654
30
0
10
34.040732977221481
20
-536.05539435159915
30
0
10
34.081345092912407
20
-536.29164741911109
30
0
10
34.100000000000001
20
-536.52474040779634
30
0
10
34.100000000000001
20
-536.75
30
0
0
SPLINE
5
103
100
AcDbEntity
8
0
100
AcDbSpline
70
1064
71
3
72
14
73
10
74
0
42
0.000000001
43
0.0000000001
44
0.0000000001
40
0
40
0
40
0
40
0
40
0.42923085330309119
40
0.42923085330309119
40
0.42923085330309119
40
0.88345176694335503
40
0.88345176694335503
40
0.88345176694335503
40
1
40
1
40
1
40
1
10
34.100000000000001
20
-536.75000000019998
30
0
10
34.099999999959536
20
-537.57959959548668
30
0
10
33.818231439913156
20
-538.53025517336516
30
0
10
33.218048183189538
20
-539.290505046372
30
0
10
32.582921921592302
20
-540.09501709217363
30
0
10
31.615349630174734
20
-540.63245625513321
30
0
10
30.694605648392521
20
-540.79073297722277
30
0
10
30.458352580883492
20
-540.8313450929129
30
0
10
30.225259592201059
20
-540.85000000000014
30
0
10
30
20
-540.85000000000014
30
0
0
SPLINE
5
104
100
AcDbEntity
8
0
100
AcDbSpline
70
1064
71
3
72
14
73
10
74
0
42
0.000000001
43
0.0000000001
44
0.0000000001
40
0
40
0
40
0
40
0
40
0.42923085329982347
40
0.42923085329982347
40
0.42923085329982347
40
0.88345176694022876
40
0.88345176694022876
40
0.88345176694022876
40
1
40
1
40
1
40
1
10
29.9999999998
20
-540.85000000000014
30
0
10
29.170400404519707
20
-540.84999999995966
30
0
10
28.219744826649489
20
-540.56823143991812
30
0
10
27.459494953645489
20
-539.96804818320345
30
0
10
26.65498290784047
20
-539.33292192161048
30
0
10
26.117543744874645
20
-538.36534963019471
30
0
10
25.959267022780335
20
-537.44460564841154
30
0
10
25.918654907088126
20
-537.20835258089608
30
0
10
25.899999999999999
20
-536.97525959220707
30
0
10
25.899999999999999
20
-536.75
30
0
0
SPLINE
5
105
100
AcDbEntity
8
0
100
AcDbSpline
70
1064
71
3
72
14
73
10
74
0
42
0.000000001
43
0.0000000001
44
0.0000000001
40
0
40
0
40
0
40
0
40
0.42923085330182675
40
0.42923085330182675
40
0.42923085330182675
40
0.883451766942151
40
0.883451766942151
40
0.883451766942151
40
1
40
1
40
1
40
1
10
137.90000000000001
20
-536.74999999980002
30
0
10
137.90000000004048
20
-535.92040040451593
30
0
10
138.18176856008495
20
-534.96974482664064
30
0
10
138.78195181680513
20
-534.20949495363493
30
0
10
139.41707807840072
20
-533.40498290783194
30
0
10
140.38465036981756
20
-532.86754374486975
30
0
10
141.30539435160017
20
-532.70926702277825
30
0
10
141.54164741911168
20
-532.66865490708744
30
0
10
141.77474040779663
20
-532.64999999999998
30
0
10
142
20
-532.64999999999998
30
0
0
SPLINE
5
106
100
AcDbEntity
8
0
100
AcDbSpline
70
1064
71
3
72
14
73
10
74
0
42
0.000000001
43
0.0000000001
44
0.0000000001
40
0
40
0
40
0
40
0
40
0.4292308532995826
40
0.4292308532995826
40
0.4292308532995826
40
0.88345176693998884
40
0.88345176693998884
40
0.88345176693998884
40
1
40
1
40
1
40
1
10
142.0000000002
20
-532.64999999999998
30
0
10
142.82959959547983
20
-532.65000000004045
30
0
10
143.78025517334945
20
-532.93176856008154
30
0
10
144.54050504635322
20
-533.53195181679564
30
0
10
145.34501709215849
20
-534.16707807838827
30
0
10
145.88245625512474
20
-535.13465036980369
30
0
10
146.04073297721939
20
-536.05539435158687
30
0
10
146.08134509291179
20
-536.2916474191029
30
0
10
146.09999999999999
20
-536.52474040779248
30
0
10
146.09999999999999
20
-536.75
30
0
0
SPLINE
5
107
100
AcDbEntity
8
0
100
AcDbSpline
70
1064
71
3
72
14
73
10
74
0
42
0.000000001
43
0.0000000001
44
0.0000000001
40
0
40
0
40
0
40
0
40
0.42923085330294569
40
0.42923085330294569
40
0.42923085330294569
40
0.88345176694321048
40
0.88345176694321048
40
0.88345176694321048
40
1
40
1
40
1
40
1
10
146.09999999999999
20
-536.75000000019998
30
0
10
146.09999999995952
20
-537.57959959548634
30
0
10
145.81823143991335
20
-538.53025517336437
30
0
10
145.21804818319015
20
-539.29050504637109
30
0
10
144.58292192159311
20
-540.09501709217284
30
0
10
143.61534963017567
20
-540.63245625513287
30
0
10
142.69460564839341
20
-540.79073297722266
30
0
10
142.45835258088411
20
-540.83134509291278
30
0
10
142.22525959220135
20
-540.85000000000014
30
0
10
142.00000000000003
20
-540.85000000000014
30
0
0
SPLINE
5
108
100
AcDbEntity
8
0
100
AcDbSpline
70
1064
71
3
72
14
73
10
74
0
42
0.000000001
43
0.0000000001
44
0.0000000001
40
0
40
0
40
0
40
0
40
0.42923085330378885
40
0.42923085330378885
40
0.42923085330378885
40
0.88345176694400185
40
0.88345176694400185
40
0.88345176694400185
40
1
40
1
40
1
40
1
10
141.99999999980002
20
-540.85000000000014
30
0
10
141.17040040451207
20
-540.84999999995966
30
0
10
140.21974482663182
20
-540.56823143991221
30
0
10
139.45949495362444
20
-539.96804818318674
30
0
10
138.65498290782361
20
-539.33292192158865
30
0
10
138.11754374486515
20
-538.36534963017061
30
0
10
137.95926702277643
20
-537.44460564838869
30
0
10
137.91865490708693
20
-537.20835258088096
30
0
10
137.90000000000001
20
-536.97525959219979
30
0
10
137.90000000000001
20
-536.75
30
0
0
SPLINE
5
109
100
AcDbEntity
8
0
100
AcDbSpline
70
1064
71
3
72
14
73
10
74
0
42
0.000000001
43
0.0000000001
44
0.0000000001
40
0
40
0
40
0
40
0
40
0.42923085330270139
40
0.42923085330270139
40
0.42923085330270139
40
0.88345176694296923
40
0.88345176694296923
40
0.88345176694296923
40
1
40
1
40
1
40
1
10
137.90000000000001
20
-12.749999999800004
30
0
10
137.90000000004048
20
-11.920400404514169
30
0
10
138.18176856008631
20
-10.969744826636649
30
0
10
138.78195181680883
20
-10.209494953630198
30
0
10
139.4170780784055
20
-9.4049829078281988
30
0
10
140.38465036982279
20
-8.8675437448677386
30
0
10
141.30539435160512
20
-8.7092670227774605
30
0
10
141.54164741911495
20
-8.6686549070872587
30
0
10
141.77474040779822
20
-8.6499999999999844
30
0
10
142
20
-8.6499999999999844
30
0
0
SPLINE
5
110
100
AcDbEntity
8
0
100
AcDbSpline
70
1064
71
3
72
14
73
10
74
0
42
0.000000001
43
0.0000000001
44
0.0000000001
40
0
40
0
40
0
40
0
40
0.42923085330310962
40
0.42923085330310962
40
0.42923085330310962
40
0.88345176694336769
40
0.88345176694336769
40
0.88345176694336769
40
1
40
1
40
1
40
1
10
142.0000000002
20
-8.6499999999999844
30
0
10
142.82959959548666
20
-8.6500000000404853
30
0
10
143.78025517336516
20
-8.9317685600868657
30
0
10
144.54050504637198
20
-9.5319518168105333
30
0
10
145.34501709217358
20
-10.167078078407776
30
0
10
145.88245625513329
20
-11.134650369825358
30
0
10
146.04073297722294
20
-12.055394351607553
30
0
10
146.08134509291287
20
-12.291647419116529
30
0
10
146.09999999999999
20
-12.52474040779898
30
0
10
146.09999999999999
20
-12.749999999999986
30
0
0
SPLINE
5
111
100
AcDbEntity
8
0
100
AcDbSpline
70
1064
71
3
72
14
73
10
74
0
42
0.000000001
43
0.0000000001
44
0.0000000001
40
0
40
0
40
0
40
0
40
0.42923085330306376
40
0.42923085330306376
40
0.42923085330306376
40
0.88345176694332705
40
0.88345176694332705
40
0.88345176694332705
40
1
40
1
40
1
40
1
10
146.09999999999999
20
-12.750000000200004
30
0
10
146.09999999995952
20
-13.579599595486549
30
0
10
145.81823143991315
20
-14.530255173364957
30
0
10
145.21804818318964
20
-15.290505046371727
30
0
10
144.58292192159243
20
-16.095017092173372
30
0
10
143.61534963017493
20
-16.632456255133157
30
0
10
142.6946056483927
20
-16.790732977222902
30
0
10
142.4583525808836
20
-16.831345092912855
30
0
10
142.2252595922011
20
-16.849999999999987
30
0
10
142
20
-16.849999999999987
30
0
0
SPLINE
5
112
100
AcDbEntity
8
0
100
AcDbSpline
70
1064
71
3
72
14
73
10
74
0
42
0.000000001
43
0.0000000001
44
0.0000000001
40
0
40
0
40
0
40
0
40
0.42923085330262706
40
0.42923085330262706
40
0.42923085330262706
40
0.88345176694290761
40
0.88345176694290761
40
0.88345176694290761
40
1
40
1
40
1
40
1
10
141.99999999980002
20
-16.849999999999987
30
0
10
141.17040040451431
20
-16.849999999959522
30
0
10
140.219744826637
20
-16.568231439913852
30
0
10
139.45949495363061
20
-15.968048183191499
30
0
10
138.6549829078285
20
-15.33292192159486
30
0
10
138.11754374486787
20
-14.365349630177597
30
0
10
137.95926702277754
20
-13.44460564839526
30
0
10
137.91865490708727
20
-13.20835258088529
30
0
10
137.90000000000001
20
-12.975259592201915
30
0
10
137.90000000000001
20
-12.749999999999986
30
0
0
SPLINE
5
113
100
AcDbEntity
8
0
100
AcDbSpline
70
1064
71
3
72
14
73
10
74
0
42
0.000000001
43
0.0000000001
44
0.0000000001
40
0
40
0
40
0
40
0
40
0.42923085330307836
40
0.42923085330307836
40
0.42923085330307836
40
0.8834517669433386
40
0.8834517669433386
40
0.8834517669433386
40
1
40
1
40
1
40
1
10
25.899999999999999
20
-12.749999999800004
30
0
10
25.900000000040464
20
-11.920400404513423
30
0
10
26.181768560086844
20
-10.96974482663498
30
0
10
26.781951816810405
20
-10.209494953628209
30
0
10
27.417078078407613
20
-9.4049829078266001
30
0
10
28.38465036982516
20
-8.8675437448668148
30
0
10
29.305394351607372
20
-8.7092670227771052
30
0
10
29.541647419116401
20
-8.6686549070871166
30
0
10
29.774740407798923
20
-8.6499999999999844
30
0
10
30
20
-8.6499999999999844
30
0
0
SPLINE
5
114
100
AcDbEntity
8
0
100
AcDbSpline
70
1064
71
3
72
14
73
10
74
0
42
0.000000001
43
0.0000000001
44
0.0000000001
40
0
40
0
40
0
40
0
40
0.42923085330242844
40
0.42923085330242844
40
0.42923085330242844
40
0.88345176694271732
40
0.88345176694271732
40
0.88345176694271732
40
1
40
1
40
1
40
1
10
30.0000000002
20
-8.6499999999999844
30
0
10
30.82959959548532
20
-8.6500000000404853
30
0
10
31.780255173362146
20
-8.9317685600858709
30
0
10
32.540505046368381
20
-9.5319518168076911
30
0
10
33.345017092170664
20
-10.167078078404046
30
0
10
33.882456255131643
20
-11.134650369821202
30
0
10
34.040732977222262
20
-12.05539435160361
30
0
10
34.081345092912656
20
-12.291647419113936
30
0
10
34.100000000000001
20
-12.524740407797736
30
0
10
34.100000000000001
20
-12.749999999999986
30
0
0
SPLINE
5
115
100
AcDbEntity
8
0
100
AcDbSpline
70
1064
71
3
72
14
73
10
74
0
42
0.000000001
43
0.0000000001
44
0.0000000001
40
0
40
0
40
0
40
0
40
0.42923085330293947
40
0.42923085330293947
40
0.42923085330293947
40
0.88345176694320537
40
0.88345176694320537
40
0.88345176694320537
40
1
40
1
40
1
40
1
10
34.100000000000001
20
-12.750000000200004
30
0
10
34.099999999959536
20
-13.5795995954863
30
0
10
33.818231439913369
20
-14.530255173364424
30
0
10
33.218048183190163
20
-15.290505046371052
30
0
10
32.582921921593154
20
-16.095017092172839
30
0
10
31.615349630175693
20
-16.632456255132873
30
0
10
30.694605648393427
20
-16.79073297722276
30
0
10
30.458352580884096
20
-16.831345092912819
30
0
10
30.225259592201343
20
-16.849999999999987
30
0
10
30
20
-16.849999999999987
30
0
0
SPLINE
5
116
100
AcDbEntity
8
0
100
AcDbSpline
70
1064
71
3
72
14
73
10
74
0
42
0.000000001
43
0.0000000001
44
0.0000000001
40
0
40
0
40
0
40
0
40
0.4292308533026481
40
0.4292308533026481
40
0.4292308533026481
40
0.88345176694292726
40
0.88345176694292726
40
0.88345176694292726
40
1
40
1
40
1
40
1
10
29.9999999998
20
-16.849999999999987
30
0
10
29.170400404514254
20
-16.849999999959522
30
0
10
28.219744826636877
20
-16.568231439913816
30
0
10
27.459494953630461
20
-15.968048183191392
30
0
10
26.654982907828391
20
-15.332921921594753
30
0
10
26.117543744867824
20
-14.365349630177455
30
0
10
25.95926702277751
20
-13.444605648395118
30
0
10
25.918654907087255
20
-13.208352580885219
30
0
10
25.899999999999999
20
-12.97525959220188
30
0
10
25.899999999999999
20
-12.749999999999986
30
0
0
LWPOLYLINE
5
117
100
AcDbEntity
8
0
100
AcDbPolyline
90
4
70
1
43
0.0
10
171.75
20
-549.5
10
0
20
-549.5
10
0
20
0
10
171.75
20
0
0
CIRCLE
5
118
100
AcDbEntity
8
0
100
AcDbCircle
10
142
20
-12.749999999999986
30
0
40
4.1000000000000014
0
CIRCLE
5
119
100
AcDbEntity
8
0
100
AcDbCircle
10
30
20
-12.749999999999986
30
0
40
4.1000000000000014
0
CIRCLE
5
120
100
AcDbEntity
8
0
100
AcDbCircle
10
30
20
-536.75
30
0
40
4.1000000000000369
0
CIRCLE
5
121
100
AcDbEntity
8
0
100
AcDbCircle
10
142.00000000000003
20
-536.75
30
0
40
4.1000000000000369
0
ENDSEC
0
SECTION
2
OBJECTS
0
DICTIONARY
5
C
100
AcDbDictionary
3
ACAD_GROUP
350
D
3
ACAD_MLINESTYLE
350
17
0
DICTIONARY
5
D
100
AcDbDictionary
0
DICTIONARY
5
1A
330
C
100
AcDbDictionary
0
DICTIONARY
5
17
100
AcDbDictionary
0
ENDSEC
0
EOF
