0
SECTION
2
HEADER
9
$INSUNITS
70
4
9
$ACADVER
1
AC1014
9
$HANDSEED
5
FFFF
0
ENDSEC
0
SECTION
2
TABLES
0
TABLE
2
VPORT
5
8
100
AcDbSymbolTable
0
ENDTAB
0
TABLE
2
LTYPE
5
5
100
AcDbSymbolTable
0
LTYPE
5
14
100
AcDbSymbolTableRecord
100
AcDbLinetypeTableRecord
2
BYBLOCK
70
0
0
LTYPE
5
15
100
AcDbSymbolTableRecord
100
AcDbLinetypeTableRecord
2
BYLAYER
70
0
0
ENDTAB
0
TABLE
2
LAYER
5
2
100
AcDbSymbolTable
70
2
0
LAYER
5
50
100
AcDbSymbolTableRecord
100
AcDbLayerTableRecord
2
0
70
0
6
CONTINUOUS
0
ENDTAB
0
TABLE
2
STYLE
5
3
100
AcDbSymbolTable
70
1
0
STYLE
5
11
100
AcDbSymbolTableRecord
100
AcDbTextStyleTableRecord
2
STANDARD
70
0
0
ENDTAB
0
TABLE
2
VIEW
5
6
100
AcDbSymbolTable
70
0
0
ENDTAB
0
TABLE
2
UCS
5
7
100
AcDbSymbolTable
70
0
0
ENDTAB
0
TABLE
2
APPID
5
9
100
AcDbSymbolTable
70
2
0
APPID
5
12
100
AcDbSymbolTableRecord
100
AcDbRegAppTableRecord
2
ACAD
70
0
0
ENDTAB
0
TABLE
2
DIMSTYLE
5
A
100
AcDbSymbolTable
70
1
0
ENDTAB
0
TABLE
2
BLOCK_RECORD
5
1
100
AcDbSymbolTable
70
1
0
BLOCK_RECORD
5
1F
100
AcDbSymbolTableRecord
100
AcDbBlockTableRecord
2
*MODEL_SPACE
0
BLOCK_RECORD
5
1B
100
AcDbSymbolTableRecord
100
AcDbBlockTableRecord
2
*PAPER_SPACE
0
ENDTAB
0
ENDSEC
0
SECTION
2
BLOCKS
0
BLOCK
5
20
100
AcDbEntity
100
AcDbBlockBegin
2
*MODEL_SPACE
0
ENDBLK
5
21
100
AcDbEntity
100
AcDbBlockEnd
0
BLOCK
5
1C
100
AcDbEntity
100
AcDbBlockBegin
2
*PAPER_SPACE
0
ENDBLK
5
1D
100
AcDbEntity
100
AcDbBlockEnd
0
ENDSEC
0
SECTION
2
ENTITIES
0
LWPOLYLINE
5
100
100
AcDbEntity
8
0
100
AcDbPolyline
90
4
70
1
43
0.0
10
0
20
0
10
700
20
0
10
700
20
-551
10
0
20
-551
0
SPLINE
5
101
100
AcDbEntity
8
0
100
AcDbSpline
70
1064
71
3
72
14
73
10
74
0
42
0.000000001
43
0.0000000001
44
0.0000000001
40
0
40
0
40
0
40
0
40
0.42923085330256017
40
0.42923085330256017
40
0.42923085330256017
40
0.88345176694284067
40
0.88345176694284067
40
0.88345176694284067
40
1
40
1
40
1
40
1
10
25.900000000000034
20
-535.99999999980002
30
0
10
25.900000000040535
20
-535.17040040451445
30
0
10
26.181768560086027
20
-534.21974482663722
30
0
10
26.781951816808203
20
-533.45949495363084
30
0
10
27.417078078404842
20
-532.65498290782875
30
0
10
28.384650369821998
20
-532.11754374486804
30
0
10
29.305394351604406
20
-531.95926702277757
30
0
10
29.541647419114412
20
-531.91865490708733
30
0
10
29.774740407797964
20
-531.89999999999998
30
0
10
30
20
-531.89999999999998
30
0
0
SPLINE
5
102
100
AcDbEntity
8
0
100
AcDbSpline
70
1064
71
3
72
14
73
10
74
0
42
0.000000001
43
0.0000000001
44
0.0000000001
40
0
40
0
40
0
40
0
40
0.42923085329989419
40
0.42923085329989419
40
0.42923085329989419
40
0.8834517669402806
40
0.8834517669402806
40
0.8834517669402806
40
1
40
1
40
1
40
1
10
30.000000000199947
20
-531.89999999999998
30
0
10
30.829599595480346
20
-531.90000000004045
30
0
10
31.780255173350724
20
-532.18176856008222
30
0
10
32.540505046354866
20
-532.78195181679712
30
0
10
33.34501709215985
20
-533.41707807839009
30
0
10
33.882456255125533
20
-534.38465036980563
30
0
10
34.04073297721979
20
-535.30539435158869
30
0
10
34.081345092911874
20
-535.54164741910415
30
0
10
34.099999999999966
20
-535.77474040779305
30
0
10
34.099999999999966
20
-536
30
0
0
SPLINE
5
103
100
AcDbEntity
8
0
100
AcDbSpline
70
1064
71
3
72
14
73
10
74
0
42
0.000000001
43
0.0000000001
44
0.0000000001
40
0
40
0
40
0
40
0
40
0.42923085330331978
40
0.42923085330331978
40
0.42923085330331978
40
0.88345176694356731
40
0.88345176694356731
40
0.88345176694356731
40
1
40
1
40
1
40
1
10
34.099999999999966
20
-536.00000000020009
30
0
10
34.099999999959465
20
-536.82959959548702
30
0
10
33.818231439912836
20
-537.78025517336596
30
0
10
33.218048183188529
20
-538.54050504637314
30
0
10
32.582921921591037
20
-539.34501709217454
30
0
10
31.615349630173313
20
-539.88245625513389
30
0
10
30.694605648391189
20
-540.04073297722334
30
0
10
30.458352580882604
20
-540.08134509291301
30
0
10
30.225259592200615
20
-540.10000000000002
30
0
10
30
20
-540.10000000000002
30
0
0
SPLINE
5
104
100
AcDbEntity
8
0
100
AcDbSpline
70
1064
71
3
72
14
73
10
74
0
42
0.000000001
43
0.0000000001
44
0.0000000001
40
0
40
0
40
0
40
0
40
0.42923085330538235
40
0.42923085330538235
40
0.42923085330538235
40
0.88345176694551641
40
0.88345176694551641
40
0.88345176694551641
40
1
40
1
40
1
40
1
10
29.999999999800053
20
-540.10000000000002
30
0
10
29.170400404508996
20
-540.09999999995966
30
0
10
28.219744826624691
20
-539.81823143990982
30
0
10
27.459494953616002
20
-539.21804818317992
30
0
10
26.654982907816844
20
-538.58292192157978
30
0
10
26.117543744861251
20
-537.61534963016095
30
0
10
25.95926702277481
20
-536.69460564837948
30
0
10
25.91865490708642
20
-536.45835258087493
30
0
10
25.900000000000034
20
-536.22525959219684
30
0
10
25.900000000000034
20
-536
30
0
0
SPLINE
5
105
100
AcDbEntity
8
0
100
AcDbSpline
70
1064
71
3
72
14
73
10
74
0
42
0.000000001
43
0.0000000001
44
0.0000000001
40
0
40
0
40
0
40
0
40
0.4292308532994481
40
0.4292308532994481
40
0.4292308532994481
40
0.88345176693987093
40
0.88345176693987093
40
0.88345176693987093
40
1
40
1
40
1
40
1
10
680.90000000000009
20
-520.99999999980002
30
0
10
680.90000000004056
20
-520.17040040452048
30
0
10
681.18176856008131
20
-519.21974482665132
30
0
10
681.78195181679507
20
-518.45949495364755
30
0
10
682.41707807838748
20
-517.65498290784217
30
0
10
683.38465036980301
20
-517.11754374487555
30
0
10
684.30539435158619
20
-516.95926702278064
30
0
10
684.54164741910245
20
-516.91865490708824
30
0
10
684.77474040779225
20
-516.89999999999998
30
0
10
685
20
-516.89999999999998
30
0
0
SPLINE
5
106
100
AcDbEntity
8
0
100
AcDbSpline
70
1064
71
3
72
14
73
10
74
0
42
0.000000001
43
0.0000000001
44
0.0000000001
40
0
40
0
40
0
40
0
40
0.42923085330490679
40
0.42923085330490679
40
0.42923085330490679
40
0.88345176694509631
40
0.88345176694509631
40
0.88345176694509631
40
1
40
1
40
1
40
1
10
685.00000000019998
20
-516.89999999999998
30
0
10
685.82959959549021
20
-516.90000000004045
30
0
10
686.78025517337301
20
-517.18176856008949
30
0
10
687.54050504638144
20
-517.78195181681804
30
0
10
688.34501709218125
20
-518.41707807841783
30
0
10
688.88245625513775
20
-519.38465036983632
30
0
10
689.04073297722471
20
-520.30539435161813
30
0
10
689.08134509291347
20
-520.54164741912348
30
0
10
689.10000000000014
20
-520.77474040780226
30
0
10
689.10000000000014
20
-521
30
0
0
SPLINE
5
107
100
AcDbEntity
8
0
100
AcDbSpline
70
1064
71
3
72
14
73
10
74
0
42
0.000000001
43
0.0000000001
44
0.0000000001
40
0
40
0
40
0
40
0
40
0.42923085330324973
40
0.42923085330324973
40
0.42923085330324973
40
0.88345176694352134
40
0.88345176694352134
40
0.88345176694352134
40
1
40
1
40
1
40
1
10
689.10000000000014
20
-521.00000000020009
30
0
10
689.09999999995966
20
-521.82959959548702
30
0
10
688.81823143991301
20
-522.78025517336584
30
0
10
688.21804818318901
20
-523.5405050463728
30
0
10
687.58292192159149
20
-524.3450170921742
30
0
10
686.61534963017391
20
-524.88245625513377
30
0
10
685.69460564839164
20
-525.04073297722312
30
0
10
685.45835258088289
20
-525.0813450929129
30
0
10
685.2252595922007
20
-525.10000000000002
30
0
10
685
20
-525.10000000000002
30
0
0
SPLINE
5
108
100
AcDbEntity
8
0
100
AcDbSpline
70
1064
71
3
72
14
73
10
74
0
42
0.000000001
43
0.0000000001
44
0.0000000001
40
0
40
0
40
0
40
0
40
0.42923085330526356
40
0.42923085330526356
40
0.42923085330526356
40
0.88345176694542671
40
0.88345176694542671
40
0.88345176694542671
40
1
40
1
40
1
40
1
10
684.99999999980002
20
-525.10000000000002
30
0
10
684.17040040450934
20
-525.09999999995955
30
0
10
683.21974482662529
20
-524.81823143991005
30
0
10
682.45949495361651
20
-524.21804818318049
30
0
10
681.65498290781727
20
-523.58292192158035
30
0
10
681.11754374486156
20
-522.61534963016152
30
0
10
680.95926702277495
20
-521.69460564837993
30
0
10
680.91865490708653
20
-521.45835258087527
30
0
10
680.90000000000009
20
-521.22525959219706
30
0
10
680.90000000000009
20
-521
30
0
0
SPLINE
5
109
100
AcDbEntity
8
0
100
AcDbSpline
70
1064
71
3
72
14
73
10
74
0
42
0.000000001
43
0.0000000001
44
0.0000000001
40
0
40
0
40
0
40
0
40
0.42923085330293165
40
0.42923085330293165
40
0.42923085330293165
40
0.88345176694319438
40
0.88345176694319438
40
0.88345176694319438
40
1
40
1
40
1
40
1
10
665.90000000000009
20
-12.999999999799989
30
0
10
665.90000000004056
20
-12.170400404513693
30
0
10
666.18176856008654
20
-11.21974482663564
30
0
10
666.78195181680974
20
-10.459494953628976
30
0
10
667.4170780784068
20
-9.6549829078272253
30
0
10
668.38465036982427
20
-9.1175437448671559
30
0
10
669.30539435160654
20
-8.9592670227772331
30
0
10
669.54164741911586
20
-8.9186549070871735
30
0
10
669.77474040779862
20
-8.9000000000000057
30
0
10
670
20
-8.9000000000000057
30
0
0
SPLINE
5
110
100
AcDbEntity
8
0
100
AcDbSpline
70
1064
71
3
72
14
73
10
74
0
42
0.000000001
43
0.0000000001
44
0.0000000001
40
0
40
0
40
0
40
0
40
0.42923085330377736
40
0.42923085330377736
40
0.42923085330377736
40
0.88345176694400318
40
0.88345176694400318
40
0.88345176694400318
40
1
40
1
40
1
40
1
10
670.00000000019998
20
-8.9000000000000057
30
0
10
670.82959959548793
20
-8.9000000000404711
30
0
10
671.780255173368
20
-9.1817685600878818
30
0
10
672.54050504637553
20
-9.7819518168133257
30
0
10
673.34501709217636
20
-10.417078078411457
30
0
10
673.88245625513503
20
-11.384650369829394
30
0
10
674.0407329772238
20
-12.305394351611412
30
0
10
674.08134509291335
20
-12.541647419119073
30
0
10
674.10000000000014
20
-12.774740407800209
30
0
10
674.10000000000014
20
-13.000000000000007
30
0
0
SPLINE
5
111
100
AcDbEntity
8
0
100
AcDbSpline
70
1064
71
3
72
14
73
10
74
0
42
0.000000001
43
0.0000000001
44
0.0000000001
40
0
40
0
40
0
40
0
40
0.42923085330554028
40
0.42923085330554028
40
0.42923085330554028
40
0.88345176694571292
40
0.88345176694571292
40
0.88345176694571292
40
1
40
1
40
1
40
1
10
674.10000000000014
20
-13.000000000199989
30
0
10
674.09999999995966
20
-13.829599595491331
30
0
10
673.81823143990937
20
-14.780255173376027
30
0
10
673.21804818317912
20
-15.540505046384894
30
0
10
672.58292192157865
20
-16.345017092183944
30
0
10
671.6153496301597
20
-16.882456255139182
30
0
10
670.69460564837811
20
-17.04073297722541
30
0
10
670.45835258087391
20
-17.081345092913622
30
0
10
670.22525959219649
20
-17.100000000000009
30
0
10
670
20
-17.100000000000009
30
0
0
SPLINE
5
112
100
AcDbEntity
8
0
100
AcDbSpline
70
1064
71
3
72
14
73
10
74
0
42
0.000000001
43
0.0000000001
44
0.0000000001
40
0
40
0
40
0
40
0
40
0.42923085330139832
40
0.42923085330139832
40
0.42923085330139832
40
0.88345176694174077
40
0.88345176694174077
40
0.88345176694174077
40
1
40
1
40
1
40
1
10
669.99999999980002
20
-17.100000000000009
30
0
10
669.17040040451661
20
-17.099999999959543
30
0
10
668.21974482664245
20
-16.81823143991565
30
0
10
667.4594949536372
20
-16.218048183196636
30
0
10
666.65498290783376
20
-15.582921921601631
30
0
10
666.11754374487077
20
-14.615349630185044
30
0
10
665.9592670227787
20
-13.694605648402352
30
0
10
665.91865490708756
20
-13.458352580889965
30
0
10
665.90000000000009
20
-13.225259592204175
30
0
10
665.90000000000009
20
-13.000000000000007
30
0
0
SPLINE
5
113
100
AcDbEntity
8
0
100
AcDbSpline
70
1064
71
3
72
14
73
10
74
0
42
0.000000001
43
0.0000000001
44
0.0000000001
40
0
40
0
40
0
40
0
40
0.42923085330197713
40
0.42923085330197713
40
0.42923085330197713
40
0.88345176694228589
40
0.88345176694228589
40
0.88345176694228589
40
1
40
1
40
1
40
1
10
10.900000000000034
20
-29.999999999800018
30
0
10
10.900000000040535
20
-29.170400404515568
30
0
10
11.181768560085175
20
-28.219744826639861
30
0
10
11.781951816805787
20
-27.459494953634049
30
0
10
12.417078078401431
20
-26.654982907831268
30
0
10
13.384650369818445
20
-26.117543744869458
30
0
10
14.305394351600995
20
-25.959267022778185
30
0
10
14.54164741911228
20
-25.918654907087451
30
0
10
14.774740407796969
20
-25.899999999999999
30
0
10
15
20
-25.899999999999999
30
0
0
SPLINE
5
114
100
AcDbEntity
8
0
100
AcDbSpline
70
1064
71
3
72
14
73
10
74
0
42
0.000000001
43
0.0000000001
44
0.0000000001
40
0
40
0
40
0
40
0
40
0.42923085330092198
40
0.42923085330092198
40
0.42923085330092198
40
0.88345176694127925
40
0.88345176694127925
40
0.88345176694127925
40
1
40
1
40
1
40
1
10
15.000000000199947
20
-25.899999999999999
30
0
10
15.829599595482335
20
-25.900000000040464
30
0
10
16.780255173355414
20
-26.181768560083647
30
0
10
17.540505046360408
20
-26.781951816801346
30
0
10
18.345017092164255
20
-27.417078078395711
30
0
10
18.882456255128091
20
-28.384650369812015
30
0
10
19.040732977220785
20
-29.305394351594849
30
0
10
19.081345092912159
20
-29.541647419108195
30
0
10
19.099999999999966
20
-29.774740407794944
30
0
10
19.099999999999966
20
-30
30
0
0
SPLINE
5
115
100
AcDbEntity
8
0
100
AcDbSpline
70
1064
71
3
72
14
73
10
74
0
42
0.000000001
43
0.0000000001
44
0.0000000001
40
0
40
0
40
0
40
0
40
0.4292308533036871
40
0.4292308533036871
40
0.4292308533036871
40
0.88345176694391969
40
0.88345176694391969
40
0.88345176694391969
40
1
40
1
40
1
40
1
10
19.099999999999966
20
-30.000000000199982
30
0
10
19.099999999959465
20
-30.829599595487736
30
0
10
18.818231439912267
20
-31.780255173367742
30
0
10
18.218048183186966
20
-32.540505046375046
30
0
10
17.582921921589048
20
-33.345017092176015
30
0
10
16.615349630171181
20
-33.882456255134663
30
0
10
15.694605648389199
20
-34.04073297722352
30
0
10
15.458352580881325
20
-34.081345092913047
30
0
10
15.225259592199905
20
-34.100000000000001
30
0
10
15
20
-34.100000000000001
30
0
0
SPLINE
5
116
100
AcDbEntity
8
0
100
AcDbSpline
70
1064
71
3
72
14
73
10
74
0
42
0.000000001
43
0.0000000001
44
0.0000000001
40
0
40
0
40
0
40
0
40
0.42923085330118183
40
0.42923085330118183
40
0.42923085330118183
40
0.88345176694152561
40
0.88345176694152561
40
0.88345176694152561
40
1
40
1
40
1
40
1
10
14.999999999800053
20
-34.100000000000001
30
0
10
14.170400404517238
20
-34.099999999959536
30
0
10
13.219744826643449
20
-33.818231439915998
30
0
10
12.459494953638313
20
-33.218048183197553
30
0
10
11.65498290783475
20
-32.582921921602868
30
0
10
11.117543744871341
20
-31.615349630186422
30
0
10
10.959267022779073
20
-30.694605648403659
30
0
10
10.918654907087699
20
-30.458352580890846
30
0
10
10.900000000000034
20
-30.225259592204594
30
0
10
10.900000000000034
20
-30
30
0
0
LWPOLYLINE
5
117
100
AcDbEntity
8
0
100
AcDbPolyline
90
4
70
1
43
0.0
10
700
20
-551
10
0
20
-551
10
0
20
0
10
700
20
0
0
CIRCLE
5
118
100
AcDbEntity
8
0
100
AcDbCircle
10
670
20
-13.000000000000007
30
0
40
4.1000000000000014
0
CIRCLE
5
119
100
AcDbEntity
8
0
100
AcDbCircle
10
15
20
-30
30
0
40
4.1000000000000014
0
CIRCLE
5
120
100
AcDbEntity
8
0
100
AcDbCircle
10
30
20
-536
30
0
40
4.1000000000000369
0
CIRCLE
5
121
100
AcDbEntity
8
0
100
AcDbCircle
10
685
20
-521
30
0
40
4.1000000000000369
0
ENDSEC
0
SECTION
2
OBJECTS
0
DICTIONARY
5
C
100
AcDbDictionary
3
ACAD_GROUP
350
D
3
ACAD_MLINESTYLE
350
17
0
DICTIONARY
5
D
100
AcDbDictionary
0
DICTIONARY
5
1A
330
C
100
AcDbDictionary
0
DICTIONARY
5
17
100
AcDbDictionary
0
ENDSEC
0
EOF
