999
dxfrw 0.6.3
  0
SECTION
  2
HEADER
  9
$ACADVER
  1
AC1021
  9
$DWGCODEPAGE
  3
ANSI_1252
  9
$INSBASE
 10
0
 20
0
 30
0
  9
$EXTMIN
 10
1e+20
 20
1e+20
 30
1e+20
  9
$EXTMAX
 10
-1e+20
 20
-1e+20
 30
-1e+20
  9
$LIMMIN
 10
0
 20
0
  9
$LIMMAX
 10
420
 20
297
  9
$ORTHOMODE
 70
    0
  9
$REGENMODE
 70
    1
  9
$FILLMODE
 70
    1
  9
$QTEXTMODE
 70
    0
  9
$MIRRTEXT
 70
    0
  9
$LTSCALE
 40
1
  9
$ATTMODE
 70
    0
  9
$TEXTSIZE
 40
2.5
  9
$TRACEWID
 40
15.68
  9
$TEXTSTYLE
  7
STANDARD
  9
$CLAYER
  8
0
  9
$CELTYPE
  6
BYLAYER
  9
$CECOLOR
 62
  256
  9
$CELTSCALE
 40
1
  9
$DISPSILH
 70
    0
  9
$DIMSCALE
 40
1
  9
$DIMASZ
 40
2.5
  9
$DIMEXO
 40
0.625
  9
$DIMDLI
 40
3.75
  9
$DIMRND
 40
0
  9
$DIMDLE
 40
0
  9
$DIMEXE
 40
1.25
  9
$DIMTP
 40
0
  9
$DIMTM
 40
0
  9
$DIMTXT
 40
2.5
  9
$DIMCEN
 40
2.5
  9
$DIMTSZ
 40
0
  9
$DIMTOL
 70
    0
  9
$DIMLIM
 70
    0
  9
$DIMTIH
 70
    0
  9
$DIMTOH
 70
    0
  9
$DIMSE1
 70
    0
  9
$DIMSE2
 70
    0
  9
$DIMTAD
 70
    1
  9
$DIMZIN
 70
    8
  9
$DIMBLK
  1

  9
$DIMASO
 70
    1
  9
$DIMSHO
 70
    1
  9
$DIMPOST
  1

  9
$DIMAPOST
  1

  9
$DIMALT
 70
    0
  9
$DIMALTD
 70
    3
  9
$DIMALTF
 40
0.03937
  9
$DIMLFAC
 40
1
  9
$DIMTOFL
 70
    1
  9
$DIMTVP
 40
0
  9
$DIMTIX
 70
    0
  9
$DIMSOXD
 70
    0
  9
$DIMSAH
 70
    0
  9
$DIMBLK1
  1

  9
$DIMBLK2
  1

  9
$DIMSTYLE
  2
STANDARD
  9
$DIMCLRD
 70
    0
  9
$DIMCLRE
 70
    0
  9
$DIMCLRT
 70
    0
  9
$DIMTFAC
 40
1
  9
$DIMGAP
 40
0.625
  9
$DIMJUST
 70
    0
  9
$DIMSD1
 70
    0
  9
$DIMSD2
 70
    0
  9
$DIMTOLJ
 70
    0
  9
$DIMTZIN
 70
    8
  9
$DIMALTZ
 70
    0
  9
$DIMALTTZ
 70
    0
  9
$DIMUPT
 70
    0
  9
$DIMDEC
 70
    2
  9
$DIMTDEC
 70
    2
  9
$DIMALTU
 70
    2
  9
$DIMALTTD
 70
    3
  9
$DIMTXSTY
  7
STANDARD
  9
$DIMAUNIT
 70
    0
  9
$DIMADEC
 70
    0
  9
$DIMALTRND
 40
0
  9
$DIMAZIN
 70
    0
  9
$DIMDSEP
 70
   44
  9
$DIMATFIT
 70
    3
  9
$DIMFRAC
 70
    0
  9
$DIMLDRBLK
  1
STANDARD
  9
$DIMLUNIT
 70
    2
  9
$DIMLWD
 70
   -2
  9
$DIMLWE
 70
   -2
  9
$DIMTMOVE
 70
    0
  9
$DIMFXL
 40
1
  9
$DIMFXLON
 70
    0
  9
$DIMJOGANG
 40
0.7854
  9
$DIMTFILL
 70
    0
  9
$DIMTFILLCLR
 70
    0
  9
$DIMARCSYM
 70
    0
  9
$DIMLTYPE
  6

  9
$DIMLTEX1
  6

  9
$DIMLTEX2
  6

  9
$LUNITS
 70
    2
  9
$LUPREC
 70
    4
  9
$SKETCHINC
 40
1
  9
$FILLETRAD
 40
0
  9
$AUNITS
 70
    0
  9
$AUPREC
 70
    2
  9
$MENU
  1
.
  9
$ELEVATION
 40
0
  9
$PELEVATION
 40
0
  9
$THICKNESS
 40
0
  9
$LIMCHECK
 70
    0
  9
$CHAMFERA
 40
0
  9
$CHAMFERB
 40
0
  9
$CHAMFERC
 40
0
  9
$CHAMFERD
 40
0
  9
$SKPOLY
 70
    0
  9
$USRTIMER
 70
    1
  9
$ANGBASE
 50
0
  9
$ANGDIR
 70
    0
  9
$PDMODE
 70
   34
  9
$PDSIZE
 40
0
  9
$PLINEWID
 40
0
  9
$SPLFRAME
 70
    0
  9
$SPLINETYPE
 70
    2
  9
$SPLINESEGS
 70
    8
  9
$HANDSEED
  5
20000
  9
$SURFTAB1
 70
    6
  9
$SURFTAB2
 70
    6
  9
$SURFTYPE
 70
    6
  9
$SURFU
 70
    6
  9
$SURFV
 70
    6
  9
$UCSBASE
  2

  9
$UCSNAME
  2

  9
$UCSORG
 10
0
 20
0
 30
0
  9
$UCSXDIR
 10
1
 20
0
 30
0
  9
$UCSYDIR
 10
0
 20
1
 30
0
  9
$UCSORTHOREF
  2

  9
$UCSORTHOVIEW
 70
    0
  9
$UCSORGTOP
 10
0
 20
0
 30
0
  9
$UCSORGBOTTOM
 10
0
 20
0
 30
0
  9
$UCSORGLEFT
 10
0
 20
0
 30
0
  9
$UCSORGRIGHT
 10
0
 20
0
 30
0
  9
$UCSORGFRONT
 10
0
 20
0
 30
0
  9
$UCSORGBACK
 10
0
 20
0
 30
0
  9
$PUCSBASE
  2

  9
$PUCSNAME
  2

  9
$PUCSORG
 10
0
 20
0
 30
0
  9
$PUCSXDIR
 10
1
 20
0
 30
0
  9
$PUCSYDIR
 10
0
 20
1
 30
0
  9
$PUCSORTHOREF
  2

  9
$PUCSORTHOVIEW
 70
    0
  9
$PUCSORGTOP
 10
0
 20
0
 30
0
  9
$PUCSORGBOTTOM
 10
0
 20
0
 30
0
  9
$PUCSORGLEFT
 10
0
 20
0
 30
0
  9
$PUCSORGRIGHT
 10
0
 20
0
 30
0
  9
$PUCSORGFRONT
 10
0
 20
0
 30
0
  9
$PUCSORGBACK
 10
0
 20
0
 30
0
  9
$USERI1
 70
    0
  9
$USERI2
 70
    0
  9
$USERI3
 70
    0
  9
$USERI4
 70
    0
  9
$USERI5
 70
    0
  9
$USERR1
 40
0
  9
$USERR2
 40
0
  9
$USERR3
 40
0
  9
$USERR4
 40
0
  9
$USERR5
 40
0
  9
$WORLDVIEW
 70
    1
  9
$SHADEDGE
 70
    3
  9
$SHADEDIF
 70
   70
  9
$TILEMODE
 70
    1
  9
$MAXACTVP
 70
   64
  9
$PINSBASE
 10
0
 20
0
 30
0
  9
$PLIMCHECK
 70
    0
  9
$PEXTMIN
 10
0
 20
0
 30
0
  9
$PEXTMAX
 10
0
 20
0
 30
0
  9
$PLIMMIN
 10
0
 20
0
  9
$PLIMMAX
 10
297
 20
210
  9
$UNITMODE
 70
    0
  9
$VISRETAIN
 70
    1
  9
$PLINEGEN
 70
    0
  9
$PSLTSCALE
 70
    1
  9
$TREEDEPTH
 70
 3020
  9
$CMLSTYLE
  2
Standard
  9
$CMLJUST
 70
    0
  9
$CMLSCALE
 40
20
  9
$PROXYGRAPHICS
 70
    1
  9
$MEASUREMENT
 70
    1
  9
$CELWEIGHT
370
   -1
  9
$ENDCAPS
280
    0
  9
$JOINSTYLE
280
    0
  9
$LWDISPLAY
290
    0
  9
$INSUNITS
 70
    0
  9
$HYPERLINKBASE
  1

  9
$STYLESHEET
  1

  9
$XEDIT
290
    1
  9
$CEPSNTYPE
380
    0
  9
$PSTYLEMODE
290
    1
  9
$EXTNAMES
290
    1
  9
$PSVPSCALE
 40
0
  9
$OLESTARTUP
290
    0
  9
$SORTENTS
280
  127
  9
$INDEXCTL
280
    0
  9
$HIDETEXT
280
    1
  9
$XCLIPFRAME
290
    0
  9
$HALOGAP
280
    0
  9
$OBSCOLOR
 70
  257
  9
$OBSLTYPE
280
    0
  9
$INTERSECTIONDISPLAY
280
    0
  9
$INTERSECTIONCOLOR
 70
  257
  9
$DIMASSOC
280
    1
  9
$PROJECTNAME
  1

  9
$CAMERADISPLAY
290
    0
  9
$LENSLENGTH
 40
50
  9
$CAMERAHEIGHT
 40
0
  9
$STEPSPERSEC
 40
2
  9
$STEPSIZE
 40
50
  9
$3DDWFPREC
 40
2
  9
$PSOLWIDTH
 40
5
  9
$PSOLHEIGHT
 40
80
  9
$LOFTANG1
 40
1.570796326794897
  9
$LOFTANG2
 40
1.570796326794897
  9
$LOFTMAG1
 40
0
  9
$LOFTMAG2
 40
0
  9
$LOFTPARAM
 70
    7
  9
$LOFTNORMALS
280
    1
  9
$LATITUDE
 40
1
  9
$LONGITUDE
 40
1
  9
$NORTHDIRECTION
 40
0
  9
$TIMEZONE
 70
-8000
  9
$LIGHTGLYPHDISPLAY
280
    1
  9
$TILEMODELIGHTSYNCH
280
    1
  9
$SOLIDHIST
280
    1
  9
$SHOWHIST
280
    1
  9
$DWFFRAME
280
    2
  9
$DGNFRAME
280
    0
  9
$REALWORLDSCALE
290
    1
  9
$INTERFERECOLOR
 62
    1
  9
$CSHADOW
280
    0
  9
$SHADOWPLANELOCATION
 40
0
  0
ENDSEC
  0
SECTION
  2
CLASSES
  0
ENDSEC
  0
SECTION
  2
TABLES
  0
TABLE
  2
VPORT
  5
8
330
0
100
AcDbSymbolTable
 70
    1
  0
VPORT
  5
31
330
2
100
AcDbSymbolTableRecord
100
AcDbViewportTableRecord
  2
*ACTIVE
 70
    0
 10
0
 20
0
 11
1
 21
1
 12
0.651828
 22
-0.16
 13
0
 23
0
 14
10
 24
10
 15
10
 25
10
 16
0
 26
0
 36
1
 17
0
 27
0
 37
0
 40
5.13732
 41
2.4426877
 42
50
 43
0
 44
0
 50
0
 51
0
 71
    0
 72
  100
 73
    1
 74
    3
 75
    0
 76
    0
 77
    0
 78
    0
281
    0
 65
    1
110
0
120
0
130
0
111
1
121
0
131
0
112
0
122
1
132
0
 79
    0
146
0
348
10020
 60
    7
 61
    5
292
1
282
    1
141
0
142
0
 63
  250
421
3358443
  0
ENDTAB
  0
TABLE
  2
LTYPE
  5
5
330
0
100
AcDbSymbolTable
 70
    4
  0
LTYPE
  5
14
330
5
100
AcDbSymbolTableRecord
100
AcDbLinetypeTableRecord
  2
ByBlock
 70
    0
  3

 72
   65
 73
    0
 40
0
  0
LTYPE
  5
15
330
5
100
AcDbSymbolTableRecord
100
AcDbLinetypeTableRecord
  2
ByLayer
 70
    0
  3

 72
   65
 73
    0
 40
0
  0
LTYPE
  5
16
330
5
100
AcDbSymbolTableRecord
100
AcDbLinetypeTableRecord
  2
Continuous
 70
    0
  3
Solid line
 72
   65
 73
    0
 40
0
  0
LTYPE
  5
32
330
5
100
AcDbSymbolTableRecord
100
AcDbLinetypeTableRecord
  2
DASHED
 70
    0
  3

 72
   65
 73
    2
 40
3
 49
1
 74
    0
 49
-2
 74
    0
  0
LTYPE
  5
33
330
5
100
AcDbSymbolTableRecord
100
AcDbLinetypeTableRecord
  2
DASHED
 70
    0
  3

 72
   65
 73
    2
 40
2
 49
1
 74
    0
 49
-1
 74
    0
  0
LTYPE
  5
34
330
5
100
AcDbSymbolTableRecord
100
AcDbLinetypeTableRecord
  2
DASHEDX2
 70
    0
  3

 72
   65
 73
    2
 40
3
 49
2
 74
    0
 49
-1
 74
    0
  0
LTYPE
  5
35
330
5
100
AcDbSymbolTableRecord
100
AcDbLinetypeTableRecord
  2
DASHDOT
 70
    0
  3

 72
   65
 73
    4
 40
3
 49
1
 74
    0
 49
-1
 74
    0
 49
0
 74
    0
 49
-1
 74
    0
  0
LTYPE
  5
36
330
5
100
AcDbSymbolTableRecord
100
AcDbLinetypeTableRecord
  2
DIVIDE
 70
    0
  3

 72
   65
 73
    6
 40
4
 49
1
 74
    0
 49
-1
 74
    0
 49
0
 74
    0
 49
-1
 74
    0
 49
0
 74
    0
 49
-1
 74
    0
  0
LTYPE
  5
37
330
5
100
AcDbSymbolTableRecord
100
AcDbLinetypeTableRecord
  2
DOT
 70
    0
  3

 72
   65
 73
    2
 40
1
 49
1
 74
    0
 49
0
 74
    0
  0
ENDTAB
  0
TABLE
  2
LAYER
  5
2
330
0
100
AcDbSymbolTable
 70
    1
  0
LAYER
  5
38
330
2
100
AcDbSymbolTableRecord
100
AcDbLayerTableRecord
  2
dimensions
 70
    0
 62
    7
  6
CONTINUOUS
370
   -3
390
F
  0
LAYER
  5
39
330
2
100
AcDbSymbolTableRecord
100
AcDbLayerTableRecord
  2
text
 70
    0
 62
    7
  6
CONTINUOUS
370
   -3
390
F
  0
LAYER
  5
3A
330
2
100
AcDbSymbolTableRecord
100
AcDbLayerTableRecord
  2
s005-#def-solid-edge
 70
    0
 62
    7
  6
CONTINUOUS
370
   -3
390
F
  0
LAYER
  5
10
330
2
100
AcDbSymbolTableRecord
100
AcDbLayerTableRecord
  2
0
 70
    0
 62
    7
  6
CONTINUOUS
370
   -3
390
F
  0
ENDTAB
  0
TABLE
  2
STYLE
  5
3
330
0
100
AcDbSymbolTable
 70
    3
  0
STYLE
  5
3B
330
2
100
AcDbSymbolTableRecord
100
AcDbTextStyleTableRecord
  2
unicode
 70
    0
 40
0
 41
1
 50
0
 71
    0
 42
1
  3
unicode
  4

  0
STYLE
  5
3C
330
2
100
AcDbSymbolTableRecord
100
AcDbTextStyleTableRecord
  2
Standard
 70
    0
 40
0
 41
1
 50
0
 71
    0
 42
1
  3
txt
  4

  0
ENDTAB
  0
TABLE
  2
VIEW
  5
6
330
0
100
AcDbSymbolTable
 70
    0
  0
ENDTAB
  0
TABLE
  2
UCS
  5
7
330
0
100
AcDbSymbolTable
 70
    0
  0
ENDTAB
  0
TABLE
  2
APPID
  5
9
330
0
100
AcDbSymbolTable
 70
    1
  0
APPID
  5
12
330
9
100
AcDbSymbolTableRecord
100
AcDbRegAppTableRecord
  2
ACAD
 70
    0
  0
ENDTAB
  0
TABLE
  2
DIMSTYLE
  5
A
330
0
100
AcDbSymbolTable
 70
    1
100
AcDbDimStyleTable
 71
    1
  0
DIMSTYLE
105
3D
330
A
100
AcDbSymbolTableRecord
100
AcDbDimStyleTableRecord
  2
Standard
 70
    0
 40
1
 41
2.5
 42
0.625
 43
3.75
 44
1.25
 45
0
 46
0
 47
0
 48
0
140
2.5
141
2.5
142
0
143
0.03937007874015748
144
1
145
0
146
1
147
0.625
148
0
 71
    0
 72
    0
 73
    0
 74
    0
 75
    0
 76
    0
 77
    1
 78
    8
 79
    0
170
    0
171
    3
172
    1
173
    0
174
    0
175
    0
176
    0
177
    0
178
    0
179
    0
271
    2
272
    2
273
    2
274
    3
275
    0
276
    0
277
    2
278
   44
279
    0
280
    0
281
    0
282
    0
283
    0
284
    8
285
    0
286
    0
288
    0
289
    3
341

371
   -2
372
   -2
  0
ENDTAB
  0
TABLE
  2
BLOCK_RECORD
  5
1
330
0
100
AcDbSymbolTable
 70
    2
  0
BLOCK_RECORD
  5
1F
330
1
100
AcDbSymbolTableRecord
100
AcDbBlockTableRecord
  2
*Model_Space
 70
    0
280
    1
281
    0
  0
BLOCK_RECORD
  5
1E
330
1
100
AcDbSymbolTableRecord
100
AcDbBlockTableRecord
  2
*Paper_Space
 70
    0
280
    1
281
    0
  0
ENDTAB
  0
ENDSEC
  0
SECTION
  2
BLOCKS
  0
BLOCK
  5
20
330
1F
100
AcDbEntity
  8
0
100
AcDbBlockBegin
  2
*Model_Space
 70
    0
 10
0
 20
0
 30
0
  3
*Model_Space
  1

  0
ENDBLK
  5
21
330
1F
100
AcDbEntity
  8
0
100
AcDbBlockEnd
  0
BLOCK
  5
1C
330
1B
100
AcDbEntity
  8
0
100
AcDbBlockBegin
  2
*Paper_Space
 70
    0
 10
0
 20
0
 30
0
  3
*Paper_Space
  1

  0
ENDBLK
  5
1D
330
1F
100
AcDbEntity
  8
0
100
AcDbBlockEnd
  0
ENDSEC
  0
SECTION
  2
ENTITIES
  0
POLYLINE
  5
3E
100
AcDbEntity
  8
s005-#def-solid-edge
  6
CONTINUOUS
 62
    7
420
    0
370
   40
100
AcDb2dPolyline
 10
0
 20
0
 30
0
 70
    0
  0
VERTEX
  5
3F
100
AcDbEntity
  8
s005-#def-solid-edge
  6
CONTINUOUS
 62
    7
420
    0
370
   40
100
AcDbVertex
100
AcDb2dVertex
 10
184.7499999999999
 20
38.5
 30
0
  0
VERTEX
  5
40
100
AcDbEntity
  8
s005-#def-solid-edge
  6
CONTINUOUS
 62
    7
420
    0
370
   40
100
AcDbVertex
100
AcDb2dVertex
 10
195.9999999999999
 20
38.5
 30
0
  0
VERTEX
  5
41
100
AcDbEntity
  8
s005-#def-solid-edge
  6
CONTINUOUS
 62
    7
420
    0
370
   40
100
AcDbVertex
100
AcDb2dVertex
 10
195.9999999999999
 20
93
 30
0
  0
VERTEX
  5
42
100
AcDbEntity
  8
s005-#def-solid-edge
  6
CONTINUOUS
 62
    7
420
    0
370
   40
100
AcDbVertex
100
AcDb2dVertex
 10
195.9999999999999
 20
147.5
 30
0
  0
VERTEX
  5
43
100
AcDbEntity
  8
s005-#def-solid-edge
  6
CONTINUOUS
 62
    7
420
    0
370
   40
100
AcDbVertex
100
AcDb2dVertex
 10
184.7499999999999
 20
147.5
 30
0
  0
SEQEND
  5
44
100
AcDbEntity
  8
s005-#def-solid-edge
  6
CONTINUOUS
 62
    7
420
    0
370
   40
  0
POLYLINE
  5
45
100
AcDbEntity
  8
s005-#def-solid-edge
  6
CONTINUOUS
 62
    7
420
    0
370
   40
100
AcDb2dPolyline
 10
0
 20
0
 30
0
 70
    0
  0
VERTEX
  5
46
100
AcDbEntity
  8
s005-#def-solid-edge
  6
CONTINUOUS
 62
    7
420
    0
370
   40
100
AcDbVertex
100
AcDb2dVertex
 10
169.3227513794584
 20
161.5
 30
0
  0
VERTEX
  5
47
100
AcDbEntity
  8
s005-#def-solid-edge
  6
CONTINUOUS
 62
    7
420
    0
370
   40
100
AcDbVertex
100
AcDb2dVertex
 10
127.5
 20
161.5
 30
0
  0
VERTEX
  5
48
100
AcDbEntity
  8
s005-#def-solid-edge
  6
CONTINUOUS
 62
    7
420
    0
370
   40
100
AcDbVertex
100
AcDb2dVertex
 10
77.49999999999996
 20
161.5
 30
0
  0
SEQEND
  5
49
100
AcDbEntity
  8
s005-#def-solid-edge
  6
CONTINUOUS
 62
    7
420
    0
370
   40
  0
POLYLINE
  5
4A
100
AcDbEntity
  8
s005-#def-solid-edge
  6
CONTINUOUS
 62
    7
420
    0
370
   40
100
AcDb2dPolyline
 10
0
 20
0
 30
0
 70
    0
  0
VERTEX
  5
4B
100
AcDbEntity
  8
s005-#def-solid-edge
  6
CONTINUOUS
 62
    7
420
    0
370
   40
100
AcDbVertex
100
AcDb2dVertex
 10
77.49999999999996
 20
24.5
 30
0
  0
VERTEX
  5
4C
100
AcDbEntity
  8
s005-#def-solid-edge
  6
CONTINUOUS
 62
    7
420
    0
370
   40
100
AcDbVertex
100
AcDb2dVertex
 10
127.4999999999999
 20
24.5
 30
0
  0
VERTEX
  5
4D
100
AcDbEntity
  8
s005-#def-solid-edge
  6
CONTINUOUS
 62
    7
420
    0
370
   40
100
AcDbVertex
100
AcDb2dVertex
 10
169.3227513794584
 20
24.5
 30
0
  0
SEQEND
  5
4E
100
AcDbEntity
  8
s005-#def-solid-edge
  6
CONTINUOUS
 62
    7
420
    0
370
   40
  0
POLYLINE
  5
4F
100
AcDbEntity
  8
s005-#def-solid-edge
  6
CONTINUOUS
 62
    7
420
    0
370
   40
100
AcDb2dPolyline
 10
0
 20
0
 30
0
 70
    0
  0
VERTEX
  5
50
100
AcDbEntity
  8
s005-#def-solid-edge
  6
CONTINUOUS
 62
    7
420
    0
370
   40
100
AcDbVertex
100
AcDb2dVertex
 10
309.3227513794585
 20
161.5
 30
0
  0
VERTEX
  5
51
100
AcDbEntity
  8
s005-#def-solid-edge
  6
CONTINUOUS
 62
    7
420
    0
370
   40
100
AcDbVertex
100
AcDb2dVertex
 10
267.4999999999999
 20
161.5
 30
0
  0
VERTEX
  5
52
100
AcDbEntity
  8
s005-#def-solid-edge
  6
CONTINUOUS
 62
    7
420
    0
370
   40
100
AcDbVertex
100
AcDb2dVertex
 10
225.6772486205415
 20
161.5
 30
0
  0
SEQEND
  5
53
100
AcDbEntity
  8
s005-#def-solid-edge
  6
CONTINUOUS
 62
    7
420
    0
370
   40
  0
POLYLINE
  5
54
100
AcDbEntity
  8
s005-#def-solid-edge
  6
CONTINUOUS
 62
    7
420
    0
370
   40
100
AcDb2dPolyline
 10
0
 20
0
 30
0
 70
    0
  0
VERTEX
  5
55
100
AcDbEntity
  8
s005-#def-solid-edge
  6
CONTINUOUS
 62
    7
420
    0
370
   40
100
AcDbVertex
100
AcDb2dVertex
 10
210.2499999999999
 20
147.5
 30
0
  0
VERTEX
  5
56
100
AcDbEntity
  8
s005-#def-solid-edge
  6
CONTINUOUS
 62
    7
420
    0
370
   40
100
AcDbVertex
100
AcDb2dVertex
 10
198.9999999999999
 20
147.5
 30
0
  0
VERTEX
  5
57
100
AcDbEntity
  8
s005-#def-solid-edge
  6
CONTINUOUS
 62
    7
420
    0
370
   40
100
AcDbVertex
100
AcDb2dVertex
 10
198.9999999999999
 20
93
 30
0
  0
VERTEX
  5
58
100
AcDbEntity
  8
s005-#def-solid-edge
  6
CONTINUOUS
 62
    7
420
    0
370
   40
100
AcDbVertex
100
AcDb2dVertex
 10
198.9999999999999
 20
38.5
 30
0
  0
VERTEX
  5
59
100
AcDbEntity
  8
s005-#def-solid-edge
  6
CONTINUOUS
 62
    7
420
    0
370
   40
100
AcDbVertex
100
AcDb2dVertex
 10
210.2499999999999
 20
38.5
 30
0
  0
SEQEND
  5
5A
100
AcDbEntity
  8
s005-#def-solid-edge
  6
CONTINUOUS
 62
    7
420
    0
370
   40
  0
POLYLINE
  5
5B
100
AcDbEntity
  8
s005-#def-solid-edge
  6
CONTINUOUS
 62
    7
420
    0
370
   40
100
AcDb2dPolyline
 10
0
 20
0
 30
0
 70
    0
  0
VERTEX
  5
5C
100
AcDbEntity
  8
s005-#def-solid-edge
  6
CONTINUOUS
 62
    7
420
    0
370
   40
100
AcDbVertex
100
AcDb2dVertex
 10
225.6772486205415
 20
24.5
 30
0
  0
VERTEX
  5
5D
100
AcDbEntity
  8
s005-#def-solid-edge
  6
CONTINUOUS
 62
    7
420
    0
370
   40
100
AcDbVertex
100
AcDb2dVertex
 10
267.5
 20
24.49999999999999
 30
0
  0
VERTEX
  5
5E
100
AcDbEntity
  8
s005-#def-solid-edge
  6
CONTINUOUS
 62
    7
420
    0
370
   40
100
AcDbVertex
100
AcDb2dVertex
 10
309.3227513794585
 20
24.49999999999999
 30
0
  0
SEQEND
  5
5F
100
AcDbEntity
  8
s005-#def-solid-edge
  6
CONTINUOUS
 62
    7
420
    0
370
   40
  0
POLYLINE
  5
60
100
AcDbEntity
  8
s005-#def-solid-edge
  6
CONTINUOUS
 62
    7
420
    0
370
   40
100
AcDb2dPolyline
 10
0
 20
0
 30
0
 70
    0
  0
VERTEX
  5
61
100
AcDbEntity
  8
s005-#def-solid-edge
  6
CONTINUOUS
 62
    7
420
    0
370
   40
100
AcDbVertex
100
AcDb2dVertex
 10
324.75
 20
38.49999999999999
 30
0
  0
VERTEX
  5
62
100
AcDbEntity
  8
s005-#def-solid-edge
  6
CONTINUOUS
 62
    7
420
    0
370
   40
100
AcDbVertex
100
AcDb2dVertex
 10
336
 20
38.49999999999999
 30
0
  0
VERTEX
  5
63
100
AcDbEntity
  8
s005-#def-solid-edge
  6
CONTINUOUS
 62
    7
420
    0
370
   40
100
AcDbVertex
100
AcDb2dVertex
 10
336
 20
92.99999999999999
 30
0
  0
VERTEX
  5
64
100
AcDbEntity
  8
s005-#def-solid-edge
  6
CONTINUOUS
 62
    7
420
    0
370
   40
100
AcDbVertex
100
AcDb2dVertex
 10
336
 20
147.5
 30
0
  0
VERTEX
  5
65
100
AcDbEntity
  8
s005-#def-solid-edge
  6
CONTINUOUS
 62
    7
420
    0
370
   40
100
AcDbVertex
100
AcDb2dVertex
 10
324.75
 20
147.5
 30
0
  0
SEQEND
  5
66
100
AcDbEntity
  8
s005-#def-solid-edge
  6
CONTINUOUS
 62
    7
420
    0
370
   40
  0
POLYLINE
  5
67
100
AcDbEntity
  8
s005-#def-solid-edge
  6
CONTINUOUS
 62
    7
420
    0
370
   40
100
AcDb2dPolyline
 10
0
 20
0
 30
0
 70
    0
  0
VERTEX
  5
68
100
AcDbEntity
  8
s005-#def-solid-edge
  6
CONTINUOUS
 62
    7
420
    0
370
   40
100
AcDbVertex
100
AcDb2dVertex
 10
449.3227513794585
 20
161.5
 30
0
  0
VERTEX
  5
69
100
AcDbEntity
  8
s005-#def-solid-edge
  6
CONTINUOUS
 62
    7
420
    0
370
   40
100
AcDbVertex
100
AcDb2dVertex
 10
407.5
 20
161.5
 30
0
  0
VERTEX
  5
6A
100
AcDbEntity
  8
s005-#def-solid-edge
  6
CONTINUOUS
 62
    7
420
    0
370
   40
100
AcDbVertex
100
AcDb2dVertex
 10
365.6772486205415
 20
161.5
 30
0
  0
SEQEND
  5
6B
100
AcDbEntity
  8
s005-#def-solid-edge
  6
CONTINUOUS
 62
    7
420
    0
370
   40
  0
POLYLINE
  5
6C
100
AcDbEntity
  8
s005-#def-solid-edge
  6
CONTINUOUS
 62
    7
420
    0
370
   40
100
AcDb2dPolyline
 10
0
 20
0
 30
0
 70
    0
  0
VERTEX
  5
6D
100
AcDbEntity
  8
s005-#def-solid-edge
  6
CONTINUOUS
 62
    7
420
    0
370
   40
100
AcDbVertex
100
AcDb2dVertex
 10
350.25
 20
147.5
 30
0
  0
VERTEX
  5
6E
100
AcDbEntity
  8
s005-#def-solid-edge
  6
CONTINUOUS
 62
    7
420
    0
370
   40
100
AcDbVertex
100
AcDb2dVertex
 10
339
 20
147.5
 30
0
  0
VERTEX
  5
6F
100
AcDbEntity
  8
s005-#def-solid-edge
  6
CONTINUOUS
 62
    7
420
    0
370
   40
100
AcDbVertex
100
AcDb2dVertex
 10
339
 20
92.99999999999999
 30
0
  0
VERTEX
  5
70
100
AcDbEntity
  8
s005-#def-solid-edge
  6
CONTINUOUS
 62
    7
420
    0
370
   40
100
AcDbVertex
100
AcDb2dVertex
 10
339
 20
38.49999999999999
 30
0
  0
VERTEX
  5
71
100
AcDbEntity
  8
s005-#def-solid-edge
  6
CONTINUOUS
 62
    7
420
    0
370
   40
100
AcDbVertex
100
AcDb2dVertex
 10
350.25
 20
38.49999999999999
 30
0
  0
SEQEND
  5
72
100
AcDbEntity
  8
s005-#def-solid-edge
  6
CONTINUOUS
 62
    7
420
    0
370
   40
  0
POLYLINE
  5
73
100
AcDbEntity
  8
s005-#def-solid-edge
  6
CONTINUOUS
 62
    7
420
    0
370
   40
100
AcDb2dPolyline
 10
0
 20
0
 30
0
 70
    0
  0
VERTEX
  5
74
100
AcDbEntity
  8
s005-#def-solid-edge
  6
CONTINUOUS
 62
    7
420
    0
370
   40
100
AcDbVertex
100
AcDb2dVertex
 10
365.6772486205415
 20
24.49999999999999
 30
0
  0
VERTEX
  5
75
100
AcDbEntity
  8
s005-#def-solid-edge
  6
CONTINUOUS
 62
    7
420
    0
370
   40
100
AcDbVertex
100
AcDb2dVertex
 10
407.5000000000001
 20
24.49999999999998
 30
0
  0
VERTEX
  5
76
100
AcDbEntity
  8
s005-#def-solid-edge
  6
CONTINUOUS
 62
    7
420
    0
370
   40
100
AcDbVertex
100
AcDb2dVertex
 10
449.3227513794585
 20
24.49999999999998
 30
0
  0
SEQEND
  5
77
100
AcDbEntity
  8
s005-#def-solid-edge
  6
CONTINUOUS
 62
    7
420
    0
370
   40
  0
POLYLINE
  5
78
100
AcDbEntity
  8
s005-#def-solid-edge
  6
CONTINUOUS
 62
    7
420
    0
370
   40
100
AcDb2dPolyline
 10
0
 20
0
 30
0
 70
    0
  0
VERTEX
  5
79
100
AcDbEntity
  8
s005-#def-solid-edge
  6
CONTINUOUS
 62
    7
420
    0
370
   40
100
AcDbVertex
100
AcDb2dVertex
 10
464.7500000000001
 20
38.49999999999998
 30
0
  0
VERTEX
  5
7A
100
AcDbEntity
  8
s005-#def-solid-edge
  6
CONTINUOUS
 62
    7
420
    0
370
   40
100
AcDbVertex
100
AcDb2dVertex
 10
476.0000000000001
 20
38.49999999999998
 30
0
  0
VERTEX
  5
7B
100
AcDbEntity
  8
s005-#def-solid-edge
  6
CONTINUOUS
 62
    7
420
    0
370
   40
100
AcDbVertex
100
AcDb2dVertex
 10
476.0000000000001
 20
92.99999999999999
 30
0
  0
VERTEX
  5
7C
100
AcDbEntity
  8
s005-#def-solid-edge
  6
CONTINUOUS
 62
    7
420
    0
370
   40
100
AcDbVertex
100
AcDb2dVertex
 10
476.0000000000001
 20
147.5
 30
0
  0
VERTEX
  5
7D
100
AcDbEntity
  8
s005-#def-solid-edge
  6
CONTINUOUS
 62
    7
420
    0
370
   40
100
AcDbVertex
100
AcDb2dVertex
 10
464.7500000000001
 20
147.5
 30
0
  0
SEQEND
  5
7E
100
AcDbEntity
  8
s005-#def-solid-edge
  6
CONTINUOUS
 62
    7
420
    0
370
   40
  0
POLYLINE
  5
7F
100
AcDbEntity
  8
s005-#def-solid-edge
  6
CONTINUOUS
 62
    7
420
    0
370
   40
100
AcDb2dPolyline
 10
0
 20
0
 30
0
 70
    0
  0
VERTEX
  5
80
100
AcDbEntity
  8
s005-#def-solid-edge
  6
CONTINUOUS
 62
    7
420
    0
370
   40
100
AcDbVertex
100
AcDb2dVertex
 10
490.2500000000001
 20
147.5
 30
0
  0
VERTEX
  5
81
100
AcDbEntity
  8
s005-#def-solid-edge
  6
CONTINUOUS
 62
    7
420
    0
370
   40
100
AcDbVertex
100
AcDb2dVertex
 10
479.0000000000001
 20
147.5
 30
0
  0
VERTEX
  5
82
100
AcDbEntity
  8
s005-#def-solid-edge
  6
CONTINUOUS
 62
    7
420
    0
370
   40
100
AcDbVertex
100
AcDb2dVertex
 10
479.0000000000001
 20
92.99999999999997
 30
0
  0
VERTEX
  5
83
100
AcDbEntity
  8
s005-#def-solid-edge
  6
CONTINUOUS
 62
    7
420
    0
370
   40
100
AcDbVertex
100
AcDb2dVertex
 10
479.0000000000001
 20
38.49999999999998
 30
0
  0
VERTEX
  5
84
100
AcDbEntity
  8
s005-#def-solid-edge
  6
CONTINUOUS
 62
    7
420
    0
370
   40
100
AcDbVertex
100
AcDb2dVertex
 10
490.2500000000001
 20
38.49999999999998
 30
0
  0
SEQEND
  5
85
100
AcDbEntity
  8
s005-#def-solid-edge
  6
CONTINUOUS
 62
    7
420
    0
370
   40
  0
POLYLINE
  5
86
100
AcDbEntity
  8
s005-#def-solid-edge
  6
CONTINUOUS
 62
    7
420
    0
370
   40
100
AcDb2dPolyline
 10
0
 20
0
 30
0
 70
    0
  0
VERTEX
  5
87
100
AcDbEntity
  8
s005-#def-solid-edge
  6
CONTINUOUS
 62
    7
420
    0
370
   40
100
AcDbVertex
100
AcDb2dVertex
 10
505.6772486205416
 20
24.49999999999998
 30
0
  0
VERTEX
  5
88
100
AcDbEntity
  8
s005-#def-solid-edge
  6
CONTINUOUS
 62
    7
420
    0
370
   40
100
AcDbVertex
100
AcDb2dVertex
 10
547.5
 20
24.49999999999997
 30
0
  0
VERTEX
  5
89
100
AcDbEntity
  8
s005-#def-solid-edge
  6
CONTINUOUS
 62
    7
420
    0
370
   40
100
AcDbVertex
100
AcDb2dVertex
 10
597.5
 20
24.49999999999994
 30
0
  0
SEQEND
  5
8A
100
AcDbEntity
  8
s005-#def-solid-edge
  6
CONTINUOUS
 62
    7
420
    0
370
   40
  0
POLYLINE
  5
8B
100
AcDbEntity
  8
s005-#def-solid-edge
  6
CONTINUOUS
 62
    7
420
    0
370
   40
100
AcDb2dPolyline
 10
0
 20
0
 30
0
 70
    0
  0
VERTEX
  5
8C
100
AcDbEntity
  8
s005-#def-solid-edge
  6
CONTINUOUS
 62
    7
420
    0
370
   40
100
AcDbVertex
100
AcDb2dVertex
 10
597.5
 20
161.4999999999999
 30
0
  0
VERTEX
  5
8D
100
AcDbEntity
  8
s005-#def-solid-edge
  6
CONTINUOUS
 62
    7
420
    0
370
   40
100
AcDbVertex
100
AcDb2dVertex
 10
547.5
 20
161.5
 30
0
  0
VERTEX
  5
8E
100
AcDbEntity
  8
s005-#def-solid-edge
  6
CONTINUOUS
 62
    7
420
    0
370
   40
100
AcDbVertex
100
AcDb2dVertex
 10
505.6772486205416
 20
161.5
 30
0
  0
SEQEND
  5
8F
100
AcDbEntity
  8
s005-#def-solid-edge
  6
CONTINUOUS
 62
    7
420
    0
370
   40
  0
POLYLINE
  5
90
100
AcDbEntity
  8
s005-#def-solid-edge
  6
CONTINUOUS
 62
    7
420
    0
370
   40
100
AcDb2dPolyline
 10
0
 20
0
 30
0
 70
    0
  0
VERTEX
  5
91
100
AcDbEntity
  8
s005-#def-solid-edge
  6
CONTINUOUS
 62
    7
420
    0
370
   40
100
AcDbVertex
100
AcDb2dVertex
 10
184.75
 20
199.4999999999999
 30
0
  0
VERTEX
  5
92
100
AcDbEntity
  8
s005-#def-solid-edge
  6
CONTINUOUS
 62
    7
420
    0
370
   40
100
AcDbVertex
100
AcDb2dVertex
 10
196
 20
199.4999999999999
 30
0
  0
VERTEX
  5
93
100
AcDbEntity
  8
s005-#def-solid-edge
  6
CONTINUOUS
 62
    7
420
    0
370
   40
100
AcDbVertex
100
AcDb2dVertex
 10
196
 20
253.9999999999999
 30
0
  0
VERTEX
  5
94
100
AcDbEntity
  8
s005-#def-solid-edge
  6
CONTINUOUS
 62
    7
420
    0
370
   40
100
AcDbVertex
100
AcDb2dVertex
 10
196
 20
308.5
 30
0
  0
VERTEX
  5
95
100
AcDbEntity
  8
s005-#def-solid-edge
  6
CONTINUOUS
 62
    7
420
    0
370
   40
100
AcDbVertex
100
AcDb2dVertex
 10
184.75
 20
308.5
 30
0
  0
SEQEND
  5
96
100
AcDbEntity
  8
s005-#def-solid-edge
  6
CONTINUOUS
 62
    7
420
    0
370
   40
  0
POLYLINE
  5
97
100
AcDbEntity
  8
s005-#def-solid-edge
  6
CONTINUOUS
 62
    7
420
    0
370
   40
100
AcDb2dPolyline
 10
0
 20
0
 30
0
 70
    0
  0
VERTEX
  5
98
100
AcDbEntity
  8
s005-#def-solid-edge
  6
CONTINUOUS
 62
    7
420
    0
370
   40
100
AcDbVertex
100
AcDb2dVertex
 10
169.3227513794585
 20
322.5
 30
0
  0
VERTEX
  5
99
100
AcDbEntity
  8
s005-#def-solid-edge
  6
CONTINUOUS
 62
    7
420
    0
370
   40
100
AcDbVertex
100
AcDb2dVertex
 10
127.5
 20
322.5
 30
0
  0
VERTEX
  5
9A
100
AcDbEntity
  8
s005-#def-solid-edge
  6
CONTINUOUS
 62
    7
420
    0
370
   40
100
AcDbVertex
100
AcDb2dVertex
 10
77.50000000000001
 20
322.5
 30
0
  0
SEQEND
  5
9B
100
AcDbEntity
  8
s005-#def-solid-edge
  6
CONTINUOUS
 62
    7
420
    0
370
   40
  0
POLYLINE
  5
9C
100
AcDbEntity
  8
s005-#def-solid-edge
  6
CONTINUOUS
 62
    7
420
    0
370
   40
100
AcDb2dPolyline
 10
0
 20
0
 30
0
 70
    0
  0
VERTEX
  5
9D
100
AcDbEntity
  8
s005-#def-solid-edge
  6
CONTINUOUS
 62
    7
420
    0
370
   40
100
AcDbVertex
100
AcDb2dVertex
 10
77.50000000000001
 20
185.5
 30
0
  0
VERTEX
  5
9E
100
AcDbEntity
  8
s005-#def-solid-edge
  6
CONTINUOUS
 62
    7
420
    0
370
   40
100
AcDbVertex
100
AcDb2dVertex
 10
127.5
 20
185.4999999999999
 30
0
  0
VERTEX
  5
9F
100
AcDbEntity
  8
s005-#def-solid-edge
  6
CONTINUOUS
 62
    7
420
    0
370
   40
100
AcDbVertex
100
AcDb2dVertex
 10
169.3227513794585
 20
185.4999999999999
 30
0
  0
SEQEND
  5
A0
100
AcDbEntity
  8
s005-#def-solid-edge
  6
CONTINUOUS
 62
    7
420
    0
370
   40
  0
POLYLINE
  5
A1
100
AcDbEntity
  8
s005-#def-solid-edge
  6
CONTINUOUS
 62
    7
420
    0
370
   40
100
AcDb2dPolyline
 10
0
 20
0
 30
0
 70
    0
  0
VERTEX
  5
A2
100
AcDbEntity
  8
s005-#def-solid-edge
  6
CONTINUOUS
 62
    7
420
    0
370
   40
100
AcDbVertex
100
AcDb2dVertex
 10
309.3227513794586
 20
322.4999999999999
 30
0
  0
VERTEX
  5
A3
100
AcDbEntity
  8
s005-#def-solid-edge
  6
CONTINUOUS
 62
    7
420
    0
370
   40
100
AcDbVertex
100
AcDb2dVertex
 10
267.5
 20
322.5
 30
0
  0
VERTEX
  5
A4
100
AcDbEntity
  8
s005-#def-solid-edge
  6
CONTINUOUS
 62
    7
420
    0
370
   40
100
AcDbVertex
100
AcDb2dVertex
 10
225.6772486205415
 20
322.5
 30
0
  0
SEQEND
  5
A5
100
AcDbEntity
  8
s005-#def-solid-edge
  6
CONTINUOUS
 62
    7
420
    0
370
   40
  0
POLYLINE
  5
A6
100
AcDbEntity
  8
s005-#def-solid-edge
  6
CONTINUOUS
 62
    7
420
    0
370
   40
100
AcDb2dPolyline
 10
0
 20
0
 30
0
 70
    0
  0
VERTEX
  5
A7
100
AcDbEntity
  8
s005-#def-solid-edge
  6
CONTINUOUS
 62
    7
420
    0
370
   40
100
AcDbVertex
100
AcDb2dVertex
 10
210.25
 20
308.5
 30
0
  0
VERTEX
  5
A8
100
AcDbEntity
  8
s005-#def-solid-edge
  6
CONTINUOUS
 62
    7
420
    0
370
   40
100
AcDbVertex
100
AcDb2dVertex
 10
199
 20
308.5
 30
0
  0
VERTEX
  5
A9
100
AcDbEntity
  8
s005-#def-solid-edge
  6
CONTINUOUS
 62
    7
420
    0
370
   40
100
AcDbVertex
100
AcDb2dVertex
 10
199
 20
253.9999999999999
 30
0
  0
VERTEX
  5
AA
100
AcDbEntity
  8
s005-#def-solid-edge
  6
CONTINUOUS
 62
    7
420
    0
370
   40
100
AcDbVertex
100
AcDb2dVertex
 10
199
 20
199.4999999999999
 30
0
  0
VERTEX
  5
AB
100
AcDbEntity
  8
s005-#def-solid-edge
  6
CONTINUOUS
 62
    7
420
    0
370
   40
100
AcDbVertex
100
AcDb2dVertex
 10
210.25
 20
199.4999999999999
 30
0
  0
SEQEND
  5
AC
100
AcDbEntity
  8
s005-#def-solid-edge
  6
CONTINUOUS
 62
    7
420
    0
370
   40
  0
POLYLINE
  5
AD
100
AcDbEntity
  8
s005-#def-solid-edge
  6
CONTINUOUS
 62
    7
420
    0
370
   40
100
AcDb2dPolyline
 10
0
 20
0
 30
0
 70
    0
  0
VERTEX
  5
AE
100
AcDbEntity
  8
s005-#def-solid-edge
  6
CONTINUOUS
 62
    7
420
    0
370
   40
100
AcDbVertex
100
AcDb2dVertex
 10
225.6772486205415
 20
185.4999999999999
 30
0
  0
VERTEX
  5
AF
100
AcDbEntity
  8
s005-#def-solid-edge
  6
CONTINUOUS
 62
    7
420
    0
370
   40
100
AcDbVertex
100
AcDb2dVertex
 10
267.5000000000001
 20
185.4999999999999
 30
0
  0
VERTEX
  5
B0
100
AcDbEntity
  8
s005-#def-solid-edge
  6
CONTINUOUS
 62
    7
420
    0
370
   40
100
AcDbVertex
100
AcDb2dVertex
 10
309.3227513794586
 20
185.4999999999999
 30
0
  0
SEQEND
  5
B1
100
AcDbEntity
  8
s005-#def-solid-edge
  6
CONTINUOUS
 62
    7
420
    0
370
   40
  0
POLYLINE
  5
B2
100
AcDbEntity
  8
s005-#def-solid-edge
  6
CONTINUOUS
 62
    7
420
    0
370
   40
100
AcDb2dPolyline
 10
0
 20
0
 30
0
 70
    0
  0
VERTEX
  5
B3
100
AcDbEntity
  8
s005-#def-solid-edge
  6
CONTINUOUS
 62
    7
420
    0
370
   40
100
AcDbVertex
100
AcDb2dVertex
 10
324.7500000000001
 20
199.4999999999999
 30
0
  0
VERTEX
  5
B4
100
AcDbEntity
  8
s005-#def-solid-edge
  6
CONTINUOUS
 62
    7
420
    0
370
   40
100
AcDbVertex
100
AcDb2dVertex
 10
336.0000000000001
 20
199.4999999999999
 30
0
  0
VERTEX
  5
B5
100
AcDbEntity
  8
s005-#def-solid-edge
  6
CONTINUOUS
 62
    7
420
    0
370
   40
100
AcDbVertex
100
AcDb2dVertex
 10
336.0000000000001
 20
253.9999999999999
 30
0
  0
VERTEX
  5
B6
100
AcDbEntity
  8
s005-#def-solid-edge
  6
CONTINUOUS
 62
    7
420
    0
370
   40
100
AcDbVertex
100
AcDb2dVertex
 10
336.0000000000001
 20
308.4999999999999
 30
0
  0
VERTEX
  5
B7
100
AcDbEntity
  8
s005-#def-solid-edge
  6
CONTINUOUS
 62
    7
420
    0
370
   40
100
AcDbVertex
100
AcDb2dVertex
 10
324.7500000000001
 20
308.4999999999999
 30
0
  0
SEQEND
  5
B8
100
AcDbEntity
  8
s005-#def-solid-edge
  6
CONTINUOUS
 62
    7
420
    0
370
   40
  0
POLYLINE
  5
B9
100
AcDbEntity
  8
s005-#def-solid-edge
  6
CONTINUOUS
 62
    7
420
    0
370
   40
100
AcDb2dPolyline
 10
0
 20
0
 30
0
 70
    0
  0
VERTEX
  5
BA
100
AcDbEntity
  8
s005-#def-solid-edge
  6
CONTINUOUS
 62
    7
420
    0
370
   40
100
AcDbVertex
100
AcDb2dVertex
 10
449.3227513794586
 20
322.4999999999999
 30
0
  0
VERTEX
  5
BB
100
AcDbEntity
  8
s005-#def-solid-edge
  6
CONTINUOUS
 62
    7
420
    0
370
   40
100
AcDbVertex
100
AcDb2dVertex
 10
407.5000000000001
 20
322.4999999999999
 30
0
  0
VERTEX
  5
BC
100
AcDbEntity
  8
s005-#def-solid-edge
  6
CONTINUOUS
 62
    7
420
    0
370
   40
100
AcDbVertex
100
AcDb2dVertex
 10
365.6772486205415
 20
322.4999999999999
 30
0
  0
SEQEND
  5
BD
100
AcDbEntity
  8
s005-#def-solid-edge
  6
CONTINUOUS
 62
    7
420
    0
370
   40
  0
POLYLINE
  5
BE
100
AcDbEntity
  8
s005-#def-solid-edge
  6
CONTINUOUS
 62
    7
420
    0
370
   40
100
AcDb2dPolyline
 10
0
 20
0
 30
0
 70
    0
  0
VERTEX
  5
BF
100
AcDbEntity
  8
s005-#def-solid-edge
  6
CONTINUOUS
 62
    7
420
    0
370
   40
100
AcDbVertex
100
AcDb2dVertex
 10
350.2500000000001
 20
308.4999999999999
 30
0
  0
VERTEX
  5
C0
100
AcDbEntity
  8
s005-#def-solid-edge
  6
CONTINUOUS
 62
    7
420
    0
370
   40
100
AcDbVertex
100
AcDb2dVertex
 10
339.0000000000001
 20
308.4999999999999
 30
0
  0
VERTEX
  5
C1
100
AcDbEntity
  8
s005-#def-solid-edge
  6
CONTINUOUS
 62
    7
420
    0
370
   40
100
AcDbVertex
100
AcDb2dVertex
 10
339.0000000000001
 20
253.9999999999999
 30
0
  0
VERTEX
  5
C2
100
AcDbEntity
  8
s005-#def-solid-edge
  6
CONTINUOUS
 62
    7
420
    0
370
   40
100
AcDbVertex
100
AcDb2dVertex
 10
339.0000000000001
 20
199.4999999999999
 30
0
  0
VERTEX
  5
C3
100
AcDbEntity
  8
s005-#def-solid-edge
  6
CONTINUOUS
 62
    7
420
    0
370
   40
100
AcDbVertex
100
AcDb2dVertex
 10
350.2500000000001
 20
199.4999999999999
 30
0
  0
SEQEND
  5
C4
100
AcDbEntity
  8
s005-#def-solid-edge
  6
CONTINUOUS
 62
    7
420
    0
370
   40
  0
POLYLINE
  5
C5
100
AcDbEntity
  8
s005-#def-solid-edge
  6
CONTINUOUS
 62
    7
420
    0
370
   40
100
AcDb2dPolyline
 10
0
 20
0
 30
0
 70
    0
  0
VERTEX
  5
C6
100
AcDbEntity
  8
s005-#def-solid-edge
  6
CONTINUOUS
 62
    7
420
    0
370
   40
100
AcDbVertex
100
AcDb2dVertex
 10
365.6772486205415
 20
185.4999999999999
 30
0
  0
VERTEX
  5
C7
100
AcDbEntity
  8
s005-#def-solid-edge
  6
CONTINUOUS
 62
    7
420
    0
370
   40
100
AcDbVertex
100
AcDb2dVertex
 10
407.5000000000001
 20
185.4999999999999
 30
0
  0
VERTEX
  5
C8
100
AcDbEntity
  8
s005-#def-solid-edge
  6
CONTINUOUS
 62
    7
420
    0
370
   40
100
AcDbVertex
100
AcDb2dVertex
 10
449.3227513794586
 20
185.4999999999999
 30
0
  0
SEQEND
  5
C9
100
AcDbEntity
  8
s005-#def-solid-edge
  6
CONTINUOUS
 62
    7
420
    0
370
   40
  0
POLYLINE
  5
CA
100
AcDbEntity
  8
s005-#def-solid-edge
  6
CONTINUOUS
 62
    7
420
    0
370
   40
100
AcDb2dPolyline
 10
0
 20
0
 30
0
 70
    0
  0
VERTEX
  5
CB
100
AcDbEntity
  8
s005-#def-solid-edge
  6
CONTINUOUS
 62
    7
420
    0
370
   40
100
AcDbVertex
100
AcDb2dVertex
 10
464.7500000000001
 20
199.4999999999999
 30
0
  0
VERTEX
  5
CC
100
AcDbEntity
  8
s005-#def-solid-edge
  6
CONTINUOUS
 62
    7
420
    0
370
   40
100
AcDbVertex
100
AcDb2dVertex
 10
476.0000000000001
 20
199.4999999999999
 30
0
  0
VERTEX
  5
CD
100
AcDbEntity
  8
s005-#def-solid-edge
  6
CONTINUOUS
 62
    7
420
    0
370
   40
100
AcDbVertex
100
AcDb2dVertex
 10
476.0000000000001
 20
253.9999999999999
 30
0
  0
VERTEX
  5
CE
100
AcDbEntity
  8
s005-#def-solid-edge
  6
CONTINUOUS
 62
    7
420
    0
370
   40
100
AcDbVertex
100
AcDb2dVertex
 10
476.0000000000001
 20
308.4999999999999
 30
0
  0
VERTEX
  5
CF
100
AcDbEntity
  8
s005-#def-solid-edge
  6
CONTINUOUS
 62
    7
420
    0
370
   40
100
AcDbVertex
100
AcDb2dVertex
 10
464.7500000000001
 20
308.4999999999999
 30
0
  0
SEQEND
  5
D0
100
AcDbEntity
  8
s005-#def-solid-edge
  6
CONTINUOUS
 62
    7
420
    0
370
   40
  0
POLYLINE
  5
D1
100
AcDbEntity
  8
s005-#def-solid-edge
  6
CONTINUOUS
 62
    7
420
    0
370
   40
100
AcDb2dPolyline
 10
0
 20
0
 30
0
 70
    0
  0
VERTEX
  5
D2
100
AcDbEntity
  8
s005-#def-solid-edge
  6
CONTINUOUS
 62
    7
420
    0
370
   40
100
AcDbVertex
100
AcDb2dVertex
 10
490.2500000000001
 20
308.4999999999999
 30
0
  0
VERTEX
  5
D3
100
AcDbEntity
  8
s005-#def-solid-edge
  6
CONTINUOUS
 62
    7
420
    0
370
   40
100
AcDbVertex
100
AcDb2dVertex
 10
479.0000000000001
 20
308.4999999999999
 30
0
  0
VERTEX
  5
D4
100
AcDbEntity
  8
s005-#def-solid-edge
  6
CONTINUOUS
 62
    7
420
    0
370
   40
100
AcDbVertex
100
AcDb2dVertex
 10
479.0000000000001
 20
253.9999999999999
 30
0
  0
VERTEX
  5
D5
100
AcDbEntity
  8
s005-#def-solid-edge
  6
CONTINUOUS
 62
    7
420
    0
370
   40
100
AcDbVertex
100
AcDb2dVertex
 10
479.0000000000001
 20
199.4999999999999
 30
0
  0
VERTEX
  5
D6
100
AcDbEntity
  8
s005-#def-solid-edge
  6
CONTINUOUS
 62
    7
420
    0
370
   40
100
AcDbVertex
100
AcDb2dVertex
 10
490.2500000000001
 20
199.4999999999999
 30
0
  0
SEQEND
  5
D7
100
AcDbEntity
  8
s005-#def-solid-edge
  6
CONTINUOUS
 62
    7
420
    0
370
   40
  0
POLYLINE
  5
D8
100
AcDbEntity
  8
s005-#def-solid-edge
  6
CONTINUOUS
 62
    7
420
    0
370
   40
100
AcDb2dPolyline
 10
0
 20
0
 30
0
 70
    0
  0
VERTEX
  5
D9
100
AcDbEntity
  8
s005-#def-solid-edge
  6
CONTINUOUS
 62
    7
420
    0
370
   40
100
AcDbVertex
100
AcDb2dVertex
 10
505.6772486205417
 20
185.4999999999999
 30
0
  0
VERTEX
  5
DA
100
AcDbEntity
  8
s005-#def-solid-edge
  6
CONTINUOUS
 62
    7
420
    0
370
   40
100
AcDbVertex
100
AcDb2dVertex
 10
547.5000000000001
 20
185.5
 30
0
  0
VERTEX
  5
DB
100
AcDbEntity
  8
s005-#def-solid-edge
  6
CONTINUOUS
 62
    7
420
    0
370
   40
100
AcDbVertex
100
AcDb2dVertex
 10
597.5000000000001
 20
185.4999999999999
 30
0
  0
SEQEND
  5
DC
100
AcDbEntity
  8
s005-#def-solid-edge
  6
CONTINUOUS
 62
    7
420
    0
370
   40
  0
POLYLINE
  5
DD
100
AcDbEntity
  8
s005-#def-solid-edge
  6
CONTINUOUS
 62
    7
420
    0
370
   40
100
AcDb2dPolyline
 10
0
 20
0
 30
0
 70
    0
  0
VERTEX
  5
DE
100
AcDbEntity
  8
s005-#def-solid-edge
  6
CONTINUOUS
 62
    7
420
    0
370
   40
100
AcDbVertex
100
AcDb2dVertex
 10
597.5000000000001
 20
322.4999999999999
 30
0
  0
VERTEX
  5
DF
100
AcDbEntity
  8
s005-#def-solid-edge
  6
CONTINUOUS
 62
    7
420
    0
370
   40
100
AcDbVertex
100
AcDb2dVertex
 10
547.5000000000001
 20
322.4999999999999
 30
0
  0
VERTEX
  5
E0
100
AcDbEntity
  8
s005-#def-solid-edge
  6
CONTINUOUS
 62
    7
420
    0
370
   40
100
AcDbVertex
100
AcDb2dVertex
 10
505.6772486205417
 20
322.4999999999999
 30
0
  0
SEQEND
  5
E1
100
AcDbEntity
  8
s005-#def-solid-edge
  6
CONTINUOUS
 62
    7
420
    0
370
   40
  0
POLYLINE
  5
E2
100
AcDbEntity
  8
s005-#def-solid-edge
  6
CONTINUOUS
 62
    7
420
    0
370
   40
100
AcDb2dPolyline
 10
0
 20
0
 30
0
 70
    0
  0
VERTEX
  5
E3
100
AcDbEntity
  8
s005-#def-solid-edge
  6
CONTINUOUS
 62
    7
420
    0
370
   40
100
AcDbVertex
100
AcDb2dVertex
 10
1.794052060778241e-44
 20
-2.500621369534968e-37
 30
0
  0
VERTEX
  5
E4
100
AcDbEntity
  8
s005-#def-solid-edge
  6
CONTINUOUS
 62
    7
420
    0
370
   40
100
AcDbVertex
100
AcDb2dVertex
 10
700
 20
1.42956220593474e-36
 30
0
  0
VERTEX
  5
E5
100
AcDbEntity
  8
s005-#def-solid-edge
  6
CONTINUOUS
 62
    7
420
    0
370
   40
100
AcDbVertex
100
AcDb2dVertex
 10
700
 20
347
 30
0
  0
VERTEX
  5
E6
100
AcDbEntity
  8
s005-#def-solid-edge
  6
CONTINUOUS
 62
    7
420
    0
370
   40
100
AcDbVertex
100
AcDb2dVertex
 10
5.705147591792216e-43
 20
347
 30
0
  0
VERTEX
  5
E7
100
AcDbEntity
  8
s005-#def-solid-edge
  6
CONTINUOUS
 62
    7
420
    0
370
   40
100
AcDbVertex
100
AcDb2dVertex
 10
1.794052060778241e-44
 20
-2.500621369534968e-37
 30
0
  0
SEQEND
  5
E8
100
AcDbEntity
  8
s005-#def-solid-edge
  6
CONTINUOUS
 62
    7
420
    0
370
   40
  0
POLYLINE
  5
E9
100
AcDbEntity
  8
s005-#def-solid-edge
  6
CONTINUOUS
 62
    7
420
    0
370
   40
100
AcDb2dPolyline
 10
0
 20
0
 30
0
 70
    0
  0
VERTEX
  5
EA
100
AcDbEntity
  8
s005-#def-solid-edge
  6
CONTINUOUS
 62
    7
420
    0
370
   40
100
AcDbVertex
100
AcDb2dVertex
 10
57.5
 20
324
 30
0
  0
VERTEX
  5
EB
100
AcDbEntity
  8
s005-#def-solid-edge
  6
CONTINUOUS
 62
    7
420
    0
370
   40
100
AcDbVertex
100
AcDb2dVertex
 10
617.5
 20
324
 30
0
  0
VERTEX
  5
EC
100
AcDbEntity
  8
s005-#def-solid-edge
  6
CONTINUOUS
 62
    7
420
    0
370
   40
100
AcDbVertex
100
AcDb2dVertex
 10
617.5
 20
184
 30
0
  0
VERTEX
  5
ED
100
AcDbEntity
  8
s005-#def-solid-edge
  6
CONTINUOUS
 62
    7
420
    0
370
   40
100
AcDbVertex
100
AcDb2dVertex
 10
57.5
 20
184
 30
0
  0
VERTEX
  5
EE
100
AcDbEntity
  8
s005-#def-solid-edge
  6
CONTINUOUS
 62
    7
420
    0
370
   40
100
AcDbVertex
100
AcDb2dVertex
 10
57.5
 20
324
 30
0
  0
SEQEND
  5
EF
100
AcDbEntity
  8
s005-#def-solid-edge
  6
CONTINUOUS
 62
    7
420
    0
370
   40
  0
POLYLINE
  5
F0
100
AcDbEntity
  8
s005-#def-solid-edge
  6
CONTINUOUS
 62
    7
420
    0
370
   40
100
AcDb2dPolyline
 10
0
 20
0
 30
0
 70
    0
  0
VERTEX
  5
F1
100
AcDbEntity
  8
s005-#def-solid-edge
  6
CONTINUOUS
 62
    7
420
    0
370
   40
100
AcDbVertex
100
AcDb2dVertex
 10
57.49999999999996
 20
163
 30
0
  0
VERTEX
  5
F2
100
AcDbEntity
  8
s005-#def-solid-edge
  6
CONTINUOUS
 62
    7
420
    0
370
   40
100
AcDbVertex
100
AcDb2dVertex
 10
617.5
 20
163
 30
0
  0
VERTEX
  5
F3
100
AcDbEntity
  8
s005-#def-solid-edge
  6
CONTINUOUS
 62
    7
420
    0
370
   40
100
AcDbVertex
100
AcDb2dVertex
 10
617.5
 20
23
 30
0
  0
VERTEX
  5
F4
100
AcDbEntity
  8
s005-#def-solid-edge
  6
CONTINUOUS
 62
    7
420
    0
370
   40
100
AcDbVertex
100
AcDb2dVertex
 10
57.49999999999996
 20
23
 30
0
  0
VERTEX
  5
F5
100
AcDbEntity
  8
s005-#def-solid-edge
  6
CONTINUOUS
 62
    7
420
    0
370
   40
100
AcDbVertex
100
AcDb2dVertex
 10
57.49999999999996
 20
163
 30
0
  0
SEQEND
  5
F6
100
AcDbEntity
  8
s005-#def-solid-edge
  6
CONTINUOUS
 62
    7
420
    0
370
   40
  0
POLYLINE
  5
F7
100
AcDbEntity
  8
s005-#def-solid-edge
  6
CONTINUOUS
 62
    7
420
    0
370
   40
100
AcDb2dPolyline
 10
0
 20
0
 30
0
 70
    0
  0
VERTEX
  5
F8
100
AcDbEntity
  8
s005-#def-solid-edge
  6
CONTINUOUS
 62
    7
420
    0
370
   40
100
AcDbVertex
100
AcDb2dVertex
 10
653
 20
323.5
 30
0
  0
VERTEX
  5
F9
100
AcDbEntity
  8
s005-#def-solid-edge
  6
CONTINUOUS
 62
    7
420
    0
370
   40
100
AcDbVertex
100
AcDb2dVertex
 10
693
 20
323.5
 30
0
  0
VERTEX
  5
FA
100
AcDbEntity
  8
s005-#def-solid-edge
  6
CONTINUOUS
 62
    7
420
    0
370
   40
100
AcDbVertex
100
AcDb2dVertex
 10
693
 20
23.5
 30
0
  0
VERTEX
  5
FB
100
AcDbEntity
  8
s005-#def-solid-edge
  6
CONTINUOUS
 62
    7
420
    0
370
   40
100
AcDbVertex
100
AcDb2dVertex
 10
653
 20
23.5
 30
0
  0
VERTEX
  5
FC
100
AcDbEntity
  8
s005-#def-solid-edge
  6
CONTINUOUS
 62
    7
420
    0
370
   40
100
AcDbVertex
100
AcDb2dVertex
 10
653
 20
323.5
 30
0
  0
SEQEND
  5
FD
100
AcDbEntity
  8
s005-#def-solid-edge
  6
CONTINUOUS
 62
    7
420
    0
370
   40
  0
LINE
  5
FE
100
AcDbEntity
  8
s005-#def-solid-edge
  6
CONTINUOUS
 62
    7
420
    0
370
   40
100
AcDbLine
 10
58.99999999999996
 20
143
 11
58.99999999999996
 21
43
  0
LINE
  5
FF
100
AcDbEntity
  8
s005-#def-solid-edge
  6
CONTINUOUS
 62
    7
420
    0
370
   40
100
AcDbLine
 10
70.24999999999996
 20
32.9
 11
60.24999999999996
 21
32.9
  0
LINE
  5
100
100
AcDbEntity
  8
s005-#def-solid-edge
  6
CONTINUOUS
 62
    7
420
    0
370
   40
100
AcDbLine
 10
60.24999999999996
 20
28.6
 11
70.24999999999996
 21
28.6
  0
LINE
  5
101
100
AcDbEntity
  8
s005-#def-solid-edge
  6
CONTINUOUS
 62
    7
420
    0
370
   40
100
AcDbLine
 10
60.24999999999996
 20
153.1
 11
70.24999999999996
 21
153.1
  0
LINE
  5
102
100
AcDbEntity
  8
s005-#def-solid-edge
  6
CONTINUOUS
 62
    7
420
    0
370
   40
100
AcDbLine
 10
70.24999999999996
 20
157.4
 11
60.24999999999996
 21
157.4
  0
LINE
  5
103
100
AcDbEntity
  8
s005-#def-solid-edge
  6
CONTINUOUS
 62
    7
420
    0
370
   40
100
AcDbLine
 10
210.2499999999999
 20
32.9
 11
184.7499999999999
 21
32.9
  0
LINE
  5
104
100
AcDbEntity
  8
s005-#def-solid-edge
  6
CONTINUOUS
 62
    7
420
    0
370
   40
100
AcDbLine
 10
184.7499999999999
 20
28.6
 11
210.2499999999999
 21
28.6
  0
LINE
  5
105
100
AcDbEntity
  8
s005-#def-solid-edge
  6
CONTINUOUS
 62
    7
420
    0
370
   40
100
AcDbLine
 10
350.25
 20
32.89999999999999
 11
324.75
 21
32.89999999999999
  0
LINE
  5
106
100
AcDbEntity
  8
s005-#def-solid-edge
  6
CONTINUOUS
 62
    7
420
    0
370
   40
100
AcDbLine
 10
324.75
 20
28.59999999999999
 11
350.25
 21
28.59999999999999
  0
LINE
  5
107
100
AcDbEntity
  8
s005-#def-solid-edge
  6
CONTINUOUS
 62
    7
420
    0
370
   40
100
AcDbLine
 10
616
 20
42.99999999999994
 11
616
 21
142.9999999999999
  0
LINE
  5
108
100
AcDbEntity
  8
s005-#def-solid-edge
  6
CONTINUOUS
 62
    7
420
    0
370
   40
100
AcDbLine
 10
490.2500000000001
 20
32.89999999999998
 11
464.7500000000001
 21
32.89999999999998
  0
LINE
  5
109
100
AcDbEntity
  8
s005-#def-solid-edge
  6
CONTINUOUS
 62
    7
420
    0
370
   40
100
AcDbLine
 10
464.7500000000001
 20
28.59999999999998
 11
490.2500000000001
 21
28.59999999999998
  0
LINE
  5
10A
100
AcDbEntity
  8
s005-#def-solid-edge
  6
CONTINUOUS
 62
    7
420
    0
370
   40
100
AcDbLine
 10
464.7500000000001
 20
153.1
 11
490.2500000000001
 21
153.1
  0
LINE
  5
10B
100
AcDbEntity
  8
s005-#def-solid-edge
  6
CONTINUOUS
 62
    7
420
    0
370
   40
100
AcDbLine
 10
490.2500000000001
 20
157.4
 11
464.7500000000001
 21
157.4
  0
LINE
  5
10C
100
AcDbEntity
  8
s005-#def-solid-edge
  6
CONTINUOUS
 62
    7
420
    0
370
   40
100
AcDbLine
 10
324.75
 20
153.1
 11
350.25
 21
153.1
  0
LINE
  5
10D
100
AcDbEntity
  8
s005-#def-solid-edge
  6
CONTINUOUS
 62
    7
420
    0
370
   40
100
AcDbLine
 10
350.25
 20
157.4
 11
324.75
 21
157.4
  0
LINE
  5
10E
100
AcDbEntity
  8
s005-#def-solid-edge
  6
CONTINUOUS
 62
    7
420
    0
370
   40
100
AcDbLine
 10
184.7499999999999
 20
153.1
 11
210.2499999999999
 21
153.1
  0
LINE
  5
10F
100
AcDbEntity
  8
s005-#def-solid-edge
  6
CONTINUOUS
 62
    7
420
    0
370
   40
100
AcDbLine
 10
210.2499999999999
 20
157.4
 11
184.7499999999999
 21
157.4
  0
LINE
  5
110
100
AcDbEntity
  8
s005-#def-solid-edge
  6
CONTINUOUS
 62
    7
420
    0
370
   40
100
AcDbLine
 10
604.75
 20
153.1
 11
614.75
 21
153.1
  0
LINE
  5
111
100
AcDbEntity
  8
s005-#def-solid-edge
  6
CONTINUOUS
 62
    7
420
    0
370
   40
100
AcDbLine
 10
614.75
 20
157.3999999999999
 11
604.75
 21
157.3999999999999
  0
LINE
  5
112
100
AcDbEntity
  8
s005-#def-solid-edge
  6
CONTINUOUS
 62
    7
420
    0
370
   40
100
AcDbLine
 10
614.75
 20
32.89999999999995
 11
604.75
 21
32.89999999999995
  0
LINE
  5
113
100
AcDbEntity
  8
s005-#def-solid-edge
  6
CONTINUOUS
 62
    7
420
    0
370
   40
100
AcDbLine
 10
604.75
 20
28.59999999999994
 11
614.75
 21
28.59999999999994
  0
LINE
  5
114
100
AcDbEntity
  8
s005-#def-solid-edge
  6
CONTINUOUS
 62
    7
420
    0
370
   40
100
AcDbLine
 10
59.00000000000001
 20
304
 11
59.00000000000001
 21
204
  0
LINE
  5
115
100
AcDbEntity
  8
s005-#def-solid-edge
  6
CONTINUOUS
 62
    7
420
    0
370
   40
100
AcDbLine
 10
70.25000000000001
 20
193.9
 11
60.25000000000001
 21
193.9
  0
LINE
  5
116
100
AcDbEntity
  8
s005-#def-solid-edge
  6
CONTINUOUS
 62
    7
420
    0
370
   40
100
AcDbLine
 10
60.25000000000001
 20
189.6
 11
70.25000000000001
 21
189.6
  0
LINE
  5
117
100
AcDbEntity
  8
s005-#def-solid-edge
  6
CONTINUOUS
 62
    7
420
    0
370
   40
100
AcDbLine
 10
60.25000000000001
 20
314.1
 11
70.25000000000001
 21
314.1
  0
LINE
  5
118
100
AcDbEntity
  8
s005-#def-solid-edge
  6
CONTINUOUS
 62
    7
420
    0
370
   40
100
AcDbLine
 10
70.25000000000001
 20
318.4
 11
60.25000000000001
 21
318.4
  0
LINE
  5
119
100
AcDbEntity
  8
s005-#def-solid-edge
  6
CONTINUOUS
 62
    7
420
    0
370
   40
100
AcDbLine
 10
210.25
 20
193.8999999999999
 11
184.75
 21
193.8999999999999
  0
LINE
  5
11A
100
AcDbEntity
  8
s005-#def-solid-edge
  6
CONTINUOUS
 62
    7
420
    0
370
   40
100
AcDbLine
 10
184.75
 20
189.5999999999999
 11
210.25
 21
189.5999999999999
  0
LINE
  5
11B
100
AcDbEntity
  8
s005-#def-solid-edge
  6
CONTINUOUS
 62
    7
420
    0
370
   40
100
AcDbLine
 10
350.2500000000001
 20
193.8999999999999
 11
324.7500000000001
 21
193.8999999999999
  0
LINE
  5
11C
100
AcDbEntity
  8
s005-#def-solid-edge
  6
CONTINUOUS
 62
    7
420
    0
370
   40
100
AcDbLine
 10
324.7500000000001
 20
189.5999999999999
 11
350.2500000000001
 21
189.5999999999999
  0
LINE
  5
11D
100
AcDbEntity
  8
s005-#def-solid-edge
  6
CONTINUOUS
 62
    7
420
    0
370
   40
100
AcDbLine
 10
616.0000000000001
 20
203.9999999999999
 11
616.0000000000001
 21
303.9999999999999
  0
LINE
  5
11E
100
AcDbEntity
  8
s005-#def-solid-edge
  6
CONTINUOUS
 62
    7
420
    0
370
   40
100
AcDbLine
 10
490.2500000000001
 20
193.8999999999999
 11
464.7500000000001
 21
193.8999999999999
  0
LINE
  5
11F
100
AcDbEntity
  8
s005-#def-solid-edge
  6
CONTINUOUS
 62
    7
420
    0
370
   40
100
AcDbLine
 10
464.7500000000001
 20
189.5999999999999
 11
490.2500000000001
 21
189.5999999999999
  0
LINE
  5
120
100
AcDbEntity
  8
s005-#def-solid-edge
  6
CONTINUOUS
 62
    7
420
    0
370
   40
100
AcDbLine
 10
464.7500000000001
 20
314.0999999999999
 11
490.2500000000001
 21
314.0999999999999
  0
LINE
  5
121
100
AcDbEntity
  8
s005-#def-solid-edge
  6
CONTINUOUS
 62
    7
420
    0
370
   40
100
AcDbLine
 10
490.2500000000001
 20
318.3999999999999
 11
464.7500000000001
 21
318.3999999999999
  0
LINE
  5
122
100
AcDbEntity
  8
s005-#def-solid-edge
  6
CONTINUOUS
 62
    7
420
    0
370
   40
100
AcDbLine
 10
324.7500000000001
 20
314.0999999999999
 11
350.2500000000001
 21
314.0999999999999
  0
LINE
  5
123
100
AcDbEntity
  8
s005-#def-solid-edge
  6
CONTINUOUS
 62
    7
420
    0
370
   40
100
AcDbLine
 10
350.2500000000001
 20
318.4
 11
324.7500000000001
 21
318.4
  0
LINE
  5
124
100
AcDbEntity
  8
s005-#def-solid-edge
  6
CONTINUOUS
 62
    7
420
    0
370
   40
100
AcDbLine
 10
184.75
 20
314.1
 11
210.25
 21
314.1
  0
LINE
  5
125
100
AcDbEntity
  8
s005-#def-solid-edge
  6
CONTINUOUS
 62
    7
420
    0
370
   40
100
AcDbLine
 10
210.25
 20
318.4
 11
184.75
 21
318.4
  0
LINE
  5
126
100
AcDbEntity
  8
s005-#def-solid-edge
  6
CONTINUOUS
 62
    7
420
    0
370
   40
100
AcDbLine
 10
604.7500000000001
 20
314.1
 11
614.7500000000001
 21
314.1
  0
LINE
  5
127
100
AcDbEntity
  8
s005-#def-solid-edge
  6
CONTINUOUS
 62
    7
420
    0
370
   40
100
AcDbLine
 10
614.7500000000001
 20
318.4
 11
604.7500000000001
 21
318.4
  0
LINE
  5
128
100
AcDbEntity
  8
s005-#def-solid-edge
  6
CONTINUOUS
 62
    7
420
    0
370
   40
100
AcDbLine
 10
614.7500000000001
 20
193.8999999999999
 11
604.7500000000001
 21
193.8999999999999
  0
LINE
  5
129
100
AcDbEntity
  8
s005-#def-solid-edge
  6
CONTINUOUS
 62
    7
420
    0
370
   40
100
AcDbLine
 10
604.7500000000001
 20
189.5999999999999
 11
614.7500000000001
 21
189.5999999999999
  0
ARC
  5
12A
100
AcDbEntity
  8
s005-#def-solid-edge
  6
CONTINUOUS
 62
    7
420
    0
370
   40
100
AcDbCircle
 10
184.7499999999999
 20
163.0000000000001
 40
15.50000000000011
100
AcDbArc
 50
-174.4465558043412
 51
-90.00000000105776
  0
ARC
  5
12B
100
AcDbEntity
  8
s005-#def-solid-edge
  6
CONTINUOUS
 62
    7
420
    0
370
   40
100
AcDbCircle
 10
57.49999999999997
 20
163
 40
20.05617112013157
100
AcDbArc
 50
-85.71084667055101
 51
-4.289153328819102
  0
ARC
  5
12C
100
AcDbEntity
  8
s005-#def-solid-edge
  6
CONTINUOUS
 62
    7
420
    0
370
   40
100
AcDbCircle
 10
57.49999999999997
 20
22.99999999999999
 40
20.05617112013159
100
AcDbArc
 50
4.289153329448943
 51
85.71084667118103
  0
ARC
  5
12D
100
AcDbEntity
  8
s005-#def-solid-edge
  6
CONTINUOUS
 62
    7
420
    0
370
   40
100
AcDbCircle
 10
184.7499999999999
 20
22.99999999999998
 40
15.50000000000001
100
AcDbArc
 50
90
 51
174.446555803284
  0
ARC
  5
12E
100
AcDbEntity
  8
s005-#def-solid-edge
  6
CONTINUOUS
 62
    7
420
    0
370
   40
100
AcDbCircle
 10
70.24999999999996
 20
30.74999999999999
 40
2.149999999999984
100
AcDbArc
 50
-90
 51
-2.599072360648538e-09
  0
ARC
  5
12F
100
AcDbEntity
  8
s005-#def-solid-edge
  6
CONTINUOUS
 62
    7
420
    0
370
   40
100
AcDbCircle
 10
70.24999999999997
 20
30.75
 40
2.149999999999991
100
AcDbArc
 50
0
 51
89.9999999974013
  0
ARC
  5
130
100
AcDbEntity
  8
s005-#def-solid-edge
  6
CONTINUOUS
 62
    7
420
    0
370
   40
100
AcDbCircle
 10
60.24999999999996
 20
30.75
 40
2.150000000000002
100
AcDbArc
 50
90.00000000000018
 51
179.9999999974009
  0
ARC
  5
131
100
AcDbEntity
  8
s005-#def-solid-edge
  6
CONTINUOUS
 62
    7
420
    0
370
   40
100
AcDbCircle
 10
60.24999999999996
 20
30.75
 40
2.149999999999999
100
AcDbArc
 50
180
 51
-90.00000000259888
  0
ARC
  5
132
100
AcDbEntity
  8
s005-#def-solid-edge
  6
CONTINUOUS
 62
    7
420
    0
370
   40
100
AcDbCircle
 10
60.24999999999996
 20
155.25
 40
2.150000000000006
100
AcDbArc
 50
90
 51
179.9999999974013
  0
ARC
  5
133
100
AcDbEntity
  8
s005-#def-solid-edge
  6
CONTINUOUS
 62
    7
420
    0
370
   40
100
AcDbCircle
 10
60.24999999999994
 20
155.25
 40
2.149999999999984
100
AcDbArc
 50
180
 51
-90.00000000259794
  0
ARC
  5
134
100
AcDbEntity
  8
s005-#def-solid-edge
  6
CONTINUOUS
 62
    7
420
    0
370
   40
100
AcDbCircle
 10
70.24999999999996
 20
155.25
 40
2.150000000000006
100
AcDbArc
 50
-90
 51
-2.598693652742262e-09
  0
ARC
  5
135
100
AcDbEntity
  8
s005-#def-solid-edge
  6
CONTINUOUS
 62
    7
420
    0
370
   40
100
AcDbCircle
 10
70.24999999999997
 20
155.25
 40
2.149999999999991
100
AcDbArc
 50
0
 51
89.9999999974013
  0
ARC
  5
136
100
AcDbEntity
  8
s005-#def-solid-edge
  6
CONTINUOUS
 62
    7
420
    0
370
   40
100
AcDbCircle
 10
210.2499999999999
 20
163.0000000000002
 40
15.50000000000011
100
AcDbArc
 50
-90
 51
-5.553444196716658
  0
ARC
  5
137
100
AcDbEntity
  8
s005-#def-solid-edge
  6
CONTINUOUS
 62
    7
420
    0
370
   40
100
AcDbCircle
 10
210.2499999999999
 20
23
 40
15.49999999999999
100
AcDbArc
 50
5.553444195658507
 51
89.99999999894257
  0
ARC
  5
138
100
AcDbEntity
  8
s005-#def-solid-edge
  6
CONTINUOUS
 62
    7
420
    0
370
   40
100
AcDbCircle
 10
324.75
 20
23.00000000000012
 40
15.49999999999986
100
AcDbArc
 50
90
 51
174.4465558032844
  0
ARC
  5
139
100
AcDbEntity
  8
s005-#def-solid-edge
  6
CONTINUOUS
 62
    7
420
    0
370
   40
100
AcDbCircle
 10
324.75
 20
162.9999999999999
 40
15.49999999999991
100
AcDbArc
 50
-174.4465558043417
 51
-90.00000000105776
  0
ARC
  5
13A
100
AcDbEntity
  8
s005-#def-solid-edge
  6
CONTINUOUS
 62
    7
420
    0
370
   40
100
AcDbCircle
 10
210.2499999999999
 20
30.74999999999999
 40
2.150000000000006
100
AcDbArc
 50
2.598693652742262e-09
 51
90
  0
ARC
  5
13B
100
AcDbEntity
  8
s005-#def-solid-edge
  6
CONTINUOUS
 62
    7
420
    0
370
   40
100
AcDbCircle
 10
184.7499999999999
 20
30.75000000000003
 40
2.14999999999997
100
AcDbArc
 50
90.00000000259945
 51
-179.9999999999993
  0
ARC
  5
13C
100
AcDbEntity
  8
s005-#def-solid-edge
  6
CONTINUOUS
 62
    7
420
    0
370
   40
100
AcDbCircle
 10
184.7499999999999
 20
30.74999999999998
 40
2.150000000000006
100
AcDbArc
 50
-179.9999999974006
 51
-90
  0
ARC
  5
13D
100
AcDbEntity
  8
s005-#def-solid-edge
  6
CONTINUOUS
 62
    7
420
    0
370
   40
100
AcDbCircle
 10
210.2499999999999
 20
30.74999999999997
 40
2.149999999999967
100
AcDbArc
 50
-89.9999999974013
 51
7.57415812515941e-13
  0
ARC
  5
13E
100
AcDbEntity
  8
s005-#def-solid-edge
  6
CONTINUOUS
 62
    7
420
    0
370
   40
100
AcDbCircle
 10
350.25
 20
162.9999999999997
 40
15.49999999999985
100
AcDbArc
 50
-90
 51
-5.553444196715171
  0
ARC
  5
13F
100
AcDbEntity
  8
s005-#def-solid-edge
  6
CONTINUOUS
 62
    7
420
    0
370
   40
100
AcDbCircle
 10
350.25
 20
22.99999999999999
 40
15.5
100
AcDbArc
 50
5.553444195658504
 51
89.99999999894224
  0
ARC
  5
140
100
AcDbEntity
  8
s005-#def-solid-edge
  6
CONTINUOUS
 62
    7
420
    0
370
   40
100
AcDbCircle
 10
464.7500000000001
 20
22.99999999999984
 40
15.50000000000011
100
AcDbArc
 50
90
 51
174.4465558032835
  0
ARC
  5
141
100
AcDbEntity
  8
s005-#def-solid-edge
  6
CONTINUOUS
 62
    7
420
    0
370
   40
100
AcDbCircle
 10
464.75
 20
163
 40
15.50000000000003
100
AcDbArc
 50
-174.4465558043413
 51
-90.00000000105754
  0
ARC
  5
142
100
AcDbEntity
  8
s005-#def-solid-edge
  6
CONTINUOUS
 62
    7
420
    0
370
   40
100
AcDbCircle
 10
350.25
 20
30.74999999999996
 40
2.150000000000034
100
AcDbArc
 50
2.599451068554744e-09
 51
90
  0
ARC
  5
143
100
AcDbEntity
  8
s005-#def-solid-edge
  6
CONTINUOUS
 62
    7
420
    0
370
   40
100
AcDbCircle
 10
324.7499999999999
 20
30.74999999999993
 40
2.150000000000059
100
AcDbArc
 50
90.00000000259945
 51
179.9999999999985
  0
ARC
  5
144
100
AcDbEntity
  8
s005-#def-solid-edge
  6
CONTINUOUS
 62
    7
420
    0
370
   40
100
AcDbCircle
 10
324.75
 20
30.75000000000005
 40
2.150000000000034
100
AcDbArc
 50
-179.999999997399
 51
-90
  0
ARC
  5
145
100
AcDbEntity
  8
s005-#def-solid-edge
  6
CONTINUOUS
 62
    7
420
    0
370
   40
100
AcDbCircle
 10
350.2499999999999
 20
30.74999999999999
 40
2.149999999999995
100
AcDbArc
 50
-89.99999999740056
 51
0
  0
ARC
  5
146
100
AcDbEntity
  8
s005-#def-solid-edge
  6
CONTINUOUS
 62
    7
420
    0
370
   40
100
AcDbCircle
 10
490.2500000000001
 20
23.00000000000002
 40
15.49999999999995
100
AcDbArc
 50
5.55344419565834
 51
89.99999999894183
  0
ARC
  5
147
100
AcDbEntity
  8
s005-#def-solid-edge
  6
CONTINUOUS
 62
    7
420
    0
370
   40
100
AcDbCircle
 10
617.5000000000001
 20
22.99999999999998
 40
20.05617112013169
100
AcDbArc
 50
94.28915332944891
 51
175.7108466711811
  0
ARC
  5
148
100
AcDbEntity
  8
s005-#def-solid-edge
  6
CONTINUOUS
 62
    7
420
    0
370
   40
100
AcDbCircle
 10
617.5
 20
163.0000000000001
 40
20.05617112013178
100
AcDbArc
 50
-175.7108466705506
 51
-94.28915332881898
  0
ARC
  5
149
100
AcDbEntity
  8
s005-#def-solid-edge
  6
CONTINUOUS
 62
    7
420
    0
370
   40
100
AcDbCircle
 10
490.2500000000001
 20
163
 40
15.50000000000005
100
AcDbArc
 50
-90
 51
-5.553444196716574
  0
ARC
  5
14A
100
AcDbEntity
  8
s005-#def-solid-edge
  6
CONTINUOUS
 62
    7
420
    0
370
   40
100
AcDbCircle
 10
490.2500000000001
 20
30.74999999999998
 40
2.150000000000034
100
AcDbArc
 50
2.597936236929712e-09
 51
90
  0
ARC
  5
14B
100
AcDbEntity
  8
s005-#def-solid-edge
  6
CONTINUOUS
 62
    7
420
    0
370
   40
100
AcDbCircle
 10
464.7500000000001
 20
30.75000000000004
 40
2.149999999999935
100
AcDbArc
 50
90.00000000260097
 51
-179.9999999999985
  0
ARC
  5
14C
100
AcDbEntity
  8
s005-#def-solid-edge
  6
CONTINUOUS
 62
    7
420
    0
370
   40
100
AcDbCircle
 10
464.7500000000001
 20
30.75000000000001
 40
2.150000000000091
100
AcDbArc
 50
-179.999999997399
 51
-90
  0
ARC
  5
14D
100
AcDbEntity
  8
s005-#def-solid-edge
  6
CONTINUOUS
 62
    7
420
    0
370
   40
100
AcDbCircle
 10
490.2500000000001
 20
30.74999999999998
 40
2.150000000000006
100
AcDbArc
 50
-89.99999999740207
 51
0
  0
ARC
  5
14E
100
AcDbEntity
  8
s005-#def-solid-edge
  6
CONTINUOUS
 62
    7
420
    0
370
   40
100
AcDbCircle
 10
464.7500000000001
 20
155.2499999999999
 40
2.150000000000034
100
AcDbArc
 50
-179.9999999974021
 51
-90
  0
ARC
  5
14F
100
AcDbEntity
  8
s005-#def-solid-edge
  6
CONTINUOUS
 62
    7
420
    0
370
   40
100
AcDbCircle
 10
490.2500000000001
 20
155.25
 40
2.150000000000034
100
AcDbArc
 50
-89.99999999740207
 51
0
  0
ARC
  5
150
100
AcDbEntity
  8
s005-#def-solid-edge
  6
CONTINUOUS
 62
    7
420
    0
370
   40
100
AcDbCircle
 10
490.2500000000001
 20
155.2500000000002
 40
2.14999999999992
100
AcDbArc
 50
2.594906573679786e-09
 51
90
  0
ARC
  5
151
100
AcDbEntity
  8
s005-#def-solid-edge
  6
CONTINUOUS
 62
    7
420
    0
370
   40
100
AcDbCircle
 10
464.7499999999999
 20
155.25
 40
2.149999999999977
100
AcDbArc
 50
90.00000000260097
 51
180
  0
ARC
  5
152
100
AcDbEntity
  8
s005-#def-solid-edge
  6
CONTINUOUS
 62
    7
420
    0
370
   40
100
AcDbCircle
 10
324.75
 20
155.25
 40
2.150000000000034
100
AcDbArc
 50
-179.999999997399
 51
-90
  0
ARC
  5
153
100
AcDbEntity
  8
s005-#def-solid-edge
  6
CONTINUOUS
 62
    7
420
    0
370
   40
100
AcDbCircle
 10
350.2499999999999
 20
155.25
 40
2.149999999999977
100
AcDbArc
 50
-89.99999999740056
 51
0
  0
ARC
  5
154
100
AcDbEntity
  8
s005-#def-solid-edge
  6
CONTINUOUS
 62
    7
420
    0
370
   40
100
AcDbCircle
 10
350.25
 20
155.25
 40
2.149999999999977
100
AcDbArc
 50
2.597936236929781e-09
 51
90
  0
ARC
  5
155
100
AcDbEntity
  8
s005-#def-solid-edge
  6
CONTINUOUS
 62
    7
420
    0
370
   40
100
AcDbCircle
 10
324.7500000000001
 20
155.25
 40
2.150000000000063
100
AcDbArc
 50
90.00000000259945
 51
180
  0
ARC
  5
156
100
AcDbEntity
  8
s005-#def-solid-edge
  6
CONTINUOUS
 62
    7
420
    0
370
   40
100
AcDbCircle
 10
184.7499999999999
 20
155.2500000000001
 40
2.150000000000063
100
AcDbArc
 50
-179.999999997399
 51
-90
  0
ARC
  5
157
100
AcDbEntity
  8
s005-#def-solid-edge
  6
CONTINUOUS
 62
    7
420
    0
370
   40
100
AcDbCircle
 10
210.25
 20
155.25
 40
2.150000000000034
100
AcDbArc
 50
-89.9999999973998
 51
0
  0
ARC
  5
158
100
AcDbEntity
  8
s005-#def-solid-edge
  6
CONTINUOUS
 62
    7
420
    0
370
   40
100
AcDbCircle
 10
210.2499999999999
 20
155.25
 40
2.150000000000063
100
AcDbArc
 50
2.59945106855471e-09
 51
90
  0
ARC
  5
159
100
AcDbEntity
  8
s005-#def-solid-edge
  6
CONTINUOUS
 62
    7
420
    0
370
   40
100
AcDbCircle
 10
184.7499999999999
 20
155.2500000000001
 40
2.149999999999977
100
AcDbArc
 50
90.00000000259794
 51
-179.9999999999993
  0
ARC
  5
15A
100
AcDbEntity
  8
s005-#def-solid-edge
  6
CONTINUOUS
 62
    7
420
    0
370
   40
100
AcDbCircle
 10
604.75
 20
155.2500000000001
 40
2.149999999999864
100
AcDbArc
 50
90
 51
179.9999999974036
  0
ARC
  5
15B
100
AcDbEntity
  8
s005-#def-solid-edge
  6
CONTINUOUS
 62
    7
420
    0
370
   40
100
AcDbCircle
 10
604.75
 20
155.2499999999999
 40
2.149999999999977
100
AcDbArc
 50
180
 51
-90.00000000259642
  0
ARC
  5
15C
100
AcDbEntity
  8
s005-#def-solid-edge
  6
CONTINUOUS
 62
    7
420
    0
370
   40
100
AcDbCircle
 10
614.75
 20
155.2500000000002
 40
2.150000000000233
100
AcDbArc
 50
-90
 51
-2.605510395054527e-09
  0
ARC
  5
15D
100
AcDbEntity
  8
s005-#def-solid-edge
  6
CONTINUOUS
 62
    7
420
    0
370
   40
100
AcDbCircle
 10
614.7500000000001
 20
155.2499999999999
 40
2.149999999999977
100
AcDbArc
 50
0
 51
89.99999999740662
  0
ARC
  5
15E
100
AcDbEntity
  8
s005-#def-solid-edge
  6
CONTINUOUS
 62
    7
420
    0
370
   40
100
AcDbCircle
 10
614.75
 20
30.75000000000006
 40
2.150000000000119
100
AcDbArc
 50
-90
 51
-2.602480731804739e-09
  0
ARC
  5
15F
100
AcDbEntity
  8
s005-#def-solid-edge
  6
CONTINUOUS
 62
    7
420
    0
370
   40
100
AcDbCircle
 10
614.75
 20
30.74999999999994
 40
2.149999999999977
100
AcDbArc
 50
0
 51
89.99999999740662
  0
ARC
  5
160
100
AcDbEntity
  8
s005-#def-solid-edge
  6
CONTINUOUS
 62
    7
420
    0
370
   40
100
AcDbCircle
 10
604.75
 20
30.75000000000002
 40
2.149999999999928
100
AcDbArc
 50
90
 51
179.9999999974036
  0
ARC
  5
161
100
AcDbEntity
  8
s005-#def-solid-edge
  6
CONTINUOUS
 62
    7
420
    0
370
   40
100
AcDbCircle
 10
604.75
 20
30.74999999999994
 40
2.149999999999977
100
AcDbArc
 50
180
 51
-90.00000000259945
  0
ARC
  5
162
100
AcDbEntity
  8
s005-#def-solid-edge
  6
CONTINUOUS
 62
    7
420
    0
370
   40
100
AcDbCircle
 10
184.7499999999999
 20
324.0000000000001
 40
15.5
100
AcDbArc
 50
-174.4465558043413
 51
-90.00000000105723
  0
ARC
  5
163
100
AcDbEntity
  8
s005-#def-solid-edge
  6
CONTINUOUS
 62
    7
420
    0
370
   40
100
AcDbCircle
 10
57.5
 20
323.9999999999999
 40
20.05617112013159
100
AcDbArc
 50
-85.71084667055091
 51
-4.289153328818854
  0
ARC
  5
164
100
AcDbEntity
  8
s005-#def-solid-edge
  6
CONTINUOUS
 62
    7
420
    0
370
   40
100
AcDbCircle
 10
57.50000000000002
 20
184
 40
20.05617112013158
100
AcDbArc
 50
4.28915332944906
 51
85.710846671181
  0
ARC
  5
165
100
AcDbEntity
  8
s005-#def-solid-edge
  6
CONTINUOUS
 62
    7
420
    0
370
   40
100
AcDbCircle
 10
184.75
 20
183.9999999999999
 40
15.50000000000005
100
AcDbArc
 50
90.00000000000011
 51
174.4465558032836
  0
ARC
  5
166
100
AcDbEntity
  8
s005-#def-solid-edge
  6
CONTINUOUS
 62
    7
420
    0
370
   40
100
AcDbCircle
 10
70.25000000000007
 20
191.75
 40
2.150000000000006
100
AcDbArc
 50
-90.00000000000152
 51
-2.597936236929832e-09
  0
ARC
  5
167
100
AcDbEntity
  8
s005-#def-solid-edge
  6
CONTINUOUS
 62
    7
420
    0
370
   40
100
AcDbCircle
 10
70.25000000000003
 20
191.75
 40
2.149999999999991
100
AcDbArc
 50
0
 51
89.9999999974013
  0
ARC
  5
168
100
AcDbEntity
  8
s005-#def-solid-edge
  6
CONTINUOUS
 62
    7
420
    0
370
   40
100
AcDbCircle
 10
60.25000000000004
 20
191.75
 40
2.149999999999977
100
AcDbArc
 50
90.00000000000077
 51
179.9999999974021
  0
ARC
  5
169
100
AcDbEntity
  8
s005-#def-solid-edge
  6
CONTINUOUS
 62
    7
420
    0
370
   40
100
AcDbCircle
 10
60.24999999999999
 20
191.75
 40
2.14999999999997
100
AcDbArc
 50
180
 51
-90.00000000259794
  0
ARC
  5
16A
100
AcDbEntity
  8
s005-#def-solid-edge
  6
CONTINUOUS
 62
    7
420
    0
370
   40
100
AcDbCircle
 10
60.25000000000001
 20
316.25
 40
2.149999999999977
100
AcDbArc
 50
90
 51
179.9999999974006
  0
ARC
  5
16B
100
AcDbEntity
  8
s005-#def-solid-edge
  6
CONTINUOUS
 62
    7
420
    0
370
   40
100
AcDbCircle
 10
60.25000000000005
 20
316.25
 40
2.150000000000041
100
AcDbArc
 50
180
 51
-90.00000000259945
  0
ARC
  5
16C
100
AcDbEntity
  8
s005-#def-solid-edge
  6
CONTINUOUS
 62
    7
420
    0
370
   40
100
AcDbCircle
 10
70.25000000000007
 20
316.25
 40
2.149999999999977
100
AcDbArc
 50
-90.00000000000152
 51
-2.5964214053048e-09
  0
ARC
  5
16D
100
AcDbEntity
  8
s005-#def-solid-edge
  6
CONTINUOUS
 62
    7
420
    0
370
   40
100
AcDbCircle
 10
70.25000000000001
 20
316.25
 40
2.150000000000006
100
AcDbArc
 50
0
 51
89.99999999740056
  0
ARC
  5
16E
100
AcDbEntity
  8
s005-#def-solid-edge
  6
CONTINUOUS
 62
    7
420
    0
370
   40
100
AcDbCircle
 10
210.25
 20
324.0000000000001
 40
15.50000000000002
100
AcDbArc
 50
-90
 51
-5.553444196716584
  0
ARC
  5
16F
100
AcDbEntity
  8
s005-#def-solid-edge
  6
CONTINUOUS
 62
    7
420
    0
370
   40
100
AcDbCircle
 10
210.25
 20
184
 40
15.5
100
AcDbArc
 50
5.553444195658379
 51
89.99999999894247
  0
ARC
  5
170
100
AcDbEntity
  8
s005-#def-solid-edge
  6
CONTINUOUS
 62
    7
420
    0
370
   40
100
AcDbCircle
 10
324.75
 20
183.9999999999998
 40
15.49999999999994
100
AcDbArc
 50
89.9999999999998
 51
174.4465558032835
  0
ARC
  5
171
100
AcDbEntity
  8
s005-#def-solid-edge
  6
CONTINUOUS
 62
    7
420
    0
370
   40
100
AcDbCircle
 10
324.7500000000001
 20
323.9999999999999
 40
15.49999999999994
100
AcDbArc
 50
-174.4465558043417
 51
-90.00000000105713
  0
ARC
  5
172
100
AcDbEntity
  8
s005-#def-solid-edge
  6
CONTINUOUS
 62
    7
420
    0
370
   40
100
AcDbCircle
 10
210.25
 20
191.7499999999999
 40
2.150000000000034
100
AcDbArc
 50
2.601723315992292e-09
 51
90
  0
ARC
  5
173
100
AcDbEntity
  8
s005-#def-solid-edge
  6
CONTINUOUS
 62
    7
420
    0
370
   40
100
AcDbCircle
 10
184.7500000000001
 20
191.75
 40
2.150000000000006
100
AcDbArc
 50
90.00000000259945
 51
-179.9999999999993
  0
ARC
  5
174
100
AcDbEntity
  8
s005-#def-solid-edge
  6
CONTINUOUS
 62
    7
420
    0
370
   40
100
AcDbCircle
 10
184.75
 20
191.7499999999999
 40
2.150000000000006
100
AcDbArc
 50
-179.9999999974013
 51
-90
  0
ARC
  5
175
100
AcDbEntity
  8
s005-#def-solid-edge
  6
CONTINUOUS
 62
    7
420
    0
370
   40
100
AcDbCircle
 10
210.25
 20
191.75
 40
2.150000000000006
100
AcDbArc
 50
-89.99999999740056
 51
-7.574158125159711e-13
  0
ARC
  5
176
100
AcDbEntity
  8
s005-#def-solid-edge
  6
CONTINUOUS
 62
    7
420
    0
370
   40
100
AcDbCircle
 10
350.2500000000001
 20
323.9999999999999
 40
15.49999999999999
100
AcDbArc
 50
-90
 51
-5.553444196716177
  0
ARC
  5
177
100
AcDbEntity
  8
s005-#def-solid-edge
  6
CONTINUOUS
 62
    7
420
    0
370
   40
100
AcDbCircle
 10
350.2500000000001
 20
184
 40
15.49999999999997
100
AcDbArc
 50
5.553444195658295
 51
89.99999999894224
  0
ARC
  5
178
100
AcDbEntity
  8
s005-#def-solid-edge
  6
CONTINUOUS
 62
    7
420
    0
370
   40
100
AcDbCircle
 10
464.7500000000001
 20
183.9999999999999
 40
15.49999999999999
100
AcDbArc
 50
90
 51
174.4465558032837
  0
ARC
  5
179
100
AcDbEntity
  8
s005-#def-solid-edge
  6
CONTINUOUS
 62
    7
420
    0
370
   40
100
AcDbCircle
 10
464.7500000000001
 20
323.9999999999999
 40
15.50000000000006
100
AcDbArc
 50
-174.4465558043413
 51
-90.00000000105754
  0
ARC
  5
17A
100
AcDbEntity
  8
s005-#def-solid-edge
  6
CONTINUOUS
 62
    7
420
    0
370
   40
100
AcDbCircle
 10
350.2500000000001
 20
191.7499999999999
 40
2.149999999999977
100
AcDbArc
 50
2.600965900179845e-09
 51
90
  0
ARC
  5
17B
100
AcDbEntity
  8
s005-#def-solid-edge
  6
CONTINUOUS
 62
    7
420
    0
370
   40
100
AcDbCircle
 10
324.7500000000001
 20
191.7499999999999
 40
2.149999999999977
100
AcDbArc
 50
90.00000000259794
 51
180
  0
ARC
  5
17C
100
AcDbEntity
  8
s005-#def-solid-edge
  6
CONTINUOUS
 62
    7
420
    0
370
   40
100
AcDbCircle
 10
324.7500000000001
 20
191.7499999999999
 40
2.149999999999977
100
AcDbArc
 50
-179.9999999974006
 51
-90
  0
ARC
  5
17D
100
AcDbEntity
  8
s005-#def-solid-edge
  6
CONTINUOUS
 62
    7
420
    0
370
   40
100
AcDbCircle
 10
350.2500000000002
 20
191.75
 40
2.150000000000063
100
AcDbArc
 50
-89.99999999740056
 51
-1.514831625032022e-12
  0
ARC
  5
17E
100
AcDbEntity
  8
s005-#def-solid-edge
  6
CONTINUOUS
 62
    7
420
    0
370
   40
100
AcDbCircle
 10
490.25
 20
183.9999999999999
 40
15.50000000000006
100
AcDbArc
 50
5.553444195658548
 51
89.99999999894163
  0
ARC
  5
17F
100
AcDbEntity
  8
s005-#def-solid-edge
  6
CONTINUOUS
 62
    7
420
    0
370
   40
100
AcDbCircle
 10
617.5
 20
183.9999999999999
 40
20.05617112013147
100
AcDbArc
 50
94.28915332944922
 51
175.7108466711807
  0
ARC
  5
180
100
AcDbEntity
  8
s005-#def-solid-edge
  6
CONTINUOUS
 62
    7
420
    0
370
   40
100
AcDbCircle
 10
617.5000000000001
 20
323.9999999999999
 40
20.05617112013158
100
AcDbArc
 50
-175.7108466705509
 51
-94.28915332881903
  0
ARC
  5
181
100
AcDbEntity
  8
s005-#def-solid-edge
  6
CONTINUOUS
 62
    7
420
    0
370
   40
100
AcDbCircle
 10
490.2500000000001
 20
324
 40
15.50000000000006
100
AcDbArc
 50
-90
 51
-5.553444196716783
  0
ARC
  5
182
100
AcDbEntity
  8
s005-#def-solid-edge
  6
CONTINUOUS
 62
    7
420
    0
370
   40
100
AcDbCircle
 10
490.2500000000001
 20
191.7500000000001
 40
2.149999999999977
100
AcDbArc
 50
2.594906573679717e-09
 51
90
  0
ARC
  5
183
100
AcDbEntity
  8
s005-#def-solid-edge
  6
CONTINUOUS
 62
    7
420
    0
370
   40
100
AcDbCircle
 10
464.7500000000001
 20
191.7499999999999
 40
2.150000000000006
100
AcDbArc
 50
90.00000000259945
 51
180
  0
ARC
  5
184
100
AcDbEntity
  8
s005-#def-solid-edge
  6
CONTINUOUS
 62
    7
420
    0
370
   40
100
AcDbCircle
 10
464.7500000000001
 20
191.7499999999999
 40
2.150000000000091
100
AcDbArc
 50
-179.999999997399
 51
-90
  0
ARC
  5
185
100
AcDbEntity
  8
s005-#def-solid-edge
  6
CONTINUOUS
 62
    7
420
    0
370
   40
100
AcDbCircle
 10
490.2500000000001
 20
191.7499999999999
 40
2.150000000000006
100
AcDbArc
 50
-89.999999997396
 51
0
  0
ARC
  5
186
100
AcDbEntity
  8
s005-#def-solid-edge
  6
CONTINUOUS
 62
    7
420
    0
370
   40
100
AcDbCircle
 10
464.7500000000002
 20
316.2499999999998
 40
2.150000000000034
100
AcDbArc
 50
-179.9999999974021
 51
-90.00000000000152
  0
ARC
  5
187
100
AcDbEntity
  8
s005-#def-solid-edge
  6
CONTINUOUS
 62
    7
420
    0
370
   40
100
AcDbCircle
 10
490.2500000000002
 20
316.2499999999999
 40
2.149999999999977
100
AcDbArc
 50
-89.99999999739903
 51
0
  0
ARC
  5
188
100
AcDbEntity
  8
s005-#def-solid-edge
  6
CONTINUOUS
 62
    7
420
    0
370
   40
100
AcDbCircle
 10
490.2500000000001
 20
316.25
 40
2.150000000000091
100
AcDbArc
 50
2.597936236929644e-09
 51
90
  0
ARC
  5
189
100
AcDbEntity
  8
s005-#def-solid-edge
  6
CONTINUOUS
 62
    7
420
    0
370
   40
100
AcDbCircle
 10
464.7500000000003
 20
316.2499999999999
 40
2.150000000000091
100
AcDbArc
 50
90.00000000259945
 51
180
  0
ARC
  5
18A
100
AcDbEntity
  8
s005-#def-solid-edge
  6
CONTINUOUS
 62
    7
420
    0
370
   40
100
AcDbCircle
 10
324.7500000000001
 20
316.2499999999999
 40
2.150000000000034
100
AcDbArc
 50
-179.9999999974006
 51
-90.00000000000152
  0
ARC
  5
18B
100
AcDbEntity
  8
s005-#def-solid-edge
  6
CONTINUOUS
 62
    7
420
    0
370
   40
100
AcDbCircle
 10
350.2500000000001
 20
316.2499999999999
 40
2.149999999999977
100
AcDbArc
 50
-89.99999999740056
 51
0
  0
ARC
  5
18C
100
AcDbEntity
  8
s005-#def-solid-edge
  6
CONTINUOUS
 62
    7
420
    0
370
   40
100
AcDbCircle
 10
350.2500000000001
 20
316.2499999999999
 40
2.149999999999864
100
AcDbArc
 50
2.596421405304886e-09
 51
90
  0
ARC
  5
18D
100
AcDbEntity
  8
s005-#def-solid-edge
  6
CONTINUOUS
 62
    7
420
    0
370
   40
100
AcDbCircle
 10
324.7500000000001
 20
316.2499999999999
 40
2.150000000000034
100
AcDbArc
 50
90.00000000259794
 51
180
  0
ARC
  5
18E
100
AcDbEntity
  8
s005-#def-solid-edge
  6
CONTINUOUS
 62
    7
420
    0
370
   40
100
AcDbCircle
 10
184.75
 20
316.25
 40
2.150000000000034
100
AcDbArc
 50
-179.9999999974021
 51
-90
  0
ARC
  5
18F
100
AcDbEntity
  8
s005-#def-solid-edge
  6
CONTINUOUS
 62
    7
420
    0
370
   40
100
AcDbCircle
 10
210.25
 20
316.25
 40
2.150000000000034
100
AcDbArc
 50
-89.99999999740056
 51
0
  0
ARC
  5
190
100
AcDbEntity
  8
s005-#def-solid-edge
  6
CONTINUOUS
 62
    7
420
    0
370
   40
100
AcDbCircle
 10
210.25
 20
316.2499999999999
 40
2.150000000000063
100
AcDbArc
 50
2.600965900179742e-09
 51
90
  0
ARC
  5
191
100
AcDbEntity
  8
s005-#def-solid-edge
  6
CONTINUOUS
 62
    7
420
    0
370
   40
100
AcDbCircle
 10
184.7500000000001
 20
316.25
 40
2.150000000000034
100
AcDbArc
 50
90.00000000259945
 51
180
  0
ARC
  5
192
100
AcDbEntity
  8
s005-#def-solid-edge
  6
CONTINUOUS
 62
    7
420
    0
370
   40
100
AcDbCircle
 10
604.7500000000001
 20
316.2500000000001
 40
2.14999999999992
100
AcDbArc
 50
90
 51
179.9999999974036
  0
ARC
  5
193
100
AcDbEntity
  8
s005-#def-solid-edge
  6
CONTINUOUS
 62
    7
420
    0
370
   40
100
AcDbCircle
 10
604.7500000000002
 20
316.2499999999999
 40
2.150000000000091
100
AcDbArc
 50
180
 51
-90.00000000260248
  0
ARC
  5
194
100
AcDbEntity
  8
s005-#def-solid-edge
  6
CONTINUOUS
 62
    7
420
    0
370
   40
100
AcDbCircle
 10
614.7500000000001
 20
316.25
 40
2.150000000000034
100
AcDbArc
 50
-90
 51
-2.599451068554675e-09
  0
ARC
  5
195
100
AcDbEntity
  8
s005-#def-solid-edge
  6
CONTINUOUS
 62
    7
420
    0
370
   40
100
AcDbCircle
 10
614.7500000000002
 20
316.2499999999999
 40
2.149999999999977
100
AcDbArc
 50
0
 51
89.99999999740662
  0
ARC
  5
196
100
AcDbEntity
  8
s005-#def-solid-edge
  6
CONTINUOUS
 62
    7
420
    0
370
   40
100
AcDbCircle
 10
614.7500000000001
 20
191.7499999999997
 40
2.149999999999778
100
AcDbArc
 50
-90
 51
-2.593391742054822e-09
  0
ARC
  5
197
100
AcDbEntity
  8
s005-#def-solid-edge
  6
CONTINUOUS
 62
    7
420
    0
370
   40
100
AcDbCircle
 10
614.7500000000002
 20
191.7499999999998
 40
2.149999999999864
100
AcDbArc
 50
3.029663250064044e-12
 51
89.99999999740359
  0
ARC
  5
198
100
AcDbEntity
  8
s005-#def-solid-edge
  6
CONTINUOUS
 62
    7
420
    0
370
   40
100
AcDbCircle
 10
604.7500000000001
 20
191.7500000000001
 40
2.149999999999892
100
AcDbArc
 50
90
 51
179.9999999974036
  0
ARC
  5
199
100
AcDbEntity
  8
s005-#def-solid-edge
  6
CONTINUOUS
 62
    7
420
    0
370
   40
100
AcDbCircle
 10
604.7500000000002
 20
191.7499999999999
 40
2.150000000000091
100
AcDbArc
 50
180
 51
-90.00000000260248
  0
ARC
  5
19A
100
AcDbEntity
  8
s005-#def-solid-edge
  6
CONTINUOUS
 62
    7
420
    0
370
   40
100
AcDbCircle
 10
8
 20
7.000000000000002
 40
1.599999999999998
100
AcDbArc
 50
90
 51
179.999999997401
  0
ARC
  5
19B
100
AcDbEntity
  8
s005-#def-solid-edge
  6
CONTINUOUS
 62
    7
420
    0
370
   40
100
AcDbCircle
 10
8
 20
7
 40
1.600000000000001
100
AcDbArc
 50
0
 51
89.9999999974039
  0
ARC
  5
19C
100
AcDbEntity
  8
s005-#def-solid-edge
  6
CONTINUOUS
 62
    7
420
    0
370
   40
100
AcDbCircle
 10
8
 20
6.999999999999998
 40
1.6
100
AcDbArc
 50
-90
 51
-2.599085674598357e-09
  0
ARC
  5
19D
100
AcDbEntity
  8
s005-#def-solid-edge
  6
CONTINUOUS
 62
    7
420
    0
370
   40
100
AcDbCircle
 10
7.999999999999999
 20
7.000000000000001
 40
1.600000000000001
100
AcDbArc
 50
-180
 51
-90.00000000260198
  0
ARC
  5
19E
100
AcDbEntity
  8
s005-#def-solid-edge
  6
CONTINUOUS
 62
    7
420
    0
370
   40
100
AcDbCircle
 10
8
 20
340.0000000000001
 40
1.6
100
AcDbArc
 50
90
 51
179.9999999974026
  0
ARC
  5
19F
100
AcDbEntity
  8
s005-#def-solid-edge
  6
CONTINUOUS
 62
    7
420
    0
370
   40
100
AcDbCircle
 10
8.00000000000008
 20
340
 40
1.599999999999966
100
AcDbArc
 50
0
 51
89.9999999974067
  0
ARC
  5
1A0
100
AcDbEntity
  8
s005-#def-solid-edge
  6
CONTINUOUS
 62
    7
420
    0
370
   40
100
AcDbCircle
 10
7.999999999999943
 20
340
 40
1.600000000000055
100
AcDbArc
 50
-89.99999999999797
 51
-2.601439285062551e-09
  0
ARC
  5
1A1
100
AcDbEntity
  8
s005-#def-solid-edge
  6
CONTINUOUS
 62
    7
420
    0
370
   40
100
AcDbCircle
 10
7.999999999999986
 20
340
 40
1.600000000000023
100
AcDbArc
 50
180
 51
-90.00000000260144
  0
ARC
  5
1A2
100
AcDbEntity
  8
s005-#def-solid-edge
  6
CONTINUOUS
 62
    7
420
    0
370
   40
100
AcDbCircle
 10
350.2499999999999
 20
339.9999999999999
 40
1.600000000000023
100
AcDbArc
 50
89.99999999999797
 51
179.9999999974006
  0
ARC
  5
1A3
100
AcDbEntity
  8
s005-#def-solid-edge
  6
CONTINUOUS
 62
    7
420
    0
370
   40
100
AcDbCircle
 10
350.2500000000001
 20
340
 40
1.599999999999966
100
AcDbArc
 50
0
 51
89.99999999740263
  0
ARC
  5
1A4
100
AcDbEntity
  8
s005-#def-solid-edge
  6
CONTINUOUS
 62
    7
420
    0
370
   40
100
AcDbCircle
 10
350.2499999999999
 20
340.0000000000001
 40
1.600000000000136
100
AcDbArc
 50
-89.99999999999797
 51
-2.599403730066281e-09
  0
ARC
  5
1A5
100
AcDbEntity
  8
s005-#def-solid-edge
  6
CONTINUOUS
 62
    7
420
    0
370
   40
100
AcDbCircle
 10
350.25
 20
340
 40
1.600000000000023
100
AcDbArc
 50
180
 51
-90.00000000260347
  0
ARC
  5
1A6
100
AcDbEntity
  8
s005-#def-solid-edge
  6
CONTINUOUS
 62
    7
420
    0
370
   40
100
AcDbCircle
 10
692.5
 20
339.9999999999999
 40
1.600000000000023
100
AcDbArc
 50
90
 51
179.9999999973986
  0
ARC
  5
1A7
100
AcDbEntity
  8
s005-#def-solid-edge
  6
CONTINUOUS
 62
    7
420
    0
370
   40
100
AcDbCircle
 10
692.5
 20
340
 40
1.60000000000008
100
AcDbArc
 50
0
 51
89.99999999740263
  0
ARC
  5
1A8
100
AcDbEntity
  8
s005-#def-solid-edge
  6
CONTINUOUS
 62
    7
420
    0
370
   40
100
AcDbCircle
 10
692.5
 20
339.9999999999999
 40
1.600000000000023
100
AcDbArc
 50
-90
 51
-2.597368175070329e-09
  0
ARC
  5
1A9
100
AcDbEntity
  8
s005-#def-solid-edge
  6
CONTINUOUS
 62
    7
420
    0
370
   40
100
AcDbCircle
 10
692.4999999999999
 20
340
 40
1.599999999999966
100
AcDbArc
 50
180
 51
-90.0000000025933
  0
ARC
  5
1AA
100
AcDbEntity
  8
s005-#def-solid-edge
  6
CONTINUOUS
 62
    7
420
    0
370
   40
100
AcDbCircle
 10
689
 20
15.00000000000028
 40
1.599999999999795
100
AcDbArc
 50
90
 51
179.9999999974108
  0
ARC
  5
1AB
100
AcDbEntity
  8
s005-#def-solid-edge
  6
CONTINUOUS
 62
    7
420
    0
370
   40
100
AcDbCircle
 10
689
 20
15
 40
1.599999999999998
100
AcDbArc
 50
0
 51
89.99999999740263
  0
ARC
  5
1AC
100
AcDbEntity
  8
s005-#def-solid-edge
  6
CONTINUOUS
 62
    7
420
    0
370
   40
100
AcDbCircle
 10
689
 20
14.99999999999984
 40
1.599999999999909
100
AcDbArc
 50
-90
 51
-2.59329706507824e-09
  0
ARC
  5
1AD
100
AcDbEntity
  8
s005-#def-solid-edge
  6
CONTINUOUS
 62
    7
420
    0
370
   40
100
AcDbCircle
 10
689.0000000000001
 20
15
 40
1.6
100
AcDbArc
 50
180
 51
-90.00000000259737
  0
ARC
  5
1AE
100
AcDbEntity
  8
s005-#def-solid-edge
  6
CONTINUOUS
 62
    7
420
    0
370
   40
100
AcDbCircle
 10
689
 20
7.000000000000277
 40
1.599999999999795
100
AcDbArc
 50
90
 51
179.9999999974108
  0
ARC
  5
1AF
100
AcDbEntity
  8
s005-#def-solid-edge
  6
CONTINUOUS
 62
    7
420
    0
370
   40
100
AcDbCircle
 10
689.0000000000001
 20
7
 40
1.600000000000003
100
AcDbArc
 50
0
 51
89.99999999739856
  0
ARC
  5
1B0
100
AcDbEntity
  8
s005-#def-solid-edge
  6
CONTINUOUS
 62
    7
420
    0
370
   40
100
AcDbCircle
 10
689
 20
6.99999999999995
 40
1.600000000000023
100
AcDbArc
 50
-90
 51
-2.597368175070329e-09
  0
ARC
  5
1B1
100
AcDbEntity
  8
s005-#def-solid-edge
  6
CONTINUOUS
 62
    7
420
    0
370
   40
100
AcDbCircle
 10
689.0000000000001
 20
7
 40
1.599999999999999
100
AcDbArc
 50
180
 51
-90.00000000259737
  0
ARC
  5
1B2
100
AcDbEntity
  8
s005-#def-solid-edge
  6
CONTINUOUS
 62
    7
420
    0
370
   40
100
AcDbCircle
 10
348.5
 20
6.99999999999999
 40
1.600000000000023
100
AcDbArc
 50
90
 51
179.9999999974006
  0
ARC
  5
1B3
100
AcDbEntity
  8
s005-#def-solid-edge
  6
CONTINUOUS
 62
    7
420
    0
370
   40
100
AcDbCircle
 10
348.5
 20
7
 40
1.600000000000003
100
AcDbArc
 50
0
 51
89.9999999974067
  0
ARC
  5
1B4
100
AcDbEntity
  8
s005-#def-solid-edge
  6
CONTINUOUS
 62
    7
420
    0
370
   40
100
AcDbCircle
 10
348.5
 20
7.000000000000009
 40
1.600000000000023
100
AcDbArc
 50
-90
 51
-2.599403730066466e-09
  0
ARC
  5
1B5
100
AcDbEntity
  8
s005-#def-solid-edge
  6
CONTINUOUS
 62
    7
420
    0
370
   40
100
AcDbCircle
 10
348.4999999999999
 20
7
 40
1.6
100
AcDbArc
 50
180
 51
-90.00000000260144
  0
ARC
  5
1B6
100
AcDbEntity
  8
s005-#def-solid-edge
  6
CONTINUOUS
 62
    7
420
    0
370
   40
100
AcDbCircle
 10
453.3
 20
339.0499999999998
 40
1.600000000000023
100
AcDbArc
 50
90
 51
179.9999999973986
  0
ARC
  5
1B7
100
AcDbEntity
  8
s005-#def-solid-edge
  6
CONTINUOUS
 62
    7
420
    0
370
   40
100
AcDbCircle
 10
453.3
 20
339.05
 40
1.599999999999909
100
AcDbArc
 50
-2.035554996136622e-12
 51
89.99999999740467
  0
ARC
  5
1B8
100
AcDbEntity
  8
s005-#def-solid-edge
  6
CONTINUOUS
 62
    7
420
    0
370
   40
100
AcDbCircle
 10
453.3000000000001
 20
339.0500000000002
 40
1.60000000000008
100
AcDbArc
 50
-90.00000000000203
 51
-2.605510395054783e-09
  0
ARC
  5
1B9
100
AcDbEntity
  8
s005-#def-solid-edge
  6
CONTINUOUS
 62
    7
420
    0
370
   40
100
AcDbCircle
 10
453.2999999999999
 20
339.05
 40
1.600000000000023
100
AcDbArc
 50
180
 51
-90.00000000259737
  0
ARC
  5
1BA
100
AcDbEntity
  8
s005-#def-solid-edge
  6
CONTINUOUS
 62
    7
420
    0
370
   40
100
AcDbCircle
 10
648.5
 20
339.0499999999999
 40
1.600000000000023
100
AcDbArc
 50
90
 51
179.9999999974026
  0
ARC
  5
1BB
100
AcDbEntity
  8
s005-#def-solid-edge
  6
CONTINUOUS
 62
    7
420
    0
370
   40
100
AcDbCircle
 10
648.5000000000002
 20
339.05
 40
1.60000000000008
100
AcDbArc
 50
0
 51
89.99999999739856
  0
ARC
  5
1BC
100
AcDbEntity
  8
s005-#def-solid-edge
  6
CONTINUOUS
 62
    7
420
    0
370
   40
100
AcDbCircle
 10
648.5
 20
339.05
 40
1.600000000000023
100
AcDbArc
 50
-90
 51
-2.597368175070329e-09
  0
ARC
  5
1BD
100
AcDbEntity
  8
s005-#def-solid-edge
  6
CONTINUOUS
 62
    7
420
    0
370
   40
100
AcDbCircle
 10
648.5
 20
339.05
 40
1.600000000000023
100
AcDbArc
 50
180
 51
-90.00000000259737
  0
ARC
  5
1BE
100
AcDbEntity
  8
s005-#def-solid-edge
  6
CONTINUOUS
 62
    7
420
    0
370
   40
100
AcDbCircle
 10
696.4999999999999
 20
175.5000000000001
 40
2.000000000000114
100
AcDbArc
 50
-179.9999999999967
 51
-90.00000000259574
  0
ARC
  5
1BF
100
AcDbEntity
  8
s005-#def-solid-edge
  6
CONTINUOUS
 62
    7
420
    0
370
   40
100
AcDbCircle
 10
696.5
 20
175.5
 40
2
100
AcDbArc
 50
90
 51
179.9999999974043
  0
ARC
  5
1C0
100
AcDbEntity
  8
s005-#def-solid-edge
  6
CONTINUOUS
 62
    7
420
    0
370
   40
100
AcDbCircle
 10
696.5000000000001
 20
175.4999999999999
 40
2.000000000000114
100
AcDbArc
 50
3.256887993818826e-12
 51
89.99999999739775
  0
ARC
  5
1C1
100
AcDbEntity
  8
s005-#def-solid-edge
  6
CONTINUOUS
 62
    7
420
    0
370
   40
100
AcDbCircle
 10
696.5
 20
175.5000000000001
 40
2.000000000000114
100
AcDbArc
 50
-90
 51
-2.602253507060946e-09
  0
ENDSEC
  0
SECTION
  2
OBJECTS
  0
DICTIONARY
  5
C
330
0
100
AcDbDictionary
281
    1
  3
ACAD_GROUP
350
D
  0
DICTIONARY
  5
D
330
C
100
AcDbDictionary
281
    1
  0
ENDSEC
  0
EOF
