999
dxfrw 0.6.3
  0
SECTION
  2
HEADER
  9
$ACADVER
  1
AC1021
  9
$DWGCODEPAGE
  3
ANSI_1252
  9
$INSBASE
 10
0
 20
0
 30
0
  9
$EXTMIN
 10
1e+20
 20
1e+20
 30
1e+20
  9
$EXTMAX
 10
-1e+20
 20
-1e+20
 30
-1e+20
  9
$LIMMIN
 10
0
 20
0
  9
$LIMMAX
 10
420
 20
297
  9
$ORTHOMODE
 70
    0
  9
$REGENMODE
 70
    1
  9
$FILLMODE
 70
    1
  9
$QTEXTMODE
 70
    0
  9
$MIRRTEXT
 70
    0
  9
$LTSCALE
 40
1
  9
$ATTMODE
 70
    0
  9
$TEXTSIZE
 40
2.5
  9
$TRACEWID
 40
15.68
  9
$TEXTSTYLE
  7
STANDARD
  9
$CLAYER
  8
0
  9
$CELTYPE
  6
BYLAYER
  9
$CECOLOR
 62
  256
  9
$CELTSCALE
 40
1
  9
$DISPSILH
 70
    0
  9
$DIMSCALE
 40
1
  9
$DIMASZ
 40
2.5
  9
$DIMEXO
 40
0.625
  9
$DIMDLI
 40
3.75
  9
$DIMRND
 40
0
  9
$DIMDLE
 40
0
  9
$DIMEXE
 40
1.25
  9
$DIMTP
 40
0
  9
$DIMTM
 40
0
  9
$DIMTXT
 40
2.5
  9
$DIMCEN
 40
2.5
  9
$DIMTSZ
 40
0
  9
$DIMTOL
 70
    0
  9
$DIMLIM
 70
    0
  9
$DIMTIH
 70
    0
  9
$DIMTOH
 70
    0
  9
$DIMSE1
 70
    0
  9
$DIMSE2
 70
    0
  9
$DIMTAD
 70
    1
  9
$DIMZIN
 70
    8
  9
$DIMBLK
  1

  9
$DIMASO
 70
    1
  9
$DIMSHO
 70
    1
  9
$DIMPOST
  1

  9
$DIMAPOST
  1

  9
$DIMALT
 70
    0
  9
$DIMALTD
 70
    3
  9
$DIMALTF
 40
0.03937
  9
$DIMLFAC
 40
1
  9
$DIMTOFL
 70
    1
  9
$DIMTVP
 40
0
  9
$DIMTIX
 70
    0
  9
$DIMSOXD
 70
    0
  9
$DIMSAH
 70
    0
  9
$DIMBLK1
  1

  9
$DIMBLK2
  1

  9
$DIMSTYLE
  2
STANDARD
  9
$DIMCLRD
 70
    0
  9
$DIMCLRE
 70
    0
  9
$DIMCLRT
 70
    0
  9
$DIMTFAC
 40
1
  9
$DIMGAP
 40
0.625
  9
$DIMJUST
 70
    0
  9
$DIMSD1
 70
    0
  9
$DIMSD2
 70
    0
  9
$DIMTOLJ
 70
    0
  9
$DIMTZIN
 70
    8
  9
$DIMALTZ
 70
    0
  9
$DIMALTTZ
 70
    0
  9
$DIMUPT
 70
    0
  9
$DIMDEC
 70
    2
  9
$DIMTDEC
 70
    2
  9
$DIMALTU
 70
    2
  9
$DIMALTTD
 70
    3
  9
$DIMTXSTY
  7
STANDARD
  9
$DIMAUNIT
 70
    0
  9
$DIMADEC
 70
    0
  9
$DIMALTRND
 40
0
  9
$DIMAZIN
 70
    0
  9
$DIMDSEP
 70
   44
  9
$DIMATFIT
 70
    3
  9
$DIMFRAC
 70
    0
  9
$DIMLDRBLK
  1
STANDARD
  9
$DIMLUNIT
 70
    2
  9
$DIMLWD
 70
   -2
  9
$DIMLWE
 70
   -2
  9
$DIMTMOVE
 70
    0
  9
$DIMFXL
 40
1
  9
$DIMFXLON
 70
    0
  9
$DIMJOGANG
 40
0.7854
  9
$DIMTFILL
 70
    0
  9
$DIMTFILLCLR
 70
    0
  9
$DIMARCSYM
 70
    0
  9
$DIMLTYPE
  6

  9
$DIMLTEX1
  6

  9
$DIMLTEX2
  6

  9
$LUNITS
 70
    2
  9
$LUPREC
 70
    4
  9
$SKETCHINC
 40
1
  9
$FILLETRAD
 40
0
  9
$AUNITS
 70
    0
  9
$AUPREC
 70
    2
  9
$MENU
  1
.
  9
$ELEVATION
 40
0
  9
$PELEVATION
 40
0
  9
$THICKNESS
 40
0
  9
$LIMCHECK
 70
    0
  9
$CHAMFERA
 40
0
  9
$CHAMFERB
 40
0
  9
$CHAMFERC
 40
0
  9
$CHAMFERD
 40
0
  9
$SKPOLY
 70
    0
  9
$USRTIMER
 70
    1
  9
$ANGBASE
 50
0
  9
$ANGDIR
 70
    0
  9
$PDMODE
 70
   34
  9
$PDSIZE
 40
0
  9
$PLINEWID
 40
0
  9
$SPLFRAME
 70
    0
  9
$SPLINETYPE
 70
    2
  9
$SPLINESEGS
 70
    8
  9
$HANDSEED
  5
20000
  9
$SURFTAB1
 70
    6
  9
$SURFTAB2
 70
    6
  9
$SURFTYPE
 70
    6
  9
$SURFU
 70
    6
  9
$SURFV
 70
    6
  9
$UCSBASE
  2

  9
$UCSNAME
  2

  9
$UCSORG
 10
0
 20
0
 30
0
  9
$UCSXDIR
 10
1
 20
0
 30
0
  9
$UCSYDIR
 10
0
 20
1
 30
0
  9
$UCSORTHOREF
  2

  9
$UCSORTHOVIEW
 70
    0
  9
$UCSORGTOP
 10
0
 20
0
 30
0
  9
$UCSORGBOTTOM
 10
0
 20
0
 30
0
  9
$UCSORGLEFT
 10
0
 20
0
 30
0
  9
$UCSORGRIGHT
 10
0
 20
0
 30
0
  9
$UCSORGFRONT
 10
0
 20
0
 30
0
  9
$UCSORGBACK
 10
0
 20
0
 30
0
  9
$PUCSBASE
  2

  9
$PUCSNAME
  2

  9
$PUCSORG
 10
0
 20
0
 30
0
  9
$PUCSXDIR
 10
1
 20
0
 30
0
  9
$PUCSYDIR
 10
0
 20
1
 30
0
  9
$PUCSORTHOREF
  2

  9
$PUCSORTHOVIEW
 70
    0
  9
$PUCSORGTOP
 10
0
 20
0
 30
0
  9
$PUCSORGBOTTOM
 10
0
 20
0
 30
0
  9
$PUCSORGLEFT
 10
0
 20
0
 30
0
  9
$PUCSORGRIGHT
 10
0
 20
0
 30
0
  9
$PUCSORGFRONT
 10
0
 20
0
 30
0
  9
$PUCSORGBACK
 10
0
 20
0
 30
0
  9
$USERI1
 70
    0
  9
$USERI2
 70
    0
  9
$USERI3
 70
    0
  9
$USERI4
 70
    0
  9
$USERI5
 70
    0
  9
$USERR1
 40
0
  9
$USERR2
 40
0
  9
$USERR3
 40
0
  9
$USERR4
 40
0
  9
$USERR5
 40
0
  9
$WORLDVIEW
 70
    1
  9
$SHADEDGE
 70
    3
  9
$SHADEDIF
 70
   70
  9
$TILEMODE
 70
    1
  9
$MAXACTVP
 70
   64
  9
$PINSBASE
 10
0
 20
0
 30
0
  9
$PLIMCHECK
 70
    0
  9
$PEXTMIN
 10
0
 20
0
 30
0
  9
$PEXTMAX
 10
0
 20
0
 30
0
  9
$PLIMMIN
 10
0
 20
0
  9
$PLIMMAX
 10
297
 20
210
  9
$UNITMODE
 70
    0
  9
$VISRETAIN
 70
    1
  9
$PLINEGEN
 70
    0
  9
$PSLTSCALE
 70
    1
  9
$TREEDEPTH
 70
 3020
  9
$CMLSTYLE
  2
Standard
  9
$CMLJUST
 70
    0
  9
$CMLSCALE
 40
20
  9
$PROXYGRAPHICS
 70
    1
  9
$MEASUREMENT
 70
    1
  9
$CELWEIGHT
370
   -1
  9
$ENDCAPS
280
    0
  9
$JOINSTYLE
280
    0
  9
$LWDISPLAY
290
    0
  9
$INSUNITS
 70
    0
  9
$HYPERLINKBASE
  1

  9
$STYLESHEET
  1

  9
$XEDIT
290
    1
  9
$CEPSNTYPE
380
    0
  9
$PSTYLEMODE
290
    1
  9
$EXTNAMES
290
    1
  9
$PSVPSCALE
 40
0
  9
$OLESTARTUP
290
    0
  9
$SORTENTS
280
  127
  9
$INDEXCTL
280
    0
  9
$HIDETEXT
280
    1
  9
$XCLIPFRAME
290
    0
  9
$HALOGAP
280
    0
  9
$OBSCOLOR
 70
  257
  9
$OBSLTYPE
280
    0
  9
$INTERSECTIONDISPLAY
280
    0
  9
$INTERSECTIONCOLOR
 70
  257
  9
$DIMASSOC
280
    1
  9
$PROJECTNAME
  1

  9
$CAMERADISPLAY
290
    0
  9
$LENSLENGTH
 40
50
  9
$CAMERAHEIGHT
 40
0
  9
$STEPSPERSEC
 40
2
  9
$STEPSIZE
 40
50
  9
$3DDWFPREC
 40
2
  9
$PSOLWIDTH
 40
5
  9
$PSOLHEIGHT
 40
80
  9
$LOFTANG1
 40
1.570796326794897
  9
$LOFTANG2
 40
1.570796326794897
  9
$LOFTMAG1
 40
0
  9
$LOFTMAG2
 40
0
  9
$LOFTPARAM
 70
    7
  9
$LOFTNORMALS
280
    1
  9
$LATITUDE
 40
1
  9
$LONGITUDE
 40
1
  9
$NORTHDIRECTION
 40
0
  9
$TIMEZONE
 70
-8000
  9
$LIGHTGLYPHDISPLAY
280
    1
  9
$TILEMODELIGHTSYNCH
280
    1
  9
$SOLIDHIST
280
    1
  9
$SHOWHIST
280
    1
  9
$DWFFRAME
280
    2
  9
$DGNFRAME
280
    0
  9
$REALWORLDSCALE
290
    1
  9
$INTERFERECOLOR
 62
    1
  9
$CSHADOW
280
    0
  9
$SHADOWPLANELOCATION
 40
0
  0
ENDSEC
  0
SECTION
  2
CLASSES
  0
ENDSEC
  0
SECTION
  2
TABLES
  0
TABLE
  2
VPORT
  5
8
330
0
100
AcDbSymbolTable
 70
    1
  0
VPORT
  5
31
330
2
100
AcDbSymbolTableRecord
100
AcDbViewportTableRecord
  2
*ACTIVE
 70
    0
 10
0
 20
0
 11
1
 21
1
 12
0.651828
 22
-0.16
 13
0
 23
0
 14
10
 24
10
 15
10
 25
10
 16
0
 26
0
 36
1
 17
0
 27
0
 37
0
 40
5.13732
 41
2.4426877
 42
50
 43
0
 44
0
 50
0
 51
0
 71
    0
 72
  100
 73
    1
 74
    3
 75
    0
 76
    0
 77
    0
 78
    0
281
    0
 65
    1
110
0
120
0
130
0
111
1
121
0
131
0
112
0
122
1
132
0
 79
    0
146
0
348
10020
 60
    7
 61
    5
292
1
282
    1
141
0
142
0
 63
  250
421
3358443
  0
ENDTAB
  0
TABLE
  2
LTYPE
  5
5
330
0
100
AcDbSymbolTable
 70
    4
  0
LTYPE
  5
14
330
5
100
AcDbSymbolTableRecord
100
AcDbLinetypeTableRecord
  2
ByBlock
 70
    0
  3

 72
   65
 73
    0
 40
0
  0
LTYPE
  5
15
330
5
100
AcDbSymbolTableRecord
100
AcDbLinetypeTableRecord
  2
ByLayer
 70
    0
  3

 72
   65
 73
    0
 40
0
  0
LTYPE
  5
16
330
5
100
AcDbSymbolTableRecord
100
AcDbLinetypeTableRecord
  2
Continuous
 70
    0
  3
Solid line
 72
   65
 73
    0
 40
0
  0
LTYPE
  5
32
330
5
100
AcDbSymbolTableRecord
100
AcDbLinetypeTableRecord
  2
DASHED
 70
    0
  3

 72
   65
 73
    2
 40
3
 49
1
 74
    0
 49
-2
 74
    0
  0
LTYPE
  5
33
330
5
100
AcDbSymbolTableRecord
100
AcDbLinetypeTableRecord
  2
DASHED
 70
    0
  3

 72
   65
 73
    2
 40
2
 49
1
 74
    0
 49
-1
 74
    0
  0
LTYPE
  5
34
330
5
100
AcDbSymbolTableRecord
100
AcDbLinetypeTableRecord
  2
DASHEDX2
 70
    0
  3

 72
   65
 73
    2
 40
3
 49
2
 74
    0
 49
-1
 74
    0
  0
LTYPE
  5
35
330
5
100
AcDbSymbolTableRecord
100
AcDbLinetypeTableRecord
  2
DASHDOT
 70
    0
  3

 72
   65
 73
    4
 40
3
 49
1
 74
    0
 49
-1
 74
    0
 49
0
 74
    0
 49
-1
 74
    0
  0
LTYPE
  5
36
330
5
100
AcDbSymbolTableRecord
100
AcDbLinetypeTableRecord
  2
DIVIDE
 70
    0
  3

 72
   65
 73
    6
 40
4
 49
1
 74
    0
 49
-1
 74
    0
 49
0
 74
    0
 49
-1
 74
    0
 49
0
 74
    0
 49
-1
 74
    0
  0
LTYPE
  5
37
330
5
100
AcDbSymbolTableRecord
100
AcDbLinetypeTableRecord
  2
DOT
 70
    0
  3

 72
   65
 73
    2
 40
1
 49
1
 74
    0
 49
0
 74
    0
  0
ENDTAB
  0
TABLE
  2
LAYER
  5
2
330
0
100
AcDbSymbolTable
 70
    1
  0
LAYER
  5
38
330
2
100
AcDbSymbolTableRecord
100
AcDbLayerTableRecord
  2
dimensions
 70
    0
 62
    7
  6
CONTINUOUS
370
   -3
390
F
  0
LAYER
  5
39
330
2
100
AcDbSymbolTableRecord
100
AcDbLayerTableRecord
  2
text
 70
    0
 62
    7
  6
CONTINUOUS
370
   -3
390
F
  0
LAYER
  5
3A
330
2
100
AcDbSymbolTableRecord
100
AcDbLayerTableRecord
  2
s005-#def-solid-edge
 70
    0
 62
    7
  6
CONTINUOUS
370
   -3
390
F
  0
LAYER
  5
10
330
2
100
AcDbSymbolTableRecord
100
AcDbLayerTableRecord
  2
0
 70
    0
 62
    7
  6
CONTINUOUS
370
   -3
390
F
  0
ENDTAB
  0
TABLE
  2
STYLE
  5
3
330
0
100
AcDbSymbolTable
 70
    3
  0
STYLE
  5
3B
330
2
100
AcDbSymbolTableRecord
100
AcDbTextStyleTableRecord
  2
unicode
 70
    0
 40
0
 41
1
 50
0
 71
    0
 42
1
  3
unicode
  4

  0
STYLE
  5
3C
330
2
100
AcDbSymbolTableRecord
100
AcDbTextStyleTableRecord
  2
Standard
 70
    0
 40
0
 41
1
 50
0
 71
    0
 42
1
  3
txt
  4

  0
ENDTAB
  0
TABLE
  2
VIEW
  5
6
330
0
100
AcDbSymbolTable
 70
    0
  0
ENDTAB
  0
TABLE
  2
UCS
  5
7
330
0
100
AcDbSymbolTable
 70
    0
  0
ENDTAB
  0
TABLE
  2
APPID
  5
9
330
0
100
AcDbSymbolTable
 70
    1
  0
APPID
  5
12
330
9
100
AcDbSymbolTableRecord
100
AcDbRegAppTableRecord
  2
ACAD
 70
    0
  0
ENDTAB
  0
TABLE
  2
DIMSTYLE
  5
A
330
0
100
AcDbSymbolTable
 70
    1
100
AcDbDimStyleTable
 71
    1
  0
DIMSTYLE
105
3D
330
A
100
AcDbSymbolTableRecord
100
AcDbDimStyleTableRecord
  2
Standard
 70
    0
 40
1
 41
2.5
 42
0.625
 43
3.75
 44
1.25
 45
0
 46
0
 47
0
 48
0
140
2.5
141
2.5
142
0
143
0.03937007874015748
144
1
145
0
146
1
147
0.625
148
0
 71
    0
 72
    0
 73
    0
 74
    0
 75
    0
 76
    0
 77
    1
 78
    8
 79
    0
170
    0
171
    3
172
    1
173
    0
174
    0
175
    0
176
    0
177
    0
178
    0
179
    0
271
    2
272
    2
273
    2
274
    3
275
    0
276
    0
277
    2
278
   44
279
    0
280
    0
281
    0
282
    0
283
    0
284
    8
285
    0
286
    0
288
    0
289
    3
341

371
   -2
372
   -2
  0
ENDTAB
  0
TABLE
  2
BLOCK_RECORD
  5
1
330
0
100
AcDbSymbolTable
 70
    2
  0
BLOCK_RECORD
  5
1F
330
1
100
AcDbSymbolTableRecord
100
AcDbBlockTableRecord
  2
*Model_Space
 70
    0
280
    1
281
    0
  0
BLOCK_RECORD
  5
1E
330
1
100
AcDbSymbolTableRecord
100
AcDbBlockTableRecord
  2
*Paper_Space
 70
    0
280
    1
281
    0
  0
ENDTAB
  0
ENDSEC
  0
SECTION
  2
BLOCKS
  0
BLOCK
  5
20
330
1F
100
AcDbEntity
  8
0
100
AcDbBlockBegin
  2
*Model_Space
 70
    0
 10
0
 20
0
 30
0
  3
*Model_Space
  1

  0
ENDBLK
  5
21
330
1F
100
AcDbEntity
  8
0
100
AcDbBlockEnd
  0
BLOCK
  5
1C
330
1B
100
AcDbEntity
  8
0
100
AcDbBlockBegin
  2
*Paper_Space
 70
    0
 10
0
 20
0
 30
0
  3
*Paper_Space
  1

  0
ENDBLK
  5
1D
330
1F
100
AcDbEntity
  8
0
100
AcDbBlockEnd
  0
ENDSEC
  0
SECTION
  2
ENTITIES
  0
POLYLINE
  5
3E
100
AcDbEntity
  8
s005-#def-solid-edge
  6
CONTINUOUS
 62
    7
420
    0
370
   30
100
AcDb2dPolyline
 10
0
 20
0
 30
0
 70
    0
  0
VERTEX
  5
3F
100
AcDbEntity
  8
s005-#def-solid-edge
  6
CONTINUOUS
 62
    7
420
    0
370
   30
100
AcDbVertex
100
AcDb2dVertex
 10
135
 20
8.000000000000007
 30
0
  0
VERTEX
  5
40
100
AcDbEntity
  8
s005-#def-solid-edge
  6
CONTINUOUS
 62
    7
420
    0
370
   30
100
AcDbVertex
100
AcDb2dVertex
 10
30.99999999999999
 20
8.000000000000009
 30
0
  0
VERTEX
  5
41
100
AcDbEntity
  8
s005-#def-solid-edge
  6
CONTINUOUS
 62
    7
420
    0
370
   30
100
AcDbVertex
100
AcDb2dVertex
 10
30.99999999999999
 20
18
 30
0
  0
SEQEND
  5
42
100
AcDbEntity
  8
s005-#def-solid-edge
  6
CONTINUOUS
 62
    7
420
    0
370
   30
  0
POLYLINE
  5
43
100
AcDbEntity
  8
s005-#def-solid-edge
  6
CONTINUOUS
 62
    7
420
    0
370
   30
100
AcDb2dPolyline
 10
0
 20
0
 30
0
 70
    0
  0
VERTEX
  5
44
100
AcDbEntity
  8
s005-#def-solid-edge
  6
CONTINUOUS
 62
    7
420
    0
370
   30
100
AcDbVertex
100
AcDb2dVertex
 10
55.00000000000001
 20
82.00000000000001
 30
0
  0
VERTEX
  5
45
100
AcDbEntity
  8
s005-#def-solid-edge
  6
CONTINUOUS
 62
    7
420
    0
370
   30
100
AcDbVertex
100
AcDb2dVertex
 10
159
 20
82.00000000000001
 30
0
  0
VERTEX
  5
46
100
AcDbEntity
  8
s005-#def-solid-edge
  6
CONTINUOUS
 62
    7
420
    0
370
   30
100
AcDbVertex
100
AcDb2dVertex
 10
159
 20
72
 30
0
  0
SEQEND
  5
47
100
AcDbEntity
  8
s005-#def-solid-edge
  6
CONTINUOUS
 62
    7
420
    0
370
   30
  0
POLYLINE
  5
48
100
AcDbEntity
  8
s005-#def-solid-edge
  6
CONTINUOUS
 62
    7
420
    0
370
   30
100
AcDb2dPolyline
 10
0
 20
0
 30
0
 70
    0
  0
VERTEX
  5
49
100
AcDbEntity
  8
s005-#def-solid-edge
  6
CONTINUOUS
 62
    7
420
    0
370
   30
100
AcDbVertex
100
AcDb2dVertex
 10
23.5
 20
550
 30
0
  0
VERTEX
  5
4A
100
AcDbEntity
  8
s005-#def-solid-edge
  6
CONTINUOUS
 62
    7
420
    0
370
   30
100
AcDbVertex
100
AcDb2dVertex
 10
0
 20
550
 30
0
  0
VERTEX
  5
4B
100
AcDbEntity
  8
s005-#def-solid-edge
  6
CONTINUOUS
 62
    7
420
    0
370
   30
100
AcDbVertex
100
AcDb2dVertex
 10
0
 20
0
 30
0
  0
VERTEX
  5
4C
100
AcDbEntity
  8
s005-#def-solid-edge
  6
CONTINUOUS
 62
    7
420
    0
370
   30
100
AcDbVertex
100
AcDb2dVertex
 10
347
 20
0
 30
0
  0
VERTEX
  5
4D
100
AcDbEntity
  8
s005-#def-solid-edge
  6
CONTINUOUS
 62
    7
420
    0
370
   30
100
AcDbVertex
100
AcDb2dVertex
 10
347
 20
550
 30
0
  0
VERTEX
  5
4E
100
AcDbEntity
  8
s005-#def-solid-edge
  6
CONTINUOUS
 62
    7
420
    0
370
   30
100
AcDbVertex
100
AcDb2dVertex
 10
323.5
 20
550
 30
0
  0
VERTEX
  5
4F
100
AcDbEntity
  8
s005-#def-solid-edge
  6
CONTINUOUS
 62
    7
420
    0
370
   30
100
AcDbVertex
100
AcDb2dVertex
 10
323.5
 20
510
 30
0
  0
VERTEX
  5
50
100
AcDbEntity
  8
s005-#def-solid-edge
  6
CONTINUOUS
 62
    7
420
    0
370
   30
100
AcDbVertex
100
AcDb2dVertex
 10
23.5
 20
510
 30
0
  0
VERTEX
  5
51
100
AcDbEntity
  8
s005-#def-solid-edge
  6
CONTINUOUS
 62
    7
420
    0
370
   30
100
AcDbVertex
100
AcDb2dVertex
 10
23.5
 20
550
 30
0
  0
SEQEND
  5
52
100
AcDbEntity
  8
s005-#def-solid-edge
  6
CONTINUOUS
 62
    7
420
    0
370
   30
  0
POLYLINE
  5
53
100
AcDbEntity
  8
s005-#def-solid-edge
  6
CONTINUOUS
 62
    7
420
    0
370
   30
100
AcDb2dPolyline
 10
0
 20
0
 30
0
 70
    0
  0
VERTEX
  5
54
100
AcDbEntity
  8
s005-#def-solid-edge
  6
CONTINUOUS
 62
    7
420
    0
370
   30
100
AcDbVertex
100
AcDb2dVertex
 10
177.7648
 20
113.62287358065
 30
0
  0
VERTEX
  5
55
100
AcDbEntity
  8
s005-#def-solid-edge
  6
CONTINUOUS
 62
    7
420
    0
370
   30
100
AcDbVertex
100
AcDb2dVertex
 10
177.7648
 20
436.37712641935
 30
0
  0
VERTEX
  5
56
100
AcDbEntity
  8
s005-#def-solid-edge
  6
CONTINUOUS
 62
    7
420
    0
370
   30
100
AcDbVertex
100
AcDb2dVertex
 10
289.8296000000001
 20
436.37712641935
 30
0
  0
VERTEX
  5
57
100
AcDbEntity
  8
s005-#def-solid-edge
  6
CONTINUOUS
 62
    7
420
    0
370
   30
100
AcDbVertex
100
AcDb2dVertex
 10
289.8296000000001
 20
113.62287358065
 30
0
  0
VERTEX
  5
58
100
AcDbEntity
  8
s005-#def-solid-edge
  6
CONTINUOUS
 62
    7
420
    0
370
   30
100
AcDbVertex
100
AcDb2dVertex
 10
177.7648
 20
113.62287358065
 30
0
  0
SEQEND
  5
59
100
AcDbEntity
  8
s005-#def-solid-edge
  6
CONTINUOUS
 62
    7
420
    0
370
   30
  0
POLYLINE
  5
5A
100
AcDbEntity
  8
s005-#def-solid-edge
  6
CONTINUOUS
 62
    7
420
    0
370
   30
100
AcDb2dPolyline
 10
0
 20
0
 30
0
 70
    0
  0
VERTEX
  5
5B
100
AcDbEntity
  8
s005-#def-solid-edge
  6
CONTINUOUS
 62
    7
420
    0
370
   30
100
AcDbVertex
100
AcDb2dVertex
 10
169.2352
 20
436.37712641935
 30
0
  0
VERTEX
  5
5C
100
AcDbEntity
  8
s005-#def-solid-edge
  6
CONTINUOUS
 62
    7
420
    0
370
   30
100
AcDbVertex
100
AcDb2dVertex
 10
169.2352
 20
113.62287358065
 30
0
  0
VERTEX
  5
5D
100
AcDbEntity
  8
s005-#def-solid-edge
  6
CONTINUOUS
 62
    7
420
    0
370
   30
100
AcDbVertex
100
AcDb2dVertex
 10
57.1703999999999
 20
113.62287358065
 30
0
  0
VERTEX
  5
5E
100
AcDbEntity
  8
s005-#def-solid-edge
  6
CONTINUOUS
 62
    7
420
    0
370
   30
100
AcDbVertex
100
AcDb2dVertex
 10
57.17039999999993
 20
436.37712641935
 30
0
  0
VERTEX
  5
5F
100
AcDbEntity
  8
s005-#def-solid-edge
  6
CONTINUOUS
 62
    7
420
    0
370
   30
100
AcDbVertex
100
AcDb2dVertex
 10
169.2352
 20
436.37712641935
 30
0
  0
SEQEND
  5
60
100
AcDbEntity
  8
s005-#def-solid-edge
  6
CONTINUOUS
 62
    7
420
    0
370
   30
  0
LINE
  5
61
100
AcDbEntity
  8
s005-#def-solid-edge
  6
CONTINUOUS
 62
    7
420
    0
370
   30
100
AcDbLine
 10
164
 20
67
 11
164
 21
13.00000000000001
  0
LINE
  5
62
100
AcDbEntity
  8
s005-#def-solid-edge
  6
CONTINUOUS
 62
    7
420
    0
370
   30
100
AcDbLine
 10
159
 20
8.000000000000009
 11
145
 21
8.000000000000009
  0
LINE
  5
63
100
AcDbEntity
  8
s005-#def-solid-edge
  6
CONTINUOUS
 62
    7
420
    0
370
   30
100
AcDbLine
 10
25.99999999999999
 20
23
 11
26
 21
77.00000000000001
  0
LINE
  5
64
100
AcDbEntity
  8
s005-#def-solid-edge
  6
CONTINUOUS
 62
    7
420
    0
370
   30
100
AcDbLine
 10
31
 20
82.00000000000001
 11
45.00000000000001
 21
82.00000000000001
  0
ARC
  5
65
100
AcDbEntity
  8
s005-#def-solid-edge
  6
CONTINUOUS
 62
    7
420
    0
370
   30
100
AcDbCircle
 10
164
 20
72
 40
5.000000000000028
100
AcDbArc
 50
180
 51
-90.00000000259932
  0
ARC
  5
66
100
AcDbEntity
  8
s005-#def-solid-edge
  6
CONTINUOUS
 62
    7
420
    0
370
   30
100
AcDbCircle
 10
164
 20
7.99999999999996
 40
5.000000000000049
100
AcDbArc
 50
90
 51
179.9999999974004
  0
ARC
  5
67
100
AcDbEntity
  8
s005-#def-solid-edge
  6
CONTINUOUS
 62
    7
420
    0
370
   30
100
AcDbCircle
 10
140.0000000000001
 20
8.000000000000009
 40
4.999999999999943
100
AcDbArc
 50
0
 51
89.99999999740101
  0
ARC
  5
68
100
AcDbEntity
  8
s005-#def-solid-edge
  6
CONTINUOUS
 62
    7
420
    0
370
   30
100
AcDbCircle
 10
140
 20
7.999999999999985
 40
5.000000000000022
100
AcDbArc
 50
90
 51
179.9999999974007
  0
ARC
  5
69
100
AcDbEntity
  8
s005-#def-solid-edge
  6
CONTINUOUS
 62
    7
420
    0
370
   30
100
AcDbCircle
 10
26
 20
18
 40
4.999999999999993
100
AcDbArc
 50
4.071109992273308e-14
 51
89.99999999740081
  0
ARC
  5
6A
100
AcDbEntity
  8
s005-#def-solid-edge
  6
CONTINUOUS
 62
    7
420
    0
370
   30
100
AcDbCircle
 10
25.99999999999999
 20
82
 40
4.999999999999986
100
AcDbArc
 50
-89.99999999999983
 51
-2.599159463466961e-09
  0
ARC
  5
6B
100
AcDbEntity
  8
s005-#def-solid-edge
  6
CONTINUOUS
 62
    7
420
    0
370
   30
100
AcDbCircle
 10
50
 20
82.00000000000001
 40
4.999999999999993
100
AcDbArc
 50
180
 51
-90.00000000259882
  0
ARC
  5
6C
100
AcDbEntity
  8
s005-#def-solid-edge
  6
CONTINUOUS
 62
    7
420
    0
370
   30
100
AcDbCircle
 10
50.00000000000001
 20
81.99999999999997
 40
4.999999999999957
100
AcDbArc
 50
-90
 51
-2.598996619067276e-09
  0
ARC
  5
6D
100
AcDbEntity
  8
s005-#def-solid-edge
  6
CONTINUOUS
 62
    7
420
    0
370
   30
100
AcDbCircle
 10
26.00000000000001
 20
82.00000000000001
 40
1.828800000000015
100
AcDbArc
 50
90.00000000259921
 51
180
  0
ARC
  5
6E
100
AcDbEntity
  8
s005-#def-solid-edge
  6
CONTINUOUS
 62
    7
420
    0
370
   30
100
AcDbCircle
 10
26
 20
82.00000000000001
 40
1.828800000000001
100
AcDbArc
 50
2.598760829494668e-09
 51
90
  0
ARC
  5
6F
100
AcDbEntity
  8
s005-#def-solid-edge
  6
CONTINUOUS
 62
    7
420
    0
370
   30
100
AcDbCircle
 10
26
 20
82.00000000000001
 40
1.828800000000005
100
AcDbArc
 50
-89.99999999740035
 51
0
  0
ARC
  5
70
100
AcDbEntity
  8
s005-#def-solid-edge
  6
CONTINUOUS
 62
    7
420
    0
370
   30
100
AcDbCircle
 10
26
 20
82
 40
1.828799999999987
100
AcDbArc
 50
-179.9999999974013
 51
-90
  0
ARC
  5
71
100
AcDbEntity
  8
s005-#def-solid-edge
  6
CONTINUOUS
 62
    7
420
    0
370
   30
100
AcDbCircle
 10
49.99999999999999
 20
82.00000000000001
 40
1.82879999999998
100
AcDbArc
 50
90.00000000259833
 51
180
  0
ARC
  5
72
100
AcDbEntity
  8
s005-#def-solid-edge
  6
CONTINUOUS
 62
    7
420
    0
370
   30
100
AcDbCircle
 10
50.00000000000001
 20
82
 40
1.828800000000015
100
AcDbArc
 50
2.598760829494668e-09
 51
90
  0
ARC
  5
73
100
AcDbEntity
  8
s005-#def-solid-edge
  6
CONTINUOUS
 62
    7
420
    0
370
   30
100
AcDbCircle
 10
50.00000000000001
 20
82.00000000000001
 40
1.828799999999994
100
AcDbArc
 50
-89.99999999740035
 51
0
  0
ARC
  5
74
100
AcDbEntity
  8
s005-#def-solid-edge
  6
CONTINUOUS
 62
    7
420
    0
370
   30
100
AcDbCircle
 10
50.00000000000001
 20
82.00000000000003
 40
1.828800000000015
100
AcDbArc
 50
-179.9999999974008
 51
-90
  0
ARC
  5
75
100
AcDbEntity
  8
s005-#def-solid-edge
  6
CONTINUOUS
 62
    7
420
    0
370
   30
100
AcDbCircle
 10
164
 20
82.00000000000001
 40
1.828800000000001
100
AcDbArc
 50
90.00000000259654
 51
180
  0
ARC
  5
76
100
AcDbEntity
  8
s005-#def-solid-edge
  6
CONTINUOUS
 62
    7
420
    0
370
   30
100
AcDbCircle
 10
164
 20
82
 40
1.828800000000015
100
AcDbArc
 50
2.599206051497283e-09
 51
90
  0
ARC
  5
77
100
AcDbEntity
  8
s005-#def-solid-edge
  6
CONTINUOUS
 62
    7
420
    0
370
   30
100
AcDbCircle
 10
164
 20
82.00000000000001
 40
1.82880000000003
100
AcDbArc
 50
-89.99999999740081
 51
0
  0
ARC
  5
78
100
AcDbEntity
  8
s005-#def-solid-edge
  6
CONTINUOUS
 62
    7
420
    0
370
   30
100
AcDbCircle
 10
164
 20
81.99999999999997
 40
1.828799999999958
100
AcDbArc
 50
-179.9999999974017
 51
-90
  0
ARC
  5
79
100
AcDbEntity
  8
s005-#def-solid-edge
  6
CONTINUOUS
 62
    7
420
    0
370
   30
100
AcDbCircle
 10
163.9999999999999
 20
72
 40
1.828799999999944
100
AcDbArc
 50
90.00000000259921
 51
180
  0
ARC
  5
7A
100
AcDbEntity
  8
s005-#def-solid-edge
  6
CONTINUOUS
 62
    7
420
    0
370
   30
100
AcDbCircle
 10
164
 20
72.00000000000001
 40
1.828799999999987
100
AcDbArc
 50
2.597425163486745e-09
 51
90
  0
ARC
  5
7B
100
AcDbEntity
  8
s005-#def-solid-edge
  6
CONTINUOUS
 62
    7
420
    0
370
   30
100
AcDbCircle
 10
163.9999999999999
 20
72
 40
1.828800000000058
100
AcDbArc
 50
-89.99999999739813
 51
0
  0
ARC
  5
7C
100
AcDbEntity
  8
s005-#def-solid-edge
  6
CONTINUOUS
 62
    7
420
    0
370
   30
100
AcDbCircle
 10
164
 20
71.99999999999999
 40
1.828799999999987
100
AcDbArc
 50
-179.9999999974008
 51
-90
  0
ARC
  5
7D
100
AcDbEntity
  8
s005-#def-solid-edge
  6
CONTINUOUS
 62
    7
420
    0
370
   30
100
AcDbCircle
 10
164
 20
8.000000000000009
 40
1.828800000000001
100
AcDbArc
 50
90.00000000259654
 51
180
  0
ARC
  5
7E
100
AcDbEntity
  8
s005-#def-solid-edge
  6
CONTINUOUS
 62
    7
420
    0
370
   30
100
AcDbCircle
 10
164
 20
7.999999999999945
 40
1.828800000000063
100
AcDbArc
 50
2.60098693950786e-09
 51
90
  0
ARC
  5
7F
100
AcDbEntity
  8
s005-#def-solid-edge
  6
CONTINUOUS
 62
    7
420
    0
370
   30
100
AcDbCircle
 10
163.9999999999999
 20
8.000000000000009
 40
1.828800000000058
100
AcDbArc
 50
-89.99999999739813
 51
0
  0
ARC
  5
80
100
AcDbEntity
  8
s005-#def-solid-edge
  6
CONTINUOUS
 62
    7
420
    0
370
   30
100
AcDbCircle
 10
164
 20
7.999999999999984
 40
1.828799999999974
100
AcDbArc
 50
-179.9999999974017
 51
-90
  0
ARC
  5
81
100
AcDbEntity
  8
s005-#def-solid-edge
  6
CONTINUOUS
 62
    7
420
    0
370
   30
100
AcDbCircle
 10
140
 20
8.000000000000007
 40
1.828800000000001
100
AcDbArc
 50
90.00000000259921
 51
180
  0
ARC
  5
82
100
AcDbEntity
  8
s005-#def-solid-edge
  6
CONTINUOUS
 62
    7
420
    0
370
   30
100
AcDbCircle
 10
140
 20
7.999999999999972
 40
1.828800000000035
100
AcDbArc
 50
2.600096495502592e-09
 51
90
  0
ARC
  5
83
100
AcDbEntity
  8
s005-#def-solid-edge
  6
CONTINUOUS
 62
    7
420
    0
370
   30
100
AcDbCircle
 10
140
 20
7.999999999999979
 40
1.828800000000001
100
AcDbArc
 50
-89.99999999740169
 51
8.904440053091205e-13
  0
ARC
  5
84
100
AcDbEntity
  8
s005-#def-solid-edge
  6
CONTINUOUS
 62
    7
420
    0
370
   30
100
AcDbCircle
 10
140
 20
8.000000000000007
 40
1.828799999999999
100
AcDbArc
 50
-179.9999999974008
 51
-90
  0
ARC
  5
85
100
AcDbEntity
  8
s005-#def-solid-edge
  6
CONTINUOUS
 62
    7
420
    0
370
   30
100
AcDbCircle
 10
25.99999999999999
 20
8
 40
1.828800000000001
100
AcDbArc
 50
90.00000000259833
 51
179.9999999999998
  0
ARC
  5
86
100
AcDbEntity
  8
s005-#def-solid-edge
  6
CONTINUOUS
 62
    7
420
    0
370
   30
100
AcDbCircle
 10
25.99999999999999
 20
8.000000000000007
 40
1.828799999999999
100
AcDbArc
 50
2.598983440495996e-09
 51
90
  0
ARC
  5
87
100
AcDbEntity
  8
s005-#def-solid-edge
  6
CONTINUOUS
 62
    7
420
    0
370
   30
100
AcDbCircle
 10
25.99999999999999
 20
8.000000000000004
 40
1.828800000000001
100
AcDbArc
 50
-89.99999999740024
 51
1.113055006636401e-13
  0
ARC
  5
88
100
AcDbEntity
  8
s005-#def-solid-edge
  6
CONTINUOUS
 62
    7
420
    0
370
   30
100
AcDbCircle
 10
25.99999999999999
 20
8.000000000000004
 40
1.828799999999996
100
AcDbArc
 50
-179.999999997401
 51
-90
  0
ARC
  5
89
100
AcDbEntity
  8
s005-#def-solid-edge
  6
CONTINUOUS
 62
    7
420
    0
370
   30
100
AcDbCircle
 10
25.99999999999999
 20
18
 40
1.828799999999994
100
AcDbArc
 50
90.00000000259833
 51
180
  0
ARC
  5
8A
100
AcDbEntity
  8
s005-#def-solid-edge
  6
CONTINUOUS
 62
    7
420
    0
370
   30
100
AcDbCircle
 10
25.99999999999999
 20
18
 40
1.828800000000005
100
AcDbArc
 50
2.599094745996659e-09
 51
90
  0
ARC
  5
8B
100
AcDbEntity
  8
s005-#def-solid-edge
  6
CONTINUOUS
 62
    7
420
    0
370
   30
100
AcDbCircle
 10
26.00000000000001
 20
18
 40
1.828799999999983
100
AcDbArc
 50
-89.99999999740081
 51
-1.113055006636411e-13
  0
ARC
  5
8C
100
AcDbEntity
  8
s005-#def-solid-edge
  6
CONTINUOUS
 62
    7
420
    0
370
   30
100
AcDbCircle
 10
25.99999999999999
 20
18
 40
1.828799999999998
100
AcDbArc
 50
-179.9999999974009
 51
-90
  0
ARC
  5
8D
100
AcDbEntity
  8
s005-#def-solid-edge
  6
CONTINUOUS
 62
    7
420
    0
370
   30
100
AcDbCircle
 10
340
 20
543.9999999999999
 40
1.599999999999909
100
AcDbArc
 50
-179.9999999974026
 51
-90
  0
ARC
  5
8E
100
AcDbEntity
  8
s005-#def-solid-edge
  6
CONTINUOUS
 62
    7
420
    0
370
   30
100
AcDbCircle
 10
340
 20
544
 40
1.600000000000023
100
AcDbArc
 50
90.00000000259737
 51
180
  0
ARC
  5
8F
100
AcDbEntity
  8
s005-#def-solid-edge
  6
CONTINUOUS
 62
    7
420
    0
370
   30
100
AcDbCircle
 10
340
 20
544
 40
1.600000000000023
100
AcDbArc
 50
2.601439285062603e-09
 51
90
  0
ARC
  5
90
100
AcDbEntity
  8
s005-#def-solid-edge
  6
CONTINUOUS
 62
    7
420
    0
370
   30
100
AcDbCircle
 10
340.0000000000001
 20
544
 40
1.599999999999966
100
AcDbArc
 50
-89.99999999740263
 51
0
  0
ARC
  5
91
100
AcDbEntity
  8
s005-#def-solid-edge
  6
CONTINUOUS
 62
    7
420
    0
370
   30
100
AcDbCircle
 10
340
 20
275
 40
1.600000000000023
100
AcDbArc
 50
-179.9999999974026
 51
-90
  0
ARC
  5
92
100
AcDbEntity
  8
s005-#def-solid-edge
  6
CONTINUOUS
 62
    7
420
    0
370
   30
100
AcDbCircle
 10
340
 20
274.9999999999999
 40
1.600000000000023
100
AcDbArc
 50
90.00000000259737
 51
179.999999999998
  0
ARC
  5
93
100
AcDbEntity
  8
s005-#def-solid-edge
  6
CONTINUOUS
 62
    7
420
    0
370
   30
100
AcDbCircle
 10
339.9999999999999
 20
274.9999999999999
 40
1.60000000000008
100
AcDbArc
 50
2.597368175070145e-09
 51
89.99999999999797
  0
ARC
  5
94
100
AcDbEntity
  8
s005-#def-solid-edge
  6
CONTINUOUS
 62
    7
420
    0
370
   30
100
AcDbCircle
 10
340
 20
275
 40
1.600000000000023
100
AcDbArc
 50
-89.99999999740059
 51
0
  0
ARC
  5
95
100
AcDbEntity
  8
s005-#def-solid-edge
  6
CONTINUOUS
 62
    7
420
    0
370
   30
100
AcDbCircle
 10
340
 20
6.000000000000065
 40
1.600000000000064
100
AcDbArc
 50
-179.9999999973986
 51
-90
  0
ARC
  5
96
100
AcDbEntity
  8
s005-#def-solid-edge
  6
CONTINUOUS
 62
    7
420
    0
370
   30
100
AcDbCircle
 10
339.9999999999999
 20
6
 40
1.599999999999966
100
AcDbArc
 50
90.00000000259941
 51
180
  0
ARC
  5
97
100
AcDbEntity
  8
s005-#def-solid-edge
  6
CONTINUOUS
 62
    7
420
    0
370
   30
100
AcDbCircle
 10
340
 20
5.999999999999932
 40
1.600000000000067
100
AcDbArc
 50
2.601439285062511e-09
 51
90
  0
ARC
  5
98
100
AcDbEntity
  8
s005-#def-solid-edge
  6
CONTINUOUS
 62
    7
420
    0
370
   30
100
AcDbCircle
 10
340.0000000000001
 20
6
 40
1.599999999999966
100
AcDbArc
 50
-89.99999999740263
 51
0
  0
ARC
  5
99
100
AcDbEntity
  8
s005-#def-solid-edge
  6
CONTINUOUS
 62
    7
420
    0
370
   30
100
AcDbCircle
 10
332
 20
5.999999999999953
 40
1.599999999999953
100
AcDbArc
 50
-179.9999999974026
 51
-90
  0
ARC
  5
9A
100
AcDbEntity
  8
s005-#def-solid-edge
  6
CONTINUOUS
 62
    7
420
    0
370
   30
100
AcDbCircle
 10
331.9999999999999
 20
6
 40
1.599999999999966
100
AcDbArc
 50
90.00000000259737
 51
180
  0
ARC
  5
9B
100
AcDbEntity
  8
s005-#def-solid-edge
  6
CONTINUOUS
 62
    7
420
    0
370
   30
100
AcDbCircle
 10
332
 20
6.000000000000102
 40
1.599999999999898
100
AcDbArc
 50
2.595332620074285e-09
 51
90
  0
ARC
  5
9C
100
AcDbEntity
  8
s005-#def-solid-edge
  6
CONTINUOUS
 62
    7
420
    0
370
   30
100
AcDbCircle
 10
332
 20
6
 40
1.600000000000023
100
AcDbArc
 50
-89.99999999740263
 51
0
  0
ARC
  5
9D
100
AcDbEntity
  8
s005-#def-solid-edge
  6
CONTINUOUS
 62
    7
420
    0
370
   30
100
AcDbCircle
 10
189
 20
6.00000000000001
 40
1.600000000000009
100
AcDbArc
 50
-179.9999999974006
 51
-90
  0
ARC
  5
9E
100
AcDbEntity
  8
s005-#def-solid-edge
  6
CONTINUOUS
 62
    7
420
    0
370
   30
100
AcDbCircle
 10
189
 20
6
 40
1.599999999999994
100
AcDbArc
 50
90.00000000259838
 51
180
  0
ARC
  5
9F
100
AcDbEntity
  8
s005-#def-solid-edge
  6
CONTINUOUS
 62
    7
420
    0
370
   30
100
AcDbCircle
 10
189
 20
6.000000000000017
 40
1.599999999999983
100
AcDbArc
 50
2.59838595256849e-09
 51
90
  0
ARC
  5
A0
100
AcDbEntity
  8
s005-#def-solid-edge
  6
CONTINUOUS
 62
    7
420
    0
370
   30
100
AcDbCircle
 10
189
 20
6.000000000000028
 40
1.599999999999994
100
AcDbArc
 50
-89.99999999740162
 51
-1.017777498068329e-12
  0
ARC
  5
A1
100
AcDbEntity
  8
s005-#def-solid-edge
  6
CONTINUOUS
 62
    7
420
    0
370
   30
100
AcDbCircle
 10
181
 20
13.99999999999999
 40
1.599999999999985
100
AcDbArc
 50
-179.9999999974016
 51
-90
  0
ARC
  5
A2
100
AcDbEntity
  8
s005-#def-solid-edge
  6
CONTINUOUS
 62
    7
420
    0
370
   30
100
AcDbCircle
 10
181
 20
14
 40
1.599999999999966
100
AcDbArc
 50
90.00000000259941
 51
180
  0
ARC
  5
A3
100
AcDbEntity
  8
s005-#def-solid-edge
  6
CONTINUOUS
 62
    7
420
    0
370
   30
100
AcDbCircle
 10
181
 20
14.0000000000001
 40
1.599999999999898
100
AcDbArc
 50
2.595332620074331e-09
 51
90
  0
ARC
  5
A4
100
AcDbEntity
  8
s005-#def-solid-edge
  6
CONTINUOUS
 62
    7
420
    0
370
   30
100
AcDbCircle
 10
181
 20
14
 40
1.600000000000023
100
AcDbArc
 50
-89.99999999739958
 51
0
  0
ARC
  5
A5
100
AcDbEntity
  8
s005-#def-solid-edge
  6
CONTINUOUS
 62
    7
420
    0
370
   30
100
AcDbCircle
 10
181
 20
96.00000000000004
 40
1.600000000000037
100
AcDbArc
 50
-179.9999999974006
 51
-90
  0
ARC
  5
A6
100
AcDbEntity
  8
s005-#def-solid-edge
  6
CONTINUOUS
 62
    7
420
    0
370
   30
100
AcDbCircle
 10
181
 20
96
 40
1.599999999999994
100
AcDbArc
 50
90.00000000259838
 51
180
  0
ARC
  5
A7
100
AcDbEntity
  8
s005-#def-solid-edge
  6
CONTINUOUS
 62
    7
420
    0
370
   30
100
AcDbCircle
 10
181
 20
95.99999999999997
 40
1.600000000000023
100
AcDbArc
 50
2.599403730066466e-09
 51
90
  0
ARC
  5
A8
100
AcDbEntity
  8
s005-#def-solid-edge
  6
CONTINUOUS
 62
    7
420
    0
370
   30
100
AcDbCircle
 10
181
 20
95.99999999999997
 40
1.600000000000023
100
AcDbArc
 50
-89.99999999740059
 51
1.017777498068311e-12
  0
ARC
  5
A9
100
AcDbEntity
  8
s005-#def-solid-edge
  6
CONTINUOUS
 62
    7
420
    0
370
   30
100
AcDbCircle
 10
181
 20
454
 40
1.600000000000023
100
AcDbArc
 50
-179.9999999974026
 51
-90
  0
ARC
  5
AA
100
AcDbEntity
  8
s005-#def-solid-edge
  6
CONTINUOUS
 62
    7
420
    0
370
   30
100
AcDbCircle
 10
181
 20
454
 40
1.599999999999966
100
AcDbArc
 50
90.00000000259941
 51
180
  0
ARC
  5
AB
100
AcDbEntity
  8
s005-#def-solid-edge
  6
CONTINUOUS
 62
    7
420
    0
370
   30
100
AcDbCircle
 10
181
 20
454
 40
1.600000000000023
100
AcDbArc
 50
2.595332620074285e-09
 51
90
  0
ARC
  5
AC
100
AcDbEntity
  8
s005-#def-solid-edge
  6
CONTINUOUS
 62
    7
420
    0
370
   30
100
AcDbCircle
 10
181.0000000000001
 20
454
 40
1.599999999999852
100
AcDbArc
 50
-89.99999999740467
 51
0
  0
ARC
  5
AD
100
AcDbEntity
  8
s005-#def-solid-edge
  6
CONTINUOUS
 62
    7
420
    0
370
   30
100
AcDbCircle
 10
180.9999999999999
 20
506.0000000000001
 40
1.60000000000008
100
AcDbArc
 50
-179.9999999974006
 51
-89.99999999999797
  0
ARC
  5
AE
100
AcDbEntity
  8
s005-#def-solid-edge
  6
CONTINUOUS
 62
    7
420
    0
370
   30
100
AcDbCircle
 10
181.0000000000001
 20
506
 40
1.600000000000136
100
AcDbArc
 50
90.00000000260347
 51
180
  0
ARC
  5
AF
100
AcDbEntity
  8
s005-#def-solid-edge
  6
CONTINUOUS
 62
    7
420
    0
370
   30
100
AcDbCircle
 10
180.9999999999999
 20
506.0000000000001
 40
1.599999999999966
100
AcDbArc
 50
2.59940373006642e-09
 51
89.99999999999797
  0
ARC
  5
B0
100
AcDbEntity
  8
s005-#def-solid-edge
  6
CONTINUOUS
 62
    7
420
    0
370
   30
100
AcDbCircle
 10
181
 20
506
 40
1.600000000000023
100
AcDbArc
 50
-89.99999999739856
 51
0
  0
ARC
  5
B1
100
AcDbEntity
  8
s005-#def-solid-edge
  6
CONTINUOUS
 62
    7
420
    0
370
   30
100
AcDbCircle
 10
7
 20
544
 40
1.600000000000023
100
AcDbArc
 50
-179.9999999973986
 51
-90
  0
ARC
  5
B2
100
AcDbEntity
  8
s005-#def-solid-edge
  6
CONTINUOUS
 62
    7
420
    0
370
   30
100
AcDbCircle
 10
6.999999999999972
 20
544
 40
1.599999999999971
100
AcDbArc
 50
90.00000000259737
 51
180
  0
ARC
  5
B3
100
AcDbEntity
  8
s005-#def-solid-edge
  6
CONTINUOUS
 62
    7
420
    0
370
   30
100
AcDbCircle
 10
7
 20
544
 40
1.600000000000023
100
AcDbArc
 50
2.601439285062638e-09
 51
90
  0
ARC
  5
B4
100
AcDbEntity
  8
s005-#def-solid-edge
  6
CONTINUOUS
 62
    7
420
    0
370
   30
100
AcDbCircle
 10
7.000000000000182
 20
544
 40
1.599999999999818
100
AcDbArc
 50
-89.9999999974067
 51
0
  0
ARC
  5
B5
100
AcDbEntity
  8
s005-#def-solid-edge
  6
CONTINUOUS
 62
    7
420
    0
370
   30
100
AcDbCircle
 10
7
 20
275
 40
1.600000000000023
100
AcDbArc
 50
-179.9999999974006
 51
-90
  0
ARC
  5
B6
100
AcDbEntity
  8
s005-#def-solid-edge
  6
CONTINUOUS
 62
    7
420
    0
370
   30
100
AcDbCircle
 10
7.000000000000031
 20
275
 40
1.600000000000031
100
AcDbArc
 50
90.00000000259941
 51
180
  0
ARC
  5
B7
100
AcDbEntity
  8
s005-#def-solid-edge
  6
CONTINUOUS
 62
    7
420
    0
370
   30
100
AcDbCircle
 10
7
 20
275
 40
1.600000000000023
100
AcDbArc
 50
2.593297065078094e-09
 51
90
  0
ARC
  5
B8
100
AcDbEntity
  8
s005-#def-solid-edge
  6
CONTINUOUS
 62
    7
420
    0
370
   30
100
AcDbCircle
 10
6.999999999999956
 20
275
 40
1.600000000000043
100
AcDbArc
 50
-89.99999999739856
 51
0
  0
ARC
  5
B9
100
AcDbEntity
  8
s005-#def-solid-edge
  6
CONTINUOUS
 62
    7
420
    0
370
   30
100
AcDbCircle
 10
7
 20
6.000000000000001
 40
1.600000000000001
100
AcDbArc
 50
-179.9999999974008
 51
-90
  0
ARC
  5
BA
100
AcDbEntity
  8
s005-#def-solid-edge
  6
CONTINUOUS
 62
    7
420
    0
370
   30
100
AcDbCircle
 10
7.000000000000001
 20
5.999999999999999
 40
1.600000000000001
100
AcDbArc
 50
90.00000000259833
 51
180
  0
ARC
  5
BB
100
AcDbEntity
  8
s005-#def-solid-edge
  6
CONTINUOUS
 62
    7
420
    0
370
   30
100
AcDbCircle
 10
6.999999999999999
 20
6.000000000000002
 40
1.599999999999998
100
AcDbArc
 50
2.599022063504727e-09
 51
89.99999999999997
  0
ARC
  5
BC
100
AcDbEntity
  8
s005-#def-solid-edge
  6
CONTINUOUS
 62
    7
420
    0
370
   30
100
AcDbCircle
 10
7.000000000000002
 20
6
 40
1.599999999999998
100
AcDbArc
 50
-89.99999999740007
 51
0
  0
ARC
  5
BD
100
AcDbEntity
  8
s005-#def-solid-edge
  6
CONTINUOUS
 62
    7
420
    0
370
   30
100
AcDbCircle
 10
180.7648
 20
107.6261965619508
 40
1.599999999999994
100
AcDbArc
 50
2.599403730066466e-09
 51
90
  0
ARC
  5
BE
100
AcDbEntity
  8
s005-#def-solid-edge
  6
CONTINUOUS
 62
    7
420
    0
370
   30
100
AcDbCircle
 10
180.7648
 20
107.6261965619508
 40
1.600000000000051
100
AcDbArc
 50
-89.99999999740059
 51
0
  0
ARC
  5
BF
100
AcDbEntity
  8
s005-#def-solid-edge
  6
CONTINUOUS
 62
    7
420
    0
370
   30
100
AcDbCircle
 10
180.7648
 20
107.6261965619508
 40
1.600000000000009
100
AcDbArc
 50
-179.9999999974006
 51
-90.00000000000102
  0
ARC
  5
C0
100
AcDbEntity
  8
s005-#def-solid-edge
  6
CONTINUOUS
 62
    7
420
    0
370
   30
100
AcDbCircle
 10
180.7648
 20
107.6261965619508
 40
1.600000000000023
100
AcDbArc
 50
90.00000000260144
 51
180
  0
ARC
  5
C1
100
AcDbEntity
  8
s005-#def-solid-edge
  6
CONTINUOUS
 62
    7
420
    0
370
   30
100
AcDbCircle
 10
166.2352
 20
442.3738034380492
 40
1.599999999999966
100
AcDbArc
 50
-179.9999999974006
 51
-90
  0
ARC
  5
C2
100
AcDbEntity
  8
s005-#def-solid-edge
  6
CONTINUOUS
 62
    7
420
    0
370
   30
100
AcDbCircle
 10
166.2352
 20
442.3738034380492
 40
1.600000000000023
100
AcDbArc
 50
90.00000000259941
 51
180
  0
ARC
  5
C3
100
AcDbEntity
  8
s005-#def-solid-edge
  6
CONTINUOUS
 62
    7
420
    0
370
   30
100
AcDbCircle
 10
166.2352000000001
 20
442.3738034380492
 40
1.600000000000023
100
AcDbArc
 50
2.599403730066558e-09
 51
90.00000000000203
  0
ARC
  5
C4
100
AcDbEntity
  8
s005-#def-solid-edge
  6
CONTINUOUS
 62
    7
420
    0
370
   30
100
AcDbCircle
 10
166.2351999999999
 20
442.3738034380492
 40
1.600000000000108
100
AcDbArc
 50
-89.99999999739653
 51
0
  0
ARC
  5
C5
100
AcDbEntity
  8
s005-#def-solid-edge
  6
CONTINUOUS
 62
    7
420
    0
370
   30
100
AcDbCircle
 10
285.8296000000001
 20
107.6261965619507
 40
1.600000000000065
100
AcDbArc
 50
2.601439285062511e-09
 51
90
  0
ARC
  5
C6
100
AcDbEntity
  8
s005-#def-solid-edge
  6
CONTINUOUS
 62
    7
420
    0
370
   30
100
AcDbCircle
 10
285.8296000000001
 20
107.6261965619508
 40
1.599999999999966
100
AcDbArc
 50
-89.99999999740263
 51
0
  0
ARC
  5
C7
100
AcDbEntity
  8
s005-#def-solid-edge
  6
CONTINUOUS
 62
    7
420
    0
370
   30
100
AcDbCircle
 10
285.8296000000001
 20
107.6261965619509
 40
1.600000000000051
100
AcDbArc
 50
-179.9999999973986
 51
-90
  0
ARC
  5
C8
100
AcDbEntity
  8
s005-#def-solid-edge
  6
CONTINUOUS
 62
    7
420
    0
370
   30
100
AcDbCircle
 10
285.8296
 20
107.6261965619508
 40
1.599999999999966
100
AcDbArc
 50
90.00000000259737
 51
180
  0
ARC
  5
C9
100
AcDbEntity
  8
s005-#def-solid-edge
  6
CONTINUOUS
 62
    7
420
    0
370
   30
100
AcDbCircle
 10
61.17039999999993
 20
442.3738034380492
 40
1.599999999999966
100
AcDbArc
 50
-179.9999999974006
 51
-90
  0
ARC
  5
CA
100
AcDbEntity
  8
s005-#def-solid-edge
  6
CONTINUOUS
 62
    7
420
    0
370
   30
100
AcDbCircle
 10
61.17039999999994
 20
442.3738034380492
 40
1.600000000000009
100
AcDbArc
 50
90.00000000259941
 51
180
  0
ARC
  5
CB
100
AcDbEntity
  8
s005-#def-solid-edge
  6
CONTINUOUS
 62
    7
420
    0
370
   30
100
AcDbCircle
 10
61.17039999999993
 20
442.3738034380492
 40
1.600000000000023
100
AcDbArc
 50
2.595332620074239e-09
 51
90
  0
ARC
  5
CC
100
AcDbEntity
  8
s005-#def-solid-edge
  6
CONTINUOUS
 62
    7
420
    0
370
   30
100
AcDbCircle
 10
61.17039999999994
 20
442.3738034380492
 40
1.599999999999987
100
AcDbArc
 50
-89.99999999740263
 51
0
  0
ARC
  5
CD
100
AcDbEntity
  8
s005-#def-solid-edge
  6
CONTINUOUS
 62
    7
420
    0
370
   30
100
AcDbCircle
 10
295.8262770186993
 20
127.9578735806501
 40
1.599999999999881
100
AcDbArc
 50
2.595332620074285e-09
 51
90
  0
ARC
  5
CE
100
AcDbEntity
  8
s005-#def-solid-edge
  6
CONTINUOUS
 62
    7
420
    0
370
   30
100
AcDbCircle
 10
295.8262770186994
 20
127.95787358065
 40
1.599999999999909
100
AcDbArc
 50
-89.99999999740059
 51
0
  0
ARC
  5
CF
100
AcDbEntity
  8
s005-#def-solid-edge
  6
CONTINUOUS
 62
    7
420
    0
370
   30
100
AcDbCircle
 10
295.8262770186993
 20
127.95787358065
 40
1.600000000000023
100
AcDbArc
 50
-179.9999999973986
 51
-90
  0
ARC
  5
D0
100
AcDbEntity
  8
s005-#def-solid-edge
  6
CONTINUOUS
 62
    7
420
    0
370
   30
100
AcDbCircle
 10
295.8262770186992
 20
127.95787358065
 40
1.599999999999966
100
AcDbArc
 50
90.00000000259941
 51
180
  0
ARC
  5
D1
100
AcDbEntity
  8
s005-#def-solid-edge
  6
CONTINUOUS
 62
    7
420
    0
370
   30
100
AcDbCircle
 10
51.17372298130068
 20
422.04212641935
 40
1.600000000000023
100
AcDbArc
 50
-179.9999999973986
 51
-89.99999999999797
  0
ARC
  5
D2
100
AcDbEntity
  8
s005-#def-solid-edge
  6
CONTINUOUS
 62
    7
420
    0
370
   30
100
AcDbCircle
 10
51.17372298130075
 20
422.04212641935
 40
1.600000000000009
100
AcDbArc
 50
90.00000000259941
 51
180
  0
ARC
  5
D3
100
AcDbEntity
  8
s005-#def-solid-edge
  6
CONTINUOUS
 62
    7
420
    0
370
   30
100
AcDbCircle
 10
51.17372298130074
 20
422.04212641935
 40
1.599999999999966
100
AcDbArc
 50
2.595332620074228e-09
 51
90
  0
ARC
  5
D4
100
AcDbEntity
  8
s005-#def-solid-edge
  6
CONTINUOUS
 62
    7
420
    0
370
   30
100
AcDbCircle
 10
51.17372298130083
 20
422.04212641935
 40
1.599999999999909
100
AcDbArc
 50
-89.99999999740467
 51
0
  0
ARC
  5
D5
100
AcDbEntity
  8
s005-#def-solid-edge
  6
CONTINUOUS
 62
    7
420
    0
370
   30
100
AcDbCircle
 10
295.8262770186993
 20
175.3712069139835
 40
1.599999999999881
100
AcDbArc
 50
2.595332620074285e-09
 51
90
  0
ARC
  5
D6
100
AcDbEntity
  8
s005-#def-solid-edge
  6
CONTINUOUS
 62
    7
420
    0
370
   30
100
AcDbCircle
 10
295.8262770186992
 20
175.3712069139833
 40
1.600000000000136
100
AcDbArc
 50
-89.99999999739653
 51
0
  0
ARC
  5
D7
100
AcDbEntity
  8
s005-#def-solid-edge
  6
CONTINUOUS
 62
    7
420
    0
370
   30
100
AcDbCircle
 10
295.8262770186993
 20
175.3712069139834
 40
1.600000000000023
100
AcDbArc
 50
-179.9999999973986
 51
-90
  0
ARC
  5
D8
100
AcDbEntity
  8
s005-#def-solid-edge
  6
CONTINUOUS
 62
    7
420
    0
370
   30
100
AcDbCircle
 10
295.8262770186993
 20
175.3712069139834
 40
1.60000000000008
100
AcDbArc
 50
90.00000000259941
 51
-179.999999999998
  0
ARC
  5
D9
100
AcDbEntity
  8
s005-#def-solid-edge
  6
CONTINUOUS
 62
    7
420
    0
370
   30
100
AcDbCircle
 10
51.17372298130074
 20
374.6287930860167
 40
1.600000000000023
100
AcDbArc
 50
-179.9999999974006
 51
-90
  0
ARC
  5
DA
100
AcDbEntity
  8
s005-#def-solid-edge
  6
CONTINUOUS
 62
    7
420
    0
370
   30
100
AcDbCircle
 10
51.17372298130068
 20
374.6287930860167
 40
1.599999999999937
100
AcDbArc
 50
90.00000000259737
 51
180
  0
ARC
  5
DB
100
AcDbEntity
  8
s005-#def-solid-edge
  6
CONTINUOUS
 62
    7
420
    0
370
   30
100
AcDbCircle
 10
51.17372298130074
 20
374.6287930860167
 40
1.600000000000023
100
AcDbArc
 50
2.595332620074216e-09
 51
90
  0
ARC
  5
DC
100
AcDbEntity
  8
s005-#def-solid-edge
  6
CONTINUOUS
 62
    7
420
    0
370
   30
100
AcDbCircle
 10
51.17372298130095
 20
374.6287930860167
 40
1.599999999999795
100
AcDbArc
 50
-89.99999999740874
 51
0
  0
ARC
  5
DD
100
AcDbEntity
  8
s005-#def-solid-edge
  6
CONTINUOUS
 62
    7
420
    0
370
   30
100
AcDbCircle
 10
295.8262770186993
 20
222.7845402473167
 40
1.599999999999966
100
AcDbArc
 50
2.601439285062695e-09
 51
90.00000000000203
  0
ARC
  5
DE
100
AcDbEntity
  8
s005-#def-solid-edge
  6
CONTINUOUS
 62
    7
420
    0
370
   30
100
AcDbCircle
 10
295.8262770186992
 20
222.7845402473167
 40
1.600000000000136
100
AcDbArc
 50
-89.99999999739653
 51
0
  0
ARC
  5
DF
100
AcDbEntity
  8
s005-#def-solid-edge
  6
CONTINUOUS
 62
    7
420
    0
370
   30
100
AcDbCircle
 10
295.8262770186993
 20
222.7845402473167
 40
1.599999999999994
100
AcDbArc
 50
-179.9999999974026
 51
-90.00000000000203
  0
ARC
  5
E0
100
AcDbEntity
  8
s005-#def-solid-edge
  6
CONTINUOUS
 62
    7
420
    0
370
   30
100
AcDbCircle
 10
295.8262770186991
 20
222.7845402473167
 40
1.599999999999852
100
AcDbArc
 50
90.00000000259533
 51
180
  0
ARC
  5
E1
100
AcDbEntity
  8
s005-#def-solid-edge
  6
CONTINUOUS
 62
    7
420
    0
370
   30
100
AcDbCircle
 10
51.17372298130073
 20
327.2154597526833
 40
1.600000000000023
100
AcDbArc
 50
-179.9999999973965
 51
-90
  0
ARC
  5
E2
100
AcDbEntity
  8
s005-#def-solid-edge
  6
CONTINUOUS
 62
    7
420
    0
370
   30
100
AcDbCircle
 10
51.17372298130069
 20
327.2154597526833
 40
1.599999999999966
100
AcDbArc
 50
90.00000000259737
 51
180
  0
ARC
  5
E3
100
AcDbEntity
  8
s005-#def-solid-edge
  6
CONTINUOUS
 62
    7
420
    0
370
   30
100
AcDbCircle
 10
51.17372298130067
 20
327.2154597526834
 40
1.599999999999966
100
AcDbArc
 50
2.59736817507026e-09
 51
89.99999999999797
  0
ARC
  5
E4
100
AcDbEntity
  8
s005-#def-solid-edge
  6
CONTINUOUS
 62
    7
420
    0
370
   30
100
AcDbCircle
 10
51.17372298130078
 20
327.2154597526833
 40
1.599999999999952
100
AcDbArc
 50
-89.99999999740263
 51
0
  0
ARC
  5
E5
100
AcDbEntity
  8
s005-#def-solid-edge
  6
CONTINUOUS
 62
    7
420
    0
370
   30
100
AcDbCircle
 10
295.8262770186993
 20
270.1978735806501
 40
1.599999999999909
100
AcDbArc
 50
2.595332620074285e-09
 51
90.00000000000203
  0
ARC
  5
E6
100
AcDbEntity
  8
s005-#def-solid-edge
  6
CONTINUOUS
 62
    7
420
    0
370
   30
100
AcDbCircle
 10
295.8262770186992
 20
270.19787358065
 40
1.600000000000136
100
AcDbArc
 50
-89.99999999739653
 51
0
  0
ARC
  5
E7
100
AcDbEntity
  8
s005-#def-solid-edge
  6
CONTINUOUS
 62
    7
420
    0
370
   30
100
AcDbCircle
 10
295.8262770186993
 20
270.1978735806501
 40
1.60000000000008
100
AcDbArc
 50
-179.9999999973986
 51
-90
  0
ARC
  5
E8
100
AcDbEntity
  8
s005-#def-solid-edge
  6
CONTINUOUS
 62
    7
420
    0
370
   30
100
AcDbCircle
 10
295.8262770186993
 20
270.1978735806501
 40
1.600000000000023
100
AcDbArc
 50
90.00000000259737
 51
-179.999999999998
  0
ARC
  5
E9
100
AcDbEntity
  8
s005-#def-solid-edge
  6
CONTINUOUS
 62
    7
420
    0
370
   30
100
AcDbCircle
 10
51.17372298130073
 20
279.80212641935
 40
1.600000000000023
100
AcDbArc
 50
-179.9999999974026
 51
-90
  0
ARC
  5
EA
100
AcDbEntity
  8
s005-#def-solid-edge
  6
CONTINUOUS
 62
    7
420
    0
370
   30
100
AcDbCircle
 10
51.17372298130061
 20
279.80212641935
 40
1.599999999999888
100
AcDbArc
 50
90.00000000259533
 51
180
  0
ARC
  5
EB
100
AcDbEntity
  8
s005-#def-solid-edge
  6
CONTINUOUS
 62
    7
420
    0
370
   30
100
AcDbCircle
 10
51.17372298130073
 20
279.80212641935
 40
1.600000000000023
100
AcDbArc
 50
2.595332620074216e-09
 51
90
  0
ARC
  5
EC
100
AcDbEntity
  8
s005-#def-solid-edge
  6
CONTINUOUS
 62
    7
420
    0
370
   30
100
AcDbCircle
 10
51.17372298130066
 20
279.80212641935
 40
1.600000000000072
100
AcDbArc
 50
-89.99999999739856
 51
0
  0
ARC
  5
ED
100
AcDbEntity
  8
s005-#def-solid-edge
  6
CONTINUOUS
 62
    7
420
    0
370
   30
100
AcDbCircle
 10
295.8262770186994
 20
432.37712641935
 40
1.600000000000023
100
AcDbArc
 50
2.597368175070514e-09
 51
90.00000000000406
  0
ARC
  5
EE
100
AcDbEntity
  8
s005-#def-solid-edge
  6
CONTINUOUS
 62
    7
420
    0
370
   30
100
AcDbCircle
 10
295.8262770186992
 20
432.37712641935
 40
1.600000000000136
100
AcDbArc
 50
-89.99999999739653
 51
0
  0
ARC
  5
EF
100
AcDbEntity
  8
s005-#def-solid-edge
  6
CONTINUOUS
 62
    7
420
    0
370
   30
100
AcDbCircle
 10
295.8262770186992
 20
432.37712641935
 40
1.600000000000023
100
AcDbArc
 50
-179.9999999974047
 51
-89.99999999999797
  0
ARC
  5
F0
100
AcDbEntity
  8
s005-#def-solid-edge
  6
CONTINUOUS
 62
    7
420
    0
370
   30
100
AcDbCircle
 10
295.8262770186993
 20
432.37712641935
 40
1.60000000000008
100
AcDbArc
 50
90.00000000260144
 51
180
  0
ARC
  5
F1
100
AcDbEntity
  8
s005-#def-solid-edge
  6
CONTINUOUS
 62
    7
420
    0
370
   30
100
AcDbCircle
 10
51.17372298130071
 20
117.62287358065
 40
1.599999999999994
100
AcDbArc
 50
-179.9999999974006
 51
-90
  0
ARC
  5
F2
100
AcDbEntity
  8
s005-#def-solid-edge
  6
CONTINUOUS
 62
    7
420
    0
370
   30
100
AcDbCircle
 10
51.17372298130074
 20
117.62287358065
 40
1.60000000000003
100
AcDbArc
 50
90.00000000259941
 51
180
  0
ARC
  5
F3
100
AcDbEntity
  8
s005-#def-solid-edge
  6
CONTINUOUS
 62
    7
420
    0
370
   30
100
AcDbCircle
 10
51.17372298130073
 20
117.62287358065
 40
1.599999999999994
100
AcDbArc
 50
2.598894841317478e-09
 51
90.00000000000051
  0
ARC
  5
F4
100
AcDbEntity
  8
s005-#def-solid-edge
  6
CONTINUOUS
 62
    7
420
    0
370
   30
100
AcDbCircle
 10
51.17372298130071
 20
117.62287358065
 40
1.600000000000001
100
AcDbArc
 50
-89.99999999740059
 51
0
  0
ARC
  5
F5
100
AcDbEntity
  8
s005-#def-solid-edge
  6
CONTINUOUS
 62
    7
420
    0
370
   30
100
AcDbCircle
 10
285.8296000000001
 20
442.3738034380493
 40
1.599999999999966
100
AcDbArc
 50
2.597368175070422e-09
 51
90.00000000000203
  0
ARC
  5
F6
100
AcDbEntity
  8
s005-#def-solid-edge
  6
CONTINUOUS
 62
    7
420
    0
370
   30
100
AcDbCircle
 10
285.8296
 20
442.3738034380492
 40
1.600000000000136
100
AcDbArc
 50
-89.99999999739856
 51
0
  0
ARC
  5
F7
100
AcDbEntity
  8
s005-#def-solid-edge
  6
CONTINUOUS
 62
    7
420
    0
370
   30
100
AcDbCircle
 10
285.8296
 20
442.3738034380493
 40
1.600000000000136
100
AcDbArc
 50
-179.9999999973965
 51
-89.99999999999797
  0
ARC
  5
F8
100
AcDbEntity
  8
s005-#def-solid-edge
  6
CONTINUOUS
 62
    7
420
    0
370
   30
100
AcDbCircle
 10
285.8295999999999
 20
442.3738034380492
 40
1.599999999999852
100
AcDbArc
 50
90.0000000025933
 51
179.999999999998
  0
ARC
  5
F9
100
AcDbEntity
  8
s005-#def-solid-edge
  6
CONTINUOUS
 62
    7
420
    0
370
   30
100
AcDbCircle
 10
61.17039999999989
 20
107.6261965619508
 40
1.599999999999994
100
AcDbArc
 50
-179.9999999974006
 51
-89.99999999999949
  0
ARC
  5
FA
100
AcDbEntity
  8
s005-#def-solid-edge
  6
CONTINUOUS
 62
    7
420
    0
370
   30
100
AcDbCircle
 10
61.17039999999997
 20
107.6261965619508
 40
1.600000000000065
100
AcDbArc
 50
90.00000000260042
 51
-179.9999999999995
  0
ARC
  5
FB
100
AcDbEntity
  8
s005-#def-solid-edge
  6
CONTINUOUS
 62
    7
420
    0
370
   30
100
AcDbCircle
 10
61.17039999999992
 20
107.6261965619508
 40
1.600000000000023
100
AcDbArc
 50
2.598894841317489e-09
 51
90.00000000000051
  0
ARC
  5
FC
100
AcDbEntity
  8
s005-#def-solid-edge
  6
CONTINUOUS
 62
    7
420
    0
370
   30
100
AcDbCircle
 10
61.17039999999993
 20
107.6261965619508
 40
1.599999999999973
100
AcDbArc
 50
-89.9999999974011
 51
0
  0
ARC
  5
FD
100
AcDbEntity
  8
s005-#def-solid-edge
  6
CONTINUOUS
 62
    7
420
    0
370
   30
100
AcDbCircle
 10
180.7648000000001
 20
442.3738034380492
 40
1.600000000000023
100
AcDbArc
 50
2.599403730066604e-09
 51
90.00000000000203
  0
ARC
  5
FE
100
AcDbEntity
  8
s005-#def-solid-edge
  6
CONTINUOUS
 62
    7
420
    0
370
   30
100
AcDbCircle
 10
180.7648
 20
442.3738034380492
 40
1.600000000000051
100
AcDbArc
 50
-89.99999999739856
 51
0
  0
ARC
  5
FF
100
AcDbEntity
  8
s005-#def-solid-edge
  6
CONTINUOUS
 62
    7
420
    0
370
   30
100
AcDbCircle
 10
180.7648
 20
442.3738034380492
 40
1.600000000000023
100
AcDbArc
 50
-179.9999999973986
 51
-90
  0
ARC
  5
100
100
AcDbEntity
  8
s005-#def-solid-edge
  6
CONTINUOUS
 62
    7
420
    0
370
   30
100
AcDbCircle
 10
180.7648
 20
442.3738034380492
 40
1.599999999999994
100
AcDbArc
 50
90.00000000259941
 51
180
  0
ARC
  5
101
100
AcDbEntity
  8
s005-#def-solid-edge
  6
CONTINUOUS
 62
    7
420
    0
370
   30
100
AcDbCircle
 10
166.2352
 20
107.6261965619508
 40
1.59999999999998
100
AcDbArc
 50
-179.9999999974026
 51
-90
  0
ARC
  5
102
100
AcDbEntity
  8
s005-#def-solid-edge
  6
CONTINUOUS
 62
    7
420
    0
370
   30
100
AcDbCircle
 10
166.2352
 20
107.6261965619508
 40
1.599999999999994
100
AcDbArc
 50
90.00000000259838
 51
180
  0
ARC
  5
103
100
AcDbEntity
  8
s005-#def-solid-edge
  6
CONTINUOUS
 62
    7
420
    0
370
   30
100
AcDbCircle
 10
166.2352
 20
107.6261965619508
 40
1.599999999999994
100
AcDbArc
 50
2.598385952568444e-09
 51
90
  0
ARC
  5
104
100
AcDbEntity
  8
s005-#def-solid-edge
  6
CONTINUOUS
 62
    7
420
    0
370
   30
100
AcDbCircle
 10
166.2352
 20
107.6261965619508
 40
1.599999999999994
100
AcDbArc
 50
-89.99999999740263
 51
0
  0
ENDSEC
  0
SECTION
  2
OBJECTS
  0
DICTIONARY
  5
C
330
0
100
AcDbDictionary
281
    1
  3
ACAD_GROUP
350
D
  0
DICTIONARY
  5
D
330
C
100
AcDbDictionary
281
    1
  0
ENDSEC
  0
EOF
