999
dxfrw 0.6.3
  0
SECTION
  2
HEADER
  9
$ACADVER
  1
AC1021
  9
$DWGCODEPAGE
  3
ANSI_1252
  9
$INSBASE
 10
0
 20
0
 30
0
  9
$EXTMIN
 10
1e+20
 20
1e+20
 30
1e+20
  9
$EXTMAX
 10
-1e+20
 20
-1e+20
 30
-1e+20
  9
$LIMMIN
 10
0
 20
0
  9
$LIMMAX
 10
420
 20
297
  9
$ORTHOMODE
 70
    0
  9
$REGENMODE
 70
    1
  9
$FILLMODE
 70
    1
  9
$QTEXTMODE
 70
    0
  9
$MIRRTEXT
 70
    0
  9
$LTSCALE
 40
1
  9
$ATTMODE
 70
    0
  9
$TEXTSIZE
 40
2.5
  9
$TRACEWID
 40
15.68
  9
$TEXTSTYLE
  7
STANDARD
  9
$CLAYER
  8
0
  9
$CELTYPE
  6
BYLAYER
  9
$CECOLOR
 62
  256
  9
$CELTSCALE
 40
1
  9
$DISPSILH
 70
    0
  9
$DIMSCALE
 40
1
  9
$DIMASZ
 40
2.5
  9
$DIMEXO
 40
0.625
  9
$DIMDLI
 40
3.75
  9
$DIMRND
 40
0
  9
$DIMDLE
 40
0
  9
$DIMEXE
 40
1.25
  9
$DIMTP
 40
0
  9
$DIMTM
 40
0
  9
$DIMTXT
 40
2.5
  9
$DIMCEN
 40
2.5
  9
$DIMTSZ
 40
0
  9
$DIMTOL
 70
    0
  9
$DIMLIM
 70
    0
  9
$DIMTIH
 70
    0
  9
$DIMTOH
 70
    0
  9
$DIMSE1
 70
    0
  9
$DIMSE2
 70
    0
  9
$DIMTAD
 70
    1
  9
$DIMZIN
 70
    8
  9
$DIMBLK
  1

  9
$DIMASO
 70
    1
  9
$DIMSHO
 70
    1
  9
$DIMPOST
  1

  9
$DIMAPOST
  1

  9
$DIMALT
 70
    0
  9
$DIMALTD
 70
    3
  9
$DIMALTF
 40
0.03937
  9
$DIMLFAC
 40
1
  9
$DIMTOFL
 70
    1
  9
$DIMTVP
 40
0
  9
$DIMTIX
 70
    0
  9
$DIMSOXD
 70
    0
  9
$DIMSAH
 70
    0
  9
$DIMBLK1
  1

  9
$DIMBLK2
  1

  9
$DIMSTYLE
  2
STANDARD
  9
$DIMCLRD
 70
    0
  9
$DIMCLRE
 70
    0
  9
$DIMCLRT
 70
    0
  9
$DIMTFAC
 40
1
  9
$DIMGAP
 40
0.625
  9
$DIMJUST
 70
    0
  9
$DIMSD1
 70
    0
  9
$DIMSD2
 70
    0
  9
$DIMTOLJ
 70
    0
  9
$DIMTZIN
 70
    8
  9
$DIMALTZ
 70
    0
  9
$DIMALTTZ
 70
    0
  9
$DIMUPT
 70
    0
  9
$DIMDEC
 70
    2
  9
$DIMTDEC
 70
    2
  9
$DIMALTU
 70
    2
  9
$DIMALTTD
 70
    3
  9
$DIMTXSTY
  7
STANDARD
  9
$DIMAUNIT
 70
    0
  9
$DIMADEC
 70
    0
  9
$DIMALTRND
 40
0
  9
$DIMAZIN
 70
    0
  9
$DIMDSEP
 70
   44
  9
$DIMATFIT
 70
    3
  9
$DIMFRAC
 70
    0
  9
$DIMLDRBLK
  1
STANDARD
  9
$DIMLUNIT
 70
    2
  9
$DIMLWD
 70
   -2
  9
$DIMLWE
 70
   -2
  9
$DIMTMOVE
 70
    0
  9
$DIMFXL
 40
1
  9
$DIMFXLON
 70
    0
  9
$DIMJOGANG
 40
0.7854
  9
$DIMTFILL
 70
    0
  9
$DIMTFILLCLR
 70
    0
  9
$DIMARCSYM
 70
    0
  9
$DIMLTYPE
  6

  9
$DIMLTEX1
  6

  9
$DIMLTEX2
  6

  9
$LUNITS
 70
    2
  9
$LUPREC
 70
    4
  9
$SKETCHINC
 40
1
  9
$FILLETRAD
 40
0
  9
$AUNITS
 70
    0
  9
$AUPREC
 70
    2
  9
$MENU
  1
.
  9
$ELEVATION
 40
0
  9
$PELEVATION
 40
0
  9
$THICKNESS
 40
0
  9
$LIMCHECK
 70
    0
  9
$CHAMFERA
 40
0
  9
$CHAMFERB
 40
0
  9
$CHAMFERC
 40
0
  9
$CHAMFERD
 40
0
  9
$SKPOLY
 70
    0
  9
$USRTIMER
 70
    1
  9
$ANGBASE
 50
0
  9
$ANGDIR
 70
    0
  9
$PDMODE
 70
   34
  9
$PDSIZE
 40
0
  9
$PLINEWID
 40
0
  9
$SPLFRAME
 70
    0
  9
$SPLINETYPE
 70
    2
  9
$SPLINESEGS
 70
    8
  9
$HANDSEED
  5
20000
  9
$SURFTAB1
 70
    6
  9
$SURFTAB2
 70
    6
  9
$SURFTYPE
 70
    6
  9
$SURFU
 70
    6
  9
$SURFV
 70
    6
  9
$UCSBASE
  2

  9
$UCSNAME
  2

  9
$UCSORG
 10
0
 20
0
 30
0
  9
$UCSXDIR
 10
1
 20
0
 30
0
  9
$UCSYDIR
 10
0
 20
1
 30
0
  9
$UCSORTHOREF
  2

  9
$UCSORTHOVIEW
 70
    0
  9
$UCSORGTOP
 10
0
 20
0
 30
0
  9
$UCSORGBOTTOM
 10
0
 20
0
 30
0
  9
$UCSORGLEFT
 10
0
 20
0
 30
0
  9
$UCSORGRIGHT
 10
0
 20
0
 30
0
  9
$UCSORGFRONT
 10
0
 20
0
 30
0
  9
$UCSORGBACK
 10
0
 20
0
 30
0
  9
$PUCSBASE
  2

  9
$PUCSNAME
  2

  9
$PUCSORG
 10
0
 20
0
 30
0
  9
$PUCSXDIR
 10
1
 20
0
 30
0
  9
$PUCSYDIR
 10
0
 20
1
 30
0
  9
$PUCSORTHOREF
  2

  9
$PUCSORTHOVIEW
 70
    0
  9
$PUCSORGTOP
 10
0
 20
0
 30
0
  9
$PUCSORGBOTTOM
 10
0
 20
0
 30
0
  9
$PUCSORGLEFT
 10
0
 20
0
 30
0
  9
$PUCSORGRIGHT
 10
0
 20
0
 30
0
  9
$PUCSORGFRONT
 10
0
 20
0
 30
0
  9
$PUCSORGBACK
 10
0
 20
0
 30
0
  9
$USERI1
 70
    0
  9
$USERI2
 70
    0
  9
$USERI3
 70
    0
  9
$USERI4
 70
    0
  9
$USERI5
 70
    0
  9
$USERR1
 40
0
  9
$USERR2
 40
0
  9
$USERR3
 40
0
  9
$USERR4
 40
0
  9
$USERR5
 40
0
  9
$WORLDVIEW
 70
    1
  9
$SHADEDGE
 70
    3
  9
$SHADEDIF
 70
   70
  9
$TILEMODE
 70
    1
  9
$MAXACTVP
 70
   64
  9
$PINSBASE
 10
0
 20
0
 30
0
  9
$PLIMCHECK
 70
    0
  9
$PEXTMIN
 10
0
 20
0
 30
0
  9
$PEXTMAX
 10
0
 20
0
 30
0
  9
$PLIMMIN
 10
0
 20
0
  9
$PLIMMAX
 10
297
 20
210
  9
$UNITMODE
 70
    0
  9
$VISRETAIN
 70
    1
  9
$PLINEGEN
 70
    0
  9
$PSLTSCALE
 70
    1
  9
$TREEDEPTH
 70
 3020
  9
$CMLSTYLE
  2
Standard
  9
$CMLJUST
 70
    0
  9
$CMLSCALE
 40
20
  9
$PROXYGRAPHICS
 70
    1
  9
$MEASUREMENT
 70
    1
  9
$CELWEIGHT
370
   -1
  9
$ENDCAPS
280
    0
  9
$JOINSTYLE
280
    0
  9
$LWDISPLAY
290
    0
  9
$INSUNITS
 70
    0
  9
$HYPERLINKBASE
  1

  9
$STYLESHEET
  1

  9
$XEDIT
290
    1
  9
$CEPSNTYPE
380
    0
  9
$PSTYLEMODE
290
    1
  9
$EXTNAMES
290
    1
  9
$PSVPSCALE
 40
0
  9
$OLESTARTUP
290
    0
  9
$SORTENTS
280
  127
  9
$INDEXCTL
280
    0
  9
$HIDETEXT
280
    1
  9
$XCLIPFRAME
290
    0
  9
$HALOGAP
280
    0
  9
$OBSCOLOR
 70
  257
  9
$OBSLTYPE
280
    0
  9
$INTERSECTIONDISPLAY
280
    0
  9
$INTERSECTIONCOLOR
 70
  257
  9
$DIMASSOC
280
    1
  9
$PROJECTNAME
  1

  9
$CAMERADISPLAY
290
    0
  9
$LENSLENGTH
 40
50
  9
$CAMERAHEIGHT
 40
0
  9
$STEPSPERSEC
 40
2
  9
$STEPSIZE
 40
50
  9
$3DDWFPREC
 40
2
  9
$PSOLWIDTH
 40
5
  9
$PSOLHEIGHT
 40
80
  9
$LOFTANG1
 40
1.570796326794897
  9
$LOFTANG2
 40
1.570796326794897
  9
$LOFTMAG1
 40
0
  9
$LOFTMAG2
 40
0
  9
$LOFTPARAM
 70
    7
  9
$LOFTNORMALS
280
    1
  9
$LATITUDE
 40
1
  9
$LONGITUDE
 40
1
  9
$NORTHDIRECTION
 40
0
  9
$TIMEZONE
 70
-8000
  9
$LIGHTGLYPHDISPLAY
280
    1
  9
$TILEMODELIGHTSYNCH
280
    1
  9
$SOLIDHIST
280
    1
  9
$SHOWHIST
280
    1
  9
$DWFFRAME
280
    2
  9
$DGNFRAME
280
    0
  9
$REALWORLDSCALE
290
    1
  9
$INTERFERECOLOR
 62
    1
  9
$CSHADOW
280
    0
  9
$SHADOWPLANELOCATION
 40
0
  0
ENDSEC
  0
SECTION
  2
CLASSES
  0
ENDSEC
  0
SECTION
  2
TABLES
  0
TABLE
  2
VPORT
  5
8
330
0
100
AcDbSymbolTable
 70
    1
  0
VPORT
  5
31
330
2
100
AcDbSymbolTableRecord
100
AcDbViewportTableRecord
  2
*ACTIVE
 70
    0
 10
0
 20
0
 11
1
 21
1
 12
0.651828
 22
-0.16
 13
0
 23
0
 14
10
 24
10
 15
10
 25
10
 16
0
 26
0
 36
1
 17
0
 27
0
 37
0
 40
5.13732
 41
2.4426877
 42
50
 43
0
 44
0
 50
0
 51
0
 71
    0
 72
  100
 73
    1
 74
    3
 75
    0
 76
    0
 77
    0
 78
    0
281
    0
 65
    1
110
0
120
0
130
0
111
1
121
0
131
0
112
0
122
1
132
0
 79
    0
146
0
348
10020
 60
    7
 61
    5
292
1
282
    1
141
0
142
0
 63
  250
421
3358443
  0
ENDTAB
  0
TABLE
  2
LTYPE
  5
5
330
0
100
AcDbSymbolTable
 70
    4
  0
LTYPE
  5
14
330
5
100
AcDbSymbolTableRecord
100
AcDbLinetypeTableRecord
  2
ByBlock
 70
    0
  3

 72
   65
 73
    0
 40
0
  0
LTYPE
  5
15
330
5
100
AcDbSymbolTableRecord
100
AcDbLinetypeTableRecord
  2
ByLayer
 70
    0
  3

 72
   65
 73
    0
 40
0
  0
LTYPE
  5
16
330
5
100
AcDbSymbolTableRecord
100
AcDbLinetypeTableRecord
  2
Continuous
 70
    0
  3
Solid line
 72
   65
 73
    0
 40
0
  0
LTYPE
  5
32
330
5
100
AcDbSymbolTableRecord
100
AcDbLinetypeTableRecord
  2
DASHED
 70
    0
  3

 72
   65
 73
    2
 40
3
 49
1
 74
    0
 49
-2
 74
    0
  0
LTYPE
  5
33
330
5
100
AcDbSymbolTableRecord
100
AcDbLinetypeTableRecord
  2
DASHED
 70
    0
  3

 72
   65
 73
    2
 40
2
 49
1
 74
    0
 49
-1
 74
    0
  0
LTYPE
  5
34
330
5
100
AcDbSymbolTableRecord
100
AcDbLinetypeTableRecord
  2
DASHEDX2
 70
    0
  3

 72
   65
 73
    2
 40
3
 49
2
 74
    0
 49
-1
 74
    0
  0
LTYPE
  5
35
330
5
100
AcDbSymbolTableRecord
100
AcDbLinetypeTableRecord
  2
DASHDOT
 70
    0
  3

 72
   65
 73
    4
 40
3
 49
1
 74
    0
 49
-1
 74
    0
 49
0
 74
    0
 49
-1
 74
    0
  0
LTYPE
  5
36
330
5
100
AcDbSymbolTableRecord
100
AcDbLinetypeTableRecord
  2
DIVIDE
 70
    0
  3

 72
   65
 73
    6
 40
4
 49
1
 74
    0
 49
-1
 74
    0
 49
0
 74
    0
 49
-1
 74
    0
 49
0
 74
    0
 49
-1
 74
    0
  0
LTYPE
  5
37
330
5
100
AcDbSymbolTableRecord
100
AcDbLinetypeTableRecord
  2
DOT
 70
    0
  3

 72
   65
 73
    2
 40
1
 49
1
 74
    0
 49
0
 74
    0
  0
ENDTAB
  0
TABLE
  2
LAYER
  5
2
330
0
100
AcDbSymbolTable
 70
    1
  0
LAYER
  5
38
330
2
100
AcDbSymbolTableRecord
100
AcDbLayerTableRecord
  2
dimensions
 70
    0
 62
    7
  6
CONTINUOUS
370
   -3
390
F
  0
LAYER
  5
39
330
2
100
AcDbSymbolTableRecord
100
AcDbLayerTableRecord
  2
text
 70
    0
 62
    7
  6
CONTINUOUS
370
   -3
390
F
  0
LAYER
  5
3A
330
2
100
AcDbSymbolTableRecord
100
AcDbLayerTableRecord
  2
s005-#def-solid-edge
 70
    0
 62
    7
  6
CONTINUOUS
370
   -3
390
F
  0
LAYER
  5
10
330
2
100
AcDbSymbolTableRecord
100
AcDbLayerTableRecord
  2
0
 70
    0
 62
    7
  6
CONTINUOUS
370
   -3
390
F
  0
ENDTAB
  0
TABLE
  2
STYLE
  5
3
330
0
100
AcDbSymbolTable
 70
    3
  0
STYLE
  5
3B
330
2
100
AcDbSymbolTableRecord
100
AcDbTextStyleTableRecord
  2
unicode
 70
    0
 40
0
 41
1
 50
0
 71
    0
 42
1
  3
unicode
  4

  0
STYLE
  5
3C
330
2
100
AcDbSymbolTableRecord
100
AcDbTextStyleTableRecord
  2
Standard
 70
    0
 40
0
 41
1
 50
0
 71
    0
 42
1
  3
txt
  4

  0
ENDTAB
  0
TABLE
  2
VIEW
  5
6
330
0
100
AcDbSymbolTable
 70
    0
  0
ENDTAB
  0
TABLE
  2
UCS
  5
7
330
0
100
AcDbSymbolTable
 70
    0
  0
ENDTAB
  0
TABLE
  2
APPID
  5
9
330
0
100
AcDbSymbolTable
 70
    1
  0
APPID
  5
12
330
9
100
AcDbSymbolTableRecord
100
AcDbRegAppTableRecord
  2
ACAD
 70
    0
  0
ENDTAB
  0
TABLE
  2
DIMSTYLE
  5
A
330
0
100
AcDbSymbolTable
 70
    1
100
AcDbDimStyleTable
 71
    1
  0
DIMSTYLE
105
3D
330
A
100
AcDbSymbolTableRecord
100
AcDbDimStyleTableRecord
  2
Standard
 70
    0
 40
1
 41
2.5
 42
0.625
 43
3.75
 44
1.25
 45
0
 46
0
 47
0
 48
0
140
2.5
141
2.5
142
0
143
0.03937007874015748
144
1
145
0
146
1
147
0.625
148
0
 71
    0
 72
    0
 73
    0
 74
    0
 75
    0
 76
    0
 77
    1
 78
    8
 79
    0
170
    0
171
    3
172
    1
173
    0
174
    0
175
    0
176
    0
177
    0
178
    0
179
    0
271
    2
272
    2
273
    2
274
    3
275
    0
276
    0
277
    2
278
   44
279
    0
280
    0
281
    0
282
    0
283
    0
284
    8
285
    0
286
    0
288
    0
289
    3
341

371
   -2
372
   -2
  0
ENDTAB
  0
TABLE
  2
BLOCK_RECORD
  5
1
330
0
100
AcDbSymbolTable
 70
    2
  0
BLOCK_RECORD
  5
1F
330
1
100
AcDbSymbolTableRecord
100
AcDbBlockTableRecord
  2
*Model_Space
 70
    0
280
    1
281
    0
  0
BLOCK_RECORD
  5
1E
330
1
100
AcDbSymbolTableRecord
100
AcDbBlockTableRecord
  2
*Paper_Space
 70
    0
280
    1
281
    0
  0
ENDTAB
  0
ENDSEC
  0
SECTION
  2
BLOCKS
  0
BLOCK
  5
20
330
1F
100
AcDbEntity
  8
0
100
AcDbBlockBegin
  2
*Model_Space
 70
    0
 10
0
 20
0
 30
0
  3
*Model_Space
  1

  0
ENDBLK
  5
21
330
1F
100
AcDbEntity
  8
0
100
AcDbBlockEnd
  0
BLOCK
  5
1C
330
1B
100
AcDbEntity
  8
0
100
AcDbBlockBegin
  2
*Paper_Space
 70
    0
 10
0
 20
0
 30
0
  3
*Paper_Space
  1

  0
ENDBLK
  5
1D
330
1F
100
AcDbEntity
  8
0
100
AcDbBlockEnd
  0
ENDSEC
  0
SECTION
  2
ENTITIES
  0
POLYLINE
  5
3E
100
AcDbEntity
  8
s005-#def-solid-edge
  6
CONTINUOUS
 62
    7
420
    0
370
   40
100
AcDb2dPolyline
 10
0
 20
0
 30
0
 70
    0
  0
VERTEX
  5
3F
100
AcDbEntity
  8
s005-#def-solid-edge
  6
CONTINUOUS
 62
    7
420
    0
370
   40
100
AcDbVertex
100
AcDb2dVertex
 10
170.3227513794585
 20
161.5
 30
0
  0
VERTEX
  5
40
100
AcDbEntity
  8
s005-#def-solid-edge
  6
CONTINUOUS
 62
    7
420
    0
370
   40
100
AcDbVertex
100
AcDb2dVertex
 10
128.5
 20
161.5
 30
0
  0
VERTEX
  5
41
100
AcDbEntity
  8
s005-#def-solid-edge
  6
CONTINUOUS
 62
    7
420
    0
370
   40
100
AcDbVertex
100
AcDb2dVertex
 10
78.5
 20
161.5
 30
0
  0
SEQEND
  5
42
100
AcDbEntity
  8
s005-#def-solid-edge
  6
CONTINUOUS
 62
    7
420
    0
370
   40
  0
POLYLINE
  5
43
100
AcDbEntity
  8
s005-#def-solid-edge
  6
CONTINUOUS
 62
    7
420
    0
370
   40
100
AcDb2dPolyline
 10
0
 20
0
 30
0
 70
    0
  0
VERTEX
  5
44
100
AcDbEntity
  8
s005-#def-solid-edge
  6
CONTINUOUS
 62
    7
420
    0
370
   40
100
AcDbVertex
100
AcDb2dVertex
 10
78.5
 20
24.5
 30
0
  0
VERTEX
  5
45
100
AcDbEntity
  8
s005-#def-solid-edge
  6
CONTINUOUS
 62
    7
420
    0
370
   40
100
AcDbVertex
100
AcDb2dVertex
 10
128.5
 20
24.50000000000001
 30
0
  0
VERTEX
  5
46
100
AcDbEntity
  8
s005-#def-solid-edge
  6
CONTINUOUS
 62
    7
420
    0
370
   40
100
AcDbVertex
100
AcDb2dVertex
 10
170.3227513794585
 20
24.50000000000001
 30
0
  0
SEQEND
  5
47
100
AcDbEntity
  8
s005-#def-solid-edge
  6
CONTINUOUS
 62
    7
420
    0
370
   40
  0
POLYLINE
  5
48
100
AcDbEntity
  8
s005-#def-solid-edge
  6
CONTINUOUS
 62
    7
420
    0
370
   40
100
AcDb2dPolyline
 10
0
 20
0
 30
0
 70
    0
  0
VERTEX
  5
49
100
AcDbEntity
  8
s005-#def-solid-edge
  6
CONTINUOUS
 62
    7
420
    0
370
   40
100
AcDbVertex
100
AcDb2dVertex
 10
185.75
 20
38.50000000000001
 30
0
  0
VERTEX
  5
4A
100
AcDbEntity
  8
s005-#def-solid-edge
  6
CONTINUOUS
 62
    7
420
    0
370
   40
100
AcDbVertex
100
AcDb2dVertex
 10
197
 20
38.50000000000001
 30
0
  0
VERTEX
  5
4B
100
AcDbEntity
  8
s005-#def-solid-edge
  6
CONTINUOUS
 62
    7
420
    0
370
   40
100
AcDbVertex
100
AcDb2dVertex
 10
197
 20
93
 30
0
  0
VERTEX
  5
4C
100
AcDbEntity
  8
s005-#def-solid-edge
  6
CONTINUOUS
 62
    7
420
    0
370
   40
100
AcDbVertex
100
AcDb2dVertex
 10
197
 20
147.5
 30
0
  0
VERTEX
  5
4D
100
AcDbEntity
  8
s005-#def-solid-edge
  6
CONTINUOUS
 62
    7
420
    0
370
   40
100
AcDbVertex
100
AcDb2dVertex
 10
185.75
 20
147.5
 30
0
  0
SEQEND
  5
4E
100
AcDbEntity
  8
s005-#def-solid-edge
  6
CONTINUOUS
 62
    7
420
    0
370
   40
  0
POLYLINE
  5
4F
100
AcDbEntity
  8
s005-#def-solid-edge
  6
CONTINUOUS
 62
    7
420
    0
370
   40
100
AcDb2dPolyline
 10
0
 20
0
 30
0
 70
    0
  0
VERTEX
  5
50
100
AcDbEntity
  8
s005-#def-solid-edge
  6
CONTINUOUS
 62
    7
420
    0
370
   40
100
AcDbVertex
100
AcDb2dVertex
 10
310.3227513794585
 20
161.5
 30
0
  0
VERTEX
  5
51
100
AcDbEntity
  8
s005-#def-solid-edge
  6
CONTINUOUS
 62
    7
420
    0
370
   40
100
AcDbVertex
100
AcDb2dVertex
 10
268.5
 20
161.5
 30
0
  0
VERTEX
  5
52
100
AcDbEntity
  8
s005-#def-solid-edge
  6
CONTINUOUS
 62
    7
420
    0
370
   40
100
AcDbVertex
100
AcDb2dVertex
 10
226.6772486205415
 20
161.5
 30
0
  0
SEQEND
  5
53
100
AcDbEntity
  8
s005-#def-solid-edge
  6
CONTINUOUS
 62
    7
420
    0
370
   40
  0
POLYLINE
  5
54
100
AcDbEntity
  8
s005-#def-solid-edge
  6
CONTINUOUS
 62
    7
420
    0
370
   40
100
AcDb2dPolyline
 10
0
 20
0
 30
0
 70
    0
  0
VERTEX
  5
55
100
AcDbEntity
  8
s005-#def-solid-edge
  6
CONTINUOUS
 62
    7
420
    0
370
   40
100
AcDbVertex
100
AcDb2dVertex
 10
211.25
 20
147.5
 30
0
  0
VERTEX
  5
56
100
AcDbEntity
  8
s005-#def-solid-edge
  6
CONTINUOUS
 62
    7
420
    0
370
   40
100
AcDbVertex
100
AcDb2dVertex
 10
200
 20
147.5
 30
0
  0
VERTEX
  5
57
100
AcDbEntity
  8
s005-#def-solid-edge
  6
CONTINUOUS
 62
    7
420
    0
370
   40
100
AcDbVertex
100
AcDb2dVertex
 10
200
 20
93
 30
0
  0
VERTEX
  5
58
100
AcDbEntity
  8
s005-#def-solid-edge
  6
CONTINUOUS
 62
    7
420
    0
370
   40
100
AcDbVertex
100
AcDb2dVertex
 10
200
 20
38.50000000000001
 30
0
  0
VERTEX
  5
59
100
AcDbEntity
  8
s005-#def-solid-edge
  6
CONTINUOUS
 62
    7
420
    0
370
   40
100
AcDbVertex
100
AcDb2dVertex
 10
211.25
 20
38.50000000000001
 30
0
  0
SEQEND
  5
5A
100
AcDbEntity
  8
s005-#def-solid-edge
  6
CONTINUOUS
 62
    7
420
    0
370
   40
  0
POLYLINE
  5
5B
100
AcDbEntity
  8
s005-#def-solid-edge
  6
CONTINUOUS
 62
    7
420
    0
370
   40
100
AcDb2dPolyline
 10
0
 20
0
 30
0
 70
    0
  0
VERTEX
  5
5C
100
AcDbEntity
  8
s005-#def-solid-edge
  6
CONTINUOUS
 62
    7
420
    0
370
   40
100
AcDbVertex
100
AcDb2dVertex
 10
226.6772486205415
 20
24.50000000000001
 30
0
  0
VERTEX
  5
5D
100
AcDbEntity
  8
s005-#def-solid-edge
  6
CONTINUOUS
 62
    7
420
    0
370
   40
100
AcDbVertex
100
AcDb2dVertex
 10
268.5
 20
24.50000000000001
 30
0
  0
VERTEX
  5
5E
100
AcDbEntity
  8
s005-#def-solid-edge
  6
CONTINUOUS
 62
    7
420
    0
370
   40
100
AcDbVertex
100
AcDb2dVertex
 10
310.3227513794585
 20
24.49999999999999
 30
0
  0
SEQEND
  5
5F
100
AcDbEntity
  8
s005-#def-solid-edge
  6
CONTINUOUS
 62
    7
420
    0
370
   40
  0
POLYLINE
  5
60
100
AcDbEntity
  8
s005-#def-solid-edge
  6
CONTINUOUS
 62
    7
420
    0
370
   40
100
AcDb2dPolyline
 10
0
 20
0
 30
0
 70
    0
  0
VERTEX
  5
61
100
AcDbEntity
  8
s005-#def-solid-edge
  6
CONTINUOUS
 62
    7
420
    0
370
   40
100
AcDbVertex
100
AcDb2dVertex
 10
325.75
 20
38.49999999999999
 30
0
  0
VERTEX
  5
62
100
AcDbEntity
  8
s005-#def-solid-edge
  6
CONTINUOUS
 62
    7
420
    0
370
   40
100
AcDbVertex
100
AcDb2dVertex
 10
337
 20
38.49999999999999
 30
0
  0
VERTEX
  5
63
100
AcDbEntity
  8
s005-#def-solid-edge
  6
CONTINUOUS
 62
    7
420
    0
370
   40
100
AcDbVertex
100
AcDb2dVertex
 10
337
 20
92.99999999999999
 30
0
  0
VERTEX
  5
64
100
AcDbEntity
  8
s005-#def-solid-edge
  6
CONTINUOUS
 62
    7
420
    0
370
   40
100
AcDbVertex
100
AcDb2dVertex
 10
337
 20
147.5
 30
0
  0
VERTEX
  5
65
100
AcDbEntity
  8
s005-#def-solid-edge
  6
CONTINUOUS
 62
    7
420
    0
370
   40
100
AcDbVertex
100
AcDb2dVertex
 10
325.75
 20
147.5
 30
0
  0
SEQEND
  5
66
100
AcDbEntity
  8
s005-#def-solid-edge
  6
CONTINUOUS
 62
    7
420
    0
370
   40
  0
POLYLINE
  5
67
100
AcDbEntity
  8
s005-#def-solid-edge
  6
CONTINUOUS
 62
    7
420
    0
370
   40
100
AcDb2dPolyline
 10
0
 20
0
 30
0
 70
    0
  0
VERTEX
  5
68
100
AcDbEntity
  8
s005-#def-solid-edge
  6
CONTINUOUS
 62
    7
420
    0
370
   40
100
AcDbVertex
100
AcDb2dVertex
 10
450.3227513794585
 20
161.5
 30
0
  0
VERTEX
  5
69
100
AcDbEntity
  8
s005-#def-solid-edge
  6
CONTINUOUS
 62
    7
420
    0
370
   40
100
AcDbVertex
100
AcDb2dVertex
 10
408.5
 20
161.5
 30
0
  0
VERTEX
  5
6A
100
AcDbEntity
  8
s005-#def-solid-edge
  6
CONTINUOUS
 62
    7
420
    0
370
   40
100
AcDbVertex
100
AcDb2dVertex
 10
366.6772486205415
 20
161.5
 30
0
  0
SEQEND
  5
6B
100
AcDbEntity
  8
s005-#def-solid-edge
  6
CONTINUOUS
 62
    7
420
    0
370
   40
  0
POLYLINE
  5
6C
100
AcDbEntity
  8
s005-#def-solid-edge
  6
CONTINUOUS
 62
    7
420
    0
370
   40
100
AcDb2dPolyline
 10
0
 20
0
 30
0
 70
    0
  0
VERTEX
  5
6D
100
AcDbEntity
  8
s005-#def-solid-edge
  6
CONTINUOUS
 62
    7
420
    0
370
   40
100
AcDbVertex
100
AcDb2dVertex
 10
351.25
 20
147.5
 30
0
  0
VERTEX
  5
6E
100
AcDbEntity
  8
s005-#def-solid-edge
  6
CONTINUOUS
 62
    7
420
    0
370
   40
100
AcDbVertex
100
AcDb2dVertex
 10
340
 20
147.5
 30
0
  0
VERTEX
  5
6F
100
AcDbEntity
  8
s005-#def-solid-edge
  6
CONTINUOUS
 62
    7
420
    0
370
   40
100
AcDbVertex
100
AcDb2dVertex
 10
340
 20
92.99999999999999
 30
0
  0
VERTEX
  5
70
100
AcDbEntity
  8
s005-#def-solid-edge
  6
CONTINUOUS
 62
    7
420
    0
370
   40
100
AcDbVertex
100
AcDb2dVertex
 10
340
 20
38.5
 30
0
  0
VERTEX
  5
71
100
AcDbEntity
  8
s005-#def-solid-edge
  6
CONTINUOUS
 62
    7
420
    0
370
   40
100
AcDbVertex
100
AcDb2dVertex
 10
351.25
 20
38.5
 30
0
  0
SEQEND
  5
72
100
AcDbEntity
  8
s005-#def-solid-edge
  6
CONTINUOUS
 62
    7
420
    0
370
   40
  0
POLYLINE
  5
73
100
AcDbEntity
  8
s005-#def-solid-edge
  6
CONTINUOUS
 62
    7
420
    0
370
   40
100
AcDb2dPolyline
 10
0
 20
0
 30
0
 70
    0
  0
VERTEX
  5
74
100
AcDbEntity
  8
s005-#def-solid-edge
  6
CONTINUOUS
 62
    7
420
    0
370
   40
100
AcDbVertex
100
AcDb2dVertex
 10
366.6772486205415
 20
24.49999999999999
 30
0
  0
VERTEX
  5
75
100
AcDbEntity
  8
s005-#def-solid-edge
  6
CONTINUOUS
 62
    7
420
    0
370
   40
100
AcDbVertex
100
AcDb2dVertex
 10
408.5
 20
24.49999999999999
 30
0
  0
VERTEX
  5
76
100
AcDbEntity
  8
s005-#def-solid-edge
  6
CONTINUOUS
 62
    7
420
    0
370
   40
100
AcDbVertex
100
AcDb2dVertex
 10
450.3227513794585
 20
24.49999999999998
 30
0
  0
SEQEND
  5
77
100
AcDbEntity
  8
s005-#def-solid-edge
  6
CONTINUOUS
 62
    7
420
    0
370
   40
  0
POLYLINE
  5
78
100
AcDbEntity
  8
s005-#def-solid-edge
  6
CONTINUOUS
 62
    7
420
    0
370
   40
100
AcDb2dPolyline
 10
0
 20
0
 30
0
 70
    0
  0
VERTEX
  5
79
100
AcDbEntity
  8
s005-#def-solid-edge
  6
CONTINUOUS
 62
    7
420
    0
370
   40
100
AcDbVertex
100
AcDb2dVertex
 10
465.75
 20
38.49999999999998
 30
0
  0
VERTEX
  5
7A
100
AcDbEntity
  8
s005-#def-solid-edge
  6
CONTINUOUS
 62
    7
420
    0
370
   40
100
AcDbVertex
100
AcDb2dVertex
 10
477
 20
38.49999999999998
 30
0
  0
VERTEX
  5
7B
100
AcDbEntity
  8
s005-#def-solid-edge
  6
CONTINUOUS
 62
    7
420
    0
370
   40
100
AcDbVertex
100
AcDb2dVertex
 10
477
 20
92.99999999999997
 30
0
  0
VERTEX
  5
7C
100
AcDbEntity
  8
s005-#def-solid-edge
  6
CONTINUOUS
 62
    7
420
    0
370
   40
100
AcDbVertex
100
AcDb2dVertex
 10
477
 20
147.4999999999999
 30
0
  0
VERTEX
  5
7D
100
AcDbEntity
  8
s005-#def-solid-edge
  6
CONTINUOUS
 62
    7
420
    0
370
   40
100
AcDbVertex
100
AcDb2dVertex
 10
465.75
 20
147.4999999999999
 30
0
  0
SEQEND
  5
7E
100
AcDbEntity
  8
s005-#def-solid-edge
  6
CONTINUOUS
 62
    7
420
    0
370
   40
  0
POLYLINE
  5
7F
100
AcDbEntity
  8
s005-#def-solid-edge
  6
CONTINUOUS
 62
    7
420
    0
370
   40
100
AcDb2dPolyline
 10
0
 20
0
 30
0
 70
    0
  0
VERTEX
  5
80
100
AcDbEntity
  8
s005-#def-solid-edge
  6
CONTINUOUS
 62
    7
420
    0
370
   40
100
AcDbVertex
100
AcDb2dVertex
 10
598.5
 20
161.4999999999999
 30
0
  0
VERTEX
  5
81
100
AcDbEntity
  8
s005-#def-solid-edge
  6
CONTINUOUS
 62
    7
420
    0
370
   40
100
AcDbVertex
100
AcDb2dVertex
 10
548.5
 20
161.4999999999999
 30
0
  0
VERTEX
  5
82
100
AcDbEntity
  8
s005-#def-solid-edge
  6
CONTINUOUS
 62
    7
420
    0
370
   40
100
AcDbVertex
100
AcDb2dVertex
 10
506.6772486205415
 20
161.4999999999999
 30
0
  0
SEQEND
  5
83
100
AcDbEntity
  8
s005-#def-solid-edge
  6
CONTINUOUS
 62
    7
420
    0
370
   40
  0
POLYLINE
  5
84
100
AcDbEntity
  8
s005-#def-solid-edge
  6
CONTINUOUS
 62
    7
420
    0
370
   40
100
AcDb2dPolyline
 10
0
 20
0
 30
0
 70
    0
  0
VERTEX
  5
85
100
AcDbEntity
  8
s005-#def-solid-edge
  6
CONTINUOUS
 62
    7
420
    0
370
   40
100
AcDbVertex
100
AcDb2dVertex
 10
491.25
 20
147.4999999999999
 30
0
  0
VERTEX
  5
86
100
AcDbEntity
  8
s005-#def-solid-edge
  6
CONTINUOUS
 62
    7
420
    0
370
   40
100
AcDbVertex
100
AcDb2dVertex
 10
480
 20
147.4999999999999
 30
0
  0
VERTEX
  5
87
100
AcDbEntity
  8
s005-#def-solid-edge
  6
CONTINUOUS
 62
    7
420
    0
370
   40
100
AcDbVertex
100
AcDb2dVertex
 10
480
 20
92.99999999999997
 30
0
  0
VERTEX
  5
88
100
AcDbEntity
  8
s005-#def-solid-edge
  6
CONTINUOUS
 62
    7
420
    0
370
   40
100
AcDbVertex
100
AcDb2dVertex
 10
480
 20
38.49999999999999
 30
0
  0
VERTEX
  5
89
100
AcDbEntity
  8
s005-#def-solid-edge
  6
CONTINUOUS
 62
    7
420
    0
370
   40
100
AcDbVertex
100
AcDb2dVertex
 10
491.25
 20
38.49999999999999
 30
0
  0
SEQEND
  5
8A
100
AcDbEntity
  8
s005-#def-solid-edge
  6
CONTINUOUS
 62
    7
420
    0
370
   40
  0
POLYLINE
  5
8B
100
AcDbEntity
  8
s005-#def-solid-edge
  6
CONTINUOUS
 62
    7
420
    0
370
   40
100
AcDb2dPolyline
 10
0
 20
0
 30
0
 70
    0
  0
VERTEX
  5
8C
100
AcDbEntity
  8
s005-#def-solid-edge
  6
CONTINUOUS
 62
    7
420
    0
370
   40
100
AcDbVertex
100
AcDb2dVertex
 10
506.6772486205415
 20
24.49999999999998
 30
0
  0
VERTEX
  5
8D
100
AcDbEntity
  8
s005-#def-solid-edge
  6
CONTINUOUS
 62
    7
420
    0
370
   40
100
AcDbVertex
100
AcDb2dVertex
 10
548.5
 20
24.49999999999997
 30
0
  0
VERTEX
  5
8E
100
AcDbEntity
  8
s005-#def-solid-edge
  6
CONTINUOUS
 62
    7
420
    0
370
   40
100
AcDbVertex
100
AcDb2dVertex
 10
598.5
 20
24.49999999999994
 30
0
  0
SEQEND
  5
8F
100
AcDbEntity
  8
s005-#def-solid-edge
  6
CONTINUOUS
 62
    7
420
    0
370
   40
  0
POLYLINE
  5
90
100
AcDbEntity
  8
s005-#def-solid-edge
  6
CONTINUOUS
 62
    7
420
    0
370
   40
100
AcDb2dPolyline
 10
0
 20
0
 30
0
 70
    0
  0
VERTEX
  5
91
100
AcDbEntity
  8
s005-#def-solid-edge
  6
CONTINUOUS
 62
    7
420
    0
370
   40
100
AcDbVertex
100
AcDb2dVertex
 10
140.5000000000001
 20
326.0000000000001
 30
0
  0
VERTEX
  5
92
100
AcDbEntity
  8
s005-#def-solid-edge
  6
CONTINUOUS
 62
    7
420
    0
370
   40
100
AcDbVertex
100
AcDb2dVertex
 10
90.50000000000006
 20
326.0000000000001
 30
0
  0
VERTEX
  5
93
100
AcDbEntity
  8
s005-#def-solid-edge
  6
CONTINUOUS
 62
    7
420
    0
370
   40
100
AcDbVertex
100
AcDb2dVertex
 10
40.50000000000006
 20
326.0000000000001
 30
0
  0
SEQEND
  5
94
100
AcDbEntity
  8
s005-#def-solid-edge
  6
CONTINUOUS
 62
    7
420
    0
370
   40
  0
POLYLINE
  5
95
100
AcDbEntity
  8
s005-#def-solid-edge
  6
CONTINUOUS
 62
    7
420
    0
370
   40
100
AcDb2dPolyline
 10
0
 20
0
 30
0
 70
    0
  0
VERTEX
  5
96
100
AcDbEntity
  8
s005-#def-solid-edge
  6
CONTINUOUS
 62
    7
420
    0
370
   40
100
AcDbVertex
100
AcDb2dVertex
 10
22.00000000000006
 20
307.5000000000001
 30
0
  0
VERTEX
  5
97
100
AcDbEntity
  8
s005-#def-solid-edge
  6
CONTINUOUS
 62
    7
420
    0
370
   40
100
AcDbVertex
100
AcDb2dVertex
 10
22.00000000000005
 20
257.5000000000001
 30
0
  0
VERTEX
  5
98
100
AcDbEntity
  8
s005-#def-solid-edge
  6
CONTINUOUS
 62
    7
420
    0
370
   40
100
AcDbVertex
100
AcDb2dVertex
 10
22.00000000000005
 20
207.5000000000001
 30
0
  0
SEQEND
  5
99
100
AcDbEntity
  8
s005-#def-solid-edge
  6
CONTINUOUS
 62
    7
420
    0
370
   40
  0
POLYLINE
  5
9A
100
AcDbEntity
  8
s005-#def-solid-edge
  6
CONTINUOUS
 62
    7
420
    0
370
   40
100
AcDb2dPolyline
 10
0
 20
0
 30
0
 70
    0
  0
VERTEX
  5
9B
100
AcDbEntity
  8
s005-#def-solid-edge
  6
CONTINUOUS
 62
    7
420
    0
370
   40
100
AcDbVertex
100
AcDb2dVertex
 10
40.50000000000005
 20
189.0000000000001
 30
0
  0
VERTEX
  5
9C
100
AcDbEntity
  8
s005-#def-solid-edge
  6
CONTINUOUS
 62
    7
420
    0
370
   40
100
AcDbVertex
100
AcDb2dVertex
 10
90.50000000000006
 20
189.0000000000001
 30
0
  0
VERTEX
  5
9D
100
AcDbEntity
  8
s005-#def-solid-edge
  6
CONTINUOUS
 62
    7
420
    0
370
   40
100
AcDbVertex
100
AcDb2dVertex
 10
140.5000000000001
 20
189.0000000000001
 30
0
  0
SEQEND
  5
9E
100
AcDbEntity
  8
s005-#def-solid-edge
  6
CONTINUOUS
 62
    7
420
    0
370
   40
  0
POLYLINE
  5
9F
100
AcDbEntity
  8
s005-#def-solid-edge
  6
CONTINUOUS
 62
    7
420
    0
370
   40
100
AcDb2dPolyline
 10
0
 20
0
 30
0
 70
    0
  0
VERTEX
  5
A0
100
AcDbEntity
  8
s005-#def-solid-edge
  6
CONTINUOUS
 62
    7
420
    0
370
   40
100
AcDbVertex
100
AcDb2dVertex
 10
159.0000000000001
 20
207.5000000000001
 30
0
  0
VERTEX
  5
A1
100
AcDbEntity
  8
s005-#def-solid-edge
  6
CONTINUOUS
 62
    7
420
    0
370
   40
100
AcDbVertex
100
AcDb2dVertex
 10
159.0000000000001
 20
257.5000000000001
 30
0
  0
VERTEX
  5
A2
100
AcDbEntity
  8
s005-#def-solid-edge
  6
CONTINUOUS
 62
    7
420
    0
370
   40
100
AcDbVertex
100
AcDb2dVertex
 10
159.0000000000001
 20
307.5000000000001
 30
0
  0
SEQEND
  5
A3
100
AcDbEntity
  8
s005-#def-solid-edge
  6
CONTINUOUS
 62
    7
420
    0
370
   40
  0
POLYLINE
  5
A4
100
AcDbEntity
  8
s005-#def-solid-edge
  6
CONTINUOUS
 62
    7
420
    0
370
   40
100
AcDb2dPolyline
 10
0
 20
0
 30
0
 70
    0
  0
VERTEX
  5
A5
100
AcDbEntity
  8
s005-#def-solid-edge
  6
CONTINUOUS
 62
    7
420
    0
370
   40
100
AcDbVertex
100
AcDb2dVertex
 10
700
 20
351
 30
0
  0
VERTEX
  5
A6
100
AcDbEntity
  8
s005-#def-solid-edge
  6
CONTINUOUS
 62
    7
420
    0
370
   40
100
AcDbVertex
100
AcDb2dVertex
 10
0
 20
351
 30
0
  0
VERTEX
  5
A7
100
AcDbEntity
  8
s005-#def-solid-edge
  6
CONTINUOUS
 62
    7
420
    0
370
   40
100
AcDbVertex
100
AcDb2dVertex
 10
0
 20
347
 30
0
  0
VERTEX
  5
A8
100
AcDbEntity
  8
s005-#def-solid-edge
  6
CONTINUOUS
 62
    7
420
    0
370
   40
100
AcDbVertex
100
AcDb2dVertex
 10
0
 20
0
 30
0
  0
VERTEX
  5
A9
100
AcDbEntity
  8
s005-#def-solid-edge
  6
CONTINUOUS
 62
    7
420
    0
370
   40
100
AcDbVertex
100
AcDb2dVertex
 10
0
 20
-4
 30
0
  0
VERTEX
  5
AA
100
AcDbEntity
  8
s005-#def-solid-edge
  6
CONTINUOUS
 62
    7
420
    0
370
   40
100
AcDbVertex
100
AcDb2dVertex
 10
700
 20
-4
 30
0
  0
VERTEX
  5
AB
100
AcDbEntity
  8
s005-#def-solid-edge
  6
CONTINUOUS
 62
    7
420
    0
370
   40
100
AcDbVertex
100
AcDb2dVertex
 10
700
 20
0
 30
0
  0
VERTEX
  5
AC
100
AcDbEntity
  8
s005-#def-solid-edge
  6
CONTINUOUS
 62
    7
420
    0
370
   40
100
AcDbVertex
100
AcDb2dVertex
 10
700
 20
347
 30
0
  0
VERTEX
  5
AD
100
AcDbEntity
  8
s005-#def-solid-edge
  6
CONTINUOUS
 62
    7
420
    0
370
   40
100
AcDbVertex
100
AcDb2dVertex
 10
700
 20
351
 30
0
  0
SEQEND
  5
AE
100
AcDbEntity
  8
s005-#def-solid-edge
  6
CONTINUOUS
 62
    7
420
    0
370
   40
  0
POLYLINE
  5
AF
100
AcDbEntity
  8
s005-#def-solid-edge
  6
CONTINUOUS
 62
    7
420
    0
370
   40
100
AcDb2dPolyline
 10
0
 20
0
 30
0
 70
    0
  0
VERTEX
  5
B0
100
AcDbEntity
  8
s005-#def-solid-edge
  6
CONTINUOUS
 62
    7
420
    0
370
   40
100
AcDbVertex
100
AcDb2dVertex
 10
58.5
 20
23
 30
0
  0
VERTEX
  5
B1
100
AcDbEntity
  8
s005-#def-solid-edge
  6
CONTINUOUS
 62
    7
420
    0
370
   40
100
AcDbVertex
100
AcDb2dVertex
 10
58.5
 20
163
 30
0
  0
VERTEX
  5
B2
100
AcDbEntity
  8
s005-#def-solid-edge
  6
CONTINUOUS
 62
    7
420
    0
370
   40
100
AcDbVertex
100
AcDb2dVertex
 10
618.5
 20
163
 30
0
  0
VERTEX
  5
B3
100
AcDbEntity
  8
s005-#def-solid-edge
  6
CONTINUOUS
 62
    7
420
    0
370
   40
100
AcDbVertex
100
AcDb2dVertex
 10
618.5
 20
23
 30
0
  0
VERTEX
  5
B4
100
AcDbEntity
  8
s005-#def-solid-edge
  6
CONTINUOUS
 62
    7
420
    0
370
   40
100
AcDbVertex
100
AcDb2dVertex
 10
58.5
 20
23
 30
0
  0
SEQEND
  5
B5
100
AcDbEntity
  8
s005-#def-solid-edge
  6
CONTINUOUS
 62
    7
420
    0
370
   40
  0
POLYLINE
  5
B6
100
AcDbEntity
  8
s005-#def-solid-edge
  6
CONTINUOUS
 62
    7
420
    0
370
   40
100
AcDb2dPolyline
 10
0
 20
0
 30
0
 70
    0
  0
VERTEX
  5
B7
100
AcDbEntity
  8
s005-#def-solid-edge
  6
CONTINUOUS
 62
    7
420
    0
370
   40
100
AcDbVertex
100
AcDb2dVertex
 10
160.5000000000001
 20
187.5000000000001
 30
0
  0
VERTEX
  5
B8
100
AcDbEntity
  8
s005-#def-solid-edge
  6
CONTINUOUS
 62
    7
420
    0
370
   40
100
AcDbVertex
100
AcDb2dVertex
 10
20.50000000000005
 20
187.5000000000001
 30
0
  0
VERTEX
  5
B9
100
AcDbEntity
  8
s005-#def-solid-edge
  6
CONTINUOUS
 62
    7
420
    0
370
   40
100
AcDbVertex
100
AcDb2dVertex
 10
20.50000000000008
 20
327.5000000000001
 30
0
  0
VERTEX
  5
BA
100
AcDbEntity
  8
s005-#def-solid-edge
  6
CONTINUOUS
 62
    7
420
    0
370
   40
100
AcDbVertex
100
AcDb2dVertex
 10
160.5000000000001
 20
327.5000000000001
 30
0
  0
VERTEX
  5
BB
100
AcDbEntity
  8
s005-#def-solid-edge
  6
CONTINUOUS
 62
    7
420
    0
370
   40
100
AcDbVertex
100
AcDb2dVertex
 10
160.5000000000001
 20
187.5000000000001
 30
0
  0
SEQEND
  5
BC
100
AcDbEntity
  8
s005-#def-solid-edge
  6
CONTINUOUS
 62
    7
420
    0
370
   40
  0
LINE
  5
BD
100
AcDbEntity
  8
s005-#def-solid-edge
  6
CONTINUOUS
 62
    7
420
    0
370
   40
100
AcDbLine
 10
59.99999999999999
 20
143
 11
60
 21
43.00000000000001
  0
LINE
  5
BE
100
AcDbEntity
  8
s005-#def-solid-edge
  6
CONTINUOUS
 62
    7
420
    0
370
   40
100
AcDbLine
 10
61.25
 20
28.6
 11
71.25
 21
28.6
  0
LINE
  5
BF
100
AcDbEntity
  8
s005-#def-solid-edge
  6
CONTINUOUS
 62
    7
420
    0
370
   40
100
AcDbLine
 10
71.25
 20
32.90000000000001
 11
61.25
 21
32.90000000000001
  0
LINE
  5
C0
100
AcDbEntity
  8
s005-#def-solid-edge
  6
CONTINUOUS
 62
    7
420
    0
370
   40
100
AcDbLine
 10
71.25
 20
157.4
 11
61.24999999999999
 21
157.4
  0
LINE
  5
C1
100
AcDbEntity
  8
s005-#def-solid-edge
  6
CONTINUOUS
 62
    7
420
    0
370
   40
100
AcDbLine
 10
61.24999999999999
 20
153.1
 11
71.25
 21
153.1
  0
LINE
  5
C2
100
AcDbEntity
  8
s005-#def-solid-edge
  6
CONTINUOUS
 62
    7
420
    0
370
   40
100
AcDbLine
 10
211.25
 20
32.90000000000001
 11
185.75
 21
32.90000000000001
  0
LINE
  5
C3
100
AcDbEntity
  8
s005-#def-solid-edge
  6
CONTINUOUS
 62
    7
420
    0
370
   40
100
AcDbLine
 10
185.75
 20
28.60000000000001
 11
211.25
 21
28.60000000000001
  0
LINE
  5
C4
100
AcDbEntity
  8
s005-#def-solid-edge
  6
CONTINUOUS
 62
    7
420
    0
370
   40
100
AcDbLine
 10
351.25
 20
32.89999999999999
 11
325.75
 21
32.89999999999999
  0
LINE
  5
C5
100
AcDbEntity
  8
s005-#def-solid-edge
  6
CONTINUOUS
 62
    7
420
    0
370
   40
100
AcDbLine
 10
325.75
 20
28.59999999999999
 11
351.25
 21
28.59999999999999
  0
LINE
  5
C6
100
AcDbEntity
  8
s005-#def-solid-edge
  6
CONTINUOUS
 62
    7
420
    0
370
   40
100
AcDbLine
 10
617
 20
42.99999999999994
 11
617
 21
142.9999999999999
  0
LINE
  5
C7
100
AcDbEntity
  8
s005-#def-solid-edge
  6
CONTINUOUS
 62
    7
420
    0
370
   40
100
AcDbLine
 10
491.25
 20
32.89999999999998
 11
465.75
 21
32.89999999999998
  0
LINE
  5
C8
100
AcDbEntity
  8
s005-#def-solid-edge
  6
CONTINUOUS
 62
    7
420
    0
370
   40
100
AcDbLine
 10
465.75
 20
28.59999999999998
 11
491.25
 21
28.59999999999998
  0
LINE
  5
C9
100
AcDbEntity
  8
s005-#def-solid-edge
  6
CONTINUOUS
 62
    7
420
    0
370
   40
100
AcDbLine
 10
465.75
 20
153.1
 11
491.25
 21
153.1
  0
LINE
  5
CA
100
AcDbEntity
  8
s005-#def-solid-edge
  6
CONTINUOUS
 62
    7
420
    0
370
   40
100
AcDbLine
 10
491.25
 20
157.3999999999999
 11
465.75
 21
157.3999999999999
  0
LINE
  5
CB
100
AcDbEntity
  8
s005-#def-solid-edge
  6
CONTINUOUS
 62
    7
420
    0
370
   40
100
AcDbLine
 10
325.75
 20
153.1
 11
351.25
 21
153.1
  0
LINE
  5
CC
100
AcDbEntity
  8
s005-#def-solid-edge
  6
CONTINUOUS
 62
    7
420
    0
370
   40
100
AcDbLine
 10
351.25
 20
157.4
 11
325.75
 21
157.4
  0
LINE
  5
CD
100
AcDbEntity
  8
s005-#def-solid-edge
  6
CONTINUOUS
 62
    7
420
    0
370
   40
100
AcDbLine
 10
185.75
 20
153.1
 11
211.25
 21
153.1
  0
LINE
  5
CE
100
AcDbEntity
  8
s005-#def-solid-edge
  6
CONTINUOUS
 62
    7
420
    0
370
   40
100
AcDbLine
 10
211.25
 20
157.4
 11
185.75
 21
157.4
  0
LINE
  5
CF
100
AcDbEntity
  8
s005-#def-solid-edge
  6
CONTINUOUS
 62
    7
420
    0
370
   40
100
AcDbLine
 10
615.75
 20
157.3999999999999
 11
605.75
 21
157.3999999999999
  0
LINE
  5
D0
100
AcDbEntity
  8
s005-#def-solid-edge
  6
CONTINUOUS
 62
    7
420
    0
370
   40
100
AcDbLine
 10
605.75
 20
153.0999999999999
 11
615.75
 21
153.0999999999999
  0
LINE
  5
D1
100
AcDbEntity
  8
s005-#def-solid-edge
  6
CONTINUOUS
 62
    7
420
    0
370
   40
100
AcDbLine
 10
605.75
 20
28.59999999999994
 11
615.75
 21
28.59999999999994
  0
LINE
  5
D2
100
AcDbEntity
  8
s005-#def-solid-edge
  6
CONTINUOUS
 62
    7
420
    0
370
   40
100
AcDbLine
 10
615.75
 20
32.89999999999995
 11
605.75
 21
32.89999999999995
  0
ARC
  5
D3
100
AcDbEntity
  8
s005-#def-solid-edge
  6
CONTINUOUS
 62
    7
420
    0
370
   40
100
AcDbCircle
 10
58.49999999999996
 20
163
 40
20.05617112013162
100
AcDbArc
 50
-85.71084667055091
 51
-4.289153328819091
  0
ARC
  5
D4
100
AcDbEntity
  8
s005-#def-solid-edge
  6
CONTINUOUS
 62
    7
420
    0
370
   40
100
AcDbCircle
 10
58.50000000000001
 20
23.00000000000002
 40
20.05617112013157
100
AcDbArc
 50
4.289153329448853
 51
85.710846671181
  0
ARC
  5
D5
100
AcDbEntity
  8
s005-#def-solid-edge
  6
CONTINUOUS
 62
    7
420
    0
370
   40
100
AcDbCircle
 10
185.75
 20
22.99999999999995
 40
15.50000000000001
100
AcDbArc
 50
90
 51
174.4465558032838
  0
ARC
  5
D6
100
AcDbEntity
  8
s005-#def-solid-edge
  6
CONTINUOUS
 62
    7
420
    0
370
   40
100
AcDbCircle
 10
185.7500000000001
 20
163
 40
15.5
100
AcDbArc
 50
-174.4465558043418
 51
-90.00000000105807
  0
ARC
  5
D7
100
AcDbEntity
  8
s005-#def-solid-edge
  6
CONTINUOUS
 62
    7
420
    0
370
   40
100
AcDbCircle
 10
61.25000000000001
 20
30.75000000000001
 40
2.150000000000006
100
AcDbArc
 50
-179.9999999999998
 51
-90.00000000259907
  0
ARC
  5
D8
100
AcDbEntity
  8
s005-#def-solid-edge
  6
CONTINUOUS
 62
    7
420
    0
370
   40
100
AcDbCircle
 10
71.25
 20
30.74999999999999
 40
2.149999999999988
100
AcDbArc
 50
-90
 51
-2.599451068554796e-09
  0
ARC
  5
D9
100
AcDbEntity
  8
s005-#def-solid-edge
  6
CONTINUOUS
 62
    7
420
    0
370
   40
100
AcDbCircle
 10
71.24999999999999
 20
30.75
 40
2.15000000000002
100
AcDbArc
 50
0
 51
89.99999999740092
  0
ARC
  5
DA
100
AcDbEntity
  8
s005-#def-solid-edge
  6
CONTINUOUS
 62
    7
420
    0
370
   40
100
AcDbCircle
 10
61.25
 20
30.75
 40
2.150000000000009
100
AcDbArc
 50
90
 51
179.9999999974009
  0
ARC
  5
DB
100
AcDbEntity
  8
s005-#def-solid-edge
  6
CONTINUOUS
 62
    7
420
    0
370
   40
100
AcDbCircle
 10
71.25000000000001
 20
155.25
 40
2.149999999999991
100
AcDbArc
 50
0
 51
89.99999999740282
  0
ARC
  5
DC
100
AcDbEntity
  8
s005-#def-solid-edge
  6
CONTINUOUS
 62
    7
420
    0
370
   40
100
AcDbCircle
 10
61.24999999999999
 20
155.25
 40
2.150000000000006
100
AcDbArc
 50
90
 51
179.9999999974013
  0
ARC
  5
DD
100
AcDbEntity
  8
s005-#def-solid-edge
  6
CONTINUOUS
 62
    7
420
    0
370
   40
100
AcDbCircle
 10
61.25000000000004
 20
155.25
 40
2.150000000000048
100
AcDbArc
 50
180
 51
-90.00000000260022
  0
ARC
  5
DE
100
AcDbEntity
  8
s005-#def-solid-edge
  6
CONTINUOUS
 62
    7
420
    0
370
   40
100
AcDbCircle
 10
71.25
 20
155.25
 40
2.150000000000006
100
AcDbArc
 50
-90
 51
-2.598693652742262e-09
  0
ARC
  5
DF
100
AcDbEntity
  8
s005-#def-solid-edge
  6
CONTINUOUS
 62
    7
420
    0
370
   40
100
AcDbCircle
 10
211.25
 20
163
 40
15.49999999999999
100
AcDbArc
 50
-90
 51
-5.55344419671628
  0
ARC
  5
E0
100
AcDbEntity
  8
s005-#def-solid-edge
  6
CONTINUOUS
 62
    7
420
    0
370
   40
100
AcDbCircle
 10
211.25
 20
23.00000000000004
 40
15.49999999999997
100
AcDbArc
 50
5.553444195658363
 51
89.99999999894277
  0
ARC
  5
E1
100
AcDbEntity
  8
s005-#def-solid-edge
  6
CONTINUOUS
 62
    7
420
    0
370
   40
100
AcDbCircle
 10
325.75
 20
22.99999999999997
 40
15.49999999999998
100
AcDbArc
 50
90
 51
174.446555803284
  0
ARC
  5
E2
100
AcDbEntity
  8
s005-#def-solid-edge
  6
CONTINUOUS
 62
    7
420
    0
370
   40
100
AcDbCircle
 10
325.7500000000001
 20
162.9999999999999
 40
15.49999999999997
100
AcDbArc
 50
-174.4465558043418
 51
-90.00000000105797
  0
ARC
  5
E3
100
AcDbEntity
  8
s005-#def-solid-edge
  6
CONTINUOUS
 62
    7
420
    0
370
   40
100
AcDbCircle
 10
211.25
 20
30.75
 40
2.150000000000006
100
AcDbArc
 50
2.598693652742262e-09
 51
90
  0
ARC
  5
E4
100
AcDbEntity
  8
s005-#def-solid-edge
  6
CONTINUOUS
 62
    7
420
    0
370
   40
100
AcDbCircle
 10
185.75
 20
30.74999999999998
 40
2.150000000000027
100
AcDbArc
 50
90.00000000260097
 51
179.9999999999993
  0
ARC
  5
E5
100
AcDbEntity
  8
s005-#def-solid-edge
  6
CONTINUOUS
 62
    7
420
    0
370
   40
100
AcDbCircle
 10
185.75
 20
30.75000000000005
 40
2.150000000000034
100
AcDbArc
 50
-179.999999997399
 51
-90
  0
ARC
  5
E6
100
AcDbEntity
  8
s005-#def-solid-edge
  6
CONTINUOUS
 62
    7
420
    0
370
   40
100
AcDbCircle
 10
211.25
 20
30.75000000000004
 40
2.150000000000023
100
AcDbArc
 50
-89.99999999740207
 51
-7.57415812515961e-13
  0
ARC
  5
E7
100
AcDbEntity
  8
s005-#def-solid-edge
  6
CONTINUOUS
 62
    7
420
    0
370
   40
100
AcDbCircle
 10
351.25
 20
163.0000000000001
 40
15.5
100
AcDbArc
 50
-90
 51
-5.553444196716595
  0
ARC
  5
E8
100
AcDbEntity
  8
s005-#def-solid-edge
  6
CONTINUOUS
 62
    7
420
    0
370
   40
100
AcDbCircle
 10
351.2499999999998
 20
23.0000000000001
 40
15.4999999999999
100
AcDbArc
 50
5.553444195658051
 51
89.99999999894224
  0
ARC
  5
E9
100
AcDbEntity
  8
s005-#def-solid-edge
  6
CONTINUOUS
 62
    7
420
    0
370
   40
100
AcDbCircle
 10
465.75
 20
22.9999999999999
 40
15.50000000000005
100
AcDbArc
 50
90
 51
174.4465558032837
  0
ARC
  5
EA
100
AcDbEntity
  8
s005-#def-solid-edge
  6
CONTINUOUS
 62
    7
420
    0
370
   40
100
AcDbCircle
 10
465.75
 20
162.9999999999999
 40
15.49999999999989
100
AcDbArc
 50
-174.4465558043419
 51
-90.00000000105776
  0
ARC
  5
EB
100
AcDbEntity
  8
s005-#def-solid-edge
  6
CONTINUOUS
 62
    7
420
    0
370
   40
100
AcDbCircle
 10
351.25
 20
30.75000000000003
 40
2.149999999999977
100
AcDbArc
 50
2.597936236929781e-09
 51
90
  0
ARC
  5
EC
100
AcDbEntity
  8
s005-#def-solid-edge
  6
CONTINUOUS
 62
    7
420
    0
370
   40
100
AcDbCircle
 10
325.75
 20
30.74999999999999
 40
2.149999999999999
100
AcDbArc
 50
90.00000000260097
 51
180
  0
ARC
  5
ED
100
AcDbEntity
  8
s005-#def-solid-edge
  6
CONTINUOUS
 62
    7
420
    0
370
   40
100
AcDbCircle
 10
325.75
 20
30.74999999999983
 40
2.149999999999864
100
AcDbArc
 50
-179.9999999974051
 51
-90
  0
ARC
  5
EE
100
AcDbEntity
  8
s005-#def-solid-edge
  6
CONTINUOUS
 62
    7
420
    0
370
   40
100
AcDbCircle
 10
351.25
 20
30.74999999999994
 40
2.149999999999938
100
AcDbArc
 50
-89.99999999740207
 51
1.514831625031942e-12
  0
ARC
  5
EF
100
AcDbEntity
  8
s005-#def-solid-edge
  6
CONTINUOUS
 62
    7
420
    0
370
   40
100
AcDbCircle
 10
618.4999999999999
 20
162.9999999999997
 40
20.05617112013131
100
AcDbArc
 50
-175.7108466705517
 51
-94.28915332881876
  0
ARC
  5
F0
100
AcDbEntity
  8
s005-#def-solid-edge
  6
CONTINUOUS
 62
    7
420
    0
370
   40
100
AcDbCircle
 10
491.25
 20
162.9999999999999
 40
15.49999999999998
100
AcDbArc
 50
-90
 51
-5.553444196716072
  0
ARC
  5
F1
100
AcDbEntity
  8
s005-#def-solid-edge
  6
CONTINUOUS
 62
    7
420
    0
370
   40
100
AcDbCircle
 10
491.25
 20
23.0000000000001
 40
15.49999999999988
100
AcDbArc
 50
5.55344419565806
 51
89.99999999894247
  0
ARC
  5
F2
100
AcDbEntity
  8
s005-#def-solid-edge
  6
CONTINUOUS
 62
    7
420
    0
370
   40
100
AcDbCircle
 10
618.5
 20
22.99999999999986
 40
20.05617112013158
100
AcDbArc
 50
94.28915332944857
 51
175.7108466711807
  0
ARC
  5
F3
100
AcDbEntity
  8
s005-#def-solid-edge
  6
CONTINUOUS
 62
    7
420
    0
370
   40
100
AcDbCircle
 10
491.25
 20
30.74999999999993
 40
2.149999999999977
100
AcDbArc
 50
2.599451068554813e-09
 51
90
  0
ARC
  5
F4
100
AcDbEntity
  8
s005-#def-solid-edge
  6
CONTINUOUS
 62
    7
420
    0
370
   40
100
AcDbCircle
 10
465.7500000000001
 20
30.75000000000004
 40
2.149999999999949
100
AcDbArc
 50
90.00000000259945
 51
-179.9999999999985
  0
ARC
  5
F5
100
AcDbEntity
  8
s005-#def-solid-edge
  6
CONTINUOUS
 62
    7
420
    0
370
   40
100
AcDbCircle
 10
465.75
 20
30.75000000000002
 40
2.149999999999977
100
AcDbArc
 50
-179.999999997399
 51
-90
  0
ARC
  5
F6
100
AcDbEntity
  8
s005-#def-solid-edge
  6
CONTINUOUS
 62
    7
420
    0
370
   40
100
AcDbCircle
 10
491.2499999999999
 20
30.74999999999998
 40
2.149999999999999
100
AcDbArc
 50
-89.99999999740056
 51
0
  0
ARC
  5
F7
100
AcDbEntity
  8
s005-#def-solid-edge
  6
CONTINUOUS
 62
    7
420
    0
370
   40
100
AcDbCircle
 10
465.75
 20
155.2500000000001
 40
2.150000000000091
100
AcDbArc
 50
-179.9999999973975
 51
-90
  0
ARC
  5
F8
100
AcDbEntity
  8
s005-#def-solid-edge
  6
CONTINUOUS
 62
    7
420
    0
370
   40
100
AcDbCircle
 10
491.2499999999999
 20
155.2499999999999
 40
2.150000000000006
100
AcDbArc
 50
-89.99999999739903
 51
0
  0
ARC
  5
F9
100
AcDbEntity
  8
s005-#def-solid-edge
  6
CONTINUOUS
 62
    7
420
    0
370
   40
100
AcDbCircle
 10
491.25
 20
155.2499999999999
 40
2.150000000000034
100
AcDbArc
 50
2.600965900179776e-09
 51
90
  0
ARC
  5
FA
100
AcDbEntity
  8
s005-#def-solid-edge
  6
CONTINUOUS
 62
    7
420
    0
370
   40
100
AcDbCircle
 10
465.7500000000001
 20
155.25
 40
2.149999999999892
100
AcDbArc
 50
90.00000000260097
 51
-179.9999999999985
  0
ARC
  5
FB
100
AcDbEntity
  8
s005-#def-solid-edge
  6
CONTINUOUS
 62
    7
420
    0
370
   40
100
AcDbCircle
 10
325.75
 20
155.25
 40
2.149999999999977
100
AcDbArc
 50
-179.9999999974021
 51
-90
  0
ARC
  5
FC
100
AcDbEntity
  8
s005-#def-solid-edge
  6
CONTINUOUS
 62
    7
420
    0
370
   40
100
AcDbCircle
 10
351.25
 20
155.25
 40
2.150000000000006
100
AcDbArc
 50
-89.99999999740207
 51
0
  0
ARC
  5
FD
100
AcDbEntity
  8
s005-#def-solid-edge
  6
CONTINUOUS
 62
    7
420
    0
370
   40
100
AcDbCircle
 10
351.25
 20
155.2500000000001
 40
2.14999999999992
100
AcDbArc
 50
2.596421405304818e-09
 51
90
  0
ARC
  5
FE
100
AcDbEntity
  8
s005-#def-solid-edge
  6
CONTINUOUS
 62
    7
420
    0
370
   40
100
AcDbCircle
 10
325.75
 20
155.25
 40
2.149999999999949
100
AcDbArc
 50
90.00000000260097
 51
180
  0
ARC
  5
FF
100
AcDbEntity
  8
s005-#def-solid-edge
  6
CONTINUOUS
 62
    7
420
    0
370
   40
100
AcDbCircle
 10
185.75
 20
155.25
 40
2.149999999999949
100
AcDbArc
 50
-179.9999999974028
 51
-90
  0
ARC
  5
100
100
AcDbEntity
  8
s005-#def-solid-edge
  6
CONTINUOUS
 62
    7
420
    0
370
   40
100
AcDbCircle
 10
211.25
 20
155.25
 40
2.150000000000006
100
AcDbArc
 50
-89.99999999740056
 51
7.57415812515961e-13
  0
ARC
  5
101
100
AcDbEntity
  8
s005-#def-solid-edge
  6
CONTINUOUS
 62
    7
420
    0
370
   40
100
AcDbCircle
 10
211.25
 20
155.2500000000001
 40
2.149999999999977
100
AcDbArc
 50
2.597936236929781e-09
 51
90
  0
ARC
  5
102
100
AcDbEntity
  8
s005-#def-solid-edge
  6
CONTINUOUS
 62
    7
420
    0
370
   40
100
AcDbCircle
 10
185.7500000000001
 20
155.2500000000001
 40
2.150000000000034
100
AcDbArc
 50
90.00000000260174
 51
-179.9999999999993
  0
ARC
  5
103
100
AcDbEntity
  8
s005-#def-solid-edge
  6
CONTINUOUS
 62
    7
420
    0
370
   40
100
AcDbCircle
 10
615.7500000000002
 20
155.2499999999999
 40
2.14999999999975
100
AcDbArc
 50
0
 51
89.99999999740056
  0
ARC
  5
104
100
AcDbEntity
  8
s005-#def-solid-edge
  6
CONTINUOUS
 62
    7
420
    0
370
   40
100
AcDbCircle
 10
605.75
 20
155.2500000000001
 40
2.149999999999864
100
AcDbArc
 50
90
 51
179.9999999974036
  0
ARC
  5
105
100
AcDbEntity
  8
s005-#def-solid-edge
  6
CONTINUOUS
 62
    7
420
    0
370
   40
100
AcDbCircle
 10
605.7499999999999
 20
155.2499999999999
 40
2.149999999999864
100
AcDbArc
 50
180
 51
-90.00000000260248
  0
ARC
  5
106
100
AcDbEntity
  8
s005-#def-solid-edge
  6
CONTINUOUS
 62
    7
420
    0
370
   40
100
AcDbCircle
 10
615.75
 20
155.2499999999999
 40
2.150000000000006
100
AcDbArc
 50
-90
 51
-2.599451068554813e-09
  0
ARC
  5
107
100
AcDbEntity
  8
s005-#def-solid-edge
  6
CONTINUOUS
 62
    7
420
    0
370
   40
100
AcDbCircle
 10
605.7499999999999
 20
30.74999999999994
 40
2.149999999999864
100
AcDbArc
 50
180
 51
-90.00000000259642
  0
ARC
  5
108
100
AcDbEntity
  8
s005-#def-solid-edge
  6
CONTINUOUS
 62
    7
420
    0
370
   40
100
AcDbCircle
 10
615.75
 20
30.75000000000005
 40
2.150000000000112
100
AcDbArc
 50
-90
 51
-2.602480731804739e-09
  0
ARC
  5
109
100
AcDbEntity
  8
s005-#def-solid-edge
  6
CONTINUOUS
 62
    7
420
    0
370
   40
100
AcDbCircle
 10
615.7499999999999
 20
30.74999999999994
 40
2.150000000000091
100
AcDbArc
 50
0
 51
89.99999999740359
  0
ARC
  5
10A
100
AcDbEntity
  8
s005-#def-solid-edge
  6
CONTINUOUS
 62
    7
420
    0
370
   40
100
AcDbCircle
 10
605.75
 20
30.75000000000014
 40
2.149999999999814
100
AcDbArc
 50
90
 51
179.9999999974066
  0
ARC
  5
10B
100
AcDbEntity
  8
s005-#def-solid-edge
  6
CONTINUOUS
 62
    7
420
    0
370
   40
100
AcDbCircle
 10
160.5
 20
327.5000000000001
 40
20.05617112013152
100
AcDbArc
 50
-175.7108466705509
 51
-94.28915332881887
  0
ARC
  5
10C
100
AcDbEntity
  8
s005-#def-solid-edge
  6
CONTINUOUS
 62
    7
420
    0
370
   40
100
AcDbCircle
 10
20.50000000000024
 20
327.5000000000001
 40
20.05617112013141
100
AcDbArc
 50
-85.71084667055148
 51
-4.289153328819055
  0
ARC
  5
10D
100
AcDbEntity
  8
s005-#def-solid-edge
  6
CONTINUOUS
 62
    7
420
    0
370
   40
100
AcDbCircle
 10
20.50000000000003
 20
187.5000000000001
 40
20.05617112013155
100
AcDbArc
 50
4.289153329448978
 51
85.71084667118093
  0
ARC
  5
10E
100
AcDbEntity
  8
s005-#def-solid-edge
  6
CONTINUOUS
 62
    7
420
    0
370
   40
100
AcDbCircle
 10
160.5000000000001
 20
187.5000000000001
 40
20.05617112013164
100
AcDbArc
 50
94.28915332944908
 51
175.710846671181
  0
ARC
  5
10F
100
AcDbEntity
  8
s005-#def-solid-edge
  6
CONTINUOUS
 62
    7
420
    0
370
   40
100
AcDbCircle
 10
8
 20
7.000000000000001
 40
1.6
100
AcDbArc
 50
-90
 51
-2.599530952253762e-09
  0
ARC
  5
110
100
AcDbEntity
  8
s005-#def-solid-edge
  6
CONTINUOUS
 62
    7
420
    0
370
   40
100
AcDbCircle
 10
8
 20
7
 40
1.6
100
AcDbArc
 50
180
 51
-90.00000000259908
  0
ARC
  5
111
100
AcDbEntity
  8
s005-#def-solid-edge
  6
CONTINUOUS
 62
    7
420
    0
370
   40
100
AcDbCircle
 10
7.999999999999998
 20
6.999999999999997
 40
1.6
100
AcDbArc
 50
89.99999999999993
 51
179.9999999974013
  0
ARC
  5
112
100
AcDbEntity
  8
s005-#def-solid-edge
  6
CONTINUOUS
 62
    7
420
    0
370
   40
100
AcDbCircle
 10
8
 20
7
 40
1.6
100
AcDbArc
 50
0
 51
89.99999999740092
  0
ARC
  5
113
100
AcDbEntity
  8
s005-#def-solid-edge
  6
CONTINUOUS
 62
    7
420
    0
370
   40
100
AcDbCircle
 10
8
 20
15
 40
1.6
100
AcDbArc
 50
-90
 51
-2.598640396942952e-09
  0
ARC
  5
114
100
AcDbEntity
  8
s005-#def-solid-edge
  6
CONTINUOUS
 62
    7
420
    0
370
   40
100
AcDbCircle
 10
8.000000000000002
 20
15
 40
1.6
100
AcDbArc
 50
180
 51
-90.00000000259915
  0
ARC
  5
115
100
AcDbEntity
  8
s005-#def-solid-edge
  6
CONTINUOUS
 62
    7
420
    0
370
   40
100
AcDbCircle
 10
8
 20
15
 40
1.6
100
AcDbArc
 50
90
 51
179.9999999974004
  0
ARC
  5
116
100
AcDbEntity
  8
s005-#def-solid-edge
  6
CONTINUOUS
 62
    7
420
    0
370
   40
100
AcDbCircle
 10
8.000000000000009
 20
15
 40
1.599999999999994
100
AcDbArc
 50
0
 51
89.99999999740123
  0
ARC
  5
117
100
AcDbEntity
  8
s005-#def-solid-edge
  6
CONTINUOUS
 62
    7
420
    0
370
   40
100
AcDbCircle
 10
8
 20
166
 40
1.6
100
AcDbArc
 50
-90
 51
-2.597368175070367e-09
  0
ARC
  5
118
100
AcDbEntity
  8
s005-#def-solid-edge
  6
CONTINUOUS
 62
    7
420
    0
370
   40
100
AcDbCircle
 10
7.999999999999982
 20
166
 40
1.599999999999994
100
AcDbArc
 50
180
 51
-90.00000000259838
  0
ARC
  5
119
100
AcDbEntity
  8
s005-#def-solid-edge
  6
CONTINUOUS
 62
    7
420
    0
370
   40
100
AcDbCircle
 10
8
 20
166
 40
1.600000000000001
100
AcDbArc
 50
90
 51
179.9999999974026
  0
ARC
  5
11A
100
AcDbEntity
  8
s005-#def-solid-edge
  6
CONTINUOUS
 62
    7
420
    0
370
   40
100
AcDbCircle
 10
7.999999999999989
 20
166
 40
1.599999999999994
100
AcDbArc
 50
0
 51
89.99999999740059
  0
ARC
  5
11B
100
AcDbEntity
  8
s005-#def-solid-edge
  6
CONTINUOUS
 62
    7
420
    0
370
   40
100
AcDbCircle
 10
8
 20
339.9999999999999
 40
1.599999999999998
100
AcDbArc
 50
-90
 51
-2.599403730066506e-09
  0
ARC
  5
11C
100
AcDbEntity
  8
s005-#def-solid-edge
  6
CONTINUOUS
 62
    7
420
    0
370
   40
100
AcDbCircle
 10
8.000000000000123
 20
340
 40
1.600000000000136
100
AcDbArc
 50
180
 51
-90.00000000260347
  0
ARC
  5
11D
100
AcDbEntity
  8
s005-#def-solid-edge
  6
CONTINUOUS
 62
    7
420
    0
370
   40
100
AcDbCircle
 10
8
 20
340.0000000000001
 40
1.599999999999998
100
AcDbArc
 50
90
 51
179.9999999973986
  0
ARC
  5
11E
100
AcDbEntity
  8
s005-#def-solid-edge
  6
CONTINUOUS
 62
    7
420
    0
370
   40
100
AcDbCircle
 10
8.000000000000048
 20
340
 40
1.599999999999966
100
AcDbArc
 50
0
 51
89.99999999740263
  0
ARC
  5
11F
100
AcDbEntity
  8
s005-#def-solid-edge
  6
CONTINUOUS
 62
    7
420
    0
370
   40
100
AcDbCircle
 10
350.25
 20
339.9999999999999
 40
1.599999999999966
100
AcDbArc
 50
-90
 51
-2.597368175070422e-09
  0
ARC
  5
120
100
AcDbEntity
  8
s005-#def-solid-edge
  6
CONTINUOUS
 62
    7
420
    0
370
   40
100
AcDbCircle
 10
350.2500000000001
 20
340
 40
1.600000000000023
100
AcDbArc
 50
180
 51
-90.00000000259941
  0
ARC
  5
121
100
AcDbEntity
  8
s005-#def-solid-edge
  6
CONTINUOUS
 62
    7
420
    0
370
   40
100
AcDbCircle
 10
350.2499999999999
 20
339.9999999999999
 40
1.600000000000023
100
AcDbArc
 50
89.99999999999797
 51
179.9999999974006
  0
ARC
  5
122
100
AcDbEntity
  8
s005-#def-solid-edge
  6
CONTINUOUS
 62
    7
420
    0
370
   40
100
AcDbCircle
 10
350.2500000000001
 20
340
 40
1.599999999999966
100
AcDbArc
 50
0
 51
89.99999999740263
  0
ARC
  5
123
100
AcDbEntity
  8
s005-#def-solid-edge
  6
CONTINUOUS
 62
    7
420
    0
370
   40
100
AcDbCircle
 10
692.5
 20
339.9999999999999
 40
1.600000000000023
100
AcDbArc
 50
-90
 51
-2.597368175070329e-09
  0
ARC
  5
124
100
AcDbEntity
  8
s005-#def-solid-edge
  6
CONTINUOUS
 62
    7
420
    0
370
   40
100
AcDbCircle
 10
692.5
 20
340
 40
1.600000000000023
100
AcDbArc
 50
180
 51
-90.0000000025933
  0
ARC
  5
125
100
AcDbEntity
  8
s005-#def-solid-edge
  6
CONTINUOUS
 62
    7
420
    0
370
   40
100
AcDbCircle
 10
692.5
 20
339.9999999999999
 40
1.600000000000023
100
AcDbArc
 50
90
 51
179.9999999973986
  0
ARC
  5
126
100
AcDbEntity
  8
s005-#def-solid-edge
  6
CONTINUOUS
 62
    7
420
    0
370
   40
100
AcDbCircle
 10
692.5
 20
339.9999999999999
 40
1.60000000000025
100
AcDbArc
 50
4.071109992273243e-12
 51
89.99999999739856
  0
ARC
  5
127
100
AcDbEntity
  8
s005-#def-solid-edge
  6
CONTINUOUS
 62
    7
420
    0
370
   40
100
AcDbCircle
 10
689
 20
165.9999999999999
 40
1.599999999999909
100
AcDbArc
 50
-90
 51
-2.597368175070514e-09
  0
ARC
  5
128
100
AcDbEntity
  8
s005-#def-solid-edge
  6
CONTINUOUS
 62
    7
420
    0
370
   40
100
AcDbCircle
 10
689.0000000000001
 20
166
 40
1.599999999999966
100
AcDbArc
 50
180
 51
-90.00000000259737
  0
ARC
  5
129
100
AcDbEntity
  8
s005-#def-solid-edge
  6
CONTINUOUS
 62
    7
420
    0
370
   40
100
AcDbCircle
 10
689
 20
165.9999999999999
 40
1.600000000000023
100
AcDbArc
 50
90
 51
179.9999999973986
  0
ARC
  5
12A
100
AcDbEntity
  8
s005-#def-solid-edge
  6
CONTINUOUS
 62
    7
420
    0
370
   40
100
AcDbCircle
 10
689.0000000000001
 20
166
 40
1.600000000000023
100
AcDbArc
 50
0
 51
89.99999999739856
  0
ARC
  5
12B
100
AcDbEntity
  8
s005-#def-solid-edge
  6
CONTINUOUS
 62
    7
420
    0
370
   40
100
AcDbCircle
 10
689
 20
14.99999999999997
 40
1.600000000000023
100
AcDbArc
 50
-90
 51
-2.597368175070329e-09
  0
ARC
  5
12C
100
AcDbEntity
  8
s005-#def-solid-edge
  6
CONTINUOUS
 62
    7
420
    0
370
   40
100
AcDbCircle
 10
689.0000000000001
 20
15
 40
1.6
100
AcDbArc
 50
180
 51
-90.00000000259737
  0
ARC
  5
12D
100
AcDbEntity
  8
s005-#def-solid-edge
  6
CONTINUOUS
 62
    7
420
    0
370
   40
100
AcDbCircle
 10
689
 20
15.00000000000006
 40
1.600000000000023
100
AcDbArc
 50
90
 51
179.9999999974026
  0
ARC
  5
12E
100
AcDbEntity
  8
s005-#def-solid-edge
  6
CONTINUOUS
 62
    7
420
    0
370
   40
100
AcDbCircle
 10
689.0000000000001
 20
15
 40
1.600000000000001
100
AcDbArc
 50
0
 51
89.99999999739856
  0
ARC
  5
12F
100
AcDbEntity
  8
s005-#def-solid-edge
  6
CONTINUOUS
 62
    7
420
    0
370
   40
100
AcDbCircle
 10
689
 20
7.000000000000047
 40
1.600000000000023
100
AcDbArc
 50
-90
 51
-2.601439285062603e-09
  0
ARC
  5
130
100
AcDbEntity
  8
s005-#def-solid-edge
  6
CONTINUOUS
 62
    7
420
    0
370
   40
100
AcDbCircle
 10
689.0000000000002
 20
7
 40
1.599999999999999
100
AcDbArc
 50
180
 51
-90.00000000259737
  0
ARC
  5
131
100
AcDbEntity
  8
s005-#def-solid-edge
  6
CONTINUOUS
 62
    7
420
    0
370
   40
100
AcDbCircle
 10
689
 20
7.000000000000035
 40
1.599999999999909
100
AcDbArc
 50
90
 51
179.9999999974026
  0
ARC
  5
132
100
AcDbEntity
  8
s005-#def-solid-edge
  6
CONTINUOUS
 62
    7
420
    0
370
   40
100
AcDbCircle
 10
689.0000000000001
 20
7
 40
1.600000000000003
100
AcDbArc
 50
0
 51
89.99999999739856
  0
ARC
  5
133
100
AcDbEntity
  8
s005-#def-solid-edge
  6
CONTINUOUS
 62
    7
420
    0
370
   40
100
AcDbCircle
 10
348.5
 20
7.000000000000054
 40
1.600000000000023
100
AcDbArc
 50
-90
 51
-2.601439285062603e-09
  0
ARC
  5
134
100
AcDbEntity
  8
s005-#def-solid-edge
  6
CONTINUOUS
 62
    7
420
    0
370
   40
100
AcDbCircle
 10
348.5
 20
6.999999999999943
 40
1.599999999999943
100
AcDbArc
 50
179.999999999998
 51
-90.00000000259941
  0
ARC
  5
135
100
AcDbEntity
  8
s005-#def-solid-edge
  6
CONTINUOUS
 62
    7
420
    0
370
   40
100
AcDbCircle
 10
348.5
 20
6.999999999999974
 40
1.600000000000023
100
AcDbArc
 50
90
 51
179.9999999974006
  0
ARC
  5
136
100
AcDbEntity
  8
s005-#def-solid-edge
  6
CONTINUOUS
 62
    7
420
    0
370
   40
100
AcDbCircle
 10
348.5000000000001
 20
6.999999999999943
 40
1.600000000000056
100
AcDbArc
 50
2.035554996136694e-12
 51
89.99999999740263
  0
ARC
  5
137
100
AcDbEntity
  8
s005-#def-solid-edge
  6
CONTINUOUS
 62
    7
420
    0
370
   40
100
AcDbCircle
 10
648.5
 20
339.0499999999998
 40
1.599999999999909
100
AcDbArc
 50
-90
 51
-2.59329706507824e-09
  0
ARC
  5
138
100
AcDbEntity
  8
s005-#def-solid-edge
  6
CONTINUOUS
 62
    7
420
    0
370
   40
100
AcDbCircle
 10
648.4999999999998
 20
339.05
 40
1.600000000000023
100
AcDbArc
 50
180
 51
-90.00000000260144
  0
ARC
  5
139
100
AcDbEntity
  8
s005-#def-solid-edge
  6
CONTINUOUS
 62
    7
420
    0
370
   40
100
AcDbCircle
 10
648.5
 20
339.0500000000002
 40
1.599999999999795
100
AcDbArc
 50
90
 51
179.9999999974108
  0
ARC
  5
13A
100
AcDbEntity
  8
s005-#def-solid-edge
  6
CONTINUOUS
 62
    7
420
    0
370
   40
100
AcDbCircle
 10
648.5
 20
339.0500000000001
 40
1.599999999999852
100
AcDbArc
 50
-4.071109992273243e-12
 51
89.99999999739856
  0
ARC
  5
13B
100
AcDbEntity
  8
s005-#def-solid-edge
  6
CONTINUOUS
 62
    7
420
    0
370
   40
100
AcDbCircle
 10
453.3
 20
339.05
 40
1.600000000000023
100
AcDbArc
 50
-90
 51
-2.599403730066466e-09
  0
ARC
  5
13C
100
AcDbEntity
  8
s005-#def-solid-edge
  6
CONTINUOUS
 62
    7
420
    0
370
   40
100
AcDbCircle
 10
453.3
 20
339.05
 40
1.60000000000008
100
AcDbArc
 50
-179.999999999998
 51
-90.00000000259737
  0
ARC
  5
13D
100
AcDbEntity
  8
s005-#def-solid-edge
  6
CONTINUOUS
 62
    7
420
    0
370
   40
100
AcDbCircle
 10
453.3
 20
339.05
 40
1.599999999999966
100
AcDbArc
 50
90
 51
179.9999999974067
  0
ARC
  5
13E
100
AcDbEntity
  8
s005-#def-solid-edge
  6
CONTINUOUS
 62
    7
420
    0
370
   40
100
AcDbCircle
 10
453.3000000000001
 20
339.05
 40
1.599999999999966
100
AcDbArc
 50
0
 51
89.99999999740263
  0
ARC
  5
13F
100
AcDbEntity
  8
s005-#def-solid-edge
  6
CONTINUOUS
 62
    7
420
    0
370
   40
100
AcDbCircle
 10
696.5
 20
175.5
 40
1.999999999999886
100
AcDbArc
 50
90
 51
179.999999997401
  0
ARC
  5
140
100
AcDbEntity
  8
s005-#def-solid-edge
  6
CONTINUOUS
 62
    7
420
    0
370
   40
100
AcDbCircle
 10
696.5000000000001
 20
175.4999999999999
 40
2.000000000000114
100
AcDbArc
 50
3.256887993818826e-12
 51
89.99999999739775
  0
ARC
  5
141
100
AcDbEntity
  8
s005-#def-solid-edge
  6
CONTINUOUS
 62
    7
420
    0
370
   40
100
AcDbCircle
 10
696.5
 20
175.5000000000001
 40
2
100
AcDbArc
 50
-90
 51
-2.598996619067276e-09
  0
ARC
  5
142
100
AcDbEntity
  8
s005-#def-solid-edge
  6
CONTINUOUS
 62
    7
420
    0
370
   40
100
AcDbCircle
 10
696.4999999999999
 20
175.5000000000001
 40
2.000000000000114
100
AcDbArc
 50
-179.9999999999967
 51
-90.00000000259574
  0
ARC
  5
143
100
AcDbEntity
  8
s005-#def-solid-edge
  6
CONTINUOUS
 62
    7
420
    0
370
   40
100
AcDbCircle
 10
185.5000000000002
 20
257.5000000000001
 40
2.049999999999869
100
AcDbArc
 50
-89.99999999740403
 51
0
  0
ARC
  5
144
100
AcDbEntity
  8
s005-#def-solid-edge
  6
CONTINUOUS
 62
    7
420
    0
370
   40
100
AcDbCircle
 10
185.5
 20
257.5000000000001
 40
2.050000000000011
100
AcDbArc
 50
-179.9999999974009
 51
-89.9999999999992
  0
ARC
  5
145
100
AcDbEntity
  8
s005-#def-solid-edge
  6
CONTINUOUS
 62
    7
420
    0
370
   40
100
AcDbCircle
 10
185.5000000000001
 20
257.5000000000002
 40
2.05000000000004
100
AcDbArc
 50
90.00000000259917
 51
-179.9999999999984
  0
ARC
  5
146
100
AcDbEntity
  8
s005-#def-solid-edge
  6
CONTINUOUS
 62
    7
420
    0
370
   40
100
AcDbCircle
 10
185.5000000000001
 20
257.5000000000001
 40
2.050000000000011
100
AcDbArc
 50
2.597566765801718e-09
 51
90
  0
ARC
  5
147
100
AcDbEntity
  8
s005-#def-solid-edge
  6
CONTINUOUS
 62
    7
420
    0
370
   40
100
AcDbCircle
 10
600
 20
257.5
 40
2.049999999999955
100
AcDbArc
 50
-89.99999999740403
 51
0
  0
ARC
  5
148
100
AcDbEntity
  8
s005-#def-solid-edge
  6
CONTINUOUS
 62
    7
420
    0
370
   40
100
AcDbCircle
 10
600
 20
257.4999999999999
 40
2.049999999999898
100
AcDbArc
 50
-179.999999997404
 51
-90
  0
ARC
  5
149
100
AcDbEntity
  8
s005-#def-solid-edge
  6
CONTINUOUS
 62
    7
420
    0
370
   40
100
AcDbCircle
 10
599.9999999999999
 20
257.5
 40
2.049999999999841
100
AcDbArc
 50
90.00000000259598
 51
180
  0
ARC
  5
14A
100
AcDbEntity
  8
s005-#def-solid-edge
  6
CONTINUOUS
 62
    7
420
    0
370
   40
100
AcDbCircle
 10
600
 20
257.4999999999999
 40
2.050000000000068
100
AcDbArc
 50
2.60233294335354e-09
 51
90
  0
ARC
  5
14B
100
AcDbEntity
  8
s005-#def-solid-edge
  6
CONTINUOUS
 62
    7
420
    0
370
   40
100
AcDbCircle
 10
674.9999999999997
 20
89.49999999999972
 40
2.050000000000182
100
AcDbArc
 50
-89.99999999739767
 51
3.177451701286197e-12
  0
ARC
  5
14C
100
AcDbEntity
  8
s005-#def-solid-edge
  6
CONTINUOUS
 62
    7
420
    0
370
   40
100
AcDbCircle
 10
674.9999999999999
 20
89.49999999999972
 40
2.049999999999883
100
AcDbArc
 50
-179.999999997404
 51
-90
  0
ARC
  5
14D
100
AcDbEntity
  8
s005-#def-solid-edge
  6
CONTINUOUS
 62
    7
420
    0
370
   40
100
AcDbCircle
 10
674.9999999999998
 20
89.49999999999983
 40
2.049999999999841
100
AcDbArc
 50
90.00000000259598
 51
180
  0
ARC
  5
14E
100
AcDbEntity
  8
s005-#def-solid-edge
  6
CONTINUOUS
 62
    7
420
    0
370
   40
100
AcDbCircle
 10
674.9999999999999
 20
89.49999999999994
 40
2.049999999999883
100
AcDbArc
 50
2.595978039951111e-09
 51
90
  0
ARC
  5
14F
100
AcDbEntity
  8
s005-#def-solid-edge
  6
CONTINUOUS
 62
    7
420
    0
370
   40
100
AcDbCircle
 10
25.00000000000004
 20
89.5
 40
2.049999999999983
100
AcDbArc
 50
-89.99999999740125
 51
0
  0
ARC
  5
150
100
AcDbEntity
  8
s005-#def-solid-edge
  6
CONTINUOUS
 62
    7
420
    0
370
   40
100
AcDbCircle
 10
25.00000000000002
 20
89.50000000000001
 40
2.050000000000011
100
AcDbArc
 50
-179.9999999974009
 51
-90
  0
ARC
  5
151
100
AcDbEntity
  8
s005-#def-solid-edge
  6
CONTINUOUS
 62
    7
420
    0
370
   40
100
AcDbCircle
 10
25.00000000000001
 20
89.5
 40
2.049999999999986
100
AcDbArc
 50
90.00000000259836
 51
180
  0
ARC
  5
152
100
AcDbEntity
  8
s005-#def-solid-edge
  6
CONTINUOUS
 62
    7
420
    0
370
   40
100
AcDbCircle
 10
25.00000000000002
 20
89.5
 40
2.049999999999997
100
AcDbArc
 50
2.598758310189683e-09
 51
90
  0
ENDSEC
  0
SECTION
  2
OBJECTS
  0
DICTIONARY
  5
C
330
0
100
AcDbDictionary
281
    1
  3
ACAD_GROUP
350
D
  0
DICTIONARY
  5
D
330
C
100
AcDbDictionary
281
    1
  0
ENDSEC
  0
EOF
