0
SECTION
2
HEADER
9
$INSUNITS
70
4
9
$ACADVER
1
AC1014
9
$HANDSEED
5
FFFF
0
ENDSEC
0
SECTION
2
TABLES
0
TABLE
2
VPORT
5
8
100
AcDbSymbolTable
0
ENDTAB
0
TABLE
2
LTYPE
5
5
100
AcDbSymbolTable
0
LTYPE
5
14
100
AcDbSymbolTableRecord
100
AcDbLinetypeTableRecord
2
BYBLOCK
70
0
0
LTYPE
5
15
100
AcDbSymbolTableRecord
100
AcDbLinetypeTableRecord
2
BYLAYER
70
0
0
ENDTAB
0
TABLE
2
LAYER
5
2
100
AcDbSymbolTable
70
2
0
LAYER
5
50
100
AcDbSymbolTableRecord
100
AcDbLayerTableRecord
2
0
70
0
6
CONTINUOUS
0
ENDTAB
0
TABLE
2
STYLE
5
3
100
AcDbSymbolTable
70
1
0
STYLE
5
11
100
AcDbSymbolTableRecord
100
AcDbTextStyleTableRecord
2
STANDARD
70
0
0
ENDTAB
0
TABLE
2
VIEW
5
6
100
AcDbSymbolTable
70
0
0
ENDTAB
0
TABLE
2
UCS
5
7
100
AcDbSymbolTable
70
0
0
ENDTAB
0
TABLE
2
APPID
5
9
100
AcDbSymbolTable
70
2
0
APPID
5
12
100
AcDbSymbolTableRecord
100
AcDbRegAppTableRecord
2
ACAD
70
0
0
ENDTAB
0
TABLE
2
DIMSTYLE
5
A
100
AcDbSymbolTable
70
1
0
ENDTAB
0
TABLE
2
BLOCK_RECORD
5
1
100
AcDbSymbolTable
70
1
0
BLOCK_RECORD
5
1F
100
AcDbSymbolTableRecord
100
AcDbBlockTableRecord
2
*MODEL_SPACE
0
BLOCK_RECORD
5
1B
100
AcDbSymbolTableRecord
100
AcDbBlockTableRecord
2
*PAPER_SPACE
0
ENDTAB
0
ENDSEC
0
SECTION
2
BLOCKS
0
BLOCK
5
20
100
AcDbEntity
100
AcDbBlockBegin
2
*MODEL_SPACE
0
ENDBLK
5
21
100
AcDbEntity
100
AcDbBlockEnd
0
BLOCK
5
1C
100
AcDbEntity
100
AcDbBlockBegin
2
*PAPER_SPACE
0
ENDBLK
5
1D
100
AcDbEntity
100
AcDbBlockEnd
0
ENDSEC
0
SECTION
2
ENTITIES
0
LWPOLYLINE
5
100
100
AcDbEntity
8
OUTER_PROFILES
100
AcDbPolyline
90
10
70
1
43
0.0
10
-9.927487685244941
20
106.51327412287182
10
6.5857864376269113
20
106.51327412287182
10
6.5857864376269148
20
16.513274122871824
10
157.58578643762692
20
16.513274122871824
10
157.58578643762692
20
0
10
0
20
0
10
-3.5874081483200371e-14
20
9.5132741228718309
10
-0.41421356237311391
20
9.5132741228718309
10
-0.41421356237307805
20
9.9274876852449623
10
-9.9274876852449374
20
9.927487685244909
0
CIRCLE
5
101
100
AcDbEntity
8
INTERIOR_PROFILES
100
AcDbCircle
10
-5.9274876852449419
20
102.51327412287183
30
0
40
1.25
0
SPLINE
5
102
100
AcDbEntity
8
INTERIOR_PROFILES
100
AcDbSpline
70
1064
71
3
72
11
73
7
74
0
42
0.000000001
43
0.0000000001
44
0.0000000001
40
0
40
0
40
0
40
0
40
0.59448157721029127
40
0.59448157721029127
40
0.59448157721029127
40
1
40
1
40
1
40
1
10
2.5857864377268984
20
101.26327412287182
30
0
10
2.936088066485421
20
101.26327412289984
30
0
10
3.356385560361868
20
101.44788057624665
30
0
10
3.5964284253931882
20
101.77767724104487
30
0
10
3.760170764535498
20
102.00264404990357
30
0
10
3.8357864376269251
20
102.27432010067751
30
0
10
3.8357864376269251
20
102.51327412287183
30
0
0
SPLINE
5
103
100
AcDbEntity
8
INTERIOR_PROFILES
100
AcDbSpline
70
1064
71
3
72
11
73
7
74
0
42
0.000000001
43
0.0000000001
44
0.0000000001
40
0
40
0
40
0
40
0
40
0.59448157721009376
40
0.59448157721009376
40
0.59448157721009376
40
1
40
1
40
1
40
1
10
1.3357864376269257
20
102.51327412277183
30
0
10
1.3357864376549211
20
102.16297249401342
30
0
10
1.520392891001624
20
101.74267500013715
30
0
10
1.8501895557996628
20
101.50263213510581
30
0
10
2.0751563646584223
20
101.33888979596334
30
0
10
2.3468324154324764
20
101.26327412287182
30
0
10
2.5857864376269251
20
101.26327412287182
30
0
0
SPLINE
5
104
100
AcDbEntity
8
INTERIOR_PROFILES
100
AcDbSpline
70
1064
71
3
72
11
73
7
74
0
42
0.000000001
43
0.0000000001
44
0.0000000001
40
0
40
0
40
0
40
0
40
0.59448157720995232
40
0.59448157720995232
40
0.59448157720995232
40
1
40
1
40
1
40
1
10
2.5857864375269162
20
103.76327412287183
30
0
10
2.2354848087686068
20
103.76327412284382
30
0
10
1.8151873148924085
20
103.57866766949729
30
0
10
1.5751444498610172
20
103.24887100469938
30
0
10
1.4114021107184231
20
103.02390419584059
30
0
10
1.3357864376269251
20
102.75222814506635
30
0
10
1.3357864376269257
20
102.51327412287183
30
0
0
SPLINE
5
105
100
AcDbEntity
8
INTERIOR_PROFILES
100
AcDbSpline
70
1064
71
3
72
11
73
7
74
0
42
0.000000001
43
0.0000000001
44
0.0000000001
40
0
40
0
40
0
40
0
40
0.59448157721049921
40
0.59448157721049921
40
0.59448157721049921
40
1
40
1
40
1
40
1
10
3.8357864376269251
20
102.51327412297184
30
0
10
3.8357864375988941
20
102.86357575173048
30
0
10
3.6511799842519426
20
103.28387324560707
30
0
10
3.3213833194535485
20
103.52391611063835
30
0
10
3.0964165105949308
20
103.6876584497805
30
0
10
2.824740459821125
20
103.76327412287183
30
0
10
2.5857864376269251
20
103.76327412287183
30
0
0
CIRCLE
5
106
100
AcDbEntity
8
INTERIOR_PROFILES
100
AcDbCircle
10
2.5857864376269291
20
4.0000000000000036
30
0
40
1.25
0
SPLINE
5
107
100
AcDbEntity
8
INTERIOR_PROFILES
100
AcDbSpline
70
1064
71
3
72
11
73
7
74
0
42
0.000000001
43
0.0000000001
44
0.0000000001
40
0
40
0
40
0
40
0
40
0.59448157721012818
40
0.59448157721012818
40
0.59448157721012818
40
1
40
1
40
1
40
1
10
10.585786437526925
20
13.76327412287182
30
0
10
10.235484808768492
20
13.763274122843807
30
0
10
9.8151873148922224
20
13.578667669497104
30
0
10
9.5751444498608684
20
13.248871004699048
30
0
10
9.4114021107184165
20
13.023904195840306
30
0
10
9.3357864376269184
20
12.752228145066251
30
0
10
9.3357864376269184
20
12.51327412287182
30
0
0
SPLINE
5
108
100
AcDbEntity
8
INTERIOR_PROFILES
100
AcDbSpline
70
1064
71
3
72
11
73
7
74
0
42
0.000000001
43
0.0000000001
44
0.0000000001
40
0
40
0
40
0
40
0
40
0.5944815772102795
40
0.5944815772102795
40
0.5944815772102795
40
1
40
1
40
1
40
1
10
11.835786437626917
20
12.513274122971829
30
0
10
11.835786437598886
20
12.863575751730352
30
0
10
11.651179984252094
20
13.283873245606745
30
0
10
11.321383319453878
20
13.523916110638066
30
0
10
11.096416510595171
20
13.687658449780393
30
0
10
10.824740459821259
20
13.76327412287182
30
0
10
10.585786437626917
20
13.76327412287182
30
0
0
SPLINE
5
109
100
AcDbEntity
8
INTERIOR_PROFILES
100
AcDbSpline
70
1064
71
3
72
11
73
7
74
0
42
0.000000001
43
0.0000000001
44
0.0000000001
40
0
40
0
40
0
40
0
40
0.59448157721007244
40
0.59448157721007244
40
0.59448157721007244
40
1
40
1
40
1
40
1
10
10.58578643772691
20
11.26327412287182
30
0
10
10.936088066485325
20
11.263274122899851
30
0
10
11.356385560361559
20
11.447880576246501
30
0
10
11.596428425392915
20
11.777677241044504
30
0
10
11.760170764535401
20
12.002644049903264
30
0
10
11.835786437626917
20
12.274320100677372
30
0
10
11.835786437626917
20
12.51327412287182
30
0
0
SPLINE
5
110
100
AcDbEntity
8
INTERIOR_PROFILES
100
AcDbSpline
70
1064
71
3
72
11
73
7
74
0
42
0.000000001
43
0.0000000001
44
0.0000000001
40
0
40
0
40
0
40
0
40
0.59448157721027306
40
0.59448157721027306
40
0.59448157721027306
40
1
40
1
40
1
40
1
10
9.3357864376269184
20
12.513274122771829
30
0
10
9.3357864376549493
20
12.162972494013307
30
0
10
9.5203928910017233
20
11.742675000136913
30
0
10
9.850189555799906
20
11.502632135105593
30
0
10
10.075156364658593
20
11.338889795963265
30
0
10
10.346832415432576
20
11.26327412287182
30
0
10
10.585786437626918
20
11.26327412287182
30
0
0
SPLINE
5
111
100
AcDbEntity
8
INTERIOR_PROFILES
100
AcDbSpline
70
1064
71
3
72
11
73
7
74
0
42
0.000000001
43
0.0000000001
44
0.0000000001
40
0
40
0
40
0
40
0
40
0.59448157721034089
40
0.59448157721034089
40
0.59448157721034089
40
1
40
1
40
1
40
1
10
2.585786437726902
20
19.263274122871827
30
0
10
2.9360880664854601
20
19.263274122899841
30
0
10
3.3563855603619426
20
19.447880576246686
30
0
10
3.5964284253932628
20
19.777677241044955
30
0
10
3.7601707645355367
20
20.002644049903626
30
0
10
3.8357864376269282
20
20.274320100677539
30
0
10
3.8357864376269282
20
20.513274122871827
30
0
0
SPLINE
5
112
100
AcDbEntity
8
INTERIOR_PROFILES
100
AcDbSpline
70
1064
71
3
72
11
73
7
74
0
42
0.000000001
43
0.0000000001
44
0.0000000001
40
0
40
0
40
0
40
0
40
0.59448157720986194
40
0.59448157720986194
40
0.59448157720986194
40
1
40
1
40
1
40
1
10
1.3357864376269286
20
20.513274122771836
30
0
10
1.335786437654924
20
20.162972494013545
30
0
10
1.5203928910013782
20
19.742675000137488
30
0
10
1.8501895557992039
20
19.502632135106079
30
0
10
2.0751563646579991
20
19.338889795963432
30
0
10
2.3468324154323379
20
19.263274122871827
30
0
10
2.5857864376269286
20
19.263274122871827
30
0
0
SPLINE
5
113
100
AcDbEntity
8
INTERIOR_PROFILES
100
AcDbSpline
70
1064
71
3
72
11
73
7
74
0
42
0.000000001
43
0.0000000001
44
0.0000000001
40
0
40
0
40
0
40
0
40
0.59448157721012107
40
0.59448157721012107
40
0.59448157721012107
40
1
40
1
40
1
40
1
10
2.5857864375269193
20
21.763274122871827
30
0
10
2.2354848087685033
20
21.763274122843796
30
0
10
1.8151873148922344
20
21.578667669497129
30
0
10
1.5751444498608786
20
21.248871004699073
30
0
10
1.4114021107184267
20
21.023904195840313
30
0
10
1.3357864376269286
20
20.752228145066258
30
0
10
1.3357864376269286
20
20.513274122871827
30
0
0
SPLINE
5
114
100
AcDbEntity
8
INTERIOR_PROFILES
100
AcDbSpline
70
1064
71
3
72
11
73
7
74
0
42
0.000000001
43
0.0000000001
44
0.0000000001
40
0
40
0
40
0
40
0
40
0.5944815772101486
40
0.5944815772101486
40
0.5944815772101486
40
1
40
1
40
1
40
1
10
3.8357864376269282
20
20.513274122971819
30
0
10
3.8357864375988973
20
20.86357575173027
30
0
10
3.6511799842521944
20
21.283873245606575
30
0
10
3.3213833194540845
20
21.523916110637913
30
0
10
3.0964165105953603
20
21.687658449780347
30
0
10
2.8247404598213413
20
21.763274122871827
30
0
10
2.5857864376269282
20
21.763274122871827
30
0
0
CIRCLE
5
115
100
AcDbEntity
8
INTERIOR_PROFILES
100
AcDbCircle
10
-5.9274876852350751
20
12.513274122881679
30
0
40
1.2499999999901501
0
SPLINE
5
116
100
AcDbEntity
8
INTERIOR_PROFILES
100
AcDbSpline
70
1064
71
3
72
11
73
7
74
0
42
0.000000001
43
0.0000000001
44
0.0000000001
40
0
40
0
40
0
40
0
40
0.59448157721014994
40
0.59448157721014994
40
0.59448157721014994
40
1
40
1
40
1
40
1
10
154.83578643762692
20
12.513274122971829
30
0
10
154.83578643759893
20
12.863575751730263
30
0
10
154.65117998425222
20
13.283873245606568
30
0
10
154.32138331945413
20
13.523916110637906
30
0
10
154.09641651059539
20
13.68765844978034
30
0
10
153.82474045982133
20
13.76327412287182
30
0
10
153.58578643762692
20
13.76327412287182
30
0
0
SPLINE
5
117
100
AcDbEntity
8
INTERIOR_PROFILES
100
AcDbSpline
70
1064
71
3
72
11
73
7
74
0
42
0.000000001
43
0.0000000001
44
0.0000000001
40
0
40
0
40
0
40
0
40
0.59448157721015504
40
0.59448157721015504
40
0.59448157721015504
40
1
40
1
40
1
40
1
10
153.58578643772694
20
11.26327412287182
30
0
10
153.93608806648538
20
11.263274122899851
30
0
10
154.35638556036167
20
11.447880576246554
30
0
10
154.59642842539301
20
11.777677241044646
30
0
10
154.76017076453545
20
12.00264404990337
30
0
10
154.83578643762692
20
12.274320100677425
30
0
10
154.83578643762692
20
12.51327412287182
30
0
0
SPLINE
5
118
100
AcDbEntity
8
INTERIOR_PROFILES
100
AcDbSpline
70
1064
71
3
72
11
73
7
74
0
42
0.000000001
43
0.0000000001
44
0.0000000001
40
0
40
0
40
0
40
0
40
0.59448157721015649
40
0.59448157721015649
40
0.59448157721015649
40
1
40
1
40
1
40
1
10
152.33578643762692
20
12.513274122771829
30
0
10
152.33578643765495
20
12.162972494013378
30
0
10
152.52039289100165
20
11.742675000137073
30
0
10
152.85018955579974
20
11.502632135105735
30
0
10
153.07515636465848
20
11.338889795963301
30
0
10
153.34683241543252
20
11.26327412287182
30
0
10
153.58578643762692
20
11.26327412287182
30
0
0
SPLINE
5
119
100
AcDbEntity
8
INTERIOR_PROFILES
100
AcDbSpline
70
1064
71
3
72
11
73
7
74
0
42
0.000000001
43
0.0000000001
44
0.0000000001
40
0
40
0
40
0
40
0
40
0.59448157721014983
40
0.59448157721014983
40
0.59448157721014983
40
1
40
1
40
1
40
1
10
153.58578643752693
20
13.76327412287182
30
0
10
153.23548480876849
20
13.763274122843807
30
0
10
152.8151873148922
20
13.578667669497104
30
0
10
152.57514444986083
20
13.248871004699012
30
0
10
152.41140211071843
20
13.02390419584027
30
0
10
152.33578643762692
20
12.752228145066233
30
0
10
152.33578643762692
20
12.51327412287182
30
0
0
CIRCLE
5
120
100
AcDbEntity
8
INTERIOR_PROFILES
100
AcDbCircle
10
153.58578643762692
20
4.0000000000000036
30
0
40
1.25
0
LINE
5
121
100
AcDbEntity
8
BEND
100
AcDbLine
10
-1.67085062380899
20
106.51327412287182
30
2.2023468563135934e-14
11
-1.6708506238089864
21
9.927487685244909
31
1.480701890307242e-14
0
LINE
5
122
100
AcDbEntity
8
BEND
100
AcDbLine
10
-3.5804692544161298e-14
20
8.2566370614359208
30
6.5878070498314257e-15
11
157.58578643762692
21
8.2566370614359208
31
5.8177738746235035e-15
0
LINE
5
123
100
AcDbEntity
8
BEND_EXTENT
100
AcDbLine
10
-2.927487685244945
20
9.927487685244909
30
8.1456807553214791e-15
11
-2.9274876852449481
21
106.51327412287182
31
8.1456807553214791e-15
0
LINE
5
124
100
AcDbEntity
8
BEND_EXTENT
100
AcDbLine
10
-0.41421356237308182
20
106.51327412287182
30
8.1456807553214791e-15
11
-0.41421356237307838
21
9.9274876852449623
31
7.5905692430089008e-15
0
LINE
5
125
100
AcDbEntity
8
BEND_EXTENT
100
AcDbLine
10
157.58578643762692
20
6.9999999999999929
30
4.9696591718243068e-15
11
-3.5527136788005009e-14
21
6.9999999999999929
31
4.9696591718243021e-15
0
LINE
5
126
100
AcDbEntity
8
BEND_EXTENT
100
AcDbLine
10
-3.5874081483200371e-14
20
9.5132741228718309
30
7.5905692430089008e-15
11
157.58578643762692
21
9.5132741228718309
31
8.1456807553214838e-15
0
ENDSEC
0
SECTION
2
OBJECTS
0
DICTIONARY
5
C
100
AcDbDictionary
3
ACAD_GROUP
350
D
3
ACAD_MLINESTYLE
350
17
0
DICTIONARY
5
D
100
AcDbDictionary
0
DICTIONARY
5
1A
330
C
100
AcDbDictionary
0
DICTIONARY
5
17
100
AcDbDictionary
0
ENDSEC
0
EOF
