  0
SECTION
  2
HEADER
  9
$ACADVER
  1
AC1027
  9
$ACADMAINTVER
 70
   105
  9
$DWGCODEPAGE
  3
ANSI_1251
  9
$REQUIREDVERSIONS
160
                 0
  9
$INSBASE
 10
0.0
 20
0.0
 30
0.0
  9
$EXTMIN
 10
0.0
 20
0.25
 30
0.0
  9
$EXTMAX
 10
181.1890352404
 20
549.25
 30
0.0
  9
$LIMMIN
 10
0.0
 20
0.0
  9
$LIMMAX
 10
420.0
 20
297.0
  9
$ORTHOMODE
 70
     0
  9
$REGENMODE
 70
     1
  9
$FILLMODE
 70
     1
  9
$QTEXTMODE
 70
     0
  9
$MIRRTEXT
 70
     1
  9
$LTSCALE
 40
1.0
  9
$ATTMODE
 70
     1
  9
$TEXTSIZE
 40
4.9388888889
  9
$TRACEWID
 40
1.0
  9
$TEXTSTYLE
  7
Standard
  9
$CLAYER
  8
0
  9
$CELTYPE
  6
ByLayer
  9
$CECOLOR
 62
   256
  9
$CELTSCALE
 40
1.0
  9
$DISPSILH
 70
     0
  9
$DIMSCALE
 40
1.0
  9
$DIMASZ
 40
3.556
  9
$DIMEXO
 40
1.0
  9
$DIMDLI
 40
3.75
  9
$DIMRND
 40
0.0
  9
$DIMDLE
 40
0.0
  9
$DIMEXE
 40
1.0
  9
$DIMTP
 40
0.0
  9
$DIMTM
 40
0.0
  9
$DIMTXT
 40
4.2333333333
  9
$DIMCEN
 40
2.5
  9
$DIMTSZ
 40
0.0
  9
$DIMTOL
 70
     0
  9
$DIMLIM
 70
     0
  9
$DIMTIH
 70
     1
  9
$DIMTOH
 70
     1
  9
$DIMSE1
 70
     0
  9
$DIMSE2
 70
     0
  9
$DIMTAD
 70
     1
  9
$DIMZIN
 70
     1
  9
$DIMBLK
  1

  9
$DIMASO
 70
     1
  9
$DIMSHO
 70
     1
  9
$DIMPOST
  1

  9
$DIMAPOST
  1

  9
$DIMALT
 70
     0
  9
$DIMALTD
 70
     3
  9
$DIMALTF
 40
0.0393700787
  9
$DIMLFAC
 40
1.0
  9
$DIMTOFL
 70
     1
  9
$DIMTVP
 40
0.0
  9
$DIMTIX
 70
     0
  9
$DIMSOXD
 70
     0
  9
$DIMSAH
 70
     0
  9
$DIMBLK1
  1

  9
$DIMBLK2
  1

  9
$DIMSTYLE
  2
ISO-25
  9
$DIMCLRD
 70
     0
  9
$DIMCLRE
 70
     0
  9
$DIMCLRT
 70
     0
  9
$DIMTFAC
 40
1.0
  9
$DIMGAP
 40
1.524
  9
$DIMJUST
 70
     0
  9
$DIMSD1
 70
     0
  9
$DIMSD2
 70
     0
  9
$DIMTOLJ
 70
     0
  9
$DIMTZIN
 70
     1
  9
$DIMALTZ
 70
     0
  9
$DIMALTTZ
 70
     0
  9
$DIMUPT
 70
     0
  9
$DIMDEC
 70
     2
  9
$DIMTDEC
 70
     2
  9
$DIMALTU
 70
     2
  9
$DIMALTTD
 70
     3
  9
$DIMTXSTY
  7
Standard
  9
$DIMAUNIT
 70
     0
  9
$DIMADEC
 70
     2
  9
$DIMALTRND
 40
0.0
  9
$DIMAZIN
 70
     0
  9
$DIMDSEP
 70
    44
  9
$DIMATFIT
 70
     3
  9
$DIMFRAC
 70
     0
  9
$DIMLDRBLK
  1

  9
$DIMLUNIT
 70
     2
  9
$DIMLWD
 70
    -2
  9
$DIMLWE
 70
    -2
  9
$DIMTMOVE
 70
     0
  9
$DIMFXL
 40
1.0
  9
$DIMFXLON
 70
     0
  9
$DIMJOGANG
 40
0.7853981634
  9
$DIMTFILL
 70
     0
  9
$DIMTFILLCLR
 70
     0
  9
$DIMARCSYM
 70
     0
  9
$DIMLTYPE
  6

  9
$DIMLTEX1
  6

  9
$DIMLTEX2
  6

  9
$DIMTXTDIRECTION
 70
     0
  9
$LUNITS
 70
     2
  9
$LUPREC
 70
     2
  9
$SKETCHINC
 40
1.0
  9
$FILLETRAD
 40
10.0
  9
$AUNITS
 70
     0
  9
$AUPREC
 70
     2
  9
$MENU
  1
.
  9
$ELEVATION
 40
0.0
  9
$PELEVATION
 40
0.0
  9
$THICKNESS
 40
0.0
  9
$LIMCHECK
 70
     0
  9
$CHAMFERA
 40
0.0
  9
$CHAMFERB
 40
0.0
  9
$CHAMFERC
 40
0.0
  9
$CHAMFERD
 40
0.0
  9
$SKPOLY
 70
     0
  9
$TDCREATE
 40
2458419.788658194
  9
$TDUCREATE
 40
2458419.663658194
  9
$TDUPDATE
 40
2458419.788690614
  9
$TDUUPDATE
 40
2458419.663690614
  9
$TDINDWG
 40
0.0000000116
  9
$TDUSRTIMER
 40
0.0000000116
  9
$USRTIMER
 70
     1
  9
$ANGBASE
 50
0.0
  9
$ANGDIR
 70
     0
  9
$PDMODE
 70
     0
  9
$PDSIZE
 40
-1.0
  9
$PLINEWID
 40
0.0
  9
$SPLFRAME
 70
     0
  9
$SPLINETYPE
 70
     6
  9
$SPLINESEGS
 70
     8
  9
$HANDSEED
  5
106
  9
$SURFTAB1
 70
     6
  9
$SURFTAB2
 70
     6
  9
$SURFTYPE
 70
     6
  9
$SURFU
 70
     6
  9
$SURFV
 70
     6
  9
$UCSBASE
  2

  9
$UCSNAME
  2

  9
$UCSORG
 10
0.0
 20
0.0
 30
0.0
  9
$UCSXDIR
 10
1.0
 20
0.0
 30
0.0
  9
$UCSYDIR
 10
0.0
 20
1.0
 30
0.0
  9
$UCSORTHOREF
  2

  9
$UCSORTHOVIEW
 70
     0
  9
$UCSORGTOP
 10
0.0
 20
0.0
 30
0.0
  9
$UCSORGBOTTOM
 10
0.0
 20
0.0
 30
0.0
  9
$UCSORGLEFT
 10
0.0
 20
0.0
 30
0.0
  9
$UCSORGRIGHT
 10
0.0
 20
0.0
 30
0.0
  9
$UCSORGFRONT
 10
0.0
 20
0.0
 30
0.0
  9
$UCSORGBACK
 10
0.0
 20
0.0
 30
0.0
  9
$PUCSBASE
  2

  9
$PUCSNAME
  2

  9
$PUCSORG
 10
0.0
 20
0.0
 30
0.0
  9
$PUCSXDIR
 10
1.0
 20
0.0
 30
0.0
  9
$PUCSYDIR
 10
0.0
 20
1.0
 30
0.0
  9
$PUCSORTHOREF
  2

  9
$PUCSORTHOVIEW
 70
     0
  9
$PUCSORGTOP
 10
0.0
 20
0.0
 30
0.0
  9
$PUCSORGBOTTOM
 10
0.0
 20
0.0
 30
0.0
  9
$PUCSORGLEFT
 10
0.0
 20
0.0
 30
0.0
  9
$PUCSORGRIGHT
 10
0.0
 20
0.0
 30
0.0
  9
$PUCSORGFRONT
 10
0.0
 20
0.0
 30
0.0
  9
$PUCSORGBACK
 10
0.0
 20
0.0
 30
0.0
  9
$USERI1
 70
     0
  9
$USERI2
 70
     0
  9
$USERI3
 70
     0
  9
$USERI4
 70
     0
  9
$USERI5
 70
     0
  9
$USERR1
 40
0.0
  9
$USERR2
 40
0.0
  9
$USERR3
 40
0.0
  9
$USERR4
 40
0.0
  9
$USERR5
 40
0.0
  9
$WORLDVIEW
 70
     1
  9
$SHADEDGE
 70
     3
  9
$SHADEDIF
 70
    70
  9
$TILEMODE
 70
     1
  9
$MAXACTVP
 70
    64
  9
$PINSBASE
 10
0.0
 20
0.0
 30
0.0
  9
$PLIMCHECK
 70
     0
  9
$PEXTMIN
 10
1.0000000000E+20
 20
1.0000000000E+20
 30
1.0000000000E+20
  9
$PEXTMAX
 10
-1.0000000000E+20
 20
-1.0000000000E+20
 30
-1.0000000000E+20
  9
$PLIMMIN
 10
0.0
 20
0.0
  9
$PLIMMAX
 10
420.0
 20
297.0
  9
$UNITMODE
 70
     0
  9
$VISRETAIN
 70
     1
  9
$PLINEGEN
 70
     0
  9
$PSLTSCALE
 70
     1
  9
$TREEDEPTH
 70
  3020
  9
$CMLSTYLE
  2
Standard
  9
$CMLJUST
 70
     0
  9
$CMLSCALE
 40
20.0
  9
$PROXYGRAPHICS
 70
     1
  9
$MEASUREMENT
 70
     1
  9
$CELWEIGHT
370
    -1
  9
$ENDCAPS
280
     0
  9
$JOINSTYLE
280
     0
  9
$LWDISPLAY
290
     1
  9
$INSUNITS
 70
     4
  9
$HYPERLINKBASE
  1

  9
$STYLESHEET
  1

  9
$XEDIT
290
     1
  9
$CEPSNTYPE
380
     0
  9
$PSTYLEMODE
290
     1
  9
$FINGERPRINTGUID
  2
{2DD971D0-EC33-4E42-A4D8-B0A93E4BEBA6}
  9
$VERSIONGUID
  2
{FAEB1C32-E019-11D5-929B-00C0DF256EC4}
  9
$EXTNAMES
290
     1
  9
$PSVPSCALE
 40
0.0
  9
$OLESTARTUP
290
     0
  9
$SORTENTS
280
   127
  9
$INDEXCTL
280
     0
  9
$HIDETEXT
280
     1
  9
$XCLIPFRAME
280
     2
  9
$HALOGAP
280
     0
  9
$OBSCOLOR
 70
   257
  9
$OBSLTYPE
280
     0
  9
$INTERSECTIONDISPLAY
280
     0
  9
$INTERSECTIONCOLOR
 70
   257
  9
$DIMASSOC
280
     2
  9
$PROJECTNAME
  1

  9
$CAMERADISPLAY
290
     0
  9
$LENSLENGTH
 40
50.0
  9
$CAMERAHEIGHT
 40
0.0
  9
$STEPSPERSEC
 40
2.0
  9
$STEPSIZE
 40
6.0
  9
$3DDWFPREC
 40
2.0
  9
$PSOLWIDTH
 40
5.0
  9
$PSOLHEIGHT
 40
80.0
  9
$LOFTANG1
 40
1.5707963268
  9
$LOFTANG2
 40
1.5707963268
  9
$LOFTMAG1
 40
0.0
  9
$LOFTMAG2
 40
0.0
  9
$LOFTPARAM
 70
     7
  9
$LOFTNORMALS
280
     1
  9
$LATITUDE
 40
37.795
  9
$LONGITUDE
 40
-122.394
  9
$NORTHDIRECTION
 40
0.0
  9
$TIMEZONE
 70
 -8000
  9
$LIGHTGLYPHDISPLAY
280
     1
  9
$TILEMODELIGHTSYNCH
280
     1
  9
$CMATERIAL
347
44
  9
$SOLIDHIST
280
     0
  9
$SHOWHIST
280
     1
  9
$DWFFRAME
280
     2
  9
$DGNFRAME
280
     2
  9
$REALWORLDSCALE
290
     1
  9
$INTERFERECOLOR
 62
   256
  9
$CSHADOW
280
     0
  9
$SHADOWPLANELOCATION
 40
0.0
  0
ENDSEC
  0
SECTION
  2
CLASSES
  0
CLASS
  1
ACDBDICTIONARYWDFLT
  2
AcDbDictionaryWithDefault
  3
ObjectDBX Classes
 90
        0
 91
        4
280
     0
281
     0
  0
CLASS
  1
VISUALSTYLE
  2
AcDbVisualStyle
  3
ObjectDBX Classes
 90
     4095
 91
        4
280
     0
281
     0
  0
CLASS
  1
MATERIAL
  2
AcDbMaterial
  3
ObjectDBX Classes
 90
     1153
 91
        4
280
     0
281
     0
  0
CLASS
  1
SCALE
  2
AcDbScale
  3
ObjectDBX Classes
 90
     1153
 91
        4
280
     0
281
     0
  0
CLASS
  1
TABLESTYLE
  2
AcDbTableStyle
  3
ObjectDBX Classes
 90
     4095
 91
        4
280
     0
281
     0
  0
CLASS
  1
MLEADERSTYLE
  2
AcDbMLeaderStyle
  3
ACDB_MLEADERSTYLE_CLASS
 90
     4095
 91
        4
280
     0
281
     0
  0
CLASS
  1
SUN
  2
AcDbSun
  3
SCENEOE
 90
     1153
 91
        4
280
     0
281
     0
  0
CLASS
  1
DICTIONARYVAR
  2
AcDbDictionaryVar
  3
ObjectDBX Classes
 90
        0
 91
        4
280
     0
281
     0
  0
CLASS
  1
CELLSTYLEMAP
  2
AcDbCellStyleMap
  3
ObjectDBX Classes
 90
     1152
 91
        4
280
     0
281
     0
  0
ENDSEC
  0
SECTION
  2
TABLES
  0
TABLE
  2
VPORT
  5
8
330
0
100
AcDbSymbolTable
 70
     1
  0
VPORT
  5
29
330
8
100
AcDbSymbolTableRecord
100
AcDbViewportTableRecord
  2
*Active
 70
     0
 10
0.0
 20
0.0
 11
1.0
 21
1.0
 12
90.5945176202
 22
274.75
 13
0.0
 23
0.0
 14
10.0
 24
10.0
 15
10.0
 25
10.0
 16
0.0
 26
0.0
 36
1.0
 17
0.0
 27
0.0
 37
0.0
 40
559.98
 41
0.3300346726
 42
50.0
 43
0.0
 44
0.0
 50
0.0
 51
0.0
 71
     0
 72
   100
 73
     1
 74
     3
 75
     0
 76
     0
 77
     0
 78
     0
281
     0
 65
     1
110
0.0
120
0.0
130
0.0
111
1.0
121
0.0
131
0.0
112
0.0
122
1.0
132
0.0
 79
     0
146
0.0
348
2F
 60
     3
 61
     5
292
     1
282
     1
141
0.0
142
0.0
 63
   250
361
6D
  0
ENDTAB
  0
TABLE
  2
LTYPE
  5
5
330
0
100
AcDbSymbolTable
 70
     6
  0
LTYPE
  5
14
330
5
100
AcDbSymbolTableRecord
100
AcDbLinetypeTableRecord
  2
ByBlock
 70
     0
  3

 72
    65
 73
     0
 40
0.0
  0
LTYPE
  5
15
330
5
100
AcDbSymbolTableRecord
100
AcDbLinetypeTableRecord
  2
ByLayer
 70
     0
  3

 72
    65
 73
     0
 40
0.0
  0
LTYPE
  5
16
330
5
100
AcDbSymbolTableRecord
100
AcDbLinetypeTableRecord
  2
Continuous
 70
     0
  3
Solid line
 72
    65
 73
     0
 40
0.0
  0
LTYPE
  5
6E
330
5
100
AcDbSymbolTableRecord
100
AcDbLinetypeTableRecord
  2
HIDDEN
 70
     0
  3
Hidden __ __ __ __ __ __ __ __ __ __ __ __ __ __
 72
    65
 73
     2
 40
1.905
 49
1.27
 74
     0
 49
-0.635
 74
     0
  0
LTYPE
  5
6F
330
5
100
AcDbSymbolTableRecord
100
AcDbLinetypeTableRecord
  2
PHANTOM
 70
     0
  3
Phantom ______  __  __  ______  __  __  ______
 72
    65
 73
     6
 40
12.7
 49
6.35
 74
     0
 49
-1.27
 74
     0
 49
1.27
 74
     0
 49
-1.27
 74
     0
 49
1.27
 74
     0
 49
-1.27
 74
     0
  0
LTYPE
  5
70
330
5
100
AcDbSymbolTableRecord
100
AcDbLinetypeTableRecord
  2
CENTER
 70
     0
  3
Center ____ _ ____ _ ____ _ ____ _ ____ _ ____
 72
    65
 73
     4
 40
10.16
 49
6.35
 74
     0
 49
-1.27
 74
     0
 49
1.27
 74
     0
 49
-1.27
 74
     0
  0
LTYPE
  5
71
330
5
100
AcDbSymbolTableRecord
100
AcDbLinetypeTableRecord
  2
CENTERX2
 70
     0
  3
Center (2x) ________  __  ________  __  _____
 72
    65
 73
     4
 40
20.32
 49
12.7
 74
     0
 49
-2.54
 74
     0
 49
2.54
 74
     0
 49
-2.54
 74
     0
  0
LTYPE
  5
72
330
5
100
AcDbSymbolTableRecord
100
AcDbLinetypeTableRecord
  2
DOT2
 70
     0
  3
Dot (.5x) ........................................
 72
    65
 73
     2
 40
0.635
 49
0.0
 74
     0
 49
-0.635
 74
     0
  0
ENDTAB
  0
TABLE
  2
LAYER
  5
2
330
0
100
AcDbSymbolTable
 70
     1
  0
LAYER
  5
10
330
2
100
AcDbSymbolTableRecord
100
AcDbLayerTableRecord
  2
0
 70
     0
 62
     7
  6
Continuous
370
    -3
390
F
347
46
348
0
  0
ENDTAB
  0
TABLE
  2
STYLE
  5
3
330
0
100
AcDbSymbolTable
 70
     1
  0
STYLE
  5
11
330
3
100
AcDbSymbolTableRecord
100
AcDbTextStyleTableRecord
  2
Standard
 70
     0
 40
0.0
 41
1.0
 50
0.0
 71
     0
 42
4.9388888889
  3
txt
  4

  0
ENDTAB
  0
TABLE
  2
VIEW
  5
6
330
0
100
AcDbSymbolTable
 70
     0
  0
ENDTAB
  0
TABLE
  2
UCS
  5
7
330
0
100
AcDbSymbolTable
 70
     0
  0
ENDTAB
  0
TABLE
  2
APPID
  5
9
330
0
100
AcDbSymbolTable
 70
     1
  0
APPID
  5
12
330
9
100
AcDbSymbolTableRecord
100
AcDbRegAppTableRecord
  2
ACAD
 70
     0
  0
ENDTAB
  0
TABLE
  2
DIMSTYLE
  5
A
330
0
100
AcDbSymbolTable
 70
     1
100
AcDbDimStyleTable
  0
DIMSTYLE
105
27
330
A
100
AcDbSymbolTableRecord
100
AcDbDimStyleTableRecord
  2
ISO-25
 70
     0
 41
2.5
 42
0.625
 43
3.75
 44
1.25
 73
     0
 74
     0
 77
     1
 78
     8
140
2.5
141
2.5
143
0.0393700787
147
0.625
171
     3
172
     1
178
     0
271
     2
272
     2
274
     3
278
    44
283
     0
284
     8
340
11
  0
ENDTAB
  0
TABLE
  2
BLOCK_RECORD
  5
1
330
0
100
AcDbSymbolTable
 70
     1
  0
BLOCK_RECORD
  5
1F
330
1
100
AcDbSymbolTableRecord
100
AcDbBlockTableRecord
  2
*Model_Space
340
22
 70
     0
280
     1
281
     0
  0
BLOCK_RECORD
  5
1B
330
1
100
AcDbSymbolTableRecord
100
AcDbBlockTableRecord
  2
*Paper_Space
340
1E
 70
     0
280
     1
281
     0
  0
BLOCK_RECORD
  5
23
330
1
100
AcDbSymbolTableRecord
100
AcDbBlockTableRecord
  2
*Paper_Space0
340
26
 70
     0
280
     1
281
     0
  0
ENDTAB
  0
ENDSEC
  0
SECTION
  2
BLOCKS
  0
BLOCK
  5
20
330
1F
100
AcDbEntity
  8
0
100
AcDbBlockBegin
  2
*Model_Space
 70
     0
 10
0.0
 20
0.0
 30
0.0
  3
*Model_Space
  1

  0
ENDBLK
  5
21
330
1F
100
AcDbEntity
  8
0
100
AcDbBlockEnd
  0
BLOCK
  5
1C
330
1B
100
AcDbEntity
 67
     1
  8
0
100
AcDbBlockBegin
  2
*Paper_Space
 70
     0
 10
0.0
 20
0.0
 30
0.0
  3
*Paper_Space
  1

  0
ENDBLK
  5
1D
330
1B
100
AcDbEntity
 67
     1
  8
0
100
AcDbBlockEnd
  0
BLOCK
  5
24
330
23
100
AcDbEntity
  8
0
100
AcDbBlockBegin
  2
*Paper_Space0
 70
     0
 10
0.0
 20
0.0
 30
0.0
  3
*Paper_Space0
  1

  0
ENDBLK
  5
25
330
23
100
AcDbEntity
  8
0
100
AcDbBlockEnd
  0
ENDSEC
  0
SECTION
  2
ENTITIES
  0
LINE
  5
73
330
1F
100
AcDbEntity
  8
0
  6
CENTERX2
 62
     7
100
AcDbLine
 10
174.4695176202
 20
548.2
 30
0.0
 11
174.4695176202
 21
1.3
 31
0.0
  0
SPLINE
  5
7D
330
1F
100
AcDbEntity
  8
0
  6
Continuous
 62
     7
370
    25
100
AcDbSpline
210
0.0
220
0.0
230
1.0
 70
     8
 71
     3
 72
    20
 73
    16
 74
     0
 42
0.000000001
 43
0.00000001
 40
0.0
 40
0.0
 40
0.0
 40
0.0
 40
0.0802439005485232
 40
0.1598440977218294
 40
0.2400827146609037
 40
0.3700210390007013
 40
0.4999409139857918
 40
0.6298821532352082
 40
0.7597989630338464
 40
0.8001019092071496
 40
0.8400845568907341
 40
0.8799054237214219
 40
0.9197249594836909
 40
0.959703629988267
 40
1.0
 40
1.0
 40
1.0
 40
1.0
 10
23.74999999999999
 20
214.6000000000001
 30
0.0
 10
23.65969481611441
 20
214.6031818628856
 30
0.0
 10
23.47980886167895
 20
214.6095200642758
 30
0.0
 10
23.21383482682145
 20
214.6621127954269
 30
0.0
 10
22.90339011458058
 20
214.7630059992646
 30
0.0
 10
22.56081830043383
 20
214.9397446638412
 30
0.0
 10
22.21943084484337
 20
215.2194639363562
 30
0.0
 10
21.9396953806998
 20
215.5608066212789
 30
0.0
 10
21.78386119186258
 20
215.8632865207251
 30
0.0
 10
21.70360101493678
 20
216.0857201793744
 30
0.0
 10
21.66576326135973
 20
216.2154878270173
 30
0.0
 10
21.63631200287007
 20
216.3468510365761
 30
0.0
 10
21.61543547385297
 20
216.4798190025383
 30
0.0
 10
21.60239085927993
 20
216.614381533211
 30
0.0
 10
21.60079905302399
 20
216.7046747284266
 30
0.0
 10
21.59999999999999
 20
216.7499999999
 30
0.0
  0
SPLINE
  5
7E
330
1F
100
AcDbEntity
  8
0
  6
Continuous
 62
     7
370
    25
100
AcDbSpline
210
0.0
220
0.0
230
1.0
 70
     8
 71
     3
 72
    20
 73
    16
 74
     0
 42
0.000000001
 43
0.00000001
 40
0.0
 40
0.0
 40
0.0
 40
0.0
 40
0.0802466053479014
 40
0.1598468015985957
 40
0.2400828400407097
 40
0.370024088743436
 40
0.4999409080796202
 40
0.6298790924824782
 40
0.7597988259205888
 40
0.800100177306435
 40
0.8400818482454079
 40
0.8799023838407082
 40
0.9197222539509592
 40
0.9597019364481362
 40
1.0
 40
1.0
 40
1.0
 40
1.0
 10
25.89999999999999
 20
216.75
 30
0.0
 10
25.89681822998713
 20
216.6596917749935
 30
0.0
 10
25.89048032001855
 20
216.4798027832691
 30
0.0
 10
25.83788867473458
 20
216.2138282689961
 30
0.0
 10
25.73699069981177
 20
215.9033845518601
 30
0.0
 10
25.56025065971709
 20
215.5608174105433
 30
0.0
 10
25.2805367571043
 20
215.2194301809202
 30
0.0
 10
24.93919433254577
 20
214.9396998685674
 30
0.0
 10
24.636717612893
 20
214.7838648207621
 30
0.0
 10
24.41428496303752
 20
214.7036005972463
 30
0.0
 10
24.28452063707602
 20
214.6657630148219
 30
0.0
 10
24.15315853520174
 20
214.636311786873
 30
0.0
 10
24.02018939081402
 20
214.6154353277036
 30
0.0
 10
23.88562341657155
 20
214.6023908020829
 30
0.0
 10
23.7953271770369
 20
214.6007990383361
 30
0.0
 10
23.7500000001
 20
214.6
 30
0.0
  0
SPLINE
  5
80
330
1F
100
AcDbEntity
  8
0
  6
Continuous
 62
     7
370
    25
100
AcDbSpline
210
0.0
220
0.0
230
1.0
 70
     8
 71
     3
 72
    20
 73
    16
 74
     0
 42
0.000000001
 43
0.00000001
 40
0.0
 40
0.0
 40
0.0
 40
0.0
 40
0.0802439007376508
 40
0.1598440979109363
 40
0.2400827146698052
 40
0.3700210391538109
 40
0.4999409139831191
 40
0.6298821531009438
 40
0.7597989630305486
 40
0.800101909165324
 40
0.8400845568252977
 40
0.8799054236479704
 40
0.9197249594183056
 40
0.9597036299473366
 40
0.9999999999999999
 40
0.9999999999999999
 40
0.9999999999999999
 40
0.9999999999999999
 10
23.74999999999999
 20
244.4000000000001
 30
0.0
 10
23.84030518409824
 20
244.3968181371212
 30
0.0
 10
24.02019113874616
 20
244.3904799357515
 30
0.0
 10
24.28616517363617
 20
244.3378872046743
 30
0.0
 10
24.59660988574757
 20
244.2369940005336
 30
0.0
 10
24.93918169954271
 20
244.0602553358188
 30
0.0
 10
25.28056915520123
 20
243.7805360636643
 30
0.0
 10
25.5603046192059
 20
243.4391933788298
 30
0.0
 10
25.7161388080228
 20
243.1367134794368
 30
0.0
 10
25.79639898507383
 20
242.9142798207501
 30
0.0
 10
25.83423673864608
 20
242.7845121731872
 30
0.0
 10
25.86368799713516
 20
242.6531489636552
 30
0.0
 10
25.88456452615055
 20
242.5201809976646
 30
0.0
 10
25.89760914072146
 20
242.3856184669087
 30
0.0
 10
25.89920094697636
 20
242.2953252716195
 30
0.0
 10
25.89999999999999
 20
242.2500000001
 30
0.0
  0
SPLINE
  5
81
330
1F
100
AcDbEntity
  8
0
  6
Continuous
 62
     7
370
    25
100
AcDbSpline
210
0.0
220
0.0
230
1.0
 70
     8
 71
     3
 72
    20
 73
    16
 74
     0
 42
0.000000001
 43
0.00000001
 40
0.0
 40
0.0
 40
0.0
 40
0.0
 40
0.0802466053624979
 40
0.1598468016132306
 40
0.2400828400415068
 40
0.370024088694286
 40
0.4999409080770955
 40
0.6298790925402262
 40
0.7597988259261254
 40
0.8001001773763476
 40
0.8400818483547456
 40
0.8799023839634101
 40
0.9197222540601673
 40
0.9597019365164946
 40
0.9999999999999999
 40
0.9999999999999999
 40
0.9999999999999999
 40
0.9999999999999999
 10
21.59999999999999
 20
242.2500000000001
 30
0.0
 10
21.60318177001221
 20
242.340308225023
 30
0.0
 10
21.60951967997891
 20
242.5201972167639
 30
0.0
 10
21.6621113252594
 20
242.7861717310383
 30
0.0
 10
21.76300930017407
 20
243.0966154481038
 30
0.0
 10
21.93974934032318
 20
243.4391825893672
 30
0.0
 10
22.21946324291127
 20
243.7805698190728
 30
0.0
 10
22.56080566739847
 20
244.0603001316298
 30
0.0
 10
22.86328238720629
 20
244.2161351793551
 30
0.0
 10
23.08571503716976
 20
244.2963994027374
 30
0.0
 10
23.21547936326569
 20
244.334236985168
 30
0.0
 10
23.34684146518464
 20
244.3636882131183
 30
0.0
 10
23.47981060952477
 20
244.3845646722905
 30
0.0
 10
23.61437658362824
 20
244.3976091979147
 30
0.0
 10
23.70467282303999
 20
244.3992009616632
 30
0.0
 10
23.74999999990001
 20
244.3999999999999
 30
0.0
  0
SPLINE
  5
8B
330
1F
100
AcDbEntity
  8
0
  6
Continuous
 62
     7
370
    25
100
AcDbSpline
210
0.0
220
0.0
230
1.0
 70
     8
 71
     3
 72
    20
 73
    16
 74
     0
 42
0.000000001
 43
0.00000001
 40
0.0
 40
0.0
 40
0.0
 40
0.0
 40
0.0802439007429327
 40
0.1598440979162029
 40
0.2400827146700164
 40
0.3700210391521789
 40
0.4999409139827554
 40
0.6298821530590022
 40
0.75979896302903
 40
0.8001019091458987
 40
0.8400845567949045
 40
0.8799054236138745
 40
0.9197249593879582
 40
0.9597036299283462
 40
1.0
 40
1.0
 40
1.0
 40
1.0
 10
148.25
 20
244.4
 30
0.0
 10
148.3403051841042
 20
244.3968181371213
 30
0.0
 10
148.5201911387581
 20
244.3904799357522
 30
0.0
 10
148.7861651736488
 20
244.3378872046768
 30
0.0
 10
149.0966098857512
 20
244.2369940005313
 30
0.0
 10
149.4391816995312
 20
244.0602553358058
 30
0.0
 10
149.7805691551714
 20
243.7805360637027
 30
0.0
 10
150.0603046191595
 20
243.4391933788541
 30
0.0
 10
150.2161388079783
 20
243.1367134794905
 30
0.0
 10
150.2963989850787
 20
242.914279820808
 30
0.0
 10
150.3342367386488
 20
242.7845121732819
 30
0.0
 10
150.3636879971376
 20
242.6531489637627
 30
0.0
 10
150.3845645261522
 20
242.5201809977588
 30
0.0
 10
150.3976091407222
 20
242.3856184669643
 30
0.0
 10
150.3992009469765
 20
242.2953252716409
 30
0.0
 10
150.4
 20
242.2500000001
 30
0.0
  0
SPLINE
  5
8C
330
1F
100
AcDbEntity
  8
0
  6
Continuous
 62
     7
370
    25
100
AcDbSpline
210
0.0
220
0.0
230
1.0
 70
     8
 71
     3
 72
    20
 73
    16
 74
     0
 42
0.000000001
 43
0.00000001
 40
0.0
 40
0.0
 40
0.0
 40
0.0
 40
0.0802466053648887
 40
0.1598468016155985
 40
0.2400828400416001
 40
0.3700240886585329
 40
0.4999409080754319
 40
0.6298790924884228
 40
0.7597988259255248
 40
0.8001001773687471
 40
0.8400818483428575
 40
0.8799023839500774
 40
0.9197222540482952
 40
0.9597019365090663
 40
1.0
 40
1.0
 40
1.0
 40
1.0
 10
146.1
 20
242.25
 30
0.0
 10
146.103181770012
 20
242.3403082250257
 30
0.0
 10
146.1095196799783
 20
242.5201972167693
 30
0.0
 10
146.1621113252594
 20
242.7861717310435
 30
0.0
 10
146.2630093001577
 20
243.0966154480707
 30
0.0
 10
146.4397493403402
 20
243.4391825893079
 30
0.0
 10
146.7194632428405
 20
243.780569819005
 30
0.0
 10
147.0608056673337
 20
244.0603001316238
 30
0.0
 10
147.3632823871491
 20
244.2161351793217
 30
0.0
 10
147.585715037147
 20
244.2963994027396
 30
0.0
 10
147.7154793632286
 20
244.3342369851689
 30
0.0
 10
147.8468414651427
 20
244.3636882131194
 30
0.0
 10
147.979810609488
 20
244.3845646722911
 30
0.0
 10
148.1143765836065
 20
244.397609197915
 30
0.0
 10
148.2046728230317
 20
244.3992009616634
 30
0.0
 10
148.2499999999001
 20
244.4
 30
0.0
  0
SPLINE
  5
8E
330
1F
100
AcDbEntity
  8
0
  6
Continuous
 62
     7
370
    25
100
AcDbSpline
210
0.0
220
0.0
230
1.0
 70
     8
 71
     3
 72
    20
 73
    16
 74
     0
 42
0.000000001
 43
0.00000001
 40
0.0
 40
0.0
 40
0.0
 40
0.0
 40
0.0802439006617185
 40
0.1598440978350156
 40
0.2400827146662537
 40
0.37002103911332
 40
0.4999409139851434
 40
0.6298821531932836
 40
0.7597989630326742
 40
0.8001019091919829
 40
0.8400845568669943
 40
0.8799054236947758
 40
0.9197249594599579
 40
0.959703629973419
 40
0.9999999999999999
 40
0.9999999999999999
 40
0.9999999999999999
 40
0.9999999999999999
 10
148.25
 20
214.6000000000001
 30
0.0
 10
148.1596948159872
 20
214.6031818628817
 30
0.0
 10
147.9798088614247
 20
214.6095200642596
 30
0.0
 10
147.7138348265472
 20
214.6621127953657
 30
0.0
 10
147.4033901143636
 20
214.763005999396
 30
0.0
 10
147.0608183004143
 20
214.9397446640369
 30
0.0
 10
146.7194308447717
 20
215.2194639363926
 30
0.0
 10
146.4396953807388
 20
215.5608066212532
 30
0.0
 10
146.2838611919009
 20
215.8632865206731
 30
0.0
 10
146.2036010149331
 20
216.0857201793293
 30
0.0
 10
146.1657632613576
 20
216.2154878269431
 30
0.0
 10
146.1363120028682
 20
216.346851036492
 30
0.0
 10
146.1154354738517
 20
216.4798190024645
 30
0.0
 10
146.1023908592794
 20
216.6143815331675
 30
0.0
 10
146.1007990530239
 20
216.7046747284098
 30
0.0
 10
146.1
 20
216.7499999999
 30
0.0
  0
SPLINE
  5
8F
330
1F
100
AcDbEntity
  8
0
  6
Continuous
 62
     7
370
    25
100
AcDbSpline
210
0.0
220
0.0
230
1.0
 70
     8
 71
     3
 72
    20
 73
    16
 74
     0
 42
0.000000001
 43
0.00000001
 40
0.0
 40
0.0
 40
0.0
 40
0.0
 40
0.0802466053577585
 40
0.1598468016084408
 40
0.2400828400411568
 40
0.3700240887709692
 40
0.499940908080247
 40
0.629879092479974
 40
0.7597988259197421
 40
0.8001001772957135
 40
0.8400818482286359
 40
0.8799023838218791
 40
0.919722253934202
 40
0.9597019364376445
 40
1.0
 40
1.0
 40
1.0
 40
1.0
 10
150.4
 20
216.7499999999999
 30
0.0
 10
150.3968182299875
 20
216.6596917749824
 30
0.0
 10
150.3904803200198
 20
216.479802783247
 30
0.0
 10
150.3378886747404
 20
216.2138282689718
 30
0.0
 10
150.2369906997916
 20
215.9033845518237
 30
0.0
 10
150.0602506597051
 20
215.560817410515
 30
0.0
 10
149.7805367570876
 20
215.219430180897
 30
0.0
 10
149.4391943325265
 20
214.9396998686008
 30
0.0
 10
149.1367176129018
 20
214.783864820777
 30
0.0
 10
148.9142849630693
 20
214.7036005972438
 30
0.0
 10
148.7845206371285
 20
214.6657630148205
 30
0.0
 10
148.653158535261
 20
214.6363117868716
 30
0.0
 10
148.520189390866
 20
214.6154353277028
 30
0.0
 10
148.3856234166022
 20
214.6023908020827
 30
0.0
 10
148.2953271770487
 20
214.6007990383361
 30
0.0
 10
148.2500000001
 20
214.6000000000001
 30
0.0
  0
SPLINE
  5
91
330
1F
100
AcDbEntity
  8
0
  6
Continuous
 62
     7
370
    25
100
AcDbSpline
210
0.0
220
0.0
230
1.0
 70
     8
 71
     3
 72
    20
 73
    16
 74
     0
 42
0.000000001
 43
0.00000001
 40
0.0
 40
0.0
 40
0.0
 40
0.0
 40
0.0802439004952337
 40
0.1598440976685418
 40
0.2400827146583933
 40
0.3700210389405824
 40
0.4999409139857948
 40
0.6298821532493167
 40
0.759798963034488
 40
0.8001019092151611
 40
0.8400845569032417
 40
0.8799054237354648
 40
0.9197249594961756
 40
0.9597036299960766
 40
1.0
 40
1.0
 40
1.0
 40
1.0
 10
23.74999999999999
 20
354.6000000000001
 30
0.0
 10
23.65969481617429
 20
354.6031818628875
 30
0.0
 10
23.47980886179867
 20
354.6095200642833
 30
0.0
 10
23.21383482695071
 20
354.662112795456
 30
0.0
 10
22.90339011468974
 20
354.7630059991994
 30
0.0
 10
22.56081830045385
 20
354.939744663751
 30
0.0
 10
22.21943084488744
 20
355.2194639363291
 30
0.0
 10
21.93969538067689
 20
355.5608066212806
 30
0.0
 10
21.78386119184601
 20
355.8632865207446
 30
0.0
 10
21.70360101493869
 20
356.0857201793982
 30
0.0
 10
21.66576326136087
 20
356.2154878270566
 30
0.0
 10
21.63631200287108
 20
356.3468510366202
 30
0.0
 10
21.61543547385364
 20
356.4798190025771
 30
0.0
 10
21.60239085928019
 20
356.6143815332338
 30
0.0
 10
21.60079905302406
 20
356.7046747284354
 30
0.0
 10
21.59999999999999
 20
356.7499999999001
 30
0.0
  0
SPLINE
  5
92
330
1F
100
AcDbEntity
  8
0
  6
Continuous
 62
     7
370
    25
100
AcDbSpline
210
0.0
220
0.0
230
1.0
 70
     8
 71
     3
 72
    20
 73
    16
 74
     0
 42
0.000000001
 43
0.00000001
 40
0.0
 40
0.0
 40
0.0
 40
0.0
 40
0.0802466053218513
 40
0.1598468015725815
 40
0.2400828400396054
 40
0.3700240886894969
 40
0.4999409080788134
 40
0.6298790925783837
 40
0.7597988259259959
 40
0.8001001773746527
 40
0.8400818483520917
 40
0.8799023839604334
 40
0.9197222540575132
 40
0.9597019365148332
 40
1.0
 40
1.0
 40
1.0
 40
1.0
 10
25.89999999999999
 20
356.75
 30
0.0
 10
25.89681822998629
 20
356.6596917750228
 30
0.0
 10
25.89048032001502
 20
356.4798027833278
 30
0.0
 10
25.83788867471973
 20
356.2138282690595
 30
0.0
 10
25.73699069985534
 20
355.9033845519389
 30
0.0
 10
25.56025065975825
 20
355.5608174105851
 30
0.0
 10
25.28053675705638
 20
355.2194301809047
 30
0.0
 10
24.93919433254117
 20
354.9396998683866
 30
0.0
 10
24.63671761275567
 20
354.78386482063
 30
0.0
 10
24.41428496283507
 20
354.7036005972626
 30
0.0
 10
24.28452063674266
 20
354.6657630148317
 30
0.0
 10
24.15315853482476
 20
354.6363117868814
 30
0.0
 10
24.02018939048346
 20
354.6154353277095
 30
0.0
 10
23.88562341637661
 20
354.6023908020852
 30
0.0
 10
23.79532717696185
 20
354.6007990383367
 30
0.0
 10
23.7500000001
 20
354.6
 30
0.0
  0
SPLINE
  5
94
330
1F
100
AcDbEntity
  8
0
  6
Continuous
 62
     7
370
    25
100
AcDbSpline
210
0.0
220
0.0
230
1.0
 70
     8
 71
     3
 72
    20
 73
    16
 74
     0
 42
0.000000001
 43
0.00000001
 40
0.0
 40
0.0
 40
0.0
 40
0.0
 40
0.0802439004977932
 40
0.1598440976711013
 40
0.2400827146585124
 40
0.3700210389490886
 40
0.4999409139859885
 40
0.6298821532266834
 40
0.7597989630332079
 40
0.8001019091992356
 40
0.8400845568783564
 40
0.8799054237075417
 40
0.9197249594713204
 40
0.959703629980539
 40
0.9999999999999999
 40
0.9999999999999999
 40
0.9999999999999999
 40
0.9999999999999999
 10
23.74999999999999
 20
384.4000000000001
 30
0.0
 10
23.84030518382857
 20
384.3968181371129
 30
0.0
 10
24.0201911382071
 20
384.3904799357171
 30
0.0
 10
24.28616517305557
 20
384.3378872045457
 30
0.0
 10
24.59660988532127
 20
384.2369940007946
 30
0.0
 10
24.93918169955418
 20
384.0602553362448
 30
0.0
 10
25.28056915510507
 20
383.7805360636851
 30
0.0
 10
25.56030461928123
 20
383.4391933787213
 30
0.0
 10
25.71613880812306
 20
383.1367134792879
 30
0.0
 10
25.7963989850651
 20
382.9142798206492
 30
0.0
 10
25.83423673864141
 20
382.7845121730214
 30
0.0
 10
25.86368799713089
 20
382.6531489634676
 30
0.0
 10
25.88456452614772
 20
382.5201809975002
 30
0.0
 10
25.89760914072033
 20
382.3856184668119
 30
0.0
 10
25.89920094697608
 20
382.2953252715823
 30
0.0
 10
25.90000000000001
 20
382.2500000001
 30
0.0
  0
SPLINE
  5
95
330
1F
100
AcDbEntity
  8
0
  6
Continuous
 62
     7
370
    25
100
AcDbSpline
210
0.0
220
0.0
230
1.0
 70
     8
 71
     3
 72
    20
 73
    16
 74
     0
 42
0.000000001
 43
0.00000001
 40
0.0
 40
0.0
 40
0.0
 40
0.0
 40
0.0802466053519674
 40
0.1598468016027284
 40
0.2400828400410767
 40
0.3700240887256391
 40
0.4999409080790428
 40
0.6298790926730853
 40
0.7597988259301452
 40
0.8001001774270904
 40
0.840081848434105
 40
0.8799023840524746
 40
0.9197222541394343
 40
0.9597019365661135
 40
0.9999999999999999
 40
0.9999999999999999
 40
0.9999999999999999
 40
0.9999999999999999
 10
21.59999999999999
 20
382.2500000000001
 30
0.0
 10
21.60318177001271
 20
382.3403082250111
 30
0.0
 10
21.60951967998079
 20
382.5201972167399
 30
0.0
 10
21.66211132526363
 20
382.7861717310138
 30
0.0
 10
21.76300930018334
 20
383.0966154481238
 30
0.0
 10
21.93974934028742
 20
383.4391825894349
 30
0.0
 10
22.21946324305087
 20
383.7805698191912
 30
0.0
 10
22.56080566749855
 20
384.0603001317424
 30
0.0
 10
22.86328238737095
 20
384.2161351794815
 30
0.0
 10
23.08571503732075
 20
384.2963994027248
 30
0.0
 10
23.21547936351361
 20
384.3342369851607
 30
0.0
 10
23.3468414654651
 20
384.3636882131121
 30
0.0
 10
23.47981060977068
 20
384.384564672286
 30
0.0
 10
23.61437658377327
 20
384.3976091979131
 30
0.0
 10
23.70467282309584
 20
384.3992009616629
 30
0.0
 10
23.74999999990001
 20
384.4
 30
0.0
  0
SPLINE
  5
97
330
1F
100
AcDbEntity
  8
0
  6
Continuous
 62
     7
370
    25
100
AcDbSpline
210
0.0
220
0.0
230
1.0
 70
     8
 71
     3
 72
    20
 73
    16
 74
     0
 42
0.000000001
 43
0.00000001
 40
0.0
 40
0.0
 40
0.0
 40
0.0
 40
0.0802439005898835
 40
0.1598440977631658
 40
0.2400827146627789
 40
0.3700210390597336
 40
0.4999409139861235
 40
0.6298821531417045
 40
0.7597989630291453
 40
0.8001019091473077
 40
0.8400845567971305
 40
0.8799054236163789
 40
0.9197249593901726
 40
0.959703629929751
 40
0.9999999999999999
 40
0.9999999999999999
 40
0.9999999999999999
 40
0.9999999999999999
 10
148.25
 20
384.4
 30
0.0
 10
148.3403051839321
 20
384.3968181371158
 30
0.0
 10
148.520191138414
 20
384.39047993573
 30
0.0
 10
148.786165173279
 20
384.3378872045958
 30
0.0
 10
149.0966098855172
 20
384.2369940006789
 30
0.0
 10
149.4391816995958
 20
384.0602553360886
 30
0.0
 10
149.7805691551468
 20
383.7805360636868
 30
0.0
 10
150.0603046191436
 20
383.4391933787384
 30
0.0
 10
150.2161388080172
 20
383.1367134794049
 30
0.0
 10
150.2963989850776
 20
382.9142798208034
 30
0.0
 10
150.3342367386489
 20
382.7845121732753
 30
0.0
 10
150.3636879971373
 20
382.6531489637549
 30
0.0
 10
150.3845645261521
 20
382.520180997752
 30
0.0
 10
150.3976091407221
 20
382.3856184669602
 30
0.0
 10
150.3992009469765
 20
382.2953252716395
 30
0.0
 10
150.4
 20
382.2500000001001
 30
0.0
  0
SPLINE
  5
98
330
1F
100
AcDbEntity
  8
0
  6
Continuous
 62
     7
370
    25
100
AcDbSpline
210
0.0
220
0.0
230
1.0
 70
     8
 71
     3
 72
    20
 73
    16
 74
     0
 42
0.000000001
 43
0.00000001
 40
0.0
 40
0.0
 40
0.0
 40
0.0
 40
0.0802466053411771
 40
0.1598468015919211
 40
0.2400828400405625
 40
0.3700240887305711
 40
0.4999409080797935
 40
0.6298790926926203
 40
0.75979882593024
 40
0.8001001774284285
 40
0.8400818484362182
 40
0.8799023840548487
 40
0.919722254141553
 40
0.9597019365674307
 40
1.0
 40
1.0
 40
1.0
 40
1.0
 10
146.1
 20
382.2500000000001
 30
0.0
 10
146.1031817700132
 20
382.340308224999
 30
0.0
 10
146.1095196799825
 20
382.5201972167156
 30
0.0
 10
146.162111325269
 20
382.7861717309876
 30
0.0
 10
146.2630093001787
 20
383.0966154481188
 30
0.0
 10
146.4397493402635
 20
383.4391825894571
 30
0.0
 10
146.719463243072
 20
383.7805698192092
 30
0.0
 10
147.0608056675255
 20
384.0603001317405
 30
0.0
 10
147.3632823873917
 20
384.2161351794918
 30
0.0
 10
147.5857150373248
 20
384.296399402724
 30
0.0
 10
147.7154793635202
 20
384.3342369851607
 30
0.0
 10
147.8468414654726
 20
384.3636882131119
 30
0.0
 10
147.9798106097773
 20
384.3845646722859
 30
0.0
 10
148.1143765837772
 20
384.3976091979129
 30
0.0
 10
148.2046728230974
 20
384.3992009616628
 30
0.0
 10
148.2499999999
 20
384.4
 30
0.0
  0
SPLINE
  5
9A
330
1F
100
AcDbEntity
  8
0
  6
Continuous
 62
     7
370
    25
100
AcDbSpline
210
0.0
220
0.0
230
1.0
 70
     8
 71
     3
 72
    20
 73
    16
 74
     0
 42
0.000000001
 43
0.00000001
 40
0.0
 40
0.0
 40
0.0
 40
0.0
 40
0.080243900528449
 40
0.1598440977017553
 40
0.2400827146599408
 40
0.3700210389849125
 40
0.4999409139860734
 40
0.6298821532211711
 40
0.759798963032944
 40
0.8001019091953798
 40
0.8400845568722717
 40
0.8799054237007038
 40
0.9197249594652284
 40
0.9597036299767241
 40
1.0
 40
1.0
 40
1.0
 40
1.0
 10
148.25
 20
354.6
 30
0.0
 10
148.159694816137
 20
354.6031818628863
 30
0.0
 10
147.9798088617241
 20
354.6095200642787
 30
0.0
 10
147.71383482687
 20
354.6621127954376
 30
0.0
 10
147.4033901146146
 20
354.7630059992434
 30
0.0
 10
147.0608183004321
 20
354.9397446638061
 30
0.0
 10
146.7194308448667
 20
355.2194639363338
 30
0.0
 10
146.4396953807307
 20
355.5608066212806
 30
0.0
 10
146.2838611918843
 20
355.8632865207041
 30
0.0
 10
146.2036010149341
 20
356.0857201793394
 30
0.0
 10
146.1657632613581
 20
356.2154878269597
 30
0.0
 10
146.1363120028686
 20
356.3468510365107
 30
0.0
 10
146.115435473852
 20
356.479819002481
 30
0.0
 10
146.1023908592795
 20
356.614381533177
 30
0.0
 10
146.1007990530239
 20
356.7046747284135
 30
0.0
 10
146.1
 20
356.7499999999
 30
0.0
  0
SPLINE
  5
9B
330
1F
100
AcDbEntity
  8
0
  6
Continuous
 62
     7
370
    25
100
AcDbSpline
210
0.0
220
0.0
230
1.0
 70
     8
 71
     3
 72
    20
 73
    16
 74
     0
 42
0.000000001
 43
0.00000001
 40
0.0
 40
0.0
 40
0.0
 40
0.0
 40
0.0802466053208782
 40
0.1598468015715881
 40
0.2400828400395313
 40
0.3700240887075287
 40
0.4999409080795528
 40
0.6298790925786234
 40
0.7597988259251404
 40
0.8001001773639289
 40
0.8400818483353177
 40
0.8799023839416164
 40
0.919722254040758
 40
0.9597019365043461
 40
1.0
 40
1.0
 40
1.0
 40
1.0
 10
150.4
 20
356.7499999999999
 30
0.0
 10
150.3968182299862
 20
356.6596917750238
 30
0.0
 10
150.3904803200147
 20
356.4798027833298
 30
0.0
 10
150.3378886747198
 20
356.2138282690617
 30
0.0
 10
150.236990699847
 20
355.9033845519217
 30
0.0
 10
150.0602506597653
 20
355.5608174105569
 30
0.0
 10
149.7805367570434
 20
355.219430180888
 30
0.0
 10
149.4391943325183
 20
354.9396998684198
 30
0.0
 10
149.1367176127617
 20
354.7838648206438
 30
0.0
 10
148.9142849628668
 20
354.7036005972602
 30
0.0
 10
148.7845206367951
 20
354.6657630148302
 30
0.0
 10
148.653158534884
 20
354.63631178688
 30
0.0
 10
148.5201893905354
 20
354.6154353277086
 30
0.0
 10
148.3856234164072
 20
354.6023908020848
 30
0.0
 10
148.2953271769737
 20
354.6007990383366
 30
0.0
 10
148.2500000001
 20
354.6
 30
0.0
  0
SPLINE
  5
A7
330
1F
100
AcDbEntity
  8
0
  6
Continuous
 62
     7
370
    25
100
AcDbSpline
210
0.0
220
0.0
230
1.0
 70
     8
 71
     3
 72
    28
 73
    24
 74
     0
 42
0.000000001
 43
0.00000001
 40
0.0
 40
0.0
 40
0.0
 40
0.0
 40
0.0294224143695355
 40
0.0587891362238903
 40
0.0881554267277379
 40
0.1175765494763437
 40
0.179445677495177
 40
0.2413112786760745
 40
0.3054291862267827
 40
0.3695434388973332
 40
0.4999969126280601
 40
0.6304503863588009
 40
0.6945673799715335
 40
0.7586825462447784
 40
0.8205507922658841
 40
0.8824172749604884
 40
0.8992407823189521
 40
0.9160384646626535
 40
0.9328206047547066
 40
0.9495975139363327
 40
0.9663795131908192
 40
0.983176914118833
 40
1.0
 40
1.0
 40
1.0
 40
1.0
 10
31.5
 20
382.2500000000001
 30
0.0
 10
31.49721781541237
 20
382.473936676401
 30
0.0
 10
31.49165871252339
 20
382.9213861483958
 30
0.0
 10
31.44651624457323
 20
383.59108756244
 30
0.0
 10
31.37439234509465
 20
384.2582721556671
 30
0.0
 10
31.23546986502915
 20
385.1662057206737
 30
0.0
 10
30.98251370773929
 20
386.3058284605113
 30
0.0
 10
30.54547450752776
 20
387.6690349035983
 30
0.0
 10
29.97788014700972
 20
389.0022488346219
 30
0.0
 10
29.03733696146589
 20
390.7345379343782
 30
0.0
 10
27.54956302117624
 20
392.7310571153839
 30
0.0
 10
25.7063763036966
 20
394.4050753821896
 30
0.0
 10
24.07323722618213
 20
395.5088385863145
 30
0.0
 10
22.8011860389701
 20
396.2028054898017
 30
0.0
 10
21.48670656062702
 20
396.7696738686306
 30
0.0
 10
20.46814965235404
 20
397.102035615031
 30
0.0
 10
19.76542633339955
 20
397.2873310147038
 30
0.0
 10
19.39216514316755
 20
397.3759576739687
 30
0.0
 10
19.0171748892734
 20
397.4552205845329
 30
0.0
 10
18.64045396827781
 20
397.5251848958465
 30
0.0
 10
18.26198272782784
 20
397.5856208738531
 30
0.0
 10
17.88184402039612
 20
397.6373827413705
 30
0.0
 10
17.62734614968399
 20
397.6639532277957
 30
0.0
 10
17.5000000003
 20
397.6772486205
 30
0.0
  0
SPLINE
  5
AB
330
1F
100
AcDbEntity
  8
0
  6
Continuous
 62
     7
370
    25
100
AcDbSpline
210
0.0
220
0.0
230
1.0
 70
     8
 71
     3
 72
    28
 73
    24
 74
     0
 42
0.000000001
 43
0.00000001
 40
0.0
 40
0.0
 40
0.0
 40
0.0
 40
0.0294220897811335
 40
0.058788703815104
 40
0.0881551022521008
 40
0.117576546457137
 40
0.1794447929037351
 40
0.2413112765899512
 40
0.3054282708323534
 40
0.369543437835827
 40
0.4999969127201237
 40
0.6304503876044545
 40
0.6945682955626742
 40
0.7586825485118689
 40
0.8205516767413792
 40
0.8824172781589692
 40
0.899240995048453
 40
0.916038817645888
 40
0.9328210281551699
 40
0.949597937485159
 40
0.9663798663159394
 40
0.983177126075251
 40
0.9999999999999999
 40
0.9999999999999999
 40
0.9999999999999999
 40
0.9999999999999999
 10
154.5
 20
397.6772486205001
 30
0.0
 10
154.2773861089711
 20
397.6528084175393
 30
0.0
 10
153.8325780684077
 20
397.6039740939499
 30
0.0
 10
153.1703910962295
 20
397.4942338439546
 30
0.0
 10
152.5133153908913
 20
397.3578817250149
 30
0.0
 10
151.62309021914
 20
397.1317498088307
 30
0.0
 10
150.5132938714545
 20
396.7696937585659
 30
0.0
 10
149.1987857684772
 20
396.2027866637597
 30
0.0
 10
147.9267517182722
 20
395.5088331974607
 30
0.0
 10
146.2936127833397
 20
394.4050648474525
 30
0.0
 10
144.4504375439256
 20
392.7310576889496
 30
0.0
 10
142.9626451757267
 20
390.7345148984927
 30
0.0
 10
142.0221095933975
 20
389.0022246216137
 30
0.0
 10
141.4544997418224
 20
387.6689794637433
 30
0.0
 10
141.0175032758792
 20
386.3058176086103
 30
0.0
 10
140.7852705222231
 20
385.2598759824651
 30
0.0
 10
140.6688528352359
 20
384.5425228659341
 30
0.0
 10
140.6167641249875
 20
384.1624336476683
 30
0.0
 10
140.5741626237233
 20
383.7815312472018
 30
0.0
 10
140.5409835377499
 20
383.3998077838827
 30
0.0
 10
140.517457457053
 20
383.0172659244637
 30
0.0
 10
140.5027261321199
 20
382.633905467326
 30
0.0
 10
140.5009091721357
 20
382.3780334696935
 30
0.0
 10
140.5
 20
382.2500000003
 30
0.0
  0
SPLINE
  5
AF
330
1F
100
AcDbEntity
  8
0
  6
Continuous
 62
     7
370
    25
100
AcDbSpline
210
0.0
220
0.0
230
1.0
 70
     8
 71
     3
 72
    28
 73
    24
 74
     0
 42
0.000000001
 43
0.00000001
 40
0.0
 40
0.0
 40
0.0
 40
0.0
 40
0.0294220898513767
 40
0.0587887039087379
 40
0.0881551023224962
 40
0.1175765464581459
 40
0.1794447932796653
 40
0.2413112765926552
 40
0.3054282710499032
 40
0.3695434378355735
 40
0.4999969127200108
 40
0.6304503876044885
 40
0.6945682956179133
 40
0.758682548511691
 40
0.8205516767643468
 40
0.8824172781589853
 40
0.8992409950556465
 40
0.916038817657884
 40
0.9328210281695883
 40
0.9495979374995959
 40
0.9663798663279825
 40
0.9831771260824823
 40
0.9999999999999999
 40
0.9999999999999999
 40
0.9999999999999999
 40
0.9999999999999999
 10
17.5
 20
341.3227513795001
 30
0.0
 10
17.72261389156159
 20
341.347191582507
 30
0.0
 10
18.16742193283583
 20
341.3960259061494
 30
0.0
 10
18.82960890554878
 20
341.505766156181
 30
0.0
 10
19.48668461038043
 20
341.6421182749994
 30
0.0
 10
20.37690978406441
 20
341.8682501922659
 30
0.0
 10
21.48670613144649
 20
342.23030624182
 30
0.0
 10
22.80121423560419
 20
342.7972133381603
 30
0.0
 10
24.07324828250955
 20
343.491166804433
 30
0.0
 10
25.70638721828694
 20
344.5949351530708
 30
0.0
 10
27.54956245591335
 20
346.2689423112728
 30
0.0
 10
29.03735482461524
 20
348.2654851017811
 30
0.0
 10
29.97789040665737
 20
349.9977753788346
 30
0.0
 10
30.5455002584065
 20
351.3310205368058
 30
0.0
 10
30.98249672416877
 20
352.6941823915607
 30
0.0
 10
31.21472947784759
 20
353.7401240177558
 30
0.0
 10
31.33114716475861
 20
354.4574771342143
 30
0.0
 10
31.38323587500953
 20
354.8375663525897
 30
0.0
 10
31.42583737627393
 20
355.2184687531111
 30
0.0
 10
31.45901646224813
 20
355.6001922164302
 30
0.0
 10
31.4825425429455
 20
355.9827340757938
 30
0.0
 10
31.49727386787963
 20
356.366094532821
 30
0.0
 10
31.49909082786426
 20
356.6219665303615
 30
0.0
 10
31.5
 20
356.7499999997
 30
0.0
  0
SPLINE
  5
B1
330
1F
100
AcDbEntity
  8
0
  6
Continuous
 62
     7
370
    25
100
AcDbSpline
210
0.0
220
0.0
230
1.0
 70
     8
 71
     3
 72
    28
 73
    24
 74
     0
 42
0.000000001
 43
0.00000001
 40
0.0
 40
0.0
 40
0.0
 40
0.0
 40
0.0294224143629639
 40
0.0587891362151313
 40
0.0881554267211507
 40
0.1175765494762397
 40
0.179445677499509
 40
0.2413112786761418
 40
0.3054291862316818
 40
0.369543438897194
 40
0.4999969126279066
 40
0.6304503863586344
 40
0.6945673800398795
 40
0.7586825462455284
 40
0.8205507923524231
 40
0.882417274960503
 40
0.8992407823189646
 40
0.9160384646626639
 40
0.9328206047547152
 40
0.9495975139363395
 40
0.9663795131908234
 40
0.9831769141188352
 40
1.0
 40
1.0
 40
1.0
 40
1.0
 10
31.5
 20
242.2500000000001
 30
0.0
 10
31.4972178154119
 20
242.4739366763511
 30
0.0
 10
31.49165871252156
 20
242.9213861482792
 30
0.0
 10
31.44651624456903
 20
243.591087562273
 30
0.0
 10
31.37439234508722
 20
244.2582721555492
 30
0.0
 10
31.23546986504162
 20
245.1662057206591
 30
0.0
 10
30.98251370779821
 20
246.3058284605616
 30
0.0
 10
30.54547450750182
 20
247.6690349036648
 30
0.0
 10
29.97788014692955
 20
249.0022488346254
 30
0.0
 10
29.03733696147544
 20
250.7345379344215
 30
0.0
 10
27.54956302120343
 20
252.7310571154385
 30
0.0
 10
25.70637630319424
 20
254.4050753823672
 30
0.0
 10
24.07323722592483
 20
255.5088385868904
 30
0.0
 10
22.80118603790926
 20
256.2028054903162
 30
0.0
 10
21.48670655990775
 20
256.7696738685848
 30
0.0
 10
20.46814965172338
 20
257.1020356152168
 30
0.0
 10
19.76542633339878
 20
257.2873310147015
 30
0.0
 10
19.39216514316776
 20
257.3759576739694
 30
0.0
 10
19.01717488927335
 20
257.4552205845329
 30
0.0
 10
18.64045396827784
 20
257.5251848958465
 30
0.0
 10
18.26198272782782
 20
257.5856208738531
 30
0.0
 10
17.88184402039612
 20
257.6373827413706
 30
0.0
 10
17.62734614968399
 20
257.6639532277958
 30
0.0
 10
17.5000000003
 20
257.6772486205
 30
0.0
  0
SPLINE
  5
B5
330
1F
100
AcDbEntity
  8
0
  6
Continuous
 62
     7
370
    25
100
AcDbSpline
210
0.0
220
0.0
230
1.0
 70
     8
 71
     3
 72
    28
 73
    24
 74
     0
 42
0.000000001
 43
0.00000001
 40
0.0
 40
0.0
 40
0.0
 40
0.0
 40
0.0294220898549016
 40
0.0587887039134148
 40
0.0881551023259661
 40
0.11757654645807
 40
0.1794447933226867
 40
0.2413112765927423
 40
0.3054282711552768
 40
0.3695434378357882
 40
0.4999969127200945
 40
0.6304503876044406
 40
0.6945682955582517
 40
0.7586825485117537
 40
0.8205516767183023
 40
0.8824172781588144
 40
0.8992409950412475
 40
0.916038817633964
 40
0.9328210281408794
 40
0.9495979374708713
 40
0.9663798663040315
 40
0.9831771260681044
 40
1.0
 40
1.0
 40
1.0
 40
1.0
 10
154.5
 20
257.6772486205
 30
0.0
 10
154.2773861084114
 20
257.6528084174908
 30
0.0
 10
153.8325780671012
 20
257.6039740938459
 30
0.0
 10
153.1703910943614
 20
257.4942338438115
 30
0.0
 10
152.5133153895544
 20
257.3578817250021
 30
0.0
 10
151.6230902155993
 20
257.1317498076223
 30
0.0
 10
150.5132938681963
 20
256.769693758189
 30
0.0
 10
149.1987857633993
 20
256.2027866613093
 30
0.0
 10
147.9267517167422
 20
255.5088331952452
 30
0.0
 10
146.2936127811566
 20
254.4050648463309
 30
0.0
 10
144.4504375440565
 20
252.7310576887562
 30
0.0
 10
142.9626451757077
 20
250.7345148985554
 30
0.0
 10
142.0221095934568
 20
249.0022246216193
 30
0.0
 10
141.4544997418867
 20
247.6689794639426
 30
0.0
 10
141.0175032759384
 20
246.3058176087746
 30
0.0
 10
140.7852705222923
 20
245.259875982685
 30
0.0
 10
140.6688528352304
 20
244.5425228660802
 30
0.0
 10
140.6167641249846
 20
244.1624336479226
 30
0.0
 10
140.5741626237205
 20
243.7815312475102
 30
0.0
 10
140.540983537748
 20
243.399807784191
 30
0.0
 10
140.5174574570516
 20
243.0172659247175
 30
0.0
 10
140.5027261321193
 20
242.633905467471
 30
0.0
 10
140.5009091721355
 20
242.3780334697479
 30
0.0
 10
140.5
 20
242.2500000003
 30
0.0
  0
SPLINE
  5
B7
330
1F
100
AcDbEntity
  8
0
  6
Continuous
 62
     7
370
    25
100
AcDbSpline
210
0.0
220
0.0
230
1.0
 70
     8
 71
     3
 72
    28
 73
    24
 74
     0
 42
0.000000001
 43
0.00000001
 40
0.0
 40
0.0
 40
0.0
 40
0.0
 40
0.0294224143348001
 40
0.0587891361775724
 40
0.0881554266928749
 40
0.1175765494757393
 40
0.1794456775222462
 40
0.2413112786762998
 40
0.3054291864328171
 40
0.3695434388979147
 40
0.4999969126284577
 40
0.6304503863590152
 40
0.6945673800443415
 40
0.7586825462459691
 40
0.8205507923789547
 40
0.8824172749607697
 40
0.899240782325079
 40
0.9160384646726838
 40
0.9328206047666843
 40
0.9495975139482874
 40
0.9663795132007724
 40
0.9831769141248011
 40
1.0
 40
1.0
 40
1.0
 40
1.0
 10
140.5000000000001
 20
356.7499999999999
 30
0.0
 10
140.5027821845901
 20
356.5260633238631
 30
0.0
 10
140.5083412874863
 20
356.0786138522203
 30
0.0
 10
140.5534837554493
 20
355.4089124384422
 30
0.0
 10
140.6256076549435
 20
354.7417278449553
 30
0.0
 10
140.7645301349162
 20
353.8337942793731
 30
0.0
 10
141.0174862919033
 20
352.6941715391694
 30
0.0
 10
141.4545254931912
 20
351.3309650947785
 30
0.0
 10
142.0221198534522
 20
349.9977511638518
 30
0.0
 10
142.9626630396086
 20
348.2654620644373
 30
0.0
 10
144.4504369787288
 20
346.2689428845157
 30
0.0
 10
146.2936236968644
 20
344.5949246176584
 30
0.0
 10
147.9267627740548
 20
343.4911614130182
 30
0.0
 10
149.1988139623034
 20
342.7971945095919
 30
0.0
 10
150.5132934402822
 20
342.2303261313555
 30
0.0
 10
151.5318503485051
 20
341.897964384693
 30
0.0
 10
152.2345736667227
 20
341.7126689852915
 30
0.0
 10
152.607834857043
 20
341.6240423260124
 30
0.0
 10
152.9828251109824
 20
341.5447794154447
 30
0.0
 10
153.3595460319776
 20
341.4748151041302
 30
0.0
 10
153.7380172723825
 20
341.4143791261277
 30
0.0
 10
154.118155979724
 20
341.3626172586182
 30
0.0
 10
154.372653850361
 20
341.3360467721999
 30
0.0
 10
154.4999999997
 20
341.3227513795
 30
0.0
  0
SPLINE
  5
BF
330
1F
100
AcDbEntity
  8
0
  6
Continuous
 62
     7
370
    25
100
AcDbSpline
210
0.0
220
0.0
230
1.0
 70
     8
 71
     3
 72
    28
 73
    24
 74
     0
 42
0.000000001
 43
0.00000001
 40
0.0
 40
0.0
 40
0.0
 40
0.0
 40
0.0294224143238958
 40
0.0587891361630581
 40
0.0881554266820155
 40
0.1175765494757212
 40
0.1794456775191039
 40
0.2413112786766204
 40
0.3054291863790382
 40
0.3695434388976753
 40
0.499996912628356
 40
0.6304503863590442
 40
0.6945673800353258
 40
0.7586825462451402
 40
0.8205507922542958
 40
0.8824172749600133
 40
0.8992407822927903
 40
0.9160384646193025
 40
0.9328206047027315
 40
0.9495975138843501
 40
0.9663795131474858
 40
0.9831769140928264
 40
1.0
 40
1.0
 40
1.0
 40
1.0
 10
140.5
 20
216.7499999999999
 30
0.0
 10
140.502782184591
 20
216.5260633239463
 30
0.0
 10
140.5083412874893
 20
216.0786138524144
 30
0.0
 10
140.5534837554561
 20
215.4089124387201
 30
0.0
 10
140.6256076549569
 20
214.7417278451518
 30
0.0
 10
140.7645301348776
 20
213.8337942794752
 30
0.0
 10
141.0174862918311
 20
212.6941715391784
 30
0.0
 10
141.4545254930123
 20
211.3309650951724
 30
0.0
 10
142.0221198535189
 20
209.997751164345
 30
0.0
 10
142.9626630392165
 20
208.2654620646821
 30
0.0
 10
144.4504369788229
 20
206.2689428846107
 30
0.0
 10
146.2936236966793
 20
204.5949246175054
 30
0.0
 10
147.9267627742067
 20
203.491161413393
 30
0.0
 10
149.1988139613687
 20
202.7971945099873
 30
0.0
 10
150.5132934394012
 20
202.2303261316848
 30
0.0
 10
151.5318503474005
 20
201.8979643851418
 30
0.0
 10
152.2345736660696
 20
201.7126689853299
 30
0.0
 10
152.6078348559099
 20
201.6240423261097
 30
0.0
 10
152.9828251096078
 20
201.5447794155658
 30
0.0
 10
153.3595460306043
 20
201.4748151042548
 30
0.0
 10
153.7380172712521
 20
201.4143791262313
 30
0.0
 10
154.1181559790782
 20
201.3626172586784
 30
0.0
 10
154.3726538501189
 20
201.3360467722228
 30
0.0
 10
154.4999999997
 20
201.3227513795
 30
0.0
  0
SPLINE
  5
C3
330
1F
100
AcDbEntity
  8
0
  6
Continuous
 62
     7
370
    25
100
AcDbSpline
210
0.0
220
0.0
230
1.0
 70
     8
 71
     3
 72
    28
 73
    24
 74
     0
 42
0.000000001
 43
0.00000001
 40
0.0
 40
0.0
 40
0.0
 40
0.0
 40
0.0294220898652705
 40
0.0587887039272332
 40
0.0881551023363434
 40
0.117576546458191
 40
0.1794447931515051
 40
0.2413112765911899
 40
0.3054282709820575
 40
0.3695434378359853
 40
0.4999969127202788
 40
0.6304503876046148
 40
0.694568295572896
 40
0.7586825485118801
 40
0.8205516767649501
 40
0.8824172781592254
 40
0.899240995061508
 40
0.9160388176675052
 40
0.9328210281810831
 40
0.9495979375110721
 40
0.9663798663375389
 40
0.9831771260882142
 40
1.0
 40
1.0
 40
1.0
 40
1.0
 10
17.5
 20
201.3227513795
 30
0.0
 10
17.72261389166714
 20
201.3471915825163
 30
0.0
 10
18.16742193308217
 20
201.3960259061699
 30
0.0
 10
18.82960890590271
 20
201.5057661562043
 30
0.0
 10
19.48668461062815
 20
201.6421182750158
 30
0.0
 10
20.37690978323094
 20
201.8682501920293
 30
0.0
 10
21.48670613034802
 20
202.2303062419828
 30
0.0
 10
22.80121423425127
 20
202.7972133375285
 30
0.0
 10
24.07324828247888
 20
203.4911668035018
 30
0.0
 10
25.70638721764572
 20
204.5949351531032
 30
0.0
 10
27.54956245601754
 20
206.2689423111303
 30
0.0
 10
29.03735482435188
 20
208.2654851015451
 30
0.0
 10
29.97789040658887
 20
209.9977753784815
 30
0.0
 10
30.54550025826246
 20
211.3310205364968
 30
0.0
 10
30.98249672424829
 20
212.6941823915402
 30
0.0
 10
31.21472947787658
 20
213.7401240177971
 30
0.0
 10
31.33114716475483
 20
214.4574771343311
 30
0.0
 10
31.38323587500704
 20
214.837566352793
 30
0.0
 10
31.42583737627175
 20
215.2184687533579
 30
0.0
 10
31.45901646224654
 20
215.6001922166767
 30
0.0
 10
31.48254254294439
 20
215.9827340759968
 30
0.0
 10
31.49727386787918
 20
216.366094532937
 30
0.0
 10
31.49909082786414
 20
216.6219665304052
 30
0.0
 10
31.5
 20
216.7499999997001
 30
0.0
  0
LINE
  5
C4
330
1F
100
AcDbEntity
  8
0
  6
Continuous
 62
     7
370
    25
100
AcDbLine
 10
163.75
 20
548.2
 30
0.0
 11
181.1890352404
 21
548.2
 31
0.0
  0
LINE
  5
C5
330
1F
100
AcDbEntity
  8
0
  6
Continuous
 62
     7
370
    25
100
AcDbLine
 10
181.1890352404
 20
548.2
 30
0.0
 11
181.1890352404
 21
1.3
 31
0.0
  0
LINE
  5
C6
330
1F
100
AcDbEntity
  8
0
  6
Continuous
 62
     7
370
    25
100
AcDbLine
 10
181.1890352404
 20
1.3
 30
0.0
 11
163.75
 21
1.3
 31
0.0
  0
LINE
  5
C7
330
1F
100
AcDbEntity
  8
0
  6
Continuous
 62
     7
370
    25
100
AcDbLine
 10
0.0
 20
0.25
 30
0.0
 11
162.4742649178
 21
0.25
 31
0.0
  0
LINE
  5
C8
330
1F
100
AcDbEntity
  8
0
  6
Continuous
 62
     7
370
    25
100
AcDbLine
 10
0.0
 20
549.25
 30
0.0
 11
0.0
 21
0.25
 31
0.0
  0
LINE
  5
C9
330
1F
100
AcDbEntity
  8
0
  6
Continuous
 62
     7
370
    25
100
AcDbLine
 10
162.4742649178
 20
549.25
 30
0.0
 11
0.0
 21
549.25
 31
0.0
  0
LINE
  5
CA
330
1F
100
AcDbEntity
  8
0
  6
Continuous
 62
     7
370
    25
100
AcDbLine
 10
21.6
 20
242.25
 30
0.0
 11
21.6
 21
216.7499999999
 31
0.0
  0
LINE
  5
CB
330
1F
100
AcDbEntity
  8
0
  6
Continuous
 62
     7
370
    25
100
AcDbLine
 10
25.9
 20
216.75
 30
0.0
 11
25.9
 21
242.2500000001
 31
0.0
  0
LINE
  5
CC
330
1F
100
AcDbEntity
  8
0
  6
Continuous
 62
     7
370
    25
100
AcDbLine
 10
146.1
 20
102.25
 30
0.0
 11
146.1
 21
92.25
 31
0.0
  0
LINE
  5
CD
330
1F
100
AcDbEntity
  8
0
  6
Continuous
 62
     7
370
    25
100
AcDbLine
 10
150.4
 20
92.25
 30
0.0
 11
150.4
 21
102.25
 31
0.0
  0
LINE
  5
CE
330
1F
100
AcDbEntity
  8
0
  6
Continuous
 62
     7
370
    25
100
AcDbLine
 10
25.9
 20
92.25
 30
0.0
 11
25.9
 21
102.25
 31
0.0
  0
LINE
  5
CF
330
1F
100
AcDbEntity
  8
0
  6
Continuous
 62
     7
370
    25
100
AcDbLine
 10
21.6
 20
102.25
 30
0.0
 11
21.6
 21
92.25
 31
0.0
  0
LINE
  5
D0
330
1F
100
AcDbEntity
  8
0
  6
Continuous
 62
     7
370
    25
100
AcDbLine
 10
150.4
 20
216.75
 30
0.0
 11
150.4
 21
242.2500000001
 31
0.0
  0
LINE
  5
D1
330
1F
100
AcDbEntity
  8
0
  6
Continuous
 62
     7
370
    25
100
AcDbLine
 10
146.1
 20
242.25
 30
0.0
 11
146.1
 21
216.7499999999
 31
0.0
  0
LINE
  5
D2
330
1F
100
AcDbEntity
  8
0
  6
Continuous
 62
     7
370
    25
100
AcDbLine
 10
21.6
 20
382.25
 30
0.0
 11
21.6
 21
356.7499999999
 31
0.0
  0
LINE
  5
D3
330
1F
100
AcDbEntity
  8
0
  6
Continuous
 62
     7
370
    25
100
AcDbLine
 10
25.9
 20
356.75
 30
0.0
 11
25.9
 21
382.2500000001
 31
0.0
  0
LINE
  5
D4
330
1F
100
AcDbEntity
  8
0
  6
Continuous
 62
     7
370
    25
100
AcDbLine
 10
150.4
 20
356.75
 30
0.0
 11
150.4
 21
382.2500000001
 31
0.0
  0
LINE
  5
D5
330
1F
100
AcDbEntity
  8
0
  6
Continuous
 62
     7
370
    25
100
AcDbLine
 10
146.1
 20
382.25
 30
0.0
 11
146.1
 21
356.7499999999
 31
0.0
  0
LINE
  5
D6
330
1F
100
AcDbEntity
  8
0
  6
Continuous
 62
     7
370
    25
100
AcDbLine
 10
146.1
 20
506.75
 30
0.0
 11
146.1
 21
496.75
 31
0.0
  0
LINE
  5
D7
330
1F
100
AcDbEntity
  8
0
  6
Continuous
 62
     7
370
    25
100
AcDbLine
 10
150.4
 20
496.75
 30
0.0
 11
150.4
 21
506.75
 31
0.0
  0
LINE
  5
D8
330
1F
100
AcDbEntity
  8
0
  6
Continuous
 62
     7
370
    25
100
AcDbLine
 10
25.9
 20
496.75
 30
0.0
 11
25.9
 21
506.75
 31
0.0
  0
LINE
  5
D9
330
1F
100
AcDbEntity
  8
0
  6
Continuous
 62
     7
370
    25
100
AcDbLine
 10
21.6
 20
506.75
 30
0.0
 11
21.6
 21
496.75
 31
0.0
  0
LINE
  5
DA
330
1F
100
AcDbEntity
  8
0
  6
Continuous
 62
     7
370
    25
100
AcDbLine
 10
136.0
 20
508.0
 30
0.0
 11
36.0
 21
508.0
 31
0.0
  0
LINE
  5
DB
330
1F
100
AcDbEntity
  8
0
  6
Continuous
 62
     7
370
    25
100
AcDbLine
 10
17.5
 20
489.5
 30
0.0
 11
17.5000000001
 21
397.6772486205
 31
0.0
  0
LINE
  5
DC
330
1F
100
AcDbEntity
  8
0
  6
Continuous
 62
     7
370
    25
100
AcDbLine
 10
31.5
 20
382.25
 30
0.0
 11
31.5
 21
371.0
 31
0.0
  0
LINE
  5
DD
330
1F
100
AcDbEntity
  8
0
  6
Continuous
 62
     7
370
    25
100
AcDbLine
 10
31.5
 20
371.0
 30
0.0
 11
140.5
 21
371.0
 31
0.0
  0
LINE
  5
DE
330
1F
100
AcDbEntity
  8
0
  6
Continuous
 62
     7
370
    25
100
AcDbLine
 10
140.5
 20
371.0
 30
0.0
 11
140.5
 21
382.2500000001
 31
0.0
  0
LINE
  5
DF
330
1F
100
AcDbEntity
  8
0
  6
Continuous
 62
     7
370
    25
100
AcDbLine
 10
154.5
 20
397.6772486205
 30
0.0
 11
154.5
 21
489.5
 31
0.0
  0
LINE
  5
E0
330
1F
100
AcDbEntity
  8
0
  6
Continuous
 62
     7
370
    25
100
AcDbLine
 10
31.5
 20
368.0
 30
0.0
 11
31.5
 21
356.7499999997
 31
0.0
  0
LINE
  5
E1
330
1F
100
AcDbEntity
  8
0
  6
Continuous
 62
     7
370
    25
100
AcDbLine
 10
17.5
 20
341.3227513795
 30
0.0
 11
17.5000000001
 21
257.6772486205
 31
0.0
  0
LINE
  5
E2
330
1F
100
AcDbEntity
  8
0
  6
Continuous
 62
     7
370
    25
100
AcDbLine
 10
31.5
 20
242.25
 30
0.0
 11
31.5
 21
231.0
 31
0.0
  0
LINE
  5
E3
330
1F
100
AcDbEntity
  8
0
  6
Continuous
 62
     7
370
    25
100
AcDbLine
 10
31.5
 20
231.0
 30
0.0
 11
140.5
 21
231.0
 31
0.0
  0
LINE
  5
E4
330
1F
100
AcDbEntity
  8
0
  6
Continuous
 62
     7
370
    25
100
AcDbLine
 10
140.5
 20
231.0
 30
0.0
 11
140.5
 21
242.2500000003
 31
0.0
  0
LINE
  5
E5
330
1F
100
AcDbEntity
  8
0
  6
Continuous
 62
     7
370
    25
100
AcDbLine
 10
154.5
 20
257.6772486205
 30
0.0
 11
154.4999999999
 21
341.3227513795
 31
0.0
  0
LINE
  5
E6
330
1F
100
AcDbEntity
  8
0
  6
Continuous
 62
     7
370
    25
100
AcDbLine
 10
140.5
 20
356.75
 30
0.0
 11
140.5
 21
368.0
 31
0.0
  0
LINE
  5
E7
330
1F
100
AcDbEntity
  8
0
  6
Continuous
 62
     7
370
    25
100
AcDbLine
 10
140.5
 20
368.0
 30
0.0
 11
31.5
 21
368.0
 31
0.0
  0
LINE
  5
E8
330
1F
100
AcDbEntity
  8
0
  6
Continuous
 62
     7
370
    25
100
AcDbLine
 10
17.5
 20
201.3227513795
 30
0.0
 11
17.5
 21
109.5
 31
0.0
  0
LINE
  5
E9
330
1F
100
AcDbEntity
  8
0
  6
Continuous
 62
     7
370
    25
100
AcDbLine
 10
36.0
 20
91.0
 30
0.0
 11
136.0
 21
91.0
 31
0.0
  0
LINE
  5
EA
330
1F
100
AcDbEntity
  8
0
  6
Continuous
 62
     7
370
    25
100
AcDbLine
 10
154.5
 20
109.5
 30
0.0
 11
154.4999999999
 21
201.3227513795
 31
0.0
  0
LINE
  5
EB
330
1F
100
AcDbEntity
  8
0
  6
Continuous
 62
     7
370
    25
100
AcDbLine
 10
140.5
 20
216.75
 30
0.0
 11
140.5
 21
228.0
 31
0.0
  0
LINE
  5
EC
330
1F
100
AcDbEntity
  8
0
  6
Continuous
 62
     7
370
    25
100
AcDbLine
 10
140.5
 20
228.0
 30
0.0
 11
31.5
 21
228.0
 31
0.0
  0
LINE
  5
ED
330
1F
100
AcDbEntity
  8
0
  6
Continuous
 62
     7
370
    25
100
AcDbLine
 10
31.5
 20
228.0
 30
0.0
 11
31.5
 21
216.75
 31
0.0
  0
ARC
  5
EE
330
1F
100
AcDbEntity
  8
0
  6
Continuous
 62
     7
370
    25
100
AcDbCircle
 10
163.75
 20
0.0
 30
0.0
 40
1.300000000000069
100
AcDbArc
 50
90.0
 51
168.912510789
  0
ARC
  5
EF
330
1F
100
AcDbEntity
  8
0
  6
Continuous
 62
     7
370
    25
100
AcDbCircle
 10
163.75
 20
549.5
 30
0.0
 40
1.300000000000205
100
AcDbArc
 50
191.087489211
 51
270.0
  0
ARC
  5
F0
330
1F
100
AcDbEntity
  8
0
  6
Continuous
 62
     7
370
    25
100
AcDbCircle
 10
148.25
 20
102.25
 30
0.0
 40
2.149999999983066
100
AcDbArc
 50
359.9999999995
 51
180.0
  0
ARC
  5
F1
330
1F
100
AcDbEntity
  8
0
  6
Continuous
 62
     7
370
    25
100
AcDbCircle
 10
148.25
 20
92.25
 30
0.0
 40
2.150000000000006
100
AcDbArc
 50
179.999999999
 51
0.0000000006
  0
ARC
  5
F2
330
1F
100
AcDbEntity
  8
0
  6
Continuous
 62
     7
370
    25
100
AcDbCircle
 10
23.75
 20
92.25
 30
0.0
 40
2.149999999983056
100
AcDbArc
 50
179.9999999995
 51
0.0
  0
ARC
  5
F3
330
1F
100
AcDbEntity
  8
0
  6
Continuous
 62
     7
370
    25
100
AcDbCircle
 10
23.75
 20
102.25
 30
0.0
 40
2.150000000000002
100
AcDbArc
 50
359.999999999
 51
180.0000000006
  0
ARC
  5
F4
330
1F
100
AcDbEntity
  8
0
  6
Continuous
 62
     7
370
    25
100
AcDbCircle
 10
148.25
 20
506.75
 30
0.0
 40
2.149999999982953
100
AcDbArc
 50
359.9999999995
 51
180.0
  0
ARC
  5
F5
330
1F
100
AcDbEntity
  8
0
  6
Continuous
 62
     7
370
    25
100
AcDbCircle
 10
148.25
 20
496.75
 30
0.0
 40
2.150000000000006
100
AcDbArc
 50
179.999999999
 51
0.0000000006
  0
ARC
  5
F6
330
1F
100
AcDbEntity
  8
0
  6
Continuous
 62
     7
370
    25
100
AcDbCircle
 10
23.75
 20
496.75
 30
0.0
 40
2.149999999982956
100
AcDbArc
 50
179.9999999995
 51
0.0
  0
ARC
  5
F7
330
1F
100
AcDbEntity
  8
0
  6
Continuous
 62
     7
370
    25
100
AcDbCircle
 10
23.75
 20
506.75
 30
0.0
 40
2.149999999999988
100
AcDbArc
 50
359.999999999
 51
180.0000000006
  0
ARC
  5
F8
330
1F
100
AcDbEntity
  8
0
  6
Continuous
 62
     7
370
    25
100
AcDbCircle
 10
16.0000000002
 20
509.4999999998
 30
0.0
 40
20.05617111990467
100
AcDbArc
 50
274.2891533284
 51
355.7108466717
  0
ARC
  5
F9
330
1F
100
AcDbEntity
  8
0
  6
Continuous
 62
     7
370
    25
100
AcDbCircle
 10
155.9999999998
 20
509.4999999998
 30
0.0
 40
20.05617111990792
100
AcDbArc
 50
184.2891533284
 51
265.7108466717
  0
ARC
  5
FA
330
1F
100
AcDbEntity
  8
0
  6
Continuous
 62
     7
370
    25
100
AcDbCircle
 10
16.0000000002
 20
89.5000000002
 30
0.0
 40
20.05617111990454
100
AcDbArc
 50
4.2891533284
 51
85.7108466717
  0
ARC
  5
FB
330
1F
100
AcDbEntity
  8
0
  6
Continuous
 62
     7
370
    25
100
AcDbCircle
 10
155.9999999998
 20
89.5000000002
 30
0.0
 40
20.05617111990467
100
AcDbArc
 50
94.2891533284
 51
175.7108466717
  0
ENDSEC
  0
SECTION
  2
OBJECTS
  0
DICTIONARY
  5
C
330
0
100
AcDbDictionary
281
     1
  3
ACAD_DETAILVIEWSTYLE
350
103
  3
ACAD_GROUP
350
D
  3
ACAD_LAYOUT
350
1A
  3
ACAD_MATERIAL
350
43
  3
ACAD_MLEADERSTYLE
350
6B
  3
ACAD_MLINESTYLE
350
17
  3
ACAD_PLOTSETTINGS
350
19
  3
ACAD_PLOTSTYLENAME
350
E
  3
ACAD_SCALELIST
350
47
  3
ACAD_SECTIONVIEWSTYLE
350
104
  3
ACAD_TABLESTYLE
350
69
  3
ACAD_VISUALSTYLE
350
2A
  3
ACDB_RECOMPOSE_DATA
350
100
  3
AcDbVariableDictionary
350
FC
  0
SUN
  5
6D
330
29
100
AcDbSun
 90
        1
290
     0
 63
     7
421
 16777215
 40
1.0
291
     1
 91
  2455826
 92
 54000000
292
     0
 70
     2
 71
   256
280
     1
  0
DICTIONARY
  5
103
102
{ACAD_REACTORS
330
C
102
}
330
C
100
AcDbDictionary
281
     1
  0
DICTIONARY
  5
D
102
{ACAD_REACTORS
330
C
102
}
330
C
100
AcDbDictionary
281
     1
  0
DICTIONARY
  5
1A
102
{ACAD_REACTORS
330
C
102
}
330
C
100
AcDbDictionary
281
     1
  3
Layout1
350
1E
  3
Layout2
350
26
  3
Model
350
22
  0
DICTIONARY
  5
43
102
{ACAD_REACTORS
330
C
102
}
330
C
100
AcDbDictionary
281
     1
  3
ByBlock
350
45
  3
ByLayer
350
44
  3
Global
350
46
  0
DICTIONARY
  5
6B
102
{ACAD_REACTORS
330
C
102
}
330
C
100
AcDbDictionary
281
     1
  3
Standard
350
6C
  0
DICTIONARY
  5
17
102
{ACAD_REACTORS
330
C
102
}
330
C
100
AcDbDictionary
281
     1
  3
Standard
350
18
  0
DICTIONARY
  5
19
102
{ACAD_REACTORS
330
C
102
}
330
C
100
AcDbDictionary
281
     1
  0
ACDBDICTIONARYWDFLT
  5
E
102
{ACAD_REACTORS
330
C
102
}
330
C
100
AcDbDictionary
281
     1
  3
Normal
350
F
100
AcDbDictionaryWithDefault
340
F
  0
DICTIONARY
  5
47
102
{ACAD_REACTORS
330
C
102
}
330
C
100
AcDbDictionary
281
     1
  3
A0
350
48
  3
A1
350
49
  3
A2
350
4A
  3
A3
350
4B
  3
A4
350
4C
  3
A5
350
4D
  3
A6
350
4E
  3
A7
350
4F
  3
A8
350
50
  3
A9
350
51
  3
B0
350
52
  3
B1
350
53
  3
B2
350
54
  3
B3
350
55
  3
B4
350
56
  3
B5
350
57
  3
B6
350
58
  3
B7
350
59
  3
B8
350
5A
  3
B9
350
5B
  3
C0
350
5C
  3
C1
350
5D
  3
C2
350
5E
  3
C3
350
5F
  3
C4
350
60
  3
C5
350
61
  3
C6
350
62
  3
C7
350
63
  3
C8
350
64
  3
C9
350
65
  3
D0
350
66
  3
D1
350
67
  3
D2
350
68
  0
DICTIONARY
  5
104
102
{ACAD_REACTORS
330
C
102
}
330
C
100
AcDbDictionary
281
     1
  0
DICTIONARY
  5
69
102
{ACAD_REACTORS
330
C
102
}
330
C
100
AcDbDictionary
281
     1
  3
Standard
350
6A
  0
DICTIONARY
  5
2A
102
{ACAD_REACTORS
330
C
102
}
330
C
100
AcDbDictionary
281
     1
  3
2dWireframe
350
2F
  3
Basic
350
32
  3
Brighten
350
36
  3
ColorChange
350
3A
  3
Conceptual
350
34
  3
Dim
350
35
  3
EdgeColorOff
350
3D
  3
Facepattern
350
39
  3
Flat
350
2B
  3
FlatWithEdges
350
2C
  3
Gouraud
350
2D
  3
GouraudWithEdges
350
2E
  3
Hidden
350
31
  3
JitterOff
350
3B
  3
Linepattern
350
38
  3
OverhangOff
350
3C
  3
Realistic
350
33
  3
Shaded
350
42
  3
Shaded with edges
350
41
  3
Shades of Gray
350
3E
  3
Sketchy
350
3F
  3
Thicken
350
37
  3
Wireframe
350
30
  3
X-Ray
350
40
  0
XRECORD
  5
100
102
{ACAD_REACTORS
330
C
102
}
330
C
100
AcDbXrecord
280
     1
 90
        1
330
6A
  0
DICTIONARY
  5
FC
102
{ACAD_REACTORS
330
C
102
}
330
C
100
AcDbDictionary
281
     1
  3
CANNOSCALE
350
FD
  3
CMLEADERSTYLE
350
102
  3
CTABLESTYLE
350
101
  3
SECTIONTHICKNESSINC
350
105
  0
LAYOUT
  5
1E
102
{ACAD_REACTORS
330
1A
102
}
330
1A
100
AcDbPlotSettings
  1

  2
none_device
  4

  6

 40
0.0
 41
0.0
 42
0.0
 43
0.0
 44
0.0
 45
0.0
 46
0.0
 47
0.0
 48
0.0
 49
0.0
140
0.0
141
0.0
142
1.0
143
1.0
 70
   688
 72
     1
 73
     0
 74
     5
  7

 75
    16
 76
     0
 77
     2
 78
   300
147
1.0
148
0.0
149
0.0
100
AcDbLayout
  1
Layout1
 70
     1
 71
     1
 10
0.0
 20
0.0
 11
420.0
 21
297.0
 12
0.0
 22
0.0
 32
0.0
 14
1.0000000000E+20
 24
1.0000000000E+20
 34
1.0000000000E+20
 15
-1.0000000000E+20
 25
-1.0000000000E+20
 35
-1.0000000000E+20
146
0.0
 13
0.0
 23
0.0
 33
0.0
 16
1.0
 26
0.0
 36
0.0
 17
0.0
 27
1.0
 37
0.0
 76
     0
330
1B
  0
LAYOUT
  5
26
102
{ACAD_REACTORS
330
1A
102
}
330
1A
100
AcDbPlotSettings
  1

  2
none_device
  4

  6

 40
0.0
 41
0.0
 42
0.0
 43
0.0
 44
0.0
 45
0.0
 46
0.0
 47
0.0
 48
0.0
 49
0.0
140
0.0
141
0.0
142
1.0
143
1.0
 70
   688
 72
     1
 73
     0
 74
     5
  7

 75
    16
 76
     0
 77
     2
 78
   300
147
1.0
148
0.0
149
0.0
100
AcDbLayout
  1
Layout2
 70
     1
 71
     2
 10
0.0
 20
0.0
 11
0.0
 21
0.0
 12
0.0
 22
0.0
 32
0.0
 14
0.0
 24
0.0
 34
0.0
 15
0.0
 25
0.0
 35
0.0
146
0.0
 13
0.0
 23
0.0
 33
0.0
 16
1.0
 26
0.0
 36
0.0
 17
0.0
 27
1.0
 37
0.0
 76
     0
330
23
  0
LAYOUT
  5
22
102
{ACAD_REACTORS
330
1A
102
}
330
1A
100
AcDbPlotSettings
  1

  2
none_device
  4
ANSI_A_(11.00_x_8.50_Inches)
  6

 40
6.35
 41
19.05
 42
6.35000508
 43
19.05000254
 44
279.4
 45
215.9
 46
98.0790269852
 47
-18.0678332372
 48
0.0
 49
0.0
140
0.0
141
0.0
142
0.0153278689
143
1.0
 70
  1696
 72
     0
 73
     0
 74
     0
  7

 75
     0
 76
     0
 77
     2
 78
   300
147
0.0179189148
148
-1300.4909072572
149
0.0
100
AcDbLayout
  1
Model
 70
     1
 71
     0
 10
0.0
 20
0.0
 11
420.0
 21
297.0
 12
0.0
 22
0.0
 32
0.0
 14
0.0
 24
0.25
 34
0.0
 15
181.1890352404
 25
549.25
 35
0.0
146
0.0
 13
0.0
 23
0.0
 33
0.0
 16
1.0
 26
0.0
 36
0.0
 17
0.0
 27
1.0
 37
0.0
 76
     0
330
1F
331
29
  0
MATERIAL
  5
45
102
{ACAD_REACTORS
330
43
102
}
330
43
100
AcDbMaterial
  1
ByBlock
 72
     1
 94
      127
  0
MATERIAL
  5
44
102
{ACAD_REACTORS
330
43
102
}
330
43
100
AcDbMaterial
  1
ByLayer
 72
     1
 94
      127
  0
MATERIAL
  5
46
102
{ACAD_REACTORS
330
43
102
}
330
43
100
AcDbMaterial
  1
Global
 72
     1
 94
      127
  0
MLEADERSTYLE
  5
6C
102
{ACAD_REACTORS
330
6B
102
}
330
6B
100
AcDbMLeaderStyle
179
     2
170
     2
171
     1
172
     0
 90
        2
 40
0.0
 41
0.0
173
     1
 91
-1056964608
340
14
 92
       -2
290
     1
 42
2.0
291
     1
 43
8.0
  3
Standard
341
0
 44
4.0
300

342
11
174
     1
178
     6
175
     1
176
     0
 93
-1056964608
 45
4.0
292
     0
297
     0
 46
4.0
343
0
 94
-1056964608
 47
1.0
 49
1.0
140
1.0
293
     1
141
0.0
294
     1
177
     0
142
1.0
295
     0
296
     0
143
3.75
271
     0
272
     9
273
     9
298
     0
  0
MLINESTYLE
  5
18
102
{ACAD_REACTORS
330
17
102
}
330
17
100
AcDbMlineStyle
  2
Standard
 70
     0
  3

 62
   256
 51
90.0
 52
90.0
 71
     2
 49
0.5
 62
   256
  6
BYLAYER
 49
-0.5
 62
   256
  6
BYLAYER
  0
ACDBPLACEHOLDER
  5
F
102
{ACAD_REACTORS
330
E
102
}
330
E
  0
SCALE
  5
48
102
{ACAD_REACTORS
330
47
102
}
330
47
100
AcDbScale
 70
     0
300
1:1
140
1.0
141
1.0
290
     1
  0
SCALE
  5
49
102
{ACAD_REACTORS
330
47
102
}
330
47
100
AcDbScale
 70
     0
300
1:2
140
1.0
141
2.0
290
     0
  0
SCALE
  5
4A
102
{ACAD_REACTORS
330
47
102
}
330
47
100
AcDbScale
 70
     0
300
1:4
140
1.0
141
4.0
290
     0
  0
SCALE
  5
4B
102
{ACAD_REACTORS
330
47
102
}
330
47
100
AcDbScale
 70
     0
300
1:5
140
1.0
141
5.0
290
     0
  0
SCALE
  5
4C
102
{ACAD_REACTORS
330
47
102
}
330
47
100
AcDbScale
 70
     0
300
1:8
140
1.0
141
8.0
290
     0
  0
SCALE
  5
4D
102
{ACAD_REACTORS
330
47
102
}
330
47
100
AcDbScale
 70
     0
300
1:10
140
1.0
141
10.0
290
     0
  0
SCALE
  5
4E
102
{ACAD_REACTORS
330
47
102
}
330
47
100
AcDbScale
 70
     0
300
1:16
140
1.0
141
16.0
290
     0
  0
SCALE
  5
4F
102
{ACAD_REACTORS
330
47
102
}
330
47
100
AcDbScale
 70
     0
300
1:20
140
1.0
141
20.0
290
     0
  0
SCALE
  5
50
102
{ACAD_REACTORS
330
47
102
}
330
47
100
AcDbScale
 70
     0
300
1:30
140
1.0
141
30.0
290
     0
  0
SCALE
  5
51
102
{ACAD_REACTORS
330
47
102
}
330
47
100
AcDbScale
 70
     0
300
1:40
140
1.0
141
40.0
290
     0
  0
SCALE
  5
52
102
{ACAD_REACTORS
330
47
102
}
330
47
100
AcDbScale
 70
     0
300
1:50
140
1.0
141
50.0
290
     0
  0
SCALE
  5
53
102
{ACAD_REACTORS
330
47
102
}
330
47
100
AcDbScale
 70
     0
300
1:100
140
1.0
141
100.0
290
     0
  0
SCALE
  5
54
102
{ACAD_REACTORS
330
47
102
}
330
47
100
AcDbScale
 70
     0
300
2:1
140
2.0
141
1.0
290
     0
  0
SCALE
  5
55
102
{ACAD_REACTORS
330
47
102
}
330
47
100
AcDbScale
 70
     0
300
4:1
140
4.0
141
1.0
290
     0
  0
SCALE
  5
56
102
{ACAD_REACTORS
330
47
102
}
330
47
100
AcDbScale
 70
     0
300
8:1
140
8.0
141
1.0
290
     0
  0
SCALE
  5
57
102
{ACAD_REACTORS
330
47
102
}
330
47
100
AcDbScale
 70
     0
300
10:1
140
10.0
141
1.0
290
     0
  0
SCALE
  5
58
102
{ACAD_REACTORS
330
47
102
}
330
47
100
AcDbScale
 70
     0
300
100:1
140
100.0
141
1.0
290
     0
  0
SCALE
  5
59
102
{ACAD_REACTORS
330
47
102
}
330
47
100
AcDbScale
 70
     0
300
1/128" = 1'-0"
140
0.0078125
141
12.0
290
     0
  0
SCALE
  5
5A
102
{ACAD_REACTORS
330
47
102
}
330
47
100
AcDbScale
 70
     0
300
1/64" = 1'-0"
140
0.015625
141
12.0
290
     0
  0
SCALE
  5
5B
102
{ACAD_REACTORS
330
47
102
}
330
47
100
AcDbScale
 70
     0
300
1/32" = 1'-0"
140
0.03125
141
12.0
290
     0
  0
SCALE
  5
5C
102
{ACAD_REACTORS
330
47
102
}
330
47
100
AcDbScale
 70
     0
300
1/16" = 1'-0"
140
0.0625
141
12.0
290
     0
  0
SCALE
  5
5D
102
{ACAD_REACTORS
330
47
102
}
330
47
100
AcDbScale
 70
     0
300
3/32" = 1'-0"
140
0.09375
141
12.0
290
     0
  0
SCALE
  5
5E
102
{ACAD_REACTORS
330
47
102
}
330
47
100
AcDbScale
 70
     0
300
1/8" = 1'-0"
140
0.125
141
12.0
290
     0
  0
SCALE
  5
5F
102
{ACAD_REACTORS
330
47
102
}
330
47
100
AcDbScale
 70
     0
300
3/16" = 1'-0"
140
0.1875
141
12.0
290
     0
  0
SCALE
  5
60
102
{ACAD_REACTORS
330
47
102
}
330
47
100
AcDbScale
 70
     0
300
1/4" = 1'-0"
140
0.25
141
12.0
290
     0
  0
SCALE
  5
61
102
{ACAD_REACTORS
330
47
102
}
330
47
100
AcDbScale
 70
     0
300
3/8" = 1'-0"
140
0.375
141
12.0
290
     0
  0
SCALE
  5
62
102
{ACAD_REACTORS
330
47
102
}
330
47
100
AcDbScale
 70
     0
300
1/2" = 1'-0"
140
0.5
141
12.0
290
     0
  0
SCALE
  5
63
102
{ACAD_REACTORS
330
47
102
}
330
47
100
AcDbScale
 70
     0
300
3/4" = 1'-0"
140
0.75
141
12.0
290
     0
  0
SCALE
  5
64
102
{ACAD_REACTORS
330
47
102
}
330
47
100
AcDbScale
 70
     0
300
1" = 1'-0"
140
1.0
141
12.0
290
     0
  0
SCALE
  5
65
102
{ACAD_REACTORS
330
47
102
}
330
47
100
AcDbScale
 70
     0
300
1-1/2" = 1'-0"
140
1.5
141
12.0
290
     0
  0
SCALE
  5
66
102
{ACAD_REACTORS
330
47
102
}
330
47
100
AcDbScale
 70
     0
300
3" = 1'-0"
140
3.0
141
12.0
290
     0
  0
SCALE
  5
67
102
{ACAD_REACTORS
330
47
102
}
330
47
100
AcDbScale
 70
     0
300
6" = 1'-0"
140
6.0
141
12.0
290
     0
  0
SCALE
  5
68
102
{ACAD_REACTORS
330
47
102
}
330
47
100
AcDbScale
 70
     0
300
1'-0" = 1'-0"
140
12.0
141
12.0
290
     0
  0
TABLESTYLE
  5
6A
102
{ACAD_REACTORS
330
69
102
}
102
{ACAD_XDICTIONARY
360
FE
102
}
330
69
100
AcDbTableStyle
  3
Standard
 70
     0
 71
     0
 40
0.06
 41
0.06
280
     0
281
     0
  7
Standard
140
4.5
170
     2
 62
     0
 63
   257
283
     0
 90
        4
 91
        0
  1

274
    -2
284
     1
 64
     0
275
    -2
285
     1
 65
     0
276
    -2
286
     1
 66
     0
277
    -2
287
     1
 67
     0
278
    -2
288
     1
 68
     0
279
    -2
289
     1
 69
     0
  7
Standard
140
6.0
170
     5
 62
     0
 63
   257
283
     0
 90
        4
 91
        0
  1

274
    -2
284
     1
 64
     0
275
    -2
285
     1
 65
     0
276
    -2
286
     1
 66
     0
277
    -2
287
     1
 67
     0
278
    -2
288
     1
 68
     0
279
    -2
289
     1
 69
     0
  7
Standard
140
4.5
170
     5
 62
     0
 63
   257
283
     0
 90
        4
 91
        0
  1

274
    -2
284
     1
 64
     0
275
    -2
285
     1
 65
     0
276
    -2
286
     1
 66
     0
277
    -2
287
     1
 67
     0
278
    -2
288
     1
 68
     0
279
    -2
289
     1
 69
     0
  0
VISUALSTYLE
  5
2F
102
{ACAD_REACTORS
330
2A
102
}
330
2A
100
AcDbVisualStyle
  2
2dWireframe
 70
     4
177
     3
291
     0
 70
    58
 90
        0
176
     1
 90
        2
176
     1
 90
        0
176
     1
 90
        0
176
     1
 40
0.6
176
     1
 40
30.0
176
     1
 62
     7
420
 16777215
176
     1
 90
        1
176
     1
 90
        4
176
     1
 62
     7
176
     1
 62
   257
176
     1
 90
        1
176
     1
 90
        1
176
     1
 40
1.0
176
     1
 90
        0
176
     1
 62
   257
176
     1
 40
1.0
176
     1
 90
        1
176
     1
 90
        6
176
     1
 90
        2
176
     1
 62
     7
176
     1
 90
        5
176
     1
 90
        0
176
     1
 90
        0
176
     1
290
     0
176
     1
 90
        1
176
     1
 40
0.0
176
     1
 90
        0
176
     1
290
     1
176
     1
290
     1
176
     1
290
     0
176
     1
290
     0
176
     1
290
     0
176
     1
290
     0
176
     1
290
     0
176
     1
290
     0
176
     1
290
     0
176
     1
 90
       50
176
     1
 40
0.0
176
     1
 40
1.0
176
     1
 90
        0
176
     1
 62
    18
420
        0
176
     1
 90
       50
176
     1
 90
        3
176
     1
 62
     5
420
      255
176
     1
290
     0
176
     1
 90
       50
176
     1
 90
       50
176
     1
 90
       50
176
     1
290
     0
176
     1
 90
       50
176
     1
 62
   256
176
     0
 40
1.0
176
     0
 90
        2
176
     1
  1
strokes_ogs.tif
176
     1
290
     0
176
     1
 40
1.0
176
     1
 40
1.0
176
     1
  0
VISUALSTYLE
  5
32
102
{ACAD_REACTORS
330
2A
102
}
330
2A
100
AcDbVisualStyle
  2
Basic
 70
     7
177
     3
291
     1
 70
    58
 90
        1
176
     1
 90
        0
176
     1
 90
        1
176
     1
 90
        0
176
     1
 40
0.6
176
     1
 40
30.0
176
     1
 62
     7
420
 16777215
176
     1
 90
        0
176
     1
 90
        4
176
     1
 62
     7
176
     1
 62
   257
176
     1
 90
        1
176
     1
 90
        1
176
     1
 40
1.0
176
     1
 90
        8
176
     1
 62
     7
176
     1
 40
1.0
176
     1
 90
        1
176
     1
 90
        6
176
     1
 90
        2
176
     1
 62
     7
176
     1
 90
        5
176
     1
 90
        0
176
     1
 90
        0
176
     1
290
     0
176
     1
 90
        1
176
     1
 40
0.0
176
     1
 90
        0
176
     1
290
     0
176
     1
290
     1
176
     1
290
     1
176
     1
290
     0
176
     1
290
     0
176
     1
290
     0
176
     1
290
     0
176
     1
290
     0
176
     1
290
     0
176
     1
 90
       50
176
     1
 40
0.0
176
     1
 40
1.0
176
     1
 90
        0
176
     1
 62
    18
420
        0
176
     1
 90
       50
176
     1
 90
        3
176
     1
 62
     5
420
      255
176
     1
290
     0
176
     1
 90
       50
176
     1
 90
       50
176
     1
 90
       50
176
     1
290
     0
176
     1
 90
       50
176
     1
 62
   256
176
     0
 40
1.0
176
     0
 90
        2
176
     1
  1
strokes_ogs.tif
176
     1
290
     0
176
     1
 40
1.0
176
     1
 40
1.0
176
     1
  0
VISUALSTYLE
  5
36
102
{ACAD_REACTORS
330
2A
102
}
330
2A
100
AcDbVisualStyle
  2
Brighten
 70
    12
177
     3
291
     1
 70
    58
 90
        2
176
     1
 90
        2
176
     1
 90
        0
176
     1
 90
        0
176
     1
 40
0.6
176
     1
 40
30.0
176
     1
 62
     7
420
 16777215
176
     1
 90
        1
176
     1
 90
        4
176
     1
 62
     7
176
     1
 62
   257
176
     1
 90
        1
176
     1
 90
        1
176
     1
 40
1.0
176
     1
 90
        8
176
     1
 62
     7
176
     1
 40
1.0
176
     1
 90
        1
176
     1
 90
        6
176
     1
 90
        2
176
     1
 62
     7
176
     1
 90
        5
176
     1
 90
        0
176
     1
 90
        0
176
     1
290
     0
176
     1
 90
        1
176
     1
 40
50.0
176
     1
 90
        0
176
     1
290
     0
176
     1
290
     1
176
     1
290
     1
176
     1
290
     0
176
     1
290
     0
176
     1
290
     0
176
     1
290
     0
176
     1
290
     0
176
     1
290
     0
176
     1
 90
       50
176
     1
 40
0.0
176
     1
 40
1.0
176
     1
 90
        0
176
     1
 62
    18
420
        0
176
     1
 90
       50
176
     1
 90
        3
176
     1
 62
     5
420
      255
176
     1
290
     0
176
     1
 90
       50
176
     1
 90
       50
176
     1
 90
       50
176
     1
290
     0
176
     1
 90
       50
176
     1
 62
   256
176
     0
 40
1.0
176
     0
 90
        2
176
     1
  1
strokes_ogs.tif
176
     1
290
     0
176
     1
 40
1.0
176
     1
 40
1.0
176
     1
  0
VISUALSTYLE
  5
3A
102
{ACAD_REACTORS
330
2A
102
}
330
2A
100
AcDbVisualStyle
  2
ColorChange
 70
    16
177
     3
291
     1
 70
    58
 90
        2
176
     1
 90
        2
176
     1
 90
        3
176
     1
 90
        0
176
     1
 40
0.6
176
     1
 40
30.0
176
     1
 62
     8
420
  8421504
176
     1
 90
        1
176
     1
 90
        4
176
     1
 62
     7
176
     1
 62
   257
176
     1
 90
        1
176
     1
 90
        1
176
     1
 40
1.0
176
     1
 90
        8
176
     1
 62
     8
420
  8421504
176
     1
 40
1.0
176
     1
 90
        1
176
     1
 90
        6
176
     1
 90
        2
176
     1
 62
     7
176
     1
 90
        5
176
     1
 90
        0
176
     1
 90
        0
176
     1
290
     0
176
     1
 90
        1
176
     1
 40
0.0
176
     1
 90
        0
176
     1
290
     0
176
     1
290
     1
176
     1
290
     1
176
     1
290
     0
176
     1
290
     0
176
     1
290
     0
176
     1
290
     0
176
     1
290
     0
176
     1
290
     0
176
     1
 90
       50
176
     1
 40
0.0
176
     1
 40
1.0
176
     1
 90
        0
176
     1
 62
    18
420
        0
176
     1
 90
       50
176
     1
 90
        3
176
     1
 62
     5
420
      255
176
     1
290
     0
176
     1
 90
       50
176
     1
 90
       50
176
     1
 90
       50
176
     1
290
     0
176
     1
 90
       50
176
     1
 62
   256
176
     0
 40
1.0
176
     0
 90
        2
176
     1
  1
strokes_ogs.tif
176
     1
290
     0
176
     1
 40
1.0
176
     1
 40
1.0
176
     1
  0
VISUALSTYLE
  5
34
102
{ACAD_REACTORS
330
2A
102
}
330
2A
100
AcDbVisualStyle
  2
Conceptual
 70
     9
177
     3
291
     0
 70
    58
 90
        3
176
     1
 90
        2
176
     1
 90
        0
176
     1
 90
        0
176
     1
 40
0.6
176
     1
 40
30.0
176
     1
 62
     7
420
 16777215
176
     1
 90
        2
176
     1
 90
        2
176
     1
 62
     7
176
     1
 62
   257
176
     1
 90
        1
176
     1
 90
        1
176
     1
 40
179.0
176
     1
 90
        8
176
     1
 62
     7
176
     1
 40
1.0
176
     1
 90
        1
176
     1
 90
        6
176
     1
 90
        2
176
     1
 62
     7
176
     1
 90
        3
176
     1
 90
        0
176
     1
 90
        0
176
     1
290
     0
176
     1
 90
        1
176
     1
 40
0.0
176
     1
 90
        0
176
     1
290
     0
176
     1
290
     1
176
     1
290
     1
176
     1
290
     0
176
     1
290
     0
176
     1
290
     0
176
     1
290
     0
176
     1
290
     0
176
     1
290
     0
176
     1
 90
       50
176
     1
 40
0.0
176
     1
 40
1.0
176
     1
 90
        0
176
     1
 62
    18
420
        0
176
     1
 90
       50
176
     1
 90
        3
176
     1
 62
     5
420
      255
176
     1
290
     0
176
     1
 90
       50
176
     1
 90
       50
176
     1
 90
       50
176
     1
290
     0
176
     1
 90
       50
176
     1
 62
   256
176
     0
 40
1.0
176
     0
 90
        2
176
     1
  1
strokes_ogs.tif
176
     1
290
     0
176
     1
 40
1.0
176
     1
 40
1.0
176
     1
  0
VISUALSTYLE
  5
35
102
{ACAD_REACTORS
330
2A
102
}
330
2A
100
AcDbVisualStyle
  2
Dim
 70
    11
177
     3
291
     1
 70
    58
 90
        2
176
     1
 90
        2
176
     1
 90
        0
176
     1
 90
        0
176
     1
 40
0.6
176
     1
 40
30.0
176
     1
 62
     7
420
 16777215
176
     1
 90
        1
176
     1
 90
        4
176
     1
 62
     7
176
     1
 62
   257
176
     1
 90
        1
176
     1
 90
        1
176
     1
 40
1.0
176
     1
 90
        8
176
     1
 62
     7
176
     1
 40
1.0
176
     1
 90
        1
176
     1
 90
        6
176
     1
 90
        2
176
     1
 62
     7
176
     1
 90
        5
176
     1
 90
        0
176
     1
 90
        0
176
     1
290
     0
176
     1
 90
        1
176
     1
 40
-50.0
176
     1
 90
        0
176
     1
290
     0
176
     1
290
     1
176
     1
290
     1
176
     1
290
     0
176
     1
290
     0
176
     1
290
     0
176
     1
290
     0
176
     1
290
     0
176
     1
290
     0
176
     1
 90
       50
176
     1
 40
0.0
176
     1
 40
1.0
176
     1
 90
        0
176
     1
 62
    18
420
        0
176
     1
 90
       50
176
     1
 90
        3
176
     1
 62
     5
420
      255
176
     1
290
     0
176
     1
 90
       50
176
     1
 90
       50
176
     1
 90
       50
176
     1
290
     0
176
     1
 90
       50
176
     1
 62
   256
176
     0
 40
1.0
176
     0
 90
        2
176
     1
  1
strokes_ogs.tif
176
     1
290
     0
176
     1
 40
1.0
176
     1
 40
1.0
176
     1
  0
VISUALSTYLE
  5
3D
102
{ACAD_REACTORS
330
2A
102
}
330
2A
100
AcDbVisualStyle
  2
EdgeColorOff
 70
    22
177
     3
291
     1
 70
    58
 90
        2
176
     0
 90
        2
176
     0
 90
        0
176
     0
 90
        0
176
     0
 40
0.6
176
     0
 40
30.0
176
     0
 62
     7
420
 16777215
176
     0
 90
        1
176
     0
 90
        4
176
     0
 62
     7
176
     0
 62
   257
176
     0
 90
        1
176
     0
 90
        1
176
     0
 40
1.0
176
     0
 90
        8
176
     2
 62
     7
176
     0
 40
1.0
176
     0
 90
        1
176
     0
 90
        6
176
     0
 90
        2
176
     0
 62
     7
176
     0
 90
        5
176
     0
 90
        0
176
     0
 90
        0
176
     0
290
     0
176
     0
 90
        1
176
     0
 40
0.0
176
     0
 90
        0
176
     0
290
     0
176
     0
290
     1
176
     0
290
     1
176
     0
290
     0
176
     0
290
     0
176
     0
290
     0
176
     0
290
     0
176
     0
290
     0
176
     0
290
     0
176
     0
 90
       50
176
     0
 40
0.0
176
     0
 40
1.0
176
     0
 90
        0
176
     0
 62
    18
420
        0
176
     0
 90
       50
176
     0
 90
        3
176
     0
 62
     5
420
      255
176
     0
290
     0
176
     0
 90
       50
176
     0
 90
       50
176
     0
 90
       50
176
     0
290
     0
176
     0
 90
       50
176
     0
 62
   256
176
     0
 40
1.0
176
     0
 90
        2
176
     0
  1
strokes_ogs.tif
176
     0
290
     0
176
     0
 40
1.0
176
     0
 40
1.0
176
     0
  0
VISUALSTYLE
  5
39
102
{ACAD_REACTORS
330
2A
102
}
330
2A
100
AcDbVisualStyle
  2
Facepattern
 70
    15
177
     3
291
     1
 70
    58
 90
        2
176
     1
 90
        2
176
     1
 90
        0
176
     1
 90
        0
176
     1
 40
0.6
176
     1
 40
30.0
176
     1
 62
     7
420
 16777215
176
     1
 90
        1
176
     1
 90
        4
176
     1
 62
     7
176
     1
 62
   257
176
     1
 90
        1
176
     1
 90
        1
176
     1
 40
1.0
176
     1
 90
        8
176
     1
 62
     7
176
     1
 40
1.0
176
     1
 90
        1
176
     1
 90
        6
176
     1
 90
        2
176
     1
 62
     7
176
     1
 90
        5
176
     1
 90
        0
176
     1
 90
        0
176
     1
290
     0
176
     1
 90
        1
176
     1
 40
0.0
176
     1
 90
        0
176
     1
290
     0
176
     1
290
     1
176
     1
290
     1
176
     1
290
     0
176
     1
290
     0
176
     1
290
     0
176
     1
290
     0
176
     1
290
     0
176
     1
290
     0
176
     1
 90
       50
176
     1
 40
0.0
176
     1
 40
1.0
176
     1
 90
        0
176
     1
 62
    18
420
        0
176
     1
 90
       50
176
     1
 90
        3
176
     1
 62
     5
420
      255
176
     1
290
     0
176
     1
 90
       50
176
     1
 90
       50
176
     1
 90
       50
176
     1
290
     0
176
     1
 90
       50
176
     1
 62
   256
176
     0
 40
1.0
176
     0
 90
        2
176
     1
  1
strokes_ogs.tif
176
     1
290
     0
176
     1
 40
1.0
176
     1
 40
1.0
176
     1
  0
VISUALSTYLE
  5
2B
102
{ACAD_REACTORS
330
2A
102
}
330
2A
100
AcDbVisualStyle
  2
Flat
 70
     0
177
     3
291
     1
 70
    58
 90
        2
176
     1
 90
        1
176
     1
 90
        1
176
     1
 90
        2
176
     1
 40
0.6
176
     1
 40
30.0
176
     1
 62
     7
420
 16777215
176
     1
 90
        0
176
     1
 90
        0
176
     1
 62
     7
176
     1
 62
   257
176
     1
 90
        1
176
     1
 90
        1
176
     1
 40
1.0
176
     1
 90
        8
176
     1
 62
     7
176
     1
 40
1.0
176
     1
 90
        1
176
     1
 90
        6
176
     1
 90
        2
176
     1
 62
     7
176
     1
 90
        5
176
     1
 90
        0
176
     1
 90
        0
176
     1
290
     0
176
     1
 90
       13
176
     1
 40
0.0
176
     1
 90
        0
176
     1
290
     0
176
     1
290
     1
176
     1
290
     1
176
     1
290
     0
176
     1
290
     0
176
     1
290
     0
176
     1
290
     0
176
     1
290
     0
176
     1
290
     0
176
     1
 90
       50
176
     1
 40
0.0
176
     1
 40
1.0
176
     1
 90
        0
176
     1
 62
    18
420
        0
176
     1
 90
       50
176
     1
 90
        3
176
     1
 62
     5
420
      255
176
     1
290
     0
176
     1
 90
       50
176
     1
 90
       50
176
     1
 90
       50
176
     1
290
     0
176
     1
 90
       50
176
     1
 62
   256
176
     0
 40
1.0
176
     0
 90
        2
176
     1
  1
strokes_ogs.tif
176
     1
290
     0
176
     1
 40
1.0
176
     1
 40
1.0
176
     1
  0
VISUALSTYLE
  5
2C
102
{ACAD_REACTORS
330
2A
102
}
330
2A
100
AcDbVisualStyle
  2
FlatWithEdges
 70
     1
177
     3
291
     1
 70
    58
 90
        2
176
     1
 90
        1
176
     1
 90
        1
176
     1
 90
        2
176
     1
 40
0.6
176
     1
 40
30.0
176
     1
 62
     7
420
 16777215
176
     1
 90
        1
176
     1
 90
        0
176
     1
 62
     7
176
     1
 62
   257
176
     1
 90
        1
176
     1
 90
        1
176
     1
 40
1.0
176
     1
 90
        0
176
     1
 62
   257
176
     1
 40
1.0
176
     1
 90
        1
176
     1
 90
        6
176
     1
 90
        2
176
     1
 62
     7
176
     1
 90
        5
176
     1
 90
        0
176
     1
 90
        0
176
     1
290
     0
176
     1
 90
       13
176
     1
 40
0.0
176
     1
 90
        0
176
     1
290
     0
176
     1
290
     1
176
     1
290
     1
176
     1
290
     0
176
     1
290
     0
176
     1
290
     0
176
     1
290
     0
176
     1
290
     0
176
     1
290
     0
176
     1
 90
       50
176
     1
 40
0.0
176
     1
 40
1.0
176
     1
 90
        0
176
     1
 62
    18
420
        0
176
     1
 90
       50
176
     1
 90
        3
176
     1
 62
     5
420
      255
176
     1
290
     0
176
     1
 90
       50
176
     1
 90
       50
176
     1
 90
       50
176
     1
290
     0
176
     1
 90
       50
176
     1
 62
   256
176
     0
 40
1.0
176
     0
 90
        2
176
     1
  1
strokes_ogs.tif
176
     1
290
     0
176
     1
 40
1.0
176
     1
 40
1.0
176
     1
  0
VISUALSTYLE
  5
2D
102
{ACAD_REACTORS
330
2A
102
}
330
2A
100
AcDbVisualStyle
  2
Gouraud
 70
     2
177
     3
291
     1
 70
    58
 90
        2
176
     1
 90
        2
176
     1
 90
        1
176
     1
 90
        2
176
     1
 40
0.6
176
     1
 40
30.0
176
     1
 62
     7
420
 16777215
176
     1
 90
        0
176
     1
 90
        0
176
     1
 62
     7
176
     1
 62
   257
176
     1
 90
        1
176
     1
 90
        1
176
     1
 40
1.0
176
     1
 90
        0
176
     1
 62
     7
176
     1
 40
1.0
176
     1
 90
        1
176
     1
 90
        6
176
     1
 90
        2
176
     1
 62
     7
176
     1
 90
        5
176
     1
 90
        0
176
     1
 90
        0
176
     1
290
     0
176
     1
 90
       13
176
     1
 40
0.0
176
     1
 90
        0
176
     1
290
     0
176
     1
290
     1
176
     1
290
     1
176
     1
290
     0
176
     1
290
     0
176
     1
290
     0
176
     1
290
     0
176
     1
290
     0
176
     1
290
     0
176
     1
 90
       50
176
     1
 40
0.0
176
     1
 40
1.0
176
     1
 90
        0
176
     1
 62
    18
420
        0
176
     1
 90
       50
176
     1
 90
        3
176
     1
 62
     5
420
      255
176
     1
290
     0
176
     1
 90
       50
176
     1
 90
       50
176
     1
 90
       50
176
     1
290
     0
176
     1
 90
       50
176
     1
 62
   256
176
     0
 40
1.0
176
     0
 90
        2
176
     1
  1
strokes_ogs.tif
176
     1
290
     0
176
     1
 40
1.0
176
     1
 40
1.0
176
     1
  0
VISUALSTYLE
  5
2E
102
{ACAD_REACTORS
330
2A
102
}
330
2A
100
AcDbVisualStyle
  2
GouraudWithEdges
 70
     3
177
     3
291
     1
 70
    58
 90
        2
176
     1
 90
        2
176
     1
 90
        1
176
     1
 90
        2
176
     1
 40
0.6
176
     1
 40
30.0
176
     1
 62
     7
420
 16777215
176
     1
 90
        1
176
     1
 90
        0
176
     1
 62
     7
176
     1
 62
   257
176
     1
 90
        1
176
     1
 90
        1
176
     1
 40
1.0
176
     1
 90
        0
176
     1
 62
   257
176
     1
 40
1.0
176
     1
 90
        1
176
     1
 90
        6
176
     1
 90
        2
176
     1
 62
     7
176
     1
 90
        5
176
     1
 90
        0
176
     1
 90
        0
176
     1
290
     0
176
     1
 90
       13
176
     1
 40
0.0
176
     1
 90
        0
176
     1
290
     0
176
     1
290
     1
176
     1
290
     1
176
     1
290
     0
176
     1
290
     0
176
     1
290
     0
176
     1
290
     0
176
     1
290
     0
176
     1
290
     0
176
     1
 90
       50
176
     1
 40
0.0
176
     1
 40
1.0
176
     1
 90
        0
176
     1
 62
    18
420
        0
176
     1
 90
       50
176
     1
 90
        3
176
     1
 62
     5
420
      255
176
     1
290
     0
176
     1
 90
       50
176
     1
 90
       50
176
     1
 90
       50
176
     1
290
     0
176
     1
 90
       50
176
     1
 62
   256
176
     0
 40
1.0
176
     0
 90
        2
176
     1
  1
strokes_ogs.tif
176
     1
290
     0
176
     1
 40
1.0
176
     1
 40
1.0
176
     1
  0
VISUALSTYLE
  5
31
102
{ACAD_REACTORS
330
2A
102
}
330
2A
100
AcDbVisualStyle
  2
Hidden
 70
     6
177
     3
291
     0
 70
    58
 90
        1
176
     1
 90
        2
176
     1
 90
        2
176
     1
 90
        0
176
     1
 40
0.6
176
     1
 40
30.0
176
     1
 62
     7
420
 16777215
176
     1
 90
        2
176
     1
 90
        2
176
     1
 62
     7
176
     1
 62
   257
176
     1
 90
        2
176
     1
 90
        1
176
     1
 40
40.0
176
     1
 90
        0
176
     1
 62
   257
176
     1
 40
1.0
176
     1
 90
        1
176
     1
 90
        6
176
     1
 90
        2
176
     1
 62
     7
176
     1
 90
        3
176
     1
 90
        0
176
     1
 90
        0
176
     1
290
     0
176
     1
 90
        1
176
     1
 40
0.0
176
     1
 90
        0
176
     1
290
     0
176
     1
290
     1
176
     1
290
     1
176
     1
290
     0
176
     1
290
     0
176
     1
290
     0
176
     1
290
     0
176
     1
290
     0
176
     1
290
     0
176
     1
 90
       50
176
     1
 40
0.0
176
     1
 40
1.0
176
     1
 90
        0
176
     1
 62
    18
420
        0
176
     1
 90
       50
176
     1
 90
        3
176
     1
 62
     5
420
      255
176
     1
290
     0
176
     1
 90
       50
176
     1
 90
       50
176
     1
 90
       50
176
     1
290
     0
176
     1
 90
       50
176
     1
 62
   256
176
     0
 40
1.0
176
     0
 90
        2
176
     1
  1
strokes_ogs.tif
176
     1
290
     0
176
     1
 40
1.0
176
     1
 40
1.0
176
     1
  0
VISUALSTYLE
  5
3B
102
{ACAD_REACTORS
330
2A
102
}
330
2A
100
AcDbVisualStyle
  2
JitterOff
 70
    20
177
     3
291
     1
 70
    58
 90
        2
176
     0
 90
        2
176
     0
 90
        0
176
     0
 90
        0
176
     0
 40
0.6
176
     0
 40
30.0
176
     0
 62
     7
420
 16777215
176
     0
 90
        1
176
     0
 90
        4
176
     0
 62
     7
176
     0
 62
   257
176
     0
 90
        1
176
     0
 90
        1
176
     0
 40
1.0
176
     0
 90
       10
176
     2
 62
     7
176
     0
 40
1.0
176
     0
 90
        1
176
     0
 90
        6
176
     0
 90
        2
176
     0
 62
     7
176
     0
 90
        5
176
     0
 90
        0
176
     0
 90
        0
176
     0
290
     0
176
     0
 90
        1
176
     0
 40
0.0
176
     0
 90
        0
176
     0
290
     0
176
     0
290
     1
176
     0
290
     1
176
     0
290
     0
176
     0
290
     0
176
     0
290
     0
176
     0
290
     0
176
     0
290
     0
176
     0
290
     0
176
     0
 90
       50
176
     0
 40
0.0
176
     0
 40
1.0
176
     0
 90
        0
176
     0
 62
    18
420
        0
176
     0
 90
       50
176
     0
 90
        3
176
     0
 62
     5
420
      255
176
     0
290
     0
176
     0
 90
       50
176
     0
 90
       50
176
     0
 90
       50
176
     0
290
     0
176
     0
 90
       50
176
     0
 62
   256
176
     0
 40
1.0
176
     0
 90
        2
176
     0
  1
strokes_ogs.tif
176
     0
290
     0
176
     0
 40
1.0
176
     0
 40
1.0
176
     0
  0
VISUALSTYLE
  5
38
102
{ACAD_REACTORS
330
2A
102
}
330
2A
100
AcDbVisualStyle
  2
Linepattern
 70
    14
177
     3
291
     1
 70
    58
 90
        2
176
     1
 90
        2
176
     1
 90
        0
176
     1
 90
        0
176
     1
 40
0.6
176
     1
 40
30.0
176
     1
 62
     7
420
 16777215
176
     1
 90
        1
176
     1
 90
        4
176
     1
 62
     7
176
     1
 62
   257
176
     1
 90
        7
176
     1
 90
        7
176
     1
 40
1.0
176
     1
 90
        8
176
     1
 62
     7
176
     1
 40
1.0
176
     1
 90
        1
176
     1
 90
        6
176
     1
 90
        2
176
     1
 62
     7
176
     1
 90
        5
176
     1
 90
        0
176
     1
 90
        0
176
     1
290
     0
176
     1
 90
        1
176
     1
 40
0.0
176
     1
 90
        0
176
     1
290
     0
176
     1
290
     1
176
     1
290
     1
176
     1
290
     0
176
     1
290
     0
176
     1
290
     0
176
     1
290
     0
176
     1
290
     0
176
     1
290
     0
176
     1
 90
       50
176
     1
 40
0.0
176
     1
 40
1.0
176
     1
 90
        0
176
     1
 62
    18
420
        0
176
     1
 90
       50
176
     1
 90
        3
176
     1
 62
     5
420
      255
176
     1
290
     0
176
     1
 90
       50
176
     1
 90
       50
176
     1
 90
       50
176
     1
290
     0
176
     1
 90
       50
176
     1
 62
   256
176
     0
 40
1.0
176
     0
 90
        2
176
     1
  1
strokes_ogs.tif
176
     1
290
     0
176
     1
 40
1.0
176
     1
 40
1.0
176
     1
  0
VISUALSTYLE
  5
3C
102
{ACAD_REACTORS
330
2A
102
}
330
2A
100
AcDbVisualStyle
  2
OverhangOff
 70
    21
177
     3
291
     1
 70
    58
 90
        2
176
     0
 90
        2
176
     0
 90
        0
176
     0
 90
        0
176
     0
 40
0.6
176
     0
 40
30.0
176
     0
 62
     7
420
 16777215
176
     0
 90
        1
176
     0
 90
        4
176
     0
 62
     7
176
     0
 62
   257
176
     0
 90
        1
176
     0
 90
        1
176
     0
 40
1.0
176
     0
 90
        9
176
     2
 62
     7
176
     0
 40
1.0
176
     0
 90
        1
176
     0
 90
        6
176
     0
 90
        2
176
     0
 62
     7
176
     0
 90
        5
176
     0
 90
        0
176
     0
 90
        0
176
     0
290
     0
176
     0
 90
        1
176
     0
 40
0.0
176
     0
 90
        0
176
     0
290
     0
176
     0
290
     1
176
     0
290
     1
176
     0
290
     0
176
     0
290
     0
176
     0
290
     0
176
     0
290
     0
176
     0
290
     0
176
     0
290
     0
176
     0
 90
       50
176
     0
 40
0.0
176
     0
 40
1.0
176
     0
 90
        0
176
     0
 62
    18
420
        0
176
     0
 90
       50
176
     0
 90
        3
176
     0
 62
     5
420
      255
176
     0
290
     0
176
     0
 90
       50
176
     0
 90
       50
176
     0
 90
       50
176
     0
290
     0
176
     0
 90
       50
176
     0
 62
   256
176
     0
 40
1.0
176
     0
 90
        2
176
     0
  1
strokes_ogs.tif
176
     0
290
     0
176
     0
 40
1.0
176
     0
 40
1.0
176
     0
  0
VISUALSTYLE
  5
33
102
{ACAD_REACTORS
330
2A
102
}
330
2A
100
AcDbVisualStyle
  2
Realistic
 70
     8
177
     3
291
     0
 70
    58
 90
        2
176
     1
 90
        3
176
     1
 90
        0
176
     1
 90
        2
176
     1
 40
0.6
176
     1
 40
30.0
176
     1
 62
     7
420
 16777215
176
     1
 90
        0
176
     1
 90
        0
176
     1
 62
     7
176
     1
 62
   257
176
     1
 90
        1
176
     1
 90
        1
176
     1
 40
1.0
176
     1
 90
        8
176
     1
 62
   257
176
     1
 40
1.0
176
     1
 90
        1
176
     1
 90
        6
176
     1
 90
        2
176
     1
 62
     7
176
     1
 90
        3
176
     1
 90
        0
176
     1
 90
        0
176
     1
290
     0
176
     1
 90
       13
176
     1
 40
0.0
176
     1
 90
        0
176
     1
290
     0
176
     1
290
     1
176
     1
290
     1
176
     1
290
     0
176
     1
290
     0
176
     1
290
     0
176
     1
290
     0
176
     1
290
     0
176
     1
290
     0
176
     1
 90
       50
176
     1
 40
0.0
176
     1
 40
1.0
176
     1
 90
        0
176
     1
 62
    18
420
        0
176
     1
 90
       50
176
     1
 90
        3
176
     1
 62
     5
420
      255
176
     1
290
     0
176
     1
 90
       50
176
     1
 90
       50
176
     1
 90
       50
176
     1
290
     0
176
     1
 90
       50
176
     1
 62
   256
176
     0
 40
1.0
176
     0
 90
        2
176
     1
  1
strokes_ogs.tif
176
     1
290
     0
176
     1
 40
1.0
176
     1
 40
1.0
176
     1
  0
VISUALSTYLE
  5
42
102
{ACAD_REACTORS
330
2A
102
}
330
2A
100
AcDbVisualStyle
  2
Shaded
 70
    27
177
     3
291
     0
 70
    58
 90
        2
176
     1
 90
        2
176
     1
 90
        1
176
     1
 90
        2
176
     1
 40
0.6
176
     1
 40
30.0
176
     1
 62
     7
420
 16777215
176
     1
 90
        0
176
     1
 90
        4
176
     1
 62
     7
176
     1
 62
   257
176
     1
 90
        1
176
     1
 90
        1
176
     1
 40
1.0
176
     1
 90
        8
176
     1
 62
   257
176
     1
 40
1.0
176
     1
 90
        1
176
     1
 90
        6
176
     1
 90
        2
176
     1
 62
     8
420
  7895160
176
     1
 90
        3
176
     1
 90
        0
176
     1
 90
        0
176
     1
290
     0
176
     1
 90
        5
176
     1
 40
0.0
176
     1
 90
        0
176
     1
290
     0
176
     1
290
     1
176
     1
290
     1
176
     1
290
     0
176
     1
290
     0
176
     1
290
     0
176
     1
290
     0
176
     1
290
     0
176
     1
290
     0
176
     1
 90
       50
176
     1
 40
0.0
176
     1
 40
1.0
176
     1
 90
        0
176
     1
 62
    18
420
        0
176
     1
 90
       50
176
     1
 90
        3
176
     1
 62
     5
420
      255
176
     1
290
     0
176
     1
 90
       50
176
     1
 90
       50
176
     1
 90
       50
176
     1
290
     0
176
     1
 90
       50
176
     1
 62
   256
176
     0
 40
1.0
176
     0
 90
        2
176
     1
  1
strokes_ogs.tif
176
     1
290
     0
176
     1
 40
1.0
176
     1
 40
1.0
176
     1
  0
VISUALSTYLE
  5
41
102
{ACAD_REACTORS
330
2A
102
}
330
2A
100
AcDbVisualStyle
  2
Shaded with edges
 70
    26
177
     3
291
     0
 70
    58
 90
        2
176
     1
 90
        2
176
     1
 90
        1
176
     1
 90
        2
176
     1
 40
0.6
176
     1
 40
30.0
176
     1
 62
     7
420
 16777215
176
     1
 90
        1
176
     1
 90
       10
176
     1
 62
     7
176
     1
 62
   257
176
     1
 90
        2
176
     1
 90
        1
176
     1
 40
1.0
176
     1
 90
        8
176
     1
 62
   257
176
     1
 40
1.0
176
     1
 90
        1
176
     1
 90
        6
176
     1
 90
        2
176
     1
 62
     7
176
     1
 90
        3
176
     1
 90
        0
176
     1
 90
        0
176
     1
290
     0
176
     1
 90
        5
176
     1
 40
0.0
176
     1
 90
        0
176
     1
290
     0
176
     1
290
     1
176
     1
290
     1
176
     1
290
     0
176
     1
290
     0
176
     1
290
     0
176
     1
290
     0
176
     1
290
     0
176
     1
290
     0
176
     1
 90
       50
176
     1
 40
0.0
176
     1
 40
1.0
176
     1
 90
        0
176
     1
 62
    18
420
        0
176
     1
 90
       50
176
     1
 90
        3
176
     1
 62
     5
420
      255
176
     1
290
     0
176
     1
 90
       50
176
     1
 90
       50
176
     1
 90
       50
176
     1
290
     0
176
     1
 90
       50
176
     1
 62
   256
176
     0
 40
1.0
176
     0
 90
        2
176
     1
  1
strokes_ogs.tif
176
     1
290
     0
176
     1
 40
1.0
176
     1
 40
1.0
176
     1
  0
VISUALSTYLE
  5
3E
102
{ACAD_REACTORS
330
2A
102
}
330
2A
100
AcDbVisualStyle
  2
Shades of Gray
 70
    23
177
     3
291
     0
 70
    58
 90
        2
176
     1
 90
        2
176
     1
 90
        3
176
     1
 90
        0
176
     1
 40
0.6
176
     1
 40
30.0
176
     1
 62
     7
420
 16777215
176
     1
 90
        2
176
     1
 90
        2
176
     1
 62
     7
176
     1
 62
     7
176
     1
 90
        1
176
     1
 90
        1
176
     1
 40
40.0
176
     1
 90
        8
176
     1
 62
     7
176
     1
 40
1.0
176
     1
 90
        1
176
     1
 90
        6
176
     1
 90
        2
176
     1
 62
     7
176
     1
 90
        3
176
     1
 90
        0
176
     1
 90
        0
176
     1
290
     0
176
     1
 90
        1
176
     1
 40
0.0
176
     1
 90
        0
176
     1
290
     0
176
     1
290
     1
176
     1
290
     1
176
     1
290
     0
176
     1
290
     0
176
     1
290
     0
176
     1
290
     0
176
     1
290
     0
176
     1
290
     0
176
     1
 90
       50
176
     1
 40
0.0
176
     1
 40
1.0
176
     1
 90
        0
176
     1
 62
    18
420
        0
176
     1
 90
       50
176
     1
 90
        3
176
     1
 62
     5
420
      255
176
     1
290
     0
176
     1
 90
       50
176
     1
 90
       50
176
     1
 90
       50
176
     1
290
     0
176
     1
 90
       50
176
     1
 62
   256
176
     0
 40
1.0
176
     0
 90
        2
176
     1
  1
strokes_ogs.tif
176
     1
290
     0
176
     1
 40
1.0
176
     1
 40
1.0
176
     1
  0
VISUALSTYLE
  5
3F
102
{ACAD_REACTORS
330
2A
102
}
330
2A
100
AcDbVisualStyle
  2
Sketchy
 70
    24
177
     3
291
     0
 70
    58
 90
        1
176
     1
 90
        2
176
     1
 90
        2
176
     1
 90
        0
176
     1
 40
0.6
176
     1
 40
30.0
176
     1
 62
     7
420
 16777215
176
     1
 90
        2
176
     1
 90
        2
176
     1
 62
     7
176
     1
 62
     7
176
     1
 90
        1
176
     1
 90
        1
176
     1
 40
40.0
176
     1
 90
       11
176
     1
 62
     7
176
     1
 40
1.0
176
     1
 90
        1
176
     1
 90
        6
176
     1
 90
        2
176
     1
 62
     7
176
     1
 90
        6
176
     1
 90
        0
176
     1
 90
        0
176
     1
290
     0
176
     1
 90
        1
176
     1
 40
0.0
176
     1
 90
        0
176
     1
290
     0
176
     1
290
     1
176
     1
290
     1
176
     1
290
     0
176
     1
290
     0
176
     1
290
     0
176
     1
290
     0
176
     1
290
     0
176
     1
290
     0
176
     1
 90
       50
176
     1
 40
0.0
176
     1
 40
1.0
176
     1
 90
        0
176
     1
 62
    18
420
        0
176
     1
 90
       50
176
     1
 90
        3
176
     1
 62
     5
420
      255
176
     1
290
     0
176
     1
 90
       50
176
     1
 90
       50
176
     1
 90
       50
176
     1
290
     0
176
     1
 90
       50
176
     1
 62
   256
176
     0
 40
1.0
176
     0
 90
        2
176
     1
  1
strokes_ogs.tif
176
     1
290
     0
176
     1
 40
1.0
176
     1
 40
1.0
176
     1
  0
VISUALSTYLE
  5
37
102
{ACAD_REACTORS
330
2A
102
}
330
2A
100
AcDbVisualStyle
  2
Thicken
 70
    13
177
     3
291
     1
 70
    58
 90
        2
176
     1
 90
        2
176
     1
 90
        0
176
     1
 90
        0
176
     1
 40
0.6
176
     1
 40
30.0
176
     1
 62
     7
420
 16777215
176
     1
 90
        1
176
     1
 90
        4
176
     1
 62
     7
176
     1
 62
   257
176
     1
 90
        1
176
     1
 90
        1
176
     1
 40
1.0
176
     1
 90
       12
176
     1
 62
     7
176
     1
 40
1.0
176
     1
 90
        1
176
     1
 90
        6
176
     1
 90
        2
176
     1
 62
     7
176
     1
 90
        5
176
     1
 90
        0
176
     1
 90
        0
176
     1
290
     0
176
     1
 90
        1
176
     1
 40
0.0
176
     1
 90
        0
176
     1
290
     0
176
     1
290
     1
176
     1
290
     1
176
     1
290
     0
176
     1
290
     0
176
     1
290
     0
176
     1
290
     0
176
     1
290
     0
176
     1
290
     0
176
     1
 90
       50
176
     1
 40
0.0
176
     1
 40
1.0
176
     1
 90
        0
176
     1
 62
    18
420
        0
176
     1
 90
       50
176
     1
 90
        3
176
     1
 62
     5
420
      255
176
     1
290
     0
176
     1
 90
       50
176
     1
 90
       50
176
     1
 90
       50
176
     1
290
     0
176
     1
 90
       50
176
     1
 62
   256
176
     0
 40
1.0
176
     0
 90
        2
176
     1
  1
strokes_ogs.tif
176
     1
290
     0
176
     1
 40
1.0
176
     1
 40
1.0
176
     1
  0
VISUALSTYLE
  5
30
102
{ACAD_REACTORS
330
2A
102
}
330
2A
100
AcDbVisualStyle
  2
Wireframe
 70
     5
177
     3
291
     0
 70
    58
 90
        0
176
     1
 90
        2
176
     1
 90
        0
176
     1
 90
        0
176
     1
 40
0.6
176
     1
 40
30.0
176
     1
 62
     7
420
 16777215
176
     1
 90
        1
176
     1
 90
        4
176
     1
 62
     7
176
     1
 62
   257
176
     1
 90
        1
176
     1
 90
        1
176
     1
 40
1.0
176
     1
 90
        0
176
     1
 62
   257
176
     1
 40
1.0
176
     1
 90
        1
176
     1
 90
        6
176
     1
 90
        2
176
     1
 62
     7
176
     1
 90
        3
176
     1
 90
        0
176
     1
 90
        0
176
     1
290
     0
176
     1
 90
        1
176
     1
 40
0.0
176
     1
 90
        0
176
     1
290
     0
176
     1
290
     1
176
     1
290
     1
176
     1
290
     0
176
     1
290
     0
176
     1
290
     0
176
     1
290
     0
176
     1
290
     0
176
     1
290
     0
176
     1
 90
       50
176
     1
 40
0.0
176
     1
 40
1.0
176
     1
 90
        0
176
     1
 62
    18
420
        0
176
     1
 90
       50
176
     1
 90
        3
176
     1
 62
     5
420
      255
176
     1
290
     0
176
     1
 90
       50
176
     1
 90
       50
176
     1
 90
       50
176
     1
290
     0
176
     1
 90
       50
176
     1
 62
   256
176
     0
 40
1.0
176
     0
 90
        2
176
     1
  1
strokes_ogs.tif
176
     1
290
     0
176
     1
 40
1.0
176
     1
 40
1.0
176
     1
  0
VISUALSTYLE
  5
40
102
{ACAD_REACTORS
330
2A
102
}
330
2A
100
AcDbVisualStyle
  2
X-Ray
 70
    25
177
     3
291
     0
 70
    58
 90
        2
176
     1
 90
        2
176
     1
 90
        1
176
     1
 90
        1
176
     1
 40
0.5
176
     1
 40
30.0
176
     1
 62
     7
420
 16777215
176
     1
 90
        1
176
     1
 90
        0
176
     1
 62
     7
176
     1
 62
   257
176
     1
 90
        1
176
     1
 90
        1
176
     1
 40
1.0
176
     1
 90
        8
176
     1
 62
     7
176
     1
 40
1.0
176
     1
 90
        1
176
     1
 90
        6
176
     1
 90
        2
176
     1
 62
     7
176
     1
 90
        3
176
     1
 90
        0
176
     1
 90
        0
176
     1
290
     0
176
     1
 90
       13
176
     1
 40
0.0
176
     1
 90
        0
176
     1
290
     0
176
     1
290
     1
176
     1
290
     1
176
     1
290
     0
176
     1
290
     0
176
     1
290
     0
176
     1
290
     0
176
     1
290
     0
176
     1
290
     0
176
     1
 90
       50
176
     1
 40
0.0
176
     1
 40
1.0
176
     1
 90
        0
176
     1
 62
    18
420
        0
176
     1
 90
       50
176
     1
 90
        3
176
     1
 62
     5
420
      255
176
     1
290
     0
176
     1
 90
       50
176
     1
 90
       50
176
     1
 90
       50
176
     1
290
     0
176
     1
 90
       50
176
     1
 62
   256
176
     0
 40
1.0
176
     0
 90
        2
176
     1
  1
strokes_ogs.tif
176
     1
290
     0
176
     1
 40
1.0
176
     1
 40
1.0
176
     1
  0
DICTIONARYVAR
  5
FD
102
{ACAD_REACTORS
330
FC
102
}
330
FC
100
DictionaryVariables
280
     0
  1
1:1
  0
DICTIONARYVAR
  5
102
102
{ACAD_REACTORS
330
FC
102
}
330
FC
100
DictionaryVariables
280
     0
  1
Standard
  0
DICTIONARYVAR
  5
101
102
{ACAD_REACTORS
330
FC
102
}
330
FC
100
DictionaryVariables
280
     0
  1
Standard
  0
DICTIONARYVAR
  5
105
102
{ACAD_REACTORS
330
FC
102
}
330
FC
100
DictionaryVariables
280
     0
  1
6.000000
  0
DICTIONARY
  5
FE
330
6A
100
AcDbDictionary
280
     1
281
     1
  3
ACAD_ROUNDTRIP_2008_TABLESTYLE_CELLSTYLEMAP
360
FF
  0
CELLSTYLEMAP
  5
FF
102
{ACAD_REACTORS
330
FE
102
}
330
FE
100
AcDbCellStyleMap
 90
        3
300
CELLSTYLE
  1
TABLEFORMAT_BEGIN
 90
        5
170
     1
 91
        0
 92
    32768
 62
   257
 93
        1
300
CONTENTFORMAT
  1
CONTENTFORMAT_BEGIN
 90
        0
 91
        0
 92
        4
 93
        0
300

 40
0.0
140
1.0
 94
        5
 62
     0
340
11
144
6.0
309
CONTENTFORMAT_END
171
     1
301
MARGIN
  1
CELLMARGIN_BEGIN
 40
1.5
 40
1.5
 40
1.5
 40
1.5
 40
1.5
 40
1.5
309
CELLMARGIN_END
 94
        6
 95
        1
302
GRIDFORMAT
  1
GRIDFORMAT_BEGIN
 90
        0
 91
        1
 62
     0
 92
       -2
340
14
 93
        0
 40
0.045
309
GRIDFORMAT_END
 95
        2
302
GRIDFORMAT
  1
GRIDFORMAT_BEGIN
 90
        0
 91
        1
 62
     0
 92
       -2
340
14
 93
        0
 40
0.045
309
GRIDFORMAT_END
 95
        4
302
GRIDFORMAT
  1
GRIDFORMAT_BEGIN
 90
        0
 91
        1
 62
     0
 92
       -2
340
14
 93
        0
 40
0.045
309
GRIDFORMAT_END
 95
        8
302
GRIDFORMAT
  1
GRIDFORMAT_BEGIN
 90
        0
 91
        1
 62
     0
 92
       -2
340
14
 93
        0
 40
0.045
309
GRIDFORMAT_END
 95
       16
302
GRIDFORMAT
  1
GRIDFORMAT_BEGIN
 90
        0
 91
        1
 62
     0
 92
       -2
340
14
 93
        0
 40
0.045
309
GRIDFORMAT_END
 95
       32
302
GRIDFORMAT
  1
GRIDFORMAT_BEGIN
 90
        0
 91
        1
 62
     0
 92
       -2
340
14
 93
        0
 40
0.045
309
GRIDFORMAT_END
309
TABLEFORMAT_END
  1
CELLSTYLE_BEGIN
 90
        1
 91
        1
300
_TITLE
309
CELLSTYLE_END
300
CELLSTYLE
  1
TABLEFORMAT_BEGIN
 90
        5
170
     1
 91
        0
 92
        0
 62
   257
 93
        1
300
CONTENTFORMAT
  1
CONTENTFORMAT_BEGIN
 90
        0
 91
        0
 92
        4
 93
        0
300

 40
0.0
140
1.0
 94
        5
 62
     0
340
11
144
4.5
309
CONTENTFORMAT_END
171
     1
301
MARGIN
  1
CELLMARGIN_BEGIN
 40
1.5
 40
1.5
 40
1.5
 40
1.5
 40
1.5
 40
1.5
309
CELLMARGIN_END
 94
        6
 95
        1
302
GRIDFORMAT
  1
GRIDFORMAT_BEGIN
 90
        0
 91
        1
 62
     0
 92
       -2
340
14
 93
        0
 40
0.045
309
GRIDFORMAT_END
 95
        2
302
GRIDFORMAT
  1
GRIDFORMAT_BEGIN
 90
        0
 91
        1
 62
     0
 92
       -2
340
14
 93
        0
 40
0.045
309
GRIDFORMAT_END
 95
        4
302
GRIDFORMAT
  1
GRIDFORMAT_BEGIN
 90
        0
 91
        1
 62
     0
 92
       -2
340
14
 93
        0
 40
0.045
309
GRIDFORMAT_END
 95
        8
302
GRIDFORMAT
  1
GRIDFORMAT_BEGIN
 90
        0
 91
        1
 62
     0
 92
       -2
340
14
 93
        0
 40
0.045
309
GRIDFORMAT_END
 95
       16
302
GRIDFORMAT
  1
GRIDFORMAT_BEGIN
 90
        0
 91
        1
 62
     0
 92
       -2
340
14
 93
        0
 40
0.045
309
GRIDFORMAT_END
 95
       32
302
GRIDFORMAT
  1
GRIDFORMAT_BEGIN
 90
        0
 91
        1
 62
     0
 92
       -2
340
14
 93
        0
 40
0.045
309
GRIDFORMAT_END
309
TABLEFORMAT_END
  1
CELLSTYLE_BEGIN
 90
        2
 91
        1
300
_HEADER
309
CELLSTYLE_END
300
CELLSTYLE
  1
TABLEFORMAT_BEGIN
 90
        5
170
     1
 91
        0
 92
        0
 62
   257
 93
        1
300
CONTENTFORMAT
  1
CONTENTFORMAT_BEGIN
 90
        0
 91
        0
 92
        4
 93
        0
300

 40
0.0
140
1.0
 94
        2
 62
     0
340
11
144
4.5
309
CONTENTFORMAT_END
171
     1
301
MARGIN
  1
CELLMARGIN_BEGIN
 40
1.5
 40
1.5
 40
1.5
 40
1.5
 40
1.5
 40
1.5
309
CELLMARGIN_END
 94
        6
 95
        1
302
GRIDFORMAT
  1
GRIDFORMAT_BEGIN
 90
        0
 91
        1
 62
     0
 92
       -2
340
14
 93
        0
 40
0.045
309
GRIDFORMAT_END
 95
        2
302
GRIDFORMAT
  1
GRIDFORMAT_BEGIN
 90
        0
 91
        1
 62
     0
 92
       -2
340
14
 93
        0
 40
0.045
309
GRIDFORMAT_END
 95
        4
302
GRIDFORMAT
  1
GRIDFORMAT_BEGIN
 90
        0
 91
        1
 62
     0
 92
       -2
340
14
 93
        0
 40
0.045
309
GRIDFORMAT_END
 95
        8
302
GRIDFORMAT
  1
GRIDFORMAT_BEGIN
 90
        0
 91
        1
 62
     0
 92
       -2
340
14
 93
        0
 40
0.045
309
GRIDFORMAT_END
 95
       16
302
GRIDFORMAT
  1
GRIDFORMAT_BEGIN
 90
        0
 91
        1
 62
     0
 92
       -2
340
14
 93
        0
 40
0.045
309
GRIDFORMAT_END
 95
       32
302
GRIDFORMAT
  1
GRIDFORMAT_BEGIN
 90
        0
 91
        1
 62
     0
 92
       -2
340
14
 93
        0
 40
0.045
309
GRIDFORMAT_END
309
TABLEFORMAT_END
  1
CELLSTYLE_BEGIN
 90
        3
 91
        2
300
_DATA
309
CELLSTYLE_END
  0
ENDSEC
  0
EOF
