0
SECTION
2
HEADER
9
$INSUNITS
70
4
9
$ACADVER
1
AC1014
9
$HANDSEED
5
FFFF
0
ENDSEC
0
SECTION
2
TABLES
0
TABLE
2
VPORT
5
8
100
AcDbSymbolTable
0
ENDTAB
0
TABLE
2
LTYPE
5
5
100
AcDbSymbolTable
0
LTYPE
5
14
100
AcDbSymbolTableRecord
100
AcDbLinetypeTableRecord
2
BYBLOCK
70
0
0
LTYPE
5
15
100
AcDbSymbolTableRecord
100
AcDbLinetypeTableRecord
2
BYLAYER
70
0
0
ENDTAB
0
TABLE
2
LAYER
5
2
100
AcDbSymbolTable
70
2
0
LAYER
5
50
100
AcDbSymbolTableRecord
100
AcDbLayerTableRecord
2
0
70
0
6
CONTINUOUS
0
ENDTAB
0
TABLE
2
STYLE
5
3
100
AcDbSymbolTable
70
1
0
STYLE
5
11
100
AcDbSymbolTableRecord
100
AcDbTextStyleTableRecord
2
STANDARD
70
0
0
ENDTAB
0
TABLE
2
VIEW
5
6
100
AcDbSymbolTable
70
0
0
ENDTAB
0
TABLE
2
UCS
5
7
100
AcDbSymbolTable
70
0
0
ENDTAB
0
TABLE
2
APPID
5
9
100
AcDbSymbolTable
70
2
0
APPID
5
12
100
AcDbSymbolTableRecord
100
AcDbRegAppTableRecord
2
ACAD
70
0
0
ENDTAB
0
TABLE
2
DIMSTYLE
5
A
100
AcDbSymbolTable
70
1
0
ENDTAB
0
TABLE
2
BLOCK_RECORD
5
1
100
AcDbSymbolTable
70
1
0
BLOCK_RECORD
5
1F
100
AcDbSymbolTableRecord
100
AcDbBlockTableRecord
2
*MODEL_SPACE
0
BLOCK_RECORD
5
1B
100
AcDbSymbolTableRecord
100
AcDbBlockTableRecord
2
*PAPER_SPACE
0
ENDTAB
0
ENDSEC
0
SECTION
2
BLOCKS
0
BLOCK
5
20
100
AcDbEntity
100
AcDbBlockBegin
2
*MODEL_SPACE
0
ENDBLK
5
21
100
AcDbEntity
100
AcDbBlockEnd
0
BLOCK
5
1C
100
AcDbEntity
100
AcDbBlockBegin
2
*PAPER_SPACE
0
ENDBLK
5
1D
100
AcDbEntity
100
AcDbBlockEnd
0
ENDSEC
0
SECTION
2
ENTITIES
0
LWPOLYLINE
5
100
100
AcDbEntity
8
OUTER_PROFILES
100
AcDbPolyline
90
16
70
1
43
0.0
10
-0.4142135623731491
20
9.5132741228717066
10
-0.4142135623731491
20
9.9274876852447136
10
-9.9274876852447136
20
9.9274876852447846
10
-9.9274876852447136
20
167.51327412287171
10
16.585786437626879
20
167.51327412287171
10
16.585786437626879
20
26.513274122871699
10
526.58578643762689
20
26.513274122871699
10
526.58578643762689
20
167.51327412287171
10
553.09906056049874
20
167.51327412287171
10
553.09906056049874
20
155.01327412287171
10
543.58578643762689
20
155.01327412287171
10
543.58578643762689
20
9.5132741228717066
10
526.58578643762689
20
9.5132741228717421
10
526.58578643762689
20
2.8421709430404007e-13
10
0
20
0
10
-1.4210854715202004e-13
20
9.5132741228717066
0
SPLINE
5
101
100
AcDbEntity
8
INTERIOR_PROFILES
100
AcDbSpline
70
1064
71
3
72
11
73
7
74
0
42
0.000000001
43
0.0000000001
44
0.0000000001
40
0
40
0
40
0
40
0
40
0.59448157721029049
40
0.59448157721029049
40
0.59448157721029049
40
1
40
1
40
1
40
1
10
534.83578643762689
20
148.51327412297169
30
0
10
534.83578643759893
20
148.86357575173025
30
0
10
534.65117998425194
20
149.28387324560666
30
0
10
534.32138331945373
20
149.523916110638
30
0
10
534.09641651059508
20
149.68765844978029
30
0
10
533.82474045982121
20
149.76327412287171
30
0
10
533.58578643762689
20
149.76327412287171
30
0
0
SPLINE
5
102
100
AcDbEntity
8
INTERIOR_PROFILES
100
AcDbSpline
70
1064
71
3
72
11
73
7
74
0
42
0.000000001
43
0.0000000001
44
0.0000000001
40
0
40
0
40
0
40
0
40
0.59448157720968864
40
0.59448157720968864
40
0.59448157720968864
40
1
40
1
40
1
40
1
10
533.58578643772694
20
147.26327412287171
30
0
10
533.93608806648513
20
147.26327412289973
30
0
10
534.35638556036099
20
147.44788057624606
30
0
10
534.59642842539233
20
147.77767724104376
30
0
10
534.76017076453513
20
148.00264404990261
30
0
10
534.83578643762689
20
148.27432010067702
30
0
10
534.83578643762689
20
148.51327412287171
30
0
0
SPLINE
5
103
100
AcDbEntity
8
INTERIOR_PROFILES
100
AcDbSpline
70
1064
71
3
72
11
73
7
74
0
42
0.000000001
43
0.0000000001
44
0.0000000001
40
0
40
0
40
0
40
0
40
0.59448157721003425
40
0.59448157721003425
40
0.59448157721003425
40
1
40
1
40
1
40
1
10
532.33578643762689
20
148.51327412277172
30
0
10
532.33578643765486
20
148.16297249401333
30
0
10
532.52039289100162
20
147.74267500013713
30
0
10
532.8501895557996
20
147.50263213510578
30
0
10
533.07515636465848
20
147.33888979596327
30
0
10
533.34683241543235
20
147.26327412287171
30
0
10
533.58578643762689
20
147.26327412287171
30
0
0
SPLINE
5
104
100
AcDbEntity
8
INTERIOR_PROFILES
100
AcDbSpline
70
1064
71
3
72
11
73
7
74
0
42
0.000000001
43
0.0000000001
44
0.0000000001
40
0
40
0
40
0
40
0
40
0.59448157721112982
40
0.59448157721112982
40
0.59448157721112982
40
1
40
1
40
1
40
1
10
533.58578643752685
20
149.76327412287171
30
0
10
533.23548480876786
20
149.76327412284368
30
0
10
532.81518731489075
20
149.57866766949624
30
0
10
532.57514444985964
20
149.24887100469726
30
0
10
532.41140211071786
20
149.02390419583884
30
0
10
532.33578643762689
20
148.75222814506554
30
0
10
532.33578643762689
20
148.51327412287171
30
0
0
SPLINE
5
105
100
AcDbEntity
8
INTERIOR_PROFILES
100
AcDbSpline
70
1064
71
3
72
11
73
7
74
0
42
0.000000001
43
0.0000000001
44
0.0000000001
40
0
40
0
40
0
40
0
40
0.59448157721024331
40
0.59448157721024331
40
0.59448157721024331
40
1
40
1
40
1
40
1
10
10.835786437626851
20
148.51327412297169
30
0
10
10.835786437598856
20
148.8635757517302
30
0
10
10.651179984252082
20
149.28387324560657
30
0
10
10.321383319453901
20
149.52391611063791
30
0
10
10.096416510595176
20
149.68765844978026
30
0
10
9.8247404598212285
20
149.76327412287171
30
0
10
9.5857864376268509
20
149.76327412287171
30
0
0
SPLINE
5
106
100
AcDbEntity
8
INTERIOR_PROFILES
100
AcDbSpline
70
1064
71
3
72
11
73
7
74
0
42
0.000000001
43
0.0000000001
44
0.0000000001
40
0
40
0
40
0
40
0
40
0.59448157721049499
40
0.59448157721049499
40
0.59448157721049499
40
1
40
1
40
1
40
1
10
9.5857864377268953
20
147.26327412287171
30
0
10
9.9360880664855245
20
147.26327412289973
30
0
10
10.356385560362114
20
147.44788057624669
30
0
10
10.596428425393398
20
147.7776772410451
30
0
10
10.76017076453553
20
148.00264404990372
30
0
10
10.835786437626851
20
148.2743201006775
30
0
10
10.835786437626851
20
148.51327412287171
30
0
0
SPLINE
5
107
100
AcDbEntity
8
INTERIOR_PROFILES
100
AcDbSpline
70
1064
71
3
72
11
73
7
74
0
42
0.000000001
43
0.0000000001
44
0.0000000001
40
0
40
0
40
0
40
0
40
0.59448157721027051
40
0.59448157721027051
40
0.59448157721027051
40
1
40
1
40
1
40
1
10
8.3357864376268509
20
148.51327412277172
30
0
10
8.3357864376549173
20
148.16297249401319
30
0
10
8.5203928910016913
20
147.74267500013681
30
0
10
8.8501895557998722
20
147.5026321351055
30
0
10
9.0751563646585964
20
147.33888979596315
30
0
10
9.3468324154325444
20
147.26327412287171
30
0
10
9.5857864376268509
20
147.26327412287171
30
0
0
SPLINE
5
108
100
AcDbEntity
8
INTERIOR_PROFILES
100
AcDbSpline
70
1064
71
3
72
11
73
7
74
0
42
0.000000001
43
0.0000000001
44
0.0000000001
40
0
40
0
40
0
40
0
40
0.5944815772102493
40
0.5944815772102493
40
0.5944815772102493
40
1
40
1
40
1
40
1
10
9.5857864375268775
20
149.76327412287171
30
0
10
9.2354848087683905
20
149.76327412284368
30
0
10
8.8151873148920146
20
149.57866766949692
30
0
10
8.5751444498606588
20
149.24887100469871
30
0
10
8.4114021107183135
20
149.02390419584006
30
0
10
8.3357864376268509
20
148.75222814506606
30
0
10
8.3357864376268509
20
148.51327412287171
30
0
0
SPLINE
5
109
100
AcDbEntity
8
INTERIOR_PROFILES
100
AcDbSpline
70
1064
71
3
72
11
73
7
74
0
42
0.000000001
43
0.0000000001
44
0.0000000001
40
0
40
0
40
0
40
0
40
0.59448157721027017
40
0.59448157721027017
40
0.59448157721027017
40
1
40
1
40
1
40
1
10
9.5857864377268953
20
35.263274122871699
30
0
10
9.9360880664853823
20
35.26327412289973
30
0
10
10.356385560361829
20
35.447880576246519
30
0
10
10.596428425393114
20
35.777677241044721
30
0
10
10.760170764535459
20
36.002644049903424
30
0
10
10.835786437626851
20
36.274320100677357
30
0
10
10.835786437626851
20
36.513274122871699
30
0
0
SPLINE
5
110
100
AcDbEntity
8
INTERIOR_PROFILES
100
AcDbSpline
70
1064
71
3
72
11
73
7
74
0
42
0.000000001
43
0.0000000001
44
0.0000000001
40
0
40
0
40
0
40
0
40
0.59448157721014905
40
0.59448157721014905
40
0.59448157721014905
40
1
40
1
40
1
40
1
10
8.3357864376268509
20
36.513274122771726
30
0
10
8.3357864376549173
20
36.162972494013275
30
0
10
8.5203928910016202
20
35.742675000136956
30
0
10
8.8501895557997301
20
35.5026321351056
30
0
10
9.0751563646583833
20
35.338889795963162
30
0
10
9.3468324154324733
20
35.263274122871699
30
0
10
9.5857864376268509
20
35.263274122871699
30
0
0
SPLINE
5
111
100
AcDbEntity
8
INTERIOR_PROFILES
100
AcDbSpline
70
1064
71
3
72
11
73
7
74
0
42
0.000000001
43
0.0000000001
44
0.0000000001
40
0
40
0
40
0
40
0
40
0.59448157721051698
40
0.59448157721051698
40
0.59448157721051698
40
1
40
1
40
1
40
1
10
9.5857864375268775
20
37.763274122871699
30
0
10
9.2354848087682484
20
37.763274122843683
30
0
10
8.8151873148915882
20
37.578667669496681
30
0
10
8.5751444498603036
20
37.248871004698252
30
0
10
8.4114021107182424
20
37.023904195839634
30
0
10
8.3357864376268509
20
36.752228145065899
30
0
10
8.3357864376268509
20
36.513274122871699
30
0
0
SPLINE
5
112
100
AcDbEntity
8
INTERIOR_PROFILES
100
AcDbSpline
70
1064
71
3
72
11
73
7
74
0
42
0.000000001
43
0.0000000001
44
0.0000000001
40
0
40
0
40
0
40
0
40
0.5944815772102402
40
0.5944815772102402
40
0.5944815772102402
40
1
40
1
40
1
40
1
10
10.835786437626851
20
36.513274122971694
30
0
10
10.835786437598856
20
36.863575751730195
30
0
10
10.651179984252082
20
37.283873245606571
30
0
10
10.321383319453972
20
37.523916110637892
30
0
10
10.096416510595176
20
37.687658449780237
30
0
10
9.8247404598212285
20
37.763274122871699
30
0
10
9.5857864376268509
20
37.763274122871699
30
0
0
SPLINE
5
113
100
AcDbEntity
8
INTERIOR_PROFILES
100
AcDbSpline
70
1064
71
3
72
11
73
7
74
0
42
0.000000001
43
0.0000000001
44
0.0000000001
40
0
40
0
40
0
40
0
40
0.59448157720995976
40
0.59448157720995976
40
0.59448157720995976
40
1
40
1
40
1
40
1
10
532.33578643762689
20
36.513274122771726
30
0
10
532.33578643765486
20
36.162972494013381
30
0
10
532.52039289100139
20
35.74267500013724
30
0
10
532.85018955579937
20
35.502632135105841
30
0
10
533.07515636465814
20
35.338889795963254
30
0
10
533.34683241543235
20
35.263274122871699
30
0
10
533.58578643762689
20
35.263274122871699
30
0
0
SPLINE
5
114
100
AcDbEntity
8
INTERIOR_PROFILES
100
AcDbSpline
70
1064
71
3
72
11
73
7
74
0
42
0.000000001
43
0.0000000001
44
0.0000000001
40
0
40
0
40
0
40
0
40
0.59448157721046202
40
0.59448157721046202
40
0.59448157721046202
40
1
40
1
40
1
40
1
10
533.58578643752685
20
37.763274122871699
30
0
10
533.23548480876821
20
37.763274122843683
30
0
10
532.81518731489177
20
37.578667669496753
30
0
10
532.57514444986043
20
37.248871004698394
30
0
10
532.4114021107182
20
37.023904195839776
30
0
10
532.33578643762689
20
36.752228145065935
30
0
10
532.33578643762689
20
36.513274122871699
30
0
0
SPLINE
5
115
100
AcDbEntity
8
INTERIOR_PROFILES
100
AcDbSpline
70
1064
71
3
72
11
73
7
74
0
42
0.000000001
43
0.0000000001
44
0.0000000001
40
0
40
0
40
0
40
0
40
0.59448157721037886
40
0.59448157721037886
40
0.59448157721037886
40
1
40
1
40
1
40
1
10
534.83578643762689
20
36.513274122971694
30
0
10
534.83578643759893
20
36.863575751730281
30
0
10
534.65117998425194
20
37.28387324560677
30
0
10
534.32138331945373
20
37.523916110638069
30
0
10
534.09641651059508
20
37.687658449780308
30
0
10
533.8247404598211
20
37.763274122871699
30
0
10
533.58578643762689
20
37.763274122871699
30
0
0
SPLINE
5
116
100
AcDbEntity
8
INTERIOR_PROFILES
100
AcDbSpline
70
1064
71
3
72
11
73
7
74
0
42
0.000000001
43
0.0000000001
44
0.0000000001
40
0
40
0
40
0
40
0
40
0.59448157721074923
40
0.59448157721074923
40
0.59448157721074923
40
1
40
1
40
1
40
1
10
533.58578643772694
20
35.263274122871699
30
0
10
533.93608806648581
20
35.26327412289973
30
0
10
534.35638556036247
20
35.447880576246874
30
0
10
534.59642842539358
20
35.777677241045524
30
0
10
534.76017076453547
20
36.002644049904063
30
0
10
534.83578643762689
20
36.274320100677642
30
0
10
534.83578643762689
20
36.513274122871699
30
0
0
CIRCLE
5
117
100
AcDbEntity
8
INTERIOR_PROFILES
100
AcDbCircle
10
-5.9274876852447989
20
163.51327412287168
30
0
40
1.25
0
CIRCLE
5
118
100
AcDbEntity
8
INTERIOR_PROFILES
100
AcDbCircle
10
522.58578643762689
20
4.000000000000199
30
0
40
1.25
0
CIRCLE
5
119
100
AcDbEntity
8
INTERIOR_PROFILES
100
AcDbCircle
10
549.09906056049851
20
163.51327412287168
30
0
40
1.25
0
CIRCLE
5
120
100
AcDbEntity
8
INTERIOR_PROFILES
100
AcDbCircle
10
-5.9274876852447989
20
12.513274122871714
30
0
40
1.25
0
CIRCLE
5
121
100
AcDbEntity
8
INTERIOR_PROFILES
100
AcDbCircle
10
2.5857864376268935
20
4.000000000000199
30
0
40
1.25
0
CIRCLE
5
122
100
AcDbEntity
8
INTERIOR_PROFILES
100
AcDbCircle
10
262.58578643762689
20
4.000000000000199
30
0
40
1.25
0
LINE
5
123
100
AcDbEntity
8
BEND
100
AcDbLine
10
-1.6708506238088461
20
167.51327412287171
30
-9.6589403142388619e-14
11
-1.6708506238088461
21
9.9274876852447846
31
-9.6589403142388619e-14
0
LINE
5
124
100
AcDbEntity
8
BEND
100
AcDbLine
10
-1.4210854715202004e-13
20
8.2566370614360256
30
2.5494195772213759e-14
11
526.58578643762689
21
8.2566370614360256
31
-1.8344061000586279e-13
0
LINE
5
125
100
AcDbEntity
8
BEND
100
AcDbLine
10
544.84242349906265
20
155.01327412287171
30
-7.382983113757291e-14
11
544.84242349906265
21
167.51327412287171
31
-7.382983113757291e-14
0
LINE
5
126
100
AcDbEntity
8
BEND_EXTENT
100
AcDbLine
10
546.09906056049886
20
167.51327412287171
30
-7.1054273576010019e-14
11
546.09906056049886
21
155.01327412287171
31
-7.1054273576010019e-14
0
LINE
5
127
100
AcDbEntity
8
BEND_EXTENT
100
AcDbLine
10
543.58578643762689
20
155.01327412287171
30
-7.1054273576010019e-14
11
543.58578643762689
21
167.51327412287171
31
-7.1054273576010019e-14
0
LINE
5
128
100
AcDbEntity
8
BEND_EXTENT
100
AcDbLine
10
-1.4210854715202004e-13
20
9.5132741228717066
30
7.1054273576010019e-14
11
526.58578643762689
21
9.5132741228717421
31
-7.1054273576010019e-14
0
LINE
5
129
100
AcDbEntity
8
BEND_EXTENT
100
AcDbLine
10
526.58578643762689
20
7.0000000000001705
30
-1.4210854715202004e-13
11
-1.4210854715202004e-13
21
7.0000000000001705
31
-1.4210854715202004e-13
0
LINE
5
130
100
AcDbEntity
8
BEND_EXTENT
100
AcDbLine
10
-2.9274876852446852
20
9.9274876852447846
30
-9.6477680104549084e-14
11
-2.9274876852446852
21
167.51327412287171
31
-9.6477680104549084e-14
0
LINE
5
131
100
AcDbEntity
8
BEND_EXTENT
100
AcDbLine
10
-0.4142135623731491
20
167.51327412287171
30
-7.1054273576010019e-14
11
-0.4142135623731491
21
9.9274876852447136
31
7.1054273576010019e-14
0
ENDSEC
0
SECTION
2
OBJECTS
0
DICTIONARY
5
C
100
AcDbDictionary
3
ACAD_GROUP
350
D
3
ACAD_MLINESTYLE
350
17
0
DICTIONARY
5
D
100
AcDbDictionary
0
DICTIONARY
5
1A
330
C
100
AcDbDictionary
0
DICTIONARY
5
17
100
AcDbDictionary
0
ENDSEC
0
EOF
