0
SECTION
2
HEADER
9
$INSUNITS
70
4
9
$ACADVER
1
AC1014
9
$HANDSEED
5
FFFF
0
ENDSEC
0
SECTION
2
TABLES
0
TABLE
2
VPORT
5
8
100
AcDbSymbolTable
0
ENDTAB
0
TABLE
2
LTYPE
5
5
100
AcDbSymbolTable
0
LTYPE
5
14
100
AcDbSymbolTableRecord
100
AcDbLinetypeTableRecord
2
BYBLOCK
70
0
0
LTYPE
5
15
100
AcDbSymbolTableRecord
100
AcDbLinetypeTableRecord
2
BYLAYER
70
0
0
ENDTAB
0
TABLE
2
LAYER
5
2
100
AcDbSymbolTable
70
2
0
LAYER
5
50
100
AcDbSymbolTableRecord
100
AcDbLayerTableRecord
2
0
70
0
6
CONTINUOUS
0
ENDTAB
0
TABLE
2
STYLE
5
3
100
AcDbSymbolTable
70
1
0
STYLE
5
11
100
AcDbSymbolTableRecord
100
AcDbTextStyleTableRecord
2
STANDARD
70
0
0
ENDTAB
0
TABLE
2
VIEW
5
6
100
AcDbSymbolTable
70
0
0
ENDTAB
0
TABLE
2
UCS
5
7
100
AcDbSymbolTable
70
0
0
ENDTAB
0
TABLE
2
APPID
5
9
100
AcDbSymbolTable
70
2
0
APPID
5
12
100
AcDbSymbolTableRecord
100
AcDbRegAppTableRecord
2
ACAD
70
0
0
ENDTAB
0
TABLE
2
DIMSTYLE
5
A
100
AcDbSymbolTable
70
1
0
ENDTAB
0
TABLE
2
BLOCK_RECORD
5
1
100
AcDbSymbolTable
70
1
0
BLOCK_RECORD
5
1F
100
AcDbSymbolTableRecord
100
AcDbBlockTableRecord
2
*MODEL_SPACE
0
BLOCK_RECORD
5
1B
100
AcDbSymbolTableRecord
100
AcDbBlockTableRecord
2
*PAPER_SPACE
0
ENDTAB
0
ENDSEC
0
SECTION
2
BLOCKS
0
BLOCK
5
20
100
AcDbEntity
100
AcDbBlockBegin
2
*MODEL_SPACE
0
ENDBLK
5
21
100
AcDbEntity
100
AcDbBlockEnd
0
BLOCK
5
1C
100
AcDbEntity
100
AcDbBlockBegin
2
*PAPER_SPACE
0
ENDBLK
5
1D
100
AcDbEntity
100
AcDbBlockEnd
0
ENDSEC
0
SECTION
2
ENTITIES
0
LWPOLYLINE
5
100
100
AcDbEntity
8
OUTER_PROFILES
100
AcDbPolyline
90
20
70
1
43
0.0
10
-0.41421356237307805
20
553.09906056049886
10
-9.9274876852447846
20
553.09906056049863
10
-9.9274876852447846
20
9.9274876852449268
10
-0.41421356237293594
20
9.9274876852450706
10
-0.41421356237293594
20
9.5132741228718398
10
-7.1054273576010019e-13
20
9.5132741228718398
10
0
20
0
10
686.17157287525379
20
0
10
686.17157287525401
20
9.5132741228718398
10
686.58578643762689
20
9.5132741228718398
10
686.58578643762689
20
9.9274876852447758
10
696.09906056049886
20
9.9274876852449978
10
696.09906056049886
20
553.09906056049863
10
686.58578643762689
20
553.09906056049886
10
686.58578643762689
20
553.51327412287174
10
686.17157287525401
20
553.51327412287174
10
686.17157287525379
20
563.02654824574358
10
1.4210854715202004e-13
20
563.02654824574358
10
-1.4210854715202004e-13
20
553.51327412287174
10
-0.41421356237293594
20
553.51327412287174
0
SPLINE
5
101
100
AcDbEntity
8
INTERIOR_PROFILES
100
AcDbSpline
70
1064
71
3
72
11
73
7
74
0
42
0.000000001
43
0.0000000001
44
0.0000000001
40
-1
40
-1
40
-1
40
-1
40
-0.59448157721014183
40
-0.59448157721014183
40
-0.59448157721014183
40
-0
40
-0
40
-0
40
-0
10
-5.9274876852447278
20
280.26327412287179
30
0
10
-6.1664417074392475
20
280.26327412287179
30
0
10
-6.4381177582131954
20
280.33888979596333
30
0
10
-6.6630845670719907
20
280.50263213510573
30
0
10
-6.9928812318700295
20
280.74267500013713
30
0
10
-7.1774876852167324
20
281.16297249401339
30
0
10
-7.1774876852447278
20
281.5132741227718
30
0
0
SPLINE
5
102
100
AcDbEntity
8
INTERIOR_PROFILES
100
AcDbSpline
70
1064
71
3
72
11
73
7
74
0
42
0.000000001
43
0.0000000001
44
0.0000000001
40
-1
40
-1
40
-1
40
-1
40
-0.59448157721058736
40
-0.59448157721058736
40
-0.59448157721058736
40
-0
40
-0
40
-0
40
-0
10
-4.6774876852447278
20
281.51327412287179
30
0
10
-4.6774876852447278
20
281.27432010067764
30
0
10
-4.7531033583361193
20
281.00264404990389
30
0
10
-4.9168456974781805
20
280.7776772410453
30
0
10
-5.1568885625094651
20
280.4478805762468
30
0
10
-5.5771860563861253
20
280.26327412289987
30
0
10
-5.9274876851448255
20
280.26327412287185
30
0
0
SPLINE
5
103
100
AcDbEntity
8
INTERIOR_PROFILES
100
AcDbSpline
70
1064
71
3
72
11
73
7
74
0
42
0.000000001
43
0.0000000001
44
0.0000000001
40
-1
40
-1
40
-1
40
-1
40
-0.59448157721031292
40
-0.59448157721031292
40
-0.59448157721031292
40
-0
40
-0
40
-0
40
-0
10
-5.9274876852447278
20
282.76327412287179
30
0
10
-5.6885336630504924
20
282.76327412287179
30
0
10
-5.4168576122765444
20
282.68765844978032
30
0
10
-5.1918908034178912
20
282.52391611063803
30
0
10
-4.8620941386195682
20
282.28387324560674
30
0
10
-4.6774876852728653
20
281.86357575173031
30
0
10
-4.6774876852447278
20
281.51327412297184
30
0
0
SPLINE
5
104
100
AcDbEntity
8
INTERIOR_PROFILES
100
AcDbSpline
70
1064
71
3
72
11
73
7
74
0
42
0.000000001
43
0.0000000001
44
0.0000000001
40
-1
40
-1
40
-1
40
-1
40
-0.5944815772097517
40
-0.5944815772097517
40
-0.5944815772097517
40
-0
40
-0
40
-0
40
-0
10
-7.1774876852447278
20
281.51327412287185
30
0
10
-7.1774876852447278
20
281.75222814506645
30
0
10
-7.1018720121531942
20
282.02390419584083
30
0
10
-6.9381296730104225
20
282.24887100469965
30
0
10
-6.6980868079789957
20
282.57866766949741
30
0
10
-6.2777893141030461
20
282.76327412284377
30
0
10
-5.9274876853447722
20
282.76327412287179
30
0
0
SPLINE
5
105
100
AcDbEntity
8
INTERIOR_PROFILES
100
AcDbSpline
70
1064
71
3
72
11
73
7
74
0
42
0.000000001
43
0.0000000001
44
0.0000000001
40
-1
40
-1
40
-1
40
-1
40
-0.59448157721055972
40
-0.59448157721055972
40
-0.59448157721055972
40
-0
40
-0
40
-0
40
-0
10
-4.6774876852447278
20
550.51327412287185
30
0
10
-4.6774876852447278
20
550.27432010067764
30
0
10
-4.7531033583361193
20
550.00264404990401
30
0
10
-4.9168456974781805
20
549.77767724104535
30
0
10
-5.1568885625094651
20
549.44788057624703
30
0
10
-5.5771860563861253
20
549.26327412289982
30
0
10
-5.9274876851448255
20
549.26327412287185
30
0
0
SPLINE
5
106
100
AcDbEntity
8
INTERIOR_PROFILES
100
AcDbSpline
70
1064
71
3
72
11
73
7
74
0
42
0.000000001
43
0.0000000001
44
0.0000000001
40
-1
40
-1
40
-1
40
-1
40
-0.59448157721033756
40
-0.59448157721033756
40
-0.59448157721033756
40
-0
40
-0
40
-0
40
-0
10
-5.9274876852447278
20
551.76327412287185
30
0
10
-5.6885336630504924
20
551.76327412287185
30
0
10
-5.4168576122765444
20
551.68765844978043
30
0
10
-5.1918908034178912
20
551.5239161106382
30
0
10
-4.8620941386197103
20
551.28387324560697
30
0
10
-4.6774876852728653
20
550.86357575173042
30
0
10
-4.6774876852447278
20
550.51327412297189
30
0
0
SPLINE
5
107
100
AcDbEntity
8
INTERIOR_PROFILES
100
AcDbSpline
70
1064
71
3
72
11
73
7
74
0
42
0.000000001
43
0.0000000001
44
0.0000000001
40
-1
40
-1
40
-1
40
-1
40
-0.59448157721048001
40
-0.59448157721048001
40
-0.59448157721048001
40
-0
40
-0
40
-0
40
-0
10
-7.1774876852447278
20
550.51327412287185
30
0
10
-7.1774876852447278
20
550.75222814506606
30
0
10
-7.1018720121534784
20
551.02390419584003
30
0
10
-6.9381296730112751
20
551.24887100469857
30
0
10
-6.6980868079799905
20
551.57866766949689
30
0
10
-6.2777893141034724
20
551.76327412284377
30
0
10
-5.9274876853447722
20
551.76327412287185
30
0
0
SPLINE
5
108
100
AcDbEntity
8
INTERIOR_PROFILES
100
AcDbSpline
70
1064
71
3
72
11
73
7
74
0
42
0.000000001
43
0.0000000001
44
0.0000000001
40
-1
40
-1
40
-1
40
-1
40
-0.59448157721016948
40
-0.59448157721016948
40
-0.59448157721016948
40
-0
40
-0
40
-0
40
-0
10
-5.9274876852447278
20
549.26327412287185
30
0
10
-6.1664417074392475
20
549.26327412287185
30
0
10
-6.4381177582131954
20
549.33888979596327
30
0
10
-6.6630845670719907
20
549.50263213510561
30
0
10
-6.9928812318700295
20
549.74267500013707
30
0
10
-7.1774876852167324
20
550.16297249401339
30
0
10
-7.1774876852447278
20
550.5132741227718
30
0
0
SPLINE
5
109
100
AcDbEntity
8
INTERIOR_PROFILES
100
AcDbSpline
70
1064
71
3
72
11
73
7
74
0
42
0.000000001
43
0.0000000001
44
0.0000000001
40
-1
40
-1
40
-1
40
-1
40
-0.59448157720967276
40
-0.59448157720967276
40
-0.59448157720967276
40
-0
40
-0
40
-0
40
-0
10
-7.1774876852447278
20
12.513274122871811
30
0
10
-7.1774876852447278
20
12.752228145066473
30
0
10
-7.1018720121530521
20
13.023904195840883
30
0
10
-6.9381296730102804
20
13.248871004699714
30
0
10
-6.6980868079788536
20
13.578667669497433
30
0
10
-6.277789314102904
20
13.76327412284378
30
0
10
-5.9274876853447722
20
13.763274122871811
30
0
0
SPLINE
5
110
100
AcDbEntity
8
INTERIOR_PROFILES
100
AcDbSpline
70
1064
71
3
72
11
73
7
74
0
42
0.000000001
43
0.0000000001
44
0.0000000001
40
-1
40
-1
40
-1
40
-1
40
-0.59448157721072226
40
-0.59448157721072226
40
-0.59448157721072226
40
-0
40
-0
40
-0
40
-0
10
-5.9274876852447278
20
11.263274122871811
30
0
10
-6.1664417074388211
20
11.263274122871811
30
0
10
-6.4381177582124849
20
11.338889795963061
30
0
10
-6.6630845670709959
20
11.502632135105051
30
0
10
-6.9928812318696032
20
11.7426750001363
30
0
10
-7.1774876852167324
20
12.162972494012996
30
0
10
-7.1774876852447278
20
12.513274122771767
30
0
0
SPLINE
5
111
100
AcDbEntity
8
INTERIOR_PROFILES
100
AcDbSpline
70
1064
71
3
72
11
73
7
74
0
42
0.000000001
43
0.0000000001
44
0.0000000001
40
-1
40
-1
40
-1
40
-1
40
-0.59448157720957995
40
-0.59448157720957995
40
-0.59448157720957995
40
-0
40
-0
40
-0
40
-0
10
-4.6774876852447278
20
12.513274122871811
30
0
10
-4.6774876852447278
20
12.274320100677079
30
0
10
-4.7531033583365456
20
12.002644049902598
30
0
10
-4.9168456974793173
20
11.777677241043696
30
0
10
-5.1568885625108862
20
11.447880576246119
30
0
10
-5.5771860563866937
20
11.263274122899842
30
0
10
-5.9274876851448255
20
11.263274122871811
30
0
0
SPLINE
5
112
100
AcDbEntity
8
INTERIOR_PROFILES
100
AcDbSpline
70
1064
71
3
72
11
73
7
74
0
42
0.000000001
43
0.0000000001
44
0.0000000001
40
-1
40
-1
40
-1
40
-1
40
-0.59448157720983952
40
-0.59448157720983952
40
-0.59448157720983952
40
-0
40
-0
40
-0
40
-0
10
-5.9274876852447278
20
13.763274122871811
30
0
10
-5.6885336630502081
20
13.763274122871811
30
0
10
-5.416857612275976
20
13.687658449780207
30
0
10
-5.1918908034170386
20
13.523916110637577
30
0
10
-4.862094138619284
20
13.283873245606115
30
0
10
-4.6774876852728653
20
12.863575751730023
30
0
10
-4.6774876852447278
20
12.513274122971785
30
0
0
SPLINE
5
113
100
AcDbEntity
8
INTERIOR_PROFILES
100
AcDbSpline
70
1064
71
3
72
11
73
7
74
0
42
0.000000001
43
0.0000000001
44
0.0000000001
40
-1
40
-1
40
-1
40
-1
40
-0.59448157720978645
40
-0.59448157720978645
40
-0.59448157720978645
40
-0
40
-0
40
-0
40
-0
10
343.08578643762695
20
557.77654824574358
30
0
10
342.84683241543235
20
557.77654824574358
30
0
10
342.57515636465797
20
557.85216391883523
30
0
10
342.35018955579915
20
558.01590625797803
30
0
10
342.02039289100151
20
558.25594912300937
30
0
10
341.83578643765492
20
558.67624661688535
30
0
10
341.83578643762689
20
559.02654824564365
30
0
0
SPLINE
5
114
100
AcDbEntity
8
INTERIOR_PROFILES
100
AcDbSpline
70
1064
71
3
72
11
73
7
74
0
42
0.000000001
43
0.0000000001
44
0.0000000001
40
-1
40
-1
40
-1
40
-1
40
-0.59448157721007622
40
-0.59448157721007622
40
-0.59448157721007622
40
-0
40
-0
40
-0
40
-0
10
344.33578643762695
20
559.02654824574358
30
0
10
344.33578643762695
20
558.78759422354915
30
0
10
344.26017076453536
20
558.51591817277506
30
0
10
344.0964284253929
20
558.29095136391629
30
0
10
343.85638556036156
20
557.96115469911831
30
0
10
343.43608806648547
20
557.77654824577166
30
0
10
343.08578643772705
20
557.77654824574358
30
0
0
SPLINE
5
115
100
AcDbEntity
8
INTERIOR_PROFILES
100
AcDbSpline
70
1064
71
3
72
11
73
7
74
0
42
0.000000001
43
0.0000000001
44
0.0000000001
40
-1
40
-1
40
-1
40
-1
40
-0.59448157720990613
40
-0.59448157720990613
40
-0.59448157720990613
40
-0
40
-0
40
-0
40
-0
10
343.08578643762695
20
560.27654824574358
30
0
10
343.32474045982156
20
560.27654824574358
30
0
10
343.59641651059582
20
560.20093257265205
30
0
10
343.82138331945464
20
560.03719023350936
30
0
10
344.15117998425245
20
559.79714736847802
30
0
10
344.33578643759893
20
559.37684987460193
30
0
10
344.33578643762695
20
559.02654824584363
30
0
0
SPLINE
5
116
100
AcDbEntity
8
INTERIOR_PROFILES
100
AcDbSpline
70
1064
71
3
72
11
73
7
74
0
42
0.000000001
43
0.0000000001
44
0.0000000001
40
-1
40
-1
40
-1
40
-1
40
-0.59448157721059203
40
-0.59448157721059203
40
-0.59448157721059203
40
-0
40
-0
40
-0
40
-0
10
341.83578643762695
20
559.02654824574358
30
0
10
341.83578643762695
20
559.26550226793779
30
0
10
341.91140211071826
20
559.53717831871143
30
0
10
342.07514444986032
20
559.76214512757008
30
0
10
342.31518731489155
20
560.09194179236852
30
0
10
342.73548480876826
20
560.27654824571562
30
0
10
343.08578643752696
20
560.27654824574358
30
0
0
SPLINE
5
117
100
AcDbEntity
8
INTERIOR_PROFILES
100
AcDbSpline
70
1064
71
3
72
11
73
7
74
0
42
0.000000001
43
0.0000000001
44
0.0000000001
40
0
40
0
40
0
40
0
40
0.59448157721008377
40
0.59448157721008377
40
0.59448157721008377
40
1
40
1
40
1
40
1
10
2.5857864377269379
20
5.2499999999999858
30
0
10
2.9360880664853539
20
5.2499999999719593
30
0
10
3.3563855603615877
20
5.0653935466253008
30
0
10
3.5964284253928724
20
4.7355968818272807
30
0
10
3.7601707645353599
20
4.5106300729685289
30
0
10
3.8357864376268935
20
4.23895402219443
30
0
10
3.8357864376268935
20
3.9999999999999813
30
0
0
SPLINE
5
118
100
AcDbEntity
8
INTERIOR_PROFILES
100
AcDbSpline
70
1064
71
3
72
11
73
7
74
0
42
0.000000001
43
0.0000000001
44
0.0000000001
40
0
40
0
40
0
40
0
40
0.59448157721075356
40
0.59448157721075356
40
0.59448157721075356
40
1
40
1
40
1
40
1
10
1.3357864376270356
20
4.0000000000999814
30
0
10
1.335786437655031
20
4.3503016288587881
30
0
10
1.5203928910021602
20
4.7705991227355558
30
0
10
1.8501895558007675
20
5.0106419877667996
30
0
10
2.0751563646592786
20
5.1743843269087453
30
0
10
2.3468324154328002
20
5.2499999999999769
30
0
10
2.5857864376268935
20
5.2499999999999769
30
0
0
SPLINE
5
119
100
AcDbEntity
8
INTERIOR_PROFILES
100
AcDbSpline
70
1064
71
3
72
11
73
7
74
0
42
0.000000001
43
0.0000000001
44
0.0000000001
40
0
40
0
40
0
40
0
40
0.59448157720942629
40
0.59448157720942629
40
0.59448157720942629
40
1
40
1
40
1
40
1
10
2.5857864375269912
20
2.7499999999999813
30
0
10
2.2354848087690016
20
2.7500000000280034
30
0
10
1.8151873148931941
20
2.93460645337416
30
0
10
1.5751444498617673
20
3.2644031181715905
30
0
10
1.4114021107187114
20
3.48936992703055
30
0
10
1.3357864376268935
20
3.7610459778051419
30
0
10
1.3357864376268935
20
3.9999999999999813
30
0
0
SPLINE
5
120
100
AcDbEntity
8
INTERIOR_PROFILES
100
AcDbSpline
70
1064
71
3
72
11
73
7
74
0
42
0.000000001
43
0.0000000001
44
0.0000000001
40
0
40
0
40
0
40
0
40
0.59448157721084827
40
0.59448157721084827
40
0.59448157721084827
40
1
40
1
40
1
40
1
10
3.8357864376268935
20
3.9999999998999813
30
0
10
3.8357864375988981
20
3.6496983711411213
30
0
10
3.6511799842517689
20
3.2294008772642746
30
0
10
3.3213833194530196
20
2.9893580122330476
30
0
10
3.0964165105945085
20
2.8256156730911774
30
0
10
2.8247404598209869
20
2.7499999999999813
30
0
10
2.5857864376268935
20
2.7499999999999813
30
0
0
SPLINE
5
121
100
AcDbEntity
8
INTERIOR_PROFILES
100
AcDbSpline
70
1064
71
3
72
11
73
7
74
0
42
0.000000001
43
0.0000000001
44
0.0000000001
40
-1
40
-1
40
-1
40
-1
40
-0.59448157721084827
40
-0.59448157721084827
40
-0.59448157721084827
40
-0
40
-0
40
-0
40
-0
10
2.5857864376268935
20
560.27654824574358
30
0
10
2.8247404598209869
20
560.27654824574358
30
0
10
3.0964165105945085
20
560.20093257265239
30
0
10
3.3213833194530196
20
560.0371902335105
30
0
10
3.6511799842517689
20
559.79714736847927
30
0
10
3.8357864375988981
20
559.3768498746025
30
0
10
3.8357864376268935
20
559.02654824584363
30
0
0
SPLINE
5
122
100
AcDbEntity
8
INTERIOR_PROFILES
100
AcDbSpline
70
1064
71
3
72
11
73
7
74
0
42
0.000000001
43
0.0000000001
44
0.0000000001
40
-1
40
-1
40
-1
40
-1
40
-0.59448157720942629
40
-0.59448157720942629
40
-0.59448157720942629
40
-0
40
-0
40
-0
40
-0
10
1.3357864376268935
20
559.02654824574358
30
0
10
1.3357864376268935
20
559.26550226793847
30
0
10
1.4114021107187114
20
559.53717831871313
30
0
10
1.5751444498617673
20
559.76214512757201
30
0
10
1.8151873148931941
20
560.09194179236943
30
0
10
2.2354848087690016
20
560.27654824571562
30
0
10
2.5857864375269912
20
560.27654824574358
30
0
0
SPLINE
5
123
100
AcDbEntity
8
INTERIOR_PROFILES
100
AcDbSpline
70
1064
71
3
72
11
73
7
74
0
42
0.000000001
43
0.0000000001
44
0.0000000001
40
-1
40
-1
40
-1
40
-1
40
-0.59448157721075356
40
-0.59448157721075356
40
-0.59448157721075356
40
-0
40
-0
40
-0
40
-0
10
2.5857864376268935
20
557.77654824574358
30
0
10
2.3468324154328002
20
557.77654824574358
30
0
10
2.0751563646592786
20
557.85216391883489
30
0
10
1.8501895558007675
20
558.01590625797678
30
0
10
1.5203928910021602
20
558.25594912300812
30
0
10
1.335786437655031
20
558.67624661688478
30
0
10
1.3357864376270356
20
559.02654824564365
30
0
0
SPLINE
5
124
100
AcDbEntity
8
INTERIOR_PROFILES
100
AcDbSpline
70
1064
71
3
72
11
73
7
74
0
42
0.000000001
43
0.0000000001
44
0.0000000001
40
-1
40
-1
40
-1
40
-1
40
-0.59448157721008377
40
-0.59448157721008377
40
-0.59448157721008377
40
-0
40
-0
40
-0
40
-0
10
3.8357864376268935
20
559.02654824574358
30
0
10
3.8357864376268935
20
558.78759422354915
30
0
10
3.7601707645353599
20
558.51591817277506
30
0
10
3.5964284253928724
20
558.29095136391641
30
0
10
3.3563855603615877
20
557.96115469911831
30
0
10
2.9360880664853539
20
557.77654824577166
30
0
10
2.5857864377269379
20
557.77654824574358
30
0
0
SPLINE
5
125
100
AcDbEntity
8
INTERIOR_PROFILES
100
AcDbSpline
70
1064
71
3
72
11
73
7
74
0
42
0.000000001
43
0.0000000001
44
0.0000000001
40
0
40
0
40
0
40
0
40
0.59448157721059203
40
0.59448157721059203
40
0.59448157721059203
40
1
40
1
40
1
40
1
10
343.08578643752696
20
2.7499999999999813
30
0
10
342.73548480876826
20
2.7500000000280034
30
0
10
342.31518731489155
20
2.9346064533750482
30
0
10
342.07514444986032
20
3.2644031181735311
30
0
10
341.91140211071826
20
3.4893699270321221
30
0
10
341.83578643762695
20
3.7610459778058303
30
0
10
341.83578643762695
20
3.9999999999999813
30
0
0
SPLINE
5
126
100
AcDbEntity
8
INTERIOR_PROFILES
100
AcDbSpline
70
1064
71
3
72
11
73
7
74
0
42
0.000000001
43
0.0000000001
44
0.0000000001
40
0
40
0
40
0
40
0
40
0.59448157720990613
40
0.59448157720990613
40
0.59448157720990613
40
1
40
1
40
1
40
1
10
344.33578643762695
20
3.9999999998999813
30
0
10
344.33578643759893
20
3.6496983711416764
30
0
10
344.15117998425245
20
3.2294008772655758
30
0
10
343.82138331945464
20
2.989358012234189
30
0
10
343.59641651059582
20
2.8256156730915682
30
0
10
343.32474045982156
20
2.7499999999999813
30
0
10
343.08578643762695
20
2.7499999999999813
30
0
0
SPLINE
5
127
100
AcDbEntity
8
INTERIOR_PROFILES
100
AcDbSpline
70
1064
71
3
72
11
73
7
74
0
42
0.000000001
43
0.0000000001
44
0.0000000001
40
0
40
0
40
0
40
0
40
0.59448157721007622
40
0.59448157721007622
40
0.59448157721007622
40
1
40
1
40
1
40
1
10
343.08578643772705
20
5.2499999999999858
30
0
10
343.43608806648547
20
5.2499999999719593
30
0
10
343.85638556036156
20
5.0653935466253097
30
0
10
344.0964284253929
20
4.7355968818272896
30
0
10
344.26017076453536
20
4.5106300729685378
30
0
10
344.33578643762695
20
4.2389540221944344
30
0
10
344.33578643762695
20
3.9999999999999813
30
0
0
SPLINE
5
128
100
AcDbEntity
8
INTERIOR_PROFILES
100
AcDbSpline
70
1064
71
3
72
11
73
7
74
0
42
0.000000001
43
0.0000000001
44
0.0000000001
40
0
40
0
40
0
40
0
40
0.59448157720978645
40
0.59448157720978645
40
0.59448157720978645
40
1
40
1
40
1
40
1
10
341.83578643762689
20
4.0000000000999814
30
0
10
341.83578643765492
20
4.3503016288582153
30
0
10
342.02039289100151
20
4.7705991227342235
30
0
10
342.35018955579915
20
5.0106419877656316
30
0
10
342.57515636465797
20
5.1743843269083456
30
0
10
342.84683241543235
20
5.2499999999999858
30
0
10
343.08578643762695
20
5.2499999999999858
30
0
0
SPLINE
5
129
100
AcDbEntity
8
INTERIOR_PROFILES
100
AcDbSpline
70
1064
71
3
72
11
73
7
74
0
42
0.000000001
43
0.0000000001
44
0.0000000001
40
0
40
0
40
0
40
0
40
0.59448157721110551
40
0.59448157721110551
40
0.59448157721110551
40
1
40
1
40
1
40
1
10
683.58578643752696
20
2.7499999999999813
30
0
10
683.23548480876798
20
2.7500000000280034
30
0
10
682.81518731489098
20
2.9346064533754301
30
0
10
682.57514444985975
20
3.2644031181743838
30
0
10
682.41140211071809
20
3.4893699270328149
30
0
10
682.33578643762701
20
3.7610459778061323
30
0
10
682.33578643762701
20
3.9999999999999813
30
0
0
SPLINE
5
130
100
AcDbEntity
8
INTERIOR_PROFILES
100
AcDbSpline
70
1064
71
3
72
11
73
7
74
0
42
0.000000001
43
0.0000000001
44
0.0000000001
40
0
40
0
40
0
40
0
40
0.59448157721029893
40
0.59448157721029893
40
0.59448157721029893
40
1
40
1
40
1
40
1
10
684.83578643762701
20
3.9999999998999813
30
0
10
684.83578643759893
20
3.6496983711414455
30
0
10
684.65117998425217
20
3.229400877265034
30
0
10
684.32138331945396
20
2.9893580122337138
30
0
10
684.0964165105953
20
2.8256156730914039
30
0
10
683.82474045982133
20
2.7499999999999813
30
0
10
683.58578643762701
20
2.7499999999999813
30
0
0
SPLINE
5
131
100
AcDbEntity
8
INTERIOR_PROFILES
100
AcDbSpline
70
1064
71
3
72
11
73
7
74
0
42
0.000000001
43
0.0000000001
44
0.0000000001
40
0
40
0
40
0
40
0
40
0.59448157720981609
40
0.59448157720981609
40
0.59448157720981609
40
1
40
1
40
1
40
1
10
683.58578643772705
20
5.2499999999999858
30
0
10
683.93608806648535
20
5.2499999999719593
30
0
10
684.35638556036122
20
5.0653935466255096
30
0
10
684.59642842539256
20
4.7355968818277248
30
0
10
684.76017076453513
20
4.5106300729688931
30
0
10
684.83578643762701
20
4.2389540221945854
30
0
10
684.83578643762701
20
3.9999999999999813
30
0
0
SPLINE
5
132
100
AcDbEntity
8
INTERIOR_PROFILES
100
AcDbSpline
70
1064
71
3
72
11
73
7
74
0
42
0.000000001
43
0.0000000001
44
0.0000000001
40
0
40
0
40
0
40
0
40
0.59448157721035644
40
0.59448157721035644
40
0.59448157721035644
40
1
40
1
40
1
40
1
10
682.33578643762701
20
4.0000000000999814
30
0
10
682.33578643765497
20
4.3503016288585528
30
0
10
682.52039289100196
20
4.7705991227350051
30
0
10
682.85018955580017
20
5.0106419877663111
30
0
10
683.07515636465882
20
5.1743843269085765
30
0
10
683.34683241543257
20
5.2499999999999858
30
0
10
683.58578643762689
20
5.2499999999999858
30
0
0
SPLINE
5
133
100
AcDbEntity
8
INTERIOR_PROFILES
100
AcDbSpline
70
1064
71
3
72
11
73
7
74
0
42
0.000000001
43
0.0000000001
44
0.0000000001
40
-1
40
-1
40
-1
40
-1
40
-0.59448157721110551
40
-0.59448157721110551
40
-0.59448157721110551
40
-0
40
-0
40
-0
40
-0
10
682.33578643762701
20
559.02654824574358
30
0
10
682.33578643762701
20
559.26550226793756
30
0
10
682.41140211071809
20
559.53717831871086
30
0
10
682.57514444985975
20
559.76214512756928
30
0
10
682.81518731489098
20
560.09194179236817
30
0
10
683.23548480876798
20
560.27654824571562
30
0
10
683.58578643752696
20
560.27654824574358
30
0
0
SPLINE
5
134
100
AcDbEntity
8
INTERIOR_PROFILES
100
AcDbSpline
70
1064
71
3
72
11
73
7
74
0
42
0.000000001
43
0.0000000001
44
0.0000000001
40
-1
40
-1
40
-1
40
-1
40
-0.59448157721035644
40
-0.59448157721035644
40
-0.59448157721035644
40
-0
40
-0
40
-0
40
-0
10
683.58578643762689
20
557.77654824574358
30
0
10
683.34683241543257
20
557.77654824574358
30
0
10
683.07515636465882
20
557.852163918835
30
0
10
682.85018955580017
20
558.01590625797735
30
0
10
682.52039289100196
20
558.25594912300858
30
0
10
682.33578643765497
20
558.67624661688501
30
0
10
682.33578643762701
20
559.02654824564365
30
0
0
SPLINE
5
135
100
AcDbEntity
8
INTERIOR_PROFILES
100
AcDbSpline
70
1064
71
3
72
11
73
7
74
0
42
0.000000001
43
0.0000000001
44
0.0000000001
40
-1
40
-1
40
-1
40
-1
40
-0.59448157720981609
40
-0.59448157720981609
40
-0.59448157720981609
40
-0
40
-0
40
-0
40
-0
10
684.83578643762701
20
559.02654824574358
30
0
10
684.83578643762701
20
558.78759422354904
30
0
10
684.76017076453513
20
558.51591817277472
30
0
10
684.59642842539256
20
558.29095136391584
30
0
10
684.35638556036122
20
557.96115469911808
30
0
10
683.93608806648535
20
557.77654824577166
30
0
10
683.58578643772705
20
557.77654824574358
30
0
0
SPLINE
5
136
100
AcDbEntity
8
INTERIOR_PROFILES
100
AcDbSpline
70
1064
71
3
72
11
73
7
74
0
42
0.000000001
43
0.0000000001
44
0.0000000001
40
-1
40
-1
40
-1
40
-1
40
-0.59448157721029893
40
-0.59448157721029893
40
-0.59448157721029893
40
-0
40
-0
40
-0
40
-0
10
683.58578643762701
20
560.27654824574358
30
0
10
683.82474045982133
20
560.27654824574358
30
0
10
684.0964165105953
20
560.20093257265228
30
0
10
684.32138331945396
20
560.03719023350993
30
0
10
684.65117998425217
20
559.79714736847859
30
0
10
684.83578643759893
20
559.37684987460216
30
0
10
684.83578643762701
20
559.02654824584363
30
0
0
CIRCLE
5
137
100
AcDbEntity
8
INTERIOR_PROFILES
100
AcDbCircle
10
679.58578643762712
20
528.51327412282183
30
0
40
1.25
0
LWPOLYLINE
5
138
100
AcDbEntity
8
INTERIOR_PROFILES
100
AcDbPolyline
90
4
70
1
43
0.0
10
16.58578643762695
20
536.51327412287185
10
669.58578643762689
20
536.51327412287185
10
669.58578643762689
20
26.513274122871799
10
16.58578643762695
20
26.513274122871806
0
CIRCLE
5
139
100
AcDbEntity
8
INTERIOR_PROFILES
100
AcDbCircle
10
24.585786437626922
20
543.51327412282183
30
0
40
1.25
0
CIRCLE
5
140
100
AcDbEntity
8
INTERIOR_PROFILES
100
AcDbCircle
10
664.58578643762689
20
20.513274122821798
30
0
40
1.25
0
CIRCLE
5
141
100
AcDbEntity
8
INTERIOR_PROFILES
100
AcDbCircle
10
9.585786437626922
20
37.513274122821805
30
0
40
1.25
0
LINE
5
142
100
AcDbEntity
8
BEND
100
AcDbLine
10
686.17157287525401
20
554.7699111843076
30
4.453548826552385e-14
11
1.4210854715202004e-13
21
554.7699111843076
31
7.2764307805125474e-14
0
LINE
5
143
100
AcDbEntity
8
BEND
100
AcDbLine
10
-1.6708506238089171
20
553.09906056049886
30
1.750968023287813e-15
11
-1.6708506238089171
21
9.9274876852449268
31
1.1958565109752288e-15
0
LINE
5
144
100
AcDbEntity
8
BEND
100
AcDbLine
10
687.84242349906276
20
9.9274876852447758
30
1.7509680232878071e-15
11
687.84242349906276
21
553.09906056049863
31
-4.0992618424780727e-14
0
LINE
5
145
100
AcDbEntity
8
BEND
100
AcDbLine
10
-5.6843418860808015e-13
20
8.2566370614359297
30
1.7509680232878071e-15
11
686.17157287525379
21
8.2566370614359297
31
1.1958565109752288e-15
0
LINE
5
146
100
AcDbEntity
8
BEND_EXTENT
100
AcDbLine
10
689.09906056049874
20
553.09906056049863
30
-1.2681931296839229e-14
11
689.09906056049874
21
9.9274876852447846
31
-1.2681931296839229e-14
0
LINE
5
147
100
AcDbEntity
8
BEND_EXTENT
100
AcDbLine
10
686.58578643762689
20
9.9274876852447758
30
1.7509680232878071e-15
11
686.58578643762689
21
553.09906056049886
31
1.7509680232878071e-15
0
LINE
5
148
100
AcDbEntity
8
BEND_EXTENT
100
AcDbLine
10
-2.9274876852447562
20
9.9274876852449179
30
1.6181734162371084e-15
11
-2.9274876852447562
21
553.09906056049886
31
1.6181734162371084e-15
0
LINE
5
149
100
AcDbEntity
8
BEND_EXTENT
100
AcDbLine
10
-0.41421356237307805
20
553.09906056049886
30
1.7509680232878071e-15
11
-0.41421356237293594
21
9.9274876852450689
31
1.7509680232878071e-15
0
LINE
5
150
100
AcDbEntity
8
BEND_EXTENT
100
AcDbLine
10
1.4210854715202004e-13
20
556.02654824574358
30
5.8372342279170784e-14
11
686.17157287525401
21
556.02654824574358
31
5.8372342279170784e-14
0
LINE
5
151
100
AcDbEntity
8
BEND_EXTENT
100
AcDbLine
10
686.17157287525401
20
553.51327412287174
30
1.7509680232878071e-15
11
-1.4210854715202004e-13
21
553.51327412287174
31
1.7509680232878071e-15
0
LINE
5
152
100
AcDbEntity
8
BEND_EXTENT
100
AcDbLine
10
686.17157287525379
20
6.9999999999999831
30
1.6181734162371084e-15
11
-7.1054273576010019e-13
21
6.9999999999999831
31
1.6181734162371084e-15
0
LINE
5
153
100
AcDbEntity
8
BEND_EXTENT
100
AcDbLine
10
-7.1054273576010019e-13
20
9.5132741228718398
30
1.7509680232878071e-15
11
686.17157287525401
21
9.5132741228718398
31
1.7509680232878071e-15
0
ENDSEC
0
SECTION
2
OBJECTS
0
DICTIONARY
5
C
100
AcDbDictionary
3
ACAD_GROUP
350
D
3
ACAD_MLINESTYLE
350
17
0
DICTIONARY
5
D
100
AcDbDictionary
0
DICTIONARY
5
1A
330
C
100
AcDbDictionary
0
DICTIONARY
5
17
100
AcDbDictionary
0
ENDSEC
0
EOF
