0
SECTION
2
HEADER
9
$INSUNITS
70
4
9
$ACADVER
1
AC1014
9
$HANDSEED
5
FFFF
0
ENDSEC
0
SECTION
2
TABLES
0
TABLE
2
VPORT
5
8
100
AcDbSymbolTable
0
ENDTAB
0
TABLE
2
LTYPE
5
5
100
AcDbSymbolTable
0
LTYPE
5
14
100
AcDbSymbolTableRecord
100
AcDbLinetypeTableRecord
2
BYBLOCK
70
0
0
LTYPE
5
15
100
AcDbSymbolTableRecord
100
AcDbLinetypeTableRecord
2
BYLAYER
70
0
0
ENDTAB
0
TABLE
2
LAYER
5
2
100
AcDbSymbolTable
70
2
0
LAYER
5
50
100
AcDbSymbolTableRecord
100
AcDbLayerTableRecord
2
0
70
0
6
CONTINUOUS
0
ENDTAB
0
TABLE
2
STYLE
5
3
100
AcDbSymbolTable
70
1
0
STYLE
5
11
100
AcDbSymbolTableRecord
100
AcDbTextStyleTableRecord
2
STANDARD
70
0
0
ENDTAB
0
TABLE
2
VIEW
5
6
100
AcDbSymbolTable
70
0
0
ENDTAB
0
TABLE
2
UCS
5
7
100
AcDbSymbolTable
70
0
0
ENDTAB
0
TABLE
2
APPID
5
9
100
AcDbSymbolTable
70
2
0
APPID
5
12
100
AcDbSymbolTableRecord
100
AcDbRegAppTableRecord
2
ACAD
70
0
0
ENDTAB
0
TABLE
2
DIMSTYLE
5
A
100
AcDbSymbolTable
70
1
0
ENDTAB
0
TABLE
2
BLOCK_RECORD
5
1
100
AcDbSymbolTable
70
1
0
BLOCK_RECORD
5
1F
100
AcDbSymbolTableRecord
100
AcDbBlockTableRecord
2
*MODEL_SPACE
0
BLOCK_RECORD
5
1B
100
AcDbSymbolTableRecord
100
AcDbBlockTableRecord
2
*PAPER_SPACE
0
ENDTAB
0
ENDSEC
0
SECTION
2
BLOCKS
0
BLOCK
5
20
100
AcDbEntity
100
AcDbBlockBegin
2
*MODEL_SPACE
0
ENDBLK
5
21
100
AcDbEntity
100
AcDbBlockEnd
0
BLOCK
5
1C
100
AcDbEntity
100
AcDbBlockBegin
2
*PAPER_SPACE
0
ENDBLK
5
1D
100
AcDbEntity
100
AcDbBlockEnd
0
ENDSEC
0
SECTION
2
ENTITIES
0
LWPOLYLINE
5
100
100
AcDbEntity
8
OUTER_PROFILES
100
AcDbPolyline
90
28
70
1
43
0.0
10
-9.5132741228718682
20
0.41421356237307805
10
-9.5132741228718682
20
543.58578643762689
10
-1.3877787807814457e-14
20
543.58578643762701
10
-1.4432899320127035e-14
20
544
10
0.41421356237297202
20
544
10
0.4142135623731491
20
553.51327412287196
10
41.999999999999957
20
553.51327412287196
10
41.999999999999993
20
544
10
247.19999999999999
20
544
10
247.19999999999999
20
553.51327412287196
10
690.08578643762689
20
553.51327412287196
10
690.08578643762667
20
544
10
690.50000000000011
20
544
10
690.50000000000011
20
543.58578643762701
10
700.01327412287196
20
543.58578643762689
10
700.01327412287196
20
0.41421356237318463
10
690.50000000000011
20
0.41421356237297147
10
690.50000000000011
20
-3.5527136788005009e-14
10
690.08578643762667
20
-6.6613381477509392e-15
10
690.08578643762689
20
-9.5132741228718345
10
247.19999999999996
20
-9.5132741228718327
10
247.19999999999999
20
-2.0539125955565396e-14
10
41.999999999999986
20
-2.1094237467877974e-14
10
41.999999999999986
20
-9.5132741228718345
10
0.4142135623730353
20
-9.5132741228718345
10
0.4142135623730353
20
-6.6613381477509392e-15
10
-1.4432899320127035e-14
20
0
10
-1.3322676295501878e-14
20
0.41421356237297924
0
SPLINE
5
101
100
AcDbEntity
8
INTERIOR_PROFILES
100
AcDbSpline
70
1064
71
3
72
11
73
7
74
0
42
0.000000001
43
0.0000000001
44
0.0000000001
40
0
40
0
40
0
40
0
40
0.59448157720996531
40
0.59448157720996531
40
0.59448157720996531
40
1
40
1
40
1
40
1
10
680.49999999990007
20
29.250000000000007
30
0
10
680.14969837114165
20
29.249999999971976
30
0
10
679.72940087726556
20
29.065393546625415
30
0
10
679.48935801223399
20
28.735596881827483
30
0
10
679.32561567309131
20
28.510630072968688
30
0
10
679.25000000000011
20
28.238954022194527
30
0
10
679.25000000000011
20
28.000000000000007
30
0
0
SPLINE
5
102
100
AcDbEntity
8
INTERIOR_PROFILES
100
AcDbSpline
70
1064
71
3
72
11
73
7
74
0
42
0.000000001
43
0.0000000001
44
0.0000000001
40
0
40
0
40
0
40
0
40
0.59448157721023398
40
0.59448157721023398
40
0.59448157721023398
40
1
40
1
40
1
40
1
10
681.75000000000011
20
28.00000000009998
30
0
10
681.74999999997203
20
28.350301628858503
30
0
10
681.56539354662527
20
28.770599122734843
30
0
10
681.23559688182695
20
29.010641987766164
30
0
10
681.0106300729683
20
29.174384326908545
30
0
10
680.73895402219455
20
29.250000000000007
30
0
10
680.50000000000011
20
29.250000000000007
30
0
0
SPLINE
5
103
100
AcDbEntity
8
INTERIOR_PROFILES
100
AcDbSpline
70
1064
71
3
72
11
73
7
74
0
42
0.000000001
43
0.0000000001
44
0.0000000001
40
0
40
0
40
0
40
0
40
0.59448157721067274
40
0.59448157721067274
40
0.59448157721067274
40
1
40
1
40
1
40
1
10
680.50000000010016
20
26.750000000000007
30
0
10
680.85030162885892
20
26.750000000028002
30
0
10
681.27059912273558
20
26.934606453375132
30
0
10
681.51064198776658
20
27.264403118173668
30
0
10
681.67438432690858
20
27.48936992703225
30
0
10
681.75000000000011
20
27.761045977805878
30
0
10
681.75000000000011
20
28.000000000000007
30
0
0
SPLINE
5
104
100
AcDbEntity
8
INTERIOR_PROFILES
100
AcDbSpline
70
1064
71
3
72
11
73
7
74
0
42
0.000000001
43
0.0000000001
44
0.0000000001
40
0
40
0
40
0
40
0
40
0.59448157721051853
40
0.59448157721051853
40
0.59448157721051853
40
1
40
1
40
1
40
1
10
679.25000000000011
20
27.999999999899998
30
0
10
679.25000000002797
20
27.649698371141334
30
0
10
679.43460645337495
20
27.229400877264744
30
0
10
679.76440311817328
20
26.98935801223346
30
0
10
679.98936992703193
20
26.825615673091328
30
0
10
680.26104597780568
20
26.750000000000007
30
0
10
680.50000000000011
20
26.750000000000007
30
0
0
SPLINE
5
105
100
AcDbEntity
8
INTERIOR_PROFILES
100
AcDbSpline
70
1064
71
3
72
11
73
7
74
0
42
0.000000001
43
0.0000000001
44
0.0000000001
40
0
40
0
40
0
40
0
40
0.59448157721053574
40
0.59448157721053574
40
0.59448157721053574
40
1
40
1
40
1
40
1
10
26.749999999999929
20
11.000000000099988
30
0
10
26.749999999971934
20
11.350301628858688
30
0
10
26.565393546624946
20
11.770599122735277
30
0
10
26.235596881826481
20
12.010641987766562
30
0
10
26.010630072967828
20
12.174384326908658
30
0
10
25.738954022194164
20
12.249999999999979
30
0
10
25.499999999999929
20
12.249999999999979
30
0
0
SPLINE
5
106
100
AcDbEntity
8
INTERIOR_PROFILES
100
AcDbSpline
70
1064
71
3
72
11
73
7
74
0
42
0.000000001
43
0.0000000001
44
0.0000000001
40
0
40
0
40
0
40
0
40
0.59448157721002504
40
0.59448157721002504
40
0.59448157721002504
40
1
40
1
40
1
40
1
10
25.500000000099973
20
9.7499999999999787
30
0
10
25.850301628858389
20
9.7500000000280096
30
0
10
26.270599122734623
20
9.9346064533746059
30
0
10
26.510641987765908
20
10.264403118172609
30
0
10
26.674384326908537
20
10.489369927031369
30
0
10
26.749999999999929
20
10.761045977805495
30
0
10
26.749999999999929
20
10.999999999999979
30
0
0
SPLINE
5
107
100
AcDbEntity
8
INTERIOR_PROFILES
100
AcDbSpline
70
1064
71
3
72
11
73
7
74
0
42
0.000000001
43
0.0000000001
44
0.0000000001
40
0
40
0
40
0
40
0
40
0.59448157721027073
40
0.59448157721027073
40
0.59448157721027073
40
1
40
1
40
1
40
1
10
24.249999999999929
20
10.999999999900005
30
0
10
24.250000000027924
20
10.649698371141483
30
0
10
24.434606453374769
20
10.229400877265071
30
0
10
24.76440311817295
20
9.9893580122337511
30
0
10
24.989369927031603
20
9.8256156730914412
30
0
10
25.261045977805551
20
9.7499999999999787
30
0
10
25.499999999999929
20
9.7499999999999787
30
0
0
SPLINE
5
108
100
AcDbEntity
8
INTERIOR_PROFILES
100
AcDbSpline
70
1064
71
3
72
11
73
7
74
0
42
0.000000001
43
0.0000000001
44
0.0000000001
40
0
40
0
40
0
40
0
40
0.5944815772101717
40
0.5944815772101717
40
0.5944815772101717
40
1
40
1
40
1
40
1
10
25.499999999900027
20
12.249999999999979
30
0
10
25.149698371141611
20
12.249999999971983
30
0
10
24.729400877265093
20
12.065393546625245
30
0
10
24.489358012233808
20
11.735596881827135
30
0
10
24.32561567309132
20
11.510630072968411
30
0
10
24.249999999999929
20
11.238954022194392
30
0
10
24.249999999999929
20
10.999999999999979
30
0
0
SPLINE
5
109
100
AcDbEntity
8
INTERIOR_PROFILES
100
AcDbSpline
70
1064
71
3
72
11
73
7
74
0
42
0.000000001
43
0.0000000001
44
0.0000000001
40
0
40
0
40
0
40
0
40
0.59448157721156525
40
0.59448157721156525
40
0.59448157721156525
40
1
40
1
40
1
40
1
10
10.500000000099977
20
517.75
30
0
10
10.850301628859246
20
517.75000000002808
30
0
10
11.270599122736616
20
517.93460645337575
30
0
10
11.510641987767759
20
518.26440311817521
30
0
10
11.674384326908967
20
518.48936992703341
30
0
10
11.749999999999932
20
518.76104597780636
30
0
10
11.749999999999932
20
519
30
0
0
SPLINE
5
110
100
AcDbEntity
8
INTERIOR_PROFILES
100
AcDbSpline
70
1064
71
3
72
11
73
7
74
0
42
0.000000001
43
0.0000000001
44
0.0000000001
40
0
40
0
40
0
40
0
40
0.59448157720999273
40
0.59448157720999273
40
0.59448157720999273
40
1
40
1
40
1
40
1
10
9.2499999999999289
20
518.99999999989996
30
0
10
9.2500000000279243
20
518.64969837114154
30
0
10
9.4346064533746272
20
518.22940087726556
30
0
10
9.764403118172666
20
517.98935801223422
30
0
10
9.9893699270313192
20
517.82561567309153
30
0
10
10.261045977805413
20
517.75
30
0
10
10.499999999999932
20
517.75
30
0
0
SPLINE
5
111
100
AcDbEntity
8
INTERIOR_PROFILES
100
AcDbSpline
70
1064
71
3
72
11
73
7
74
0
42
0.000000001
43
0.0000000001
44
0.0000000001
40
0
40
0
40
0
40
0
40
0.59448157720914019
40
0.59448157720914019
40
0.59448157720914019
40
1
40
1
40
1
40
1
10
10.49999999990003
20
520.25
30
0
10
10.149698371142183
20
520.24999999997203
30
0
10
9.7294008772666558
20
520.06539354662607
30
0
10
9.489358012235229
20
519.73559688182888
30
0
10
9.3256156730918889
20
519.51063007296978
30
0
10
9.2499999999999289
20
519.238954022195
30
0
10
9.2499999999999289
20
519
30
0
0
SPLINE
5
112
100
AcDbEntity
8
INTERIOR_PROFILES
100
AcDbSpline
70
1064
71
3
72
11
73
7
74
0
42
0.000000001
43
0.0000000001
44
0.0000000001
40
0
40
0
40
0
40
0
40
0.59448157721040273
40
0.59448157721040273
40
0.59448157721040273
40
1
40
1
40
1
40
1
10
11.749999999999932
20
519.00000000010004
30
0
10
11.749999999971937
20
519.35030162885869
30
0
10
11.565393546625092
20
519.77059912273512
30
0
10
11.235596881826769
20
520.01064198776646
30
0
10
11.010630072968116
20
520.17438432690869
30
0
10
10.738954022194168
20
520.25
30
0
10
10.499999999999932
20
520.25
30
0
0
LWPOLYLINE
5
113
100
AcDbEntity
8
INTERIOR_PROFILES
100
AcDbPolyline
90
4
70
1
43
0.0
10
673.5
20
527
10
17.000000000000028
20
527
10
17.000000000000028
20
16.999999999999993
10
673.5
20
17.000000000000028
0
SPLINE
5
114
100
AcDbEntity
8
INTERIOR_PROFILES
100
AcDbSpline
70
1064
71
3
72
11
73
7
74
0
42
0.000000001
43
0.0000000001
44
0.0000000001
40
-1
40
-1
40
-1
40
-1
40
-0.59448157721049233
40
-0.59448157721049233
40
-0.59448157721049233
40
-0
40
-0
40
-0
40
-0
10
1.7499999999999023
20
549.51327412287196
30
0
10
1.7499999999999023
20
549.75222814506628
30
0
10
1.8256156730913649
20
550.02390419583992
30
0
10
1.9893580122334971
20
550.24887100469857
30
0
10
2.2294008772647822
20
550.57866766949701
30
0
10
2.6496983711413713
20
550.763274122844
30
0
10
2.9999999999000004
20
550.76327412287196
30
0
0
SPLINE
5
115
100
AcDbEntity
8
INTERIOR_PROFILES
100
AcDbSpline
70
1064
71
3
72
11
73
7
74
0
42
0.000000001
43
0.0000000001
44
0.0000000001
40
-1
40
-1
40
-1
40
-1
40
-0.59448157721012873
40
-0.59448157721012873
40
-0.59448157721012873
40
-0
40
-0
40
-0
40
-0
10
2.9999999999999027
20
550.76327412287196
30
0
10
3.2389540221943514
20
550.76327412287196
30
0
10
3.5106300729684414
20
550.68765844978043
30
0
10
3.7355968818271656
20
550.52391611063797
30
0
10
4.065393546625204
20
550.28387324560663
30
0
10
4.2499999999718359
20
549.86357575173042
30
0
10
4.2499999999999023
20
549.51327412297189
30
0
0
SPLINE
5
116
100
AcDbEntity
8
INTERIOR_PROFILES
100
AcDbSpline
70
1064
71
3
72
11
73
7
74
0
42
0.000000001
43
0.0000000001
44
0.0000000001
40
-1
40
-1
40
-1
40
-1
40
-0.5944815772104276
40
-0.5944815772104276
40
-0.5944815772104276
40
-0
40
-0
40
-0
40
-0
10
4.2499999999999023
20
549.51327412287196
30
0
10
4.2499999999999023
20
549.27432010067776
30
0
10
4.1743843269086529
20
549.00264404990378
30
0
10
4.0106419877664496
20
548.77767724104513
30
0
10
3.7705991227351654
20
548.4478805762468
30
0
10
3.3503016288585763
20
548.26327412289993
30
0
10
3.0000000000999472
20
548.26327412287196
30
0
0
SPLINE
5
117
100
AcDbEntity
8
INTERIOR_PROFILES
100
AcDbSpline
70
1064
71
3
72
11
73
7
74
0
42
0.000000001
43
0.0000000001
44
0.0000000001
40
-1
40
-1
40
-1
40
-1
40
-0.59448157721040751
40
-0.59448157721040751
40
-0.59448157721040751
40
-0
40
-0
40
-0
40
-0
10
2.9999999999999027
20
548.26327412287196
30
0
10
2.7610459778056673
20
548.26327412287196
30
0
10
2.4893699270317904
20
548.33888979596338
30
0
10
2.2644031181732083
20
548.50263213510561
30
0
10
1.9346064533748848
20
548.74267500013684
30
0
10
1.7500000000279687
20
549.16297249401339
30
0
10
1.7499999999999023
20
549.51327412277192
30
0
0
CIRCLE
5
118
100
AcDbEntity
8
INTERIOR_PROFILES
100
AcDbCircle
10
696.01327412287196
20
272
30
0
40
1.25
0
SPLINE
5
119
100
AcDbEntity
8
INTERIOR_PROFILES
100
AcDbSpline
70
1064
71
3
72
11
73
7
74
0
42
0.000000001
43
0.0000000001
44
0.0000000001
40
0
40
0
40
0
40
0
40
0.59448157721049233
40
0.59448157721049233
40
0.59448157721049233
40
1
40
1
40
1
40
1
10
2.9999999999000271
20
-6.7632741228718265
30
0
10
2.6496983711413979
20
-6.7632741228438
30
0
10
2.2294008772648088
20
-6.578667669496844
30
0
10
1.9893580122335237
20
-6.2488710046984455
30
0
10
1.8256156730913915
20
-6.0239041958398234
30
0
10
1.7499999999999289
20
-5.7522281450660353
30
0
10
1.7499999999999289
20
-5.5132741228718265
30
0
0
SPLINE
5
120
100
AcDbEntity
8
INTERIOR_PROFILES
100
AcDbSpline
70
1064
71
3
72
11
73
7
74
0
42
0.000000001
43
0.0000000001
44
0.0000000001
40
0
40
0
40
0
40
0
40
0.59448157721040751
40
0.59448157721040751
40
0.59448157721040751
40
1
40
1
40
1
40
1
10
1.7499999999999289
20
-5.5132741227718265
30
0
10
1.7500000000279954
20
-5.162972494013224
30
0
10
1.9346064533749114
20
-4.7426750001367326
30
0
10
2.2644031181732349
20
-4.5026321351054293
30
0
10
2.489369927031817
20
-4.3388897959632082
30
0
10
2.7610459778056939
20
-4.2632741228718292
30
0
10
2.9999999999999294
20
-4.2632741228718292
30
0
0
SPLINE
5
121
100
AcDbEntity
8
INTERIOR_PROFILES
100
AcDbSpline
70
1064
71
3
72
11
73
7
74
0
42
0.000000001
43
0.0000000001
44
0.0000000001
40
0
40
0
40
0
40
0
40
0.5944815772104276
40
0.5944815772104276
40
0.5944815772104276
40
1
40
1
40
1
40
1
10
3.0000000000999738
20
-4.2632741228718292
30
0
10
3.3503016288586029
20
-4.2632741228998512
30
0
10
3.770599122735192
20
-4.4478805762467584
30
0
10
4.0106419877664763
20
-4.7776772410450965
30
0
10
4.1743843269086796
20
-5.0026440499037408
30
0
10
4.2499999999999289
20
-5.2743201006775777
30
0
10
4.2499999999999289
20
-5.5132741228718265
30
0
0
SPLINE
5
122
100
AcDbEntity
8
INTERIOR_PROFILES
100
AcDbSpline
70
1064
71
3
72
11
73
7
74
0
42
0.000000001
43
0.0000000001
44
0.0000000001
40
0
40
0
40
0
40
0
40
0.59448157721012873
40
0.59448157721012873
40
0.59448157721012873
40
1
40
1
40
1
40
1
10
4.2499999999999289
20
-5.5132741229718265
30
0
10
4.2499999999718625
20
-5.8635757517302647
30
0
10
4.0653935466252307
20
-6.2838732456065385
30
0
10
3.7355968818271923
20
-6.5239161106378898
30
0
10
3.5106300729684681
20
-6.6876584497803329
30
0
10
3.238954022194378
20
-6.7632741228718265
30
0
10
2.9999999999999294
20
-6.7632741228718265
30
0
0
CIRCLE
5
123
100
AcDbEntity
8
INTERIOR_PROFILES
100
AcDbCircle
10
696.01327412287196
20
541.00000000000011
30
0
40
1.25
0
CIRCLE
5
124
100
AcDbEntity
8
INTERIOR_PROFILES
100
AcDbCircle
10
696.01327412287196
20
2.9999999999999938
30
0
40
1.25
0
SPLINE
5
125
100
AcDbEntity
8
INTERIOR_PROFILES
100
AcDbSpline
70
1064
71
3
72
11
73
7
74
0
42
0.000000001
43
0.0000000001
44
0.0000000001
40
-1
40
-1
40
-1
40
-1
40
-0.5944815772102543
40
-0.5944815772102543
40
-0.5944815772102543
40
-0
40
-0
40
-0
40
-0
10
344
20
549.51327412287196
30
0
10
344
20
549.7522281450664
30
0
10
344.07561567309136
20
550.02390419584026
30
0
10
344.23935801223377
20
550.24887100469891
30
0
10
344.47940087726516
20
550.57866766949712
30
0
10
344.89969837114154
20
550.763274122844
30
0
10
345.24999999990001
20
550.76327412287196
30
0
0
SPLINE
5
126
100
AcDbEntity
8
INTERIOR_PROFILES
100
AcDbSpline
70
1064
71
3
72
11
73
7
74
0
42
0.000000001
43
0.0000000001
44
0.0000000001
40
-1
40
-1
40
-1
40
-1
40
-0.59448157721050665
40
-0.59448157721050665
40
-0.59448157721050665
40
-0
40
-0
40
-0
40
-0
10
345.25
20
550.76327412287196
30
0
10
345.48895402219421
20
550.76327412287196
30
0
10
345.76063007296796
20
550.68765844978066
30
0
10
345.98559688182661
20
550.52391611063854
30
0
10
346.31539354662505
20
550.28387324560731
30
0
10
346.49999999997198
20
549.86357575173065
30
0
10
346.5
20
549.51327412297189
30
0
0
SPLINE
5
127
100
AcDbEntity
8
INTERIOR_PROFILES
100
AcDbSpline
70
1064
71
3
72
11
73
7
74
0
42
0.000000001
43
0.0000000001
44
0.0000000001
40
-1
40
-1
40
-1
40
-1
40
-0.59448157721010364
40
-0.59448157721010364
40
-0.59448157721010364
40
-0
40
-0
40
-0
40
-0
10
346.5
20
549.51327412287196
30
0
10
346.5
20
549.27432010067741
30
0
10
346.42438432690852
20
549.00264404990344
30
0
10
346.26064198776601
20
548.77767724104478
30
0
10
346.02059912273467
20
548.44788057624669
30
0
10
345.60030162885835
20
548.26327412289993
30
0
10
345.25000000009993
20
548.26327412287196
30
0
0
SPLINE
5
128
100
AcDbEntity
8
INTERIOR_PROFILES
100
AcDbSpline
70
1064
71
3
72
11
73
7
74
0
42
0.000000001
43
0.0000000001
44
0.0000000001
40
-1
40
-1
40
-1
40
-1
40
-0.5944815772099481
40
-0.5944815772099481
40
-0.5944815772099481
40
-0
40
-0
40
-0
40
-0
10
345.25
20
548.26327412287196
30
0
10
345.01104597780545
20
548.26327412287196
30
0
10
344.73936992703125
20
548.3388897959635
30
0
10
344.51440311817242
20
548.50263213510618
30
0
10
344.18460645337456
20
548.74267500013741
30
0
10
344.00000000002808
20
549.16297249401373
30
0
10
344
20
549.51327412277192
30
0
0
SPLINE
5
129
100
AcDbEntity
8
INTERIOR_PROFILES
100
AcDbSpline
70
1064
71
3
72
11
73
7
74
0
42
0.000000001
43
0.0000000001
44
0.0000000001
40
0
40
0
40
0
40
0
40
0.5944815772102543
40
0.5944815772102543
40
0.5944815772102543
40
1
40
1
40
1
40
1
10
345.24999999990001
20
-6.7632741228718265
30
0
10
344.89969837114154
20
-6.7632741228438
30
0
10
344.47940087726516
20
-6.5786676694970261
30
0
10
344.23935801223377
20
-6.2488710046988452
30
0
10
344.07561567309136
20
-6.0239041958401431
30
0
10
344
20
-5.752228145066173
30
0
10
344
20
-5.5132741228718265
30
0
0
SPLINE
5
130
100
AcDbEntity
8
INTERIOR_PROFILES
100
AcDbSpline
70
1064
71
3
72
11
73
7
74
0
42
0.000000001
43
0.0000000001
44
0.0000000001
40
0
40
0
40
0
40
0
40
0.5944815772099481
40
0.5944815772099481
40
0.5944815772099481
40
1
40
1
40
1
40
1
10
344
20
-5.5132741227718265
30
0
10
344.00000000002808
20
-5.1629724940134949
30
0
10
344.18460645337456
20
-4.7426750001373676
30
0
10
344.51440311817242
20
-4.5026321351059835
30
0
10
344.73936992703125
20
-4.3388897959633983
30
0
10
345.01104597780545
20
-4.2632741228718292
30
0
10
345.25
20
-4.2632741228718292
30
0
0
SPLINE
5
131
100
AcDbEntity
8
INTERIOR_PROFILES
100
AcDbSpline
70
1064
71
3
72
11
73
7
74
0
42
0.000000001
43
0.0000000001
44
0.0000000001
40
0
40
0
40
0
40
0
40
0.59448157721010364
40
0.59448157721010364
40
0.59448157721010364
40
1
40
1
40
1
40
1
10
345.25000000009993
20
-4.2632741228718292
30
0
10
345.60030162885835
20
-4.2632741228998512
30
0
10
346.02059912273467
20
-4.4478805762465186
30
0
10
346.26064198776601
20
-4.7776772410445636
30
0
10
346.42438432690852
20
-5.00264404990331
30
0
10
346.5
20
-5.2743201006773912
30
0
10
346.5
20
-5.5132741228718265
30
0
0
SPLINE
5
132
100
AcDbEntity
8
INTERIOR_PROFILES
100
AcDbSpline
70
1064
71
3
72
11
73
7
74
0
42
0.000000001
43
0.0000000001
44
0.0000000001
40
0
40
0
40
0
40
0
40
0.59448157721050665
40
0.59448157721050665
40
0.59448157721050665
40
1
40
1
40
1
40
1
10
346.5
20
-5.5132741229718265
30
0
10
346.49999999997198
20
-5.8635757517304867
30
0
10
346.31539354662505
20
-6.2838732456070625
30
0
10
345.98559688182661
20
-6.5239161106383472
30
0
10
345.76063007296796
20
-6.6876584497804883
30
0
10
345.48895402219421
20
-6.7632741228718265
30
0
10
345.25
20
-6.7632741228718265
30
0
0
SPLINE
5
133
100
AcDbEntity
8
INTERIOR_PROFILES
100
AcDbSpline
70
1064
71
3
72
11
73
7
74
0
42
0.000000001
43
0.0000000001
44
0.0000000001
40
-1
40
-1
40
-1
40
-1
40
-0.59448157721065575
40
-0.59448157721065575
40
-0.59448157721065575
40
-0
40
-0
40
-0
40
-0
10
686.25
20
549.51327412287196
30
0
10
686.25
20
549.75222814506606
30
0
10
686.32561567309131
20
550.0239041958398
30
0
10
686.48935801223331
20
550.24887100469823
30
0
10
686.72940087726465
20
550.57866766949689
30
0
10
687.14969837114131
20
550.763274122844
30
0
10
687.49999999989996
20
550.76327412287196
30
0
0
SPLINE
5
134
100
AcDbEntity
8
INTERIOR_PROFILES
100
AcDbSpline
70
1064
71
3
72
11
73
7
74
0
42
0.000000001
43
0.0000000001
44
0.0000000001
40
-1
40
-1
40
-1
40
-1
40
-0.594481577209239
40
-0.594481577209239
40
-0.594481577209239
40
-0
40
-0
40
-0
40
-0
10
687.5
20
550.76327412287196
30
0
10
687.738954022195
20
550.76327412287196
30
0
10
688.01063007296932
20
550.68765844977997
30
0
10
688.23559688182854
20
550.52391611063695
30
0
10
688.56539354662573
20
550.28387324560538
30
0
10
688.74999999997181
20
549.86357575172985
30
0
10
688.75
20
549.51327412297189
30
0
0
SPLINE
5
135
100
AcDbEntity
8
INTERIOR_PROFILES
100
AcDbSpline
70
1064
71
3
72
11
73
7
74
0
42
0.000000001
43
0.0000000001
44
0.0000000001
40
-1
40
-1
40
-1
40
-1
40
-0.59448157720924399
40
-0.59448157720924399
40
-0.59448157720924399
40
-0
40
-0
40
-0
40
-0
10
688.75
20
549.51327412287196
30
0
10
688.75
20
549.27432010067707
30
0
10
688.67438432690824
20
549.0026440499023
30
0
10
688.51064198776498
20
548.77767724104331
30
0
10
688.27059912273342
20
548.44788057624601
30
0
10
687.85030162885789
20
548.26327412289993
30
0
10
687.50000000010004
20
548.26327412287196
30
0
0
SPLINE
5
136
100
AcDbEntity
8
INTERIOR_PROFILES
100
AcDbSpline
70
1064
71
3
72
11
73
7
74
0
42
0.000000001
43
0.0000000001
44
0.0000000001
40
-1
40
-1
40
-1
40
-1
40
-0.59448157721049566
40
-0.59448157721049566
40
-0.59448157721049566
40
-0
40
-0
40
-0
40
-0
10
687.5
20
548.26327412287196
30
0
10
687.26104597780568
20
548.26327412287196
30
0
10
686.98936992703216
20
548.33888979596327
30
0
10
686.7644031181735
20
548.50263213510539
30
0
10
686.43460645337484
20
548.74267500013673
30
0
10
686.25000000002785
20
549.16297249401327
30
0
10
686.25
20
549.51327412277192
30
0
0
SPLINE
5
137
100
AcDbEntity
8
INTERIOR_PROFILES
100
AcDbSpline
70
1064
71
3
72
11
73
7
74
0
42
0.000000001
43
0.0000000001
44
0.0000000001
40
0
40
0
40
0
40
0
40
0.59448157721065575
40
0.59448157721065575
40
0.59448157721065575
40
1
40
1
40
1
40
1
10
687.49999999989996
20
-6.7632741228718265
30
0
10
687.14969837114131
20
-6.7632741228438
30
0
10
686.72940087726465
20
-6.5786676694967197
30
0
10
686.48935801223331
20
-6.2488710046981746
30
0
10
686.32561567309131
20
-6.0239041958396058
30
0
10
686.25
20
-5.752228145065942
30
0
10
686.25
20
-5.5132741228718265
30
0
0
SPLINE
5
138
100
AcDbEntity
8
INTERIOR_PROFILES
100
AcDbSpline
70
1064
71
3
72
11
73
7
74
0
42
0.000000001
43
0.0000000001
44
0.0000000001
40
0
40
0
40
0
40
0
40
0.59448157721049566
40
0.59448157721049566
40
0.59448157721049566
40
1
40
1
40
1
40
1
10
686.25
20
-5.5132741227718265
30
0
10
686.25000000002785
20
-5.1629724940131752
30
0
10
686.43460645337484
20
-4.7426750001366038
30
0
10
686.7644031181735
20
-4.5026321351053173
30
0
10
686.98936992703216
20
-4.3388897959631674
30
0
10
687.26104597780568
20
-4.2632741228718203
30
0
10
687.5
20
-4.2632741228718203
30
0
0
SPLINE
5
139
100
AcDbEntity
8
INTERIOR_PROFILES
100
AcDbSpline
70
1064
71
3
72
11
73
7
74
0
42
0.000000001
43
0.0000000001
44
0.0000000001
40
0
40
0
40
0
40
0
40
0.59448157720924399
40
0.59448157720924399
40
0.59448157720924399
40
1
40
1
40
1
40
1
10
687.50000000010004
20
-4.2632741228718292
30
0
10
687.85030162885789
20
-4.2632741228998512
30
0
10
688.27059912273342
20
-4.4478805762458702
30
0
10
688.51064198776498
20
-4.7776772410431381
30
0
10
688.67438432690824
20
-5.0026440499021509
30
0
10
688.75
20
-5.2743201006768849
30
0
10
688.75
20
-5.5132741228718265
30
0
0
SPLINE
5
140
100
AcDbEntity
8
INTERIOR_PROFILES
100
AcDbSpline
70
1064
71
3
72
11
73
7
74
0
42
0.000000001
43
0.0000000001
44
0.0000000001
40
0
40
0
40
0
40
0
40
0.594481577209239
40
0.594481577209239
40
0.594481577209239
40
1
40
1
40
1
40
1
10
688.75
20
-5.5132741229718265
30
0
10
688.74999999997181
20
-5.8635757517297407
30
0
10
688.56539354662573
20
-6.2838732456053084
30
0
10
688.23559688182854
20
-6.5239161106368107
30
0
10
688.01063007296932
20
-6.6876584497799598
30
0
10
687.738954022195
20
-6.7632741228718265
30
0
10
687.5
20
-6.7632741228718265
30
0
0
SPLINE
5
141
100
AcDbEntity
8
INTERIOR_PROFILES
100
AcDbSpline
70
1064
71
3
72
11
73
7
74
0
42
0.000000001
43
0.0000000001
44
0.0000000001
40
0
40
0
40
0
40
0
40
0.5944815772103399
40
0.5944815772103399
40
0.5944815772103399
40
1
40
1
40
1
40
1
10
666.75000000000011
20
534.00000000010004
30
0
10
666.74999999997203
20
534.35030162885869
30
0
10
666.56539354662527
20
534.77059912273512
30
0
10
666.23559688182695
20
535.01064198776635
30
0
10
666.0106300729683
20
535.17438432690869
30
0
10
665.73895402219421
20
535.25
30
0
10
665.50000000000011
20
535.25
30
0
0
SPLINE
5
142
100
AcDbEntity
8
INTERIOR_PROFILES
100
AcDbSpline
70
1064
71
3
72
11
73
7
74
0
42
0.000000001
43
0.0000000001
44
0.0000000001
40
0
40
0
40
0
40
0
40
0.59448157720942119
40
0.59448157720942119
40
0.59448157720942119
40
1
40
1
40
1
40
1
10
665.50000000010016
20
532.75
30
0
10
665.85030162885801
20
532.75000000002808
30
0
10
666.27059912273376
20
532.93460645337416
30
0
10
666.5106419877651
20
533.26440311817169
30
0
10
666.67438432690801
20
533.48936992703057
30
0
10
666.75000000000011
20
533.76104597780511
30
0
10
666.75000000000011
20
534
30
0
0
SPLINE
5
143
100
AcDbEntity
8
INTERIOR_PROFILES
100
AcDbSpline
70
1064
71
3
72
11
73
7
74
0
42
0.000000001
43
0.0000000001
44
0.0000000001
40
0
40
0
40
0
40
0
40
0.59448157720983574
40
0.59448157720983574
40
0.59448157720983574
40
1
40
1
40
1
40
1
10
664.25000000000011
20
533.99999999989996
30
0
10
664.25000000002797
20
533.64969837114177
30
0
10
664.43460645337473
20
533.22940087726568
30
0
10
664.76440311817237
20
532.98935801223422
30
0
10
664.98936992703102
20
532.82561567309153
30
0
10
665.26104597780545
20
532.75
30
0
10
665.50000000000011
20
532.75
30
0
0
SPLINE
5
144
100
AcDbEntity
8
INTERIOR_PROFILES
100
AcDbSpline
70
1064
71
3
72
11
73
7
74
0
42
0.000000001
43
0.0000000001
44
0.0000000001
40
0
40
0
40
0
40
0
40
0.59448157721130701
40
0.59448157721130701
40
0.59448157721130701
40
1
40
1
40
1
40
1
10
665.49999999990007
20
535.25
30
0
10
665.14969837114086
20
535.24999999997203
30
0
10
664.72940087726352
20
535.06539354662436
30
0
10
664.48935801223251
20
534.73559688182513
30
0
10
664.32561567309108
20
534.51063007296671
30
0
10
664.25000000000011
20
534.23895402219375
30
0
10
664.25000000000011
20
534
30
0
0
LINE
5
145
100
AcDbEntity
8
BEND
100
AcDbLine
10
691.75663706143609
20
0.41421356237297147
30
-5.5511151231257827e-16
11
691.75663706143609
21
543.58578643762689
31
-2.886579864025407e-14
0
LINE
5
146
100
AcDbEntity
8
BEND
100
AcDbLine
10
690.08578643762667
20
545.25663706143587
30
-5.5511151231257827e-16
11
247.19999999999999
21
545.25663706143587
31
-2.886579864025407e-14
0
LINE
5
147
100
AcDbEntity
8
BEND
100
AcDbLine
10
247.19999999999999
20
-1.2566370614359426
30
4.3453028371024596e-15
11
690.08578643762689
21
-1.2566370614359426
31
3.0891386040867324e-15
0
LINE
5
148
100
AcDbEntity
8
BEND
100
AcDbLine
10
41.999999999999957
20
545.25663706143587
30
0
11
0.4142135623731491
21
545.25663706143587
31
-2.886579864025407e-14
0
LINE
5
149
100
AcDbEntity
8
BEND
100
AcDbLine
10
-1.2566370614357816
20
543.58578643762701
30
-1.7602068796327548e-14
11
-1.2566370614357816
21
0.41421356237307805
31
-1.7925067991673031e-14
0
LINE
5
150
100
AcDbEntity
8
BEND
100
AcDbLine
10
0.41421356237293594
20
-1.2566370614359068
30
3.7901913247897937e-15
11
41.999999999999957
21
-1.2566370614359068
31
-4.6824225682895377e-15
0
LINE
5
151
100
AcDbEntity
8
BEND_EXTENT
100
AcDbLine
10
690.08578643762689
20
-2.5132741228718269
30
7.1218695765141972e-15
11
247.19999999999999
21
-2.5132741228718403
31
6.5667580642016481e-15
0
LINE
5
152
100
AcDbEntity
8
BEND_EXTENT
100
AcDbLine
10
247.19999999999999
20
-2.0539125955565396e-14
30
0
11
690.08578643762667
21
-6.6613381477509392e-15
31
-5.5511151231257827e-16
0
LINE
5
153
100
AcDbEntity
8
BEND_EXTENT
100
AcDbLine
10
0.41421356237315077
20
546.51327412287196
30
0
11
41.999999999999957
21
546.51327412287196
31
0
0
LINE
5
154
100
AcDbEntity
8
BEND_EXTENT
100
AcDbLine
10
41.999999999999986
20
544
30
0
11
0.41421356237297147
21
544
31
-5.5511151231257827e-16
0
LINE
5
155
100
AcDbEntity
8
BEND_EXTENT
100
AcDbLine
10
247.19999999999996
20
546.51327412287196
30
0
11
690.08578643762667
21
546.51327412287196
31
0
0
LINE
5
156
100
AcDbEntity
8
BEND_EXTENT
100
AcDbLine
10
0.4142135623730353
20
-6.6613381477509392e-15
30
-5.5511151231257827e-16
11
41.999999999999986
21
-2.0539125955565396e-14
31
0
0
LINE
5
157
100
AcDbEntity
8
BEND_EXTENT
100
AcDbLine
10
41.999999999999986
20
-2.5132741228718403
30
6.5667580642016481e-15
11
0.41421356237297147
21
-2.5132741228718269
31
7.1218695765141972e-15
0
LINE
5
158
100
AcDbEntity
8
BEND_EXTENT
100
AcDbLine
10
693.01327412287196
20
543.58578643762689
30
0
11
693.01327412287196
21
0.41421356237300699
31
0
0
LINE
5
159
100
AcDbEntity
8
BEND_EXTENT
100
AcDbLine
10
690.50000000000011
20
0.41421356237297147
30
-5.5511151231257827e-16
11
690.50000000000011
21
543.58578643762701
31
-5.5511151231257827e-16
0
LINE
5
160
100
AcDbEntity
8
BEND_EXTENT
100
AcDbLine
10
-2.5132741228718611
20
0.41421356237311358
30
-3.4621421078112071e-14
11
-2.5132741228718611
21
543.58578643762701
31
-3.4621421078112071e-14
0
LINE
5
161
100
AcDbEntity
8
BEND_EXTENT
100
AcDbLine
10
-1.3877787807814457e-14
20
543.58578643762701
30
-5.5511151231257827e-16
11
-1.3877787807814457e-14
21
0.41421356237300699
31
-5.5511151231257827e-16
0
LINE
5
162
100
AcDbEntity
8
BEND_EXTENT
100
AcDbLine
10
690.08578643762667
20
544
30
-5.5511151231257827e-16
11
247.19999999999999
21
544
31
0
0
ENDSEC
0
SECTION
2
OBJECTS
0
DICTIONARY
5
C
100
AcDbDictionary
3
ACAD_GROUP
350
D
3
ACAD_MLINESTYLE
350
17
0
DICTIONARY
5
D
100
AcDbDictionary
0
DICTIONARY
5
1A
330
C
100
AcDbDictionary
0
DICTIONARY
5
17
100
AcDbDictionary
0
ENDSEC
0
EOF
