  0
SECTION
  2
HEADER
  9
$ACADVER
  1
AC1027
  9
$ACADMAINTVER
 70
   105
  9
$DWGCODEPAGE
  3
ANSI_1251
  9
$REQUIREDVERSIONS
160
                 0
  9
$INSBASE
 10
0.0
 20
0.0
 30
0.0
  9
$EXTMIN
 10
0.0
 20
0.0
 30
0.0
  9
$EXTMAX
 10
700.0
 20
347.0
 30
0.0
  9
$LIMMIN
 10
0.0
 20
0.0
  9
$LIMMAX
 10
420.0
 20
297.0
  9
$ORTHOMODE
 70
     0
  9
$REGENMODE
 70
     1
  9
$FILLMODE
 70
     1
  9
$QTEXTMODE
 70
     0
  9
$MIRRTEXT
 70
     1
  9
$LTSCALE
 40
1.0
  9
$ATTMODE
 70
     1
  9
$TEXTSIZE
 40
4.9388888889
  9
$TRACEWID
 40
1.0
  9
$TEXTSTYLE
  7
Standard
  9
$CLAYER
  8
0
  9
$CELTYPE
  6
ByLayer
  9
$CECOLOR
 62
   256
  9
$CELTSCALE
 40
1.0
  9
$DISPSILH
 70
     0
  9
$DIMSCALE
 40
1.0
  9
$DIMASZ
 40
3.556
  9
$DIMEXO
 40
1.0
  9
$DIMDLI
 40
3.75
  9
$DIMRND
 40
0.0
  9
$DIMDLE
 40
0.0
  9
$DIMEXE
 40
1.0
  9
$DIMTP
 40
0.0
  9
$DIMTM
 40
0.0
  9
$DIMTXT
 40
4.2333333333
  9
$DIMCEN
 40
2.5
  9
$DIMTSZ
 40
0.0
  9
$DIMTOL
 70
     0
  9
$DIMLIM
 70
     0
  9
$DIMTIH
 70
     1
  9
$DIMTOH
 70
     1
  9
$DIMSE1
 70
     0
  9
$DIMSE2
 70
     0
  9
$DIMTAD
 70
     1
  9
$DIMZIN
 70
     1
  9
$DIMBLK
  1

  9
$DIMASO
 70
     1
  9
$DIMSHO
 70
     1
  9
$DIMPOST
  1

  9
$DIMAPOST
  1

  9
$DIMALT
 70
     0
  9
$DIMALTD
 70
     3
  9
$DIMALTF
 40
0.0393700787
  9
$DIMLFAC
 40
1.0
  9
$DIMTOFL
 70
     1
  9
$DIMTVP
 40
0.0
  9
$DIMTIX
 70
     0
  9
$DIMSOXD
 70
     0
  9
$DIMSAH
 70
     0
  9
$DIMBLK1
  1

  9
$DIMBLK2
  1

  9
$DIMSTYLE
  2
ISO-25
  9
$DIMCLRD
 70
     0
  9
$DIMCLRE
 70
     0
  9
$DIMCLRT
 70
     0
  9
$DIMTFAC
 40
1.0
  9
$DIMGAP
 40
1.524
  9
$DIMJUST
 70
     0
  9
$DIMSD1
 70
     0
  9
$DIMSD2
 70
     0
  9
$DIMTOLJ
 70
     0
  9
$DIMTZIN
 70
     1
  9
$DIMALTZ
 70
     0
  9
$DIMALTTZ
 70
     0
  9
$DIMUPT
 70
     0
  9
$DIMDEC
 70
     2
  9
$DIMTDEC
 70
     2
  9
$DIMALTU
 70
     2
  9
$DIMALTTD
 70
     3
  9
$DIMTXSTY
  7
Standard
  9
$DIMAUNIT
 70
     0
  9
$DIMADEC
 70
     2
  9
$DIMALTRND
 40
0.0
  9
$DIMAZIN
 70
     0
  9
$DIMDSEP
 70
    44
  9
$DIMATFIT
 70
     3
  9
$DIMFRAC
 70
     0
  9
$DIMLDRBLK
  1

  9
$DIMLUNIT
 70
     2
  9
$DIMLWD
 70
    -2
  9
$DIMLWE
 70
    -2
  9
$DIMTMOVE
 70
     0
  9
$DIMFXL
 40
1.0
  9
$DIMFXLON
 70
     0
  9
$DIMJOGANG
 40
0.7853981634
  9
$DIMTFILL
 70
     0
  9
$DIMTFILLCLR
 70
     0
  9
$DIMARCSYM
 70
     0
  9
$DIMLTYPE
  6

  9
$DIMLTEX1
  6

  9
$DIMLTEX2
  6

  9
$DIMTXTDIRECTION
 70
     0
  9
$LUNITS
 70
     2
  9
$LUPREC
 70
     2
  9
$SKETCHINC
 40
1.0
  9
$FILLETRAD
 40
10.0
  9
$AUNITS
 70
     0
  9
$AUPREC
 70
     2
  9
$MENU
  1
.
  9
$ELEVATION
 40
0.0
  9
$PELEVATION
 40
0.0
  9
$THICKNESS
 40
0.0
  9
$LIMCHECK
 70
     0
  9
$CHAMFERA
 40
0.0
  9
$CHAMFERB
 40
0.0
  9
$CHAMFERC
 40
0.0
  9
$CHAMFERD
 40
0.0
  9
$SKPOLY
 70
     0
  9
$TDCREATE
 40
2458419.69140419
  9
$TDUCREATE
 40
2458419.56640419
  9
$TDUPDATE
 40
2458419.691436377
  9
$TDUUPDATE
 40
2458419.566436377
  9
$TDINDWG
 40
0.0000000116
  9
$TDUSRTIMER
 40
0.0000000116
  9
$USRTIMER
 70
     1
  9
$ANGBASE
 50
0.0
  9
$ANGDIR
 70
     0
  9
$PDMODE
 70
     0
  9
$PDSIZE
 40
-1.0
  9
$PLINEWID
 40
0.0
  9
$SPLFRAME
 70
     0
  9
$SPLINETYPE
 70
     6
  9
$SPLINESEGS
 70
     8
  9
$HANDSEED
  5
205
  9
$SURFTAB1
 70
     6
  9
$SURFTAB2
 70
     6
  9
$SURFTYPE
 70
     6
  9
$SURFU
 70
     6
  9
$SURFV
 70
     6
  9
$UCSBASE
  2

  9
$UCSNAME
  2

  9
$UCSORG
 10
0.0
 20
0.0
 30
0.0
  9
$UCSXDIR
 10
1.0
 20
0.0
 30
0.0
  9
$UCSYDIR
 10
0.0
 20
1.0
 30
0.0
  9
$UCSORTHOREF
  2

  9
$UCSORTHOVIEW
 70
     0
  9
$UCSORGTOP
 10
0.0
 20
0.0
 30
0.0
  9
$UCSORGBOTTOM
 10
0.0
 20
0.0
 30
0.0
  9
$UCSORGLEFT
 10
0.0
 20
0.0
 30
0.0
  9
$UCSORGRIGHT
 10
0.0
 20
0.0
 30
0.0
  9
$UCSORGFRONT
 10
0.0
 20
0.0
 30
0.0
  9
$UCSORGBACK
 10
0.0
 20
0.0
 30
0.0
  9
$PUCSBASE
  2

  9
$PUCSNAME
  2

  9
$PUCSORG
 10
0.0
 20
0.0
 30
0.0
  9
$PUCSXDIR
 10
1.0
 20
0.0
 30
0.0
  9
$PUCSYDIR
 10
0.0
 20
1.0
 30
0.0
  9
$PUCSORTHOREF
  2

  9
$PUCSORTHOVIEW
 70
     0
  9
$PUCSORGTOP
 10
0.0
 20
0.0
 30
0.0
  9
$PUCSORGBOTTOM
 10
0.0
 20
0.0
 30
0.0
  9
$PUCSORGLEFT
 10
0.0
 20
0.0
 30
0.0
  9
$PUCSORGRIGHT
 10
0.0
 20
0.0
 30
0.0
  9
$PUCSORGFRONT
 10
0.0
 20
0.0
 30
0.0
  9
$PUCSORGBACK
 10
0.0
 20
0.0
 30
0.0
  9
$USERI1
 70
     0
  9
$USERI2
 70
     0
  9
$USERI3
 70
     0
  9
$USERI4
 70
     0
  9
$USERI5
 70
     0
  9
$USERR1
 40
0.0
  9
$USERR2
 40
0.0
  9
$USERR3
 40
0.0
  9
$USERR4
 40
0.0
  9
$USERR5
 40
0.0
  9
$WORLDVIEW
 70
     1
  9
$SHADEDGE
 70
     3
  9
$SHADEDIF
 70
    70
  9
$TILEMODE
 70
     1
  9
$MAXACTVP
 70
    64
  9
$PINSBASE
 10
0.0
 20
0.0
 30
0.0
  9
$PLIMCHECK
 70
     0
  9
$PEXTMIN
 10
1.0000000000E+20
 20
1.0000000000E+20
 30
1.0000000000E+20
  9
$PEXTMAX
 10
-1.0000000000E+20
 20
-1.0000000000E+20
 30
-1.0000000000E+20
  9
$PLIMMIN
 10
0.0
 20
0.0
  9
$PLIMMAX
 10
420.0
 20
297.0
  9
$UNITMODE
 70
     0
  9
$VISRETAIN
 70
     1
  9
$PLINEGEN
 70
     0
  9
$PSLTSCALE
 70
     1
  9
$TREEDEPTH
 70
  3020
  9
$CMLSTYLE
  2
Standard
  9
$CMLJUST
 70
     0
  9
$CMLSCALE
 40
20.0
  9
$PROXYGRAPHICS
 70
     1
  9
$MEASUREMENT
 70
     1
  9
$CELWEIGHT
370
    -1
  9
$ENDCAPS
280
     0
  9
$JOINSTYLE
280
     0
  9
$LWDISPLAY
290
     1
  9
$INSUNITS
 70
     4
  9
$HYPERLINKBASE
  1

  9
$STYLESHEET
  1

  9
$XEDIT
290
     1
  9
$CEPSNTYPE
380
     0
  9
$PSTYLEMODE
290
     1
  9
$FINGERPRINTGUID
  2
{D0C95D73-78C7-4196-8278-00AE3C6DF868}
  9
$VERSIONGUID
  2
{FAEB1C32-E019-11D5-929B-00C0DF256EC4}
  9
$EXTNAMES
290
     1
  9
$PSVPSCALE
 40
0.0
  9
$OLESTARTUP
290
     0
  9
$SORTENTS
280
   127
  9
$INDEXCTL
280
     0
  9
$HIDETEXT
280
     1
  9
$XCLIPFRAME
280
     2
  9
$HALOGAP
280
     0
  9
$OBSCOLOR
 70
   257
  9
$OBSLTYPE
280
     0
  9
$INTERSECTIONDISPLAY
280
     0
  9
$INTERSECTIONCOLOR
 70
   257
  9
$DIMASSOC
280
     2
  9
$PROJECTNAME
  1

  9
$CAMERADISPLAY
290
     0
  9
$LENSLENGTH
 40
50.0
  9
$CAMERAHEIGHT
 40
0.0
  9
$STEPSPERSEC
 40
2.0
  9
$STEPSIZE
 40
6.0
  9
$3DDWFPREC
 40
2.0
  9
$PSOLWIDTH
 40
5.0
  9
$PSOLHEIGHT
 40
80.0
  9
$LOFTANG1
 40
1.5707963268
  9
$LOFTANG2
 40
1.5707963268
  9
$LOFTMAG1
 40
0.0
  9
$LOFTMAG2
 40
0.0
  9
$LOFTPARAM
 70
     7
  9
$LOFTNORMALS
280
     1
  9
$LATITUDE
 40
37.795
  9
$LONGITUDE
 40
-122.394
  9
$NORTHDIRECTION
 40
0.0
  9
$TIMEZONE
 70
 -8000
  9
$LIGHTGLYPHDISPLAY
280
     1
  9
$TILEMODELIGHTSYNCH
280
     1
  9
$CMATERIAL
347
44
  9
$SOLIDHIST
280
     0
  9
$SHOWHIST
280
     1
  9
$DWFFRAME
280
     2
  9
$DGNFRAME
280
     2
  9
$REALWORLDSCALE
290
     1
  9
$INTERFERECOLOR
 62
   256
  9
$CSHADOW
280
     0
  9
$SHADOWPLANELOCATION
 40
0.0
  0
ENDSEC
  0
SECTION
  2
CLASSES
  0
CLASS
  1
ACDBDICTIONARYWDFLT
  2
AcDbDictionaryWithDefault
  3
ObjectDBX Classes
 90
        0
 91
        4
280
     0
281
     0
  0
CLASS
  1
VISUALSTYLE
  2
AcDbVisualStyle
  3
ObjectDBX Classes
 90
     4095
 91
        4
280
     0
281
     0
  0
CLASS
  1
MATERIAL
  2
AcDbMaterial
  3
ObjectDBX Classes
 90
     1153
 91
        4
280
     0
281
     0
  0
CLASS
  1
SCALE
  2
AcDbScale
  3
ObjectDBX Classes
 90
     1153
 91
        4
280
     0
281
     0
  0
CLASS
  1
TABLESTYLE
  2
AcDbTableStyle
  3
ObjectDBX Classes
 90
     4095
 91
        4
280
     0
281
     0
  0
CLASS
  1
MLEADERSTYLE
  2
AcDbMLeaderStyle
  3
ACDB_MLEADERSTYLE_CLASS
 90
     4095
 91
        4
280
     0
281
     0
  0
CLASS
  1
SUN
  2
AcDbSun
  3
SCENEOE
 90
     1153
 91
        4
280
     0
281
     0
  0
CLASS
  1
DICTIONARYVAR
  2
AcDbDictionaryVar
  3
ObjectDBX Classes
 90
        0
 91
        4
280
     0
281
     0
  0
CLASS
  1
CELLSTYLEMAP
  2
AcDbCellStyleMap
  3
ObjectDBX Classes
 90
     1152
 91
        4
280
     0
281
     0
  0
ENDSEC
  0
SECTION
  2
TABLES
  0
TABLE
  2
VPORT
  5
8
330
0
100
AcDbSymbolTable
 70
     1
  0
VPORT
  5
29
330
8
100
AcDbSymbolTableRecord
100
AcDbViewportTableRecord
  2
*Active
 70
     0
 10
0.0
 20
0.0
 11
1.0
 21
1.0
 12
350.0
 22
173.5
 13
0.0
 23
0.0
 14
10.0
 24
10.0
 15
10.0
 25
10.0
 16
0.0
 26
0.0
 36
1.0
 17
0.0
 27
0.0
 37
0.0
 40
353.94
 41
2.0172910663
 42
50.0
 43
0.0
 44
0.0
 50
0.0
 51
0.0
 71
     0
 72
   100
 73
     1
 74
     3
 75
     0
 76
     0
 77
     0
 78
     0
281
     0
 65
     1
110
0.0
120
0.0
130
0.0
111
1.0
121
0.0
131
0.0
112
0.0
122
1.0
132
0.0
 79
     0
146
0.0
348
2F
 60
     3
 61
     5
292
     1
282
     1
141
0.0
142
0.0
 63
   250
361
6D
  0
ENDTAB
  0
TABLE
  2
LTYPE
  5
5
330
0
100
AcDbSymbolTable
 70
     6
  0
LTYPE
  5
14
330
5
100
AcDbSymbolTableRecord
100
AcDbLinetypeTableRecord
  2
ByBlock
 70
     0
  3

 72
    65
 73
     0
 40
0.0
  0
LTYPE
  5
15
330
5
100
AcDbSymbolTableRecord
100
AcDbLinetypeTableRecord
  2
ByLayer
 70
     0
  3

 72
    65
 73
     0
 40
0.0
  0
LTYPE
  5
16
330
5
100
AcDbSymbolTableRecord
100
AcDbLinetypeTableRecord
  2
Continuous
 70
     0
  3
Solid line
 72
    65
 73
     0
 40
0.0
  0
LTYPE
  5
6E
330
5
100
AcDbSymbolTableRecord
100
AcDbLinetypeTableRecord
  2
HIDDEN
 70
     0
  3
Hidden __ __ __ __ __ __ __ __ __ __ __ __ __ __
 72
    65
 73
     2
 40
1.905
 49
1.27
 74
     0
 49
-0.635
 74
     0
  0
LTYPE
  5
6F
330
5
100
AcDbSymbolTableRecord
100
AcDbLinetypeTableRecord
  2
PHANTOM
 70
     0
  3
Phantom ______  __  __  ______  __  __  ______
 72
    65
 73
     6
 40
12.7
 49
6.35
 74
     0
 49
-1.27
 74
     0
 49
1.27
 74
     0
 49
-1.27
 74
     0
 49
1.27
 74
     0
 49
-1.27
 74
     0
  0
LTYPE
  5
70
330
5
100
AcDbSymbolTableRecord
100
AcDbLinetypeTableRecord
  2
CENTER
 70
     0
  3
Center ____ _ ____ _ ____ _ ____ _ ____ _ ____
 72
    65
 73
     4
 40
10.16
 49
6.35
 74
     0
 49
-1.27
 74
     0
 49
1.27
 74
     0
 49
-1.27
 74
     0
  0
LTYPE
  5
71
330
5
100
AcDbSymbolTableRecord
100
AcDbLinetypeTableRecord
  2
CENTERX2
 70
     0
  3
Center (2x) ________  __  ________  __  _____
 72
    65
 73
     4
 40
20.32
 49
12.7
 74
     0
 49
-2.54
 74
     0
 49
2.54
 74
     0
 49
-2.54
 74
     0
  0
LTYPE
  5
72
330
5
100
AcDbSymbolTableRecord
100
AcDbLinetypeTableRecord
  2
DOT2
 70
     0
  3
Dot (.5x) ........................................
 72
    65
 73
     2
 40
0.635
 49
0.0
 74
     0
 49
-0.635
 74
     0
  0
ENDTAB
  0
TABLE
  2
LAYER
  5
2
330
0
100
AcDbSymbolTable
 70
     1
  0
LAYER
  5
10
330
2
100
AcDbSymbolTableRecord
100
AcDbLayerTableRecord
  2
0
 70
     0
 62
     7
  6
Continuous
370
    -3
390
F
347
46
348
0
  0
ENDTAB
  0
TABLE
  2
STYLE
  5
3
330
0
100
AcDbSymbolTable
 70
     1
  0
STYLE
  5
11
330
3
100
AcDbSymbolTableRecord
100
AcDbTextStyleTableRecord
  2
Standard
 70
     0
 40
0.0
 41
1.0
 50
0.0
 71
     0
 42
4.9388888889
  3
txt
  4

  0
ENDTAB
  0
TABLE
  2
VIEW
  5
6
330
0
100
AcDbSymbolTable
 70
     0
  0
ENDTAB
  0
TABLE
  2
UCS
  5
7
330
0
100
AcDbSymbolTable
 70
     0
  0
ENDTAB
  0
TABLE
  2
APPID
  5
9
330
0
100
AcDbSymbolTable
 70
     1
  0
APPID
  5
12
330
9
100
AcDbSymbolTableRecord
100
AcDbRegAppTableRecord
  2
ACAD
 70
     0
  0
ENDTAB
  0
TABLE
  2
DIMSTYLE
  5
A
330
0
100
AcDbSymbolTable
 70
     1
100
AcDbDimStyleTable
  0
DIMSTYLE
105
27
330
A
100
AcDbSymbolTableRecord
100
AcDbDimStyleTableRecord
  2
ISO-25
 70
     0
 41
2.5
 42
0.625
 43
3.75
 44
1.25
 73
     0
 74
     0
 77
     1
 78
     8
140
2.5
141
2.5
143
0.0393700787
147
0.625
171
     3
172
     1
178
     0
271
     2
272
     2
274
     3
278
    44
283
     0
284
     8
340
11
  0
ENDTAB
  0
TABLE
  2
BLOCK_RECORD
  5
1
330
0
100
AcDbSymbolTable
 70
     1
  0
BLOCK_RECORD
  5
1F
330
1
100
AcDbSymbolTableRecord
100
AcDbBlockTableRecord
  2
*Model_Space
340
22
 70
     0
280
     1
281
     0
  0
BLOCK_RECORD
  5
1B
330
1
100
AcDbSymbolTableRecord
100
AcDbBlockTableRecord
  2
*Paper_Space
340
1E
 70
     0
280
     1
281
     0
  0
BLOCK_RECORD
  5
23
330
1
100
AcDbSymbolTableRecord
100
AcDbBlockTableRecord
  2
*Paper_Space0
340
26
 70
     0
280
     1
281
     0
  0
ENDTAB
  0
ENDSEC
  0
SECTION
  2
BLOCKS
  0
BLOCK
  5
20
330
1F
100
AcDbEntity
  8
0
100
AcDbBlockBegin
  2
*Model_Space
 70
     0
 10
0.0
 20
0.0
 30
0.0
  3
*Model_Space
  1

  0
ENDBLK
  5
21
330
1F
100
AcDbEntity
  8
0
100
AcDbBlockEnd
  0
BLOCK
  5
1C
330
1B
100
AcDbEntity
 67
     1
  8
0
100
AcDbBlockBegin
  2
*Paper_Space
 70
     0
 10
0.0
 20
0.0
 30
0.0
  3
*Paper_Space
  1

  0
ENDBLK
  5
1D
330
1B
100
AcDbEntity
 67
     1
  8
0
100
AcDbBlockEnd
  0
BLOCK
  5
24
330
23
100
AcDbEntity
  8
0
100
AcDbBlockBegin
  2
*Paper_Space0
 70
     0
 10
0.0
 20
0.0
 30
0.0
  3
*Paper_Space0
  1

  0
ENDBLK
  5
25
330
23
100
AcDbEntity
  8
0
100
AcDbBlockEnd
  0
ENDSEC
  0
SECTION
  2
ENTITIES
  0
SPLINE
  5
123
330
1F
100
AcDbEntity
  8
0
  6
Continuous
 62
     7
370
    25
100
AcDbSpline
210
0.0
220
0.0
230
1.0
 70
     8
 71
     3
 72
    19
 73
    15
 74
     0
 42
0.000000001
 43
0.00000001
 40
0.0
 40
0.0
 40
0.0
 40
0.0
 40
0.0483007024460433
 40
0.096193949133313
 40
0.1439549006815286
 40
0.1918609973749384
 40
0.240187179730697
 40
0.3700731409980018
 40
0.5000495556510276
 40
0.6299234186218146
 40
0.759911847237273
 40
0.8401267424448596
 40
0.9197283283585153
 40
1.0
 40
1.0
 40
1.0
 40
1.0
 10
9.600000000000165
 20
339.9999999999998
 30
0.0
 10
9.599144795576997
 20
340.0404328701165
 30
0.0
 10
9.59744160107634
 20
340.1209575261639
 30
0.0
 10
9.58344923431087
 20
340.2407937964447
 30
0.0
 10
9.561050517305713
 20
340.3589244538041
 30
0.0
 10
9.529434689480365
 20
340.4753532120037
 30
0.0
 10
9.466288319628646
 20
340.6538548222852
 30
0.0
 10
9.347212978278174
 20
340.8849480093986
 30
0.0
 10
9.139077951598463
 20
341.1389582612295
 30
0.0
 10
8.885002963533339
 20
341.3471385769376
 30
0.0
 10
8.630089511131867
 20
341.4786618964051
 30
0.0
 10
8.399054519539206
 20
341.5537876826845
 30
0.0
 10
8.201116482401794
 20
341.592917962563
 30
0.0
 10
8.067225888579388
 20
341.5976327337597
 30
0.0
 10
8.000000000100261
 20
341.6000000000002
 30
0.0
  0
SPLINE
  5
124
330
1F
100
AcDbEntity
  8
0
  6
Continuous
 62
     7
370
    25
100
AcDbSpline
210
0.0
220
0.0
230
1.0
 70
     8
 71
     3
 72
    19
 73
    15
 74
     0
 42
0.000000001
 43
0.00000001
 40
0.0
 40
0.0
 40
0.0
 40
0.0
 40
0.0482928343540995
 40
0.0961821700609971
 40
0.1439431235095092
 40
0.1918530227947353
 40
0.2401866322202073
 40
0.3700608148751348
 40
0.500049534707207
 40
0.6299357234174707
 40
0.7599123542882261
 40
0.8401376368657442
 40
0.9197392259465127
 40
1.0
 40
1.0
 40
1.0
 40
1.0
 10
8.000000000000174
 20
341.6000000000001
 30
0.0
 10
7.959573717712331
 20
341.5991447221211
 30
0.0
 10
7.879058924784021
 20
341.5974413124229
 30
0.0
 10
7.759232654730219
 20
341.5834484371479
 30
0.0
 10
7.641102154254787
 20
341.5610495583056
 30
0.0
 10
7.524664006247239
 20
341.5294329316715
 30
0.0
 10
7.346158589728757
 20
341.4662990680595
 30
0.0
 10
7.115054796923648
 20
341.3472265668957
 30
0.0
 10
6.861043824074819
 20
341.1390759132624
 30
0.0
 10
6.652847377535576
 20
340.885000303694
 30
0.0
 10
6.521328200767562
 20
340.6300728209216
 30
0.0
 10
6.446216725543186
 20
340.3990348582665
 30
0.0
 10
6.407083188682384
 20
340.2010982588949
 30
0.0
 10
6.402367544473597
 20
340.0672167710482
 30
0.0
 10
6.400000000000128
 20
340.0000000001001
 30
0.0
  0
SPLINE
  5
125
330
1F
100
AcDbEntity
  8
0
  6
Continuous
 62
     7
370
    25
100
AcDbSpline
210
0.0
220
0.0
230
1.0
 70
     8
 71
     3
 72
    19
 73
    15
 74
     0
 42
0.000000001
 43
0.00000001
 40
0.0
 40
0.0
 40
0.0
 40
0.0
 40
0.0482928343420781
 40
0.0961821700431077
 40
0.1439431234915998
 40
0.1918530227826261
 40
0.240186632219374
 40
0.3700608148382381
 40
0.5000495347062234
 40
0.6299357233873554
 40
0.7599123542875906
 40
0.8401376368552091
 40
0.9197392259360337
 40
0.9999999999999999
 40
0.9999999999999999
 40
0.9999999999999999
 40
0.9999999999999999
 10
8.000000000000174
 20
338.3999999999999
 30
0.0
 10
8.040426282277913
 20
338.400855277879
 30
0.0
 10
8.120941075191235
 20
338.4025586875777
 30
0.0
 10
8.240767345229827
 20
338.4165515628533
 30
0.0
 10
8.358897845705094
 20
338.4389504416957
 30
0.0
 10
8.475335993726741
 20
338.4705670683313
 30
0.0
 10
8.653841410237561
 20
338.5337009319177
 30
0.0
 10
8.884945203049721
 20
338.6527734330891
 30
0.0
 10
9.138956175885227
 20
338.8609240866991
 30
0.0
 10
9.347152622456168
 20
339.114999696281
 30
0.0
 10
9.47867179921541
 20
339.3699271790496
 30
0.0
 10
9.553783274461548
 20
339.6009651417142
 30
0.0
 10
9.592916811318853
 20
339.7989017410877
 30
0.0
 10
9.597632455526917
 20
339.9327832289432
 30
0.0
 10
9.600000000000165
 20
339.9999999998999
 30
0.0
  0
SPLINE
  5
126
330
1F
100
AcDbEntity
  8
0
  6
Continuous
 62
     7
370
    25
100
AcDbSpline
210
0.0
220
0.0
230
1.0
 70
     8
 71
     3
 72
    19
 73
    15
 74
     0
 42
0.000000001
 43
0.00000001
 40
0.0
 40
0.0
 40
0.0
 40
0.0
 40
0.0482928343465306
 40
0.0961821700497758
 40
0.1439431234982927
 40
0.1918530227871671
 40
0.2401866322196764
 40
0.3700608148435032
 40
0.5000495347061619
 40
0.6299357233896846
 40
0.759912354287732
 40
0.8401376368587441
 40
0.9197392259395781
 40
1.0
 40
1.0
 40
1.0
 40
1.0
 10
8.000000000000174
 20
5.400000000000016
 30
0.0
 10
8.040426282281633
 20
5.400855277879008
 30
0.0
 10
8.120941075200506
 20
5.402558687577552
 30
0.0
 10
8.240767345244816
 20
5.416551562853034
 30
0.0
 10
8.358897845720193
 20
5.438950441695373
 30
0.0
 10
8.475335993736511
 20
5.470567068330351
 30
0.0
 10
8.653841410243835
 20
5.533700931923486
 30
0.0
 10
8.884945203049776
 20
5.652773433097058
 30
0.0
 10
9.138956175889778
 20
5.860924086703301
 30
0.0
 10
9.347152622460776
 20
6.114999696280626
 30
0.0
 10
9.478671799218075
 20
6.369927179053548
 30
0.0
 10
9.553783274460104
 20
6.60096514172076
 30
0.0
 10
9.592916811318464
 20
6.79890174109371
 30
0.0
 10
9.597632455526806
 20
6.932783228946193
 30
0.0
 10
9.600000000000165
 20
6.999999999900003
 30
0.0
  0
SPLINE
  5
127
330
1F
100
AcDbEntity
  8
0
  6
Continuous
 62
     7
370
    25
100
AcDbSpline
210
0.0
220
0.0
230
1.0
 70
     8
 71
     3
 72
    19
 73
    15
 74
     0
 42
0.000000001
 43
0.00000001
 40
0.0
 40
0.0
 40
0.0
 40
0.0
 40
0.0483007024652549
 40
0.0961939491620921
 40
0.1439549007102608
 40
0.1918609973944033
 40
0.240187179732001
 40
0.3700731410462725
 40
0.5000495556516495
 40
0.6299234186567265
 40
0.7599118472380106
 40
0.8401267424597096
 40
0.9197283283733637
 40
1.0
 40
1.0
 40
1.0
 40
1.0
 10
351.8499999999998
 20
339.9999999999998
 30
0.0
 10
351.8491447955767
 20
340.0404328701326
 30
0.0
 10
351.8474416010767
 20
340.1209575262042
 30
0.0
 10
351.8334492343126
 20
340.2407937965093
 30
0.0
 10
351.8110505173074
 20
340.358924453869
 30
0.0
 10
351.7794346894846
 20
340.475353212046
 30
0.0
 10
351.7162883195955
 20
340.6538548223313
 30
0.0
 10
351.5972129782514
 20
340.884948009429
 30
0.0
 10
351.389077951551
 20
341.1389582612792
 30
0.0
 10
351.1350029635067
 20
341.3471385769507
 30
0.0
 10
350.8800895110959
 20
341.4786618964256
 30
0.0
 10
350.6490545195117
 20
341.5537876826779
 30
0.0
 10
350.4511164823768
 20
341.5929179625617
 30
0.0
 10
350.3172258885666
 20
341.5976327337593
 30
0.0
 10
350.2500000000998
 20
341.6000000000001
 30
0.0
  0
SPLINE
  5
128
330
1F
100
AcDbEntity
  8
0
  6
Continuous
 62
     7
370
    25
100
AcDbSpline
210
0.0
220
0.0
230
1.0
 70
     8
 71
     3
 72
    19
 73
    15
 74
     0
 42
0.000000001
 43
0.00000001
 40
0.0
 40
0.0
 40
0.0
 40
0.0
 40
0.04829283435399
 40
0.0961821700608796
 40
0.1439431235093842
 40
0.1918530227946927
 40
0.2401866322202459
 40
0.3700608148660215
 40
0.5000495347066553
 40
0.6299357234023387
 40
0.7599123542878617
 40
0.8401376368604209
 40
0.9197392259412476
 40
1.0
 40
1.0
 40
1.0
 40
1.0
 10
350.2499999999997
 20
341.6000000000001
 30
0.0
 10
350.2095737177119
 20
341.5991447221211
 30
0.0
 10
350.1290589247838
 20
341.5974413124228
 30
0.0
 10
350.0092326547302
 20
341.5834484371479
 30
0.0
 10
349.8911021542548
 20
341.5610495583057
 30
0.0
 10
349.7746640062469
 20
341.5294329316714
 30
0.0
 10
349.5961585897353
 20
341.4662990680627
 30
0.0
 10
349.3650547969343
 20
341.347226566893
 30
0.0
 10
349.1110438240887
 20
341.1390759132769
 30
0.0
 10
348.9028473775401
 20
340.8850003037062
 30
0.0
 10
348.7713282007761
 20
340.6300728209359
 30
0.0
 10
348.6962167255407
 20
340.3990348582762
 30
0.0
 10
348.6570831886813
 20
340.2010982589035
 30
0.0
 10
348.6523675444731
 20
340.0672167710526
 30
0.0
 10
348.6499999999997
 20
340.0000000001001
 30
0.0
  0
SPLINE
  5
129
330
1F
100
AcDbEntity
  8
0
  6
Continuous
 62
     7
370
    25
100
AcDbSpline
210
0.0
220
0.0
230
1.0
 70
     8
 71
     3
 72
    19
 73
    15
 74
     0
 42
0.000000001
 43
0.00000001
 40
0.0
 40
0.0
 40
0.0
 40
0.0
 40
0.0483007024401004
 40
0.0961939491244365
 40
0.1439549006726304
 40
0.1918609973689114
 40
0.2401871797302366
 40
0.3700731409969432
 40
0.500049555651328
 40
0.6299234186109925
 40
0.7599118472364634
 40
0.8401267424281352
 40
0.919728328341792
 40
1.0
 40
1.0
 40
1.0
 40
1.0
 10
9.600000000000165
 20
7.000000000000006
 30
0.0
 10
9.599144795576942
 20
7.040432870111718
 30
0.0
 10
9.597441601076117
 20
7.120957526151772
 30
0.0
 10
9.58344923431026
 20
7.240793796424811
 30
0.0
 10
9.561050517304936
 20
7.358924453784221
 30
0.0
 10
9.529434689479144
 20
7.475353211990887
 30
0.0
 10
9.46628831963392
 20
7.653854822281369
 30
0.0
 10
9.347212978289388
 20
7.884948009404757
 30
0.0
 10
9.139077951605955
 20
8.138958261223905
 30
0.0
 10
8.885002963529232
 20
8.347138576915075
 30
0.0
 10
8.63008951115135
 20
8.47866189639282
 30
0.0
 10
8.399054519569294
 20
8.553787682691077
 30
0.0
 10
8.201116482429772
 20
8.592917962564616
 30
0.0
 10
8.067225888593377
 20
8.597632733759964
 30
0.0
 10
8.000000000100261
 20
8.599999999999996
 30
0.0
  0
SPLINE
  5
12A
330
1F
100
AcDbEntity
  8
0
  6
Continuous
 62
     7
370
    25
100
AcDbSpline
210
0.0
220
0.0
230
1.0
 70
     8
 71
     3
 72
    19
 73
    15
 74
     0
 42
0.000000001
 43
0.00000001
 40
0.0
 40
0.0
 40
0.0
 40
0.0
 40
0.0482928343466462
 40
0.0961821700497918
 40
0.1439431234983004
 40
0.1918530227871372
 40
0.2401866322196682
 40
0.3700608148436657
 40
0.5000495347063514
 40
0.6299357233901347
 40
0.7599123542878613
 40
0.840137636859121
 40
0.9197392259399222
 40
1.0
 40
1.0
 40
1.0
 40
1.0
 10
8.000000000000174
 20
8.599999999999996
 30
0.0
 10
7.959573717718548
 20
8.599144722121006
 30
0.0
 10
7.879058924799621
 20
8.597441312422461
 30
0.0
 10
7.759232654755365
 20
8.58344843714695
 30
0.0
 10
7.641102154280044
 20
8.561049558304667
 30
0.0
 10
7.524664006263726
 20
8.529432931669634
 30
0.0
 10
7.346158589756236
 20
8.466299068076472
 30
0.0
 10
7.115054796950016
 20
8.347226566903066
 30
0.0
 10
6.861043824109514
 20
8.139075913296628
 30
0.0
 10
6.652847377538851
 20
7.885000303719053
 30
0.0
 10
6.521328200780996
 20
7.630072820946104
 30
0.0
 10
6.446216725540078
 20
7.399034858278586
 30
0.0
 10
6.407083188681773
 20
7.201098258905719
 30
0.0
 10
6.402367544473487
 20
7.067216771053541
 30
0.0
 10
6.400000000000128
 20
7.00000000010001
 30
0.0
  0
SPLINE
  5
12B
330
1F
100
AcDbEntity
  8
0
  6
Continuous
 62
     7
370
    25
100
AcDbSpline
210
0.0
220
0.0
230
1.0
 70
     8
 71
     3
 72
    19
 73
    15
 74
     0
 42
0.000000001
 43
0.00000001
 40
0.0
 40
0.0
 40
0.0
 40
0.0
 40
0.0483007024192306
 40
0.0961939490932011
 40
0.1439549006414087
 40
0.1918609973477238
 40
0.2401871797287163
 40
0.3700731409558964
 40
0.5000495556508852
 40
0.6299234185508928
 40
0.7599118472342102
 40
0.8401267423820761
 40
0.9197283282957833
 40
1.0
 40
1.0
 40
1.0
 40
1.0
 10
348.6499999999997
 20
339.9999999999998
 30
0.0
 10
348.6508552044231
 20
339.9595671299056
 30
0.0
 10
348.6525583989243
 20
339.8790424738916
 30
0.0
 10
348.6665507656918
 20
339.7592062036452
 30
0.0
 10
348.6889494826974
 20
339.6410755462861
 30
0.0
 10
348.7205653105256
 20
339.5246467880548
 30
0.0
 10
348.7837116803344
 20
339.3461451777602
 30
0.0
 10
348.9027870216792
 20
339.1150519906159
 30
0.0
 10
349.1109220483336
 20
338.8610417388327
 30
0.0
 10
349.3649970364462
 20
338.652861423139
 30
0.0
 10
349.6199104887729
 20
338.5213381036525
 30
0.0
 10
349.8509454803472
 20
338.4462123172898
 30
0.0
 10
350.0488835174933
 20
338.4070820374305
 30
0.0
 10
350.1827741113681
 20
338.4023672662388
 30
0.0
 10
350.2499999998996
 20
338.3999999999999
 30
0.0
  0
SPLINE
  5
12C
330
1F
100
AcDbEntity
  8
0
  6
Continuous
 62
     7
370
    25
100
AcDbSpline
210
0.0
220
0.0
230
1.0
 70
     8
 71
     3
 72
    19
 73
    15
 74
     0
 42
0.000000001
 43
0.00000001
 40
0.0
 40
0.0
 40
0.0
 40
0.0
 40
0.0482928343445067
 40
0.096182170046733
 40
0.143943123495228
 40
0.1918530227850705
 40
0.2401866322194911
 40
0.3700608148419896
 40
0.5000495347063911
 40
0.6299357233874383
 40
0.7599123542877048
 40
0.8401376368552739
 40
0.9197392259360492
 40
1.0
 40
1.0
 40
1.0
 40
1.0
 10
350.2499999999997
 20
338.3999999999999
 30
0.0
 10
350.2904262822796
 20
338.4008552778789
 30
0.0
 10
350.3709410751959
 20
338.4025586875775
 30
0.0
 10
350.4907673452375
 20
338.4165515628532
 30
0.0
 10
350.608897845713
 20
338.4389504416956
 30
0.0
 10
350.7253359937317
 20
338.4705670683308
 30
0.0
 10
350.9038414102413
 20
338.5337009319212
 30
0.0
 10
351.1349452030503
 20
338.6527734330932
 30
0.0
 10
351.3889561758881
 20
338.8609240867007
 30
0.0
 10
351.5971526224558
 20
339.1149996962815
 30
0.0
 10
351.728671799216
 20
339.3699271790492
 30
0.0
 10
351.8037832744612
 20
339.6009651417143
 30
0.0
 10
351.8429168113185
 20
339.7989017410878
 30
0.0
 10
351.8476324555267
 20
339.9327832289432
 30
0.0
 10
351.8499999999998
 20
339.9999999998999
 30
0.0
  0
SPLINE
  5
12D
330
1F
100
AcDbEntity
  8
0
  6
Continuous
 62
     7
370
    25
100
AcDbSpline
210
0.0
220
0.0
230
1.0
 70
     8
 71
     3
 72
    19
 73
    15
 74
     0
 42
0.000000001
 43
0.00000001
 40
0.0
 40
0.0
 40
0.0
 40
0.0
 40
0.0482928343418548
 40
0.0961821700427401
 40
0.1439431234912129
 40
0.191853022782336
 40
0.2401866322193009
 40
0.3700608148544677
 40
0.5000495347070807
 40
0.6299357234084281
 40
0.7599123542878511
 40
0.8401376368590784
 40
0.9197392259398881
 40
1.0
 40
1.0
 40
1.0
 40
1.0
 10
348.5000000000002
 20
8.59999999999997
 30
0.0
 10
348.4595737177225
 20
8.599144722120949
 30
0.0
 10
348.3790589248096
 20
8.597441312422266
 30
0.0
 10
348.2592326547712
 20
8.583448437146506
 30
0.0
 10
348.141102154296
 20
8.561049558304001
 30
0.0
 10
348.0246640062741
 20
8.529432931668774
 30
0.0
 10
347.8461585897505
 20
8.46629906807661
 30
0.0
 10
347.615054796931
 20
8.347226566915666
 30
0.0
 10
347.3610438240929
 20
8.139075913278642
 30
0.0
 10
347.1528473775428
 20
7.885000303698375
 30
0.0
 10
347.0213282007745
 20
7.630072820932643
 30
0.0
 10
346.9462167255404
 20
7.399034858278392
 30
0.0
 10
346.9070831886817
 20
7.20109825890583
 30
0.0
 10
346.9023675444735
 20
7.067216771053597
 30
0.0
 10
346.9000000000001
 20
7.00000000010001
 30
0.0
  0
SPLINE
  5
12E
330
1F
100
AcDbEntity
  8
0
  6
Continuous
 62
     7
370
    25
100
AcDbSpline
210
0.0
220
0.0
230
1.0
 70
     8
 71
     3
 72
    19
 73
    15
 74
     0
 42
0.000000001
 43
0.00000001
 40
0.0
 40
0.0
 40
0.0
 40
0.0
 40
0.0483007024384002
 40
0.0961939491219238
 40
0.1439549006700999
 40
0.1918609973671628
 40
0.2401871797300337
 40
0.370073140985945
 40
0.5000495556507525
 40
0.6299234185582162
 40
0.7599118472345681
 40
0.8401267423887167
 40
0.9197283283024051
 40
1.0
 40
1.0
 40
1.0
 40
1.0
 10
6.400000000000128
 20
339.9999999999999
 30
0.0
 10
6.400855204423294
 20
339.9595671298895
 30
0.0
 10
6.402558398923953
 20
339.8790424738516
 30
0.0
 10
6.416550765690254
 20
339.7592062035806
 30
0.0
 10
6.438949482695522
 20
339.6410755462213
 30
0.0
 10
6.470565310521648
 20
339.5246467880128
 30
0.0
 10
6.533711680361154
 20
339.3461451777275
 30
0.0
 10
6.652787021711237
 20
339.1150519906075
 30
0.0
 10
6.860922048353258
 20
338.8610417388089
 30
0.0
 10
7.114997036449688
 20
338.652861423132
 30
0.0
 10
7.369910488782883
 20
338.5213381036462
 30
0.0
 10
7.600945480359722
 20
338.4462123172926
 30
0.0
 10
7.79888351750474
 20
338.4070820374312
 30
0.0
 10
7.932774111373996
 20
338.4023672662389
 30
0.0
 10
7.999999999900032
 20
338.3999999999999
 30
0.0
  0
SPLINE
  5
12F
330
1F
100
AcDbEntity
  8
0
  6
Continuous
 62
     7
370
    25
100
AcDbSpline
210
0.0
220
0.0
230
1.0
 70
     8
 71
     3
 72
    20
 73
    16
 74
     0
 42
0.000000001
 43
0.00000001
 40
0.0
 40
0.0
 40
0.0
 40
0.0
 40
0.0402906535479287
 40
0.0802659081630136
 40
0.1200843154337125
 40
0.1599063004599065
 40
0.199892245279212
 40
0.2402005748473377
 40
0.3700933429514447
 40
0.5000584717702411
 40
0.6299415621834981
 40
0.7599163013363964
 40
0.8401353380714918
 40
0.9197355385681292
 40
0.9999999999999999
 40
0.9999999999999999
 40
0.9999999999999999
 40
0.9999999999999999
 10
694.5
 20
175.5
 30
0.0
 10
694.5007433515017
 20
175.4578429400986
 30
0.0
 10
694.5022242354813
 20
175.3738588296289
 30
0.0
 10
694.5143590364866
 20
175.2486951931586
 30
0.0
 10
694.5337792959913
 20
175.1250077706062
 30
0.0
 10
694.5611758618534
 20
175.0028059268816
 30
0.0
 10
694.5963744955396
 20
174.8820815226168
 30
0.0
 10
694.6710161668046
 20
174.6751765102841
 30
0.0
 10
694.8159876825072
 20
174.3937990911464
 30
0.0
 10
695.0761680629721
 20
174.0762890152888
 30
0.0
 10
695.3937560466271
 20
173.8160689308801
 30
0.0
 10
695.7124038573866
 20
173.6516636430052
 30
0.0
 10
696.0011950605557
 20
173.5577684864368
 30
0.0
 10
696.2486165188566
 20
173.5088532761104
 30
0.0
 10
696.4159737083927
 20
173.5029592555412
 30
0.0
 10
696.4999999998998
 20
173.5
 30
0.0
  0
SPLINE
  5
130
330
1F
100
AcDbEntity
  8
0
  6
Continuous
 62
     7
370
    25
100
AcDbSpline
210
0.0
220
0.0
230
1.0
 70
     8
 71
     3
 72
    19
 73
    15
 74
     0
 42
0.000000001
 43
0.00000001
 40
0.0
 40
0.0
 40
0.0
 40
0.0
 40
0.0483007024642697
 40
0.0961939491606196
 40
0.1439549007088102
 40
0.1918609973934041
 40
0.2401871797319076
 40
0.3700731410898835
 40
0.5000495556536522
 40
0.6299234186474763
 40
0.7599118472357242
 40
0.8401267424115649
 40
0.9197283283252453
 40
0.9999999999999999
 40
0.9999999999999999
 40
0.9999999999999999
 40
0.9999999999999999
 10
687.3999999999997
 20
14.99999999999999
 30
0.0
 10
687.4008552044229
 20
14.95956712986804
 30
0.0
 10
687.4025583989231
 20
14.87904247379771
 30
0.0
 10
687.4165507656871
 20
14.75920620349389
 30
0.0
 10
687.4389494826921
 20
14.64107554613411
 30
0.0
 10
687.4705653105148
 20
14.52464678795587
 30
0.0
 10
687.533711680418
 20
14.34614517763602
 30
0.0
 10
687.6527870217373
 20
14.11505199052182
 30
0.0
 10
687.8609220484659
 20
13.86104173869537
 30
0.0
 10
688.1149970365309
 20
13.65286142312019
 30
0.0
 10
688.3699104888636
 20
13.52133810360165
 30
0.0
 10
688.6009454804017
 20
13.44621231730353
 30
0.0
 10
688.7988835175422
 20
13.40708203743329
 30
0.0
 10
688.9327741113927
 20
13.4023672662395
 30
0.0
 10
688.9999999998998
 20
13.4
 30
0.0
  0
SPLINE
  5
131
330
1F
100
AcDbEntity
  8
0
  6
Continuous
 62
     7
370
    25
100
AcDbSpline
210
0.0
220
0.0
230
1.0
 70
     8
 71
     3
 72
    19
 73
    15
 74
     0
 42
0.000000001
 43
0.00000001
 40
0.0
 40
0.0
 40
0.0
 40
0.0
 40
0.0482928343526177
 40
0.0961821700587786
 40
0.1439431235072542
 40
0.1918530227931737
 40
0.2401866322199905
 40
0.3700608149058353
 40
0.5000495347084568
 40
0.6299357233870209
 40
0.7599123542854654
 40
0.8401376368095066
 40
0.9197392258903228
 40
1.0
 40
1.0
 40
1.0
 40
1.0
 10
689.0
 20
13.4
 30
0.0
 10
689.0404262822865
 20
13.40085527787893
 30
0.0
 10
689.120941075213
 20
13.40255868757734
 30
0.0
 10
689.240767345265
 20
13.41655156285237
 30
0.0
 10
689.3588978457403
 20
13.43895044169474
 30
0.0
 10
689.4753359937494
 20
13.4705670683285
 30
0.0
 10
689.653841410294
 20
13.53370093194989
 30
0.0
 10
689.8849452031112
 20
13.65277343309551
 30
0.0
 10
690.1389561759312
 20
13.86092408673364
 30
0.0
 10
690.3471526223867
 20
14.11499969632751
 30
0.0
 10
690.4786717991929
 20
14.36992717901725
 30
0.0
 10
690.5537832744785
 20
14.60096514163259
 30
0.0
 10
690.5929168113237
 20
14.79890174101123
 30
0.0
 10
690.5976324555279
 20
14.93278322890496
 30
0.0
 10
690.5999999999999
 20
14.99999999990001
 30
0.0
  0
SPLINE
  5
132
330
1F
100
AcDbEntity
  8
0
  6
Continuous
 62
     7
370
    25
100
AcDbSpline
210
0.0
220
0.0
230
1.0
 70
     8
 71
     3
 72
    19
 73
    15
 74
     0
 42
0.000000001
 43
0.00000001
 40
0.0
 40
0.0
 40
0.0
 40
0.0
 40
0.0483007024645051
 40
0.0961939491609753
 40
0.1439549007091678
 40
0.1918609973936386
 40
0.2401871797319197
 40
0.3700731410117264
 40
0.5000495556503015
 40
0.6299234186027787
 40
0.7599118472371923
 40
0.8401267424416207
 40
0.9197283283552572
 40
1.0
 40
1.0
 40
1.0
 40
1.0
 10
690.5999999999998
 20
14.99999999999999
 30
0.0
 10
690.599144795577
 20
15.04043287013215
 30
0.0
 10
690.597441601077
 20
15.12095752620279
 30
0.0
 10
690.5834492343126
 20
15.24079379650686
 30
0.0
 10
690.5610505173073
 20
15.35892445386677
 30
0.0
 10
690.5294346894844
 20
15.47535321204424
 30
0.0
 10
690.4662883196082
 20
15.65385482230511
 30
0.0
 10
690.3472129782432
 20
15.88494800938864
 30
0.0
 10
690.1390779516047
 20
16.13895826122905
 30
0.0
 10
689.8850029635505
 20
16.34713857693615
 30
0.0
 10
689.6300895111481
 20
16.47866189639652
 30
0.0
 10
689.3990545195447
 20
16.55378768268615
 30
0.0
 10
689.2011164824069
 20
16.59291796256307
 30
0.0
 10
689.0672258885818
 20
16.59763273375955
 30
0.0
 10
689.0000000000999
 20
16.6
 30
0.0
  0
SPLINE
  5
133
330
1F
100
AcDbEntity
  8
0
  6
Continuous
 62
     7
370
    25
100
AcDbSpline
210
0.0
220
0.0
230
1.0
 70
     8
 71
     3
 72
    19
 73
    15
 74
     0
 42
0.000000001
 43
0.00000001
 40
0.0
 40
0.0
 40
0.0
 40
0.0
 40
0.0482928343471367
 40
0.0961821700506158
 40
0.1439431234991335
 40
0.1918530227877393
 40
0.2401866322197248
 40
0.370060814843839
 40
0.5000495347062613
 40
0.6299357233773171
 40
0.7599123542873101
 40
0.8401376368482629
 40
0.9197392259290766
 40
1.0
 40
1.0
 40
1.0
 40
1.0
 10
689.0
 20
16.6
 30
0.0
 10
688.959573717718
 20
16.59914472212101
 30
0.0
 10
688.8790589247984
 20
16.59744131242247
 30
0.0
 10
688.7592326547533
 20
16.58344843714701
 30
0.0
 10
688.6411021542777
 20
16.5610495583047
 30
0.0
 10
688.5246640062625
 20
16.52943293166978
 30
0.0
 10
688.3461585897552
 20
16.46629906807595
 30
0.0
 10
688.1150547969509
 20
16.34722656690158
 30
0.0
 10
687.861043824116
 20
16.13907591330494
 30
0.0
 10
687.6528473775519
 20
15.88500030372289
 30
0.0
 10
687.5213282007911
 20
15.63007282096299
 30
0.0
 10
687.4462167255357
 20
15.39903485829816
 30
0.0
 10
687.4070831886803
 20
15.20109825892382
 30
0.0
 10
687.4023675444729
 20
15.0672167710626
 30
0.0
 10
687.3999999999999
 20
15.00000000009999
 30
0.0
  0
SPLINE
  5
134
330
1F
100
AcDbEntity
  8
0
  6
Continuous
 62
     7
370
    25
100
AcDbSpline
210
0.0
220
0.0
230
1.0
 70
     8
 71
     3
 72
    19
 73
    15
 74
     0
 42
0.000000001
 43
0.00000001
 40
0.0
 40
0.0
 40
0.0
 40
0.0
 40
0.048300702436757
 40
0.0961939491194368
 40
0.1439549006676446
 40
0.1918609973655133
 40
0.2401871797299879
 40
0.3700731410199345
 40
0.5000495556524208
 40
0.6299234186210587
 40
0.7599118472357154
 40
0.8401267424120282
 40
0.9197283283256756
 40
1.0
 40
1.0
 40
1.0
 40
1.0
 10
687.4
 20
7.000000000000006
 30
0.0
 10
687.4008552044231
 20
6.95956712989107
 30
0.0
 10
687.4025583989239
 20
6.879042473855207
 30
0.0
 10
687.41655076569
 20
6.759206203586388
 30
0.0
 10
687.4389494826961
 20
6.641075546227171
 30
0.0
 10
687.4705653105214
 20
6.524646788016203
 30
0.0
 10
687.5337116803712
 20
6.346145177702961
 30
0.0
 10
687.6527870216981
 20
6.115051990564696
 30
0.0
 10
687.8609220484126
 20
5.861041738755013
 30
0.0
 10
688.1149970364983
 20
5.652861423111638
 30
0.0
 10
688.3699104888451
 20
5.52133810361144
 30
0.0
 10
688.6009454804018
 20
5.446212317303051
 30
0.0
 10
688.7988835175432
 20
5.407082037433508
 30
0.0
 10
688.9327741113932
 20
5.402367266239577
 30
0.0
 10
688.9999999998998
 20
5.400000000000016
 30
0.0
  0
SPLINE
  5
135
330
1F
100
AcDbEntity
  8
0
  6
Continuous
 62
     7
370
    25
100
AcDbSpline
210
0.0
220
0.0
230
1.0
 70
     8
 71
     3
 72
    19
 73
    15
 74
     0
 42
0.000000001
 43
0.00000001
 40
0.0
 40
0.0
 40
0.0
 40
0.0
 40
0.0482928343600841
 40
0.0961821700699786
 40
0.1439431235185396
 40
0.191853022800787
 40
0.2401866322204729
 40
0.3700608148910289
 40
0.5000495347073246
 40
0.6299357233173347
 40
0.7599123542836443
 40
0.8401376367713166
 40
0.9197392258521382
 40
1.0
 40
1.0
 40
1.0
 40
1.0
 10
689.0
 20
5.400000000000016
 30
0.0
 10
689.0404262822927
 20
5.400855277878868
 30
0.0
 10
689.1209410752284
 20
5.402558687577052
 30
0.0
 10
689.2407673452901
 20
5.416551562851674
 30
0.0
 10
689.3588978457657
 20
5.438950441693735
 30
0.0
 10
689.4753359937656
 20
5.470567068327103
 30
0.0
 10
689.653841410287
 20
5.533700931950936
 30
0.0
 10
689.8849452030815
 20
5.65277343311632
 30
0.0
 10
690.1389561758862
 20
5.86092408667957
 30
0.0
 10
690.3471526223449
 20
6.114999696286261
 30
0.0
 10
690.4786717991483
 20
6.369927178939527
 30
0.0
 10
690.5537832744945
 20
6.600965141563303
 30
0.0
 10
690.5929168113278
 20
6.798901740947466
 30
0.0
 10
690.5976324555288
 20
6.93278322887303
 30
0.0
 10
690.6
 20
6.999999999900003
 30
0.0
  0
SPLINE
  5
136
330
1F
100
AcDbEntity
  8
0
  6
Continuous
 62
     7
370
    25
100
AcDbSpline
210
0.0
220
0.0
230
1.0
 70
     8
 71
     3
 72
    19
 73
    15
 74
     0
 42
0.000000001
 43
0.00000001
 40
0.0
 40
0.0
 40
0.0
 40
0.0
 40
0.0483007024175683
 40
0.0961939490907209
 40
0.1439549006389276
 40
0.1918609973461282
 40
0.2401871797287206
 40
0.3700731409531866
 40
0.5000495556508527
 40
0.629923418569336
 40
0.759911847235094
 40
0.840126742398627
 40
0.9197283283123215
 40
0.9999999999999999
 40
0.9999999999999999
 40
0.9999999999999999
 40
0.9999999999999999
 10
451.6999999999999
 20
339.05
 30
0.0
 10
451.7008552044234
 20
339.0095671299072
 30
0.0
 10
451.7025583989247
 20
338.9290424738954
 30
0.0
 10
451.7165507656919
 20
338.8092062036507
 30
0.0
 10
451.7389494826982
 20
338.691075546292
 30
0.0
 10
451.7705653105261
 20
338.5746467880584
 30
0.0
 10
451.8337116803324
 20
338.3961451777632
 30
0.0
 10
451.9527870216759
 20
338.1650519906158
 30
0.0
 10
452.1609220483443
 20
337.9110417388253
 30
0.0
 10
452.414997036451
 20
337.7028614231183
 30
0.0
 10
452.6699104887979
 20
337.5713381036373
 30
0.0
 10
452.9009454803772
 20
337.4962123172966
 30
0.0
 10
453.0988835175211
 20
337.4570820374323
 30
0.0
 10
453.2327741113822
 20
337.4523672662393
 30
0.0
 10
453.2999999998999
 20
337.45
 30
0.0
  0
SPLINE
  5
137
330
1F
100
AcDbEntity
  8
0
  6
Continuous
 62
     7
370
    25
100
AcDbSpline
210
0.0
220
0.0
230
1.0
 70
     8
 71
     3
 72
    19
 73
    15
 74
     0
 42
0.000000001
 43
0.00000001
 40
0.0
 40
0.0
 40
0.0
 40
0.0
 40
0.0482928343325804
 40
0.0961821700288296
 40
0.1439431234773459
 40
0.1918530227729699
 40
0.2401866322187062
 40
0.3700608148232861
 40
0.5000495347063054
 40
0.629935723414107
 40
0.7599123542886643
 40
0.8401376368788867
 40
0.9197392259597417
 40
1.0
 40
1.0
 40
1.0
 40
1.0
 10
453.2999999999999
 20
337.45
 30
0.0
 10
453.3404262822697
 20
337.4508552778792
 30
0.0
 10
453.420941075171
 20
337.4525586875782
 30
0.0
 10
453.5407673451977
 20
337.4665515628544
 30
0.0
 10
453.6588978456726
 20
337.4889504416971
 30
0.0
 10
453.7753359937058
 20
337.5205670683333
 30
0.0
 10
453.9538414102211
 20
337.5837009319047
 30
0.0
 10
454.1849452030468
 20
337.7027734330724
 30
0.0
 10
454.4389561758886
 20
337.9109240867095
 30
0.0
 10
454.6471526224863
 20
338.1649996962877
 30
0.0
 10
454.7786717992373
 20
338.4199271790854
 30
0.0
 10
454.8537832744519
 20
338.6509651417572
 30
0.0
 10
454.8929168113162
 20
338.8489017411275
 30
0.0
 10
454.897632455526
 20
338.982783228963
 30
0.0
 10
454.9
 20
339.0499999999
 30
0.0
  0
SPLINE
  5
138
330
1F
100
AcDbEntity
  8
0
  6
Continuous
 62
     7
370
    25
100
AcDbSpline
210
0.0
220
0.0
230
1.0
 70
     8
 71
     3
 72
    19
 73
    15
 74
     0
 42
0.000000001
 43
0.00000001
 40
0.0
 40
0.0
 40
0.0
 40
0.0
 40
0.0483007024384263
 40
0.0961939491219058
 40
0.1439549006700875
 40
0.191860997367158
 40
0.2401871797300388
 40
0.3700731409858782
 40
0.5000495556507958
 40
0.6299234186233713
 40
0.7599118472374429
 40
0.840126742446614
 40
0.919728328360249
 40
1.0
 40
1.0
 40
1.0
 40
1.0
 10
454.9
 20
339.05
 30
0.0
 10
454.8991447955768
 20
339.0904328701104
 30
0.0
 10
454.8974416010762
 20
339.1709575261483
 30
0.0
 10
454.88344923431
 20
339.2907937964192
 30
0.0
 10
454.8610505173046
 20
339.4089244537785
 30
0.0
 10
454.8294346894787
 20
339.5253532119872
 30
0.0
 10
454.7662883196384
 20
339.7038548222717
 30
0.0
 10
454.6472129782908
 20
339.934948009395
 30
0.0
 10
454.4390779516037
 20
340.1889582612226
 30
0.0
 10
454.1850029635335
 20
340.39713857694
 30
0.0
 10
453.9300895111292
 20
340.5286618964064
 30
0.0
 10
453.6990545195357
 20
340.6037876826836
 30
0.0
 10
453.5011164823986
 20
340.6429179625625
 30
0.0
 10
453.3672258885777
 20
340.6476327337593
 30
0.0
 10
453.3000000001
 20
340.6499999999999
 30
0.0
  0
SPLINE
  5
139
330
1F
100
AcDbEntity
  8
0
  6
Continuous
 62
     7
370
    25
100
AcDbSpline
210
0.0
220
0.0
230
1.0
 70
     8
 71
     3
 72
    19
 73
    15
 74
     0
 42
0.000000001
 43
0.00000001
 40
0.0
 40
0.0
 40
0.0
 40
0.0
 40
0.0482928343492354
 40
0.096182170053817
 40
0.1439431235022923
 40
0.1918530227898594
 40
0.2401866322198909
 40
0.3700608148222641
 40
0.5000495347051943
 40
0.6299357233241989
 40
0.7599123542861642
 40
0.8401376368233038
 40
0.9197392259040907
 40
1.0
 40
1.0
 40
1.0
 40
1.0
 10
453.2999999999999
 20
340.6499999999999
 30
0.0
 10
453.2595737177162
 20
340.649144722121
 30
0.0
 10
453.1790589247938
 20
340.6474413124225
 30
0.0
 10
453.0592326547464
 20
340.6334484371473
 30
0.0
 10
452.9411021542707
 20
340.6110495583048
 30
0.0
 10
452.824664006258
 20
340.5794329316699
 30
0.0
 10
452.6461585897706
 20
340.5162990680815
 30
0.0
 10
452.4150547969803
 20
340.3972265668905
 30
0.0
 10
452.1610438241567
 20
340.1890759133512
 30
0.0
 10
451.952847377577
 20
339.935000303759
 30
0.0
 10
451.8213282008235
 20
339.6800728210191
 30
0.0
 10
451.7462167255247
 20
339.4490348583434
 30
0.0
 10
451.7070831886781
 20
339.2510982589656
 30
0.0
 10
451.7023675444725
 20
339.1172167710834
 30
0.0
 10
451.6999999999999
 20
339.0500000000999
 30
0.0
  0
SPLINE
  5
13A
330
1F
100
AcDbEntity
  8
0
  6
Continuous
 62
     7
370
    25
100
AcDbSpline
210
0.0
220
0.0
230
1.0
 70
     8
 71
     3
 72
    19
 73
    15
 74
     0
 42
0.000000001
 43
0.00000001
 40
0.0
 40
0.0
 40
0.0
 40
0.0
 40
0.0483007024593187
 40
0.0961939491531998
 40
0.1439549007013881
 40
0.1918609973883663
 40
0.2401871797315035
 40
0.3700731410087102
 40
0.5000495556504873
 40
0.6299234185852531
 40
0.7599118472362362
 40
0.8401267424215216
 40
0.9197283283351668
 40
1.0
 40
1.0
 40
1.0
 40
1.0
 10
350.1000000000003
 20
7.000000000000006
 30
0.0
 10
350.0991447955772
 20
7.040432870127816
 30
0.0
 10
350.0974416010769
 20
7.120957526191962
 30
0.0
 10
350.0834492343124
 20
7.240793796489481
 30
0.0
 10
350.0610505173073
 20
7.35892445384928
 30
0.0
 10
350.0294346894833
 20
7.475353212032854
 30
0.0
 10
349.9662883196143
 20
7.65385482230041
 30
0.0
 10
349.8472129782519
 20
7.884948009391268
 30
0.0
 10
349.6390779516177
 20
8.138958261218686
 30
0.0
 10
349.3850029635506
 20
8.347138576910273
 30
0.0
 10
349.1300895111744
 20
8.478661896379997
 30
0.0
 10
348.8990545195808
 20
8.553787682694185
 30
0.0
 10
348.7011164824401
 20
8.592917962565227
 30
0.0
 10
348.5672258885982
 20
8.597632733760102
 30
0.0
 10
348.5000000000996
 20
8.599999999999996
 30
0.0
  0
SPLINE
  5
13B
330
1F
100
AcDbEntity
  8
0
  6
Continuous
 62
     7
370
    25
100
AcDbSpline
210
0.0
220
0.0
230
1.0
 70
     8
 71
     3
 72
    20
 73
    16
 74
     0
 42
0.000000001
 43
0.00000001
 40
0.0
 40
0.0
 40
0.0
 40
0.0
 40
0.0402906536021704
 40
0.0802659082496331
 40
0.1200843155310536
 40
0.1599063005466445
 40
0.1998922453346647
 40
0.2402005748517395
 40
0.3700933430403952
 40
0.5000584717700008
 40
0.6299415622050812
 40
0.7599163013378415
 40
0.8401353380987027
 40
0.9197355385952737
 40
1.0
 40
1.0
 40
1.0
 40
1.0
 10
698.4999999999999
 20
175.4999999999999
 30
0.0
 10
698.4992566484988
 20
175.5421570599581
 30
0.0
 10
698.4977757645206
 20
175.6261411705185
 30
0.0
 10
698.4856409635175
 20
175.7513048070912
 30
0.0
 10
698.4662207040147
 20
175.8749922296788
 30
0.0
 10
698.4388241381533
 20
175.9971940733703
 30
0.0
 10
698.4036255044724
 20
176.1179184775362
 30
0.0
 10
698.3289838330904
 20
176.3248234898297
 30
0.0
 10
698.1840123173622
 20
176.606200908876
 30
0.0
 10
697.9238319369543
 20
176.9237109847966
 30
0.0
 10
697.6062439533713
 20
177.183931069161
 30
0.0
 10
697.2875961425706
 20
177.3483363570219
 30
0.0
 10
696.9988049393829
 20
177.4422315135494
 30
0.0
 10
696.7513834810865
 20
177.4911467238857
 30
0.0
 10
696.5840262915787
 20
177.4970407444577
 30
0.0
 10
696.5000000000999
 20
177.4999999999998
 30
0.0
  0
SPLINE
  5
13C
330
1F
100
AcDbEntity
  8
0
  6
Continuous
 62
     7
370
    25
100
AcDbSpline
210
0.0
220
0.0
230
1.0
 70
     8
 71
     3
 72
    19
 73
    15
 74
     0
 42
0.000000001
 43
0.00000001
 40
0.0
 40
0.0
 40
0.0
 40
0.0
 40
0.0482928343373752
 40
0.0961821700360164
 40
0.1439431234844889
 40
0.1918530227777921
 40
0.2401866322190179
 40
0.3700608148307287
 40
0.5000495347063261
 40
0.6299357233781651
 40
0.7599123542871619
 40
0.8401376368470351
 40
0.9197392259279019
 40
1.0
 40
1.0
 40
1.0
 40
1.0
 10
648.4999999999999
 20
337.45
 30
0.0
 10
648.5404262822736
 20
337.4508552778792
 30
0.0
 10
648.6209410751807
 20
337.4525586875779
 30
0.0
 10
648.7407673452138
 20
337.466551562854
 30
0.0
 10
648.8588978456884
 20
337.4889504416963
 30
0.0
 10
648.9753359937162
 20
337.5205670683325
 30
0.0
 10
649.1538414102292
 20
337.583700931911
 30
0.0
 10
649.3849452030474
 20
337.7027734330816
 30
0.0
 10
649.6389561758758
 20
337.9109240866894
 30
0.0
 10
649.8471526224461
 20
338.1649996962785
 30
0.0
 10
649.9786717992079
 20
338.4199271790368
 30
0.0
 10
650.0537832744648
 20
338.6509651416998
 30
0.0
 10
650.0929168113196
 20
338.8489017410741
 30
0.0
 10
650.0976324555269
 20
338.9827832289365
 30
0.0
 10
650.1
 20
339.0499999999001
 30
0.0
  0
SPLINE
  5
13D
330
1F
100
AcDbEntity
  8
0
  6
Continuous
 62
     7
370
    25
100
AcDbSpline
210
0.0
220
0.0
230
1.0
 70
     8
 71
     3
 72
    19
 73
    15
 74
     0
 42
0.000000001
 43
0.00000001
 40
0.0
 40
0.0
 40
0.0
 40
0.0
 40
0.0483007024912643
 40
0.096193949201009
 40
0.1439549007492051
 40
0.1918609974207356
 40
0.2401871797337145
 40
0.3700731410709974
 40
0.5000495556510507
 40
0.629923418637849
 40
0.7599118472379853
 40
0.840126742457333
 40
0.9197283283709707
 40
1.0
 40
1.0
 40
1.0
 40
1.0
 10
650.0999999999999
 20
339.05
 30
0.0
 10
650.0991447955772
 20
339.0904328701545
 30
0.0
 10
650.0974416010781
 20
339.1709575262588
 30
0.0
 10
650.083449234315
 20
339.2907937965966
 30
0.0
 10
650.0610505173108
 20
339.4089244539571
 30
0.0
 10
650.0294346894904
 20
339.5253532121028
 30
0.0
 10
649.9662883195655
 20
339.7038548223633
 30
0.0
 10
649.8472129782034
 20
339.9349480094209
 30
0.0
 10
649.6390779515516
 20
340.1889582612855
 30
0.0
 10
649.3850029635244
 20
340.3971385769502
 30
0.0
 10
649.1300895111117
 20
340.5286618964174
 30
0.0
 10
648.8990545195161
 20
340.6037876826791
 30
0.0
 10
648.701116482381
 20
340.6429179625615
 30
0.0
 10
648.5672258885688
 20
340.6476327337591
 30
0.0
 10
648.5000000001002
 20
340.6499999999999
 30
0.0
  0
SPLINE
  5
13E
330
1F
100
AcDbEntity
  8
0
  6
Continuous
 62
     7
370
    25
100
AcDbSpline
210
0.0
220
0.0
230
1.0
 70
     8
 71
     3
 72
    19
 73
    15
 74
     0
 42
0.000000001
 43
0.00000001
 40
0.0
 40
0.0
 40
0.0
 40
0.0
 40
0.0482928343467833
 40
0.096182170050043
 40
0.1439431234985608
 40
0.1918530227873384
 40
0.2401866322196988
 40
0.3700608148437985
 40
0.5000495347062437
 40
0.6299357233346887
 40
0.7599123542854932
 40
0.8401376368099299
 40
0.9197392258907506
 40
1.0
 40
1.0
 40
1.0
 40
1.0
 10
689.0
 20
8.599999999999996
 30
0.0
 10
688.9595737177183
 20
8.599144722121006
 30
0.0
 10
688.8790589247992
 20
8.597441312422461
 30
0.0
 10
688.7592326547546
 20
8.58344843714695
 30
0.0
 10
688.6411021542796
 20
8.561049558304667
 30
0.0
 10
688.5246640062632
 20
8.529432931669662
 30
0.0
 10
688.3461585897558
 20
8.466299068076443
 30
0.0
 10
688.115054796952
 20
8.347226566900762
 30
0.0
 10
687.8610438241369
 20
8.139075913333155
 30
0.0
 10
687.6528473776
 20
7.885000303733514
 30
0.0
 10
687.5213282008259
 20
7.63007282102085
 30
0.0
 10
687.4462167255202
 20
7.399034858367348
 30
0.0
 10
687.4070831886763
 20
7.201098258987903
 30
0.0
 10
687.402367544472
 20
7.067216771094648
 30
0.0
 10
687.3999999999999
 20
7.00000000010001
 30
0.0
  0
SPLINE
  5
13F
330
1F
100
AcDbEntity
  8
0
  6
Continuous
 62
     7
370
    25
100
AcDbSpline
210
0.0
220
0.0
230
1.0
 70
     8
 71
     3
 72
    19
 73
    15
 74
     0
 42
0.000000001
 43
0.00000001
 40
0.0
 40
0.0
 40
0.0
 40
0.0
 40
0.0483007024084473
 40
0.0961939490770788
 40
0.1439549006252603
 40
0.1918609973367976
 40
0.2401871797279268
 40
0.3700731409414529
 40
0.5000495556509051
 40
0.6299234185406151
 40
0.7599118472336726
 40
0.8401267423707329
 40
0.9197283282844397
 40
0.9999999999999999
 40
0.9999999999999999
 40
0.9999999999999999
 40
0.9999999999999999
 10
690.8999999999999
 20
339.9999999999998
 30
0.0
 10
690.9008552044232
 20
339.9595671299145
 30
0.0
 10
690.9025583989248
 20
339.8790424739141
 30
0.0
 10
690.916550765693
 20
339.7592062036816
 30
0.0
 10
690.9389494826987
 20
339.6410755463225
 30
0.0
 10
690.970565310528
 20
339.5246467880784
 30
0.0
 10
691.0337116803203
 20
339.3461451777764
 30
0.0
 10
691.1527870216614
 20
339.1150519906184
 30
0.0
 10
691.3609220483194
 20
338.8610417388468
 30
0.0
 10
691.6149970364457
 20
338.6528614231534
 30
0.0
 10
691.8699104887578
 20
338.5213381036619
 30
0.0
 10
692.1009454803269
 20
338.4462123172854
 30
0.0
 10
692.2988835174748
 20
338.4070820374293
 30
0.0
 10
692.432774111359
 20
338.4023672662385
 30
0.0
 10
692.4999999999
 20
338.3999999999999
 30
0.0
  0
SPLINE
  5
140
330
1F
100
AcDbEntity
  8
0
  6
Continuous
 62
     7
370
    25
100
AcDbSpline
210
0.0
220
0.0
230
1.0
 70
     8
 71
     3
 72
    19
 73
    15
 74
     0
 42
0.000000001
 43
0.00000001
 40
0.0
 40
0.0
 40
0.0
 40
0.0
 40
0.0482928343421468
 40
0.0961821700431665
 40
0.1439431234916482
 40
0.1918530227826475
 40
0.2401866322193519
 40
0.3700608148473107
 40
0.5000495347066851
 40
0.6299357234692375
 40
0.7599123542906921
 40
0.840137636919749
 40
0.9197392260005652
 40
0.9999999999999999
 40
0.9999999999999999
 40
0.9999999999999999
 40
0.9999999999999999
 10
692.4999999999999
 20
338.3999999999999
 30
0.0
 10
692.5404262822777
 20
338.4008552778789
 30
0.0
 10
692.6209410751911
 20
338.4025586875777
 30
0.0
 10
692.7407673452295
 20
338.4165515628532
 30
0.0
 10
692.8588978457051
 20
338.4389504416959
 30
0.0
 10
692.9753359937267
 20
338.4705670683311
 30
0.0
 10
693.1538414102436
 20
338.5337009319211
 30
0.0
 10
693.3849452030632
 20
338.6527734330842
 30
0.0
 10
693.6389561759318
 20
338.860924086758
 30
0.0
 10
693.8471526225343
 20
339.1149996963104
 30
0.0
 10
693.978671799278
 20
339.3699271791542
 30
0.0
 10
694.0537832744347
 20
339.6009651418309
 30
0.0
 10
694.092916811312
 20
339.7989017411956
 30
0.0
 10
694.0976324555251
 20
339.932783228997
 30
0.0
 10
694.0999999999999
 20
339.9999999998999
 30
0.0
  0
SPLINE
  5
141
330
1F
100
AcDbEntity
  8
0
  6
Continuous
 62
     7
370
    25
100
AcDbSpline
210
0.0
220
0.0
230
1.0
 70
     8
 71
     3
 72
    19
 73
    15
 74
     0
 42
0.000000001
 43
0.00000001
 40
0.0
 40
0.0
 40
0.0
 40
0.0
 40
0.0483007024982371
 40
0.0961939492114425
 40
0.1439549007596634
 40
0.1918609974278327
 40
0.2401871797342974
 40
0.3700731410564269
 40
0.5000495556500415
 40
0.6299234186318979
 40
0.7599118472388053
 40
0.8401267424746648
 40
0.9197283283882891
 40
1.0
 40
1.0
 40
1.0
 40
1.0
 10
694.0999999999999
 20
339.9999999999999
 30
0.0
 10
694.0991447955773
 20
340.0404328701603
 30
0.0
 10
694.0974416010783
 20
340.1209575262732
 30
0.0
 10
694.0834492343157
 20
340.2407937966201
 30
0.0
 10
694.061050517312
 20
340.3589244539807
 30
0.0
 10
694.0294346894915
 20
340.475353212118
 30
0.0
 10
693.966288319565
 20
340.6538548223561
 30
0.0
 10
693.8472129781859
 20
340.8849480093953
 30
0.0
 10
693.6390779515632
 20
341.1389582612721
 30
0.0
 10
693.3850029635482
 20
341.3471385769776
 30
0.0
 10
693.1300895111042
 20
341.4786618964239
 30
0.0
 10
692.8990545194853
 20
341.5537876826729
 30
0.0
 10
692.7011164823516
 20
341.5929179625597
 30
0.0
 10
692.567225888554
 20
341.5976327337588
 30
0.0
 10
692.5000000000999
 20
341.6000000000001
 30
0.0
  0
SPLINE
  5
142
330
1F
100
AcDbEntity
  8
0
  6
Continuous
 62
     7
370
    25
100
AcDbSpline
210
0.0
220
0.0
230
1.0
 70
     8
 71
     3
 72
    19
 73
    15
 74
     0
 42
0.000000001
 43
0.00000001
 40
0.0
 40
0.0
 40
0.0
 40
0.0
 40
0.0482928343472255
 40
0.0961821700507495
 40
0.1439431234992715
 40
0.1918530227878408
 40
0.2401866322197477
 40
0.3700608148644324
 40
0.5000495347070839
 40
0.6299357233619958
 40
0.7599123542858593
 40
0.8401376368164951
 40
0.9197392258972982
 40
1.0
 40
1.0
 40
1.0
 40
1.0
 10
692.5
 20
341.6000000000003
 30
0.0
 10
692.4595737177181
 20
341.5991447221213
 30
0.0
 10
692.3790589247984
 20
341.5974413124227
 30
0.0
 10
692.2592326547529
 20
341.5834484371472
 30
0.0
 10
692.1411021542776
 20
341.5610495583048
 30
0.0
 10
692.0246640062618
 20
341.52943293167
 30
0.0
 10
691.8461585897401
 20
341.466299068069
 30
0.0
 10
691.6150547969289
 20
341.3472265669054
 30
0.0
 10
691.3610438241092
 20
341.1390759133044
 30
0.0
 10
691.1528473775965
 20
340.8850003037088
 30
0.0
 10
691.0213282008124
 20
340.6300728209964
 30
0.0
 10
690.9462167255232
 20
340.3990348583554
 30
0.0
 10
690.9070831886768
 20
340.2010982589771
 30
0.0
 10
690.9023675444721
 20
340.0672167710894
 30
0.0
 10
690.8999999999999
 20
340.0000000001001
 30
0.0
  0
SPLINE
  5
143
330
1F
100
AcDbEntity
  8
0
  6
Continuous
 62
     7
370
    25
100
AcDbSpline
210
0.0
220
0.0
230
1.0
 70
     8
 71
     3
 72
    19
 73
    15
 74
     0
 42
0.000000001
 43
0.00000001
 40
0.0
 40
0.0
 40
0.0
 40
0.0
 40
0.0483007024647382
 40
0.0961939491613202
 40
0.1439549007095193
 40
0.1918609973938737
 40
0.2401871797319161
 40
0.3700731410118027
 40
0.5000495556502887
 40
0.6299234186022008
 40
0.759911847237183
 40
0.8401267424413148
 40
0.9197283283549497
 40
0.9999999999999999
 40
0.9999999999999999
 40
0.9999999999999999
 40
0.9999999999999999
 10
690.5999999999999
 20
7.000000000000006
 30
0.0
 10
690.599144795577
 20
7.04043287013234
 30
0.0
 10
690.5974416010772
 20
7.120957526203286
 30
0.0
 10
690.5834492343128
 20
7.240793796507688
 30
0.0
 10
690.5610505173078
 20
7.358924453867544
 30
0.0
 10
690.5294346894841
 20
7.475353212044733
 30
0.0
 10
690.4662883196083
 20
7.65385482230535
 30
0.0
 10
690.3472129782427
 20
7.884948009388381
 30
0.0
 10
690.1390779516049
 20
8.138958261228762
 30
0.0
 10
689.8850029635511
 20
8.347138576935947
 30
0.0
 10
689.6300895111484
 20
8.47866189639615
 30
0.0
 10
689.3990545195456
 20
8.553787682686275
 30
0.0
 10
689.2011164824074
 20
8.592917962563117
 30
0.0
 10
689.0672258885821
 20
8.597632733759575
 30
0.0
 10
689.0000000000999
 20
8.599999999999996
 30
0.0
  0
SPLINE
  5
144
330
1F
100
AcDbEntity
  8
0
  6
Continuous
 62
     7
370
    25
100
AcDbSpline
210
0.0
220
0.0
230
1.0
 70
     8
 71
     3
 72
    19
 73
    15
 74
     0
 42
0.000000001
 43
0.00000001
 40
0.0
 40
0.0
 40
0.0
 40
0.0
 40
0.0483007024398568
 40
0.0961939491240802
 40
0.1439549006722719
 40
0.1918609973686647
 40
0.2401871797302112
 40
0.3700731409962074
 40
0.5000495556511247
 40
0.6299234186020188
 40
0.7599118472360885
 40
0.8401267424204256
 40
0.9197283283341067
 40
1.0
 40
1.0
 40
1.0
 40
1.0
 10
6.400000000000128
 20
7.000000000000006
 30
0.0
 10
6.400855204423294
 20
6.959567129888489
 30
0.0
 10
6.402558398923897
 20
6.879042473848712
 30
0.0
 10
6.416550765690143
 20
6.759206203576007
 30
0.0
 10
6.438949482695355
 20
6.641075546216568
 30
0.0
 10
6.470565310521204
 20
6.524646788009624
 30
0.0
 10
6.533711680365927
 20
6.346145177719253
 30
0.0
 10
6.652787021710571
 20
6.115051990596116
 30
0.0
 10
6.860922048387453
 20
5.861041738780632
 30
0.0
 10
7.114997036468229
 20
5.652861423094457
 30
0.0
 10
7.36991048883695
 20
5.521338103614354
 30
0.0
 10
7.600945480417066
 20
5.446212317305799
 30
0.0
 10
7.798883517557698
 20
5.407082037434563
 30
0.0
 10
7.932774111400532
 20
5.402367266239855
 30
0.0
 10
7.999999999900032
 20
5.400000000000016
 30
0.0
  0
SPLINE
  5
145
330
1F
100
AcDbEntity
  8
0
  6
Continuous
 62
     7
370
    25
100
AcDbSpline
210
0.0
220
0.0
230
1.0
 70
     8
 71
     3
 72
    19
 73
    15
 74
     0
 42
0.000000001
 43
0.00000001
 40
0.0
 40
0.0
 40
0.0
 40
0.0
 40
0.0483007024206599
 40
0.0961939490953412
 40
0.1439549006435347
 40
0.1918609973492138
 40
0.2401871797288715
 40
0.3700731409660349
 40
0.5000495556510763
 40
0.6299234185945298
 40
0.7599118472357707
 40
0.8401267424137887
 40
0.9197283283274605
 40
1.0
 40
1.0
 40
1.0
 40
1.0
 10
346.9000000000001
 20
7.000000000000006
 30
0.0
 10
346.9008552044234
 20
6.959567129904559
 30
0.0
 10
346.9025583989246
 20
6.879042473888846
 30
0.0
 10
346.9165507656921
 20
6.759206203640539
 30
0.0
 10
346.9389494826976
 20
6.641075546281461
 30
0.0
 10
346.9705653105257
 20
6.524646788051674
 30
0.0
 10
347.0337116803394
 20
6.346145177751866
 30
0.0
 10
347.1527870216785
 20
6.115051990604526
 30
0.0
 10
347.3609220483676
 20
5.86104173880414
 30
0.0
 10
347.614997036465
 20
5.652861423101646
 30
0.0
 10
347.8699104888271
 20
5.521338103620571
 30
0.0
 10
348.1009454804051
 20
5.446212317303051
 30
0.0
 10
348.2988835175467
 20
5.407082037433869
 30
0.0
 10
348.432774111395
 20
5.402367266239688
 30
0.0
 10
348.4999999999001
 20
5.400000000000016
 30
0.0
  0
SPLINE
  5
146
330
1F
100
AcDbEntity
  8
0
  6
Continuous
 62
     7
370
    25
100
AcDbSpline
210
0.0
220
0.0
230
1.0
 70
     8
 71
     3
 72
    19
 73
    15
 74
     0
 42
0.000000001
 43
0.00000001
 40
0.0
 40
0.0
 40
0.0
 40
0.0
 40
0.0482928343512943
 40
0.0961821700568645
 40
0.1439431235053857
 40
0.1918530227919689
 40
0.2401866322199763
 40
0.3700608148509743
 40
0.5000495347061684
 40
0.6299357233295628
 40
0.7599123542852129
 40
0.8401376368054302
 40
0.9197392258862668
 40
1.0
 40
1.0
 40
1.0
 40
1.0
 10
348.5000000000002
 20
5.400000000000016
 30
0.0
 10
348.5404262822855
 20
5.400855277878952
 30
0.0
 10
348.6209410752103
 20
5.402558687577386
 30
0.0
 10
348.7407673452608
 20
5.416551562852562
 30
0.0
 10
348.8588978457362
 20
5.438950441694789
 30
0.0
 10
348.9753359937468
 20
5.470567068329296
 30
0.0
 10
349.1538414102522
 20
5.533700931929869
 30
0.0
 10
349.3849452030492
 20
5.65277343310705
 30
0.0
 10
349.6389561758653
 20
5.860924086667191
 30
0.0
 10
349.8471526223939
 20
6.114999696265389
 30
0.0
 10
349.9786717991695
 20
6.369927178972362
 30
0.0
 10
350.0537832744816
 20
6.600965141624532
 30
0.0
 10
350.0929168113243
 20
6.798901741004587
 30
0.0
 10
350.0976324555282
 20
6.93278322890159
 30
0.0
 10
350.1000000000002
 20
6.999999999900003
 30
0.0
  0
SPLINE
  5
147
330
1F
100
AcDbEntity
  8
0
  6
Continuous
 62
     7
370
    25
100
AcDbSpline
210
0.0
220
0.0
230
1.0
 70
     8
 71
     3
 72
    20
 73
    16
 74
     0
 42
0.000000001
 43
0.00000001
 40
0.0
 40
0.0
 40
0.0
 40
0.0
 40
0.0402851895686031
 40
0.0802571791285431
 40
0.1200745076705853
 40
0.1598975613844998
 40
0.1998866575735977
 40
0.2402001326529466
 40
0.3700834772679993
 40
0.500058452370532
 40
0.6299514023330698
 40
0.759916705654324
 40
0.8401440539441809
 40
0.9197442574152431
 40
0.9999999999999999
 40
0.9999999999999999
 40
0.9999999999999999
 40
0.9999999999999999
 10
696.5
 20
173.5000000000001
 30
0.0
 10
696.5421513410917
 20
173.5007433956006
 30
0.0
 10
696.6261263147412
 20
173.5022244072206
 30
0.0
 10
696.7512796161049
 20
173.5143594752337
 30
0.0
 10
696.8749635019059
 20
173.5337799442623
 30
0.0
 10
696.9971686701506
 20
173.5611766016665
 30
0.0
 10
697.1179030439014
 20
173.5963757489256
 30
0.0
 10
697.3248110904807
 20
173.6710052832234
 30
0.0
 10
697.6061980477798
 20
173.8159742289795
 30
0.0
 10
697.9237089117743
 20
174.0761700620809
 30
0.0
 10
698.1839451076332
 20
174.3937587165388
 30
0.0
 10
698.3483462603235
 20
174.7124205459619
 30
0.0
 10
698.4422271046669
 20
175.0012147251263
 30
0.0
 10
698.4911455722716
 20
175.2486347452217
 30
0.0
 10
698.4970404661408
 20
175.4159828273565
 30
0.0
 10
698.4999999999999
 20
175.4999999999
 30
0.0
  0
SPLINE
  5
148
330
1F
100
AcDbEntity
  8
0
  6
Continuous
 62
     7
370
    25
100
AcDbSpline
210
0.0
220
0.0
230
1.0
 70
     8
 71
     3
 72
    20
 73
    16
 74
     0
 42
0.000000001
 43
0.00000001
 40
0.0
 40
0.0
 40
0.0
 40
0.0
 40
0.040285189555347
 40
0.0802571791074347
 40
0.1200745076468225
 40
0.1598975613633613
 40
0.1998866575600745
 40
0.2402001326518995
 40
0.3700834773055074
 40
0.500058452373025
 40
0.6299514022713355
 40
0.759916705649156
 40
0.8401440538350694
 40
0.9197442573061215
 40
0.9999999999999999
 40
0.9999999999999999
 40
0.9999999999999999
 40
0.9999999999999999
 10
696.4999999999999
 20
177.4999999999998
 30
0.0
 10
696.4578486589222
 20
177.4992566043992
 30
0.0
 10
696.3738736852946
 20
177.4977755927787
 30
0.0
 10
696.2487203839559
 20
177.485640524765
 30
0.0
 10
696.1250364981632
 20
177.466220055736
 30
0.0
 10
696.002831329911
 20
177.4388233983315
 30
0.0
 10
695.8820969561352
 20
177.4036242510716
 30
0.0
 10
695.6751889094908
 20
177.3289947167775
 30
0.0
 10
695.3938019521459
 20
177.1840257710662
 30
0.0
 10
695.0762910882299
 20
176.923829937945
 30
0.0
 10
694.8160548925542
 20
176.6062412834135
 30
0.0
 10
694.6516537397721
 20
176.287579454189
 30
0.0
 10
694.5577728952793
 20
175.9987852751189
 30
0.0
 10
694.5088544277131
 20
175.7513652550062
 30
0.0
 10
694.5029595338552
 20
175.5840171727574
 30
0.0
 10
694.4999999999999
 20
175.5000000000998
 30
0.0
  0
SPLINE
  5
149
330
1F
100
AcDbEntity
  8
0
  6
Continuous
 62
     7
370
    25
100
AcDbSpline
210
0.0
220
0.0
230
1.0
 70
     8
 71
     3
 72
    19
 73
    15
 74
     0
 42
0.000000001
 43
0.00000001
 40
0.0
 40
0.0
 40
0.0
 40
0.0
 40
0.0483007024021261
 40
0.0961939490675917
 40
0.1439549006157927
 40
0.1918609973304767
 40
0.2401871797276489
 40
0.370073140967911
 40
0.5000495556525171
 40
0.6299234186175917
 40
0.7599118472355114
 40
0.8401267424068899
 40
0.9197283283205495
 40
1.0
 40
1.0
 40
1.0
 40
1.0
 10
646.8999999999999
 20
339.0500000000001
 30
0.0
 10
646.9008552044234
 20
339.0095671299201
 30
0.0
 10
646.9025583989251
 20
338.9290424739277
 30
0.0
 10
646.916550765694
 20
338.809206203703
 30
0.0
 10
646.9389494826995
 20
338.6910755463442
 30
0.0
 10
646.9705653105297
 20
338.5746467880923
 30
0.0
 10
647.0337116803238
 20
338.3961451777598
 30
0.0
 10
647.15278702164
 20
338.165051990577
 30
0.0
 10
647.3609220483846
 20
337.9110417387909
 30
0.0
 10
647.6149970364972
 20
337.7028614231166
 30
0.0
 10
647.8699104888394
 20
337.5713381036153
 30
0.0
 10
648.1009454803926
 20
337.4962123173009
 30
0.0
 10
648.2988835175349
 20
337.4570820374329
 30
0.0
 10
648.4327741113889
 20
337.4523672662394
 30
0.0
 10
648.4999999998998
 20
337.45
 30
0.0
  0
SPLINE
  5
14A
330
1F
100
AcDbEntity
  8
0
  6
Continuous
 62
     7
370
    25
100
AcDbSpline
210
0.0
220
0.0
230
1.0
 70
     8
 71
     3
 72
    19
 73
    15
 74
     0
 42
0.000000001
 43
0.00000001
 40
0.0
 40
0.0
 40
0.0
 40
0.0
 40
0.0482928343474932
 40
0.0961821700511546
 40
0.1439431234996322
 40
0.1918530227880709
 40
0.2401866322197383
 40
0.3700608148446458
 40
0.500049534706177
 40
0.6299357233289269
 40
0.7599123542853005
 40
0.8401376368052343
 40
0.9197392258859695
 40
1.0
 40
1.0
 40
1.0
 40
1.0
 10
648.5
 20
340.65
 30
0.0
 10
648.4595737177178
 20
340.649144722121
 30
0.0
 10
648.3790589247975
 20
340.6474413124225
 30
0.0
 10
648.259232654752
 20
340.6334484371468
 30
0.0
 10
648.1411021542767
 20
340.6110495583047
 30
0.0
 10
648.0246640062616
 20
340.5794329316697
 30
0.0
 10
647.8461585897545
 20
340.5162990680753
 30
0.0
 10
647.6150547969527
 20
340.3972265668991
 30
0.0
 10
647.3610438241391
 20
340.1890759133364
 30
0.0
 10
647.1528473776059
 20
339.9350003037351
 30
0.0
 10
647.0213282008303
 20
339.6800728210281
 30
0.0
 10
646.9462167255182
 20
339.4490348583759
 30
0.0
 10
646.9070831886758
 20
339.2510982589957
 30
0.0
 10
646.902367544472
 20
339.1172167710985
 30
0.0
 10
646.9
 20
339.0500000001
 30
0.0
  0
LINE
  5
14B
330
1F
100
AcDbEntity
  8
0
  6
Continuous
 62
     7
370
    25
100
AcDbLine
 10
700.0
 20
347.0
 30
0.0
 11
0.0
 21
347.0
 31
0.0
  0
LINE
  5
14C
330
1F
100
AcDbEntity
  8
0
  6
Continuous
 62
     7
370
    25
100
AcDbLine
 10
0.0
 20
0.0
 30
0.0
 11
700.0
 21
0.0
 31
0.0
  0
LINE
  5
14D
330
1F
100
AcDbEntity
  8
0
  6
Continuous
 62
     7
370
    25
100
AcDbLine
 10
0.0
 20
347.0
 30
0.0
 11
0.0
 21
0.0
 31
0.0
  0
LINE
  5
14E
330
1F
100
AcDbEntity
  8
0
  6
Continuous
 62
     7
370
    25
100
AcDbLine
 10
210.25
 20
32.9
 30
0.0
 11
184.75
 21
32.9
 31
0.0
  0
LINE
  5
14F
330
1F
100
AcDbEntity
  8
0
  6
Continuous
 62
     7
370
    25
100
AcDbLine
 10
184.75
 20
28.6
 30
0.0
 11
210.25
 21
28.6
 31
0.0
  0
LINE
  5
150
330
1F
100
AcDbEntity
  8
0
  6
Continuous
 62
     7
370
    25
100
AcDbLine
 10
60.25
 20
28.6
 30
0.0
 11
70.25
 21
28.6
 31
0.0
  0
LINE
  5
151
330
1F
100
AcDbEntity
  8
0
  6
Continuous
 62
     7
370
    25
100
AcDbLine
 10
70.25
 20
32.9
 30
0.0
 11
60.25
 21
32.9
 31
0.0
  0
LINE
  5
152
330
1F
100
AcDbEntity
  8
0
  6
Continuous
 62
     7
370
    25
100
AcDbLine
 10
350.25
 20
32.9
 30
0.0
 11
324.75
 21
32.9
 31
0.0
  0
LINE
  5
153
330
1F
100
AcDbEntity
  8
0
  6
Continuous
 62
     7
370
    25
100
AcDbLine
 10
324.75
 20
28.6
 30
0.0
 11
350.25
 21
28.6
 31
0.0
  0
LINE
  5
154
330
1F
100
AcDbEntity
  8
0
  6
Continuous
 62
     7
370
    25
100
AcDbLine
 10
490.25
 20
32.9
 30
0.0
 11
464.75
 21
32.9
 31
0.0
  0
LINE
  5
155
330
1F
100
AcDbEntity
  8
0
  6
Continuous
 62
     7
370
    25
100
AcDbLine
 10
464.75
 20
28.6
 30
0.0
 11
490.25
 21
28.6
 31
0.0
  0
LINE
  5
156
330
1F
100
AcDbEntity
  8
0
  6
Continuous
 62
     7
370
    25
100
AcDbLine
 10
479.0
 20
147.5
 30
0.0
 11
479.0
 21
38.5
 31
0.0
  0
LINE
  5
157
330
1F
100
AcDbEntity
  8
0
  6
Continuous
 62
     7
370
    25
100
AcDbLine
 10
479.0
 20
38.5
 30
0.0
 11
490.2500000001
 21
38.5
 31
0.0
  0
LINE
  5
158
330
1F
100
AcDbEntity
  8
0
  6
Continuous
 62
     7
370
    25
100
AcDbLine
 10
505.6772486205
 20
24.5
 30
0.0
 11
597.5
 21
24.5
 31
0.0
  0
LINE
  5
159
330
1F
100
AcDbEntity
  8
0
  6
Continuous
 62
     7
370
    25
100
AcDbLine
 10
616.0
 20
43.0
 30
0.0
 11
616.0
 21
143.0
 31
0.0
  0
LINE
  5
15A
330
1F
100
AcDbEntity
  8
0
  6
Continuous
 62
     7
370
    25
100
AcDbLine
 10
597.5
 20
161.5
 30
0.0
 11
505.6772486205
 21
161.5
 31
0.0
  0
LINE
  5
15B
330
1F
100
AcDbEntity
  8
0
  6
Continuous
 62
     7
370
    25
100
AcDbLine
 10
490.25
 20
147.5
 30
0.0
 11
479.0
 21
147.5
 31
0.0
  0
LINE
  5
15C
330
1F
100
AcDbEntity
  8
0
  6
Continuous
 62
     7
370
    25
100
AcDbLine
 10
604.75
 20
28.6
 30
0.0
 11
614.75
 21
28.6
 31
0.0
  0
LINE
  5
15D
330
1F
100
AcDbEntity
  8
0
  6
Continuous
 62
     7
370
    25
100
AcDbLine
 10
614.75
 20
32.9
 30
0.0
 11
604.75
 21
32.9
 31
0.0
  0
LINE
  5
15E
330
1F
100
AcDbEntity
  8
0
  6
Continuous
 62
     7
370
    25
100
AcDbLine
 10
614.75
 20
157.4
 30
0.0
 11
604.75
 21
157.4
 31
0.0
  0
LINE
  5
15F
330
1F
100
AcDbEntity
  8
0
  6
Continuous
 62
     7
370
    25
100
AcDbLine
 10
604.75
 20
153.1
 30
0.0
 11
614.75
 21
153.1
 31
0.0
  0
LINE
  5
160
330
1F
100
AcDbEntity
  8
0
  6
Continuous
 62
     7
370
    25
100
AcDbLine
 10
464.75
 20
153.1
 30
0.0
 11
490.25
 21
153.1
 31
0.0
  0
LINE
  5
161
330
1F
100
AcDbEntity
  8
0
  6
Continuous
 62
     7
370
    25
100
AcDbLine
 10
490.25
 20
157.4
 30
0.0
 11
464.75
 21
157.4
 31
0.0
  0
LINE
  5
162
330
1F
100
AcDbEntity
  8
0
  6
Continuous
 62
     7
370
    25
100
AcDbLine
 10
449.3227513795
 20
161.5
 30
0.0
 11
365.6772486205
 21
161.5
 31
0.0
  0
LINE
  5
163
330
1F
100
AcDbEntity
  8
0
  6
Continuous
 62
     7
370
    25
100
AcDbLine
 10
350.25
 20
147.5
 30
0.0
 11
339.0
 21
147.5
 31
0.0
  0
LINE
  5
164
330
1F
100
AcDbEntity
  8
0
  6
Continuous
 62
     7
370
    25
100
AcDbLine
 10
339.0
 20
147.5
 30
0.0
 11
339.0
 21
38.5
 31
0.0
  0
LINE
  5
165
330
1F
100
AcDbEntity
  8
0
  6
Continuous
 62
     7
370
    25
100
AcDbLine
 10
339.0
 20
38.5
 30
0.0
 11
350.2500000001
 21
38.5
 31
0.0
  0
LINE
  5
166
330
1F
100
AcDbEntity
  8
0
  6
Continuous
 62
     7
370
    25
100
AcDbLine
 10
365.6772486205
 20
24.5
 30
0.0
 11
449.3227513795
 21
24.5
 31
0.0
  0
LINE
  5
167
330
1F
100
AcDbEntity
  8
0
  6
Continuous
 62
     7
370
    25
100
AcDbLine
 10
464.75
 20
38.5
 30
0.0
 11
476.0
 21
38.5
 31
0.0
  0
LINE
  5
168
330
1F
100
AcDbEntity
  8
0
  6
Continuous
 62
     7
370
    25
100
AcDbLine
 10
476.0
 20
38.5
 30
0.0
 11
476.0
 21
147.5
 31
0.0
  0
LINE
  5
169
330
1F
100
AcDbEntity
  8
0
  6
Continuous
 62
     7
370
    25
100
AcDbLine
 10
476.0
 20
147.5
 30
0.0
 11
464.75
 21
147.5
 31
0.0
  0
LINE
  5
16A
330
1F
100
AcDbEntity
  8
0
  6
Continuous
 62
     7
370
    25
100
AcDbLine
 10
324.75
 20
153.1
 30
0.0
 11
350.25
 21
153.1
 31
0.0
  0
LINE
  5
16B
330
1F
100
AcDbEntity
  8
0
  6
Continuous
 62
     7
370
    25
100
AcDbLine
 10
350.25
 20
157.4
 30
0.0
 11
324.75
 21
157.4
 31
0.0
  0
LINE
  5
16C
330
1F
100
AcDbEntity
  8
0
  6
Continuous
 62
     7
370
    25
100
AcDbLine
 10
309.3227513795
 20
161.5
 30
0.0
 11
225.6772486205
 21
161.5
 31
0.0
  0
LINE
  5
16D
330
1F
100
AcDbEntity
  8
0
  6
Continuous
 62
     7
370
    25
100
AcDbLine
 10
210.25
 20
147.5
 30
0.0
 11
199.0
 21
147.5
 31
0.0
  0
LINE
  5
16E
330
1F
100
AcDbEntity
  8
0
  6
Continuous
 62
     7
370
    25
100
AcDbLine
 10
199.0
 20
147.5
 30
0.0
 11
199.0
 21
38.5
 31
0.0
  0
LINE
  5
16F
330
1F
100
AcDbEntity
  8
0
  6
Continuous
 62
     7
370
    25
100
AcDbLine
 10
199.0
 20
38.5
 30
0.0
 11
210.2500000001
 21
38.5
 31
0.0
  0
LINE
  5
170
330
1F
100
AcDbEntity
  8
0
  6
Continuous
 62
     7
370
    25
100
AcDbLine
 10
225.6772486205
 20
24.5
 30
0.0
 11
309.3227513795
 21
24.5
 31
0.0
  0
LINE
  5
171
330
1F
100
AcDbEntity
  8
0
  6
Continuous
 62
     7
370
    25
100
AcDbLine
 10
324.75
 20
38.5
 30
0.0
 11
336.0
 21
38.5
 31
0.0
  0
LINE
  5
172
330
1F
100
AcDbEntity
  8
0
  6
Continuous
 62
     7
370
    25
100
AcDbLine
 10
336.0
 20
38.5
 30
0.0
 11
336.0
 21
147.5
 31
0.0
  0
LINE
  5
173
330
1F
100
AcDbEntity
  8
0
  6
Continuous
 62
     7
370
    25
100
AcDbLine
 10
336.0
 20
147.5
 30
0.0
 11
324.75
 21
147.5
 31
0.0
  0
LINE
  5
174
330
1F
100
AcDbEntity
  8
0
  6
Continuous
 62
     7
370
    25
100
AcDbLine
 10
184.75
 20
153.1
 30
0.0
 11
210.25
 21
153.1
 31
0.0
  0
LINE
  5
175
330
1F
100
AcDbEntity
  8
0
  6
Continuous
 62
     7
370
    25
100
AcDbLine
 10
210.25
 20
157.4
 30
0.0
 11
184.75
 21
157.4
 31
0.0
  0
LINE
  5
176
330
1F
100
AcDbEntity
  8
0
  6
Continuous
 62
     7
370
    25
100
AcDbLine
 10
490.25
 20
193.9
 30
0.0
 11
464.75
 21
193.9
 31
0.0
  0
LINE
  5
177
330
1F
100
AcDbEntity
  8
0
  6
Continuous
 62
     7
370
    25
100
AcDbLine
 10
464.75
 20
189.6
 30
0.0
 11
490.25
 21
189.6
 31
0.0
  0
LINE
  5
178
330
1F
100
AcDbEntity
  8
0
  6
Continuous
 62
     7
370
    25
100
AcDbLine
 10
169.3227513795
 20
161.5
 30
0.0
 11
77.5
 21
161.5
 31
0.0
  0
LINE
  5
179
330
1F
100
AcDbEntity
  8
0
  6
Continuous
 62
     7
370
    25
100
AcDbLine
 10
59.0
 20
143.0
 30
0.0
 11
59.0
 21
43.0
 31
0.0
  0
LINE
  5
17A
330
1F
100
AcDbEntity
  8
0
  6
Continuous
 62
     7
370
    25
100
AcDbLine
 10
77.5
 20
24.5
 30
0.0
 11
169.3227513795
 21
24.5
 31
0.0
  0
LINE
  5
17B
330
1F
100
AcDbEntity
  8
0
  6
Continuous
 62
     7
370
    25
100
AcDbLine
 10
184.75
 20
38.5
 30
0.0
 11
196.0
 21
38.5
 31
0.0
  0
LINE
  5
17C
330
1F
100
AcDbEntity
  8
0
  6
Continuous
 62
     7
370
    25
100
AcDbLine
 10
196.0
 20
38.5
 30
0.0
 11
196.0
 21
147.5
 31
0.0
  0
LINE
  5
17D
330
1F
100
AcDbEntity
  8
0
  6
Continuous
 62
     7
370
    25
100
AcDbLine
 10
196.0
 20
147.5
 30
0.0
 11
184.7499999999
 21
147.5
 31
0.0
  0
LINE
  5
17E
330
1F
100
AcDbEntity
  8
0
  6
Continuous
 62
     7
370
    25
100
AcDbLine
 10
70.25
 20
157.4
 30
0.0
 11
60.25
 21
157.4
 31
0.0
  0
LINE
  5
17F
330
1F
100
AcDbEntity
  8
0
  6
Continuous
 62
     7
370
    25
100
AcDbLine
 10
60.25
 20
153.1
 30
0.0
 11
70.25
 21
153.1
 31
0.0
  0
LINE
  5
180
330
1F
100
AcDbEntity
  8
0
  6
Continuous
 62
     7
370
    25
100
AcDbLine
 10
479.0
 20
308.5
 30
0.0
 11
479.0
 21
199.5
 31
0.0
  0
LINE
  5
181
330
1F
100
AcDbEntity
  8
0
  6
Continuous
 62
     7
370
    25
100
AcDbLine
 10
479.0
 20
199.5
 30
0.0
 11
490.2500000001
 21
199.5
 31
0.0
  0
LINE
  5
182
330
1F
100
AcDbEntity
  8
0
  6
Continuous
 62
     7
370
    25
100
AcDbLine
 10
505.6772486205
 20
185.5
 30
0.0
 11
597.5
 21
185.5
 31
0.0
  0
LINE
  5
183
330
1F
100
AcDbEntity
  8
0
  6
Continuous
 62
     7
370
    25
100
AcDbLine
 10
616.0
 20
204.0
 30
0.0
 11
616.0
 21
304.0
 31
0.0
  0
LINE
  5
184
330
1F
100
AcDbEntity
  8
0
  6
Continuous
 62
     7
370
    25
100
AcDbLine
 10
597.5
 20
322.5
 30
0.0
 11
505.6772486205
 21
322.5
 31
0.0
  0
LINE
  5
185
330
1F
100
AcDbEntity
  8
0
  6
Continuous
 62
     7
370
    25
100
AcDbLine
 10
490.25
 20
308.5
 30
0.0
 11
479.0
 21
308.5
 31
0.0
  0
LINE
  5
186
330
1F
100
AcDbEntity
  8
0
  6
Continuous
 62
     7
370
    25
100
AcDbLine
 10
604.75
 20
189.6
 30
0.0
 11
614.75
 21
189.6
 31
0.0
  0
LINE
  5
187
330
1F
100
AcDbEntity
  8
0
  6
Continuous
 62
     7
370
    25
100
AcDbLine
 10
614.75
 20
193.9
 30
0.0
 11
604.75
 21
193.9
 31
0.0
  0
LINE
  5
188
330
1F
100
AcDbEntity
  8
0
  6
Continuous
 62
     7
370
    25
100
AcDbLine
 10
614.75
 20
318.4
 30
0.0
 11
604.75
 21
318.4
 31
0.0
  0
LINE
  5
189
330
1F
100
AcDbEntity
  8
0
  6
Continuous
 62
     7
370
    25
100
AcDbLine
 10
604.75
 20
314.1
 30
0.0
 11
614.75
 21
314.1
 31
0.0
  0
LINE
  5
18A
330
1F
100
AcDbEntity
  8
0
  6
Continuous
 62
     7
370
    25
100
AcDbLine
 10
464.75
 20
314.1
 30
0.0
 11
490.25
 21
314.1
 31
0.0
  0
LINE
  5
18B
330
1F
100
AcDbEntity
  8
0
  6
Continuous
 62
     7
370
    25
100
AcDbLine
 10
490.25
 20
318.4
 30
0.0
 11
464.75
 21
318.4
 31
0.0
  0
LINE
  5
18C
330
1F
100
AcDbEntity
  8
0
  6
Continuous
 62
     7
370
    25
100
AcDbLine
 10
449.3227513795
 20
322.5
 30
0.0
 11
365.6772486205
 21
322.5
 31
0.0
  0
LINE
  5
18D
330
1F
100
AcDbEntity
  8
0
  6
Continuous
 62
     7
370
    25
100
AcDbLine
 10
350.25
 20
308.5
 30
0.0
 11
339.0
 21
308.5
 31
0.0
  0
LINE
  5
18E
330
1F
100
AcDbEntity
  8
0
  6
Continuous
 62
     7
370
    25
100
AcDbLine
 10
339.0
 20
308.5
 30
0.0
 11
339.0
 21
199.5
 31
0.0
  0
LINE
  5
18F
330
1F
100
AcDbEntity
  8
0
  6
Continuous
 62
     7
370
    25
100
AcDbLine
 10
339.0
 20
199.5
 30
0.0
 11
350.2500000001
 21
199.5
 31
0.0
  0
LINE
  5
190
330
1F
100
AcDbEntity
  8
0
  6
Continuous
 62
     7
370
    25
100
AcDbLine
 10
365.6772486205
 20
185.5
 30
0.0
 11
449.3227513795
 21
185.5
 31
0.0
  0
LINE
  5
191
330
1F
100
AcDbEntity
  8
0
  6
Continuous
 62
     7
370
    25
100
AcDbLine
 10
464.75
 20
199.5
 30
0.0
 11
476.0
 21
199.5
 31
0.0
  0
LINE
  5
192
330
1F
100
AcDbEntity
  8
0
  6
Continuous
 62
     7
370
    25
100
AcDbLine
 10
476.0
 20
199.5
 30
0.0
 11
476.0
 21
308.5
 31
0.0
  0
LINE
  5
193
330
1F
100
AcDbEntity
  8
0
  6
Continuous
 62
     7
370
    25
100
AcDbLine
 10
476.0
 20
308.5
 30
0.0
 11
464.75
 21
308.5
 31
0.0
  0
LINE
  5
194
330
1F
100
AcDbEntity
  8
0
  6
Continuous
 62
     7
370
    25
100
AcDbLine
 10
350.25
 20
193.9
 30
0.0
 11
324.75
 21
193.9
 31
0.0
  0
LINE
  5
195
330
1F
100
AcDbEntity
  8
0
  6
Continuous
 62
     7
370
    25
100
AcDbLine
 10
324.75
 20
189.6
 30
0.0
 11
350.25
 21
189.6
 31
0.0
  0
LINE
  5
196
330
1F
100
AcDbEntity
  8
0
  6
Continuous
 62
     7
370
    25
100
AcDbLine
 10
210.25
 20
193.9
 30
0.0
 11
184.75
 21
193.9
 31
0.0
  0
LINE
  5
197
330
1F
100
AcDbEntity
  8
0
  6
Continuous
 62
     7
370
    25
100
AcDbLine
 10
184.75
 20
189.6
 30
0.0
 11
210.25
 21
189.6
 31
0.0
  0
LINE
  5
198
330
1F
100
AcDbEntity
  8
0
  6
Continuous
 62
     7
370
    25
100
AcDbLine
 10
60.25
 20
189.6
 30
0.0
 11
70.25
 21
189.6
 31
0.0
  0
LINE
  5
199
330
1F
100
AcDbEntity
  8
0
  6
Continuous
 62
     7
370
    25
100
AcDbLine
 10
70.25
 20
193.9
 30
0.0
 11
60.25
 21
193.9
 31
0.0
  0
LINE
  5
19A
330
1F
100
AcDbEntity
  8
0
  6
Continuous
 62
     7
370
    25
100
AcDbLine
 10
324.75
 20
314.1
 30
0.0
 11
350.25
 21
314.1
 31
0.0
  0
LINE
  5
19B
330
1F
100
AcDbEntity
  8
0
  6
Continuous
 62
     7
370
    25
100
AcDbLine
 10
350.25
 20
318.4
 30
0.0
 11
324.75
 21
318.4
 31
0.0
  0
LINE
  5
19C
330
1F
100
AcDbEntity
  8
0
  6
Continuous
 62
     7
370
    25
100
AcDbLine
 10
309.3227513795
 20
322.5
 30
0.0
 11
225.6772486205
 21
322.5
 31
0.0
  0
LINE
  5
19D
330
1F
100
AcDbEntity
  8
0
  6
Continuous
 62
     7
370
    25
100
AcDbLine
 10
210.25
 20
308.5
 30
0.0
 11
199.0
 21
308.5
 31
0.0
  0
LINE
  5
19E
330
1F
100
AcDbEntity
  8
0
  6
Continuous
 62
     7
370
    25
100
AcDbLine
 10
199.0
 20
308.5
 30
0.0
 11
199.0
 21
199.5
 31
0.0
  0
LINE
  5
19F
330
1F
100
AcDbEntity
  8
0
  6
Continuous
 62
     7
370
    25
100
AcDbLine
 10
199.0
 20
199.5
 30
0.0
 11
210.2500000001
 21
199.5
 31
0.0
  0
LINE
  5
1A0
330
1F
100
AcDbEntity
  8
0
  6
Continuous
 62
     7
370
    25
100
AcDbLine
 10
225.6772486205
 20
185.5
 30
0.0
 11
309.3227513795
 21
185.5
 31
0.0
  0
LINE
  5
1A1
330
1F
100
AcDbEntity
  8
0
  6
Continuous
 62
     7
370
    25
100
AcDbLine
 10
324.75
 20
199.5
 30
0.0
 11
336.0
 21
199.5
 31
0.0
  0
LINE
  5
1A2
330
1F
100
AcDbEntity
  8
0
  6
Continuous
 62
     7
370
    25
100
AcDbLine
 10
336.0
 20
199.5
 30
0.0
 11
336.0
 21
308.5
 31
0.0
  0
LINE
  5
1A3
330
1F
100
AcDbEntity
  8
0
  6
Continuous
 62
     7
370
    25
100
AcDbLine
 10
336.0
 20
308.5
 30
0.0
 11
324.75
 21
308.5
 31
0.0
  0
LINE
  5
1A4
330
1F
100
AcDbEntity
  8
0
  6
Continuous
 62
     7
370
    25
100
AcDbLine
 10
184.75
 20
314.1
 30
0.0
 11
210.25
 21
314.1
 31
0.0
  0
LINE
  5
1A5
330
1F
100
AcDbEntity
  8
0
  6
Continuous
 62
     7
370
    25
100
AcDbLine
 10
210.25
 20
318.4
 30
0.0
 11
184.75
 21
318.4
 31
0.0
  0
LINE
  5
1A6
330
1F
100
AcDbEntity
  8
0
  6
Continuous
 62
     7
370
    25
100
AcDbLine
 10
169.3227513795
 20
322.5
 30
0.0
 11
77.5
 21
322.5
 31
0.0
  0
LINE
  5
1A7
330
1F
100
AcDbEntity
  8
0
  6
Continuous
 62
     7
370
    25
100
AcDbLine
 10
59.0
 20
304.0
 30
0.0
 11
59.0
 21
204.0
 31
0.0
  0
LINE
  5
1A8
330
1F
100
AcDbEntity
  8
0
  6
Continuous
 62
     7
370
    25
100
AcDbLine
 10
77.5
 20
185.5
 30
0.0
 11
169.3227513795
 21
185.5
 31
0.0
  0
LINE
  5
1A9
330
1F
100
AcDbEntity
  8
0
  6
Continuous
 62
     7
370
    25
100
AcDbLine
 10
184.75
 20
199.5
 30
0.0
 11
196.0
 21
199.5
 31
0.0
  0
LINE
  5
1AA
330
1F
100
AcDbEntity
  8
0
  6
Continuous
 62
     7
370
    25
100
AcDbLine
 10
196.0
 20
199.5
 30
0.0
 11
196.0
 21
308.5
 31
0.0
  0
LINE
  5
1AB
330
1F
100
AcDbEntity
  8
0
  6
Continuous
 62
     7
370
    25
100
AcDbLine
 10
196.0
 20
308.5
 30
0.0
 11
184.7499999999
 21
308.5
 31
0.0
  0
LINE
  5
1AC
330
1F
100
AcDbEntity
  8
0
  6
Continuous
 62
     7
370
    25
100
AcDbLine
 10
70.25
 20
318.4
 30
0.0
 11
60.25
 21
318.4
 31
0.0
  0
LINE
  5
1AD
330
1F
100
AcDbEntity
  8
0
  6
Continuous
 62
     7
370
    25
100
AcDbLine
 10
60.25
 20
314.1
 30
0.0
 11
70.25
 21
314.1
 31
0.0
  0
LINE
  5
1AE
330
1F
100
AcDbEntity
  8
0
  6
Continuous
 62
     7
370
    25
100
AcDbLine
 10
653.0
 20
23.5
 30
0.0
 11
693.0
 21
23.5
 31
0.0
  0
LINE
  5
1AF
330
1F
100
AcDbEntity
  8
0
  6
Continuous
 62
     7
370
    25
100
AcDbLine
 10
693.0
 20
23.5
 30
0.0
 11
693.0
 21
323.5
 31
0.0
  0
LINE
  5
1B0
330
1F
100
AcDbEntity
  8
0
  6
Continuous
 62
     7
370
    25
100
AcDbLine
 10
693.0
 20
323.5
 30
0.0
 11
653.0
 21
323.5
 31
0.0
  0
LINE
  5
1B1
330
1F
100
AcDbEntity
  8
0
  6
Continuous
 62
     7
370
    25
100
AcDbLine
 10
653.0
 20
323.5
 30
0.0
 11
653.0
 21
23.5
 31
0.0
  0
LINE
  5
1B2
330
1F
100
AcDbEntity
  8
0
  6
Continuous
 62
     7
370
    25
100
AcDbLine
 10
700.0
 20
0.0
 30
0.0
 11
700.0
 21
347.0
 31
0.0
  0
ARC
  5
1B3
330
1F
100
AcDbEntity
  8
0
  6
Continuous
 62
     7
370
    25
100
AcDbCircle
 10
210.25
 20
30.75
 30
0.0
 40
2.149999999983113
100
AcDbArc
 50
270.0
 51
90.0000000005
  0
ARC
  5
1B4
330
1F
100
AcDbEntity
  8
0
  6
Continuous
 62
     7
370
    25
100
AcDbCircle
 10
60.25
 20
30.75
 30
0.0
 40
2.149999999983063
100
AcDbArc
 50
89.9999999995
 51
270.0
  0
ARC
  5
1B5
330
1F
100
AcDbEntity
  8
0
  6
Continuous
 62
     7
370
    25
100
AcDbCircle
 10
70.25
 20
30.75
 30
0.0
 40
2.150000000000013
100
AcDbArc
 50
269.999999999
 51
90.0000000006
  0
ARC
  5
1B6
330
1F
100
AcDbEntity
  8
0
  6
Continuous
 62
     7
370
    25
100
AcDbCircle
 10
350.25
 20
30.75
 30
0.0
 40
2.14999999998307
100
AcDbArc
 50
270.0
 51
90.0000000004
  0
ARC
  5
1B7
330
1F
100
AcDbEntity
  8
0
  6
Continuous
 62
     7
370
    25
100
AcDbCircle
 10
324.75
 20
30.75
 30
0.0
 40
2.150000000000002
100
AcDbArc
 50
89.9999999994
 51
270.000000001
  0
ARC
  5
1B8
330
1F
100
AcDbEntity
  8
0
  6
Continuous
 62
     7
370
    25
100
AcDbCircle
 10
490.25
 20
30.75
 30
0.0
 40
2.149999999983073
100
AcDbArc
 50
270.0
 51
90.0000000005
  0
ARC
  5
1B9
330
1F
100
AcDbEntity
  8
0
  6
Continuous
 62
     7
370
    25
100
AcDbCircle
 10
464.75
 20
30.75
 30
0.0
 40
2.150000000000016
100
AcDbArc
 50
89.9999999994
 51
270.000000001
  0
ARC
  5
1BA
330
1F
100
AcDbEntity
  8
0
  6
Continuous
 62
     7
370
    25
100
AcDbCircle
 10
490.2500000002
 20
23.0000000003
 30
0.0
 40
15.49999999972708
100
AcDbArc
 50
5.5534441947
 51
90.0000000006
  0
ARC
  5
1BB
330
1F
100
AcDbEntity
  8
0
  6
Continuous
 62
     7
370
    25
100
AcDbCircle
 10
617.4999999998
 20
23.0000000002
 30
0.0
 40
20.05617111990484
100
AcDbArc
 50
94.2891533284
 51
175.7108466717
  0
ARC
  5
1BC
330
1F
100
AcDbEntity
  8
0
  6
Continuous
 62
     7
370
    25
100
AcDbCircle
 10
617.4999999998
 20
162.9999999998
 30
0.0
 40
20.05617111990542
100
AcDbArc
 50
184.2891533284
 51
265.7108466717
  0
ARC
  5
1BD
330
1F
100
AcDbEntity
  8
0
  6
Continuous
 62
     7
370
    25
100
AcDbCircle
 10
490.2500000002
 20
162.9999999997
 30
0.0
 40
15.49999999972536
100
AcDbArc
 50
269.9999999992
 51
354.4465558051
  0
ARC
  5
1BE
330
1F
100
AcDbEntity
  8
0
  6
Continuous
 62
     7
370
    25
100
AcDbCircle
 10
604.75
 20
30.75
 30
0.0
 40
2.149999999983102
100
AcDbArc
 50
89.9999999995
 51
270.0
  0
ARC
  5
1BF
330
1F
100
AcDbEntity
  8
0
  6
Continuous
 62
     7
370
    25
100
AcDbCircle
 10
614.75
 20
30.75
 30
0.0
 40
2.150000000000027
100
AcDbArc
 50
269.999999999
 51
90.0000000006
  0
ARC
  5
1C0
330
1F
100
AcDbEntity
  8
0
  6
Continuous
 62
     7
370
    25
100
AcDbCircle
 10
614.75
 20
155.25
 30
0.0
 40
2.149999999983123
100
AcDbArc
 50
269.9999999996
 51
90.0
  0
ARC
  5
1C1
330
1F
100
AcDbEntity
  8
0
  6
Continuous
 62
     7
370
    25
100
AcDbCircle
 10
604.75
 20
155.25
 30
0.0
 40
2.150000000000034
100
AcDbArc
 50
89.999999999
 51
270.0000000006
  0
ARC
  5
1C2
330
1F
100
AcDbEntity
  8
0
  6
Continuous
 62
     7
370
    25
100
AcDbCircle
 10
464.75
 20
155.25
 30
0.0
 40
2.149999999982896
100
AcDbArc
 50
90.0
 51
270.0000000005
  0
ARC
  5
1C3
330
1F
100
AcDbEntity
  8
0
  6
Continuous
 62
     7
370
    25
100
AcDbCircle
 10
490.25
 20
155.25
 30
0.0
 40
2.150000000000006
100
AcDbArc
 50
269.9999999994
 51
90.000000001
  0
ARC
  5
1C4
330
1F
100
AcDbEntity
  8
0
  6
Continuous
 62
     7
370
    25
100
AcDbCircle
 10
350.2500000002
 20
162.9999999997
 30
0.0
 40
15.49999999972491
100
AcDbArc
 50
269.9999999992
 51
354.4465558051
  0
ARC
  5
1C5
330
1F
100
AcDbEntity
  8
0
  6
Continuous
 62
     7
370
    25
100
AcDbCircle
 10
350.2500000002
 20
23.0000000003
 30
0.0
 40
15.49999999972681
100
AcDbArc
 50
5.5534441947
 51
90.0000000006
  0
ARC
  5
1C6
330
1F
100
AcDbEntity
  8
0
  6
Continuous
 62
     7
370
    25
100
AcDbCircle
 10
464.7499999998
 20
23.0000000003
 30
0.0
 40
15.49999999972525
100
AcDbArc
 50
89.9999999992
 51
174.4465558051
  0
ARC
  5
1C7
330
1F
100
AcDbEntity
  8
0
  6
Continuous
 62
     7
370
    25
100
AcDbCircle
 10
464.7499999998
 20
162.9999999997
 30
0.0
 40
15.49999999971524
100
AcDbArc
 50
185.5534441945
 51
270.0000000006
  0
ARC
  5
1C8
330
1F
100
AcDbEntity
  8
0
  6
Continuous
 62
     7
370
    25
100
AcDbCircle
 10
324.75
 20
155.25
 30
0.0
 40
2.149999999983038
100
AcDbArc
 50
90.0
 51
270.0000000005
  0
ARC
  5
1C9
330
1F
100
AcDbEntity
  8
0
  6
Continuous
 62
     7
370
    25
100
AcDbCircle
 10
350.25
 20
155.25
 30
0.0
 40
2.150000000000006
100
AcDbArc
 50
269.9999999994
 51
90.000000001
  0
ARC
  5
1CA
330
1F
100
AcDbEntity
  8
0
  6
Continuous
 62
     7
370
    25
100
AcDbCircle
 10
210.2500000002
 20
162.9999999997
 30
0.0
 40
15.49999999972544
100
AcDbArc
 50
269.9999999992
 51
354.4465558051
  0
ARC
  5
1CB
330
1F
100
AcDbEntity
  8
0
  6
Continuous
 62
     7
370
    25
100
AcDbCircle
 10
210.2500000002
 20
23.0000000003
 30
0.0
 40
15.49999999972728
100
AcDbArc
 50
5.5534441947
 51
90.0000000006
  0
ARC
  5
1CC
330
1F
100
AcDbEntity
  8
0
  6
Continuous
 62
     7
370
    25
100
AcDbCircle
 10
324.7499999998
 20
23.0000000003
 30
0.0
 40
15.49999999972558
100
AcDbArc
 50
89.9999999992
 51
174.4465558051
  0
ARC
  5
1CD
330
1F
100
AcDbEntity
  8
0
  6
Continuous
 62
     7
370
    25
100
AcDbCircle
 10
324.7499999998
 20
162.9999999997
 30
0.0
 40
15.49999999971523
100
AcDbArc
 50
185.5534441945
 51
270.0000000006
  0
ARC
  5
1CE
330
1F
100
AcDbEntity
  8
0
  6
Continuous
 62
     7
370
    25
100
AcDbCircle
 10
184.75
 20
155.25
 30
0.0
 40
2.149999999982981
100
AcDbArc
 50
90.0
 51
270.0000000005
  0
ARC
  5
1CF
330
1F
100
AcDbEntity
  8
0
  6
Continuous
 62
     7
370
    25
100
AcDbCircle
 10
210.25
 20
155.25
 30
0.0
 40
2.150000000000006
100
AcDbArc
 50
269.9999999994
 51
90.000000001
  0
ARC
  5
1D0
330
1F
100
AcDbEntity
  8
0
  6
Continuous
 62
     7
370
    25
100
AcDbCircle
 10
490.25
 20
191.75
 30
0.0
 40
2.149999999983152
100
AcDbArc
 50
270.0
 51
90.0000000004
  0
ARC
  5
1D1
330
1F
100
AcDbEntity
  8
0
  6
Continuous
 62
     7
370
    25
100
AcDbCircle
 10
464.75
 20
191.75
 30
0.0
 40
2.149999999999977
100
AcDbArc
 50
89.9999999994
 51
270.000000001
  0
ARC
  5
1D2
330
1F
100
AcDbEntity
  8
0
  6
Continuous
 62
     7
370
    25
100
AcDbCircle
 10
57.5000000002
 20
162.9999999998
 30
0.0
 40
20.05617111990425
100
AcDbArc
 50
274.2891533284
 51
355.7108466717
  0
ARC
  5
1D3
330
1F
100
AcDbEntity
  8
0
  6
Continuous
 62
     7
370
    25
100
AcDbCircle
 10
57.5000000002
 20
23.0000000002
 30
0.0
 40
20.05617111990401
100
AcDbArc
 50
4.2891533284
 51
85.7108466717
  0
ARC
  5
1D4
330
1F
100
AcDbEntity
  8
0
  6
Continuous
 62
     7
370
    25
100
AcDbCircle
 10
184.7499999998
 20
23.0000000003
 30
0.0
 40
15.49999999972634
100
AcDbArc
 50
89.9999999992
 51
174.4465558051
  0
ARC
  5
1D5
330
1F
100
AcDbEntity
  8
0
  6
Continuous
 62
     7
370
    25
100
AcDbCircle
 10
184.7499999998
 20
162.9999999997
 30
0.0
 40
15.4999999997268
100
AcDbArc
 50
185.5534441947
 51
270.0000000006
  0
ARC
  5
1D6
330
1F
100
AcDbEntity
  8
0
  6
Continuous
 62
     7
370
    25
100
AcDbCircle
 10
70.25
 20
155.25
 30
0.0
 40
2.149999999983123
100
AcDbArc
 50
269.9999999996
 51
90.0
  0
ARC
  5
1D7
330
1F
100
AcDbEntity
  8
0
  6
Continuous
 62
     7
370
    25
100
AcDbCircle
 10
60.25
 20
155.25
 30
0.0
 40
2.150000000000006
100
AcDbArc
 50
89.999999999
 51
270.0000000006
  0
ARC
  5
1D8
330
1F
100
AcDbEntity
  8
0
  6
Continuous
 62
     7
370
    25
100
AcDbCircle
 10
490.2500000002
 20
184.0000000003
 30
0.0
 40
15.49999999972727
100
AcDbArc
 50
5.5534441947
 51
90.0000000006
  0
ARC
  5
1D9
330
1F
100
AcDbEntity
  8
0
  6
Continuous
 62
     7
370
    25
100
AcDbCircle
 10
617.4999999998
 20
184.0000000002
 30
0.0
 40
20.05617111990479
100
AcDbArc
 50
94.2891533284
 51
175.7108466717
  0
ARC
  5
1DA
330
1F
100
AcDbEntity
  8
0
  6
Continuous
 62
     7
370
    25
100
AcDbCircle
 10
617.4999999998
 20
323.9999999998
 30
0.0
 40
20.05617111990516
100
AcDbArc
 50
184.2891533284
 51
265.7108466717
  0
ARC
  5
1DB
330
1F
100
AcDbEntity
  8
0
  6
Continuous
 62
     7
370
    25
100
AcDbCircle
 10
490.2500000002
 20
323.9999999997
 30
0.0
 40
15.49999999972556
100
AcDbArc
 50
269.9999999992
 51
354.4465558051
  0
ARC
  5
1DC
330
1F
100
AcDbEntity
  8
0
  6
Continuous
 62
     7
370
    25
100
AcDbCircle
 10
604.75
 20
191.75
 30
0.0
 40
2.149999999983208
100
AcDbArc
 50
89.9999999996
 51
270.0
  0
ARC
  5
1DD
330
1F
100
AcDbEntity
  8
0
  6
Continuous
 62
     7
370
    25
100
AcDbCircle
 10
614.75
 20
191.75
 30
0.0
 40
2.149999999999977
100
AcDbArc
 50
269.999999999
 51
90.0000000006
  0
ARC
  5
1DE
330
1F
100
AcDbEntity
  8
0
  6
Continuous
 62
     7
370
    25
100
AcDbCircle
 10
614.75
 20
316.25
 30
0.0
 40
2.149999999983265
100
AcDbArc
 50
269.9999999995
 51
90.0
  0
ARC
  5
1DF
330
1F
100
AcDbEntity
  8
0
  6
Continuous
 62
     7
370
    25
100
AcDbCircle
 10
604.75
 20
316.25
 30
0.0
 40
2.150000000000148
100
AcDbArc
 50
89.999999999
 51
270.0000000006
  0
ARC
  5
1E0
330
1F
100
AcDbEntity
  8
0
  6
Continuous
 62
     7
370
    25
100
AcDbCircle
 10
464.75
 20
316.25
 30
0.0
 40
2.149999999982867
100
AcDbArc
 50
90.0
 51
270.0000000005
  0
ARC
  5
1E1
330
1F
100
AcDbEntity
  8
0
  6
Continuous
 62
     7
370
    25
100
AcDbCircle
 10
350.2500000002
 20
323.9999999997
 30
0.0
 40
15.49999999972493
100
AcDbArc
 50
269.9999999992
 51
354.4465558051
  0
ARC
  5
1E2
330
1F
100
AcDbEntity
  8
0
  6
Continuous
 62
     7
370
    25
100
AcDbCircle
 10
350.2500000002
 20
184.0000000003
 30
0.0
 40
15.49999999972684
100
AcDbArc
 50
5.5534441947
 51
90.0000000006
  0
ARC
  5
1E3
330
1F
100
AcDbEntity
  8
0
  6
Continuous
 62
     7
370
    25
100
AcDbCircle
 10
464.7499999998
 20
184.0000000003
 30
0.0
 40
15.4999999997253
100
AcDbArc
 50
89.9999999992
 51
174.4465558051
  0
ARC
  5
1E4
330
1F
100
AcDbEntity
  8
0
  6
Continuous
 62
     7
370
    25
100
AcDbCircle
 10
464.7499999998
 20
323.9999999997
 30
0.0
 40
15.49999999971517
100
AcDbArc
 50
185.5534441945
 51
270.0000000006
  0
ARC
  5
1E5
330
1F
100
AcDbEntity
  8
0
  6
Continuous
 62
     7
370
    25
100
AcDbCircle
 10
350.25
 20
191.75
 30
0.0
 40
2.149999999983152
100
AcDbArc
 50
270.0
 51
90.0000000004
  0
ARC
  5
1E6
330
1F
100
AcDbEntity
  8
0
  6
Continuous
 62
     7
370
    25
100
AcDbCircle
 10
324.75
 20
191.75
 30
0.0
 40
2.150000000000006
100
AcDbArc
 50
89.9999999994
 51
270.000000001
  0
ARC
  5
1E7
330
1F
100
AcDbEntity
  8
0
  6
Continuous
 62
     7
370
    25
100
AcDbCircle
 10
210.25
 20
191.75
 30
0.0
 40
2.149999999983152
100
AcDbArc
 50
270.0
 51
90.0000000004
  0
ARC
  5
1E8
330
1F
100
AcDbEntity
  8
0
  6
Continuous
 62
     7
370
    25
100
AcDbCircle
 10
184.75
 20
191.75
 30
0.0
 40
2.149999999999977
100
AcDbArc
 50
89.9999999994
 51
270.000000001
  0
ARC
  5
1E9
330
1F
100
AcDbEntity
  8
0
  6
Continuous
 62
     7
370
    25
100
AcDbCircle
 10
60.25
 20
191.75
 30
0.0
 40
2.149999999983123
100
AcDbArc
 50
89.9999999995
 51
270.0
  0
ARC
  5
1EA
330
1F
100
AcDbEntity
  8
0
  6
Continuous
 62
     7
370
    25
100
AcDbCircle
 10
70.25
 20
191.75
 30
0.0
 40
2.150000000000006
100
AcDbArc
 50
269.999999999
 51
90.0000000006
  0
ARC
  5
1EB
330
1F
100
AcDbEntity
  8
0
  6
Continuous
 62
     7
370
    25
100
AcDbCircle
 10
324.75
 20
316.25
 30
0.0
 40
2.149999999983038
100
AcDbArc
 50
90.0
 51
270.0000000005
  0
ARC
  5
1EC
330
1F
100
AcDbEntity
  8
0
  6
Continuous
 62
     7
370
    25
100
AcDbCircle
 10
350.25
 20
316.25
 30
0.0
 40
2.150000000000091
100
AcDbArc
 50
269.9999999994
 51
90.000000001
  0
ARC
  5
1ED
330
1F
100
AcDbEntity
  8
0
  6
Continuous
 62
     7
370
    25
100
AcDbCircle
 10
210.2500000002
 20
323.9999999997
 30
0.0
 40
15.4999999997255
100
AcDbArc
 50
269.9999999992
 51
354.4465558051
  0
ARC
  5
1EE
330
1F
100
AcDbEntity
  8
0
  6
Continuous
 62
     7
370
    25
100
AcDbCircle
 10
210.2500000002
 20
184.0000000003
 30
0.0
 40
15.49999999972738
100
AcDbArc
 50
5.5534441947
 51
90.0000000006
  0
ARC
  5
1EF
330
1F
100
AcDbEntity
  8
0
  6
Continuous
 62
     7
370
    25
100
AcDbCircle
 10
324.7499999998
 20
184.0000000003
 30
0.0
 40
15.49999999972556
100
AcDbArc
 50
89.9999999992
 51
174.4465558051
  0
ARC
  5
1F0
330
1F
100
AcDbEntity
  8
0
  6
Continuous
 62
     7
370
    25
100
AcDbCircle
 10
324.7499999998
 20
323.9999999997
 30
0.0
 40
15.49999999971517
100
AcDbArc
 50
185.5534441945
 51
270.0000000006
  0
ARC
  5
1F1
330
1F
100
AcDbEntity
  8
0
  6
Continuous
 62
     7
370
    25
100
AcDbCircle
 10
184.75
 20
316.25
 30
0.0
 40
2.149999999982981
100
AcDbArc
 50
90.0
 51
270.0000000005
  0
ARC
  5
1F2
330
1F
100
AcDbEntity
  8
0
  6
Continuous
 62
     7
370
    25
100
AcDbCircle
 10
210.25
 20
316.25
 30
0.0
 40
2.150000000000091
100
AcDbArc
 50
269.9999999994
 51
90.000000001
  0
ARC
  5
1F3
330
1F
100
AcDbEntity
  8
0
  6
Continuous
 62
     7
370
    25
100
AcDbCircle
 10
57.5000000002
 20
323.9999999998
 30
0.0
 40
20.05617111990409
100
AcDbArc
 50
274.2891533284
 51
355.7108466717
  0
ARC
  5
1F4
330
1F
100
AcDbEntity
  8
0
  6
Continuous
 62
     7
370
    25
100
AcDbCircle
 10
57.5000000002
 20
184.0000000002
 30
0.0
 40
20.05617111990412
100
AcDbArc
 50
4.2891533284
 51
85.7108466717
  0
ARC
  5
1F5
330
1F
100
AcDbEntity
  8
0
  6
Continuous
 62
     7
370
    25
100
AcDbCircle
 10
184.7499999998
 20
184.0000000003
 30
0.0
 40
15.49999999972641
100
AcDbArc
 50
89.9999999992
 51
174.4465558051
  0
ARC
  5
1F6
330
1F
100
AcDbEntity
  8
0
  6
Continuous
 62
     7
370
    25
100
AcDbCircle
 10
184.7499999998
 20
323.9999999997
 30
0.0
 40
15.49999999972681
100
AcDbArc
 50
185.5534441947
 51
270.0000000006
  0
ARC
  5
1F7
330
1F
100
AcDbEntity
  8
0
  6
Continuous
 62
     7
370
    25
100
AcDbCircle
 10
70.25
 20
316.25
 30
0.0
 40
2.149999999983152
100
AcDbArc
 50
269.9999999996
 51
90.0
  0
ARC
  5
1F8
330
1F
100
AcDbEntity
  8
0
  6
Continuous
 62
     7
370
    25
100
AcDbCircle
 10
60.25
 20
316.25
 30
0.0
 40
2.150000000000091
100
AcDbArc
 50
89.999999999
 51
270.0000000006
  0
ARC
  5
1F9
330
1F
100
AcDbEntity
  8
0
  6
Continuous
 62
     7
370
    25
100
AcDbCircle
 10
184.75
 20
30.75
 30
0.0
 40
2.149999999999999
100
AcDbArc
 50
89.9999999994
 51
270.000000001
  0
ARC
  5
1FA
330
1F
100
AcDbEntity
  8
0
  6
Continuous
 62
     7
370
    25
100
AcDbCircle
 10
490.25
 20
316.25
 30
0.0
 40
2.150000000000091
100
AcDbArc
 50
269.9999999994
 51
90.000000001
  0
ENDSEC
  0
SECTION
  2
OBJECTS
  0
DICTIONARY
  5
C
330
0
100
AcDbDictionary
281
     1
  3
ACAD_DETAILVIEWSTYLE
350
202
  3
ACAD_GROUP
350
D
  3
ACAD_LAYOUT
350
1A
  3
ACAD_MATERIAL
350
43
  3
ACAD_MLEADERSTYLE
350
6B
  3
ACAD_MLINESTYLE
350
17
  3
ACAD_PLOTSETTINGS
350
19
  3
ACAD_PLOTSTYLENAME
350
E
  3
ACAD_SCALELIST
350
47
  3
ACAD_SECTIONVIEWSTYLE
350
203
  3
ACAD_TABLESTYLE
350
69
  3
ACAD_VISUALSTYLE
350
2A
  3
ACDB_RECOMPOSE_DATA
350
1FF
  3
AcDbVariableDictionary
350
1FB
  0
SUN
  5
6D
330
29
100
AcDbSun
 90
        1
290
     0
 63
     7
421
 16777215
 40
1.0
291
     1
 91
  2455826
 92
 54000000
292
     0
 70
     2
 71
   256
280
     1
  0
DICTIONARY
  5
202
102
{ACAD_REACTORS
330
C
102
}
330
C
100
AcDbDictionary
281
     1
  0
DICTIONARY
  5
D
102
{ACAD_REACTORS
330
C
102
}
330
C
100
AcDbDictionary
281
     1
  0
DICTIONARY
  5
1A
102
{ACAD_REACTORS
330
C
102
}
330
C
100
AcDbDictionary
281
     1
  3
Layout1
350
1E
  3
Layout2
350
26
  3
Model
350
22
  0
DICTIONARY
  5
43
102
{ACAD_REACTORS
330
C
102
}
330
C
100
AcDbDictionary
281
     1
  3
ByBlock
350
45
  3
ByLayer
350
44
  3
Global
350
46
  0
DICTIONARY
  5
6B
102
{ACAD_REACTORS
330
C
102
}
330
C
100
AcDbDictionary
281
     1
  3
Standard
350
6C
  0
DICTIONARY
  5
17
102
{ACAD_REACTORS
330
C
102
}
330
C
100
AcDbDictionary
281
     1
  3
Standard
350
18
  0
DICTIONARY
  5
19
102
{ACAD_REACTORS
330
C
102
}
330
C
100
AcDbDictionary
281
     1
  0
ACDBDICTIONARYWDFLT
  5
E
102
{ACAD_REACTORS
330
C
102
}
330
C
100
AcDbDictionary
281
     1
  3
Normal
350
F
100
AcDbDictionaryWithDefault
340
F
  0
DICTIONARY
  5
47
102
{ACAD_REACTORS
330
C
102
}
330
C
100
AcDbDictionary
281
     1
  3
A0
350
48
  3
A1
350
49
  3
A2
350
4A
  3
A3
350
4B
  3
A4
350
4C
  3
A5
350
4D
  3
A6
350
4E
  3
A7
350
4F
  3
A8
350
50
  3
A9
350
51
  3
B0
350
52
  3
B1
350
53
  3
B2
350
54
  3
B3
350
55
  3
B4
350
56
  3
B5
350
57
  3
B6
350
58
  3
B7
350
59
  3
B8
350
5A
  3
B9
350
5B
  3
C0
350
5C
  3
C1
350
5D
  3
C2
350
5E
  3
C3
350
5F
  3
C4
350
60
  3
C5
350
61
  3
C6
350
62
  3
C7
350
63
  3
C8
350
64
  3
C9
350
65
  3
D0
350
66
  3
D1
350
67
  3
D2
350
68
  0
DICTIONARY
  5
203
102
{ACAD_REACTORS
330
C
102
}
330
C
100
AcDbDictionary
281
     1
  0
DICTIONARY
  5
69
102
{ACAD_REACTORS
330
C
102
}
330
C
100
AcDbDictionary
281
     1
  3
Standard
350
6A
  0
DICTIONARY
  5
2A
102
{ACAD_REACTORS
330
C
102
}
330
C
100
AcDbDictionary
281
     1
  3
2dWireframe
350
2F
  3
Basic
350
32
  3
Brighten
350
36
  3
ColorChange
350
3A
  3
Conceptual
350
34
  3
Dim
350
35
  3
EdgeColorOff
350
3D
  3
Facepattern
350
39
  3
Flat
350
2B
  3
FlatWithEdges
350
2C
  3
Gouraud
350
2D
  3
GouraudWithEdges
350
2E
  3
Hidden
350
31
  3
JitterOff
350
3B
  3
Linepattern
350
38
  3
OverhangOff
350
3C
  3
Realistic
350
33
  3
Shaded
350
42
  3
Shaded with edges
350
41
  3
Shades of Gray
350
3E
  3
Sketchy
350
3F
  3
Thicken
350
37
  3
Wireframe
350
30
  3
X-Ray
350
40
  0
XRECORD
  5
1FF
102
{ACAD_REACTORS
330
C
102
}
330
C
100
AcDbXrecord
280
     1
 90
        1
330
6A
  0
DICTIONARY
  5
1FB
102
{ACAD_REACTORS
330
C
102
}
330
C
100
AcDbDictionary
281
     1
  3
CANNOSCALE
350
1FC
  3
CMLEADERSTYLE
350
201
  3
CTABLESTYLE
350
200
  3
SECTIONTHICKNESSINC
350
204
  0
LAYOUT
  5
1E
102
{ACAD_REACTORS
330
1A
102
}
330
1A
100
AcDbPlotSettings
  1

  2
none_device
  4

  6

 40
0.0
 41
0.0
 42
0.0
 43
0.0
 44
0.0
 45
0.0
 46
0.0
 47
0.0
 48
0.0
 49
0.0
140
0.0
141
0.0
142
1.0
143
1.0
 70
   688
 72
     1
 73
     0
 74
     5
  7

 75
    16
 76
     0
 77
     2
 78
   300
147
1.0
148
0.0
149
0.0
100
AcDbLayout
  1
Layout1
 70
     1
 71
     1
 10
0.0
 20
0.0
 11
420.0
 21
297.0
 12
0.0
 22
0.0
 32
0.0
 14
1.0000000000E+20
 24
1.0000000000E+20
 34
1.0000000000E+20
 15
-1.0000000000E+20
 25
-1.0000000000E+20
 35
-1.0000000000E+20
146
0.0
 13
0.0
 23
0.0
 33
0.0
 16
1.0
 26
0.0
 36
0.0
 17
0.0
 27
1.0
 37
0.0
 76
     0
330
1B
  0
LAYOUT
  5
26
102
{ACAD_REACTORS
330
1A
102
}
330
1A
100
AcDbPlotSettings
  1

  2
none_device
  4

  6

 40
0.0
 41
0.0
 42
0.0
 43
0.0
 44
0.0
 45
0.0
 46
0.0
 47
0.0
 48
0.0
 49
0.0
140
0.0
141
0.0
142
1.0
143
1.0
 70
   688
 72
     1
 73
     0
 74
     5
  7

 75
    16
 76
     0
 77
     2
 78
   300
147
1.0
148
0.0
149
0.0
100
AcDbLayout
  1
Layout2
 70
     1
 71
     2
 10
0.0
 20
0.0
 11
0.0
 21
0.0
 12
0.0
 22
0.0
 32
0.0
 14
0.0
 24
0.0
 34
0.0
 15
0.0
 25
0.0
 35
0.0
146
0.0
 13
0.0
 23
0.0
 33
0.0
 16
1.0
 26
0.0
 36
0.0
 17
0.0
 27
1.0
 37
0.0
 76
     0
330
23
  0
LAYOUT
  5
22
102
{ACAD_REACTORS
330
1A
102
}
330
1A
100
AcDbPlotSettings
  1

  2
none_device
  4
ANSI_A_(11.00_x_8.50_Inches)
  6

 40
6.35
 41
19.05
 42
6.35000508
 43
19.05000254
 44
279.4
 45
215.9
 46
-4.95300254
 47
20.3412258729
 48
0.0
 49
0.0
140
0.0
141
0.0
142
0.0155571429
143
1.0
 70
  1696
 72
     0
 73
     0
 74
     0
  7

 75
     0
 76
     0
 77
     2
 78
   300
147
0.0179189148
148
-1300.4909072572
149
0.0
100
AcDbLayout
  1
Model
 70
     1
 71
     0
 10
0.0
 20
0.0
 11
420.0
 21
297.0
 12
0.0
 22
0.0
 32
0.0
 14
0.0
 24
0.0
 34
0.0
 15
700.0
 25
347.0
 35
0.0
146
0.0
 13
0.0
 23
0.0
 33
0.0
 16
1.0
 26
0.0
 36
0.0
 17
0.0
 27
1.0
 37
0.0
 76
     0
330
1F
331
29
  0
MATERIAL
  5
45
102
{ACAD_REACTORS
330
43
102
}
330
43
100
AcDbMaterial
  1
ByBlock
 72
     1
 94
      127
  0
MATERIAL
  5
44
102
{ACAD_REACTORS
330
43
102
}
330
43
100
AcDbMaterial
  1
ByLayer
 72
     1
 94
      127
  0
MATERIAL
  5
46
102
{ACAD_REACTORS
330
43
102
}
330
43
100
AcDbMaterial
  1
Global
 72
     1
 94
      127
  0
MLEADERSTYLE
  5
6C
102
{ACAD_REACTORS
330
6B
102
}
330
6B
100
AcDbMLeaderStyle
179
     2
170
     2
171
     1
172
     0
 90
        2
 40
0.0
 41
0.0
173
     1
 91
-1056964608
340
14
 92
       -2
290
     1
 42
2.0
291
     1
 43
8.0
  3
Standard
341
0
 44
4.0
300

342
11
174
     1
178
     6
175
     1
176
     0
 93
-1056964608
 45
4.0
292
     0
297
     0
 46
4.0
343
0
 94
-1056964608
 47
1.0
 49
1.0
140
1.0
293
     1
141
0.0
294
     1
177
     0
142
1.0
295
     0
296
     0
143
3.75
271
     0
272
     9
273
     9
298
     0
  0
MLINESTYLE
  5
18
102
{ACAD_REACTORS
330
17
102
}
330
17
100
AcDbMlineStyle
  2
Standard
 70
     0
  3

 62
   256
 51
90.0
 52
90.0
 71
     2
 49
0.5
 62
   256
  6
BYLAYER
 49
-0.5
 62
   256
  6
BYLAYER
  0
ACDBPLACEHOLDER
  5
F
102
{ACAD_REACTORS
330
E
102
}
330
E
  0
SCALE
  5
48
102
{ACAD_REACTORS
330
47
102
}
330
47
100
AcDbScale
 70
     0
300
1:1
140
1.0
141
1.0
290
     1
  0
SCALE
  5
49
102
{ACAD_REACTORS
330
47
102
}
330
47
100
AcDbScale
 70
     0
300
1:2
140
1.0
141
2.0
290
     0
  0
SCALE
  5
4A
102
{ACAD_REACTORS
330
47
102
}
330
47
100
AcDbScale
 70
     0
300
1:4
140
1.0
141
4.0
290
     0
  0
SCALE
  5
4B
102
{ACAD_REACTORS
330
47
102
}
330
47
100
AcDbScale
 70
     0
300
1:5
140
1.0
141
5.0
290
     0
  0
SCALE
  5
4C
102
{ACAD_REACTORS
330
47
102
}
330
47
100
AcDbScale
 70
     0
300
1:8
140
1.0
141
8.0
290
     0
  0
SCALE
  5
4D
102
{ACAD_REACTORS
330
47
102
}
330
47
100
AcDbScale
 70
     0
300
1:10
140
1.0
141
10.0
290
     0
  0
SCALE
  5
4E
102
{ACAD_REACTORS
330
47
102
}
330
47
100
AcDbScale
 70
     0
300
1:16
140
1.0
141
16.0
290
     0
  0
SCALE
  5
4F
102
{ACAD_REACTORS
330
47
102
}
330
47
100
AcDbScale
 70
     0
300
1:20
140
1.0
141
20.0
290
     0
  0
SCALE
  5
50
102
{ACAD_REACTORS
330
47
102
}
330
47
100
AcDbScale
 70
     0
300
1:30
140
1.0
141
30.0
290
     0
  0
SCALE
  5
51
102
{ACAD_REACTORS
330
47
102
}
330
47
100
AcDbScale
 70
     0
300
1:40
140
1.0
141
40.0
290
     0
  0
SCALE
  5
52
102
{ACAD_REACTORS
330
47
102
}
330
47
100
AcDbScale
 70
     0
300
1:50
140
1.0
141
50.0
290
     0
  0
SCALE
  5
53
102
{ACAD_REACTORS
330
47
102
}
330
47
100
AcDbScale
 70
     0
300
1:100
140
1.0
141
100.0
290
     0
  0
SCALE
  5
54
102
{ACAD_REACTORS
330
47
102
}
330
47
100
AcDbScale
 70
     0
300
2:1
140
2.0
141
1.0
290
     0
  0
SCALE
  5
55
102
{ACAD_REACTORS
330
47
102
}
330
47
100
AcDbScale
 70
     0
300
4:1
140
4.0
141
1.0
290
     0
  0
SCALE
  5
56
102
{ACAD_REACTORS
330
47
102
}
330
47
100
AcDbScale
 70
     0
300
8:1
140
8.0
141
1.0
290
     0
  0
SCALE
  5
57
102
{ACAD_REACTORS
330
47
102
}
330
47
100
AcDbScale
 70
     0
300
10:1
140
10.0
141
1.0
290
     0
  0
SCALE
  5
58
102
{ACAD_REACTORS
330
47
102
}
330
47
100
AcDbScale
 70
     0
300
100:1
140
100.0
141
1.0
290
     0
  0
SCALE
  5
59
102
{ACAD_REACTORS
330
47
102
}
330
47
100
AcDbScale
 70
     0
300
1/128" = 1'-0"
140
0.0078125
141
12.0
290
     0
  0
SCALE
  5
5A
102
{ACAD_REACTORS
330
47
102
}
330
47
100
AcDbScale
 70
     0
300
1/64" = 1'-0"
140
0.015625
141
12.0
290
     0
  0
SCALE
  5
5B
102
{ACAD_REACTORS
330
47
102
}
330
47
100
AcDbScale
 70
     0
300
1/32" = 1'-0"
140
0.03125
141
12.0
290
     0
  0
SCALE
  5
5C
102
{ACAD_REACTORS
330
47
102
}
330
47
100
AcDbScale
 70
     0
300
1/16" = 1'-0"
140
0.0625
141
12.0
290
     0
  0
SCALE
  5
5D
102
{ACAD_REACTORS
330
47
102
}
330
47
100
AcDbScale
 70
     0
300
3/32" = 1'-0"
140
0.09375
141
12.0
290
     0
  0
SCALE
  5
5E
102
{ACAD_REACTORS
330
47
102
}
330
47
100
AcDbScale
 70
     0
300
1/8" = 1'-0"
140
0.125
141
12.0
290
     0
  0
SCALE
  5
5F
102
{ACAD_REACTORS
330
47
102
}
330
47
100
AcDbScale
 70
     0
300
3/16" = 1'-0"
140
0.1875
141
12.0
290
     0
  0
SCALE
  5
60
102
{ACAD_REACTORS
330
47
102
}
330
47
100
AcDbScale
 70
     0
300
1/4" = 1'-0"
140
0.25
141
12.0
290
     0
  0
SCALE
  5
61
102
{ACAD_REACTORS
330
47
102
}
330
47
100
AcDbScale
 70
     0
300
3/8" = 1'-0"
140
0.375
141
12.0
290
     0
  0
SCALE
  5
62
102
{ACAD_REACTORS
330
47
102
}
330
47
100
AcDbScale
 70
     0
300
1/2" = 1'-0"
140
0.5
141
12.0
290
     0
  0
SCALE
  5
63
102
{ACAD_REACTORS
330
47
102
}
330
47
100
AcDbScale
 70
     0
300
3/4" = 1'-0"
140
0.75
141
12.0
290
     0
  0
SCALE
  5
64
102
{ACAD_REACTORS
330
47
102
}
330
47
100
AcDbScale
 70
     0
300
1" = 1'-0"
140
1.0
141
12.0
290
     0
  0
SCALE
  5
65
102
{ACAD_REACTORS
330
47
102
}
330
47
100
AcDbScale
 70
     0
300
1-1/2" = 1'-0"
140
1.5
141
12.0
290
     0
  0
SCALE
  5
66
102
{ACAD_REACTORS
330
47
102
}
330
47
100
AcDbScale
 70
     0
300
3" = 1'-0"
140
3.0
141
12.0
290
     0
  0
SCALE
  5
67
102
{ACAD_REACTORS
330
47
102
}
330
47
100
AcDbScale
 70
     0
300
6" = 1'-0"
140
6.0
141
12.0
290
     0
  0
SCALE
  5
68
102
{ACAD_REACTORS
330
47
102
}
330
47
100
AcDbScale
 70
     0
300
1'-0" = 1'-0"
140
12.0
141
12.0
290
     0
  0
TABLESTYLE
  5
6A
102
{ACAD_REACTORS
330
69
102
}
102
{ACAD_XDICTIONARY
360
1FD
102
}
330
69
100
AcDbTableStyle
  3
Standard
 70
     0
 71
     0
 40
0.06
 41
0.06
280
     0
281
     0
  7
Standard
140
4.5
170
     2
 62
     0
 63
   257
283
     0
 90
        4
 91
        0
  1

274
    -2
284
     1
 64
     0
275
    -2
285
     1
 65
     0
276
    -2
286
     1
 66
     0
277
    -2
287
     1
 67
     0
278
    -2
288
     1
 68
     0
279
    -2
289
     1
 69
     0
  7
Standard
140
6.0
170
     5
 62
     0
 63
   257
283
     0
 90
        4
 91
        0
  1

274
    -2
284
     1
 64
     0
275
    -2
285
     1
 65
     0
276
    -2
286
     1
 66
     0
277
    -2
287
     1
 67
     0
278
    -2
288
     1
 68
     0
279
    -2
289
     1
 69
     0
  7
Standard
140
4.5
170
     5
 62
     0
 63
   257
283
     0
 90
        4
 91
        0
  1

274
    -2
284
     1
 64
     0
275
    -2
285
     1
 65
     0
276
    -2
286
     1
 66
     0
277
    -2
287
     1
 67
     0
278
    -2
288
     1
 68
     0
279
    -2
289
     1
 69
     0
  0
VISUALSTYLE
  5
2F
102
{ACAD_REACTORS
330
2A
102
}
330
2A
100
AcDbVisualStyle
  2
2dWireframe
 70
     4
177
     3
291
     0
 70
    58
 90
        0
176
     1
 90
        2
176
     1
 90
        0
176
     1
 90
        0
176
     1
 40
0.6
176
     1
 40
30.0
176
     1
 62
     7
420
 16777215
176
     1
 90
        1
176
     1
 90
        4
176
     1
 62
     7
176
     1
 62
   257
176
     1
 90
        1
176
     1
 90
        1
176
     1
 40
1.0
176
     1
 90
        0
176
     1
 62
   257
176
     1
 40
1.0
176
     1
 90
        1
176
     1
 90
        6
176
     1
 90
        2
176
     1
 62
     7
176
     1
 90
        5
176
     1
 90
        0
176
     1
 90
        0
176
     1
290
     0
176
     1
 90
        1
176
     1
 40
0.0
176
     1
 90
        0
176
     1
290
     1
176
     1
290
     1
176
     1
290
     0
176
     1
290
     0
176
     1
290
     0
176
     1
290
     0
176
     1
290
     0
176
     1
290
     0
176
     1
290
     0
176
     1
 90
       50
176
     1
 40
0.0
176
     1
 40
1.0
176
     1
 90
        0
176
     1
 62
    18
420
        0
176
     1
 90
       50
176
     1
 90
        3
176
     1
 62
     5
420
      255
176
     1
290
     0
176
     1
 90
       50
176
     1
 90
       50
176
     1
 90
       50
176
     1
290
     0
176
     1
 90
       50
176
     1
 62
   256
176
     0
 40
1.0
176
     0
 90
        2
176
     1
  1
strokes_ogs.tif
176
     1
290
     0
176
     1
 40
1.0
176
     1
 40
1.0
176
     1
  0
VISUALSTYLE
  5
32
102
{ACAD_REACTORS
330
2A
102
}
330
2A
100
AcDbVisualStyle
  2
Basic
 70
     7
177
     3
291
     1
 70
    58
 90
        1
176
     1
 90
        0
176
     1
 90
        1
176
     1
 90
        0
176
     1
 40
0.6
176
     1
 40
30.0
176
     1
 62
     7
420
 16777215
176
     1
 90
        0
176
     1
 90
        4
176
     1
 62
     7
176
     1
 62
   257
176
     1
 90
        1
176
     1
 90
        1
176
     1
 40
1.0
176
     1
 90
        8
176
     1
 62
     7
176
     1
 40
1.0
176
     1
 90
        1
176
     1
 90
        6
176
     1
 90
        2
176
     1
 62
     7
176
     1
 90
        5
176
     1
 90
        0
176
     1
 90
        0
176
     1
290
     0
176
     1
 90
        1
176
     1
 40
0.0
176
     1
 90
        0
176
     1
290
     0
176
     1
290
     1
176
     1
290
     1
176
     1
290
     0
176
     1
290
     0
176
     1
290
     0
176
     1
290
     0
176
     1
290
     0
176
     1
290
     0
176
     1
 90
       50
176
     1
 40
0.0
176
     1
 40
1.0
176
     1
 90
        0
176
     1
 62
    18
420
        0
176
     1
 90
       50
176
     1
 90
        3
176
     1
 62
     5
420
      255
176
     1
290
     0
176
     1
 90
       50
176
     1
 90
       50
176
     1
 90
       50
176
     1
290
     0
176
     1
 90
       50
176
     1
 62
   256
176
     0
 40
1.0
176
     0
 90
        2
176
     1
  1
strokes_ogs.tif
176
     1
290
     0
176
     1
 40
1.0
176
     1
 40
1.0
176
     1
  0
VISUALSTYLE
  5
36
102
{ACAD_REACTORS
330
2A
102
}
330
2A
100
AcDbVisualStyle
  2
Brighten
 70
    12
177
     3
291
     1
 70
    58
 90
        2
176
     1
 90
        2
176
     1
 90
        0
176
     1
 90
        0
176
     1
 40
0.6
176
     1
 40
30.0
176
     1
 62
     7
420
 16777215
176
     1
 90
        1
176
     1
 90
        4
176
     1
 62
     7
176
     1
 62
   257
176
     1
 90
        1
176
     1
 90
        1
176
     1
 40
1.0
176
     1
 90
        8
176
     1
 62
     7
176
     1
 40
1.0
176
     1
 90
        1
176
     1
 90
        6
176
     1
 90
        2
176
     1
 62
     7
176
     1
 90
        5
176
     1
 90
        0
176
     1
 90
        0
176
     1
290
     0
176
     1
 90
        1
176
     1
 40
50.0
176
     1
 90
        0
176
     1
290
     0
176
     1
290
     1
176
     1
290
     1
176
     1
290
     0
176
     1
290
     0
176
     1
290
     0
176
     1
290
     0
176
     1
290
     0
176
     1
290
     0
176
     1
 90
       50
176
     1
 40
0.0
176
     1
 40
1.0
176
     1
 90
        0
176
     1
 62
    18
420
        0
176
     1
 90
       50
176
     1
 90
        3
176
     1
 62
     5
420
      255
176
     1
290
     0
176
     1
 90
       50
176
     1
 90
       50
176
     1
 90
       50
176
     1
290
     0
176
     1
 90
       50
176
     1
 62
   256
176
     0
 40
1.0
176
     0
 90
        2
176
     1
  1
strokes_ogs.tif
176
     1
290
     0
176
     1
 40
1.0
176
     1
 40
1.0
176
     1
  0
VISUALSTYLE
  5
3A
102
{ACAD_REACTORS
330
2A
102
}
330
2A
100
AcDbVisualStyle
  2
ColorChange
 70
    16
177
     3
291
     1
 70
    58
 90
        2
176
     1
 90
        2
176
     1
 90
        3
176
     1
 90
        0
176
     1
 40
0.6
176
     1
 40
30.0
176
     1
 62
     8
420
  8421504
176
     1
 90
        1
176
     1
 90
        4
176
     1
 62
     7
176
     1
 62
   257
176
     1
 90
        1
176
     1
 90
        1
176
     1
 40
1.0
176
     1
 90
        8
176
     1
 62
     8
420
  8421504
176
     1
 40
1.0
176
     1
 90
        1
176
     1
 90
        6
176
     1
 90
        2
176
     1
 62
     7
176
     1
 90
        5
176
     1
 90
        0
176
     1
 90
        0
176
     1
290
     0
176
     1
 90
        1
176
     1
 40
0.0
176
     1
 90
        0
176
     1
290
     0
176
     1
290
     1
176
     1
290
     1
176
     1
290
     0
176
     1
290
     0
176
     1
290
     0
176
     1
290
     0
176
     1
290
     0
176
     1
290
     0
176
     1
 90
       50
176
     1
 40
0.0
176
     1
 40
1.0
176
     1
 90
        0
176
     1
 62
    18
420
        0
176
     1
 90
       50
176
     1
 90
        3
176
     1
 62
     5
420
      255
176
     1
290
     0
176
     1
 90
       50
176
     1
 90
       50
176
     1
 90
       50
176
     1
290
     0
176
     1
 90
       50
176
     1
 62
   256
176
     0
 40
1.0
176
     0
 90
        2
176
     1
  1
strokes_ogs.tif
176
     1
290
     0
176
     1
 40
1.0
176
     1
 40
1.0
176
     1
  0
VISUALSTYLE
  5
34
102
{ACAD_REACTORS
330
2A
102
}
330
2A
100
AcDbVisualStyle
  2
Conceptual
 70
     9
177
     3
291
     0
 70
    58
 90
        3
176
     1
 90
        2
176
     1
 90
        0
176
     1
 90
        0
176
     1
 40
0.6
176
     1
 40
30.0
176
     1
 62
     7
420
 16777215
176
     1
 90
        2
176
     1
 90
        2
176
     1
 62
     7
176
     1
 62
   257
176
     1
 90
        1
176
     1
 90
        1
176
     1
 40
179.0
176
     1
 90
        8
176
     1
 62
     7
176
     1
 40
1.0
176
     1
 90
        1
176
     1
 90
        6
176
     1
 90
        2
176
     1
 62
     7
176
     1
 90
        3
176
     1
 90
        0
176
     1
 90
        0
176
     1
290
     0
176
     1
 90
        1
176
     1
 40
0.0
176
     1
 90
        0
176
     1
290
     0
176
     1
290
     1
176
     1
290
     1
176
     1
290
     0
176
     1
290
     0
176
     1
290
     0
176
     1
290
     0
176
     1
290
     0
176
     1
290
     0
176
     1
 90
       50
176
     1
 40
0.0
176
     1
 40
1.0
176
     1
 90
        0
176
     1
 62
    18
420
        0
176
     1
 90
       50
176
     1
 90
        3
176
     1
 62
     5
420
      255
176
     1
290
     0
176
     1
 90
       50
176
     1
 90
       50
176
     1
 90
       50
176
     1
290
     0
176
     1
 90
       50
176
     1
 62
   256
176
     0
 40
1.0
176
     0
 90
        2
176
     1
  1
strokes_ogs.tif
176
     1
290
     0
176
     1
 40
1.0
176
     1
 40
1.0
176
     1
  0
VISUALSTYLE
  5
35
102
{ACAD_REACTORS
330
2A
102
}
330
2A
100
AcDbVisualStyle
  2
Dim
 70
    11
177
     3
291
     1
 70
    58
 90
        2
176
     1
 90
        2
176
     1
 90
        0
176
     1
 90
        0
176
     1
 40
0.6
176
     1
 40
30.0
176
     1
 62
     7
420
 16777215
176
     1
 90
        1
176
     1
 90
        4
176
     1
 62
     7
176
     1
 62
   257
176
     1
 90
        1
176
     1
 90
        1
176
     1
 40
1.0
176
     1
 90
        8
176
     1
 62
     7
176
     1
 40
1.0
176
     1
 90
        1
176
     1
 90
        6
176
     1
 90
        2
176
     1
 62
     7
176
     1
 90
        5
176
     1
 90
        0
176
     1
 90
        0
176
     1
290
     0
176
     1
 90
        1
176
     1
 40
-50.0
176
     1
 90
        0
176
     1
290
     0
176
     1
290
     1
176
     1
290
     1
176
     1
290
     0
176
     1
290
     0
176
     1
290
     0
176
     1
290
     0
176
     1
290
     0
176
     1
290
     0
176
     1
 90
       50
176
     1
 40
0.0
176
     1
 40
1.0
176
     1
 90
        0
176
     1
 62
    18
420
        0
176
     1
 90
       50
176
     1
 90
        3
176
     1
 62
     5
420
      255
176
     1
290
     0
176
     1
 90
       50
176
     1
 90
       50
176
     1
 90
       50
176
     1
290
     0
176
     1
 90
       50
176
     1
 62
   256
176
     0
 40
1.0
176
     0
 90
        2
176
     1
  1
strokes_ogs.tif
176
     1
290
     0
176
     1
 40
1.0
176
     1
 40
1.0
176
     1
  0
VISUALSTYLE
  5
3D
102
{ACAD_REACTORS
330
2A
102
}
330
2A
100
AcDbVisualStyle
  2
EdgeColorOff
 70
    22
177
     3
291
     1
 70
    58
 90
        2
176
     0
 90
        2
176
     0
 90
        0
176
     0
 90
        0
176
     0
 40
0.6
176
     0
 40
30.0
176
     0
 62
     7
420
 16777215
176
     0
 90
        1
176
     0
 90
        4
176
     0
 62
     7
176
     0
 62
   257
176
     0
 90
        1
176
     0
 90
        1
176
     0
 40
1.0
176
     0
 90
        8
176
     2
 62
     7
176
     0
 40
1.0
176
     0
 90
        1
176
     0
 90
        6
176
     0
 90
        2
176
     0
 62
     7
176
     0
 90
        5
176
     0
 90
        0
176
     0
 90
        0
176
     0
290
     0
176
     0
 90
        1
176
     0
 40
0.0
176
     0
 90
        0
176
     0
290
     0
176
     0
290
     1
176
     0
290
     1
176
     0
290
     0
176
     0
290
     0
176
     0
290
     0
176
     0
290
     0
176
     0
290
     0
176
     0
290
     0
176
     0
 90
       50
176
     0
 40
0.0
176
     0
 40
1.0
176
     0
 90
        0
176
     0
 62
    18
420
        0
176
     0
 90
       50
176
     0
 90
        3
176
     0
 62
     5
420
      255
176
     0
290
     0
176
     0
 90
       50
176
     0
 90
       50
176
     0
 90
       50
176
     0
290
     0
176
     0
 90
       50
176
     0
 62
   256
176
     0
 40
1.0
176
     0
 90
        2
176
     0
  1
strokes_ogs.tif
176
     0
290
     0
176
     0
 40
1.0
176
     0
 40
1.0
176
     0
  0
VISUALSTYLE
  5
39
102
{ACAD_REACTORS
330
2A
102
}
330
2A
100
AcDbVisualStyle
  2
Facepattern
 70
    15
177
     3
291
     1
 70
    58
 90
        2
176
     1
 90
        2
176
     1
 90
        0
176
     1
 90
        0
176
     1
 40
0.6
176
     1
 40
30.0
176
     1
 62
     7
420
 16777215
176
     1
 90
        1
176
     1
 90
        4
176
     1
 62
     7
176
     1
 62
   257
176
     1
 90
        1
176
     1
 90
        1
176
     1
 40
1.0
176
     1
 90
        8
176
     1
 62
     7
176
     1
 40
1.0
176
     1
 90
        1
176
     1
 90
        6
176
     1
 90
        2
176
     1
 62
     7
176
     1
 90
        5
176
     1
 90
        0
176
     1
 90
        0
176
     1
290
     0
176
     1
 90
        1
176
     1
 40
0.0
176
     1
 90
        0
176
     1
290
     0
176
     1
290
     1
176
     1
290
     1
176
     1
290
     0
176
     1
290
     0
176
     1
290
     0
176
     1
290
     0
176
     1
290
     0
176
     1
290
     0
176
     1
 90
       50
176
     1
 40
0.0
176
     1
 40
1.0
176
     1
 90
        0
176
     1
 62
    18
420
        0
176
     1
 90
       50
176
     1
 90
        3
176
     1
 62
     5
420
      255
176
     1
290
     0
176
     1
 90
       50
176
     1
 90
       50
176
     1
 90
       50
176
     1
290
     0
176
     1
 90
       50
176
     1
 62
   256
176
     0
 40
1.0
176
     0
 90
        2
176
     1
  1
strokes_ogs.tif
176
     1
290
     0
176
     1
 40
1.0
176
     1
 40
1.0
176
     1
  0
VISUALSTYLE
  5
2B
102
{ACAD_REACTORS
330
2A
102
}
330
2A
100
AcDbVisualStyle
  2
Flat
 70
     0
177
     3
291
     1
 70
    58
 90
        2
176
     1
 90
        1
176
     1
 90
        1
176
     1
 90
        2
176
     1
 40
0.6
176
     1
 40
30.0
176
     1
 62
     7
420
 16777215
176
     1
 90
        0
176
     1
 90
        0
176
     1
 62
     7
176
     1
 62
   257
176
     1
 90
        1
176
     1
 90
        1
176
     1
 40
1.0
176
     1
 90
        8
176
     1
 62
     7
176
     1
 40
1.0
176
     1
 90
        1
176
     1
 90
        6
176
     1
 90
        2
176
     1
 62
     7
176
     1
 90
        5
176
     1
 90
        0
176
     1
 90
        0
176
     1
290
     0
176
     1
 90
       13
176
     1
 40
0.0
176
     1
 90
        0
176
     1
290
     0
176
     1
290
     1
176
     1
290
     1
176
     1
290
     0
176
     1
290
     0
176
     1
290
     0
176
     1
290
     0
176
     1
290
     0
176
     1
290
     0
176
     1
 90
       50
176
     1
 40
0.0
176
     1
 40
1.0
176
     1
 90
        0
176
     1
 62
    18
420
        0
176
     1
 90
       50
176
     1
 90
        3
176
     1
 62
     5
420
      255
176
     1
290
     0
176
     1
 90
       50
176
     1
 90
       50
176
     1
 90
       50
176
     1
290
     0
176
     1
 90
       50
176
     1
 62
   256
176
     0
 40
1.0
176
     0
 90
        2
176
     1
  1
strokes_ogs.tif
176
     1
290
     0
176
     1
 40
1.0
176
     1
 40
1.0
176
     1
  0
VISUALSTYLE
  5
2C
102
{ACAD_REACTORS
330
2A
102
}
330
2A
100
AcDbVisualStyle
  2
FlatWithEdges
 70
     1
177
     3
291
     1
 70
    58
 90
        2
176
     1
 90
        1
176
     1
 90
        1
176
     1
 90
        2
176
     1
 40
0.6
176
     1
 40
30.0
176
     1
 62
     7
420
 16777215
176
     1
 90
        1
176
     1
 90
        0
176
     1
 62
     7
176
     1
 62
   257
176
     1
 90
        1
176
     1
 90
        1
176
     1
 40
1.0
176
     1
 90
        0
176
     1
 62
   257
176
     1
 40
1.0
176
     1
 90
        1
176
     1
 90
        6
176
     1
 90
        2
176
     1
 62
     7
176
     1
 90
        5
176
     1
 90
        0
176
     1
 90
        0
176
     1
290
     0
176
     1
 90
       13
176
     1
 40
0.0
176
     1
 90
        0
176
     1
290
     0
176
     1
290
     1
176
     1
290
     1
176
     1
290
     0
176
     1
290
     0
176
     1
290
     0
176
     1
290
     0
176
     1
290
     0
176
     1
290
     0
176
     1
 90
       50
176
     1
 40
0.0
176
     1
 40
1.0
176
     1
 90
        0
176
     1
 62
    18
420
        0
176
     1
 90
       50
176
     1
 90
        3
176
     1
 62
     5
420
      255
176
     1
290
     0
176
     1
 90
       50
176
     1
 90
       50
176
     1
 90
       50
176
     1
290
     0
176
     1
 90
       50
176
     1
 62
   256
176
     0
 40
1.0
176
     0
 90
        2
176
     1
  1
strokes_ogs.tif
176
     1
290
     0
176
     1
 40
1.0
176
     1
 40
1.0
176
     1
  0
VISUALSTYLE
  5
2D
102
{ACAD_REACTORS
330
2A
102
}
330
2A
100
AcDbVisualStyle
  2
Gouraud
 70
     2
177
     3
291
     1
 70
    58
 90
        2
176
     1
 90
        2
176
     1
 90
        1
176
     1
 90
        2
176
     1
 40
0.6
176
     1
 40
30.0
176
     1
 62
     7
420
 16777215
176
     1
 90
        0
176
     1
 90
        0
176
     1
 62
     7
176
     1
 62
   257
176
     1
 90
        1
176
     1
 90
        1
176
     1
 40
1.0
176
     1
 90
        0
176
     1
 62
     7
176
     1
 40
1.0
176
     1
 90
        1
176
     1
 90
        6
176
     1
 90
        2
176
     1
 62
     7
176
     1
 90
        5
176
     1
 90
        0
176
     1
 90
        0
176
     1
290
     0
176
     1
 90
       13
176
     1
 40
0.0
176
     1
 90
        0
176
     1
290
     0
176
     1
290
     1
176
     1
290
     1
176
     1
290
     0
176
     1
290
     0
176
     1
290
     0
176
     1
290
     0
176
     1
290
     0
176
     1
290
     0
176
     1
 90
       50
176
     1
 40
0.0
176
     1
 40
1.0
176
     1
 90
        0
176
     1
 62
    18
420
        0
176
     1
 90
       50
176
     1
 90
        3
176
     1
 62
     5
420
      255
176
     1
290
     0
176
     1
 90
       50
176
     1
 90
       50
176
     1
 90
       50
176
     1
290
     0
176
     1
 90
       50
176
     1
 62
   256
176
     0
 40
1.0
176
     0
 90
        2
176
     1
  1
strokes_ogs.tif
176
     1
290
     0
176
     1
 40
1.0
176
     1
 40
1.0
176
     1
  0
VISUALSTYLE
  5
2E
102
{ACAD_REACTORS
330
2A
102
}
330
2A
100
AcDbVisualStyle
  2
GouraudWithEdges
 70
     3
177
     3
291
     1
 70
    58
 90
        2
176
     1
 90
        2
176
     1
 90
        1
176
     1
 90
        2
176
     1
 40
0.6
176
     1
 40
30.0
176
     1
 62
     7
420
 16777215
176
     1
 90
        1
176
     1
 90
        0
176
     1
 62
     7
176
     1
 62
   257
176
     1
 90
        1
176
     1
 90
        1
176
     1
 40
1.0
176
     1
 90
        0
176
     1
 62
   257
176
     1
 40
1.0
176
     1
 90
        1
176
     1
 90
        6
176
     1
 90
        2
176
     1
 62
     7
176
     1
 90
        5
176
     1
 90
        0
176
     1
 90
        0
176
     1
290
     0
176
     1
 90
       13
176
     1
 40
0.0
176
     1
 90
        0
176
     1
290
     0
176
     1
290
     1
176
     1
290
     1
176
     1
290
     0
176
     1
290
     0
176
     1
290
     0
176
     1
290
     0
176
     1
290
     0
176
     1
290
     0
176
     1
 90
       50
176
     1
 40
0.0
176
     1
 40
1.0
176
     1
 90
        0
176
     1
 62
    18
420
        0
176
     1
 90
       50
176
     1
 90
        3
176
     1
 62
     5
420
      255
176
     1
290
     0
176
     1
 90
       50
176
     1
 90
       50
176
     1
 90
       50
176
     1
290
     0
176
     1
 90
       50
176
     1
 62
   256
176
     0
 40
1.0
176
     0
 90
        2
176
     1
  1
strokes_ogs.tif
176
     1
290
     0
176
     1
 40
1.0
176
     1
 40
1.0
176
     1
  0
VISUALSTYLE
  5
31
102
{ACAD_REACTORS
330
2A
102
}
330
2A
100
AcDbVisualStyle
  2
Hidden
 70
     6
177
     3
291
     0
 70
    58
 90
        1
176
     1
 90
        2
176
     1
 90
        2
176
     1
 90
        0
176
     1
 40
0.6
176
     1
 40
30.0
176
     1
 62
     7
420
 16777215
176
     1
 90
        2
176
     1
 90
        2
176
     1
 62
     7
176
     1
 62
   257
176
     1
 90
        2
176
     1
 90
        1
176
     1
 40
40.0
176
     1
 90
        0
176
     1
 62
   257
176
     1
 40
1.0
176
     1
 90
        1
176
     1
 90
        6
176
     1
 90
        2
176
     1
 62
     7
176
     1
 90
        3
176
     1
 90
        0
176
     1
 90
        0
176
     1
290
     0
176
     1
 90
        1
176
     1
 40
0.0
176
     1
 90
        0
176
     1
290
     0
176
     1
290
     1
176
     1
290
     1
176
     1
290
     0
176
     1
290
     0
176
     1
290
     0
176
     1
290
     0
176
     1
290
     0
176
     1
290
     0
176
     1
 90
       50
176
     1
 40
0.0
176
     1
 40
1.0
176
     1
 90
        0
176
     1
 62
    18
420
        0
176
     1
 90
       50
176
     1
 90
        3
176
     1
 62
     5
420
      255
176
     1
290
     0
176
     1
 90
       50
176
     1
 90
       50
176
     1
 90
       50
176
     1
290
     0
176
     1
 90
       50
176
     1
 62
   256
176
     0
 40
1.0
176
     0
 90
        2
176
     1
  1
strokes_ogs.tif
176
     1
290
     0
176
     1
 40
1.0
176
     1
 40
1.0
176
     1
  0
VISUALSTYLE
  5
3B
102
{ACAD_REACTORS
330
2A
102
}
330
2A
100
AcDbVisualStyle
  2
JitterOff
 70
    20
177
     3
291
     1
 70
    58
 90
        2
176
     0
 90
        2
176
     0
 90
        0
176
     0
 90
        0
176
     0
 40
0.6
176
     0
 40
30.0
176
     0
 62
     7
420
 16777215
176
     0
 90
        1
176
     0
 90
        4
176
     0
 62
     7
176
     0
 62
   257
176
     0
 90
        1
176
     0
 90
        1
176
     0
 40
1.0
176
     0
 90
       10
176
     2
 62
     7
176
     0
 40
1.0
176
     0
 90
        1
176
     0
 90
        6
176
     0
 90
        2
176
     0
 62
     7
176
     0
 90
        5
176
     0
 90
        0
176
     0
 90
        0
176
     0
290
     0
176
     0
 90
        1
176
     0
 40
0.0
176
     0
 90
        0
176
     0
290
     0
176
     0
290
     1
176
     0
290
     1
176
     0
290
     0
176
     0
290
     0
176
     0
290
     0
176
     0
290
     0
176
     0
290
     0
176
     0
290
     0
176
     0
 90
       50
176
     0
 40
0.0
176
     0
 40
1.0
176
     0
 90
        0
176
     0
 62
    18
420
        0
176
     0
 90
       50
176
     0
 90
        3
176
     0
 62
     5
420
      255
176
     0
290
     0
176
     0
 90
       50
176
     0
 90
       50
176
     0
 90
       50
176
     0
290
     0
176
     0
 90
       50
176
     0
 62
   256
176
     0
 40
1.0
176
     0
 90
        2
176
     0
  1
strokes_ogs.tif
176
     0
290
     0
176
     0
 40
1.0
176
     0
 40
1.0
176
     0
  0
VISUALSTYLE
  5
38
102
{ACAD_REACTORS
330
2A
102
}
330
2A
100
AcDbVisualStyle
  2
Linepattern
 70
    14
177
     3
291
     1
 70
    58
 90
        2
176
     1
 90
        2
176
     1
 90
        0
176
     1
 90
        0
176
     1
 40
0.6
176
     1
 40
30.0
176
     1
 62
     7
420
 16777215
176
     1
 90
        1
176
     1
 90
        4
176
     1
 62
     7
176
     1
 62
   257
176
     1
 90
        7
176
     1
 90
        7
176
     1
 40
1.0
176
     1
 90
        8
176
     1
 62
     7
176
     1
 40
1.0
176
     1
 90
        1
176
     1
 90
        6
176
     1
 90
        2
176
     1
 62
     7
176
     1
 90
        5
176
     1
 90
        0
176
     1
 90
        0
176
     1
290
     0
176
     1
 90
        1
176
     1
 40
0.0
176
     1
 90
        0
176
     1
290
     0
176
     1
290
     1
176
     1
290
     1
176
     1
290
     0
176
     1
290
     0
176
     1
290
     0
176
     1
290
     0
176
     1
290
     0
176
     1
290
     0
176
     1
 90
       50
176
     1
 40
0.0
176
     1
 40
1.0
176
     1
 90
        0
176
     1
 62
    18
420
        0
176
     1
 90
       50
176
     1
 90
        3
176
     1
 62
     5
420
      255
176
     1
290
     0
176
     1
 90
       50
176
     1
 90
       50
176
     1
 90
       50
176
     1
290
     0
176
     1
 90
       50
176
     1
 62
   256
176
     0
 40
1.0
176
     0
 90
        2
176
     1
  1
strokes_ogs.tif
176
     1
290
     0
176
     1
 40
1.0
176
     1
 40
1.0
176
     1
  0
VISUALSTYLE
  5
3C
102
{ACAD_REACTORS
330
2A
102
}
330
2A
100
AcDbVisualStyle
  2
OverhangOff
 70
    21
177
     3
291
     1
 70
    58
 90
        2
176
     0
 90
        2
176
     0
 90
        0
176
     0
 90
        0
176
     0
 40
0.6
176
     0
 40
30.0
176
     0
 62
     7
420
 16777215
176
     0
 90
        1
176
     0
 90
        4
176
     0
 62
     7
176
     0
 62
   257
176
     0
 90
        1
176
     0
 90
        1
176
     0
 40
1.0
176
     0
 90
        9
176
     2
 62
     7
176
     0
 40
1.0
176
     0
 90
        1
176
     0
 90
        6
176
     0
 90
        2
176
     0
 62
     7
176
     0
 90
        5
176
     0
 90
        0
176
     0
 90
        0
176
     0
290
     0
176
     0
 90
        1
176
     0
 40
0.0
176
     0
 90
        0
176
     0
290
     0
176
     0
290
     1
176
     0
290
     1
176
     0
290
     0
176
     0
290
     0
176
     0
290
     0
176
     0
290
     0
176
     0
290
     0
176
     0
290
     0
176
     0
 90
       50
176
     0
 40
0.0
176
     0
 40
1.0
176
     0
 90
        0
176
     0
 62
    18
420
        0
176
     0
 90
       50
176
     0
 90
        3
176
     0
 62
     5
420
      255
176
     0
290
     0
176
     0
 90
       50
176
     0
 90
       50
176
     0
 90
       50
176
     0
290
     0
176
     0
 90
       50
176
     0
 62
   256
176
     0
 40
1.0
176
     0
 90
        2
176
     0
  1
strokes_ogs.tif
176
     0
290
     0
176
     0
 40
1.0
176
     0
 40
1.0
176
     0
  0
VISUALSTYLE
  5
33
102
{ACAD_REACTORS
330
2A
102
}
330
2A
100
AcDbVisualStyle
  2
Realistic
 70
     8
177
     3
291
     0
 70
    58
 90
        2
176
     1
 90
        3
176
     1
 90
        0
176
     1
 90
        2
176
     1
 40
0.6
176
     1
 40
30.0
176
     1
 62
     7
420
 16777215
176
     1
 90
        0
176
     1
 90
        0
176
     1
 62
     7
176
     1
 62
   257
176
     1
 90
        1
176
     1
 90
        1
176
     1
 40
1.0
176
     1
 90
        8
176
     1
 62
   257
176
     1
 40
1.0
176
     1
 90
        1
176
     1
 90
        6
176
     1
 90
        2
176
     1
 62
     7
176
     1
 90
        3
176
     1
 90
        0
176
     1
 90
        0
176
     1
290
     0
176
     1
 90
       13
176
     1
 40
0.0
176
     1
 90
        0
176
     1
290
     0
176
     1
290
     1
176
     1
290
     1
176
     1
290
     0
176
     1
290
     0
176
     1
290
     0
176
     1
290
     0
176
     1
290
     0
176
     1
290
     0
176
     1
 90
       50
176
     1
 40
0.0
176
     1
 40
1.0
176
     1
 90
        0
176
     1
 62
    18
420
        0
176
     1
 90
       50
176
     1
 90
        3
176
     1
 62
     5
420
      255
176
     1
290
     0
176
     1
 90
       50
176
     1
 90
       50
176
     1
 90
       50
176
     1
290
     0
176
     1
 90
       50
176
     1
 62
   256
176
     0
 40
1.0
176
     0
 90
        2
176
     1
  1
strokes_ogs.tif
176
     1
290
     0
176
     1
 40
1.0
176
     1
 40
1.0
176
     1
  0
VISUALSTYLE
  5
42
102
{ACAD_REACTORS
330
2A
102
}
330
2A
100
AcDbVisualStyle
  2
Shaded
 70
    27
177
     3
291
     0
 70
    58
 90
        2
176
     1
 90
        2
176
     1
 90
        1
176
     1
 90
        2
176
     1
 40
0.6
176
     1
 40
30.0
176
     1
 62
     7
420
 16777215
176
     1
 90
        0
176
     1
 90
        4
176
     1
 62
     7
176
     1
 62
   257
176
     1
 90
        1
176
     1
 90
        1
176
     1
 40
1.0
176
     1
 90
        8
176
     1
 62
   257
176
     1
 40
1.0
176
     1
 90
        1
176
     1
 90
        6
176
     1
 90
        2
176
     1
 62
     8
420
  7895160
176
     1
 90
        3
176
     1
 90
        0
176
     1
 90
        0
176
     1
290
     0
176
     1
 90
        5
176
     1
 40
0.0
176
     1
 90
        0
176
     1
290
     0
176
     1
290
     1
176
     1
290
     1
176
     1
290
     0
176
     1
290
     0
176
     1
290
     0
176
     1
290
     0
176
     1
290
     0
176
     1
290
     0
176
     1
 90
       50
176
     1
 40
0.0
176
     1
 40
1.0
176
     1
 90
        0
176
     1
 62
    18
420
        0
176
     1
 90
       50
176
     1
 90
        3
176
     1
 62
     5
420
      255
176
     1
290
     0
176
     1
 90
       50
176
     1
 90
       50
176
     1
 90
       50
176
     1
290
     0
176
     1
 90
       50
176
     1
 62
   256
176
     0
 40
1.0
176
     0
 90
        2
176
     1
  1
strokes_ogs.tif
176
     1
290
     0
176
     1
 40
1.0
176
     1
 40
1.0
176
     1
  0
VISUALSTYLE
  5
41
102
{ACAD_REACTORS
330
2A
102
}
330
2A
100
AcDbVisualStyle
  2
Shaded with edges
 70
    26
177
     3
291
     0
 70
    58
 90
        2
176
     1
 90
        2
176
     1
 90
        1
176
     1
 90
        2
176
     1
 40
0.6
176
     1
 40
30.0
176
     1
 62
     7
420
 16777215
176
     1
 90
        1
176
     1
 90
       10
176
     1
 62
     7
176
     1
 62
   257
176
     1
 90
        2
176
     1
 90
        1
176
     1
 40
1.0
176
     1
 90
        8
176
     1
 62
   257
176
     1
 40
1.0
176
     1
 90
        1
176
     1
 90
        6
176
     1
 90
        2
176
     1
 62
     7
176
     1
 90
        3
176
     1
 90
        0
176
     1
 90
        0
176
     1
290
     0
176
     1
 90
        5
176
     1
 40
0.0
176
     1
 90
        0
176
     1
290
     0
176
     1
290
     1
176
     1
290
     1
176
     1
290
     0
176
     1
290
     0
176
     1
290
     0
176
     1
290
     0
176
     1
290
     0
176
     1
290
     0
176
     1
 90
       50
176
     1
 40
0.0
176
     1
 40
1.0
176
     1
 90
        0
176
     1
 62
    18
420
        0
176
     1
 90
       50
176
     1
 90
        3
176
     1
 62
     5
420
      255
176
     1
290
     0
176
     1
 90
       50
176
     1
 90
       50
176
     1
 90
       50
176
     1
290
     0
176
     1
 90
       50
176
     1
 62
   256
176
     0
 40
1.0
176
     0
 90
        2
176
     1
  1
strokes_ogs.tif
176
     1
290
     0
176
     1
 40
1.0
176
     1
 40
1.0
176
     1
  0
VISUALSTYLE
  5
3E
102
{ACAD_REACTORS
330
2A
102
}
330
2A
100
AcDbVisualStyle
  2
Shades of Gray
 70
    23
177
     3
291
     0
 70
    58
 90
        2
176
     1
 90
        2
176
     1
 90
        3
176
     1
 90
        0
176
     1
 40
0.6
176
     1
 40
30.0
176
     1
 62
     7
420
 16777215
176
     1
 90
        2
176
     1
 90
        2
176
     1
 62
     7
176
     1
 62
     7
176
     1
 90
        1
176
     1
 90
        1
176
     1
 40
40.0
176
     1
 90
        8
176
     1
 62
     7
176
     1
 40
1.0
176
     1
 90
        1
176
     1
 90
        6
176
     1
 90
        2
176
     1
 62
     7
176
     1
 90
        3
176
     1
 90
        0
176
     1
 90
        0
176
     1
290
     0
176
     1
 90
        1
176
     1
 40
0.0
176
     1
 90
        0
176
     1
290
     0
176
     1
290
     1
176
     1
290
     1
176
     1
290
     0
176
     1
290
     0
176
     1
290
     0
176
     1
290
     0
176
     1
290
     0
176
     1
290
     0
176
     1
 90
       50
176
     1
 40
0.0
176
     1
 40
1.0
176
     1
 90
        0
176
     1
 62
    18
420
        0
176
     1
 90
       50
176
     1
 90
        3
176
     1
 62
     5
420
      255
176
     1
290
     0
176
     1
 90
       50
176
     1
 90
       50
176
     1
 90
       50
176
     1
290
     0
176
     1
 90
       50
176
     1
 62
   256
176
     0
 40
1.0
176
     0
 90
        2
176
     1
  1
strokes_ogs.tif
176
     1
290
     0
176
     1
 40
1.0
176
     1
 40
1.0
176
     1
  0
VISUALSTYLE
  5
3F
102
{ACAD_REACTORS
330
2A
102
}
330
2A
100
AcDbVisualStyle
  2
Sketchy
 70
    24
177
     3
291
     0
 70
    58
 90
        1
176
     1
 90
        2
176
     1
 90
        2
176
     1
 90
        0
176
     1
 40
0.6
176
     1
 40
30.0
176
     1
 62
     7
420
 16777215
176
     1
 90
        2
176
     1
 90
        2
176
     1
 62
     7
176
     1
 62
     7
176
     1
 90
        1
176
     1
 90
        1
176
     1
 40
40.0
176
     1
 90
       11
176
     1
 62
     7
176
     1
 40
1.0
176
     1
 90
        1
176
     1
 90
        6
176
     1
 90
        2
176
     1
 62
     7
176
     1
 90
        6
176
     1
 90
        0
176
     1
 90
        0
176
     1
290
     0
176
     1
 90
        1
176
     1
 40
0.0
176
     1
 90
        0
176
     1
290
     0
176
     1
290
     1
176
     1
290
     1
176
     1
290
     0
176
     1
290
     0
176
     1
290
     0
176
     1
290
     0
176
     1
290
     0
176
     1
290
     0
176
     1
 90
       50
176
     1
 40
0.0
176
     1
 40
1.0
176
     1
 90
        0
176
     1
 62
    18
420
        0
176
     1
 90
       50
176
     1
 90
        3
176
     1
 62
     5
420
      255
176
     1
290
     0
176
     1
 90
       50
176
     1
 90
       50
176
     1
 90
       50
176
     1
290
     0
176
     1
 90
       50
176
     1
 62
   256
176
     0
 40
1.0
176
     0
 90
        2
176
     1
  1
strokes_ogs.tif
176
     1
290
     0
176
     1
 40
1.0
176
     1
 40
1.0
176
     1
  0
VISUALSTYLE
  5
37
102
{ACAD_REACTORS
330
2A
102
}
330
2A
100
AcDbVisualStyle
  2
Thicken
 70
    13
177
     3
291
     1
 70
    58
 90
        2
176
     1
 90
        2
176
     1
 90
        0
176
     1
 90
        0
176
     1
 40
0.6
176
     1
 40
30.0
176
     1
 62
     7
420
 16777215
176
     1
 90
        1
176
     1
 90
        4
176
     1
 62
     7
176
     1
 62
   257
176
     1
 90
        1
176
     1
 90
        1
176
     1
 40
1.0
176
     1
 90
       12
176
     1
 62
     7
176
     1
 40
1.0
176
     1
 90
        1
176
     1
 90
        6
176
     1
 90
        2
176
     1
 62
     7
176
     1
 90
        5
176
     1
 90
        0
176
     1
 90
        0
176
     1
290
     0
176
     1
 90
        1
176
     1
 40
0.0
176
     1
 90
        0
176
     1
290
     0
176
     1
290
     1
176
     1
290
     1
176
     1
290
     0
176
     1
290
     0
176
     1
290
     0
176
     1
290
     0
176
     1
290
     0
176
     1
290
     0
176
     1
 90
       50
176
     1
 40
0.0
176
     1
 40
1.0
176
     1
 90
        0
176
     1
 62
    18
420
        0
176
     1
 90
       50
176
     1
 90
        3
176
     1
 62
     5
420
      255
176
     1
290
     0
176
     1
 90
       50
176
     1
 90
       50
176
     1
 90
       50
176
     1
290
     0
176
     1
 90
       50
176
     1
 62
   256
176
     0
 40
1.0
176
     0
 90
        2
176
     1
  1
strokes_ogs.tif
176
     1
290
     0
176
     1
 40
1.0
176
     1
 40
1.0
176
     1
  0
VISUALSTYLE
  5
30
102
{ACAD_REACTORS
330
2A
102
}
330
2A
100
AcDbVisualStyle
  2
Wireframe
 70
     5
177
     3
291
     0
 70
    58
 90
        0
176
     1
 90
        2
176
     1
 90
        0
176
     1
 90
        0
176
     1
 40
0.6
176
     1
 40
30.0
176
     1
 62
     7
420
 16777215
176
     1
 90
        1
176
     1
 90
        4
176
     1
 62
     7
176
     1
 62
   257
176
     1
 90
        1
176
     1
 90
        1
176
     1
 40
1.0
176
     1
 90
        0
176
     1
 62
   257
176
     1
 40
1.0
176
     1
 90
        1
176
     1
 90
        6
176
     1
 90
        2
176
     1
 62
     7
176
     1
 90
        3
176
     1
 90
        0
176
     1
 90
        0
176
     1
290
     0
176
     1
 90
        1
176
     1
 40
0.0
176
     1
 90
        0
176
     1
290
     0
176
     1
290
     1
176
     1
290
     1
176
     1
290
     0
176
     1
290
     0
176
     1
290
     0
176
     1
290
     0
176
     1
290
     0
176
     1
290
     0
176
     1
 90
       50
176
     1
 40
0.0
176
     1
 40
1.0
176
     1
 90
        0
176
     1
 62
    18
420
        0
176
     1
 90
       50
176
     1
 90
        3
176
     1
 62
     5
420
      255
176
     1
290
     0
176
     1
 90
       50
176
     1
 90
       50
176
     1
 90
       50
176
     1
290
     0
176
     1
 90
       50
176
     1
 62
   256
176
     0
 40
1.0
176
     0
 90
        2
176
     1
  1
strokes_ogs.tif
176
     1
290
     0
176
     1
 40
1.0
176
     1
 40
1.0
176
     1
  0
VISUALSTYLE
  5
40
102
{ACAD_REACTORS
330
2A
102
}
330
2A
100
AcDbVisualStyle
  2
X-Ray
 70
    25
177
     3
291
     0
 70
    58
 90
        2
176
     1
 90
        2
176
     1
 90
        1
176
     1
 90
        1
176
     1
 40
0.5
176
     1
 40
30.0
176
     1
 62
     7
420
 16777215
176
     1
 90
        1
176
     1
 90
        0
176
     1
 62
     7
176
     1
 62
   257
176
     1
 90
        1
176
     1
 90
        1
176
     1
 40
1.0
176
     1
 90
        8
176
     1
 62
     7
176
     1
 40
1.0
176
     1
 90
        1
176
     1
 90
        6
176
     1
 90
        2
176
     1
 62
     7
176
     1
 90
        3
176
     1
 90
        0
176
     1
 90
        0
176
     1
290
     0
176
     1
 90
       13
176
     1
 40
0.0
176
     1
 90
        0
176
     1
290
     0
176
     1
290
     1
176
     1
290
     1
176
     1
290
     0
176
     1
290
     0
176
     1
290
     0
176
     1
290
     0
176
     1
290
     0
176
     1
290
     0
176
     1
 90
       50
176
     1
 40
0.0
176
     1
 40
1.0
176
     1
 90
        0
176
     1
 62
    18
420
        0
176
     1
 90
       50
176
     1
 90
        3
176
     1
 62
     5
420
      255
176
     1
290
     0
176
     1
 90
       50
176
     1
 90
       50
176
     1
 90
       50
176
     1
290
     0
176
     1
 90
       50
176
     1
 62
   256
176
     0
 40
1.0
176
     0
 90
        2
176
     1
  1
strokes_ogs.tif
176
     1
290
     0
176
     1
 40
1.0
176
     1
 40
1.0
176
     1
  0
DICTIONARYVAR
  5
1FC
102
{ACAD_REACTORS
330
1FB
102
}
330
1FB
100
DictionaryVariables
280
     0
  1
1:1
  0
DICTIONARYVAR
  5
201
102
{ACAD_REACTORS
330
1FB
102
}
330
1FB
100
DictionaryVariables
280
     0
  1
Standard
  0
DICTIONARYVAR
  5
200
102
{ACAD_REACTORS
330
1FB
102
}
330
1FB
100
DictionaryVariables
280
     0
  1
Standard
  0
DICTIONARYVAR
  5
204
102
{ACAD_REACTORS
330
1FB
102
}
330
1FB
100
DictionaryVariables
280
     0
  1
6.000000
  0
DICTIONARY
  5
1FD
330
6A
100
AcDbDictionary
280
     1
281
     1
  3
ACAD_ROUNDTRIP_2008_TABLESTYLE_CELLSTYLEMAP
360
1FE
  0
CELLSTYLEMAP
  5
1FE
102
{ACAD_REACTORS
330
1FD
102
}
330
1FD
100
AcDbCellStyleMap
 90
        3
300
CELLSTYLE
  1
TABLEFORMAT_BEGIN
 90
        5
170
     1
 91
        0
 92
    32768
 62
   257
 93
        1
300
CONTENTFORMAT
  1
CONTENTFORMAT_BEGIN
 90
        0
 91
        0
 92
        4
 93
        0
300

 40
0.0
140
1.0
 94
        5
 62
     0
340
11
144
6.0
309
CONTENTFORMAT_END
171
     1
301
MARGIN
  1
CELLMARGIN_BEGIN
 40
1.5
 40
1.5
 40
1.5
 40
1.5
 40
1.5
 40
1.5
309
CELLMARGIN_END
 94
        6
 95
        1
302
GRIDFORMAT
  1
GRIDFORMAT_BEGIN
 90
        0
 91
        1
 62
     0
 92
       -2
340
14
 93
        0
 40
0.045
309
GRIDFORMAT_END
 95
        2
302
GRIDFORMAT
  1
GRIDFORMAT_BEGIN
 90
        0
 91
        1
 62
     0
 92
       -2
340
14
 93
        0
 40
0.045
309
GRIDFORMAT_END
 95
        4
302
GRIDFORMAT
  1
GRIDFORMAT_BEGIN
 90
        0
 91
        1
 62
     0
 92
       -2
340
14
 93
        0
 40
0.045
309
GRIDFORMAT_END
 95
        8
302
GRIDFORMAT
  1
GRIDFORMAT_BEGIN
 90
        0
 91
        1
 62
     0
 92
       -2
340
14
 93
        0
 40
0.045
309
GRIDFORMAT_END
 95
       16
302
GRIDFORMAT
  1
GRIDFORMAT_BEGIN
 90
        0
 91
        1
 62
     0
 92
       -2
340
14
 93
        0
 40
0.045
309
GRIDFORMAT_END
 95
       32
302
GRIDFORMAT
  1
GRIDFORMAT_BEGIN
 90
        0
 91
        1
 62
     0
 92
       -2
340
14
 93
        0
 40
0.045
309
GRIDFORMAT_END
309
TABLEFORMAT_END
  1
CELLSTYLE_BEGIN
 90
        1
 91
        1
300
_TITLE
309
CELLSTYLE_END
300
CELLSTYLE
  1
TABLEFORMAT_BEGIN
 90
        5
170
     1
 91
        0
 92
        0
 62
   257
 93
        1
300
CONTENTFORMAT
  1
CONTENTFORMAT_BEGIN
 90
        0
 91
        0
 92
        4
 93
        0
300

 40
0.0
140
1.0
 94
        5
 62
     0
340
11
144
4.5
309
CONTENTFORMAT_END
171
     1
301
MARGIN
  1
CELLMARGIN_BEGIN
 40
1.5
 40
1.5
 40
1.5
 40
1.5
 40
1.5
 40
1.5
309
CELLMARGIN_END
 94
        6
 95
        1
302
GRIDFORMAT
  1
GRIDFORMAT_BEGIN
 90
        0
 91
        1
 62
     0
 92
       -2
340
14
 93
        0
 40
0.045
309
GRIDFORMAT_END
 95
        2
302
GRIDFORMAT
  1
GRIDFORMAT_BEGIN
 90
        0
 91
        1
 62
     0
 92
       -2
340
14
 93
        0
 40
0.045
309
GRIDFORMAT_END
 95
        4
302
GRIDFORMAT
  1
GRIDFORMAT_BEGIN
 90
        0
 91
        1
 62
     0
 92
       -2
340
14
 93
        0
 40
0.045
309
GRIDFORMAT_END
 95
        8
302
GRIDFORMAT
  1
GRIDFORMAT_BEGIN
 90
        0
 91
        1
 62
     0
 92
       -2
340
14
 93
        0
 40
0.045
309
GRIDFORMAT_END
 95
       16
302
GRIDFORMAT
  1
GRIDFORMAT_BEGIN
 90
        0
 91
        1
 62
     0
 92
       -2
340
14
 93
        0
 40
0.045
309
GRIDFORMAT_END
 95
       32
302
GRIDFORMAT
  1
GRIDFORMAT_BEGIN
 90
        0
 91
        1
 62
     0
 92
       -2
340
14
 93
        0
 40
0.045
309
GRIDFORMAT_END
309
TABLEFORMAT_END
  1
CELLSTYLE_BEGIN
 90
        2
 91
        1
300
_HEADER
309
CELLSTYLE_END
300
CELLSTYLE
  1
TABLEFORMAT_BEGIN
 90
        5
170
     1
 91
        0
 92
        0
 62
   257
 93
        1
300
CONTENTFORMAT
  1
CONTENTFORMAT_BEGIN
 90
        0
 91
        0
 92
        4
 93
        0
300

 40
0.0
140
1.0
 94
        2
 62
     0
340
11
144
4.5
309
CONTENTFORMAT_END
171
     1
301
MARGIN
  1
CELLMARGIN_BEGIN
 40
1.5
 40
1.5
 40
1.5
 40
1.5
 40
1.5
 40
1.5
309
CELLMARGIN_END
 94
        6
 95
        1
302
GRIDFORMAT
  1
GRIDFORMAT_BEGIN
 90
        0
 91
        1
 62
     0
 92
       -2
340
14
 93
        0
 40
0.045
309
GRIDFORMAT_END
 95
        2
302
GRIDFORMAT
  1
GRIDFORMAT_BEGIN
 90
        0
 91
        1
 62
     0
 92
       -2
340
14
 93
        0
 40
0.045
309
GRIDFORMAT_END
 95
        4
302
GRIDFORMAT
  1
GRIDFORMAT_BEGIN
 90
        0
 91
        1
 62
     0
 92
       -2
340
14
 93
        0
 40
0.045
309
GRIDFORMAT_END
 95
        8
302
GRIDFORMAT
  1
GRIDFORMAT_BEGIN
 90
        0
 91
        1
 62
     0
 92
       -2
340
14
 93
        0
 40
0.045
309
GRIDFORMAT_END
 95
       16
302
GRIDFORMAT
  1
GRIDFORMAT_BEGIN
 90
        0
 91
        1
 62
     0
 92
       -2
340
14
 93
        0
 40
0.045
309
GRIDFORMAT_END
 95
       32
302
GRIDFORMAT
  1
GRIDFORMAT_BEGIN
 90
        0
 91
        1
 62
     0
 92
       -2
340
14
 93
        0
 40
0.045
309
GRIDFORMAT_END
309
TABLEFORMAT_END
  1
CELLSTYLE_BEGIN
 90
        3
 91
        2
300
_DATA
309
CELLSTYLE_END
  0
ENDSEC
  0
EOF
